<?xml version="1.0" encoding="utf-8" standalone="no"?>
<!DOCTYPE svg PUBLIC "-//W3C//DTD SVG 1.1//EN"
  "http://www.w3.org/Graphics/SVG/1.1/DTD/svg11.dtd">
<svg xmlns:xlink="http://www.w3.org/1999/xlink" width="864pt" height="576pt" viewBox="0 0 864 576" xmlns="http://www.w3.org/2000/svg" version="1.1">
 <metadata>
  <rdf:RDF xmlns:dc="http://purl.org/dc/elements/1.1/" xmlns:cc="http://creativecommons.org/ns#" xmlns:rdf="http://www.w3.org/1999/02/22-rdf-syntax-ns#">
   <cc:Work>
    <dc:type rdf:resource="http://purl.org/dc/dcmitype/StillImage"/>
    <dc:date>2025-06-09T18:18:52.642910</dc:date>
    <dc:format>image/svg+xml</dc:format>
    <dc:creator>
     <cc:Agent>
      <dc:title>Matplotlib v3.10.0, https://matplotlib.org/</dc:title>
     </cc:Agent>
    </dc:creator>
   </cc:Work>
  </rdf:RDF>
 </metadata>
 <defs>
  <style type="text/css">*{stroke-linejoin: round; stroke-linecap: butt}</style>
 </defs>
 <g id="figure_1">
  <g id="patch_1">
   <path d="M 0 576 
L 864 576 
L 864 0 
L 0 0 
z
" style="fill: #ffffff"/>
  </g>
  <g id="axes_1">
   <g id="patch_2">
    <path d="M 108 512.64 
L 777.6 512.64 
L 777.6 69.12 
L 108 69.12 
z
" style="fill: #ffffff"/>
   </g>
   <g id="matplotlib.axis_1">
    <g id="xtick_1">
     <g id="line2d_1">
      <defs>
       <path id="me246a110d2" d="M 0 0 
L 0 3.5 
" style="stroke: #000000; stroke-width: 0.8"/>
      </defs>
      <g>
       <use xlink:href="#me246a110d2" x="138.436364" y="512.64" style="stroke: #000000; stroke-width: 0.8"/>
      </g>
     </g>
     <g id="text_1">
      <!-- 0 -->
      <g transform="translate(135.255114 527.238438) scale(0.1 -0.1)">
       <defs>
        <path id="DejaVuSans-30" d="M 2034 4250 
Q 1547 4250 1301 3770 
Q 1056 3291 1056 2328 
Q 1056 1369 1301 889 
Q 1547 409 2034 409 
Q 2525 409 2770 889 
Q 3016 1369 3016 2328 
Q 3016 3291 2770 3770 
Q 2525 4250 2034 4250 
z
M 2034 4750 
Q 2819 4750 3233 4129 
Q 3647 3509 3647 2328 
Q 3647 1150 3233 529 
Q 2819 -91 2034 -91 
Q 1250 -91 836 529 
Q 422 1150 422 2328 
Q 422 3509 836 4129 
Q 1250 4750 2034 4750 
z
" transform="scale(0.015625)"/>
       </defs>
       <use xlink:href="#DejaVuSans-30"/>
      </g>
     </g>
    </g>
    <g id="xtick_2">
     <g id="line2d_2">
      <g>
       <use xlink:href="#me246a110d2" x="257.328409" y="512.64" style="stroke: #000000; stroke-width: 0.8"/>
      </g>
     </g>
     <g id="text_2">
      <!-- 50 -->
      <g transform="translate(250.965909 527.238438) scale(0.1 -0.1)">
       <defs>
        <path id="DejaVuSans-35" d="M 691 4666 
L 3169 4666 
L 3169 4134 
L 1269 4134 
L 1269 2991 
Q 1406 3038 1543 3061 
Q 1681 3084 1819 3084 
Q 2600 3084 3056 2656 
Q 3513 2228 3513 1497 
Q 3513 744 3044 326 
Q 2575 -91 1722 -91 
Q 1428 -91 1123 -41 
Q 819 9 494 109 
L 494 744 
Q 775 591 1075 516 
Q 1375 441 1709 441 
Q 2250 441 2565 725 
Q 2881 1009 2881 1497 
Q 2881 1984 2565 2268 
Q 2250 2553 1709 2553 
Q 1456 2553 1204 2497 
Q 953 2441 691 2322 
L 691 4666 
z
" transform="scale(0.015625)"/>
       </defs>
       <use xlink:href="#DejaVuSans-35"/>
       <use xlink:href="#DejaVuSans-30" transform="translate(63.623047 0)"/>
      </g>
     </g>
    </g>
    <g id="xtick_3">
     <g id="line2d_3">
      <g>
       <use xlink:href="#me246a110d2" x="376.220455" y="512.64" style="stroke: #000000; stroke-width: 0.8"/>
      </g>
     </g>
     <g id="text_3">
      <!-- 100 -->
      <g transform="translate(366.676705 527.238438) scale(0.1 -0.1)">
       <defs>
        <path id="DejaVuSans-31" d="M 794 531 
L 1825 531 
L 1825 4091 
L 703 3866 
L 703 4441 
L 1819 4666 
L 2450 4666 
L 2450 531 
L 3481 531 
L 3481 0 
L 794 0 
L 794 531 
z
" transform="scale(0.015625)"/>
       </defs>
       <use xlink:href="#DejaVuSans-31"/>
       <use xlink:href="#DejaVuSans-30" transform="translate(63.623047 0)"/>
       <use xlink:href="#DejaVuSans-30" transform="translate(127.246094 0)"/>
      </g>
     </g>
    </g>
    <g id="xtick_4">
     <g id="line2d_4">
      <g>
       <use xlink:href="#me246a110d2" x="495.1125" y="512.64" style="stroke: #000000; stroke-width: 0.8"/>
      </g>
     </g>
     <g id="text_4">
      <!-- 150 -->
      <g transform="translate(485.56875 527.238438) scale(0.1 -0.1)">
       <use xlink:href="#DejaVuSans-31"/>
       <use xlink:href="#DejaVuSans-35" transform="translate(63.623047 0)"/>
       <use xlink:href="#DejaVuSans-30" transform="translate(127.246094 0)"/>
      </g>
     </g>
    </g>
    <g id="xtick_5">
     <g id="line2d_5">
      <g>
       <use xlink:href="#me246a110d2" x="614.004545" y="512.64" style="stroke: #000000; stroke-width: 0.8"/>
      </g>
     </g>
     <g id="text_5">
      <!-- 200 -->
      <g transform="translate(604.460795 527.238438) scale(0.1 -0.1)">
       <defs>
        <path id="DejaVuSans-32" d="M 1228 531 
L 3431 531 
L 3431 0 
L 469 0 
L 469 531 
Q 828 903 1448 1529 
Q 2069 2156 2228 2338 
Q 2531 2678 2651 2914 
Q 2772 3150 2772 3378 
Q 2772 3750 2511 3984 
Q 2250 4219 1831 4219 
Q 1534 4219 1204 4116 
Q 875 4013 500 3803 
L 500 4441 
Q 881 4594 1212 4672 
Q 1544 4750 1819 4750 
Q 2544 4750 2975 4387 
Q 3406 4025 3406 3419 
Q 3406 3131 3298 2873 
Q 3191 2616 2906 2266 
Q 2828 2175 2409 1742 
Q 1991 1309 1228 531 
z
" transform="scale(0.015625)"/>
       </defs>
       <use xlink:href="#DejaVuSans-32"/>
       <use xlink:href="#DejaVuSans-30" transform="translate(63.623047 0)"/>
       <use xlink:href="#DejaVuSans-30" transform="translate(127.246094 0)"/>
      </g>
     </g>
    </g>
    <g id="xtick_6">
     <g id="line2d_6">
      <g>
       <use xlink:href="#me246a110d2" x="732.896591" y="512.64" style="stroke: #000000; stroke-width: 0.8"/>
      </g>
     </g>
     <g id="text_6">
      <!-- 250 -->
      <g transform="translate(723.352841 527.238438) scale(0.1 -0.1)">
       <use xlink:href="#DejaVuSans-32"/>
       <use xlink:href="#DejaVuSans-35" transform="translate(63.623047 0)"/>
       <use xlink:href="#DejaVuSans-30" transform="translate(127.246094 0)"/>
      </g>
     </g>
    </g>
    <g id="text_7">
     <!-- Sample number -->
     <g transform="translate(402.948438 540.916563) scale(0.1 -0.1)">
      <defs>
       <path id="DejaVuSans-53" d="M 3425 4513 
L 3425 3897 
Q 3066 4069 2747 4153 
Q 2428 4238 2131 4238 
Q 1616 4238 1336 4038 
Q 1056 3838 1056 3469 
Q 1056 3159 1242 3001 
Q 1428 2844 1947 2747 
L 2328 2669 
Q 3034 2534 3370 2195 
Q 3706 1856 3706 1288 
Q 3706 609 3251 259 
Q 2797 -91 1919 -91 
Q 1588 -91 1214 -16 
Q 841 59 441 206 
L 441 856 
Q 825 641 1194 531 
Q 1563 422 1919 422 
Q 2459 422 2753 634 
Q 3047 847 3047 1241 
Q 3047 1584 2836 1778 
Q 2625 1972 2144 2069 
L 1759 2144 
Q 1053 2284 737 2584 
Q 422 2884 422 3419 
Q 422 4038 858 4394 
Q 1294 4750 2059 4750 
Q 2388 4750 2728 4690 
Q 3069 4631 3425 4513 
z
" transform="scale(0.015625)"/>
       <path id="DejaVuSans-61" d="M 2194 1759 
Q 1497 1759 1228 1600 
Q 959 1441 959 1056 
Q 959 750 1161 570 
Q 1363 391 1709 391 
Q 2188 391 2477 730 
Q 2766 1069 2766 1631 
L 2766 1759 
L 2194 1759 
z
M 3341 1997 
L 3341 0 
L 2766 0 
L 2766 531 
Q 2569 213 2275 61 
Q 1981 -91 1556 -91 
Q 1019 -91 701 211 
Q 384 513 384 1019 
Q 384 1609 779 1909 
Q 1175 2209 1959 2209 
L 2766 2209 
L 2766 2266 
Q 2766 2663 2505 2880 
Q 2244 3097 1772 3097 
Q 1472 3097 1187 3025 
Q 903 2953 641 2809 
L 641 3341 
Q 956 3463 1253 3523 
Q 1550 3584 1831 3584 
Q 2591 3584 2966 3190 
Q 3341 2797 3341 1997 
z
" transform="scale(0.015625)"/>
       <path id="DejaVuSans-6d" d="M 3328 2828 
Q 3544 3216 3844 3400 
Q 4144 3584 4550 3584 
Q 5097 3584 5394 3201 
Q 5691 2819 5691 2113 
L 5691 0 
L 5113 0 
L 5113 2094 
Q 5113 2597 4934 2840 
Q 4756 3084 4391 3084 
Q 3944 3084 3684 2787 
Q 3425 2491 3425 1978 
L 3425 0 
L 2847 0 
L 2847 2094 
Q 2847 2600 2669 2842 
Q 2491 3084 2119 3084 
Q 1678 3084 1418 2786 
Q 1159 2488 1159 1978 
L 1159 0 
L 581 0 
L 581 3500 
L 1159 3500 
L 1159 2956 
Q 1356 3278 1631 3431 
Q 1906 3584 2284 3584 
Q 2666 3584 2933 3390 
Q 3200 3197 3328 2828 
z
" transform="scale(0.015625)"/>
       <path id="DejaVuSans-70" d="M 1159 525 
L 1159 -1331 
L 581 -1331 
L 581 3500 
L 1159 3500 
L 1159 2969 
Q 1341 3281 1617 3432 
Q 1894 3584 2278 3584 
Q 2916 3584 3314 3078 
Q 3713 2572 3713 1747 
Q 3713 922 3314 415 
Q 2916 -91 2278 -91 
Q 1894 -91 1617 61 
Q 1341 213 1159 525 
z
M 3116 1747 
Q 3116 2381 2855 2742 
Q 2594 3103 2138 3103 
Q 1681 3103 1420 2742 
Q 1159 2381 1159 1747 
Q 1159 1113 1420 752 
Q 1681 391 2138 391 
Q 2594 391 2855 752 
Q 3116 1113 3116 1747 
z
" transform="scale(0.015625)"/>
       <path id="DejaVuSans-6c" d="M 603 4863 
L 1178 4863 
L 1178 0 
L 603 0 
L 603 4863 
z
" transform="scale(0.015625)"/>
       <path id="DejaVuSans-65" d="M 3597 1894 
L 3597 1613 
L 953 1613 
Q 991 1019 1311 708 
Q 1631 397 2203 397 
Q 2534 397 2845 478 
Q 3156 559 3463 722 
L 3463 178 
Q 3153 47 2828 -22 
Q 2503 -91 2169 -91 
Q 1331 -91 842 396 
Q 353 884 353 1716 
Q 353 2575 817 3079 
Q 1281 3584 2069 3584 
Q 2775 3584 3186 3129 
Q 3597 2675 3597 1894 
z
M 3022 2063 
Q 3016 2534 2758 2815 
Q 2500 3097 2075 3097 
Q 1594 3097 1305 2825 
Q 1016 2553 972 2059 
L 3022 2063 
z
" transform="scale(0.015625)"/>
       <path id="DejaVuSans-20" transform="scale(0.015625)"/>
       <path id="DejaVuSans-6e" d="M 3513 2113 
L 3513 0 
L 2938 0 
L 2938 2094 
Q 2938 2591 2744 2837 
Q 2550 3084 2163 3084 
Q 1697 3084 1428 2787 
Q 1159 2491 1159 1978 
L 1159 0 
L 581 0 
L 581 3500 
L 1159 3500 
L 1159 2956 
Q 1366 3272 1645 3428 
Q 1925 3584 2291 3584 
Q 2894 3584 3203 3211 
Q 3513 2838 3513 2113 
z
" transform="scale(0.015625)"/>
       <path id="DejaVuSans-75" d="M 544 1381 
L 544 3500 
L 1119 3500 
L 1119 1403 
Q 1119 906 1312 657 
Q 1506 409 1894 409 
Q 2359 409 2629 706 
Q 2900 1003 2900 1516 
L 2900 3500 
L 3475 3500 
L 3475 0 
L 2900 0 
L 2900 538 
Q 2691 219 2414 64 
Q 2138 -91 1772 -91 
Q 1169 -91 856 284 
Q 544 659 544 1381 
z
M 1991 3584 
L 1991 3584 
z
" transform="scale(0.015625)"/>
       <path id="DejaVuSans-62" d="M 3116 1747 
Q 3116 2381 2855 2742 
Q 2594 3103 2138 3103 
Q 1681 3103 1420 2742 
Q 1159 2381 1159 1747 
Q 1159 1113 1420 752 
Q 1681 391 2138 391 
Q 2594 391 2855 752 
Q 3116 1113 3116 1747 
z
M 1159 2969 
Q 1341 3281 1617 3432 
Q 1894 3584 2278 3584 
Q 2916 3584 3314 3078 
Q 3713 2572 3713 1747 
Q 3713 922 3314 415 
Q 2916 -91 2278 -91 
Q 1894 -91 1617 61 
Q 1341 213 1159 525 
L 1159 0 
L 581 0 
L 581 4863 
L 1159 4863 
L 1159 2969 
z
" transform="scale(0.015625)"/>
       <path id="DejaVuSans-72" d="M 2631 2963 
Q 2534 3019 2420 3045 
Q 2306 3072 2169 3072 
Q 1681 3072 1420 2755 
Q 1159 2438 1159 1844 
L 1159 0 
L 581 0 
L 581 3500 
L 1159 3500 
L 1159 2956 
Q 1341 3275 1631 3429 
Q 1922 3584 2338 3584 
Q 2397 3584 2469 3576 
Q 2541 3569 2628 3553 
L 2631 2963 
z
" transform="scale(0.015625)"/>
      </defs>
      <use xlink:href="#DejaVuSans-53"/>
      <use xlink:href="#DejaVuSans-61" transform="translate(63.476562 0)"/>
      <use xlink:href="#DejaVuSans-6d" transform="translate(124.755859 0)"/>
      <use xlink:href="#DejaVuSans-70" transform="translate(222.167969 0)"/>
      <use xlink:href="#DejaVuSans-6c" transform="translate(285.644531 0)"/>
      <use xlink:href="#DejaVuSans-65" transform="translate(313.427734 0)"/>
      <use xlink:href="#DejaVuSans-20" transform="translate(374.951172 0)"/>
      <use xlink:href="#DejaVuSans-6e" transform="translate(406.738281 0)"/>
      <use xlink:href="#DejaVuSans-75" transform="translate(470.117188 0)"/>
      <use xlink:href="#DejaVuSans-6d" transform="translate(533.496094 0)"/>
      <use xlink:href="#DejaVuSans-62" transform="translate(630.908203 0)"/>
      <use xlink:href="#DejaVuSans-65" transform="translate(694.384766 0)"/>
      <use xlink:href="#DejaVuSans-72" transform="translate(755.908203 0)"/>
     </g>
    </g>
   </g>
   <g id="matplotlib.axis_2">
    <g id="ytick_1">
     <g id="line2d_7">
      <defs>
       <path id="m9e13b11c43" d="M 0 0 
L -3.5 0 
" style="stroke: #000000; stroke-width: 0.8"/>
      </defs>
      <g>
       <use xlink:href="#m9e13b11c43" x="108" y="496.640312" style="stroke: #000000; stroke-width: 0.8"/>
      </g>
     </g>
     <g id="text_8">
      <!-- −0.5 -->
      <g transform="translate(76.717187 500.43953) scale(0.1 -0.1)">
       <defs>
        <path id="DejaVuSans-2212" d="M 678 2272 
L 4684 2272 
L 4684 1741 
L 678 1741 
L 678 2272 
z
" transform="scale(0.015625)"/>
        <path id="DejaVuSans-2e" d="M 684 794 
L 1344 794 
L 1344 0 
L 684 0 
L 684 794 
z
" transform="scale(0.015625)"/>
       </defs>
       <use xlink:href="#DejaVuSans-2212"/>
       <use xlink:href="#DejaVuSans-30" transform="translate(83.789062 0)"/>
       <use xlink:href="#DejaVuSans-2e" transform="translate(147.412109 0)"/>
       <use xlink:href="#DejaVuSans-35" transform="translate(179.199219 0)"/>
      </g>
     </g>
    </g>
    <g id="ytick_2">
     <g id="line2d_8">
      <g>
       <use xlink:href="#m9e13b11c43" x="108" y="437.060618" style="stroke: #000000; stroke-width: 0.8"/>
      </g>
     </g>
     <g id="text_9">
      <!-- 0.0 -->
      <g transform="translate(85.096875 440.859837) scale(0.1 -0.1)">
       <use xlink:href="#DejaVuSans-30"/>
       <use xlink:href="#DejaVuSans-2e" transform="translate(63.623047 0)"/>
       <use xlink:href="#DejaVuSans-30" transform="translate(95.410156 0)"/>
      </g>
     </g>
    </g>
    <g id="ytick_3">
     <g id="line2d_9">
      <g>
       <use xlink:href="#m9e13b11c43" x="108" y="377.480924" style="stroke: #000000; stroke-width: 0.8"/>
      </g>
     </g>
     <g id="text_10">
      <!-- 0.5 -->
      <g transform="translate(85.096875 381.280143) scale(0.1 -0.1)">
       <use xlink:href="#DejaVuSans-30"/>
       <use xlink:href="#DejaVuSans-2e" transform="translate(63.623047 0)"/>
       <use xlink:href="#DejaVuSans-35" transform="translate(95.410156 0)"/>
      </g>
     </g>
    </g>
    <g id="ytick_4">
     <g id="line2d_10">
      <g>
       <use xlink:href="#m9e13b11c43" x="108" y="317.90123" style="stroke: #000000; stroke-width: 0.8"/>
      </g>
     </g>
     <g id="text_11">
      <!-- 1.0 -->
      <g transform="translate(85.096875 321.700449) scale(0.1 -0.1)">
       <use xlink:href="#DejaVuSans-31"/>
       <use xlink:href="#DejaVuSans-2e" transform="translate(63.623047 0)"/>
       <use xlink:href="#DejaVuSans-30" transform="translate(95.410156 0)"/>
      </g>
     </g>
    </g>
    <g id="ytick_5">
     <g id="line2d_11">
      <g>
       <use xlink:href="#m9e13b11c43" x="108" y="258.321536" style="stroke: #000000; stroke-width: 0.8"/>
      </g>
     </g>
     <g id="text_12">
      <!-- 1.5 -->
      <g transform="translate(85.096875 262.120755) scale(0.1 -0.1)">
       <use xlink:href="#DejaVuSans-31"/>
       <use xlink:href="#DejaVuSans-2e" transform="translate(63.623047 0)"/>
       <use xlink:href="#DejaVuSans-35" transform="translate(95.410156 0)"/>
      </g>
     </g>
    </g>
    <g id="ytick_6">
     <g id="line2d_12">
      <g>
       <use xlink:href="#m9e13b11c43" x="108" y="198.741843" style="stroke: #000000; stroke-width: 0.8"/>
      </g>
     </g>
     <g id="text_13">
      <!-- 2.0 -->
      <g transform="translate(85.096875 202.541061) scale(0.1 -0.1)">
       <use xlink:href="#DejaVuSans-32"/>
       <use xlink:href="#DejaVuSans-2e" transform="translate(63.623047 0)"/>
       <use xlink:href="#DejaVuSans-30" transform="translate(95.410156 0)"/>
      </g>
     </g>
    </g>
    <g id="ytick_7">
     <g id="line2d_13">
      <g>
       <use xlink:href="#m9e13b11c43" x="108" y="139.162149" style="stroke: #000000; stroke-width: 0.8"/>
      </g>
     </g>
     <g id="text_14">
      <!-- 2.5 -->
      <g transform="translate(85.096875 142.961368) scale(0.1 -0.1)">
       <use xlink:href="#DejaVuSans-32"/>
       <use xlink:href="#DejaVuSans-2e" transform="translate(63.623047 0)"/>
       <use xlink:href="#DejaVuSans-35" transform="translate(95.410156 0)"/>
      </g>
     </g>
    </g>
    <g id="ytick_8">
     <g id="line2d_14">
      <g>
       <use xlink:href="#m9e13b11c43" x="108" y="79.582455" style="stroke: #000000; stroke-width: 0.8"/>
      </g>
     </g>
     <g id="text_15">
      <!-- 3.0 -->
      <g transform="translate(85.096875 83.381674) scale(0.1 -0.1)">
       <defs>
        <path id="DejaVuSans-33" d="M 2597 2516 
Q 3050 2419 3304 2112 
Q 3559 1806 3559 1356 
Q 3559 666 3084 287 
Q 2609 -91 1734 -91 
Q 1441 -91 1130 -33 
Q 819 25 488 141 
L 488 750 
Q 750 597 1062 519 
Q 1375 441 1716 441 
Q 2309 441 2620 675 
Q 2931 909 2931 1356 
Q 2931 1769 2642 2001 
Q 2353 2234 1838 2234 
L 1294 2234 
L 1294 2753 
L 1863 2753 
Q 2328 2753 2575 2939 
Q 2822 3125 2822 3475 
Q 2822 3834 2567 4026 
Q 2313 4219 1838 4219 
Q 1578 4219 1281 4162 
Q 984 4106 628 3988 
L 628 4550 
Q 988 4650 1302 4700 
Q 1616 4750 1894 4750 
Q 2613 4750 3031 4423 
Q 3450 4097 3450 3541 
Q 3450 3153 3228 2886 
Q 3006 2619 2597 2516 
z
" transform="scale(0.015625)"/>
       </defs>
       <use xlink:href="#DejaVuSans-33"/>
       <use xlink:href="#DejaVuSans-2e" transform="translate(63.623047 0)"/>
       <use xlink:href="#DejaVuSans-30" transform="translate(95.410156 0)"/>
      </g>
     </g>
    </g>
    <g id="text_16">
     <!-- Amplitude/Shape Indicator -->
     <g transform="translate(70.6375 357.529219) rotate(-90) scale(0.1 -0.1)">
      <defs>
       <path id="DejaVuSans-41" d="M 2188 4044 
L 1331 1722 
L 3047 1722 
L 2188 4044 
z
M 1831 4666 
L 2547 4666 
L 4325 0 
L 3669 0 
L 3244 1197 
L 1141 1197 
L 716 0 
L 50 0 
L 1831 4666 
z
" transform="scale(0.015625)"/>
       <path id="DejaVuSans-69" d="M 603 3500 
L 1178 3500 
L 1178 0 
L 603 0 
L 603 3500 
z
M 603 4863 
L 1178 4863 
L 1178 4134 
L 603 4134 
L 603 4863 
z
" transform="scale(0.015625)"/>
       <path id="DejaVuSans-74" d="M 1172 4494 
L 1172 3500 
L 2356 3500 
L 2356 3053 
L 1172 3053 
L 1172 1153 
Q 1172 725 1289 603 
Q 1406 481 1766 481 
L 2356 481 
L 2356 0 
L 1766 0 
Q 1100 0 847 248 
Q 594 497 594 1153 
L 594 3053 
L 172 3053 
L 172 3500 
L 594 3500 
L 594 4494 
L 1172 4494 
z
" transform="scale(0.015625)"/>
       <path id="DejaVuSans-64" d="M 2906 2969 
L 2906 4863 
L 3481 4863 
L 3481 0 
L 2906 0 
L 2906 525 
Q 2725 213 2448 61 
Q 2172 -91 1784 -91 
Q 1150 -91 751 415 
Q 353 922 353 1747 
Q 353 2572 751 3078 
Q 1150 3584 1784 3584 
Q 2172 3584 2448 3432 
Q 2725 3281 2906 2969 
z
M 947 1747 
Q 947 1113 1208 752 
Q 1469 391 1925 391 
Q 2381 391 2643 752 
Q 2906 1113 2906 1747 
Q 2906 2381 2643 2742 
Q 2381 3103 1925 3103 
Q 1469 3103 1208 2742 
Q 947 2381 947 1747 
z
" transform="scale(0.015625)"/>
       <path id="DejaVuSans-2f" d="M 1625 4666 
L 2156 4666 
L 531 -594 
L 0 -594 
L 1625 4666 
z
" transform="scale(0.015625)"/>
       <path id="DejaVuSans-68" d="M 3513 2113 
L 3513 0 
L 2938 0 
L 2938 2094 
Q 2938 2591 2744 2837 
Q 2550 3084 2163 3084 
Q 1697 3084 1428 2787 
Q 1159 2491 1159 1978 
L 1159 0 
L 581 0 
L 581 4863 
L 1159 4863 
L 1159 2956 
Q 1366 3272 1645 3428 
Q 1925 3584 2291 3584 
Q 2894 3584 3203 3211 
Q 3513 2838 3513 2113 
z
" transform="scale(0.015625)"/>
       <path id="DejaVuSans-49" d="M 628 4666 
L 1259 4666 
L 1259 0 
L 628 0 
L 628 4666 
z
" transform="scale(0.015625)"/>
       <path id="DejaVuSans-63" d="M 3122 3366 
L 3122 2828 
Q 2878 2963 2633 3030 
Q 2388 3097 2138 3097 
Q 1578 3097 1268 2742 
Q 959 2388 959 1747 
Q 959 1106 1268 751 
Q 1578 397 2138 397 
Q 2388 397 2633 464 
Q 2878 531 3122 666 
L 3122 134 
Q 2881 22 2623 -34 
Q 2366 -91 2075 -91 
Q 1284 -91 818 406 
Q 353 903 353 1747 
Q 353 2603 823 3093 
Q 1294 3584 2113 3584 
Q 2378 3584 2631 3529 
Q 2884 3475 3122 3366 
z
" transform="scale(0.015625)"/>
       <path id="DejaVuSans-6f" d="M 1959 3097 
Q 1497 3097 1228 2736 
Q 959 2375 959 1747 
Q 959 1119 1226 758 
Q 1494 397 1959 397 
Q 2419 397 2687 759 
Q 2956 1122 2956 1747 
Q 2956 2369 2687 2733 
Q 2419 3097 1959 3097 
z
M 1959 3584 
Q 2709 3584 3137 3096 
Q 3566 2609 3566 1747 
Q 3566 888 3137 398 
Q 2709 -91 1959 -91 
Q 1206 -91 779 398 
Q 353 888 353 1747 
Q 353 2609 779 3096 
Q 1206 3584 1959 3584 
z
" transform="scale(0.015625)"/>
      </defs>
      <use xlink:href="#DejaVuSans-41"/>
      <use xlink:href="#DejaVuSans-6d" transform="translate(68.408203 0)"/>
      <use xlink:href="#DejaVuSans-70" transform="translate(165.820312 0)"/>
      <use xlink:href="#DejaVuSans-6c" transform="translate(229.296875 0)"/>
      <use xlink:href="#DejaVuSans-69" transform="translate(257.080078 0)"/>
      <use xlink:href="#DejaVuSans-74" transform="translate(284.863281 0)"/>
      <use xlink:href="#DejaVuSans-75" transform="translate(324.072266 0)"/>
      <use xlink:href="#DejaVuSans-64" transform="translate(387.451172 0)"/>
      <use xlink:href="#DejaVuSans-65" transform="translate(450.927734 0)"/>
      <use xlink:href="#DejaVuSans-2f" transform="translate(512.451172 0)"/>
      <use xlink:href="#DejaVuSans-53" transform="translate(546.142578 0)"/>
      <use xlink:href="#DejaVuSans-68" transform="translate(609.619141 0)"/>
      <use xlink:href="#DejaVuSans-61" transform="translate(672.998047 0)"/>
      <use xlink:href="#DejaVuSans-70" transform="translate(734.277344 0)"/>
      <use xlink:href="#DejaVuSans-65" transform="translate(797.753906 0)"/>
      <use xlink:href="#DejaVuSans-20" transform="translate(859.277344 0)"/>
      <use xlink:href="#DejaVuSans-49" transform="translate(891.064453 0)"/>
      <use xlink:href="#DejaVuSans-6e" transform="translate(920.556641 0)"/>
      <use xlink:href="#DejaVuSans-64" transform="translate(983.935547 0)"/>
      <use xlink:href="#DejaVuSans-69" transform="translate(1047.412109 0)"/>
      <use xlink:href="#DejaVuSans-63" transform="translate(1075.195312 0)"/>
      <use xlink:href="#DejaVuSans-61" transform="translate(1130.175781 0)"/>
      <use xlink:href="#DejaVuSans-74" transform="translate(1191.455078 0)"/>
      <use xlink:href="#DejaVuSans-6f" transform="translate(1230.664062 0)"/>
      <use xlink:href="#DejaVuSans-72" transform="translate(1291.845703 0)"/>
     </g>
    </g>
   </g>
   <g id="line2d_15">
    <path d="M 140.814205 437.060618 
L 297.751705 437.060618 
L 300.129545 294.069353 
L 407.132386 294.069353 
L 409.510227 437.060618 
L 747.163636 437.060618 
L 747.163636 437.060618 
" clip-path="url(#p80990b2c5a)" style="fill: none; stroke-dasharray: 11.1,4.8; stroke-dashoffset: 0; stroke: #4e79a7; stroke-width: 3"/>
   </g>
   <g id="line2d_16">
    <path d="M 140.814205 429.230618 
L 143.192045 428.426695 
L 145.569886 427.81425 
L 147.947727 428.121867 
L 150.325568 427.903141 
L 152.703409 427.506604 
L 155.08125 427.620207 
L 157.459091 427.273956 
L 164.592614 427.360553 
L 166.970455 427.271133 
L 169.348295 428.045395 
L 171.726136 427.463439 
L 174.103977 427.171198 
L 176.481818 427.256944 
L 181.2375 429.204433 
L 183.615341 428.01602 
L 185.993182 429.138842 
L 188.371023 424.846624 
L 190.748864 427.244154 
L 193.126705 427.780606 
L 195.504545 427.122446 
L 200.260227 428.279631 
L 202.638068 427.628334 
L 205.015909 427.3911 
L 207.39375 427.774151 
L 212.149432 427.51287 
L 216.905114 427.56472 
L 219.282955 427.175224 
L 221.660795 427.812874 
L 224.038636 427.31761 
L 226.416477 427.43614 
L 228.794318 427.316663 
L 231.172159 427.509529 
L 233.55 426.869597 
L 235.927841 427.409039 
L 238.305682 427.45379 
L 240.683523 427.11113 
L 243.061364 427.087601 
L 247.817045 427.386698 
L 250.194886 427.770814 
L 252.572727 426.626369 
L 254.950568 425.231279 
L 257.328409 424.144901 
L 262.084091 426.072146 
L 264.461932 428.049412 
L 266.839773 428.837303 
L 269.217614 428.539967 
L 271.595455 427.737327 
L 278.728977 427.458944 
L 281.106818 427.66825 
L 283.484659 427.211506 
L 285.8625 427.253239 
L 288.240341 427.050523 
L 290.618182 427.785485 
L 292.996023 427.413249 
L 295.373864 426.159923 
L 297.751705 423.542911 
L 300.129545 339.487467 
L 302.507386 335.339357 
L 304.885227 334.432388 
L 307.263068 335.436846 
L 309.640909 335.55758 
L 312.01875 336.581775 
L 314.396591 337.131278 
L 316.774432 336.588089 
L 319.152273 335.106454 
L 321.530114 335.969878 
L 323.907955 336.096429 
L 326.285795 336.925783 
L 328.663636 336.969044 
L 331.041477 336.8812 
L 333.419318 337.59722 
L 335.797159 335.769638 
L 338.175 335.875372 
L 340.552841 334.547157 
L 342.930682 336.417673 
L 345.308523 337.605075 
L 347.686364 336.926024 
L 350.064205 335.340366 
L 352.442045 335.088229 
L 357.197727 337.787111 
L 359.575568 336.987496 
L 361.953409 335.036232 
L 364.33125 336.522171 
L 366.709091 335.659025 
L 369.086932 335.899748 
L 371.464773 336.993803 
L 373.842614 336.386088 
L 376.220455 336.38959 
L 378.598295 335.126994 
L 380.976136 336.001207 
L 383.353977 335.807587 
L 385.731818 336.319887 
L 388.109659 335.744907 
L 395.243182 335.552779 
L 397.621023 335.719992 
L 399.998864 335.455099 
L 402.376705 336.316399 
L 404.754545 339.750329 
L 407.132386 351.994354 
L 409.510227 408.729103 
L 411.888068 427.015748 
L 414.265909 427.641225 
L 416.64375 418.754306 
L 419.021591 414.500012 
L 421.399432 413.466942 
L 423.777273 412.133767 
L 426.155114 412.922871 
L 428.532955 410.150705 
L 430.910795 409.694039 
L 433.288636 411.095719 
L 435.666477 411.619905 
L 438.044318 411.545743 
L 440.422159 410.947874 
L 442.8 410.724097 
L 445.177841 410.023227 
L 449.933523 410.212333 
L 452.311364 410.860984 
L 454.689205 410.999459 
L 457.067045 411.583922 
L 459.444886 411.422694 
L 461.822727 411.571004 
L 466.578409 411.187262 
L 468.95625 411.748148 
L 471.334091 410.29456 
L 473.711932 411.616313 
L 476.089773 410.385184 
L 478.467614 411.76409 
L 483.223295 411.428602 
L 485.601136 410.666189 
L 487.978977 411.314364 
L 490.356818 410.267873 
L 495.1125 410.078951 
L 497.490341 409.272688 
L 504.623864 412.884132 
L 507.001705 412.985499 
L 509.379545 418.466334 
L 511.757386 428.046538 
L 514.135227 428.414819 
L 516.513068 427.843543 
L 518.890909 426.433886 
L 521.26875 424.747781 
L 523.646591 421.810762 
L 526.024432 410.809335 
L 528.402273 391.980433 
L 530.780114 387.206806 
L 533.157955 393.73558 
L 535.535795 406.359704 
L 537.913636 415.15338 
L 540.291477 418.678067 
L 542.669318 420.809763 
L 545.047159 421.290088 
L 549.802841 421.898729 
L 552.180682 422.127677 
L 554.558523 422.222032 
L 556.936364 422.952935 
L 559.314205 423.228623 
L 561.692045 422.698495 
L 564.069886 423.543569 
L 566.447727 423.302237 
L 568.825568 422.708843 
L 571.203409 421.220205 
L 575.959091 420.104309 
L 578.336932 418.544784 
L 580.714773 416.16925 
L 583.092614 411.126987 
L 585.470455 403.063065 
L 587.848295 400.29661 
L 590.226136 397.176083 
L 592.603977 395.864395 
L 594.981818 395.321565 
L 597.359659 400.017309 
L 599.7375 410.963574 
L 602.115341 416.546035 
L 604.493182 415.767503 
L 606.871023 418.101502 
L 609.248864 420.203549 
L 611.626705 421.373465 
L 614.004545 422.891886 
L 616.382386 422.149016 
L 618.760227 424.236228 
L 621.138068 424.845149 
L 623.515909 424.438229 
L 628.271591 426.499438 
L 630.649432 427.964604 
L 633.027273 428.225258 
L 635.405114 425.838 
L 637.782955 426.216502 
L 640.160795 426.785989 
L 642.538636 426.570431 
L 644.916477 425.667475 
L 647.294318 425.744504 
L 649.672159 425.277097 
L 652.05 425.175211 
L 656.805682 426.624412 
L 659.183523 425.516605 
L 661.561364 426.027285 
L 666.317045 426.613085 
L 668.694886 425.864613 
L 671.072727 427.130082 
L 673.450568 425.976341 
L 675.828409 426.621231 
L 678.20625 426.07185 
L 680.584091 427.131921 
L 682.961932 427.048157 
L 685.339773 428.545212 
L 687.717614 426.241965 
L 690.095455 427.793557 
L 692.473295 423.634098 
L 694.851136 430.469504 
L 697.228977 429.30405 
L 699.606818 429.309403 
L 701.984659 427.990615 
L 704.3625 427.996932 
L 706.740341 427.580347 
L 709.118182 427.330608 
L 711.496023 426.824642 
L 713.873864 426.917828 
L 716.251705 427.16939 
L 718.629545 427.274686 
L 723.385227 427.254599 
L 725.763068 427.299142 
L 728.140909 427.608003 
L 730.51875 427.545268 
L 732.896591 427.138906 
L 737.652273 427.460011 
L 740.030114 427.939967 
L 742.407955 427.829752 
L 744.785795 427.923765 
L 747.163636 428.643986 
L 747.163636 428.643986 
" clip-path="url(#p80990b2c5a)" style="fill: none; stroke: #4e79a7; stroke-width: 3; stroke-linecap: square"/>
   </g>
   <g id="line2d_17">
    <path d="M 140.814205 437.060618 
L 409.510227 437.060618 
L 411.888068 294.069353 
L 509.379545 294.069353 
L 511.757386 437.060618 
L 747.163636 437.060618 
L 747.163636 437.060618 
" clip-path="url(#p80990b2c5a)" style="fill: none; stroke-dasharray: 11.1,4.8; stroke-dashoffset: 0; stroke: #f28e2b; stroke-width: 3"/>
   </g>
   <g id="line2d_18">
    <path d="M 140.814205 431.628015 
L 143.192045 432.954865 
L 145.569886 433.041301 
L 147.947727 433.340849 
L 150.325568 433.318628 
L 152.703409 433.121772 
L 155.08125 433.151314 
L 159.836932 432.962653 
L 166.970455 432.858202 
L 169.348295 433.187971 
L 171.726136 432.978471 
L 174.103977 432.894165 
L 176.481818 433.008561 
L 181.2375 433.856644 
L 183.615341 433.403118 
L 185.993182 433.71497 
L 188.371023 432.112292 
L 190.748864 433.658398 
L 193.126705 433.761219 
L 195.504545 433.344849 
L 197.882386 433.128169 
L 200.260227 433.668051 
L 202.638068 433.632066 
L 205.015909 433.464949 
L 209.771591 433.495599 
L 216.905114 433.42572 
L 219.282955 433.115467 
L 221.660795 433.483646 
L 224.038636 433.213683 
L 226.416477 433.313237 
L 228.794318 433.052144 
L 231.172159 433.313803 
L 233.55 432.953689 
L 235.927841 433.369223 
L 238.305682 433.519137 
L 245.439205 433.371896 
L 250.194886 433.763822 
L 252.572727 433.144386 
L 257.328409 430.978263 
L 259.70625 431.233939 
L 262.084091 431.94688 
L 264.461932 432.805732 
L 266.839773 433.336635 
L 269.217614 433.384867 
L 271.595455 433.193027 
L 285.8625 433.000846 
L 288.240341 432.871761 
L 290.618182 433.041631 
L 292.996023 432.984831 
L 295.373864 433.813169 
L 297.751705 434.225918 
L 300.129545 427.672569 
L 302.507386 428.916024 
L 304.885227 426.597048 
L 307.263068 426.007218 
L 309.640909 427.145542 
L 312.01875 427.34378 
L 316.774432 425.813431 
L 319.152273 425.605084 
L 321.530114 426.152732 
L 323.907955 425.875525 
L 326.285795 426.755294 
L 328.663636 426.354361 
L 333.419318 426.560595 
L 335.797159 426.359451 
L 338.175 426.440971 
L 340.552841 426.671981 
L 342.930682 426.747258 
L 345.308523 427.094272 
L 347.686364 426.47681 
L 350.064205 426.108681 
L 352.442045 426.568952 
L 354.819886 426.189847 
L 357.197727 426.88392 
L 359.575568 426.792277 
L 361.953409 426.156101 
L 364.33125 427.097602 
L 369.086932 426.886888 
L 371.464773 426.895855 
L 373.842614 427.082882 
L 376.220455 426.553426 
L 378.598295 426.827797 
L 380.976136 426.624943 
L 383.353977 426.560702 
L 390.4875 427.183825 
L 392.865341 426.815904 
L 395.243182 427.240969 
L 397.621023 427.060998 
L 399.998864 426.224973 
L 402.376705 425.912974 
L 404.754545 426.728474 
L 407.132386 421.923428 
L 411.888068 407.51438 
L 414.265909 388.740943 
L 416.64375 352.701637 
L 419.021591 342.620778 
L 421.399432 340.902247 
L 423.777273 339.352641 
L 426.155114 340.668477 
L 428.532955 340.596245 
L 430.910795 341.390946 
L 433.288636 341.661485 
L 435.666477 341.640725 
L 438.044318 342.479823 
L 440.422159 342.955623 
L 442.8 342.103989 
L 447.555682 342.321793 
L 452.311364 341.329239 
L 454.689205 341.117636 
L 457.067045 341.749271 
L 459.444886 341.363523 
L 461.822727 340.86236 
L 464.200568 341.521261 
L 466.578409 340.70291 
L 471.334091 341.556987 
L 473.711932 340.968293 
L 476.089773 341.798435 
L 478.467614 341.837463 
L 480.845455 340.938548 
L 483.223295 341.298827 
L 485.601136 341.363282 
L 487.978977 340.755567 
L 490.356818 341.206495 
L 492.734659 341.164257 
L 495.1125 341.820822 
L 497.490341 341.258542 
L 499.868182 339.158318 
L 502.246023 338.198308 
L 504.623864 342.172968 
L 507.001705 351.327419 
L 509.379545 386.396889 
L 511.757386 423.176901 
L 514.135227 431.804522 
L 516.513068 433.375448 
L 521.26875 432.675082 
L 523.646591 433.216429 
L 526.024432 432.638962 
L 528.402273 430.152335 
L 530.780114 429.893637 
L 533.157955 430.784985 
L 535.535795 432.072801 
L 542.669318 434.1434 
L 547.425 434.262222 
L 549.802841 434.349337 
L 552.180682 434.321316 
L 554.558523 434.635773 
L 556.936364 435.110846 
L 559.314205 435.184613 
L 561.692045 435.0446 
L 568.825568 434.906392 
L 573.58125 434.129679 
L 575.959091 433.853746 
L 578.336932 433.16152 
L 580.714773 433.042427 
L 583.092614 432.47156 
L 585.470455 432.138493 
L 587.848295 431.580611 
L 590.226136 431.379215 
L 592.603977 429.859685 
L 594.981818 430.766102 
L 597.359659 429.883989 
L 599.7375 429.82587 
L 602.115341 431.850219 
L 604.493182 431.482297 
L 611.626705 431.151087 
L 614.004545 431.891106 
L 616.382386 431.432499 
L 621.138068 432.5018 
L 623.515909 432.475596 
L 628.271591 432.774677 
L 630.649432 432.693011 
L 633.027273 431.79576 
L 635.405114 430.312882 
L 637.782955 431.175012 
L 640.160795 431.606866 
L 642.538636 431.389573 
L 644.916477 430.948974 
L 647.294318 431.130901 
L 649.672159 430.769001 
L 652.05 430.763555 
L 656.805682 431.453752 
L 659.183523 431.105247 
L 661.561364 431.258895 
L 663.939205 431.29831 
L 666.317045 431.523391 
L 668.694886 431.189662 
L 671.072727 431.89925 
L 673.450568 431.331993 
L 675.828409 431.732758 
L 678.20625 431.557431 
L 680.584091 432.187941 
L 682.961932 432.232188 
L 685.339773 432.952817 
L 687.717614 431.514311 
L 690.095455 432.367742 
L 692.473295 430.171592 
L 694.851136 431.117931 
L 697.228977 431.920677 
L 699.606818 433.590984 
L 701.984659 433.150537 
L 704.3625 433.32236 
L 713.873864 432.871077 
L 718.629545 432.988564 
L 723.385227 432.898921 
L 730.51875 433.059966 
L 732.896591 432.915528 
L 737.652273 433.018234 
L 740.030114 433.158413 
L 744.785795 433.032158 
L 747.163636 432.689212 
L 747.163636 432.689212 
" clip-path="url(#p80990b2c5a)" style="fill: none; stroke: #f28e2b; stroke-width: 3; stroke-linecap: square"/>
   </g>
   <g id="line2d_19">
    <path d="M 140.814205 437.060618 
L 633.027273 437.060618 
L 635.405114 294.069353 
L 692.473295 294.069353 
L 694.851136 437.060618 
L 747.163636 437.060618 
L 747.163636 437.060618 
" clip-path="url(#p80990b2c5a)" style="fill: none; stroke-dasharray: 11.1,4.8; stroke-dashoffset: 0; stroke: #e15759; stroke-width: 3"/>
   </g>
   <g id="line2d_20">
    <path d="M 140.814205 431.6232 
L 143.192045 430.178502 
L 145.569886 430.829814 
L 147.947727 430.69583 
L 152.703409 430.755357 
L 155.08125 430.679203 
L 157.459091 430.753244 
L 162.214773 430.615096 
L 164.592614 430.409128 
L 166.970455 430.385726 
L 171.726136 430.54344 
L 174.103977 430.469833 
L 176.481818 430.586804 
L 178.859659 430.921213 
L 181.2375 430.601755 
L 183.615341 431.039118 
L 185.993182 429.702106 
L 188.371023 422.999406 
L 190.748864 423.075986 
L 193.126705 424.247429 
L 195.504545 422.689288 
L 200.260227 423.557015 
L 202.638068 423.324232 
L 205.015909 423.416023 
L 207.39375 423.631887 
L 209.771591 423.357136 
L 212.149432 423.403014 
L 214.527273 423.610465 
L 216.905114 423.282377 
L 219.282955 422.473308 
L 221.660795 423.462389 
L 224.038636 423.843035 
L 226.416477 423.166272 
L 228.794318 421.840976 
L 238.305682 423.841222 
L 240.683523 423.778203 
L 243.061364 423.455805 
L 247.817045 423.188699 
L 250.194886 423.705596 
L 252.572727 422.874271 
L 254.950568 423.592242 
L 257.328409 428.639053 
L 259.70625 430.722503 
L 262.084091 431.455137 
L 264.461932 430.620015 
L 266.839773 430.096715 
L 269.217614 430.096605 
L 271.595455 430.564321 
L 273.973295 430.80407 
L 276.351136 430.919441 
L 278.728977 430.83075 
L 281.106818 430.627898 
L 283.484659 430.693815 
L 288.240341 430.563619 
L 290.618182 430.008222 
L 292.996023 429.629668 
L 295.373864 429.38753 
L 297.751705 432.32004 
L 300.129545 429.68697 
L 302.507386 430.90513 
L 304.885227 429.384042 
L 307.263068 429.269447 
L 309.640909 430.015195 
L 312.01875 430.059676 
L 316.774432 429.022804 
L 319.152273 428.998693 
L 321.530114 429.422256 
L 323.907955 429.217412 
L 326.285795 429.694478 
L 328.663636 429.349847 
L 333.419318 429.409064 
L 335.797159 429.274793 
L 342.930682 429.752041 
L 345.308523 429.772083 
L 347.686364 429.319211 
L 350.064205 429.166679 
L 352.442045 429.576239 
L 354.819886 429.311615 
L 357.197727 429.649328 
L 359.575568 429.563272 
L 361.953409 429.149911 
L 364.33125 429.917665 
L 369.086932 429.709023 
L 371.464773 429.662368 
L 373.842614 429.727712 
L 376.220455 429.421195 
L 378.598295 429.617392 
L 380.976136 429.611976 
L 383.353977 429.490107 
L 390.4875 429.887765 
L 392.865341 429.634352 
L 395.243182 429.853581 
L 397.621023 429.69172 
L 402.376705 428.812639 
L 404.754545 428.939242 
L 407.132386 429.709438 
L 409.510227 433.21861 
L 411.888068 434.975612 
L 414.265909 434.863333 
L 416.64375 431.56194 
L 419.021591 429.05335 
L 421.399432 428.565975 
L 423.777273 428.47342 
L 426.155114 427.800554 
L 428.532955 426.940017 
L 430.910795 426.43289 
L 433.288636 426.807754 
L 435.666477 427.331157 
L 440.422159 426.946938 
L 442.8 426.927405 
L 445.177841 426.424433 
L 447.555682 426.452114 
L 454.689205 427.06664 
L 457.067045 427.099696 
L 461.822727 427.535281 
L 464.200568 427.229082 
L 466.578409 427.584701 
L 468.95625 427.657563 
L 471.334091 427.163661 
L 473.711932 427.644725 
L 476.089773 427.158573 
L 480.845455 427.806525 
L 485.601136 427.388156 
L 487.978977 427.68056 
L 490.356818 427.208211 
L 492.734659 427.059362 
L 497.490341 426.321086 
L 499.868182 427.54914 
L 502.246023 428.308222 
L 504.623864 428.569478 
L 507.001705 427.886445 
L 509.379545 428.087207 
L 514.135227 429.122909 
L 516.513068 430.826965 
L 518.890909 430.603873 
L 521.26875 430.207718 
L 523.646591 431.630769 
L 526.024432 432.502968 
L 528.402273 430.978363 
L 530.780114 428.874671 
L 533.157955 428.439845 
L 535.535795 429.291108 
L 537.913636 429.734942 
L 540.291477 429.825056 
L 542.669318 430.14061 
L 545.047159 429.763527 
L 547.425 429.858076 
L 549.802841 430.11438 
L 552.180682 430.239942 
L 554.558523 430.684511 
L 556.936364 431.409306 
L 559.314205 431.843878 
L 561.692045 431.498214 
L 566.447727 431.52853 
L 568.825568 431.165847 
L 571.203409 430.144926 
L 573.58125 429.25062 
L 575.959091 428.601309 
L 578.336932 428.54182 
L 583.092614 428.842702 
L 585.470455 428.571557 
L 587.848295 428.784262 
L 590.226136 428.194683 
L 592.603977 426.909045 
L 594.981818 425.23647 
L 597.359659 423.843299 
L 599.7375 423.990941 
L 602.115341 423.953899 
L 604.493182 423.09697 
L 606.871023 423.496626 
L 609.248864 426.072716 
L 611.626705 429.052911 
L 614.004545 429.615503 
L 616.382386 430.420854 
L 618.760227 430.220763 
L 621.138068 430.464442 
L 623.515909 430.8665 
L 625.89375 430.662321 
L 628.271591 428.765016 
L 630.649432 420.398142 
L 633.027273 385.358247 
L 635.405114 342.979644 
L 637.782955 337.954821 
L 640.160795 337.266956 
L 642.538636 337.654558 
L 644.916477 338.634484 
L 647.294318 338.649321 
L 649.672159 339.380397 
L 652.05 339.244918 
L 656.805682 338.027813 
L 659.183523 338.477995 
L 661.561364 338.675777 
L 663.939205 338.145039 
L 666.317045 337.805642 
L 668.694886 338.244388 
L 671.072727 337.431257 
L 673.450568 337.854904 
L 675.828409 337.522154 
L 678.20625 337.339536 
L 680.584091 336.418106 
L 682.961932 336.472149 
L 685.339773 335.606601 
L 687.717614 337.853505 
L 690.095455 337.171101 
L 692.473295 342.311537 
L 694.851136 415.752605 
L 697.228977 431.564984 
L 701.984659 430.573573 
L 704.3625 430.81473 
L 706.740341 430.915379 
L 709.118182 430.862424 
L 716.251705 430.241654 
L 721.007386 430.47343 
L 730.51875 430.117396 
L 732.896591 430.235616 
L 735.274432 430.00407 
L 742.407955 429.788097 
L 744.785795 429.270434 
L 747.163636 429.357309 
L 747.163636 429.357309 
" clip-path="url(#p80990b2c5a)" style="fill: none; stroke: #e15759; stroke-width: 3; stroke-linecap: square"/>
   </g>
   <g id="line2d_21">
    <path d="M 140.814205 437.060618 
L 185.993182 437.060618 
L 188.371023 294.069353 
L 257.328409 294.069353 
L 259.70625 437.060618 
L 747.163636 437.060618 
L 747.163636 437.060618 
" clip-path="url(#p80990b2c5a)" style="fill: none; stroke-dasharray: 11.1,4.8; stroke-dashoffset: 0; stroke: #76b7b2; stroke-width: 3"/>
   </g>
   <g id="line2d_22">
    <path d="M 140.814205 426.220407 
L 143.192045 424.827107 
L 145.569886 424.507077 
L 147.947727 425.158751 
L 150.325568 425.088544 
L 152.703409 424.668835 
L 155.08125 424.73523 
L 157.459091 424.411927 
L 166.970455 424.247546 
L 169.348295 424.81997 
L 171.726136 424.319413 
L 174.103977 424.113562 
L 176.481818 424.278101 
L 181.2375 426.378987 
L 183.615341 424.321482 
L 185.993182 414.954391 
L 188.371023 341.45354 
L 190.748864 333.834156 
L 193.126705 334.052748 
L 195.504545 335.400588 
L 197.882386 335.740206 
L 200.260227 334.362195 
L 202.638068 333.918363 
L 205.015909 335.180092 
L 207.39375 335.346737 
L 209.771591 334.92407 
L 212.149432 335.057312 
L 214.527273 335.54726 
L 216.905114 335.050969 
L 221.660795 335.510434 
L 224.038636 336.414562 
L 226.416477 335.373428 
L 228.794318 334.706302 
L 231.172159 335.009335 
L 233.55 336.64243 
L 238.305682 336.385563 
L 240.683523 336.553174 
L 243.061364 336.259622 
L 245.439205 335.809028 
L 247.817045 335.112739 
L 250.194886 334.630554 
L 252.572727 336.157127 
L 254.950568 342.292815 
L 257.328409 364.181673 
L 259.70625 396.970634 
L 262.084091 418.888257 
L 264.461932 424.242172 
L 266.839773 425.436951 
L 269.217614 425.414734 
L 271.595455 424.829713 
L 276.351136 424.530866 
L 278.728977 424.503687 
L 281.106818 424.730552 
L 283.484659 424.33955 
L 285.8625 424.354884 
L 288.240341 424.198043 
L 290.618182 424.707177 
L 292.996023 424.518599 
L 295.373864 425.747919 
L 297.751705 428.315829 
L 300.129545 423.308812 
L 302.507386 424.71032 
L 304.885227 424.426315 
L 307.263068 423.567037 
L 309.640909 424.147253 
L 312.01875 423.571454 
L 314.396591 422.851168 
L 316.774432 422.755602 
L 319.152273 423.153066 
L 321.530114 423.361573 
L 323.907955 423.079707 
L 326.285795 423.22412 
L 328.663636 422.784705 
L 333.419318 422.843235 
L 340.552841 423.941284 
L 342.930682 423.426619 
L 347.686364 422.869879 
L 352.442045 423.824089 
L 354.819886 423.138313 
L 357.197727 423.10433 
L 361.953409 423.368438 
L 364.33125 423.695366 
L 366.709091 423.670711 
L 371.464773 423.256197 
L 373.842614 423.426677 
L 376.220455 423.354856 
L 378.598295 423.93127 
L 383.353977 423.676316 
L 385.731818 423.704553 
L 390.4875 424.056784 
L 392.865341 423.779033 
L 395.243182 424.007523 
L 397.621023 423.777806 
L 399.998864 423.40085 
L 402.376705 423.283854 
L 404.754545 422.591918 
L 407.132386 422.304719 
L 409.510227 428.294785 
L 411.888068 428.783214 
L 414.265909 427.194171 
L 416.64375 425.230295 
L 419.021591 423.42649 
L 421.399432 422.854053 
L 423.777273 422.829121 
L 426.155114 421.333354 
L 430.910795 420.176033 
L 433.288636 420.364335 
L 435.666477 421.230745 
L 438.044318 421.081583 
L 440.422159 421.113961 
L 442.8 420.936155 
L 445.177841 420.256543 
L 447.555682 420.31841 
L 449.933523 420.589454 
L 452.311364 420.580938 
L 454.689205 420.806232 
L 457.067045 420.778395 
L 461.822727 421.469491 
L 464.200568 421.069209 
L 466.578409 421.712446 
L 468.95625 421.736207 
L 471.334091 421.4801 
L 473.711932 421.717178 
L 476.089773 421.496714 
L 478.467614 421.648659 
L 480.845455 422.08783 
L 483.223295 421.801436 
L 485.601136 421.726225 
L 487.978977 421.875508 
L 490.356818 421.48464 
L 492.734659 421.223124 
L 495.1125 420.561158 
L 497.490341 420.104863 
L 499.868182 421.487421 
L 502.246023 422.315079 
L 504.623864 422.25297 
L 507.001705 422.304569 
L 509.379545 423.398648 
L 511.757386 425.427574 
L 514.135227 425.174314 
L 516.513068 425.220632 
L 518.890909 424.178567 
L 521.26875 423.490892 
L 523.646591 423.762312 
L 526.024432 423.325525 
L 528.402273 420.047436 
L 530.780114 419.345337 
L 537.913636 420.421449 
L 540.291477 421.194761 
L 542.669318 423.019512 
L 545.047159 422.977372 
L 549.802841 423.362417 
L 552.180682 423.24858 
L 554.558523 423.787747 
L 556.936364 425.122818 
L 559.314205 425.137428 
L 561.692045 424.686105 
L 566.447727 424.745246 
L 568.825568 424.321909 
L 571.203409 423.228646 
L 575.959091 420.114293 
L 578.336932 420.611422 
L 580.714773 420.987593 
L 583.092614 420.823327 
L 587.848295 419.335882 
L 590.226136 419.129479 
L 592.603977 417.172247 
L 594.981818 413.055983 
L 597.359659 408.640159 
L 599.7375 406.989141 
L 602.115341 403.030457 
L 604.493182 400.06681 
L 606.871023 393.846066 
L 609.248864 388.016774 
L 611.626705 387.295335 
L 614.004545 388.115342 
L 616.382386 388.64522 
L 618.760227 387.680948 
L 621.138068 397.372583 
L 623.515909 407.899851 
L 625.89375 411.939039 
L 628.271591 417.871615 
L 630.649432 421.398621 
L 633.027273 419.775609 
L 635.405114 419.60301 
L 637.782955 422.996546 
L 640.160795 424.132464 
L 642.538636 424.464093 
L 644.916477 423.633256 
L 649.672159 422.465235 
L 654.427841 423.378161 
L 656.805682 423.212386 
L 659.183523 422.442627 
L 661.561364 422.535785 
L 663.939205 423.798332 
L 666.317045 423.593796 
L 668.694886 422.323202 
L 671.072727 422.869256 
L 673.450568 424.178057 
L 675.828409 423.8216 
L 678.20625 424.019897 
L 680.584091 424.647578 
L 685.339773 423.92814 
L 687.717614 423.082413 
L 690.095455 423.703693 
L 692.473295 420.422493 
L 694.851136 427.898101 
L 697.228977 424.249282 
L 699.606818 425.626564 
L 701.984659 424.704133 
L 704.3625 424.980611 
L 711.496023 424.147992 
L 713.873864 424.196041 
L 716.251705 424.414658 
L 718.629545 424.47314 
L 721.007386 424.22204 
L 725.763068 424.403758 
L 728.140909 424.590322 
L 730.51875 424.658094 
L 732.896591 424.34469 
L 737.652273 424.729009 
L 740.030114 425.063898 
L 744.785795 424.81768 
L 747.163636 425.360738 
L 747.163636 425.360738 
" clip-path="url(#p80990b2c5a)" style="fill: none; stroke: #76b7b2; stroke-width: 3; stroke-linecap: square"/>
   </g>
   <g id="line2d_23">
    <path d="M 140.814205 437.060618 
L 747.163636 437.060618 
L 747.163636 437.060618 
" clip-path="url(#p80990b2c5a)" style="fill: none; stroke-dasharray: 11.1,4.8; stroke-dashoffset: 0; stroke: #59a14f; stroke-width: 3"/>
   </g>
   <g id="line2d_24">
    <path d="M 140.814205 427.870527 
L 143.192045 426.599918 
L 145.569886 426.352467 
L 147.947727 427.297347 
L 150.325568 427.385663 
L 152.703409 426.997101 
L 155.08125 427.003425 
L 159.836932 426.590629 
L 162.214773 426.500807 
L 166.970455 426.459821 
L 169.348295 426.992235 
L 171.726136 426.803238 
L 174.103977 426.769943 
L 176.481818 427.155494 
L 178.859659 427.881526 
L 181.2375 428.456924 
L 183.615341 428.008006 
L 185.993182 428.514228 
L 188.371023 425.961088 
L 190.748864 428.290542 
L 193.126705 428.659324 
L 195.504545 427.586146 
L 197.882386 426.863978 
L 200.260227 427.801442 
L 202.638068 428.286421 
L 207.39375 427.631313 
L 212.149432 427.804817 
L 214.527273 427.634849 
L 216.905114 427.624984 
L 219.282955 427.272091 
L 221.660795 427.532769 
L 226.416477 427.382182 
L 228.794318 426.93945 
L 231.172159 427.162869 
L 233.55 426.934105 
L 238.305682 427.590547 
L 240.683523 427.65455 
L 243.061364 427.448312 
L 245.439205 427.411957 
L 247.817045 427.654604 
L 250.194886 428.099261 
L 252.572727 427.466763 
L 254.950568 425.974765 
L 257.328409 423.82447 
L 259.70625 422.938276 
L 262.084091 423.511868 
L 264.461932 425.431097 
L 266.839773 426.926154 
L 269.217614 427.470345 
L 278.728977 426.746371 
L 281.106818 427.03988 
L 283.484659 426.858756 
L 285.8625 426.871966 
L 288.240341 426.650605 
L 290.618182 426.842535 
L 292.996023 427.173248 
L 295.373864 425.811725 
L 297.751705 428.973927 
L 300.129545 426.241364 
L 302.507386 429.734015 
L 304.885227 429.01496 
L 307.263068 429.60403 
L 309.640909 429.647231 
L 312.01875 429.205797 
L 314.396591 429.092034 
L 316.774432 429.407925 
L 319.152273 430.195475 
L 321.530114 429.815952 
L 323.907955 429.646278 
L 326.285795 429.115698 
L 331.041477 428.971654 
L 333.419318 428.237648 
L 335.797159 429.109382 
L 338.175 429.341835 
L 340.552841 430.048589 
L 342.930682 429.322192 
L 345.308523 428.151156 
L 347.686364 428.473666 
L 350.064205 429.456507 
L 352.442045 429.75891 
L 354.819886 429.086787 
L 357.197727 428.063595 
L 359.575568 428.672388 
L 361.953409 429.489105 
L 364.33125 428.950372 
L 366.709091 429.326115 
L 369.086932 429.390488 
L 371.464773 428.547795 
L 376.220455 428.757671 
L 378.598295 429.374437 
L 383.353977 429.044626 
L 385.731818 428.7123 
L 388.109659 428.978593 
L 390.4875 429.088504 
L 392.865341 429.068166 
L 397.621023 428.601624 
L 399.998864 429.260565 
L 402.376705 427.894005 
L 404.754545 424.935531 
L 407.132386 426.788621 
L 409.510227 428.406693 
L 411.888068 429.082512 
L 414.265909 426.843508 
L 416.64375 426.589108 
L 419.021591 425.806903 
L 421.399432 425.775337 
L 423.777273 426.458967 
L 426.155114 424.494258 
L 428.532955 424.838355 
L 430.910795 424.21382 
L 433.288636 423.895511 
L 435.666477 424.585389 
L 438.044318 424.273534 
L 442.8 424.47031 
L 445.177841 423.994525 
L 447.555682 424.022771 
L 449.933523 424.356619 
L 452.311364 424.258923 
L 454.689205 424.482964 
L 457.067045 424.126551 
L 461.822727 425.006676 
L 464.200568 424.514315 
L 466.578409 425.387687 
L 468.95625 425.146517 
L 471.334091 425.239624 
L 476.089773 425.177704 
L 478.467614 424.907309 
L 480.845455 425.587655 
L 483.223295 425.273047 
L 487.978977 425.494386 
L 492.734659 425.12971 
L 495.1125 424.367455 
L 497.490341 424.303621 
L 499.868182 425.713478 
L 502.246023 426.354241 
L 504.623864 425.405912 
L 507.001705 424.808971 
L 509.379545 423.920768 
L 511.757386 424.77061 
L 514.135227 426.119855 
L 516.513068 427.616539 
L 521.26875 426.638418 
L 523.646591 421.869506 
L 526.024432 411.785413 
L 528.402273 394.944826 
L 530.780114 375.362767 
L 533.157955 358.797865 
L 535.535795 347.042183 
L 537.913636 340.372546 
L 540.291477 338.848246 
L 542.669318 337.57533 
L 545.047159 338.184067 
L 547.425 337.882376 
L 549.802841 337.732053 
L 552.180682 338.041613 
L 556.936364 333.764197 
L 559.314205 333.119237 
L 561.692045 333.430779 
L 564.069886 334.653211 
L 566.447727 334.023834 
L 568.825568 334.627507 
L 571.203409 335.678869 
L 573.58125 338.507684 
L 575.959091 340.749807 
L 578.336932 341.429988 
L 580.714773 344.289038 
L 583.092614 347.581231 
L 585.470455 353.16091 
L 587.848295 355.543151 
L 590.226136 356.15767 
L 592.603977 361.173209 
L 594.981818 367.537916 
L 597.359659 370.079586 
L 599.7375 367.344197 
L 604.493182 376.126188 
L 606.871023 386.408068 
L 609.248864 399.43798 
L 611.626705 408.155951 
L 614.004545 413.113179 
L 616.382386 418.620299 
L 618.760227 425.034932 
L 621.138068 426.330838 
L 625.89375 426.33663 
L 628.271591 426.552818 
L 630.649432 427.088308 
L 633.027273 427.117844 
L 637.782955 429.962081 
L 640.160795 430.195661 
L 644.916477 429.591515 
L 647.294318 429.614274 
L 649.672159 429.205267 
L 654.427841 429.538905 
L 656.805682 429.671044 
L 659.183523 430.026463 
L 661.561364 429.517957 
L 666.317045 429.916247 
L 671.072727 429.958511 
L 673.450568 430.203462 
L 675.828409 430.201591 
L 678.20625 430.643595 
L 682.961932 431.013354 
L 685.339773 430.879799 
L 687.717614 430.136815 
L 690.095455 430.60739 
L 692.473295 430.656645 
L 694.851136 427.037706 
L 697.228977 424.071604 
L 699.606818 427.404858 
L 701.984659 426.863304 
L 704.3625 427.385436 
L 713.873864 426.724196 
L 716.251705 426.969714 
L 718.629545 426.932271 
L 721.007386 426.608115 
L 728.140909 426.856263 
L 730.51875 427.099481 
L 732.896591 426.930721 
L 735.274432 426.901582 
L 740.030114 427.212789 
L 742.407955 427.091429 
L 744.785795 427.097245 
L 747.163636 428.7184 
L 747.163636 428.7184 
" clip-path="url(#p80990b2c5a)" style="fill: none; stroke: #59a14f; stroke-width: 3; stroke-linecap: square"/>
   </g>
   <g id="line2d_25">
    <path d="M 140.814205 437.060618 
L 521.26875 437.060618 
L 523.646591 294.069353 
L 611.626705 294.069353 
L 614.004545 437.060618 
L 747.163636 437.060618 
L 747.163636 437.060618 
" clip-path="url(#p80990b2c5a)" style="fill: none; stroke-dasharray: 11.1,4.8; stroke-dashoffset: 0; stroke: #edc948; stroke-width: 3"/>
   </g>
   <g id="line2d_26">
    <path d="M 140.814205 427.94897 
L 143.192045 427.907127 
L 145.569886 427.588791 
L 147.947727 428.105692 
L 150.325568 428.271745 
L 152.703409 428.013982 
L 155.08125 428.044944 
L 162.214773 427.776873 
L 164.592614 427.818307 
L 166.970455 427.577518 
L 169.348295 427.822771 
L 174.103977 427.26596 
L 176.481818 427.241112 
L 178.859659 428.065745 
L 181.2375 428.545287 
L 183.615341 427.860863 
L 185.993182 431.498875 
L 188.371023 431.989075 
L 190.748864 433.56614 
L 193.126705 434.181411 
L 195.504545 433.638566 
L 197.882386 433.250327 
L 202.638068 434.026339 
L 207.39375 433.555036 
L 212.149432 433.711886 
L 221.660795 433.496554 
L 228.794318 433.433618 
L 233.55 433.167963 
L 243.061364 433.362976 
L 247.817045 433.415086 
L 250.194886 433.649757 
L 252.572727 433.444124 
L 254.950568 432.585891 
L 257.328409 430.82012 
L 259.70625 429.948311 
L 262.084091 427.837222 
L 264.461932 427.748596 
L 266.839773 427.95406 
L 271.595455 428.068121 
L 273.973295 427.914086 
L 276.351136 428.044082 
L 278.728977 427.81015 
L 281.106818 427.934329 
L 283.484659 427.74221 
L 288.240341 427.735315 
L 290.618182 427.583553 
L 292.996023 427.132977 
L 295.373864 428.064684 
L 297.751705 430.263373 
L 300.129545 428.723459 
L 302.507386 430.062578 
L 307.263068 428.001367 
L 309.640909 428.532877 
L 314.396591 427.668456 
L 316.774432 427.581659 
L 319.152273 427.915356 
L 321.530114 427.831959 
L 323.907955 427.569866 
L 326.285795 427.764521 
L 328.663636 427.55271 
L 331.041477 427.614451 
L 333.419318 427.494153 
L 335.797159 427.989345 
L 338.175 428.105033 
L 340.552841 428.5538 
L 342.930682 427.834283 
L 347.686364 427.638093 
L 350.064205 428.143639 
L 352.442045 428.404729 
L 354.819886 427.652924 
L 357.197727 427.612579 
L 361.953409 428.233057 
L 364.33125 428.078821 
L 366.709091 428.257363 
L 369.086932 428.150039 
L 371.464773 427.863885 
L 373.842614 428.141843 
L 376.220455 428.014977 
L 378.598295 428.629518 
L 380.976136 428.175836 
L 385.731818 428.198437 
L 388.109659 428.457258 
L 390.4875 428.587223 
L 392.865341 428.354607 
L 395.243182 428.625267 
L 397.621023 428.42234 
L 399.998864 428.070397 
L 402.376705 428.002469 
L 404.754545 427.682119 
L 407.132386 426.091584 
L 409.510227 423.529866 
L 411.888068 423.615815 
L 414.265909 419.887066 
L 416.64375 414.94637 
L 419.021591 411.738281 
L 421.399432 411.804512 
L 423.777273 413.580054 
L 426.155114 411.791564 
L 428.532955 412.645813 
L 433.288636 411.331987 
L 435.666477 411.389451 
L 438.044318 410.669389 
L 440.422159 410.488111 
L 442.8 411.229169 
L 447.555682 411.111882 
L 449.933523 411.558094 
L 454.689205 411.934115 
L 457.067045 411.194219 
L 461.822727 412.126656 
L 464.200568 411.515195 
L 466.578409 412.451742 
L 468.95625 411.888287 
L 473.711932 412.085554 
L 476.089773 411.741433 
L 478.467614 411.283053 
L 480.845455 412.228114 
L 483.223295 411.891771 
L 485.601136 412.071749 
L 487.978977 412.407441 
L 490.356818 412.270244 
L 492.734659 412.284518 
L 495.1125 411.586014 
L 497.490341 412.204293 
L 499.868182 413.923683 
L 502.246023 414.580067 
L 504.623864 414.496389 
L 507.001705 416.578651 
L 509.379545 420.395388 
L 511.757386 425.388001 
L 514.135227 427.921273 
L 516.513068 428.582919 
L 521.26875 426.626238 
L 523.646591 427.399977 
L 526.024432 428.414303 
L 528.402273 425.993481 
L 530.780114 425.827484 
L 533.157955 426.240224 
L 535.535795 426.458903 
L 537.913636 426.863053 
L 540.291477 427.46375 
L 542.669318 428.49281 
L 545.047159 428.365502 
L 547.425 428.622509 
L 552.180682 428.716359 
L 554.558523 429.447743 
L 556.936364 430.316121 
L 559.314205 430.64106 
L 561.692045 430.394532 
L 564.069886 430.279539 
L 566.447727 430.340575 
L 568.825568 429.932146 
L 573.58125 428.326763 
L 575.959091 428.26731 
L 578.336932 426.726184 
L 580.714773 426.925807 
L 583.092614 426.532681 
L 585.470455 427.509655 
L 587.848295 426.910551 
L 590.226136 426.893434 
L 592.603977 425.745327 
L 594.981818 428.194907 
L 597.359659 426.792899 
L 599.7375 425.058807 
L 602.115341 426.358548 
L 604.493182 427.033669 
L 606.871023 428.451104 
L 609.248864 429.704904 
L 611.626705 429.855346 
L 614.004545 430.315839 
L 616.382386 429.929314 
L 621.138068 431.516379 
L 623.515909 430.717925 
L 625.89375 430.270756 
L 628.271591 428.938716 
L 630.649432 427.445368 
L 633.027273 424.490744 
L 635.405114 419.771671 
L 637.782955 421.667962 
L 640.160795 422.174223 
L 644.916477 421.78621 
L 647.294318 422.280897 
L 649.672159 421.898729 
L 652.05 422.17478 
L 659.183523 422.59168 
L 661.561364 422.759095 
L 663.939205 422.454139 
L 666.317045 422.788872 
L 668.694886 421.99256 
L 671.072727 422.881646 
L 673.450568 422.677617 
L 675.828409 423.300637 
L 678.20625 422.918734 
L 682.961932 424.563575 
L 685.339773 425.039661 
L 687.717614 422.875729 
L 690.095455 424.721497 
L 692.473295 424.756524 
L 694.851136 423.069879 
L 697.228977 428.511794 
L 699.606818 428.664845 
L 701.984659 427.600977 
L 704.3625 428.047948 
L 711.496023 427.774359 
L 713.873864 427.621897 
L 718.629545 427.964233 
L 721.007386 427.609702 
L 725.763068 427.783308 
L 728.140909 427.693557 
L 732.896591 427.757757 
L 735.274432 427.742833 
L 740.030114 428.090778 
L 742.407955 427.882943 
L 744.785795 427.985856 
L 747.163636 428.780468 
L 747.163636 428.780468 
" clip-path="url(#p80990b2c5a)" style="fill: none; stroke: #edc948; stroke-width: 3; stroke-linecap: square"/>
   </g>
   <g id="line2d_27">
    <path d="M 138.436364 490.375964 
L 140.814205 459.976056 
L 143.192045 437.395252 
L 145.569886 438.947894 
L 147.947727 436.892567 
L 150.325568 414.583896 
L 152.703409 429.779182 
L 155.08125 423.373083 
L 157.459091 439.106211 
L 159.836932 422.394242 
L 162.214773 435.82425 
L 164.592614 417.664265 
L 166.970455 402.858424 
L 169.348295 458.77837 
L 171.726136 436.751737 
L 174.103977 371.957985 
L 176.481818 476.648047 
L 178.859659 420.709129 
L 181.2375 439.50185 
L 183.615341 434.603982 
L 185.993182 186.917923 
L 188.371023 129.112516 
L 190.748864 188.713643 
L 193.126705 190.891883 
L 195.504545 228.174583 
L 197.882386 159.679324 
L 200.260227 206.114814 
L 202.638068 247.908621 
L 205.015909 248.094989 
L 207.39375 247.35603 
L 209.771591 268.074275 
L 212.149432 270.564928 
L 214.527273 277.312598 
L 216.905114 290.263031 
L 219.282955 281.337834 
L 221.660795 328.4943 
L 224.038636 330.87835 
L 226.416477 310.42624 
L 228.794318 282.802873 
L 231.172159 324.820207 
L 233.55 350.014683 
L 235.927841 370.168674 
L 238.305682 381.671783 
L 240.683523 378.827404 
L 243.061364 380.862959 
L 245.439205 384.162056 
L 247.817045 377.832397 
L 250.194886 414.227531 
L 252.572727 408.272317 
L 254.950568 435.556321 
L 257.328409 450.353808 
L 259.70625 478.309633 
L 262.084091 421.916428 
L 264.461932 419.903415 
L 266.839773 411.365163 
L 269.217614 433.81672 
L 271.595455 472.463092 
L 273.973295 452.929959 
L 276.351136 410.325776 
L 278.728977 444.443014 
L 281.106818 448.431247 
L 283.484659 490.884358 
L 285.8625 463.388055 
L 288.240341 430.016848 
L 290.618182 427.194307 
L 292.996023 442.074449 
L 295.373864 477.53999 
L 297.751705 181.345057 
L 300.129545 194.902981 
L 302.507386 195.416603 
L 304.885227 135.087647 
L 307.263068 163.607786 
L 309.640909 175.008678 
L 312.01875 173.682413 
L 314.396591 205.147967 
L 316.774432 146.019682 
L 319.152273 141.383549 
L 321.530114 145.613519 
L 323.907955 179.591949 
L 326.285795 181.585842 
L 328.663636 134.0704 
L 331.041477 219.088962 
L 333.419318 156.019335 
L 335.797159 182.181838 
L 338.175 127.43141 
L 340.552841 144.167574 
L 342.930682 204.066884 
L 345.308523 204.516034 
L 347.686364 174.74741 
L 350.064205 156.356435 
L 352.442045 145.338403 
L 354.819886 194.467447 
L 357.197727 222.028033 
L 359.575568 123.858044 
L 361.953409 179.541981 
L 364.33125 188.619551 
L 366.709091 130.198721 
L 369.086932 194.451418 
L 371.464773 172.555693 
L 373.842614 184.066289 
L 376.220455 120.795525 
L 378.598295 158.766656 
L 380.976136 134.512591 
L 383.353977 151.176934 
L 385.731818 130.124653 
L 388.109659 133.968692 
L 390.4875 151.334788 
L 392.865341 148.175446 
L 395.243182 165.278156 
L 397.621023 150.786732 
L 399.998864 208.076058 
L 402.376705 157.357508 
L 404.754545 170.250785 
L 407.132386 390.38585 
L 409.510227 430.725762 
L 411.888068 387.07468 
L 414.265909 405.63098 
L 416.64375 408.070875 
L 419.021591 375.567903 
L 421.399432 356.094479 
L 423.777273 335.499348 
L 426.155114 268.946915 
L 428.532955 264.178438 
L 430.910795 258.238753 
L 433.288636 246.224356 
L 435.666477 301.496116 
L 438.044318 257.594193 
L 440.422159 220.342339 
L 442.8 225.968985 
L 445.177841 231.165173 
L 447.555682 209.43502 
L 449.933523 191.6485 
L 452.311364 204.820754 
L 454.689205 246.001587 
L 457.067045 219.271359 
L 459.444886 212.9949 
L 461.822727 224.990952 
L 464.200568 197.820971 
L 466.578409 256.577023 
L 468.95625 222.541461 
L 471.334091 227.278695 
L 473.711932 254.187643 
L 476.089773 262.915006 
L 478.467614 237.220844 
L 480.845455 272.578892 
L 483.223295 250.956277 
L 487.978977 309.687104 
L 490.356818 307.502522 
L 492.734659 330.081828 
L 495.1125 332.554024 
L 497.490341 331.254055 
L 499.868182 450.574428 
L 502.246023 390.246062 
L 504.623864 445.537618 
L 507.001705 445.436617 
L 509.379545 432.76761 
L 511.757386 392.266693 
L 514.135227 472.177309 
L 516.513068 451.556657 
L 518.890909 458.899576 
L 521.26875 460.271569 
L 523.646591 429.252408 
L 528.402273 378.861513 
L 530.780114 368.79431 
L 533.157955 383.364802 
L 535.535795 409.565242 
L 537.913636 432.564012 
L 540.291477 402.936429 
L 542.669318 410.119939 
L 545.047159 397.170514 
L 547.425 395.254749 
L 549.802841 436.3107 
L 552.180682 433.687497 
L 554.558523 406.110103 
L 556.936364 395.068178 
L 559.314205 362.315399 
L 561.692045 409.020524 
L 564.069886 403.946768 
L 566.447727 398.272527 
L 568.825568 393.131778 
L 571.203409 406.817787 
L 573.58125 388.720437 
L 575.959091 424.479539 
L 578.336932 425.338212 
L 580.714773 443.482094 
L 583.092614 399.543933 
L 585.470455 412.282145 
L 587.848295 378.812488 
L 590.226136 430.710601 
L 592.603977 386.674784 
L 594.981818 380.050965 
L 597.359659 440.180992 
L 599.7375 408.282929 
L 602.115341 398.446405 
L 604.493182 405.85384 
L 606.871023 405.749541 
L 609.248864 462.436112 
L 611.626705 462.356289 
L 614.004545 492.48 
L 616.382386 430.811431 
L 618.760227 407.1839 
L 621.138068 450.917516 
L 623.515909 425.251272 
L 625.89375 424.73853 
L 628.271591 470.472962 
L 630.649432 438.616682 
L 633.027273 431.233004 
L 635.405114 437.379299 
L 637.782955 390.143908 
L 640.160795 383.352182 
L 642.538636 381.842689 
L 644.916477 347.393321 
L 647.294318 346.410772 
L 649.672159 325.501028 
L 652.05 335.498797 
L 654.427841 327.794194 
L 656.805682 296.271996 
L 659.183523 222.141112 
L 661.561364 299.715837 
L 663.939205 281.035547 
L 666.317045 224.993476 
L 668.694886 184.925917 
L 671.072727 254.445544 
L 673.450568 229.688927 
L 675.828409 192.105048 
L 678.20625 167.366181 
L 680.584091 175.948614 
L 682.961932 124.692632 
L 685.339773 165.875163 
L 687.717614 89.28 
L 690.095455 113.882861 
L 692.473295 436.114042 
L 694.851136 420.921191 
L 697.228977 422.574308 
L 699.606818 429.867232 
L 701.984659 444.150234 
L 704.3625 417.275364 
L 706.740341 436.939976 
L 709.118182 424.050335 
L 711.496023 424.637464 
L 713.873864 395.315186 
L 716.251705 460.087844 
L 718.629545 431.707571 
L 721.007386 478.466736 
L 723.385227 435.957763 
L 725.763068 418.117604 
L 728.140909 462.416785 
L 730.51875 438.524292 
L 732.896591 453.80046 
L 735.274432 436.274885 
L 737.652273 438.141876 
L 740.030114 422.512049 
L 742.407955 446.062622 
L 744.785795 422.921723 
L 744.785795 422.921723 
" clip-path="url(#p80990b2c5a)" style="fill: none; stroke: #808080; stroke-width: 2; stroke-linecap: square"/>
   </g>
   <g id="patch_3">
    <path d="M 108 512.64 
L 108 69.12 
" style="fill: none; stroke: #000000; stroke-width: 0.8; stroke-linejoin: miter; stroke-linecap: square"/>
   </g>
   <g id="patch_4">
    <path d="M 777.6 512.64 
L 777.6 69.12 
" style="fill: none; stroke: #000000; stroke-width: 0.8; stroke-linejoin: miter; stroke-linecap: square"/>
   </g>
   <g id="patch_5">
    <path d="M 108 512.64 
L 777.6 512.64 
" style="fill: none; stroke: #000000; stroke-width: 0.8; stroke-linejoin: miter; stroke-linecap: square"/>
   </g>
   <g id="patch_6">
    <path d="M 108 69.12 
L 777.6 69.12 
" style="fill: none; stroke: #000000; stroke-width: 0.8; stroke-linejoin: miter; stroke-linecap: square"/>
   </g>
   <g id="text_17">
    <!-- Predicted (solid) vs GT (dotted) Shape Type -->
    <g transform="translate(312.863438 63.12) scale(0.12 -0.12)">
     <defs>
      <path id="DejaVuSans-50" d="M 1259 4147 
L 1259 2394 
L 2053 2394 
Q 2494 2394 2734 2622 
Q 2975 2850 2975 3272 
Q 2975 3691 2734 3919 
Q 2494 4147 2053 4147 
L 1259 4147 
z
M 628 4666 
L 2053 4666 
Q 2838 4666 3239 4311 
Q 3641 3956 3641 3272 
Q 3641 2581 3239 2228 
Q 2838 1875 2053 1875 
L 1259 1875 
L 1259 0 
L 628 0 
L 628 4666 
z
" transform="scale(0.015625)"/>
      <path id="DejaVuSans-28" d="M 1984 4856 
Q 1566 4138 1362 3434 
Q 1159 2731 1159 2009 
Q 1159 1288 1364 580 
Q 1569 -128 1984 -844 
L 1484 -844 
Q 1016 -109 783 600 
Q 550 1309 550 2009 
Q 550 2706 781 3412 
Q 1013 4119 1484 4856 
L 1984 4856 
z
" transform="scale(0.015625)"/>
      <path id="DejaVuSans-73" d="M 2834 3397 
L 2834 2853 
Q 2591 2978 2328 3040 
Q 2066 3103 1784 3103 
Q 1356 3103 1142 2972 
Q 928 2841 928 2578 
Q 928 2378 1081 2264 
Q 1234 2150 1697 2047 
L 1894 2003 
Q 2506 1872 2764 1633 
Q 3022 1394 3022 966 
Q 3022 478 2636 193 
Q 2250 -91 1575 -91 
Q 1294 -91 989 -36 
Q 684 19 347 128 
L 347 722 
Q 666 556 975 473 
Q 1284 391 1588 391 
Q 1994 391 2212 530 
Q 2431 669 2431 922 
Q 2431 1156 2273 1281 
Q 2116 1406 1581 1522 
L 1381 1569 
Q 847 1681 609 1914 
Q 372 2147 372 2553 
Q 372 3047 722 3315 
Q 1072 3584 1716 3584 
Q 2034 3584 2315 3537 
Q 2597 3491 2834 3397 
z
" transform="scale(0.015625)"/>
      <path id="DejaVuSans-29" d="M 513 4856 
L 1013 4856 
Q 1481 4119 1714 3412 
Q 1947 2706 1947 2009 
Q 1947 1309 1714 600 
Q 1481 -109 1013 -844 
L 513 -844 
Q 928 -128 1133 580 
Q 1338 1288 1338 2009 
Q 1338 2731 1133 3434 
Q 928 4138 513 4856 
z
" transform="scale(0.015625)"/>
      <path id="DejaVuSans-76" d="M 191 3500 
L 800 3500 
L 1894 563 
L 2988 3500 
L 3597 3500 
L 2284 0 
L 1503 0 
L 191 3500 
z
" transform="scale(0.015625)"/>
      <path id="DejaVuSans-47" d="M 3809 666 
L 3809 1919 
L 2778 1919 
L 2778 2438 
L 4434 2438 
L 4434 434 
Q 4069 175 3628 42 
Q 3188 -91 2688 -91 
Q 1594 -91 976 548 
Q 359 1188 359 2328 
Q 359 3472 976 4111 
Q 1594 4750 2688 4750 
Q 3144 4750 3555 4637 
Q 3966 4525 4313 4306 
L 4313 3634 
Q 3963 3931 3569 4081 
Q 3175 4231 2741 4231 
Q 1884 4231 1454 3753 
Q 1025 3275 1025 2328 
Q 1025 1384 1454 906 
Q 1884 428 2741 428 
Q 3075 428 3337 486 
Q 3600 544 3809 666 
z
" transform="scale(0.015625)"/>
      <path id="DejaVuSans-54" d="M -19 4666 
L 3928 4666 
L 3928 4134 
L 2272 4134 
L 2272 0 
L 1638 0 
L 1638 4134 
L -19 4134 
L -19 4666 
z
" transform="scale(0.015625)"/>
      <path id="DejaVuSans-79" d="M 2059 -325 
Q 1816 -950 1584 -1140 
Q 1353 -1331 966 -1331 
L 506 -1331 
L 506 -850 
L 844 -850 
Q 1081 -850 1212 -737 
Q 1344 -625 1503 -206 
L 1606 56 
L 191 3500 
L 800 3500 
L 1894 763 
L 2988 3500 
L 3597 3500 
L 2059 -325 
z
" transform="scale(0.015625)"/>
     </defs>
     <use xlink:href="#DejaVuSans-50"/>
     <use xlink:href="#DejaVuSans-72" transform="translate(58.552734 0)"/>
     <use xlink:href="#DejaVuSans-65" transform="translate(97.416016 0)"/>
     <use xlink:href="#DejaVuSans-64" transform="translate(158.939453 0)"/>
     <use xlink:href="#DejaVuSans-69" transform="translate(222.416016 0)"/>
     <use xlink:href="#DejaVuSans-63" transform="translate(250.199219 0)"/>
     <use xlink:href="#DejaVuSans-74" transform="translate(305.179688 0)"/>
     <use xlink:href="#DejaVuSans-65" transform="translate(344.388672 0)"/>
     <use xlink:href="#DejaVuSans-64" transform="translate(405.912109 0)"/>
     <use xlink:href="#DejaVuSans-20" transform="translate(469.388672 0)"/>
     <use xlink:href="#DejaVuSans-28" transform="translate(501.175781 0)"/>
     <use xlink:href="#DejaVuSans-73" transform="translate(540.189453 0)"/>
     <use xlink:href="#DejaVuSans-6f" transform="translate(592.289062 0)"/>
     <use xlink:href="#DejaVuSans-6c" transform="translate(653.470703 0)"/>
     <use xlink:href="#DejaVuSans-69" transform="translate(681.253906 0)"/>
     <use xlink:href="#DejaVuSans-64" transform="translate(709.037109 0)"/>
     <use xlink:href="#DejaVuSans-29" transform="translate(772.513672 0)"/>
     <use xlink:href="#DejaVuSans-20" transform="translate(811.527344 0)"/>
     <use xlink:href="#DejaVuSans-76" transform="translate(843.314453 0)"/>
     <use xlink:href="#DejaVuSans-73" transform="translate(902.494141 0)"/>
     <use xlink:href="#DejaVuSans-20" transform="translate(954.59375 0)"/>
     <use xlink:href="#DejaVuSans-47" transform="translate(986.380859 0)"/>
     <use xlink:href="#DejaVuSans-54" transform="translate(1060.246094 0)"/>
     <use xlink:href="#DejaVuSans-20" transform="translate(1121.330078 0)"/>
     <use xlink:href="#DejaVuSans-28" transform="translate(1153.117188 0)"/>
     <use xlink:href="#DejaVuSans-64" transform="translate(1192.130859 0)"/>
     <use xlink:href="#DejaVuSans-6f" transform="translate(1255.607422 0)"/>
     <use xlink:href="#DejaVuSans-74" transform="translate(1316.789062 0)"/>
     <use xlink:href="#DejaVuSans-74" transform="translate(1355.998047 0)"/>
     <use xlink:href="#DejaVuSans-65" transform="translate(1395.207031 0)"/>
     <use xlink:href="#DejaVuSans-64" transform="translate(1456.730469 0)"/>
     <use xlink:href="#DejaVuSans-29" transform="translate(1520.207031 0)"/>
     <use xlink:href="#DejaVuSans-20" transform="translate(1559.220703 0)"/>
     <use xlink:href="#DejaVuSans-53" transform="translate(1591.007812 0)"/>
     <use xlink:href="#DejaVuSans-68" transform="translate(1654.484375 0)"/>
     <use xlink:href="#DejaVuSans-61" transform="translate(1717.863281 0)"/>
     <use xlink:href="#DejaVuSans-70" transform="translate(1779.142578 0)"/>
     <use xlink:href="#DejaVuSans-65" transform="translate(1842.619141 0)"/>
     <use xlink:href="#DejaVuSans-20" transform="translate(1904.142578 0)"/>
     <use xlink:href="#DejaVuSans-54" transform="translate(1935.929688 0)"/>
     <use xlink:href="#DejaVuSans-79" transform="translate(1981.388672 0)"/>
     <use xlink:href="#DejaVuSans-70" transform="translate(2040.568359 0)"/>
     <use xlink:href="#DejaVuSans-65" transform="translate(2104.044922 0)"/>
    </g>
   </g>
   <g id="legend_1">
    <g id="patch_7">
     <path d="M 822.204531 336.414375 
L 866.915469 336.414375 
Q 868.915469 336.414375 868.915469 334.414375 
L 868.915469 247.345625 
Q 868.915469 245.345625 866.915469 245.345625 
L 822.204531 245.345625 
Q 820.204531 245.345625 820.204531 247.345625 
L 820.204531 334.414375 
Q 820.204531 336.414375 822.204531 336.414375 
z
" style="fill: #ffffff; opacity: 0.8; stroke: #cccccc; stroke-linejoin: miter"/>
    </g>
    <g id="line2d_28">
     <path d="M 824.204531 253.444063 
L 834.204531 253.444063 
L 844.204531 253.444063 
" style="fill: none; stroke: #4e79a7; stroke-width: 3; stroke-linecap: square"/>
    </g>
    <g id="text_18">
     <!-- S1 -->
     <g transform="translate(852.204531 256.944063) scale(0.1 -0.1)">
      <use xlink:href="#DejaVuSans-53"/>
      <use xlink:href="#DejaVuSans-31" transform="translate(63.476562 0)"/>
     </g>
    </g>
    <g id="line2d_29">
     <path d="M 824.204531 268.122188 
L 834.204531 268.122188 
L 844.204531 268.122188 
" style="fill: none; stroke: #f28e2b; stroke-width: 3; stroke-linecap: square"/>
    </g>
    <g id="text_19">
     <!-- S2 -->
     <g transform="translate(852.204531 271.622188) scale(0.1 -0.1)">
      <use xlink:href="#DejaVuSans-53"/>
      <use xlink:href="#DejaVuSans-32" transform="translate(63.476562 0)"/>
     </g>
    </g>
    <g id="line2d_30">
     <path d="M 824.204531 282.800313 
L 834.204531 282.800313 
L 844.204531 282.800313 
" style="fill: none; stroke: #e15759; stroke-width: 3; stroke-linecap: square"/>
    </g>
    <g id="text_20">
     <!-- S3 -->
     <g transform="translate(852.204531 286.300313) scale(0.1 -0.1)">
      <use xlink:href="#DejaVuSans-53"/>
      <use xlink:href="#DejaVuSans-33" transform="translate(63.476562 0)"/>
     </g>
    </g>
    <g id="line2d_31">
     <path d="M 824.204531 297.478438 
L 834.204531 297.478438 
L 844.204531 297.478438 
" style="fill: none; stroke: #76b7b2; stroke-width: 3; stroke-linecap: square"/>
    </g>
    <g id="text_21">
     <!-- S4 -->
     <g transform="translate(852.204531 300.978438) scale(0.1 -0.1)">
      <defs>
       <path id="DejaVuSans-34" d="M 2419 4116 
L 825 1625 
L 2419 1625 
L 2419 4116 
z
M 2253 4666 
L 3047 4666 
L 3047 1625 
L 3713 1625 
L 3713 1100 
L 3047 1100 
L 3047 0 
L 2419 0 
L 2419 1100 
L 313 1100 
L 313 1709 
L 2253 4666 
z
" transform="scale(0.015625)"/>
      </defs>
      <use xlink:href="#DejaVuSans-53"/>
      <use xlink:href="#DejaVuSans-34" transform="translate(63.476562 0)"/>
     </g>
    </g>
    <g id="line2d_32">
     <path d="M 824.204531 312.156563 
L 834.204531 312.156563 
L 844.204531 312.156563 
" style="fill: none; stroke: #59a14f; stroke-width: 3; stroke-linecap: square"/>
    </g>
    <g id="text_22">
     <!-- S5 -->
     <g transform="translate(852.204531 315.656563) scale(0.1 -0.1)">
      <use xlink:href="#DejaVuSans-53"/>
      <use xlink:href="#DejaVuSans-35" transform="translate(63.476562 0)"/>
     </g>
    </g>
    <g id="line2d_33">
     <path d="M 824.204531 326.834688 
L 834.204531 326.834688 
L 844.204531 326.834688 
" style="fill: none; stroke: #edc948; stroke-width: 3; stroke-linecap: square"/>
    </g>
    <g id="text_23">
     <!-- S6 -->
     <g transform="translate(852.204531 330.334688) scale(0.1 -0.1)">
      <defs>
       <path id="DejaVuSans-36" d="M 2113 2584 
Q 1688 2584 1439 2293 
Q 1191 2003 1191 1497 
Q 1191 994 1439 701 
Q 1688 409 2113 409 
Q 2538 409 2786 701 
Q 3034 994 3034 1497 
Q 3034 2003 2786 2293 
Q 2538 2584 2113 2584 
z
M 3366 4563 
L 3366 3988 
Q 3128 4100 2886 4159 
Q 2644 4219 2406 4219 
Q 1781 4219 1451 3797 
Q 1122 3375 1075 2522 
Q 1259 2794 1537 2939 
Q 1816 3084 2150 3084 
Q 2853 3084 3261 2657 
Q 3669 2231 3669 1497 
Q 3669 778 3244 343 
Q 2819 -91 2113 -91 
Q 1303 -91 875 529 
Q 447 1150 447 2328 
Q 447 3434 972 4092 
Q 1497 4750 2381 4750 
Q 2619 4750 2861 4703 
Q 3103 4656 3366 4563 
z
" transform="scale(0.015625)"/>
      </defs>
      <use xlink:href="#DejaVuSans-53"/>
      <use xlink:href="#DejaVuSans-36" transform="translate(63.476562 0)"/>
     </g>
    </g>
   </g>
  </g>
  <g id="text_24">
   <!-- Class 1 -->
   <g transform="translate(410.490937 20.638125) scale(0.12 -0.12)">
    <defs>
     <path id="DejaVuSans-43" d="M 4122 4306 
L 4122 3641 
Q 3803 3938 3442 4084 
Q 3081 4231 2675 4231 
Q 1875 4231 1450 3742 
Q 1025 3253 1025 2328 
Q 1025 1406 1450 917 
Q 1875 428 2675 428 
Q 3081 428 3442 575 
Q 3803 722 4122 1019 
L 4122 359 
Q 3791 134 3420 21 
Q 3050 -91 2638 -91 
Q 1578 -91 968 557 
Q 359 1206 359 2328 
Q 359 3453 968 4101 
Q 1578 4750 2638 4750 
Q 3056 4750 3426 4639 
Q 3797 4528 4122 4306 
z
" transform="scale(0.015625)"/>
    </defs>
    <use xlink:href="#DejaVuSans-43"/>
    <use xlink:href="#DejaVuSans-6c" transform="translate(69.824219 0)"/>
    <use xlink:href="#DejaVuSans-61" transform="translate(97.607422 0)"/>
    <use xlink:href="#DejaVuSans-73" transform="translate(158.886719 0)"/>
    <use xlink:href="#DejaVuSans-73" transform="translate(210.986328 0)"/>
    <use xlink:href="#DejaVuSans-20" transform="translate(263.085938 0)"/>
    <use xlink:href="#DejaVuSans-31" transform="translate(294.873047 0)"/>
   </g>
  </g>
 </g>
 <defs>
  <clipPath id="p80990b2c5a">
   <rect x="108" y="69.12" width="669.6" height="443.52"/>
  </clipPath>
 </defs>
</svg>
