<?xml version="1.0" encoding="utf-8" standalone="no"?>
<!DOCTYPE svg PUBLIC "-//W3C//DTD SVG 1.1//EN"
  "http://www.w3.org/Graphics/SVG/1.1/DTD/svg11.dtd">
<svg xmlns:xlink="http://www.w3.org/1999/xlink" width="864pt" height="576pt" viewBox="0 0 864 576" xmlns="http://www.w3.org/2000/svg" version="1.1">
 <metadata>
  <rdf:RDF xmlns:dc="http://purl.org/dc/elements/1.1/" xmlns:cc="http://creativecommons.org/ns#" xmlns:rdf="http://www.w3.org/1999/02/22-rdf-syntax-ns#">
   <cc:Work>
    <dc:type rdf:resource="http://purl.org/dc/dcmitype/StillImage"/>
    <dc:date>2025-06-12T15:54:32.242221</dc:date>
    <dc:format>image/svg+xml</dc:format>
    <dc:creator>
     <cc:Agent>
      <dc:title>Matplotlib v3.5.1, https://matplotlib.org/</dc:title>
     </cc:Agent>
    </dc:creator>
   </cc:Work>
  </rdf:RDF>
 </metadata>
 <defs>
  <style type="text/css">*{stroke-linejoin: round; stroke-linecap: butt}</style>
 </defs>
 <g id="figure_1">
  <g id="patch_1">
   <path d="M 0 576 
L 864 576 
L 864 0 
L 0 0 
z
" style="fill: #ffffff"/>
  </g>
  <g id="axes_1">
   <g id="patch_2">
    <path d="M 108 504 
L 777.6 504 
L 777.6 69.12 
L 108 69.12 
z
" style="fill: #ffffff"/>
   </g>
   <g id="matplotlib.axis_1">
    <g id="xtick_1">
     <g id="line2d_1">
      <path d="M 138.436364 504 
L 138.436364 69.12 
" clip-path="url(#p7143d67410)" style="fill: none; stroke: #cccccc; stroke-linecap: round"/>
     </g>
     <g id="text_1">
      <!-- $\mathdefault{0}$ -->
      <g style="fill: #262626" transform="translate(132.153923 532.525867)scale(0.275 -0.275)">
       <defs>
        <path id="CMR17-30" d="M 2688 2038 
C 2688 2430 2682 3099 2413 3613 
C 2176 4063 1798 4224 1466 4224 
C 1158 4224 768 4082 525 3620 
C 269 3137 243 2539 243 2038 
C 243 1671 250 1112 448 623 
C 723 -39 1216 -128 1466 -128 
C 1760 -128 2208 -7 2470 604 
C 2662 1048 2688 1568 2688 2038 
z
M 1466 -26 
C 1056 -26 813 328 723 816 
C 653 1196 653 1749 653 2109 
C 653 2604 653 3015 736 3407 
C 858 3954 1216 4121 1466 4121 
C 1728 4121 2067 3947 2189 3420 
C 2272 3054 2278 2623 2278 2109 
C 2278 1691 2278 1176 2202 797 
C 2067 96 1690 -26 1466 -26 
z
" transform="scale(0.015625)"/>
       </defs>
       <use xlink:href="#CMR17-30" transform="scale(0.996264)"/>
      </g>
     </g>
    </g>
    <g id="xtick_2">
     <g id="line2d_2">
      <path d="M 257.328409 504 
L 257.328409 69.12 
" clip-path="url(#p7143d67410)" style="fill: none; stroke: #cccccc; stroke-linecap: round"/>
     </g>
     <g id="text_2">
      <!-- $\mathdefault{50}$ -->
      <g style="fill: #262626" transform="translate(244.763528 532.525867)scale(0.275 -0.275)">
       <defs>
        <path id="CMR17-35" d="M 730 3750 
C 794 3724 1056 3641 1325 3641 
C 1920 3641 2246 3961 2432 4140 
C 2432 4191 2432 4224 2394 4224 
C 2387 4224 2374 4224 2323 4198 
C 2099 4102 1837 4032 1517 4032 
C 1325 4032 1037 4055 723 4191 
C 653 4224 640 4224 634 4224 
C 602 4224 595 4217 595 4090 
L 595 2231 
C 595 2113 595 2080 659 2080 
C 691 2080 704 2093 736 2139 
C 941 2435 1222 2560 1542 2560 
C 1766 2560 2246 2415 2246 1293 
C 2246 1087 2246 716 2054 422 
C 1894 159 1645 25 1370 25 
C 947 25 518 319 403 812 
C 429 806 480 793 506 793 
C 589 793 749 838 749 1036 
C 749 1209 627 1280 506 1280 
C 358 1280 262 1190 262 1011 
C 262 454 704 -128 1382 -128 
C 2042 -128 2669 441 2669 1267 
C 2669 2054 2170 2662 1549 2662 
C 1222 2662 947 2540 730 2304 
L 730 3750 
z
" transform="scale(0.015625)"/>
       </defs>
       <use xlink:href="#CMR17-35" transform="scale(0.996264)"/>
       <use xlink:href="#CMR17-30" transform="translate(45.690477 0)scale(0.996264)"/>
      </g>
     </g>
    </g>
    <g id="xtick_3">
     <g id="line2d_3">
      <path d="M 376.220455 504 
L 376.220455 69.12 
" clip-path="url(#p7143d67410)" style="fill: none; stroke: #cccccc; stroke-linecap: round"/>
     </g>
     <g id="text_3">
      <!-- $\mathdefault{100}$ -->
      <g style="fill: #262626" transform="translate(357.373133 532.525867)scale(0.275 -0.275)">
       <defs>
        <path id="CMR17-31" d="M 1702 4083 
C 1702 4217 1696 4224 1606 4224 
C 1357 3927 979 3833 621 3820 
C 602 3820 570 3820 563 3808 
C 557 3795 557 3782 557 3648 
C 755 3648 1088 3686 1344 3839 
L 1344 467 
C 1344 243 1331 166 781 166 
L 589 166 
L 589 0 
C 896 6 1216 12 1523 12 
C 1830 12 2150 6 2458 0 
L 2458 166 
L 2266 166 
C 1715 166 1702 236 1702 467 
L 1702 4083 
z
" transform="scale(0.015625)"/>
       </defs>
       <use xlink:href="#CMR17-31" transform="scale(0.996264)"/>
       <use xlink:href="#CMR17-30" transform="translate(45.690477 0)scale(0.996264)"/>
       <use xlink:href="#CMR17-30" transform="translate(91.380954 0)scale(0.996264)"/>
      </g>
     </g>
    </g>
    <g id="xtick_4">
     <g id="line2d_4">
      <path d="M 495.1125 504 
L 495.1125 69.12 
" clip-path="url(#p7143d67410)" style="fill: none; stroke: #cccccc; stroke-linecap: round"/>
     </g>
     <g id="text_4">
      <!-- $\mathdefault{150}$ -->
      <g style="fill: #262626" transform="translate(476.265178 532.525867)scale(0.275 -0.275)">
       <use xlink:href="#CMR17-31" transform="scale(0.996264)"/>
       <use xlink:href="#CMR17-35" transform="translate(45.690477 0)scale(0.996264)"/>
       <use xlink:href="#CMR17-30" transform="translate(91.380954 0)scale(0.996264)"/>
      </g>
     </g>
    </g>
    <g id="xtick_5">
     <g id="line2d_5">
      <path d="M 614.004545 504 
L 614.004545 69.12 
" clip-path="url(#p7143d67410)" style="fill: none; stroke: #cccccc; stroke-linecap: round"/>
     </g>
     <g id="text_5">
      <!-- $\mathdefault{200}$ -->
      <g style="fill: #262626" transform="translate(595.157224 532.525867)scale(0.275 -0.275)">
       <defs>
        <path id="CMR17-32" d="M 2669 990 
L 2554 990 
C 2490 537 2438 460 2413 422 
C 2381 371 1920 371 1830 371 
L 602 371 
C 832 620 1280 1073 1824 1596 
C 2214 1966 2669 2400 2669 3033 
C 2669 3788 2067 4224 1395 4224 
C 691 4224 262 3603 262 3027 
C 262 2777 448 2745 525 2745 
C 589 2745 781 2783 781 3007 
C 781 3206 614 3264 525 3264 
C 486 3264 448 3257 422 3244 
C 544 3788 915 4057 1306 4057 
C 1862 4057 2227 3616 2227 3033 
C 2227 2477 1901 1998 1536 1583 
L 262 147 
L 262 0 
L 2515 0 
L 2669 990 
z
" transform="scale(0.015625)"/>
       </defs>
       <use xlink:href="#CMR17-32" transform="scale(0.996264)"/>
       <use xlink:href="#CMR17-30" transform="translate(45.690477 0)scale(0.996264)"/>
       <use xlink:href="#CMR17-30" transform="translate(91.380954 0)scale(0.996264)"/>
      </g>
     </g>
    </g>
    <g id="xtick_6">
     <g id="line2d_6">
      <path d="M 732.896591 504 
L 732.896591 69.12 
" clip-path="url(#p7143d67410)" style="fill: none; stroke: #cccccc; stroke-linecap: round"/>
     </g>
     <g id="text_6">
      <!-- $\mathdefault{250}$ -->
      <g style="fill: #262626" transform="translate(714.049269 532.525867)scale(0.275 -0.275)">
       <use xlink:href="#CMR17-32" transform="scale(0.996264)"/>
       <use xlink:href="#CMR17-35" transform="translate(45.690477 0)scale(0.996264)"/>
       <use xlink:href="#CMR17-30" transform="translate(91.380954 0)scale(0.996264)"/>
      </g>
     </g>
    </g>
    <g id="text_7">
     <!-- Sample number -->
     <g style="fill: #262626" transform="translate(349.409568 562.610362)scale(0.3 -0.3)">
      <defs>
       <path id="CMR17-53" d="M 2803 4351 
C 2803 4467 2797 4473 2758 4473 
C 2720 4473 2707 4447 2682 4390 
L 2490 3965 
C 2246 4320 1875 4480 1472 4480 
C 819 4480 294 3958 294 3301 
C 294 3101 339 2817 557 2546 
C 794 2250 1018 2198 1530 2063 
C 1722 2011 2042 1927 2106 1901 
C 2470 1747 2662 1360 2662 999 
C 2662 534 2336 38 1779 38 
C 1094 38 454 425 410 1328 
C 403 1431 397 1437 352 1437 
C 301 1437 294 1431 294 1302 
L 294 0 
C 294 -116 301 -122 339 -122 
C 384 -122 397 -90 486 109 
C 493 128 493 141 614 386 
C 934 -39 1472 -128 1779 -128 
C 2477 -128 2970 457 2970 1141 
C 2970 1476 2848 1734 2778 1850 
C 2509 2263 2221 2340 1914 2417 
C 1869 2437 1856 2437 1498 2527 
C 1152 2617 1005 2662 845 2836 
C 666 3036 602 3243 602 3449 
C 602 3868 934 4326 1478 4326 
C 2157 4326 2579 3842 2675 3036 
C 2694 2920 2701 2914 2746 2914 
C 2803 2914 2803 2933 2803 3043 
L 2803 4351 
z
" transform="scale(0.015625)"/>
       <path id="CMR17-61" d="M 2304 1656 
C 2304 2048 2304 2275 2035 2534 
C 1798 2751 1523 2816 1306 2816 
C 800 2816 435 2408 435 1977 
C 435 1740 627 1728 666 1728 
C 749 1728 896 1779 896 1958 
C 896 2118 774 2188 666 2188 
C 640 2188 608 2182 589 2176 
C 723 2594 1069 2713 1293 2713 
C 1613 2713 1965 2421 1965 1875 
L 1965 1632 
C 1587 1619 1133 1568 774 1373 
C 371 1147 256 822 256 576 
C 256 77 832 -64 1171 -64 
C 1523 -64 1850 135 1990 505 
C 2003 219 2182 -39 2464 -39 
C 2598 -39 2938 51 2938 563 
L 2938 926 
L 2822 926 
L 2822 557 
C 2822 161 2650 109 2566 109 
C 2304 109 2304 446 2304 732 
L 2304 1656 
z
M 1965 887 
C 1965 323 1568 38 1216 38 
C 896 38 646 278 646 576 
C 646 771 730 1114 1101 1322 
C 1408 1497 1760 1523 1965 1536 
L 1965 887 
z
" transform="scale(0.015625)"/>
       <path id="CMR17-6d" d="M 4326 1954 
C 4326 2276 4269 2816 3507 2816 
C 3072 2816 2771 2520 2656 2173 
L 2650 2173 
C 2573 2700 2195 2816 1837 2816 
C 1331 2816 1069 2424 973 2166 
L 966 2166 
L 966 2816 
L 211 2745 
L 211 2578 
C 589 2578 646 2540 646 2231 
L 646 443 
C 646 198 621 166 211 166 
L 211 0 
C 365 12 646 12 813 12 
C 979 12 1267 12 1421 0 
L 1421 166 
C 1011 166 986 192 986 443 
L 986 1678 
C 986 2269 1344 2713 1792 2713 
C 2266 2713 2317 2289 2317 1980 
L 2317 443 
C 2317 198 2291 166 1882 166 
L 1882 0 
C 2035 12 2317 12 2483 12 
C 2650 12 2938 12 3091 0 
L 3091 166 
C 2682 166 2656 192 2656 443 
L 2656 1678 
C 2656 2269 3014 2713 3462 2713 
C 3936 2713 3987 2289 3987 1980 
L 3987 443 
C 3987 198 3962 166 3552 166 
L 3552 0 
C 3706 12 3987 12 4154 12 
C 4320 12 4608 12 4762 0 
L 4762 166 
C 4352 166 4326 192 4326 443 
L 4326 1954 
z
" transform="scale(0.015625)"/>
       <path id="CMR17-70" d="M 1408 -1114 
C 998 -1114 973 -1088 973 -834 
L 973 380 
C 1158 109 1427 -64 1766 -64 
C 2406 -64 3053 503 3053 1382 
C 3053 2196 2496 2816 1837 2816 
C 1453 2816 1139 2603 960 2345 
L 960 2816 
L 198 2745 
L 198 2577 
C 576 2577 634 2539 634 2228 
L 634 -834 
C 634 -1081 608 -1114 198 -1114 
L 198 -1280 
C 352 -1268 634 -1268 800 -1268 
C 966 -1268 1254 -1268 1408 -1280 
L 1408 -1114 
z
M 973 2015 
C 973 2106 973 2241 1222 2481 
C 1254 2506 1472 2700 1792 2700 
C 2259 2700 2643 2112 2643 1376 
C 2643 639 2234 38 1728 38 
C 1498 38 1248 148 1056 451 
C 973 594 973 632 973 736 
L 973 2015 
z
" transform="scale(0.015625)"/>
       <path id="CMR17-6c" d="M 979 4416 
L 218 4345 
L 218 4179 
C 595 4179 653 4141 653 3835 
L 653 439 
C 653 198 627 166 218 166 
L 218 0 
C 371 12 653 12 813 12 
C 979 12 1261 12 1414 0 
L 1414 166 
C 1005 166 979 191 979 439 
L 979 4416 
z
" transform="scale(0.015625)"/>
       <path id="CMR17-65" d="M 2438 1503 
C 2464 1529 2464 1542 2464 1606 
C 2464 2251 2118 2816 1389 2816 
C 710 2816 173 2175 173 1394 
C 173 554 781 -64 1459 -64 
C 2176 -64 2458 619 2458 755 
C 2458 800 2419 800 2406 800 
C 2362 800 2355 787 2330 709 
C 2189 270 1837 51 1504 51 
C 1229 51 954 206 781 490 
C 582 819 582 1200 582 1503 
L 2438 1503 
z
M 589 1600 
C 634 2511 1126 2713 1382 2713 
C 1818 2713 2112 2308 2118 1600 
L 589 1600 
z
" transform="scale(0.015625)"/>
       <path id="CMR17-6e" d="M 2656 1954 
C 2656 2282 2592 2816 1837 2816 
C 1331 2816 1069 2424 973 2166 
L 966 2166 
L 966 2816 
L 211 2745 
L 211 2578 
C 589 2578 646 2540 646 2231 
L 646 443 
C 646 198 621 166 211 166 
L 211 0 
C 365 12 646 12 813 12 
C 979 12 1267 12 1421 0 
L 1421 166 
C 1011 166 986 192 986 443 
L 986 1678 
C 986 2269 1344 2713 1792 2713 
C 2266 2713 2317 2289 2317 1980 
L 2317 443 
C 2317 198 2291 166 1882 166 
L 1882 0 
C 2035 12 2317 12 2483 12 
C 2650 12 2938 12 3091 0 
L 3091 166 
C 2682 166 2656 192 2656 443 
L 2656 1954 
z
" transform="scale(0.015625)"/>
       <path id="CMR17-75" d="M 1882 2745 
L 1882 2579 
C 2259 2579 2317 2540 2317 2229 
L 2317 1053 
C 2317 510 2029 38 1555 38 
C 1030 38 986 355 986 691 
L 986 2816 
L 211 2745 
L 211 2579 
C 467 2579 640 2579 646 2320 
L 646 1079 
C 646 646 646 368 813 187 
C 896 103 1056 -64 1517 -64 
C 2061 -64 2272 400 2323 536 
L 2330 536 
L 2330 -64 
L 3091 -13 
L 3091 154 
C 2714 154 2656 193 2656 503 
L 2656 2816 
L 1882 2745 
z
" transform="scale(0.015625)"/>
       <path id="CMR17-62" d="M 960 4416 
L 198 4345 
L 198 4179 
C 576 4179 634 4141 634 3843 
L 634 -13 
L 749 -13 
L 934 445 
C 1120 141 1395 -64 1766 -64 
C 2406 -64 3053 503 3053 1382 
C 3053 2209 2477 2816 1830 2816 
C 1434 2816 1152 2603 960 2351 
L 960 4416 
z
M 973 2022 
C 973 2138 973 2157 1062 2293 
C 1312 2681 1670 2713 1792 2713 
C 1984 2713 2643 2610 2643 1388 
C 2643 109 1888 38 1734 38 
C 1536 38 1248 115 1043 490 
C 973 613 973 626 973 742 
L 973 2022 
z
" transform="scale(0.015625)"/>
       <path id="CMR17-72" d="M 960 1517 
C 960 2134 1222 2713 1702 2713 
C 1747 2713 1792 2707 1837 2687 
C 1837 2687 1696 2642 1696 2475 
C 1696 2321 1818 2257 1914 2257 
C 1990 2257 2131 2302 2131 2482 
C 2131 2687 1926 2816 1709 2816 
C 1222 2816 1011 2340 947 2115 
L 941 2115 
L 941 2816 
L 198 2745 
L 198 2578 
C 576 2578 634 2540 634 2231 
L 634 443 
C 634 198 608 166 198 166 
L 198 0 
C 352 12 646 12 813 12 
C 998 12 1325 12 1498 0 
L 1498 166 
C 1037 166 960 166 960 455 
L 960 1517 
z
" transform="scale(0.015625)"/>
      </defs>
      <use xlink:href="#CMR17-53" transform="scale(0.996264)"/>
      <use xlink:href="#CMR17-61" transform="translate(50.89537 0)scale(0.996264)"/>
      <use xlink:href="#CMR17-6d" transform="translate(96.585847 0)scale(0.996264)"/>
      <use xlink:href="#CMR17-70" transform="translate(173.505437 0)scale(0.996264)"/>
      <use xlink:href="#CMR17-6c" transform="translate(224.400807 0)scale(0.996264)"/>
      <use xlink:href="#CMR17-65" transform="translate(249.271865 0)scale(0.996264)"/>
      <use xlink:href="#CMR17-6e" transform="translate(319.833492 0)scale(0.996264)"/>
      <use xlink:href="#CMR17-75" transform="translate(368.126408 0)scale(0.996264)"/>
      <use xlink:href="#CMR17-6d" transform="translate(419.021777 0)scale(0.996264)"/>
      <use xlink:href="#CMR17-62" transform="translate(493.338913 0)scale(0.996264)"/>
      <use xlink:href="#CMR17-65" transform="translate(546.836722 0)scale(0.996264)"/>
      <use xlink:href="#CMR17-72" transform="translate(587.322382 0)scale(0.996264)"/>
     </g>
    </g>
   </g>
   <g id="matplotlib.axis_2">
    <g id="ytick_1">
     <g id="line2d_7">
      <path d="M 108 481.478467 
L 777.6 481.478467 
" clip-path="url(#p7143d67410)" style="fill: none; stroke: #cccccc; stroke-linecap: round"/>
     </g>
     <g id="text_8">
      <!-- $\mathdefault{−1.0}$ -->
      <g style="fill: #262626" transform="translate(44.609469 490.991401)scale(0.275 -0.275)">
       <defs>
        <path id="CMSY10-0" d="M 4218 1472 
C 4326 1472 4442 1472 4442 1600 
C 4442 1728 4326 1728 4218 1728 
L 755 1728 
C 646 1728 531 1728 531 1600 
C 531 1472 646 1472 755 1472 
L 4218 1472 
z
" transform="scale(0.015625)"/>
        <path id="CMMI12-3a" d="M 1178 307 
C 1178 492 1024 620 870 620 
C 685 620 557 467 557 313 
C 557 128 710 0 864 0 
C 1050 0 1178 153 1178 307 
z
" transform="scale(0.015625)"/>
       </defs>
       <use xlink:href="#CMSY10-0" transform="scale(0.996264)"/>
       <use xlink:href="#CMR17-31" transform="translate(77.487468 0)scale(0.996264)"/>
       <use xlink:href="#CMMI12-3a" transform="translate(123.177945 0)scale(0.996264)"/>
       <use xlink:href="#CMR17-30" transform="translate(150.275122 0)scale(0.996264)"/>
      </g>
     </g>
    </g>
    <g id="ytick_2">
     <g id="line2d_8">
      <path d="M 108 398.602201 
L 777.6 398.602201 
" clip-path="url(#p7143d67410)" style="fill: none; stroke: #cccccc; stroke-linecap: round"/>
     </g>
     <g id="text_9">
      <!-- $\mathdefault{−0.5}$ -->
      <g style="fill: #262626" transform="translate(44.609469 408.115135)scale(0.275 -0.275)">
       <use xlink:href="#CMSY10-0" transform="scale(0.996264)"/>
       <use xlink:href="#CMR17-30" transform="translate(77.487468 0)scale(0.996264)"/>
       <use xlink:href="#CMMI12-3a" transform="translate(123.177945 0)scale(0.996264)"/>
       <use xlink:href="#CMR17-35" transform="translate(150.275122 0)scale(0.996264)"/>
      </g>
     </g>
    </g>
    <g id="ytick_3">
     <g id="line2d_9">
      <path d="M 108 315.725936 
L 777.6 315.725936 
" clip-path="url(#p7143d67410)" style="fill: none; stroke: #cccccc; stroke-linecap: round"/>
     </g>
     <g id="text_10">
      <!-- $\mathdefault{0.0}$ -->
      <g style="fill: #262626" transform="translate(65.918521 325.238869)scale(0.275 -0.275)">
       <use xlink:href="#CMR17-30" transform="scale(0.996264)"/>
       <use xlink:href="#CMMI12-3a" transform="translate(45.690477 0)scale(0.996264)"/>
       <use xlink:href="#CMR17-30" transform="translate(72.787654 0)scale(0.996264)"/>
      </g>
     </g>
    </g>
    <g id="ytick_4">
     <g id="line2d_10">
      <path d="M 108 232.84967 
L 777.6 232.84967 
" clip-path="url(#p7143d67410)" style="fill: none; stroke: #cccccc; stroke-linecap: round"/>
     </g>
     <g id="text_11">
      <!-- $\mathdefault{0.5}$ -->
      <g style="fill: #262626" transform="translate(65.918521 242.362603)scale(0.275 -0.275)">
       <use xlink:href="#CMR17-30" transform="scale(0.996264)"/>
       <use xlink:href="#CMMI12-3a" transform="translate(45.690477 0)scale(0.996264)"/>
       <use xlink:href="#CMR17-35" transform="translate(72.787654 0)scale(0.996264)"/>
      </g>
     </g>
    </g>
    <g id="ytick_5">
     <g id="line2d_11">
      <path d="M 108 149.973404 
L 777.6 149.973404 
" clip-path="url(#p7143d67410)" style="fill: none; stroke: #cccccc; stroke-linecap: round"/>
     </g>
     <g id="text_12">
      <!-- $\mathdefault{1.0}$ -->
      <g style="fill: #262626" transform="translate(65.918521 159.486337)scale(0.275 -0.275)">
       <use xlink:href="#CMR17-31" transform="scale(0.996264)"/>
       <use xlink:href="#CMMI12-3a" transform="translate(45.690477 0)scale(0.996264)"/>
       <use xlink:href="#CMR17-30" transform="translate(72.787654 0)scale(0.996264)"/>
      </g>
     </g>
    </g>
    <g id="text_13">
     <!-- Amplitude/Shape Indicator -->
     <g style="fill: #262626" transform="translate(33.162496 452.031872)rotate(-90)scale(0.3 -0.3)">
      <defs>
       <path id="CMR17-41" d="M 2323 4441 
C 2291 4524 2278 4544 2214 4544 
C 2150 4544 2138 4524 2106 4441 
L 749 580 
C 627 236 371 166 147 166 
L 147 0 
C 262 12 518 12 640 12 
C 800 12 1056 12 1210 0 
L 1210 166 
C 909 179 864 382 864 459 
C 864 516 877 548 890 586 
L 1229 1536 
L 2906 1536 
L 3290 453 
C 3322 376 3322 363 3322 338 
C 3322 166 3046 166 2925 166 
L 2925 0 
C 3110 12 3443 12 3642 12 
C 3808 12 4128 12 4282 0 
L 4282 166 
C 3942 166 3827 166 3744 402 
L 2323 4441 
z
M 2067 3924 
L 2848 1702 
L 1286 1702 
L 2067 3924 
z
" transform="scale(0.015625)"/>
       <path id="CMR17-69" d="M 992 3961 
C 992 4102 877 4224 730 4224 
C 589 4224 467 4108 467 3961 
C 467 3820 582 3699 730 3699 
C 870 3699 992 3814 992 3961 
z
M 243 2745 
L 243 2579 
C 602 2579 653 2540 653 2231 
L 653 443 
C 653 198 627 166 218 166 
L 218 0 
C 371 12 646 12 806 12 
C 960 12 1222 12 1370 0 
L 1370 166 
C 992 166 979 205 979 436 
L 979 2816 
L 243 2745 
z
" transform="scale(0.015625)"/>
       <path id="CMR17-74" d="M 966 2585 
L 1862 2585 
L 1862 2752 
L 966 2752 
L 966 3968 
L 851 3968 
C 838 3292 614 2700 70 2687 
L 70 2585 
L 627 2585 
L 627 778 
C 627 655 627 -64 1370 -64 
C 1747 -64 1965 308 1965 784 
L 1965 1151 
L 1850 1151 
L 1850 790 
C 1850 347 1677 51 1408 51 
C 1222 51 966 179 966 765 
L 966 2585 
z
" transform="scale(0.015625)"/>
       <path id="CMR17-64" d="M 1869 4345 
L 1869 4179 
C 2246 4179 2304 4141 2304 3843 
L 2304 2371 
C 2278 2403 2016 2816 1498 2816 
C 845 2816 211 2228 211 1376 
C 211 529 806 -64 1434 -64 
C 1978 -64 2259 361 2291 406 
L 2291 -64 
L 3066 -13 
L 3066 154 
C 2688 154 2630 193 2630 503 
L 2630 4416 
L 1869 4345 
z
M 2291 762 
C 2291 568 2176 393 2029 264 
C 1811 70 1594 38 1472 38 
C 1286 38 621 135 621 1369 
C 621 2636 1363 2713 1530 2713 
C 1824 2713 2061 2545 2208 2313 
C 2291 2177 2291 2157 2291 2041 
L 2291 762 
z
" transform="scale(0.015625)"/>
       <path id="CMR17-2f" d="M 2605 4575 
C 2637 4658 2637 4671 2637 4684 
C 2637 4761 2579 4800 2528 4800 
C 2451 4800 2426 4748 2400 4671 
L 326 -1376 
C 294 -1460 294 -1472 294 -1485 
C 294 -1562 352 -1600 403 -1600 
C 480 -1600 506 -1549 531 -1472 
L 2605 4575 
z
" transform="scale(0.015625)"/>
       <path id="CMR17-68" d="M 2656 1954 
C 2656 2282 2592 2816 1837 2816 
C 1312 2816 1056 2392 979 2179 
L 973 2179 
L 973 4416 
L 211 4345 
L 211 4179 
C 589 4179 646 4141 646 3843 
L 646 443 
C 646 198 621 166 211 166 
L 211 0 
C 365 12 646 12 813 12 
C 979 12 1267 12 1421 0 
L 1421 166 
C 1011 166 986 192 986 443 
L 986 1678 
C 986 2269 1344 2713 1792 2713 
C 2266 2713 2317 2289 2317 1980 
L 2317 443 
C 2317 198 2291 166 1882 166 
L 1882 0 
C 2035 12 2317 12 2483 12 
C 2650 12 2938 12 3091 0 
L 3091 166 
C 2682 166 2656 192 2656 443 
L 2656 1954 
z
" transform="scale(0.015625)"/>
       <path id="CMR17-49" d="M 1261 3898 
C 1261 4185 1338 4185 1798 4185 
L 1798 4352 
C 1594 4339 1267 4339 1050 4339 
C 832 4339 506 4339 301 4352 
L 301 4185 
C 762 4185 838 4185 838 3898 
L 838 453 
C 838 166 762 166 301 166 
L 301 0 
C 506 12 832 12 1050 12 
C 1267 12 1594 12 1798 0 
L 1798 166 
C 1338 166 1261 166 1261 453 
L 1261 3898 
z
" transform="scale(0.015625)"/>
       <path id="CMR17-63" d="M 2234 2240 
C 2112 2240 1933 2240 1933 2015 
C 1933 1836 2080 1785 2163 1785 
C 2208 1785 2394 1804 2394 2028 
C 2394 2476 1958 2816 1466 2816 
C 787 2816 211 2201 211 1379 
C 211 521 813 -64 1466 -64 
C 2259 -64 2458 676 2458 747 
C 2458 773 2451 792 2406 792 
C 2362 792 2355 786 2330 702 
C 2163 180 1798 51 1523 51 
C 1114 51 621 431 621 1385 
C 621 2358 1094 2700 1472 2700 
C 1722 2700 2093 2582 2234 2240 
z
" transform="scale(0.015625)"/>
       <path id="CMR17-6f" d="M 2758 1356 
C 2758 2176 2163 2816 1466 2816 
C 768 2816 173 2176 173 1356 
C 173 550 768 -64 1466 -64 
C 2163 -64 2758 550 2758 1356 
z
M 1466 51 
C 1165 51 909 230 762 480 
C 602 768 582 1126 582 1408 
C 582 1676 595 2009 762 2297 
C 890 2508 1139 2713 1466 2713 
C 1754 2713 1997 2553 2150 2329 
C 2349 2028 2349 1606 2349 1408 
C 2349 1158 2336 774 2163 467 
C 1984 172 1709 51 1466 51 
z
" transform="scale(0.015625)"/>
      </defs>
      <use xlink:href="#CMR17-41" transform="scale(0.996264)"/>
      <use xlink:href="#CMR17-6d" transform="translate(69.07243 0)scale(0.996264)"/>
      <use xlink:href="#CMR17-70" transform="translate(145.99202 0)scale(0.996264)"/>
      <use xlink:href="#CMR17-6c" transform="translate(196.887389 0)scale(0.996264)"/>
      <use xlink:href="#CMR17-69" transform="translate(221.758448 0)scale(0.996264)"/>
      <use xlink:href="#CMR17-74" transform="translate(246.629506 0)scale(0.996264)"/>
      <use xlink:href="#CMR17-75" transform="translate(281.910274 0)scale(0.996264)"/>
      <use xlink:href="#CMR17-64" transform="translate(332.805644 0)scale(0.996264)"/>
      <use xlink:href="#CMR17-65" transform="translate(383.701014 0)scale(0.996264)"/>
      <use xlink:href="#CMR17-2f" transform="translate(424.186674 0)scale(0.996264)"/>
      <use xlink:href="#CMR17-53" transform="translate(469.877151 0)scale(0.996264)"/>
      <use xlink:href="#CMR17-68" transform="translate(520.772521 0)scale(0.996264)"/>
      <use xlink:href="#CMR17-61" transform="translate(571.667891 0)scale(0.996264)"/>
      <use xlink:href="#CMR17-70" transform="translate(617.358368 0)scale(0.996264)"/>
      <use xlink:href="#CMR17-65" transform="translate(670.856177 0)scale(0.996264)"/>
      <use xlink:href="#CMR17-49" transform="translate(741.417803 0)scale(0.996264)"/>
      <use xlink:href="#CMR17-6e" transform="translate(774.056213 0)scale(0.996264)"/>
      <use xlink:href="#CMR17-64" transform="translate(824.951582 0)scale(0.996264)"/>
      <use xlink:href="#CMR17-69" transform="translate(875.846952 0)scale(0.996264)"/>
      <use xlink:href="#CMR17-63" transform="translate(900.718011 0)scale(0.996264)"/>
      <use xlink:href="#CMR17-61" transform="translate(941.203671 0)scale(0.996264)"/>
      <use xlink:href="#CMR17-74" transform="translate(986.894148 0)scale(0.996264)"/>
      <use xlink:href="#CMR17-6f" transform="translate(1022.174916 0)scale(0.996264)"/>
      <use xlink:href="#CMR17-72" transform="translate(1067.865393 0)scale(0.996264)"/>
     </g>
    </g>
   </g>
   <g id="line2d_12">
    <path d="M 140.814205 315.725936 
L 747.163636 315.725936 
L 747.163636 315.725936 
" clip-path="url(#p7143d67410)" style="fill: none; stroke-dasharray: 11.1,4.8; stroke-dashoffset: 0; stroke: #4e79a7; stroke-width: 3"/>
   </g>
   <g id="line2d_13">
    <path d="M 140.814205 301.861717 
L 143.192045 286.243991 
L 145.569886 293.222044 
L 147.947727 294.678821 
L 150.325568 295.046141 
L 152.703409 293.106652 
L 155.08125 295.450794 
L 157.459091 298.23406 
L 159.836932 298.845864 
L 162.214773 299.13995 
L 164.592614 298.447048 
L 166.970455 299.088952 
L 171.726136 299.124599 
L 174.103977 298.784587 
L 176.481818 298.80924 
L 178.859659 298.614975 
L 181.2375 298.545897 
L 183.615341 299.136861 
L 188.371023 298.347105 
L 190.748864 299.061976 
L 193.126705 299.166645 
L 195.504545 298.766864 
L 197.882386 298.60305 
L 200.260227 299.596402 
L 202.638068 297.942617 
L 205.015909 294.794292 
L 207.39375 297.200688 
L 209.771591 297.352259 
L 212.149432 298.822443 
L 214.527273 299.733057 
L 216.905114 298.358733 
L 219.282955 298.167954 
L 221.660795 298.207241 
L 224.038636 298.114 
L 228.794318 298.165188 
L 233.55 298.163501 
L 235.927841 298.320121 
L 245.439205 297.829046 
L 247.817045 298.245049 
L 252.572727 298.221675 
L 254.950568 298.090579 
L 257.328409 297.80342 
L 259.70625 297.98169 
L 264.461932 300.393228 
L 266.839773 298.987824 
L 269.217614 300.348781 
L 271.595455 300.552403 
L 273.973295 301.23761 
L 276.351136 301.275396 
L 278.728977 300.26425 
L 281.106818 300.190407 
L 283.484659 299.086063 
L 288.240341 299.357108 
L 290.618182 298.672643 
L 295.373864 298.852339 
L 297.751705 299.071897 
L 302.507386 298.831846 
L 304.885227 299.757924 
L 307.263068 299.840061 
L 309.640909 300.047978 
L 312.01875 299.401277 
L 314.396591 299.507596 
L 316.774432 299.029406 
L 319.152273 299.493179 
L 321.530114 299.110095 
L 323.907955 297.306646 
L 326.285795 298.607193 
L 328.663636 298.028397 
L 333.419318 298.377586 
L 335.797159 297.947516 
L 338.175 298.39921 
L 340.552841 297.903747 
L 342.930682 298.139575 
L 345.308523 298.659166 
L 347.686364 298.03817 
L 350.064205 297.065856 
L 352.442045 297.449441 
L 354.819886 297.664001 
L 357.197727 298.037503 
L 359.575568 297.775322 
L 361.953409 297.798067 
L 364.33125 298.228979 
L 366.709091 298.543013 
L 369.086932 301.20793 
L 371.464773 303.210149 
L 373.842614 306.438655 
L 376.220455 304.501497 
L 378.598295 301.955267 
L 380.976136 297.759357 
L 383.353977 291.497462 
L 385.731818 295.980785 
L 388.109659 299.727531 
L 390.4875 301.184923 
L 392.865341 304.642232 
L 395.243182 306.18398 
L 397.621023 305.848702 
L 402.376705 306.235291 
L 404.754545 305.792275 
L 407.132386 305.46598 
L 409.510227 305.700301 
L 411.888068 305.445478 
L 414.265909 305.307164 
L 416.64375 305.621853 
L 419.021591 305.2186 
L 421.399432 305.230887 
L 423.777273 305.109207 
L 426.155114 305.524642 
L 428.532955 304.864121 
L 430.910795 305.613174 
L 433.288636 305.265188 
L 435.666477 305.603648 
L 438.044318 305.665567 
L 440.422159 305.511001 
L 442.8 305.609484 
L 447.555682 304.846989 
L 449.933523 305.408548 
L 452.311364 305.833072 
L 454.689205 305.253462 
L 457.067045 305.666697 
L 461.822727 304.272911 
L 464.200568 305.430068 
L 466.578409 306.073232 
L 468.95625 305.645753 
L 471.334091 305.400356 
L 473.711932 304.457355 
L 476.089773 302.046014 
L 480.845455 304.258894 
L 483.223295 301.877392 
L 485.601136 296.993138 
L 487.978977 298.074727 
L 490.356818 298.324531 
L 492.734659 297.890948 
L 497.490341 298.202029 
L 499.868182 297.400883 
L 502.246023 297.806705 
L 504.623864 301.873519 
L 507.001705 302.741049 
L 509.379545 302.567974 
L 511.757386 301.606794 
L 514.135227 302.867989 
L 518.890909 303.477807 
L 521.26875 302.286116 
L 523.646591 301.846801 
L 526.024432 301.756076 
L 528.402273 302.069784 
L 530.780114 301.645901 
L 535.535795 302.023854 
L 537.913636 302.619201 
L 540.291477 301.768774 
L 542.669318 301.991 
L 545.047159 301.945769 
L 547.425 302.906589 
L 549.802841 301.42722 
L 552.180682 302.986869 
L 554.558523 302.926046 
L 556.936364 302.529205 
L 561.692045 302.505967 
L 566.447727 301.685014 
L 571.203409 302.485207 
L 573.58125 302.346155 
L 575.959091 301.998558 
L 578.336932 302.465646 
L 580.714773 302.01759 
L 583.092614 302.28331 
L 585.470455 301.903084 
L 587.848295 302.737156 
L 590.226136 301.824287 
L 592.603977 299.291251 
L 594.981818 298.74492 
L 597.359659 298.817856 
L 599.7375 299.665547 
L 602.115341 297.064004 
L 604.493182 297.722304 
L 606.871023 298.119245 
L 609.248864 298.149322 
L 611.626705 298.409498 
L 614.004545 298.119509 
L 616.382386 298.123353 
L 618.760227 298.247764 
L 625.89375 298.04991 
L 628.271591 298.226883 
L 630.649432 298.080388 
L 633.027273 298.268683 
L 635.405114 298.162177 
L 640.160795 298.191714 
L 642.538636 297.959559 
L 644.916477 298.314738 
L 647.294318 298.267922 
L 649.672159 297.991778 
L 654.427841 298.298455 
L 656.805682 298.123204 
L 661.561364 298.265676 
L 663.939205 298.075809 
L 666.317045 298.222085 
L 671.072727 298.123897 
L 675.828409 298.338299 
L 678.20625 298.002363 
L 680.584091 298.223218 
L 690.095455 298.055043 
L 692.473295 298.259267 
L 694.851136 298.027594 
L 697.228977 297.985716 
L 699.606818 298.27967 
L 701.984659 298.238792 
L 704.3625 298.038825 
L 706.740341 298.232186 
L 709.118182 298.054185 
L 711.496023 298.225584 
L 713.873864 298.101432 
L 716.251705 298.135062 
L 718.629545 298.378132 
L 721.007386 298.127116 
L 723.385227 298.597811 
L 725.763068 298.14466 
L 728.140909 298.292209 
L 730.51875 298.061531 
L 732.896591 298.21432 
L 740.030114 298.020207 
L 744.785795 298.62826 
L 747.163636 296.386135 
L 747.163636 296.386135 
" clip-path="url(#p7143d67410)" style="fill: none; stroke: #4e79a7; stroke-width: 3; stroke-linecap: round"/>
   </g>
   <g id="line2d_14">
    <path d="M 140.814205 315.725936 
L 383.353977 315.725936 
L 385.731818 116.822898 
L 478.467614 116.822898 
L 480.845455 315.725936 
L 747.163636 315.725936 
L 747.163636 315.725936 
" clip-path="url(#p7143d67410)" style="fill: none; stroke-dasharray: 11.1,4.8; stroke-dashoffset: 0; stroke: #f28e2b; stroke-width: 3"/>
   </g>
   <g id="line2d_15">
    <path d="M 140.814205 304.12538 
L 143.192045 301.694962 
L 145.569886 301.471543 
L 147.947727 304.209004 
L 150.325568 304.161537 
L 152.703409 305.149595 
L 155.08125 307.48584 
L 157.459091 306.938142 
L 159.836932 307.112678 
L 162.214773 307.590886 
L 164.592614 307.341941 
L 166.970455 306.190892 
L 169.348295 307.04208 
L 171.726136 307.576816 
L 174.103977 306.985115 
L 176.481818 307.438387 
L 178.859659 307.062241 
L 181.2375 306.495003 
L 183.615341 306.977915 
L 185.993182 306.980025 
L 188.371023 306.18308 
L 190.748864 307.643662 
L 193.126705 307.400425 
L 195.504545 306.869526 
L 197.882386 306.606671 
L 200.260227 308.008661 
L 202.638068 306.605882 
L 205.015909 304.71567 
L 207.39375 304.956664 
L 209.771591 305.522176 
L 212.149432 307.483372 
L 214.527273 308.333764 
L 224.038636 308.112045 
L 228.794318 308.215926 
L 235.927841 308.260816 
L 238.305682 308.064105 
L 240.683523 308.214772 
L 247.817045 308.276078 
L 250.194886 308.201753 
L 254.950568 307.844622 
L 257.328409 307.975747 
L 259.70625 308.560721 
L 262.084091 308.849692 
L 264.461932 309.292531 
L 266.839773 306.123528 
L 269.217614 300.040666 
L 271.595455 301.93676 
L 273.973295 305.686703 
L 276.351136 306.041092 
L 278.728977 306.826855 
L 281.106818 307.870338 
L 283.484659 307.344055 
L 288.240341 306.812161 
L 290.618182 306.692084 
L 292.996023 307.101664 
L 295.373864 307.169213 
L 297.751705 307.039136 
L 300.129545 307.166765 
L 302.507386 307.772058 
L 307.263068 307.054261 
L 309.640909 307.509783 
L 312.01875 308.514974 
L 314.396591 307.643799 
L 316.774432 307.707756 
L 319.152273 307.647239 
L 321.530114 305.984578 
L 323.907955 304.163745 
L 326.285795 304.818595 
L 328.663636 305.235947 
L 331.041477 306.52689 
L 333.419318 305.902811 
L 335.797159 305.914661 
L 338.175 306.130076 
L 340.552841 305.284335 
L 342.930682 305.654918 
L 345.308523 306.826082 
L 347.686364 305.779697 
L 350.064205 305.535136 
L 352.442045 305.957387 
L 354.819886 305.531867 
L 357.197727 305.275799 
L 359.575568 305.841805 
L 361.953409 305.780412 
L 366.709091 308.402734 
L 369.086932 307.113279 
L 371.464773 298.663024 
L 373.842614 304.578599 
L 376.220455 306.250476 
L 378.598295 306.5337 
L 380.976136 305.621792 
L 383.353977 301.581457 
L 385.731818 284.325734 
L 388.109659 220.568244 
L 390.4875 177.397107 
L 392.865341 171.259956 
L 395.243182 169.433293 
L 397.621023 169.809934 
L 399.998864 169.89397 
L 407.132386 172.285737 
L 409.510227 171.147822 
L 411.888068 170.852659 
L 416.64375 171.97854 
L 419.021591 171.48036 
L 421.399432 171.4771 
L 423.777273 172.233652 
L 426.155114 171.550772 
L 428.532955 172.294639 
L 430.910795 171.012442 
L 433.288636 171.399565 
L 435.666477 171.006909 
L 438.044318 171.601554 
L 440.422159 171.227995 
L 442.8 171.907871 
L 445.177841 172.376886 
L 447.555682 171.405295 
L 449.933523 171.152426 
L 452.311364 171.792378 
L 454.689205 171.918334 
L 457.067045 171.421092 
L 459.444886 171.9851 
L 461.822727 171.707552 
L 464.200568 170.923041 
L 466.578409 171.655585 
L 468.95625 171.080275 
L 471.334091 171.17997 
L 473.711932 172.143362 
L 476.089773 176.519668 
L 478.467614 202.420517 
L 480.845455 263.478643 
L 483.223295 300.813203 
L 485.601136 307.724761 
L 487.978977 308.30155 
L 490.356818 308.352317 
L 492.734659 308.005894 
L 495.1125 308.37812 
L 497.490341 308.635529 
L 499.868182 308.35686 
L 502.246023 309.229151 
L 504.623864 309.694749 
L 507.001705 306.818944 
L 509.379545 296.332491 
L 511.757386 292.060065 
L 514.135227 296.753372 
L 516.513068 302.350572 
L 518.890909 304.885126 
L 521.26875 305.087713 
L 523.646591 305.896971 
L 526.024432 305.922496 
L 528.402273 306.386192 
L 530.780114 306.557497 
L 533.157955 307.088104 
L 535.535795 306.698202 
L 537.913636 306.91689 
L 542.669318 306.51386 
L 545.047159 305.840879 
L 547.425 306.774902 
L 552.180682 307.740463 
L 556.936364 307.181051 
L 559.314205 307.301988 
L 566.447727 305.916294 
L 568.825568 305.894705 
L 571.203409 306.078651 
L 573.58125 306.641416 
L 575.959091 306.979489 
L 578.336932 307.562202 
L 580.714773 306.919365 
L 583.092614 307.448319 
L 587.848295 307.143097 
L 590.226136 306.221188 
L 592.603977 302.915835 
L 594.981818 299.257619 
L 597.359659 302.069147 
L 599.7375 305.931384 
L 602.115341 308.656496 
L 609.248864 308.337481 
L 611.626705 308.373675 
L 614.004545 307.950379 
L 616.382386 307.899449 
L 618.760227 308.011704 
L 625.89375 307.88815 
L 628.271591 308.135108 
L 630.649432 308.144916 
L 633.027273 308.311128 
L 637.782955 308.16785 
L 642.538636 308.046593 
L 644.916477 308.413618 
L 647.294318 308.292069 
L 649.672159 308.056114 
L 652.05 308.294584 
L 654.427841 308.373247 
L 656.805682 308.162023 
L 661.561364 308.095735 
L 663.939205 307.912424 
L 666.317045 308.047166 
L 671.072727 308.110607 
L 673.450568 308.236959 
L 675.828409 308.217494 
L 678.20625 307.909397 
L 680.584091 308.121822 
L 694.851136 308.258596 
L 697.228977 308.397248 
L 699.606818 308.422612 
L 704.3625 308.00901 
L 706.740341 308.187928 
L 709.118182 308.158949 
L 711.496023 308.353124 
L 713.873864 308.321688 
L 716.251705 308.412925 
L 718.629545 308.616591 
L 721.007386 308.32532 
L 723.385227 308.618408 
L 725.763068 308.433896 
L 728.140909 308.374097 
L 730.51875 308.124105 
L 732.896591 308.225968 
L 740.030114 308.185787 
L 742.407955 308.438598 
L 744.785795 308.28378 
L 747.163636 307.805093 
L 747.163636 307.805093 
" clip-path="url(#p7143d67410)" style="fill: none; stroke: #f28e2b; stroke-width: 3; stroke-linecap: round"/>
   </g>
   <g id="line2d_16">
    <path d="M 140.814205 315.725936 
L 262.084091 315.725936 
L 264.461932 116.822898 
L 371.464773 116.822898 
L 373.842614 315.725936 
L 747.163636 315.725936 
L 747.163636 315.725936 
" clip-path="url(#p7143d67410)" style="fill: none; stroke-dasharray: 11.1,4.8; stroke-dashoffset: 0; stroke: #e15759; stroke-width: 3"/>
   </g>
   <g id="line2d_17">
    <path d="M 140.814205 302.101517 
L 143.192045 298.143019 
L 145.569886 296.887875 
L 147.947727 294.474318 
L 150.325568 295.546333 
L 152.703409 296.220497 
L 155.08125 297.642887 
L 157.459091 297.755338 
L 159.836932 298.835746 
L 162.214773 299.051217 
L 164.592614 298.41759 
L 166.970455 298.12148 
L 169.348295 297.961326 
L 171.726136 298.948839 
L 174.103977 298.360332 
L 176.481818 298.245183 
L 181.2375 297.410502 
L 185.993182 298.242613 
L 188.371023 296.815996 
L 190.748864 297.485342 
L 195.504545 298.261201 
L 197.882386 296.840634 
L 200.260227 299.322231 
L 202.638068 298.046836 
L 205.015909 297.171645 
L 207.39375 301.549883 
L 209.771591 304.274847 
L 212.149432 304.214474 
L 216.905114 303.217508 
L 219.282955 303.038413 
L 226.416477 303.000354 
L 235.927841 303.134006 
L 238.305682 302.862237 
L 243.061364 303.121163 
L 245.439205 303.025225 
L 247.817045 303.123835 
L 250.194886 303.10987 
L 254.950568 302.496124 
L 257.328409 302.466915 
L 259.70625 303.14157 
L 262.084091 303.995096 
L 264.461932 302.27013 
L 266.839773 274.936558 
L 269.217614 208.03226 
L 271.595455 185.016794 
L 273.973295 174.462267 
L 276.351136 173.481942 
L 278.728977 172.290983 
L 281.106818 170.248668 
L 283.484659 171.339003 
L 285.8625 171.376614 
L 288.240341 171.610297 
L 290.618182 172.721972 
L 292.996023 172.427016 
L 295.373864 172.453078 
L 297.751705 172.919949 
L 300.129545 172.657932 
L 302.507386 171.388282 
L 304.885227 171.327483 
L 307.263068 170.72285 
L 309.640909 171.21777 
L 312.01875 169.627655 
L 314.396591 171.649045 
L 316.774432 171.074575 
L 319.152273 171.732725 
L 321.530114 172.953491 
L 323.907955 176.079393 
L 326.285795 174.916137 
L 328.663636 174.520013 
L 331.041477 172.750188 
L 333.419318 173.848328 
L 335.797159 173.332256 
L 338.175 173.188883 
L 340.552841 173.19399 
L 342.930682 173.756082 
L 345.308523 172.095564 
L 347.686364 173.618547 
L 350.064205 173.500595 
L 352.442045 173.826296 
L 354.819886 173.895681 
L 357.197727 175.4469 
L 359.575568 174.905595 
L 361.953409 175.12765 
L 364.33125 174.519796 
L 366.709091 172.418341 
L 369.086932 177.291721 
L 371.464773 200.999225 
L 373.842614 294.361596 
L 376.220455 305.432802 
L 378.598295 304.936013 
L 380.976136 303.766379 
L 383.353977 303.383606 
L 385.731818 303.600356 
L 388.109659 297.424885 
L 390.4875 289.835485 
L 392.865341 292.310143 
L 395.243182 292.722888 
L 397.621023 292.598558 
L 399.998864 292.221557 
L 402.376705 292.093675 
L 404.754545 291.63084 
L 407.132386 290.386521 
L 409.510227 289.840808 
L 411.888068 291.773605 
L 414.265909 290.922918 
L 416.64375 290.989287 
L 419.021591 290.572048 
L 421.399432 290.866204 
L 423.777273 290.41699 
L 426.155114 290.922545 
L 428.532955 290.175868 
L 430.910795 290.981 
L 433.288636 291.287809 
L 435.666477 291.148781 
L 438.044318 291.303155 
L 440.422159 290.804325 
L 442.8 291.07644 
L 447.555682 290.78305 
L 449.933523 291.011118 
L 452.311364 291.115684 
L 454.689205 290.415881 
L 457.067045 290.909575 
L 459.444886 290.619374 
L 461.822727 290.095658 
L 464.200568 290.853086 
L 466.578409 291.356853 
L 468.95625 291.066671 
L 471.334091 291.603481 
L 473.711932 290.402279 
L 476.089773 288.077888 
L 478.467614 293.111046 
L 480.845455 303.767357 
L 483.223295 306.306643 
L 485.601136 303.959867 
L 487.978977 303.517675 
L 490.356818 303.39409 
L 492.734659 302.749632 
L 495.1125 303.126201 
L 497.490341 303.634376 
L 499.868182 303.140813 
L 502.246023 304.223914 
L 504.623864 306.12537 
L 507.001705 305.417371 
L 509.379545 300.133019 
L 511.757386 292.715301 
L 514.135227 293.928862 
L 516.513068 296.13662 
L 518.890909 297.736034 
L 521.26875 297.261239 
L 523.646591 297.80961 
L 526.024432 297.75695 
L 528.402273 298.349053 
L 530.780114 298.241422 
L 533.157955 298.876859 
L 535.535795 298.559935 
L 537.913636 299.097813 
L 540.291477 298.481301 
L 542.669318 298.576589 
L 545.047159 297.914013 
L 547.425 299.203056 
L 549.802841 299.029389 
L 552.180682 300.090618 
L 554.558523 299.777293 
L 556.936364 299.264321 
L 559.314205 299.342301 
L 564.069886 298.439322 
L 566.447727 297.98424 
L 571.203409 298.320105 
L 573.58125 298.711051 
L 575.959091 298.861428 
L 578.336932 299.712076 
L 580.714773 298.797596 
L 583.092614 299.500252 
L 585.470455 299.202981 
L 587.848295 299.531319 
L 590.226136 298.064431 
L 592.603977 294.796737 
L 594.981818 293.582336 
L 597.359659 297.449026 
L 599.7375 303.209075 
L 602.115341 304.420189 
L 606.871023 303.251671 
L 609.248864 303.228718 
L 611.626705 303.389321 
L 614.004545 302.794263 
L 616.382386 302.552321 
L 618.760227 302.72297 
L 625.89375 302.498647 
L 628.271591 302.85388 
L 630.649432 302.90782 
L 633.027273 303.180261 
L 642.538636 302.721144 
L 644.916477 303.279775 
L 647.294318 303.273453 
L 649.672159 302.825063 
L 654.427841 303.329725 
L 656.805682 303.040651 
L 661.561364 302.936846 
L 663.939205 302.613387 
L 666.317045 302.755864 
L 671.072727 302.840281 
L 673.450568 303.056851 
L 675.828409 303.1395 
L 678.20625 302.630201 
L 680.584091 302.840078 
L 682.961932 302.936271 
L 690.095455 302.778266 
L 694.851136 303.113345 
L 699.606818 303.425431 
L 701.984659 303.168846 
L 704.3625 302.756473 
L 706.740341 302.962987 
L 709.118182 302.933824 
L 711.496023 303.216609 
L 716.251705 303.227928 
L 718.629545 303.615283 
L 721.007386 303.473795 
L 723.385227 303.818625 
L 725.763068 303.471345 
L 728.140909 303.376827 
L 730.51875 302.969144 
L 735.274432 303.033068 
L 740.030114 302.957206 
L 742.407955 303.362083 
L 744.785795 303.10368 
L 747.163636 302.124097 
L 747.163636 302.124097 
" clip-path="url(#p7143d67410)" style="fill: none; stroke: #e15759; stroke-width: 3; stroke-linecap: round"/>
   </g>
   <g id="line2d_18">
    <path d="M 140.814205 315.725936 
L 747.163636 315.725936 
L 747.163636 315.725936 
" clip-path="url(#p7143d67410)" style="fill: none; stroke-dasharray: 11.1,4.8; stroke-dashoffset: 0; stroke: #76b7b2; stroke-width: 3"/>
   </g>
   <g id="line2d_19">
    <path d="M 140.814205 310.802751 
L 143.192045 298.252468 
L 145.569886 303.326725 
L 147.947727 303.618128 
L 150.325568 303.390967 
L 152.703409 303.969118 
L 155.08125 306.290198 
L 157.459091 306.119754 
L 159.836932 306.272845 
L 162.214773 306.784634 
L 164.592614 306.322089 
L 169.348295 306.250376 
L 171.726136 306.628898 
L 174.103977 306.059615 
L 176.481818 306.488932 
L 178.859659 306.159951 
L 181.2375 305.654154 
L 183.615341 306.22884 
L 185.993182 306.166106 
L 188.371023 305.307316 
L 190.748864 306.652667 
L 193.126705 306.435467 
L 197.882386 305.673481 
L 200.260227 307.064438 
L 202.638068 305.822795 
L 205.015909 304.199955 
L 207.39375 304.514389 
L 209.771591 304.427974 
L 212.149432 306.223854 
L 214.527273 306.978162 
L 216.905114 306.638716 
L 221.660795 306.542155 
L 224.038636 306.476276 
L 228.794318 306.560281 
L 235.927841 306.590156 
L 238.305682 306.409513 
L 243.061364 306.571502 
L 245.439205 306.532664 
L 247.817045 306.615138 
L 250.194886 306.582423 
L 254.950568 306.280051 
L 257.328409 306.285193 
L 259.70625 306.686128 
L 262.084091 306.60507 
L 264.461932 307.02685 
L 266.839773 307.024126 
L 269.217614 303.852651 
L 271.595455 303.862761 
L 273.973295 304.764695 
L 276.351136 305.494325 
L 278.728977 304.242367 
L 281.106818 304.399206 
L 283.484659 303.592471 
L 285.8625 303.755496 
L 288.240341 303.737684 
L 290.618182 302.743314 
L 292.996023 303.041105 
L 295.373864 302.821917 
L 297.751705 302.996262 
L 300.129545 302.691612 
L 302.507386 303.073161 
L 304.885227 303.853082 
L 307.263068 304.289263 
L 309.640909 304.222113 
L 312.01875 303.25397 
L 314.396591 303.439535 
L 316.774432 303.144818 
L 319.152273 303.284991 
L 321.530114 303.214999 
L 323.907955 302.209098 
L 326.285795 303.444018 
L 328.663636 303.217685 
L 331.041477 302.679805 
L 333.419318 303.329013 
L 335.797159 303.016974 
L 340.552841 303.228615 
L 342.930682 303.036197 
L 345.308523 303.45903 
L 347.686364 303.290721 
L 350.064205 302.540433 
L 352.442045 302.313911 
L 354.819886 302.794964 
L 357.197727 302.629345 
L 359.575568 302.234285 
L 361.953409 302.32968 
L 364.33125 302.149716 
L 366.709091 301.406426 
L 369.086932 301.182094 
L 371.464773 304.175825 
L 373.842614 310.392758 
L 376.220455 310.432574 
L 378.598295 309.643192 
L 380.976136 308.206247 
L 383.353977 307.254711 
L 385.731818 307.697898 
L 388.109659 303.105423 
L 390.4875 297.426895 
L 392.865341 299.966442 
L 395.243182 300.954445 
L 397.621023 300.442681 
L 399.998864 300.865903 
L 402.376705 300.858401 
L 404.754545 300.229858 
L 407.132386 300.298694 
L 409.510227 301.418783 
L 411.888068 300.01268 
L 416.64375 300.229845 
L 419.021591 300.253142 
L 423.777273 299.877205 
L 426.155114 300.353055 
L 428.532955 299.720557 
L 430.910795 300.669242 
L 433.288636 299.866546 
L 435.666477 300.551002 
L 438.044318 300.246851 
L 440.422159 300.563131 
L 442.8 300.189004 
L 445.177841 299.58082 
L 447.555682 299.712122 
L 449.933523 300.341422 
L 452.311364 300.48892 
L 454.689205 300.193969 
L 457.067045 300.591375 
L 459.444886 299.738173 
L 461.822727 299.370444 
L 464.200568 300.577776 
L 466.578409 300.687935 
L 468.95625 300.620909 
L 473.711932 299.162205 
L 476.089773 295.942284 
L 478.467614 296.663612 
L 480.845455 302.179012 
L 483.223295 305.006638 
L 485.601136 305.958979 
L 487.978977 306.619711 
L 490.356818 306.711284 
L 492.734659 306.362787 
L 497.490341 306.866516 
L 499.868182 306.480172 
L 502.246023 307.16942 
L 504.623864 307.679872 
L 507.001705 307.650322 
L 509.379545 305.221593 
L 511.757386 305.645776 
L 514.135227 308.55857 
L 516.513068 308.185787 
L 521.26875 308.537723 
L 523.646591 308.48386 
L 535.535795 308.750452 
L 537.913636 308.691492 
L 540.291477 308.759674 
L 542.669318 308.170659 
L 545.047159 308.209589 
L 547.425 308.384752 
L 549.802841 308.365816 
L 552.180682 308.667621 
L 554.558523 308.841264 
L 561.692045 308.943677 
L 566.447727 307.919947 
L 568.825568 308.025543 
L 571.203409 308.413328 
L 573.58125 308.644904 
L 575.959091 308.674126 
L 578.336932 308.497732 
L 580.714773 308.730505 
L 585.470455 308.370536 
L 587.848295 308.143919 
L 590.226136 308.51874 
L 592.603977 305.894989 
L 594.981818 303.899716 
L 597.359659 306.695576 
L 599.7375 307.882191 
L 602.115341 306.801102 
L 611.626705 306.735169 
L 614.004545 306.384856 
L 616.382386 306.320718 
L 618.760227 306.423727 
L 625.89375 306.293339 
L 628.271591 306.499742 
L 630.649432 306.487911 
L 633.027273 306.64537 
L 642.538636 306.388913 
L 644.916477 306.718776 
L 647.294318 306.652342 
L 649.672159 306.416764 
L 654.427841 306.705504 
L 656.805682 306.526178 
L 661.561364 306.502384 
L 663.939205 306.328663 
L 666.317045 306.441241 
L 671.072727 306.467927 
L 675.828409 306.606586 
L 678.20625 306.317135 
L 680.584091 306.490546 
L 687.717614 306.48441 
L 690.095455 306.421288 
L 692.473295 306.555746 
L 697.228977 306.650539 
L 699.606818 306.742117 
L 704.3625 306.391338 
L 706.740341 306.54398 
L 709.118182 306.494375 
L 711.496023 306.663959 
L 716.251705 306.671279 
L 718.629545 306.874626 
L 721.007386 306.641943 
L 723.385227 306.941642 
L 725.763068 306.732326 
L 728.140909 306.712971 
L 730.51875 306.485416 
L 732.896591 306.572759 
L 740.030114 306.505072 
L 742.407955 306.743746 
L 744.785795 306.617661 
L 747.163636 305.890404 
L 747.163636 305.890404 
" clip-path="url(#p7143d67410)" style="fill: none; stroke: #76b7b2; stroke-width: 3; stroke-linecap: round"/>
   </g>
   <g id="line2d_20">
    <path d="M 140.814205 315.725936 
L 143.192045 116.822898 
L 212.149432 116.822898 
L 214.527273 315.725936 
L 747.163636 315.725936 
L 747.163636 315.725936 
" clip-path="url(#p7143d67410)" style="fill: none; stroke-dasharray: 11.1,4.8; stroke-dashoffset: 0; stroke: #59a14f; stroke-width: 3"/>
   </g>
   <g id="line2d_21">
    <path d="M 140.814205 300.110284 
L 143.192045 203.504301 
L 145.569886 191.689055 
L 147.947727 180.693452 
L 150.325568 176.515025 
L 152.703409 174.537589 
L 155.08125 171.906034 
L 157.459091 170.57185 
L 159.836932 170.016428 
L 162.214773 170.929917 
L 164.592614 170.822585 
L 166.970455 170.283849 
L 169.348295 169.454396 
L 171.726136 169.499674 
L 174.103977 169.149857 
L 176.481818 170.502307 
L 178.859659 170.503187 
L 181.2375 169.484914 
L 183.615341 169.613142 
L 185.993182 170.486885 
L 188.371023 169.078081 
L 190.748864 168.359823 
L 193.126705 168.589139 
L 195.504545 170.137354 
L 197.882386 169.004853 
L 200.260227 169.114418 
L 202.638068 172.674273 
L 205.015909 182.100577 
L 209.771591 274.614455 
L 212.149432 293.776809 
L 214.527273 300.889917 
L 216.905114 302.686112 
L 219.282955 302.822927 
L 226.416477 302.844567 
L 235.927841 302.80936 
L 238.305682 302.655791 
L 243.061364 302.72135 
L 245.439205 302.88594 
L 250.194886 302.769766 
L 252.572727 302.623829 
L 254.950568 302.600457 
L 257.328409 302.897909 
L 259.70625 303.796489 
L 262.084091 305.160289 
L 264.461932 305.678202 
L 266.839773 305.213493 
L 269.217614 303.767256 
L 271.595455 303.193274 
L 273.973295 305.213676 
L 276.351136 305.734014 
L 278.728977 304.998568 
L 281.106818 305.699528 
L 283.484659 305.853981 
L 288.240341 305.778528 
L 290.618182 305.101244 
L 297.751705 304.755212 
L 300.129545 304.946297 
L 302.507386 304.948076 
L 304.885227 305.649707 
L 307.263068 306.591979 
L 309.640909 305.758428 
L 312.01875 305.321172 
L 316.774432 305.608405 
L 319.152273 304.697 
L 321.530114 305.817088 
L 323.907955 304.847344 
L 326.285795 305.42895 
L 328.663636 304.347964 
L 333.419318 305.246469 
L 335.797159 305.034703 
L 338.175 304.626336 
L 340.552841 305.618212 
L 342.930682 304.958243 
L 345.308523 305.103349 
L 347.686364 304.951317 
L 350.064205 304.979861 
L 352.442045 304.602263 
L 354.819886 305.430064 
L 357.197727 304.476523 
L 361.953409 304.475452 
L 364.33125 303.688161 
L 366.709091 303.806578 
L 369.086932 302.204708 
L 371.464773 305.04699 
L 373.842614 307.25457 
L 376.220455 305.759513 
L 378.598295 305.584562 
L 380.976136 305.01099 
L 383.353977 304.614588 
L 385.731818 306.279528 
L 388.109659 302.378057 
L 390.4875 303.529323 
L 392.865341 306.658531 
L 395.243182 307.389586 
L 397.621023 307.191993 
L 402.376705 307.024928 
L 404.754545 306.611914 
L 407.132386 305.99251 
L 409.510227 306.089403 
L 411.888068 306.651581 
L 414.265909 306.253801 
L 416.64375 306.281673 
L 419.021591 306.104465 
L 421.399432 306.20098 
L 423.777273 305.895661 
L 426.155114 306.299138 
L 428.532955 305.730628 
L 430.910795 306.433562 
L 433.288636 306.356341 
L 435.666477 306.483014 
L 438.044318 306.453802 
L 440.422159 306.311182 
L 442.8 306.316254 
L 445.177841 306.058893 
L 447.555682 306.067875 
L 449.933523 306.355368 
L 452.311364 306.418909 
L 454.689205 305.993624 
L 457.067045 306.361643 
L 461.822727 305.621072 
L 464.200568 306.35129 
L 466.578409 306.592712 
L 468.95625 306.459055 
L 471.334091 306.53209 
L 473.711932 305.702048 
L 476.089773 303.399751 
L 478.467614 306.39004 
L 480.845455 306.769186 
L 483.223295 303.898898 
L 485.601136 301.306066 
L 487.978977 302.648532 
L 490.356818 302.843841 
L 492.734659 302.798873 
L 495.1125 303.073105 
L 497.490341 303.190401 
L 499.868182 303.132744 
L 502.246023 303.728309 
L 504.623864 305.615126 
L 507.001705 304.89168 
L 509.379545 302.159043 
L 511.757386 301.402139 
L 514.135227 302.673605 
L 518.890909 304.356335 
L 521.26875 303.754764 
L 523.646591 303.952827 
L 526.024432 303.893929 
L 528.402273 304.350425 
L 530.780114 304.188865 
L 533.157955 304.618309 
L 535.535795 304.46996 
L 537.913636 304.97594 
L 540.291477 304.373894 
L 542.669318 304.441877 
L 545.047159 304.037229 
L 547.425 305.101966 
L 549.802841 304.592521 
L 552.180682 305.660843 
L 554.558523 305.477407 
L 556.936364 305.068885 
L 559.314205 305.097641 
L 564.069886 304.401037 
L 566.447727 304.0075 
L 573.58125 304.659583 
L 575.959091 304.646877 
L 578.336932 305.270424 
L 580.714773 304.623171 
L 583.092614 305.115385 
L 585.470455 304.80612 
L 587.848295 305.214357 
L 590.226136 304.078472 
L 592.603977 301.12803 
L 594.981818 300.770626 
L 597.359659 305.290668 
L 599.7375 305.888556 
L 602.115341 303.745758 
L 604.493182 303.013561 
L 616.382386 302.638041 
L 621.138068 302.625993 
L 625.89375 302.673066 
L 630.649432 302.847868 
L 633.027273 302.892558 
L 640.160795 302.739784 
L 644.916477 302.975663 
L 649.672159 302.796543 
L 652.05 302.943372 
L 661.561364 302.6958 
L 666.317045 302.716996 
L 675.828409 302.752721 
L 678.20625 302.671575 
L 680.584091 302.78452 
L 692.473295 302.833805 
L 694.851136 302.9338 
L 699.606818 302.946285 
L 701.984659 302.778233 
L 704.3625 302.740863 
L 713.873864 302.962344 
L 716.251705 303.267256 
L 718.629545 303.14596 
L 721.007386 302.292293 
L 723.385227 302.748684 
L 725.763068 302.998299 
L 730.51875 302.804685 
L 742.407955 302.98079 
L 744.785795 303.330643 
L 747.163636 302.619266 
L 747.163636 302.619266 
" clip-path="url(#p7143d67410)" style="fill: none; stroke: #59a14f; stroke-width: 3; stroke-linecap: round"/>
   </g>
   <g id="line2d_22">
    <path d="M 140.814205 315.725936 
L 504.623864 315.725936 
L 507.001705 116.822898 
L 599.7375 116.822898 
L 602.115341 315.725936 
L 747.163636 315.725936 
L 747.163636 315.725936 
" clip-path="url(#p7143d67410)" style="fill: none; stroke-dasharray: 11.1,4.8; stroke-dashoffset: 0; stroke: #edc948; stroke-width: 3"/>
   </g>
   <g id="line2d_23">
    <path d="M 140.814205 307.043266 
L 143.192045 300.588424 
L 145.569886 306.719884 
L 147.947727 306.094654 
L 152.703409 307.013954 
L 155.08125 307.297908 
L 157.459091 308.253392 
L 159.836932 309.087526 
L 162.214773 309.255763 
L 164.592614 308.772391 
L 166.970455 308.979864 
L 169.348295 309.002077 
L 171.726136 309.202192 
L 174.103977 308.933763 
L 176.481818 308.89601 
L 181.2375 308.621427 
L 183.615341 308.983956 
L 185.993182 308.896068 
L 188.371023 308.388023 
L 190.748864 308.519299 
L 193.126705 308.913825 
L 195.504545 308.926166 
L 197.882386 308.488911 
L 200.260227 309.47828 
L 202.638068 308.518349 
L 205.015909 306.944249 
L 209.771591 301.520669 
L 212.149432 302.332176 
L 214.527273 303.467396 
L 216.905114 303.680816 
L 221.660795 303.510735 
L 226.416477 303.50129 
L 231.172159 303.595289 
L 233.55 303.610401 
L 238.305682 303.257988 
L 240.683523 303.220883 
L 243.061364 303.518513 
L 250.194886 303.554861 
L 254.950568 303.166059 
L 257.328409 303.349712 
L 259.70625 303.823623 
L 262.084091 304.818064 
L 264.461932 306.184537 
L 266.839773 305.303263 
L 269.217614 298.556177 
L 271.595455 298.432933 
L 273.973295 298.838975 
L 276.351136 300.349134 
L 278.728977 299.553907 
L 281.106818 300.275514 
L 285.8625 300.028368 
L 288.240341 300.599593 
L 290.618182 299.688335 
L 292.996023 299.722747 
L 295.373864 300.131359 
L 300.129545 300.013315 
L 302.507386 299.98436 
L 304.885227 300.601684 
L 307.263068 300.559933 
L 312.01875 301.238248 
L 314.396591 301.386844 
L 316.774432 301.009638 
L 319.152273 300.841878 
L 321.530114 300.26966 
L 323.907955 297.982608 
L 326.285795 298.621498 
L 328.663636 298.277728 
L 331.041477 298.831728 
L 333.419318 299.129747 
L 335.797159 298.809874 
L 338.175 298.799086 
L 340.552841 299.229188 
L 342.930682 298.817015 
L 345.308523 299.404071 
L 350.064205 298.427609 
L 352.442045 298.67887 
L 354.819886 299.486351 
L 357.197727 299.094284 
L 359.575568 299.273223 
L 361.953409 299.112281 
L 364.33125 300.816823 
L 366.709091 302.117596 
L 369.086932 301.538474 
L 371.464773 300.787334 
L 373.842614 306.237369 
L 376.220455 303.284261 
L 378.598295 305.394989 
L 383.353977 308.009892 
L 385.731818 307.824423 
L 388.109659 302.150948 
L 390.4875 298.176949 
L 392.865341 300.943801 
L 395.243182 301.245532 
L 397.621023 301.262944 
L 399.998864 300.669163 
L 402.376705 299.838692 
L 404.754545 299.377155 
L 407.132386 297.978437 
L 409.510227 297.841636 
L 411.888068 300.284464 
L 414.265909 299.255722 
L 416.64375 298.61843 
L 421.399432 299.241969 
L 423.777273 298.460157 
L 426.155114 298.923373 
L 428.532955 298.449645 
L 430.910795 299.210889 
L 433.288636 299.67509 
L 438.044318 299.12264 
L 440.422159 299.015408 
L 442.8 298.767227 
L 445.177841 298.789562 
L 447.555682 299.614285 
L 449.933523 299.387153 
L 452.311364 298.613057 
L 454.689205 298.486806 
L 457.067045 298.824138 
L 459.444886 298.930931 
L 461.822727 299.34935 
L 464.200568 299.343484 
L 466.578409 298.659511 
L 468.95625 299.219207 
L 471.334091 299.973411 
L 473.711932 299.206834 
L 476.089773 296.716392 
L 478.467614 294.70952 
L 480.845455 301.657879 
L 483.223295 304.672394 
L 485.601136 303.970544 
L 487.978977 304.101223 
L 490.356818 303.783751 
L 492.734659 303.613755 
L 495.1125 303.641385 
L 497.490341 304.042313 
L 499.868182 304.130365 
L 502.246023 304.747611 
L 504.623864 303.284083 
L 507.001705 291.090242 
L 509.379545 249.548496 
L 511.757386 194.522333 
L 514.135227 185.756699 
L 516.513068 180.643294 
L 518.890909 177.660033 
L 521.26875 176.721628 
L 523.646591 176.145922 
L 526.024432 176.043836 
L 528.402273 175.611405 
L 530.780114 174.969319 
L 533.157955 174.683867 
L 535.535795 175.115201 
L 537.913636 174.900398 
L 540.291477 174.863024 
L 542.669318 176.149677 
L 545.047159 176.561884 
L 547.425 175.53879 
L 549.802841 174.978932 
L 552.180682 174.29949 
L 554.558523 174.139282 
L 556.936364 174.306564 
L 559.314205 174.245636 
L 561.692045 174.725875 
L 566.447727 176.757056 
L 568.825568 176.703874 
L 571.203409 176.120808 
L 573.58125 175.232848 
L 575.959091 174.945143 
L 578.336932 174.82231 
L 580.714773 174.848876 
L 583.092614 174.598211 
L 587.848295 175.80305 
L 590.226136 176.05251 
L 592.603977 182.41959 
L 594.981818 200.340254 
L 597.359659 253.053766 
L 599.7375 294.862565 
L 602.115341 303.912972 
L 604.493182 304.418046 
L 606.871023 303.832454 
L 611.626705 303.669642 
L 616.382386 303.167482 
L 628.271591 303.298348 
L 630.649432 303.526308 
L 635.405114 303.628418 
L 640.160795 303.439054 
L 644.916477 303.590829 
L 647.294318 303.720817 
L 649.672159 303.572267 
L 652.05 303.55425 
L 654.427841 303.70747 
L 656.805682 303.64933 
L 661.561364 303.398372 
L 666.317045 303.231579 
L 673.450568 303.523591 
L 678.20625 303.399896 
L 680.584091 303.292934 
L 682.961932 303.446581 
L 692.473295 303.389477 
L 694.851136 303.831427 
L 697.228977 303.746078 
L 699.606818 303.824873 
L 706.740341 303.405293 
L 711.496023 303.64404 
L 713.873864 303.792905 
L 721.007386 303.879801 
L 723.385227 304.045954 
L 725.763068 304.023025 
L 730.51875 303.644939 
L 732.896591 303.511153 
L 742.407955 303.693786 
L 744.785795 303.343029 
L 747.163636 303.923132 
L 747.163636 303.923132 
" clip-path="url(#p7143d67410)" style="fill: none; stroke: #edc948; stroke-width: 3; stroke-linecap: round"/>
   </g>
   <g id="line2d_24">
    <path d="M 138.436364 353.045457 
L 140.814205 122.874541 
L 143.192045 132.561718 
L 145.569886 211.044478 
L 147.947727 187.751031 
L 150.325568 146.075505 
L 152.703409 194.548287 
L 155.08125 222.465638 
L 157.459091 260.952576 
L 159.836932 280.601089 
L 162.214773 288.870732 
L 164.592614 396.426332 
L 166.970455 358.358059 
L 169.348295 349.098006 
L 171.726136 437.31471 
L 174.103977 445.320618 
L 176.481818 402.350177 
L 178.859659 463.988263 
L 181.2375 422.505531 
L 183.615341 446.69699 
L 185.993182 453.852361 
L 188.371023 484.232727 
L 190.748864 394.859096 
L 193.126705 397.121113 
L 195.504545 402.188347 
L 197.882386 441.580851 
L 200.260227 377.522352 
L 202.638068 416.439945 
L 205.015909 293.562268 
L 207.39375 322.929815 
L 209.771591 292.962716 
L 212.149432 269.255443 
L 214.527273 305.654216 
L 216.905114 330.558821 
L 219.282955 311.732295 
L 221.660795 300.541998 
L 224.038636 315.609374 
L 226.416477 311.280827 
L 228.794318 334.433932 
L 231.172159 347.888367 
L 233.55 314.23554 
L 235.927841 277.065473 
L 238.305682 292.328249 
L 240.683523 309.31126 
L 243.061364 314.648773 
L 245.439205 335.152433 
L 247.817045 331.249968 
L 250.194886 270.534763 
L 252.572727 266.886206 
L 254.950568 316.322379 
L 257.328409 294.465825 
L 259.70625 309.014961 
L 262.084091 310.921351 
L 264.461932 353.09579 
L 266.839773 307.234449 
L 269.217614 344.89541 
L 271.595455 264.981335 
L 273.973295 296.347335 
L 276.351136 329.612621 
L 278.728977 299.966017 
L 281.106818 278.146935 
L 283.484659 321.154684 
L 285.8625 227.222036 
L 288.240341 282.61002 
L 290.618182 277.185849 
L 292.996023 256.906889 
L 295.373864 250.266771 
L 297.751705 257.389437 
L 300.129545 267.811063 
L 302.507386 233.922075 
L 304.885227 253.883458 
L 307.263068 234.083566 
L 309.640909 188.134047 
L 312.01875 179.252817 
L 314.396591 208.308653 
L 316.774432 222.890952 
L 319.152273 132.910876 
L 321.530114 239.105171 
L 326.285795 176.253939 
L 328.663636 115.029617 
L 331.041477 127.878467 
L 333.419318 191.188214 
L 335.797159 205.574185 
L 338.175 153.823856 
L 340.552841 203.249639 
L 342.930682 168.810277 
L 345.308523 141.788337 
L 347.686364 124.220534 
L 350.064205 136.673373 
L 352.442045 88.887273 
L 354.819886 174.278263 
L 357.197727 105.081788 
L 359.575568 157.840434 
L 361.953409 150.684556 
L 364.33125 177.97002 
L 366.709091 161.666822 
L 369.086932 101.940953 
L 371.464773 304.382508 
L 373.842614 291.641373 
L 376.220455 323.143045 
L 378.598295 314.489059 
L 380.976136 267.024765 
L 383.353977 301.376198 
L 385.731818 295.000215 
L 388.109659 271.424994 
L 390.4875 285.704741 
L 392.865341 279.586231 
L 395.243182 281.617219 
L 397.621023 244.802215 
L 399.998864 255.378535 
L 402.376705 249.674925 
L 404.754545 201.670914 
L 407.132386 277.007247 
L 409.510227 189.695673 
L 411.888068 202.059559 
L 414.265909 183.377148 
L 416.64375 158.519376 
L 419.021591 149.928112 
L 421.399432 148.377975 
L 423.777273 181.750631 
L 426.155114 140.319569 
L 428.532955 183.154103 
L 430.910795 121.119334 
L 433.288636 150.971959 
L 435.666477 154.280713 
L 438.044318 144.690775 
L 440.422159 168.733605 
L 442.8 158.692578 
L 445.177841 139.505645 
L 447.555682 209.298804 
L 449.933523 241.961894 
L 452.311364 221.082133 
L 454.689205 223.036637 
L 457.067045 225.372279 
L 459.444886 160.961097 
L 461.822727 243.027544 
L 464.200568 249.411884 
L 466.578409 281.210782 
L 468.95625 271.370674 
L 471.334091 231.34057 
L 473.711932 243.942659 
L 476.089773 341.24523 
L 478.467614 311.388764 
L 480.845455 351.546841 
L 483.223295 304.705587 
L 485.601136 375.361206 
L 487.978977 327.187355 
L 490.356818 275.369356 
L 492.734659 314.552957 
L 495.1125 365.621034 
L 497.490341 303.174678 
L 499.868182 332.42287 
L 502.246023 372.575257 
L 504.623864 306.818464 
L 507.001705 319.329443 
L 509.379545 307.778493 
L 511.757386 309.58477 
L 514.135227 279.924791 
L 516.513068 254.303456 
L 518.890909 258.007396 
L 521.26875 248.21221 
L 523.646591 240.193861 
L 526.024432 276.868784 
L 528.402273 256.609566 
L 530.780114 243.319495 
L 533.157955 248.78343 
L 535.535795 279.793058 
L 537.913636 239.982701 
L 540.291477 212.731957 
L 542.669318 237.534697 
L 545.047159 264.496442 
L 547.425 180.530349 
L 549.802841 179.452805 
L 552.180682 159.399911 
L 554.558523 137.342304 
L 556.936364 182.417417 
L 559.314205 230.434284 
L 561.692045 251.493591 
L 564.069886 242.467391 
L 566.447727 262.188208 
L 568.825568 264.904776 
L 571.203409 272.881409 
L 573.58125 226.504659 
L 575.959091 234.13814 
L 578.336932 260.686668 
L 580.714773 308.914517 
L 583.092614 230.807058 
L 585.470455 304.235107 
L 587.848295 268.932016 
L 590.226136 318.870092 
L 592.603977 297.174997 
L 594.981818 301.772681 
L 597.359659 352.307561 
L 599.7375 311.503524 
L 602.115341 307.596348 
L 604.493182 287.282005 
L 606.871023 391.638453 
L 609.248864 338.691862 
L 611.626705 316.427826 
L 614.004545 320.986337 
L 616.382386 272.878716 
L 618.760227 323.45803 
L 621.138068 297.935448 
L 623.515909 346.409377 
L 625.89375 316.825364 
L 628.271591 318.197389 
L 630.649432 277.912584 
L 633.027273 277.625848 
L 635.405114 293.335135 
L 637.782955 290.822676 
L 640.160795 258.599443 
L 642.538636 309.515594 
L 644.916477 370.7635 
L 647.294318 272.171569 
L 649.672159 369.082013 
L 652.05 325.275561 
L 654.427841 267.134765 
L 656.805682 314.9683 
L 659.183523 282.043106 
L 661.561364 314.300706 
L 663.939205 315.952116 
L 666.317045 302.14361 
L 671.072727 346.739524 
L 673.450568 323.883825 
L 675.828409 267.602267 
L 678.20625 303.42808 
L 680.584091 307.344676 
L 682.961932 287.782413 
L 685.339773 330.247528 
L 687.717614 337.296652 
L 690.095455 328.701656 
L 692.473295 307.407488 
L 694.851136 246.503663 
L 697.228977 357.072373 
L 699.606818 283.494409 
L 701.984659 334.813084 
L 704.3625 301.491674 
L 706.740341 310.087828 
L 709.118182 278.15482 
L 711.496023 306.933182 
L 713.873864 339.120654 
L 716.251705 378.881978 
L 718.629545 290.620224 
L 721.007386 354.513269 
L 723.385227 384.915008 
L 725.763068 313.546621 
L 728.140909 286.769437 
L 730.51875 309.104987 
L 732.896591 329.325902 
L 735.274432 310.518295 
L 737.652273 319.558912 
L 740.030114 299.486636 
L 742.407955 345.642603 
L 744.785795 368.236926 
L 744.785795 368.236926 
" clip-path="url(#p7143d67410)" style="fill: none; stroke: #808080; stroke-width: 2; stroke-linecap: round"/>
   </g>
   <g id="patch_3">
    <path d="M 108 504 
L 108 69.12 
" style="fill: none; stroke: #ffffff; stroke-width: 1.25; stroke-linejoin: miter; stroke-linecap: square"/>
   </g>
   <g id="patch_4">
    <path d="M 777.6 504 
L 777.6 69.12 
" style="fill: none; stroke: #ffffff; stroke-width: 1.25; stroke-linejoin: miter; stroke-linecap: square"/>
   </g>
   <g id="patch_5">
    <path d="M 108 504 
L 777.6 504 
" style="fill: none; stroke: #ffffff; stroke-width: 1.25; stroke-linejoin: miter; stroke-linecap: square"/>
   </g>
   <g id="patch_6">
    <path d="M 108 69.12 
L 777.6 69.12 
" style="fill: none; stroke: #ffffff; stroke-width: 1.25; stroke-linejoin: miter; stroke-linecap: square"/>
   </g>
   <g id="text_14">
    <!-- Predicted (solid) vs GT (dotted) Shape Type -->
    <g style="fill: #262626" transform="translate(170.683398 63.12)scale(0.3 -0.3)">
     <defs>
      <path id="CMR17-50" d="M 1267 2048 
L 2291 2048 
C 3117 2048 3718 2583 3718 3187 
C 3718 3791 3130 4352 2291 4352 
L 333 4352 
L 333 4185 
C 774 4185 845 4185 845 3899 
L 845 453 
C 845 166 774 166 333 166 
L 333 0 
C 518 12 858 12 1056 12 
C 1254 12 1594 12 1779 0 
L 1779 166 
C 1338 166 1267 166 1267 453 
L 1267 2048 
z
M 1254 2182 
L 1254 3937 
C 1254 4153 1267 4185 1523 4185 
L 2170 4185 
C 2995 4185 3232 3715 3232 3187 
C 3232 2608 2950 2182 2170 2182 
L 1254 2182 
z
" transform="scale(0.015625)"/>
      <path id="CMR17-28" d="M 1958 -1562 
C 1958 -1556 1958 -1543 1939 -1524 
C 1645 -1223 858 -403 858 1596 
C 858 3595 1632 4408 1946 4729 
C 1946 4735 1958 4748 1958 4767 
C 1958 4787 1939 4800 1914 4800 
C 1843 4800 1299 4325 986 3620 
C 666 2909 576 2218 576 1603 
C 576 1141 621 360 1005 -467 
C 1312 -1133 1837 -1600 1914 -1600 
C 1946 -1600 1958 -1588 1958 -1562 
z
" transform="scale(0.015625)"/>
      <path id="CMR17-73" d="M 1978 2688 
C 1978 2803 1971 2809 1933 2809 
C 1907 2809 1901 2803 1824 2707 
C 1805 2681 1747 2617 1728 2592 
C 1523 2809 1235 2816 1126 2816 
C 416 2816 160 2444 160 2073 
C 160 1497 813 1363 998 1324 
C 1402 1241 1542 1216 1677 1100 
C 1760 1024 1901 883 1901 652 
C 1901 384 1747 38 1158 38 
C 602 38 403 460 288 1024 
C 269 1113 269 1120 218 1120 
C 166 1120 160 1113 160 985 
L 160 64 
C 160 -52 166 -58 205 -58 
C 237 -58 243 -52 275 0 
C 314 57 410 211 448 275 
C 576 102 800 -64 1158 -64 
C 1792 -64 2131 281 2131 780 
C 2131 1107 1958 1280 1875 1356 
C 1683 1555 1459 1600 1190 1651 
C 838 1728 390 1817 390 2208 
C 390 2374 480 2726 1126 2726 
C 1811 2726 1850 2086 1862 1881 
C 1869 1849 1901 1843 1920 1843 
C 1978 1843 1978 1862 1978 1971 
L 1978 2688 
z
" transform="scale(0.015625)"/>
      <path id="CMR17-29" d="M 1683 1596 
C 1683 2057 1638 2839 1254 3665 
C 947 4332 422 4800 346 4800 
C 326 4800 301 4793 301 4761 
C 301 4748 307 4742 314 4729 
C 621 4408 1402 3595 1402 1603 
C 1402 -396 627 -1210 314 -1530 
C 307 -1543 301 -1549 301 -1562 
C 301 -1594 326 -1600 346 -1600 
C 416 -1600 960 -1127 1274 -422 
C 1594 289 1683 981 1683 1596 
z
" transform="scale(0.015625)"/>
      <path id="CMR17-76" d="M 2502 2173 
C 2560 2315 2662 2572 3034 2585 
L 3034 2752 
C 2912 2745 2752 2739 2630 2739 
C 2496 2739 2285 2739 2157 2752 
L 2157 2585 
C 2317 2572 2406 2495 2406 2328 
C 2406 2270 2406 2257 2368 2167 
L 1664 379 
L 902 2308 
C 864 2392 864 2405 864 2431 
C 864 2585 1075 2585 1171 2585 
L 1171 2752 
C 1018 2739 736 2739 576 2739 
C 403 2739 205 2739 64 2752 
L 64 2585 
C 307 2585 442 2585 518 2386 
L 1446 44 
C 1485 -52 1491 -64 1549 -64 
C 1606 -64 1613 -52 1651 44 
L 2502 2173 
z
" transform="scale(0.015625)"/>
      <path id="CMR17-47" d="M 3974 1258 
C 3974 1503 3994 1536 4390 1536 
L 4390 1702 
C 4237 1689 3891 1689 3718 1689 
C 3539 1689 3040 1696 2797 1702 
L 2797 1536 
L 2989 1536 
C 3539 1536 3552 1464 3552 1232 
L 3552 806 
C 3552 96 2720 38 2522 38 
C 1862 38 781 496 781 2179 
C 781 3862 1843 4313 2464 4313 
C 3187 4313 3712 3681 3834 2785 
C 3846 2708 3846 2695 3904 2695 
C 3974 2695 3974 2708 3974 2824 
L 3974 4351 
C 3974 4467 3968 4473 3930 4473 
C 3904 4473 3898 4467 3853 4390 
L 3571 3849 
C 3258 4249 2874 4480 2381 4480 
C 1286 4480 294 3507 294 2179 
C 294 858 1267 -128 2394 -128 
C 2912 -128 3418 57 3616 425 
C 3725 161 3904 -20 3936 -20 
C 3968 -20 3974 -13 3974 102 
L 3974 1258 
z
" transform="scale(0.015625)"/>
      <path id="CMR17-54" d="M 3981 4332 
L 288 4332 
L 179 2924 
L 294 2924 
C 378 3981 467 4166 1453 4166 
C 1568 4166 1754 4166 1805 4159 
C 1926 4140 1926 4064 1926 3917 
L 1926 465 
C 1926 236 1907 166 1376 166 
L 1197 166 
L 1197 0 
C 1504 6 1824 12 2138 12 
C 2451 12 2771 6 3078 0 
L 3078 166 
L 2899 166 
C 2368 166 2349 236 2349 465 
L 2349 3917 
C 2349 4057 2349 4134 2464 4159 
C 2515 4166 2701 4166 2816 4166 
C 3795 4166 3891 3981 3974 2924 
L 4090 2924 
L 3981 4332 
z
" transform="scale(0.015625)"/>
      <path id="CMR17-79" d="M 2496 2183 
C 2656 2579 2944 2585 3034 2585 
L 3034 2752 
C 2912 2745 2752 2739 2630 2739 
C 2496 2739 2285 2739 2157 2752 
L 2157 2585 
C 2400 2566 2406 2384 2406 2332 
C 2406 2268 2394 2235 2362 2158 
L 1664 409 
L 902 2300 
C 870 2378 870 2423 870 2430 
C 870 2572 1018 2585 1171 2585 
L 1171 2752 
C 1018 2739 742 2739 582 2739 
C 410 2739 205 2739 64 2752 
L 64 2585 
C 410 2585 448 2553 531 2345 
L 1485 -31 
C 1197 -795 1030 -1242 627 -1242 
C 557 -1242 397 -1223 282 -1106 
C 429 -1093 493 -1002 493 -892 
C 493 -782 416 -685 288 -685 
C 147 -685 77 -782 77 -899 
C 77 -1158 339 -1344 627 -1344 
C 998 -1344 1229 -983 1357 -659 
L 2496 2183 
z
" transform="scale(0.015625)"/>
     </defs>
     <use xlink:href="#CMR17-50" transform="scale(0.996264)"/>
     <use xlink:href="#CMR17-72" transform="translate(62.586301 0)scale(0.996264)"/>
     <use xlink:href="#CMR17-65" transform="translate(97.867068 0)scale(0.996264)"/>
     <use xlink:href="#CMR17-64" transform="translate(138.352729 0)scale(0.996264)"/>
     <use xlink:href="#CMR17-69" transform="translate(189.248099 0)scale(0.996264)"/>
     <use xlink:href="#CMR17-63" transform="translate(214.119157 0)scale(0.996264)"/>
     <use xlink:href="#CMR17-74" transform="translate(254.604818 0)scale(0.996264)"/>
     <use xlink:href="#CMR17-65" transform="translate(289.885585 0)scale(0.996264)"/>
     <use xlink:href="#CMR17-64" transform="translate(330.371246 0)scale(0.996264)"/>
     <use xlink:href="#CMR17-28" transform="translate(411.342582 0)scale(0.996264)"/>
     <use xlink:href="#CMR17-73" transform="translate(446.62335 0)scale(0.996264)"/>
     <use xlink:href="#CMR17-6f" transform="translate(482.424687 0)scale(0.996264)"/>
     <use xlink:href="#CMR17-6c" transform="translate(528.115164 0)scale(0.996264)"/>
     <use xlink:href="#CMR17-69" transform="translate(552.986223 0)scale(0.996264)"/>
     <use xlink:href="#CMR17-64" transform="translate(577.857281 0)scale(0.996264)"/>
     <use xlink:href="#CMR17-29" transform="translate(628.752651 0)scale(0.996264)"/>
     <use xlink:href="#CMR17-76" transform="translate(694.109385 0)scale(0.996264)"/>
     <use xlink:href="#CMR17-73" transform="translate(742.402301 0)scale(0.996264)"/>
     <use xlink:href="#CMR17-47" transform="translate(808.279605 0)scale(0.996264)"/>
     <use xlink:href="#CMR17-54" transform="translate(880.634951 0)scale(0.996264)"/>
     <use xlink:href="#CMR17-28" transform="translate(977.220798 0)scale(0.996264)"/>
     <use xlink:href="#CMR17-64" transform="translate(1012.501566 0)scale(0.996264)"/>
     <use xlink:href="#CMR17-6f" transform="translate(1063.396936 0)scale(0.996264)"/>
     <use xlink:href="#CMR17-74" transform="translate(1109.087413 0)scale(0.996264)"/>
     <use xlink:href="#CMR17-74" transform="translate(1144.36818 0)scale(0.996264)"/>
     <use xlink:href="#CMR17-65" transform="translate(1179.648948 0)scale(0.996264)"/>
     <use xlink:href="#CMR17-64" transform="translate(1220.134609 0)scale(0.996264)"/>
     <use xlink:href="#CMR17-29" transform="translate(1271.029979 0)scale(0.996264)"/>
     <use xlink:href="#CMR17-53" transform="translate(1336.386713 0)scale(0.996264)"/>
     <use xlink:href="#CMR17-68" transform="translate(1387.282082 0)scale(0.996264)"/>
     <use xlink:href="#CMR17-61" transform="translate(1438.177452 0)scale(0.996264)"/>
     <use xlink:href="#CMR17-70" transform="translate(1483.867929 0)scale(0.996264)"/>
     <use xlink:href="#CMR17-65" transform="translate(1537.365738 0)scale(0.996264)"/>
     <use xlink:href="#CMR17-54" transform="translate(1607.927365 0)scale(0.996264)"/>
     <use xlink:href="#CMR17-79" transform="translate(1671.834791 0)scale(0.996264)"/>
     <use xlink:href="#CMR17-70" transform="translate(1720.127707 0)scale(0.996264)"/>
     <use xlink:href="#CMR17-65" transform="translate(1773.625516 0)scale(0.996264)"/>
    </g>
   </g>
   <g id="legend_1">
    <g id="patch_7">
     <path d="M 787.279449 405.672 
L 901.840551 405.672 
Q 907.340551 405.672 907.340551 400.172 
L 907.340551 172.948 
Q 907.340551 167.448 901.840551 167.448 
L 787.279449 167.448 
Q 781.779449 167.448 781.779449 172.948 
L 781.779449 400.172 
Q 781.779449 405.672 787.279449 405.672 
z
" style="fill: #ffffff; opacity: 0.8; stroke: #cccccc; stroke-linejoin: miter"/>
    </g>
    <g id="line2d_25">
     <path d="M 792.779449 188.073 
L 820.279449 188.073 
L 847.779449 188.073 
" style="fill: none; stroke: #4e79a7; stroke-width: 3; stroke-linecap: round"/>
    </g>
    <g id="text_15">
     <!-- S1 -->
     <g style="fill: #262626" transform="translate(869.779449 197.698)scale(0.275 -0.275)">
      <use xlink:href="#CMR17-53" transform="scale(0.996264)"/>
      <use xlink:href="#CMR17-31" transform="translate(50.89537 0)scale(0.996264)"/>
     </g>
    </g>
    <g id="line2d_26">
     <path d="M 792.779449 226.402 
L 820.279449 226.402 
L 847.779449 226.402 
" style="fill: none; stroke: #f28e2b; stroke-width: 3; stroke-linecap: round"/>
    </g>
    <g id="text_16">
     <!-- S2 -->
     <g style="fill: #262626" transform="translate(869.779449 236.027)scale(0.275 -0.275)">
      <use xlink:href="#CMR17-53" transform="scale(0.996264)"/>
      <use xlink:href="#CMR17-32" transform="translate(50.89537 0)scale(0.996264)"/>
     </g>
    </g>
    <g id="line2d_27">
     <path d="M 792.779449 264.731 
L 820.279449 264.731 
L 847.779449 264.731 
" style="fill: none; stroke: #e15759; stroke-width: 3; stroke-linecap: round"/>
    </g>
    <g id="text_17">
     <!-- S3 -->
     <g style="fill: #262626" transform="translate(869.779449 274.356)scale(0.275 -0.275)">
      <defs>
       <path id="CMR17-33" d="M 1414 2176 
C 1984 2176 2234 1673 2234 1094 
C 2234 322 1824 25 1453 25 
C 1114 25 563 193 390 691 
C 422 678 454 678 486 678 
C 640 678 755 780 755 947 
C 755 1132 614 1216 486 1216 
C 378 1216 211 1164 211 927 
C 211 335 787 -128 1466 -128 
C 2176 -128 2720 432 2720 1087 
C 2720 1718 2208 2176 1600 2246 
C 2086 2347 2554 2776 2554 3353 
C 2554 3856 2048 4224 1472 4224 
C 890 4224 378 3862 378 3347 
C 378 3123 544 3084 627 3084 
C 762 3084 877 3167 877 3334 
C 877 3500 762 3584 627 3584 
C 602 3584 570 3584 544 3571 
C 730 3999 1235 4076 1459 4076 
C 1683 4076 2106 3966 2106 3347 
C 2106 3167 2080 2851 1862 2574 
C 1670 2329 1453 2316 1242 2297 
C 1210 2297 1062 2284 1037 2284 
C 992 2278 966 2272 966 2227 
C 966 2182 973 2176 1101 2176 
L 1414 2176 
z
" transform="scale(0.015625)"/>
      </defs>
      <use xlink:href="#CMR17-53" transform="scale(0.996264)"/>
      <use xlink:href="#CMR17-33" transform="translate(50.89537 0)scale(0.996264)"/>
     </g>
    </g>
    <g id="line2d_28">
     <path d="M 792.779449 303.06 
L 820.279449 303.06 
L 847.779449 303.06 
" style="fill: none; stroke: #76b7b2; stroke-width: 3; stroke-linecap: round"/>
    </g>
    <g id="text_18">
     <!-- S4 -->
     <g style="fill: #262626" transform="translate(869.779449 312.685)scale(0.275 -0.275)">
      <defs>
       <path id="CMR17-34" d="M 2150 4147 
C 2150 4281 2144 4288 2029 4288 
L 128 1254 
L 128 1088 
L 1779 1088 
L 1779 460 
C 1779 230 1766 166 1318 166 
L 1197 166 
L 1197 0 
C 1402 12 1747 12 1965 12 
C 2182 12 2528 12 2733 0 
L 2733 166 
L 2611 166 
C 2163 166 2150 230 2150 460 
L 2150 1088 
L 2803 1088 
L 2803 1254 
L 2150 1254 
L 2150 4147 
z
M 1798 3723 
L 1798 1254 
L 256 1254 
L 1798 3723 
z
" transform="scale(0.015625)"/>
      </defs>
      <use xlink:href="#CMR17-53" transform="scale(0.996264)"/>
      <use xlink:href="#CMR17-34" transform="translate(50.89537 0)scale(0.996264)"/>
     </g>
    </g>
    <g id="line2d_29">
     <path d="M 792.779449 341.389 
L 820.279449 341.389 
L 847.779449 341.389 
" style="fill: none; stroke: #59a14f; stroke-width: 3; stroke-linecap: round"/>
    </g>
    <g id="text_19">
     <!-- S5 -->
     <g style="fill: #262626" transform="translate(869.779449 351.014)scale(0.275 -0.275)">
      <use xlink:href="#CMR17-53" transform="scale(0.996264)"/>
      <use xlink:href="#CMR17-35" transform="translate(50.89537 0)scale(0.996264)"/>
     </g>
    </g>
    <g id="line2d_30">
     <path d="M 792.779449 379.718 
L 820.279449 379.718 
L 847.779449 379.718 
" style="fill: none; stroke: #edc948; stroke-width: 3; stroke-linecap: round"/>
    </g>
    <g id="text_20">
     <!-- S6 -->
     <g style="fill: #262626" transform="translate(869.779449 389.343)scale(0.275 -0.275)">
      <defs>
       <path id="CMR17-36" d="M 678 2198 
C 678 3712 1395 4076 1811 4076 
C 1946 4076 2272 4049 2400 3782 
C 2298 3782 2106 3782 2106 3558 
C 2106 3385 2246 3328 2336 3328 
C 2394 3328 2566 3353 2566 3571 
C 2566 3987 2246 4224 1805 4224 
C 1043 4224 243 3411 243 2011 
C 243 257 966 -128 1478 -128 
C 2099 -128 2688 431 2688 1295 
C 2688 2101 2170 2688 1517 2688 
C 1126 2688 838 2430 678 1979 
L 678 2198 
z
M 1478 25 
C 691 25 691 1212 691 1450 
C 691 1914 909 2585 1504 2585 
C 1613 2585 1926 2585 2138 2140 
C 2253 1889 2253 1624 2253 1302 
C 2253 954 2253 696 2118 438 
C 1978 173 1773 25 1478 25 
z
" transform="scale(0.015625)"/>
      </defs>
      <use xlink:href="#CMR17-53" transform="scale(0.996264)"/>
      <use xlink:href="#CMR17-36" transform="translate(50.89537 0)scale(0.996264)"/>
     </g>
    </g>
   </g>
  </g>
  <g id="text_21">
   <!-- Class 1 -->
   <g style="fill: #262626" transform="translate(380.800709 36.4266)scale(0.36 -0.36)">
    <defs>
     <path id="CMR17-43" d="M 3974 4351 
C 3974 4467 3968 4473 3930 4473 
C 3904 4473 3898 4467 3853 4390 
L 3571 3849 
C 3258 4249 2874 4480 2381 4480 
C 1286 4480 294 3507 294 2179 
C 294 837 1286 -128 2387 -128 
C 3366 -128 3974 741 3974 1482 
C 3974 1547 3974 1573 3917 1573 
C 3866 1573 3866 1553 3859 1495 
C 3808 592 3168 38 2477 38 
C 1824 38 781 502 781 2179 
C 781 3862 1843 4313 2464 4313 
C 3187 4313 3712 3681 3834 2785 
C 3846 2707 3846 2695 3904 2695 
C 3974 2695 3974 2707 3974 2824 
L 3974 4351 
z
" transform="scale(0.015625)"/>
    </defs>
    <use xlink:href="#CMR17-43" transform="scale(0.996264)"/>
    <use xlink:href="#CMR17-6c" transform="translate(66.509881 0)scale(0.996264)"/>
    <use xlink:href="#CMR17-61" transform="translate(91.380939 0)scale(0.996264)"/>
    <use xlink:href="#CMR17-73" transform="translate(137.071416 0)scale(0.996264)"/>
    <use xlink:href="#CMR17-73" transform="translate(172.872754 0)scale(0.996264)"/>
    <use xlink:href="#CMR17-31" transform="translate(238.750058 0)scale(0.996264)"/>
   </g>
  </g>
 </g>
 <defs>
  <clipPath id="p7143d67410">
   <rect x="108" y="69.12" width="669.6" height="434.88"/>
  </clipPath>
 </defs>
</svg>
