<?xml version="1.0" encoding="utf-8" standalone="no"?>
<!DOCTYPE svg PUBLIC "-//W3C//DTD SVG 1.1//EN"
  "http://www.w3.org/Graphics/SVG/1.1/DTD/svg11.dtd">
<svg xmlns:xlink="http://www.w3.org/1999/xlink" width="864pt" height="576pt" viewBox="0 0 864 576" xmlns="http://www.w3.org/2000/svg" version="1.1">
 <metadata>
  <rdf:RDF xmlns:dc="http://purl.org/dc/elements/1.1/" xmlns:cc="http://creativecommons.org/ns#" xmlns:rdf="http://www.w3.org/1999/02/22-rdf-syntax-ns#">
   <cc:Work>
    <dc:type rdf:resource="http://purl.org/dc/dcmitype/StillImage"/>
    <dc:date>2025-06-08T18:08:46.614631</dc:date>
    <dc:format>image/svg+xml</dc:format>
    <dc:creator>
     <cc:Agent>
      <dc:title>Matplotlib v3.10.0, https://matplotlib.org/</dc:title>
     </cc:Agent>
    </dc:creator>
   </cc:Work>
  </rdf:RDF>
 </metadata>
 <defs>
  <style type="text/css">*{stroke-linejoin: round; stroke-linecap: butt}</style>
 </defs>
 <g id="figure_1">
  <g id="patch_1">
   <path d="M 0 576 
L 864 576 
L 864 0 
L 0 0 
z
" style="fill: #ffffff"/>
  </g>
  <g id="axes_1">
   <g id="patch_2">
    <path d="M 108 512.64 
L 777.6 512.64 
L 777.6 69.12 
L 108 69.12 
z
" style="fill: #ffffff"/>
   </g>
   <g id="matplotlib.axis_1">
    <g id="xtick_1">
     <g id="line2d_1">
      <path d="M 138.436364 512.64 
L 138.436364 69.12 
" clip-path="url(#pe29d45493c)" style="fill: none; stroke: #cccccc; stroke-linecap: round"/>
     </g>
     <g id="text_1">
      <!-- $\mathdefault{0}$ -->
      <g style="fill: #262626" transform="translate(132.153923 541.165867) scale(0.275 -0.275)">
       <defs>
        <path id="CMR17-30" d="M 2688 2038 
C 2688 2430 2682 3099 2413 3613 
C 2176 4063 1798 4224 1466 4224 
C 1158 4224 768 4082 525 3620 
C 269 3137 243 2539 243 2038 
C 243 1671 250 1112 448 623 
C 723 -39 1216 -128 1466 -128 
C 1760 -128 2208 -7 2470 604 
C 2662 1048 2688 1568 2688 2038 
z
M 1466 -26 
C 1056 -26 813 328 723 816 
C 653 1196 653 1749 653 2109 
C 653 2604 653 3015 736 3407 
C 858 3954 1216 4121 1466 4121 
C 1728 4121 2067 3947 2189 3420 
C 2272 3054 2278 2623 2278 2109 
C 2278 1691 2278 1176 2202 797 
C 2067 96 1690 -26 1466 -26 
z
" transform="scale(0.015625)"/>
       </defs>
       <use xlink:href="#CMR17-30" transform="scale(0.996264)"/>
      </g>
     </g>
    </g>
    <g id="xtick_2">
     <g id="line2d_2">
      <path d="M 257.328409 512.64 
L 257.328409 69.12 
" clip-path="url(#pe29d45493c)" style="fill: none; stroke: #cccccc; stroke-linecap: round"/>
     </g>
     <g id="text_2">
      <!-- $\mathdefault{50}$ -->
      <g style="fill: #262626" transform="translate(244.763528 541.165867) scale(0.275 -0.275)">
       <defs>
        <path id="CMR17-35" d="M 730 3750 
C 794 3724 1056 3641 1325 3641 
C 1920 3641 2246 3961 2432 4140 
C 2432 4191 2432 4224 2394 4224 
C 2387 4224 2374 4224 2323 4198 
C 2099 4102 1837 4032 1517 4032 
C 1325 4032 1037 4055 723 4191 
C 653 4224 640 4224 634 4224 
C 602 4224 595 4217 595 4090 
L 595 2231 
C 595 2113 595 2080 659 2080 
C 691 2080 704 2093 736 2139 
C 941 2435 1222 2560 1542 2560 
C 1766 2560 2246 2415 2246 1293 
C 2246 1087 2246 716 2054 422 
C 1894 159 1645 25 1370 25 
C 947 25 518 319 403 812 
C 429 806 480 793 506 793 
C 589 793 749 838 749 1036 
C 749 1209 627 1280 506 1280 
C 358 1280 262 1190 262 1011 
C 262 454 704 -128 1382 -128 
C 2042 -128 2669 441 2669 1267 
C 2669 2054 2170 2662 1549 2662 
C 1222 2662 947 2540 730 2304 
L 730 3750 
z
" transform="scale(0.015625)"/>
       </defs>
       <use xlink:href="#CMR17-35" transform="scale(0.996264)"/>
       <use xlink:href="#CMR17-30" transform="translate(45.690477 0) scale(0.996264)"/>
      </g>
     </g>
    </g>
    <g id="xtick_3">
     <g id="line2d_3">
      <path d="M 376.220455 512.64 
L 376.220455 69.12 
" clip-path="url(#pe29d45493c)" style="fill: none; stroke: #cccccc; stroke-linecap: round"/>
     </g>
     <g id="text_3">
      <!-- $\mathdefault{100}$ -->
      <g style="fill: #262626" transform="translate(357.373133 541.165867) scale(0.275 -0.275)">
       <defs>
        <path id="CMR17-31" d="M 1702 4083 
C 1702 4217 1696 4224 1606 4224 
C 1357 3927 979 3833 621 3820 
C 602 3820 570 3820 563 3808 
C 557 3795 557 3782 557 3648 
C 755 3648 1088 3686 1344 3839 
L 1344 467 
C 1344 243 1331 166 781 166 
L 589 166 
L 589 0 
C 896 6 1216 12 1523 12 
C 1830 12 2150 6 2458 0 
L 2458 166 
L 2266 166 
C 1715 166 1702 236 1702 467 
L 1702 4083 
z
" transform="scale(0.015625)"/>
       </defs>
       <use xlink:href="#CMR17-31" transform="scale(0.996264)"/>
       <use xlink:href="#CMR17-30" transform="translate(45.690477 0) scale(0.996264)"/>
       <use xlink:href="#CMR17-30" transform="translate(91.380954 0) scale(0.996264)"/>
      </g>
     </g>
    </g>
    <g id="xtick_4">
     <g id="line2d_4">
      <path d="M 495.1125 512.64 
L 495.1125 69.12 
" clip-path="url(#pe29d45493c)" style="fill: none; stroke: #cccccc; stroke-linecap: round"/>
     </g>
     <g id="text_4">
      <!-- $\mathdefault{150}$ -->
      <g style="fill: #262626" transform="translate(476.265178 541.165867) scale(0.275 -0.275)">
       <use xlink:href="#CMR17-31" transform="scale(0.996264)"/>
       <use xlink:href="#CMR17-35" transform="translate(45.690477 0) scale(0.996264)"/>
       <use xlink:href="#CMR17-30" transform="translate(91.380954 0) scale(0.996264)"/>
      </g>
     </g>
    </g>
    <g id="xtick_5">
     <g id="line2d_5">
      <path d="M 614.004545 512.64 
L 614.004545 69.12 
" clip-path="url(#pe29d45493c)" style="fill: none; stroke: #cccccc; stroke-linecap: round"/>
     </g>
     <g id="text_5">
      <!-- $\mathdefault{200}$ -->
      <g style="fill: #262626" transform="translate(595.157224 541.165867) scale(0.275 -0.275)">
       <defs>
        <path id="CMR17-32" d="M 2669 990 
L 2554 990 
C 2490 537 2438 460 2413 422 
C 2381 371 1920 371 1830 371 
L 602 371 
C 832 620 1280 1073 1824 1596 
C 2214 1966 2669 2400 2669 3033 
C 2669 3788 2067 4224 1395 4224 
C 691 4224 262 3603 262 3027 
C 262 2777 448 2745 525 2745 
C 589 2745 781 2783 781 3007 
C 781 3206 614 3264 525 3264 
C 486 3264 448 3257 422 3244 
C 544 3788 915 4057 1306 4057 
C 1862 4057 2227 3616 2227 3033 
C 2227 2477 1901 1998 1536 1583 
L 262 147 
L 262 0 
L 2515 0 
L 2669 990 
z
" transform="scale(0.015625)"/>
       </defs>
       <use xlink:href="#CMR17-32" transform="scale(0.996264)"/>
       <use xlink:href="#CMR17-30" transform="translate(45.690477 0) scale(0.996264)"/>
       <use xlink:href="#CMR17-30" transform="translate(91.380954 0) scale(0.996264)"/>
      </g>
     </g>
    </g>
    <g id="xtick_6">
     <g id="line2d_6">
      <path d="M 732.896591 512.64 
L 732.896591 69.12 
" clip-path="url(#pe29d45493c)" style="fill: none; stroke: #cccccc; stroke-linecap: round"/>
     </g>
     <g id="text_6">
      <!-- $\mathdefault{250}$ -->
      <g style="fill: #262626" transform="translate(714.049269 541.165867) scale(0.275 -0.275)">
       <use xlink:href="#CMR17-32" transform="scale(0.996264)"/>
       <use xlink:href="#CMR17-35" transform="translate(45.690477 0) scale(0.996264)"/>
       <use xlink:href="#CMR17-30" transform="translate(91.380954 0) scale(0.996264)"/>
      </g>
     </g>
    </g>
    <g id="text_7">
     <!-- Sample number -->
     <g style="fill: #262626" transform="translate(349.409568 571.250362) scale(0.3 -0.3)">
      <defs>
       <path id="CMR17-53" d="M 2803 4351 
C 2803 4467 2797 4473 2758 4473 
C 2720 4473 2707 4447 2682 4390 
L 2490 3965 
C 2246 4320 1875 4480 1472 4480 
C 819 4480 294 3958 294 3301 
C 294 3101 339 2817 557 2546 
C 794 2250 1018 2198 1530 2063 
C 1722 2011 2042 1927 2106 1901 
C 2470 1747 2662 1360 2662 999 
C 2662 534 2336 38 1779 38 
C 1094 38 454 425 410 1328 
C 403 1431 397 1437 352 1437 
C 301 1437 294 1431 294 1302 
L 294 0 
C 294 -116 301 -122 339 -122 
C 384 -122 397 -90 486 109 
C 493 128 493 141 614 386 
C 934 -39 1472 -128 1779 -128 
C 2477 -128 2970 457 2970 1141 
C 2970 1476 2848 1734 2778 1850 
C 2509 2263 2221 2340 1914 2417 
C 1869 2437 1856 2437 1498 2527 
C 1152 2617 1005 2662 845 2836 
C 666 3036 602 3243 602 3449 
C 602 3868 934 4326 1478 4326 
C 2157 4326 2579 3842 2675 3036 
C 2694 2920 2701 2914 2746 2914 
C 2803 2914 2803 2933 2803 3043 
L 2803 4351 
z
" transform="scale(0.015625)"/>
       <path id="CMR17-61" d="M 2304 1656 
C 2304 2048 2304 2275 2035 2534 
C 1798 2751 1523 2816 1306 2816 
C 800 2816 435 2408 435 1977 
C 435 1740 627 1728 666 1728 
C 749 1728 896 1779 896 1958 
C 896 2118 774 2188 666 2188 
C 640 2188 608 2182 589 2176 
C 723 2594 1069 2713 1293 2713 
C 1613 2713 1965 2421 1965 1875 
L 1965 1632 
C 1587 1619 1133 1568 774 1373 
C 371 1147 256 822 256 576 
C 256 77 832 -64 1171 -64 
C 1523 -64 1850 135 1990 505 
C 2003 219 2182 -39 2464 -39 
C 2598 -39 2938 51 2938 563 
L 2938 926 
L 2822 926 
L 2822 557 
C 2822 161 2650 109 2566 109 
C 2304 109 2304 446 2304 732 
L 2304 1656 
z
M 1965 887 
C 1965 323 1568 38 1216 38 
C 896 38 646 278 646 576 
C 646 771 730 1114 1101 1322 
C 1408 1497 1760 1523 1965 1536 
L 1965 887 
z
" transform="scale(0.015625)"/>
       <path id="CMR17-6d" d="M 4326 1954 
C 4326 2276 4269 2816 3507 2816 
C 3072 2816 2771 2520 2656 2173 
L 2650 2173 
C 2573 2700 2195 2816 1837 2816 
C 1331 2816 1069 2424 973 2166 
L 966 2166 
L 966 2816 
L 211 2745 
L 211 2578 
C 589 2578 646 2540 646 2231 
L 646 443 
C 646 198 621 166 211 166 
L 211 0 
C 365 12 646 12 813 12 
C 979 12 1267 12 1421 0 
L 1421 166 
C 1011 166 986 192 986 443 
L 986 1678 
C 986 2269 1344 2713 1792 2713 
C 2266 2713 2317 2289 2317 1980 
L 2317 443 
C 2317 198 2291 166 1882 166 
L 1882 0 
C 2035 12 2317 12 2483 12 
C 2650 12 2938 12 3091 0 
L 3091 166 
C 2682 166 2656 192 2656 443 
L 2656 1678 
C 2656 2269 3014 2713 3462 2713 
C 3936 2713 3987 2289 3987 1980 
L 3987 443 
C 3987 198 3962 166 3552 166 
L 3552 0 
C 3706 12 3987 12 4154 12 
C 4320 12 4608 12 4762 0 
L 4762 166 
C 4352 166 4326 192 4326 443 
L 4326 1954 
z
" transform="scale(0.015625)"/>
       <path id="CMR17-70" d="M 1408 -1114 
C 998 -1114 973 -1088 973 -834 
L 973 380 
C 1158 109 1427 -64 1766 -64 
C 2406 -64 3053 503 3053 1382 
C 3053 2196 2496 2816 1837 2816 
C 1453 2816 1139 2603 960 2345 
L 960 2816 
L 198 2745 
L 198 2577 
C 576 2577 634 2539 634 2228 
L 634 -834 
C 634 -1081 608 -1114 198 -1114 
L 198 -1280 
C 352 -1268 634 -1268 800 -1268 
C 966 -1268 1254 -1268 1408 -1280 
L 1408 -1114 
z
M 973 2015 
C 973 2106 973 2241 1222 2481 
C 1254 2506 1472 2700 1792 2700 
C 2259 2700 2643 2112 2643 1376 
C 2643 639 2234 38 1728 38 
C 1498 38 1248 148 1056 451 
C 973 594 973 632 973 736 
L 973 2015 
z
" transform="scale(0.015625)"/>
       <path id="CMR17-6c" d="M 979 4416 
L 218 4345 
L 218 4179 
C 595 4179 653 4141 653 3835 
L 653 439 
C 653 198 627 166 218 166 
L 218 0 
C 371 12 653 12 813 12 
C 979 12 1261 12 1414 0 
L 1414 166 
C 1005 166 979 191 979 439 
L 979 4416 
z
" transform="scale(0.015625)"/>
       <path id="CMR17-65" d="M 2438 1503 
C 2464 1529 2464 1542 2464 1606 
C 2464 2251 2118 2816 1389 2816 
C 710 2816 173 2175 173 1394 
C 173 554 781 -64 1459 -64 
C 2176 -64 2458 619 2458 755 
C 2458 800 2419 800 2406 800 
C 2362 800 2355 787 2330 709 
C 2189 270 1837 51 1504 51 
C 1229 51 954 206 781 490 
C 582 819 582 1200 582 1503 
L 2438 1503 
z
M 589 1600 
C 634 2511 1126 2713 1382 2713 
C 1818 2713 2112 2308 2118 1600 
L 589 1600 
z
" transform="scale(0.015625)"/>
       <path id="CMR17-6e" d="M 2656 1954 
C 2656 2282 2592 2816 1837 2816 
C 1331 2816 1069 2424 973 2166 
L 966 2166 
L 966 2816 
L 211 2745 
L 211 2578 
C 589 2578 646 2540 646 2231 
L 646 443 
C 646 198 621 166 211 166 
L 211 0 
C 365 12 646 12 813 12 
C 979 12 1267 12 1421 0 
L 1421 166 
C 1011 166 986 192 986 443 
L 986 1678 
C 986 2269 1344 2713 1792 2713 
C 2266 2713 2317 2289 2317 1980 
L 2317 443 
C 2317 198 2291 166 1882 166 
L 1882 0 
C 2035 12 2317 12 2483 12 
C 2650 12 2938 12 3091 0 
L 3091 166 
C 2682 166 2656 192 2656 443 
L 2656 1954 
z
" transform="scale(0.015625)"/>
       <path id="CMR17-75" d="M 1882 2745 
L 1882 2579 
C 2259 2579 2317 2540 2317 2229 
L 2317 1053 
C 2317 510 2029 38 1555 38 
C 1030 38 986 355 986 691 
L 986 2816 
L 211 2745 
L 211 2579 
C 467 2579 640 2579 646 2320 
L 646 1079 
C 646 646 646 368 813 187 
C 896 103 1056 -64 1517 -64 
C 2061 -64 2272 400 2323 536 
L 2330 536 
L 2330 -64 
L 3091 -13 
L 3091 154 
C 2714 154 2656 193 2656 503 
L 2656 2816 
L 1882 2745 
z
" transform="scale(0.015625)"/>
       <path id="CMR17-62" d="M 960 4416 
L 198 4345 
L 198 4179 
C 576 4179 634 4141 634 3843 
L 634 -13 
L 749 -13 
L 934 445 
C 1120 141 1395 -64 1766 -64 
C 2406 -64 3053 503 3053 1382 
C 3053 2209 2477 2816 1830 2816 
C 1434 2816 1152 2603 960 2351 
L 960 4416 
z
M 973 2022 
C 973 2138 973 2157 1062 2293 
C 1312 2681 1670 2713 1792 2713 
C 1984 2713 2643 2610 2643 1388 
C 2643 109 1888 38 1734 38 
C 1536 38 1248 115 1043 490 
C 973 613 973 626 973 742 
L 973 2022 
z
" transform="scale(0.015625)"/>
       <path id="CMR17-72" d="M 960 1517 
C 960 2134 1222 2713 1702 2713 
C 1747 2713 1792 2707 1837 2687 
C 1837 2687 1696 2642 1696 2475 
C 1696 2321 1818 2257 1914 2257 
C 1990 2257 2131 2302 2131 2482 
C 2131 2687 1926 2816 1709 2816 
C 1222 2816 1011 2340 947 2115 
L 941 2115 
L 941 2816 
L 198 2745 
L 198 2578 
C 576 2578 634 2540 634 2231 
L 634 443 
C 634 198 608 166 198 166 
L 198 0 
C 352 12 646 12 813 12 
C 998 12 1325 12 1498 0 
L 1498 166 
C 1037 166 960 166 960 455 
L 960 1517 
z
" transform="scale(0.015625)"/>
      </defs>
      <use xlink:href="#CMR17-53" transform="scale(0.996264)"/>
      <use xlink:href="#CMR17-61" transform="translate(50.89537 0) scale(0.996264)"/>
      <use xlink:href="#CMR17-6d" transform="translate(96.585847 0) scale(0.996264)"/>
      <use xlink:href="#CMR17-70" transform="translate(173.505437 0) scale(0.996264)"/>
      <use xlink:href="#CMR17-6c" transform="translate(224.400807 0) scale(0.996264)"/>
      <use xlink:href="#CMR17-65" transform="translate(249.271865 0) scale(0.996264)"/>
      <use xlink:href="#CMR17-6e" transform="translate(319.833492 0) scale(0.996264)"/>
      <use xlink:href="#CMR17-75" transform="translate(368.126408 0) scale(0.996264)"/>
      <use xlink:href="#CMR17-6d" transform="translate(419.021777 0) scale(0.996264)"/>
      <use xlink:href="#CMR17-62" transform="translate(493.338913 0) scale(0.996264)"/>
      <use xlink:href="#CMR17-65" transform="translate(546.836722 0) scale(0.996264)"/>
      <use xlink:href="#CMR17-72" transform="translate(587.322382 0) scale(0.996264)"/>
     </g>
    </g>
   </g>
   <g id="matplotlib.axis_2">
    <g id="ytick_1">
     <g id="line2d_7">
      <path d="M 108 492.889451 
L 777.6 492.889451 
" clip-path="url(#pe29d45493c)" style="fill: none; stroke: #cccccc; stroke-linecap: round"/>
     </g>
     <g id="text_8">
      <!-- $\mathdefault{−0.5}$ -->
      <g style="fill: #262626" transform="translate(44.609469 502.402385) scale(0.275 -0.275)">
       <defs>
        <path id="CMSY10-0" d="M 4218 1472 
C 4326 1472 4442 1472 4442 1600 
C 4442 1728 4326 1728 4218 1728 
L 755 1728 
C 646 1728 531 1728 531 1600 
C 531 1472 646 1472 755 1472 
L 4218 1472 
z
" transform="scale(0.015625)"/>
        <path id="CMMI12-3a" d="M 1178 307 
C 1178 492 1024 620 870 620 
C 685 620 557 467 557 313 
C 557 128 710 0 864 0 
C 1050 0 1178 153 1178 307 
z
" transform="scale(0.015625)"/>
       </defs>
       <use xlink:href="#CMSY10-0" transform="scale(0.996264)"/>
       <use xlink:href="#CMR17-30" transform="translate(77.487468 0) scale(0.996264)"/>
       <use xlink:href="#CMMI12-3a" transform="translate(123.177945 0) scale(0.996264)"/>
       <use xlink:href="#CMR17-35" transform="translate(150.275122 0) scale(0.996264)"/>
      </g>
     </g>
    </g>
    <g id="ytick_2">
     <g id="line2d_8">
      <path d="M 108 435.309021 
L 777.6 435.309021 
" clip-path="url(#pe29d45493c)" style="fill: none; stroke: #cccccc; stroke-linecap: round"/>
     </g>
     <g id="text_9">
      <!-- $\mathdefault{0.0}$ -->
      <g style="fill: #262626" transform="translate(65.918521 444.821954) scale(0.275 -0.275)">
       <use xlink:href="#CMR17-30" transform="scale(0.996264)"/>
       <use xlink:href="#CMMI12-3a" transform="translate(45.690477 0) scale(0.996264)"/>
       <use xlink:href="#CMR17-30" transform="translate(72.787654 0) scale(0.996264)"/>
      </g>
     </g>
    </g>
    <g id="ytick_3">
     <g id="line2d_9">
      <path d="M 108 377.728591 
L 777.6 377.728591 
" clip-path="url(#pe29d45493c)" style="fill: none; stroke: #cccccc; stroke-linecap: round"/>
     </g>
     <g id="text_10">
      <!-- $\mathdefault{0.5}$ -->
      <g style="fill: #262626" transform="translate(65.918521 387.241524) scale(0.275 -0.275)">
       <use xlink:href="#CMR17-30" transform="scale(0.996264)"/>
       <use xlink:href="#CMMI12-3a" transform="translate(45.690477 0) scale(0.996264)"/>
       <use xlink:href="#CMR17-35" transform="translate(72.787654 0) scale(0.996264)"/>
      </g>
     </g>
    </g>
    <g id="ytick_4">
     <g id="line2d_10">
      <path d="M 108 320.148161 
L 777.6 320.148161 
" clip-path="url(#pe29d45493c)" style="fill: none; stroke: #cccccc; stroke-linecap: round"/>
     </g>
     <g id="text_11">
      <!-- $\mathdefault{1.0}$ -->
      <g style="fill: #262626" transform="translate(65.918521 329.661094) scale(0.275 -0.275)">
       <use xlink:href="#CMR17-31" transform="scale(0.996264)"/>
       <use xlink:href="#CMMI12-3a" transform="translate(45.690477 0) scale(0.996264)"/>
       <use xlink:href="#CMR17-30" transform="translate(72.787654 0) scale(0.996264)"/>
      </g>
     </g>
    </g>
    <g id="ytick_5">
     <g id="line2d_11">
      <path d="M 108 262.567731 
L 777.6 262.567731 
" clip-path="url(#pe29d45493c)" style="fill: none; stroke: #cccccc; stroke-linecap: round"/>
     </g>
     <g id="text_12">
      <!-- $\mathdefault{1.5}$ -->
      <g style="fill: #262626" transform="translate(65.918521 272.080664) scale(0.275 -0.275)">
       <use xlink:href="#CMR17-31" transform="scale(0.996264)"/>
       <use xlink:href="#CMMI12-3a" transform="translate(45.690477 0) scale(0.996264)"/>
       <use xlink:href="#CMR17-35" transform="translate(72.787654 0) scale(0.996264)"/>
      </g>
     </g>
    </g>
    <g id="ytick_6">
     <g id="line2d_12">
      <path d="M 108 204.9873 
L 777.6 204.9873 
" clip-path="url(#pe29d45493c)" style="fill: none; stroke: #cccccc; stroke-linecap: round"/>
     </g>
     <g id="text_13">
      <!-- $\mathdefault{2.0}$ -->
      <g style="fill: #262626" transform="translate(65.918521 214.500234) scale(0.275 -0.275)">
       <use xlink:href="#CMR17-32" transform="scale(0.996264)"/>
       <use xlink:href="#CMMI12-3a" transform="translate(45.690477 0) scale(0.996264)"/>
       <use xlink:href="#CMR17-30" transform="translate(72.787654 0) scale(0.996264)"/>
      </g>
     </g>
    </g>
    <g id="ytick_7">
     <g id="line2d_13">
      <path d="M 108 147.40687 
L 777.6 147.40687 
" clip-path="url(#pe29d45493c)" style="fill: none; stroke: #cccccc; stroke-linecap: round"/>
     </g>
     <g id="text_14">
      <!-- $\mathdefault{2.5}$ -->
      <g style="fill: #262626" transform="translate(65.918521 156.919804) scale(0.275 -0.275)">
       <use xlink:href="#CMR17-32" transform="scale(0.996264)"/>
       <use xlink:href="#CMMI12-3a" transform="translate(45.690477 0) scale(0.996264)"/>
       <use xlink:href="#CMR17-35" transform="translate(72.787654 0) scale(0.996264)"/>
      </g>
     </g>
    </g>
    <g id="ytick_8">
     <g id="line2d_14">
      <path d="M 108 89.82644 
L 777.6 89.82644 
" clip-path="url(#pe29d45493c)" style="fill: none; stroke: #cccccc; stroke-linecap: round"/>
     </g>
     <g id="text_15">
      <!-- $\mathdefault{3.0}$ -->
      <g style="fill: #262626" transform="translate(65.918521 99.339374) scale(0.275 -0.275)">
       <defs>
        <path id="CMR17-33" d="M 1414 2176 
C 1984 2176 2234 1673 2234 1094 
C 2234 322 1824 25 1453 25 
C 1114 25 563 193 390 691 
C 422 678 454 678 486 678 
C 640 678 755 780 755 947 
C 755 1132 614 1216 486 1216 
C 378 1216 211 1164 211 927 
C 211 335 787 -128 1466 -128 
C 2176 -128 2720 432 2720 1087 
C 2720 1718 2208 2176 1600 2246 
C 2086 2347 2554 2776 2554 3353 
C 2554 3856 2048 4224 1472 4224 
C 890 4224 378 3862 378 3347 
C 378 3123 544 3084 627 3084 
C 762 3084 877 3167 877 3334 
C 877 3500 762 3584 627 3584 
C 602 3584 570 3584 544 3571 
C 730 3999 1235 4076 1459 4076 
C 1683 4076 2106 3966 2106 3347 
C 2106 3167 2080 2851 1862 2574 
C 1670 2329 1453 2316 1242 2297 
C 1210 2297 1062 2284 1037 2284 
C 992 2278 966 2272 966 2227 
C 966 2182 973 2176 1101 2176 
L 1414 2176 
z
" transform="scale(0.015625)"/>
       </defs>
       <use xlink:href="#CMR17-33" transform="scale(0.996264)"/>
       <use xlink:href="#CMMI12-3a" transform="translate(45.690477 0) scale(0.996264)"/>
       <use xlink:href="#CMR17-30" transform="translate(72.787654 0) scale(0.996264)"/>
      </g>
     </g>
    </g>
    <g id="text_16">
     <!-- Amplitude/Shape Indicator -->
     <g style="fill: #262626" transform="translate(33.162496 456.351872) rotate(-90) scale(0.3 -0.3)">
      <defs>
       <path id="CMR17-41" d="M 2323 4441 
C 2291 4524 2278 4544 2214 4544 
C 2150 4544 2138 4524 2106 4441 
L 749 580 
C 627 236 371 166 147 166 
L 147 0 
C 262 12 518 12 640 12 
C 800 12 1056 12 1210 0 
L 1210 166 
C 909 179 864 382 864 459 
C 864 516 877 548 890 586 
L 1229 1536 
L 2906 1536 
L 3290 453 
C 3322 376 3322 363 3322 338 
C 3322 166 3046 166 2925 166 
L 2925 0 
C 3110 12 3443 12 3642 12 
C 3808 12 4128 12 4282 0 
L 4282 166 
C 3942 166 3827 166 3744 402 
L 2323 4441 
z
M 2067 3924 
L 2848 1702 
L 1286 1702 
L 2067 3924 
z
" transform="scale(0.015625)"/>
       <path id="CMR17-69" d="M 992 3961 
C 992 4102 877 4224 730 4224 
C 589 4224 467 4108 467 3961 
C 467 3820 582 3699 730 3699 
C 870 3699 992 3814 992 3961 
z
M 243 2745 
L 243 2579 
C 602 2579 653 2540 653 2231 
L 653 443 
C 653 198 627 166 218 166 
L 218 0 
C 371 12 646 12 806 12 
C 960 12 1222 12 1370 0 
L 1370 166 
C 992 166 979 205 979 436 
L 979 2816 
L 243 2745 
z
" transform="scale(0.015625)"/>
       <path id="CMR17-74" d="M 966 2585 
L 1862 2585 
L 1862 2752 
L 966 2752 
L 966 3968 
L 851 3968 
C 838 3292 614 2700 70 2687 
L 70 2585 
L 627 2585 
L 627 778 
C 627 655 627 -64 1370 -64 
C 1747 -64 1965 308 1965 784 
L 1965 1151 
L 1850 1151 
L 1850 790 
C 1850 347 1677 51 1408 51 
C 1222 51 966 179 966 765 
L 966 2585 
z
" transform="scale(0.015625)"/>
       <path id="CMR17-64" d="M 1869 4345 
L 1869 4179 
C 2246 4179 2304 4141 2304 3843 
L 2304 2371 
C 2278 2403 2016 2816 1498 2816 
C 845 2816 211 2228 211 1376 
C 211 529 806 -64 1434 -64 
C 1978 -64 2259 361 2291 406 
L 2291 -64 
L 3066 -13 
L 3066 154 
C 2688 154 2630 193 2630 503 
L 2630 4416 
L 1869 4345 
z
M 2291 762 
C 2291 568 2176 393 2029 264 
C 1811 70 1594 38 1472 38 
C 1286 38 621 135 621 1369 
C 621 2636 1363 2713 1530 2713 
C 1824 2713 2061 2545 2208 2313 
C 2291 2177 2291 2157 2291 2041 
L 2291 762 
z
" transform="scale(0.015625)"/>
       <path id="CMR17-2f" d="M 2605 4575 
C 2637 4658 2637 4671 2637 4684 
C 2637 4761 2579 4800 2528 4800 
C 2451 4800 2426 4748 2400 4671 
L 326 -1376 
C 294 -1460 294 -1472 294 -1485 
C 294 -1562 352 -1600 403 -1600 
C 480 -1600 506 -1549 531 -1472 
L 2605 4575 
z
" transform="scale(0.015625)"/>
       <path id="CMR17-68" d="M 2656 1954 
C 2656 2282 2592 2816 1837 2816 
C 1312 2816 1056 2392 979 2179 
L 973 2179 
L 973 4416 
L 211 4345 
L 211 4179 
C 589 4179 646 4141 646 3843 
L 646 443 
C 646 198 621 166 211 166 
L 211 0 
C 365 12 646 12 813 12 
C 979 12 1267 12 1421 0 
L 1421 166 
C 1011 166 986 192 986 443 
L 986 1678 
C 986 2269 1344 2713 1792 2713 
C 2266 2713 2317 2289 2317 1980 
L 2317 443 
C 2317 198 2291 166 1882 166 
L 1882 0 
C 2035 12 2317 12 2483 12 
C 2650 12 2938 12 3091 0 
L 3091 166 
C 2682 166 2656 192 2656 443 
L 2656 1954 
z
" transform="scale(0.015625)"/>
       <path id="CMR17-49" d="M 1261 3898 
C 1261 4185 1338 4185 1798 4185 
L 1798 4352 
C 1594 4339 1267 4339 1050 4339 
C 832 4339 506 4339 301 4352 
L 301 4185 
C 762 4185 838 4185 838 3898 
L 838 453 
C 838 166 762 166 301 166 
L 301 0 
C 506 12 832 12 1050 12 
C 1267 12 1594 12 1798 0 
L 1798 166 
C 1338 166 1261 166 1261 453 
L 1261 3898 
z
" transform="scale(0.015625)"/>
       <path id="CMR17-63" d="M 2234 2240 
C 2112 2240 1933 2240 1933 2015 
C 1933 1836 2080 1785 2163 1785 
C 2208 1785 2394 1804 2394 2028 
C 2394 2476 1958 2816 1466 2816 
C 787 2816 211 2201 211 1379 
C 211 521 813 -64 1466 -64 
C 2259 -64 2458 676 2458 747 
C 2458 773 2451 792 2406 792 
C 2362 792 2355 786 2330 702 
C 2163 180 1798 51 1523 51 
C 1114 51 621 431 621 1385 
C 621 2358 1094 2700 1472 2700 
C 1722 2700 2093 2582 2234 2240 
z
" transform="scale(0.015625)"/>
       <path id="CMR17-6f" d="M 2758 1356 
C 2758 2176 2163 2816 1466 2816 
C 768 2816 173 2176 173 1356 
C 173 550 768 -64 1466 -64 
C 2163 -64 2758 550 2758 1356 
z
M 1466 51 
C 1165 51 909 230 762 480 
C 602 768 582 1126 582 1408 
C 582 1676 595 2009 762 2297 
C 890 2508 1139 2713 1466 2713 
C 1754 2713 1997 2553 2150 2329 
C 2349 2028 2349 1606 2349 1408 
C 2349 1158 2336 774 2163 467 
C 1984 172 1709 51 1466 51 
z
" transform="scale(0.015625)"/>
      </defs>
      <use xlink:href="#CMR17-41" transform="scale(0.996264)"/>
      <use xlink:href="#CMR17-6d" transform="translate(69.07243 0) scale(0.996264)"/>
      <use xlink:href="#CMR17-70" transform="translate(145.99202 0) scale(0.996264)"/>
      <use xlink:href="#CMR17-6c" transform="translate(196.887389 0) scale(0.996264)"/>
      <use xlink:href="#CMR17-69" transform="translate(221.758448 0) scale(0.996264)"/>
      <use xlink:href="#CMR17-74" transform="translate(246.629506 0) scale(0.996264)"/>
      <use xlink:href="#CMR17-75" transform="translate(281.910274 0) scale(0.996264)"/>
      <use xlink:href="#CMR17-64" transform="translate(332.805644 0) scale(0.996264)"/>
      <use xlink:href="#CMR17-65" transform="translate(383.701014 0) scale(0.996264)"/>
      <use xlink:href="#CMR17-2f" transform="translate(424.186674 0) scale(0.996264)"/>
      <use xlink:href="#CMR17-53" transform="translate(469.877151 0) scale(0.996264)"/>
      <use xlink:href="#CMR17-68" transform="translate(520.772521 0) scale(0.996264)"/>
      <use xlink:href="#CMR17-61" transform="translate(571.667891 0) scale(0.996264)"/>
      <use xlink:href="#CMR17-70" transform="translate(617.358368 0) scale(0.996264)"/>
      <use xlink:href="#CMR17-65" transform="translate(670.856177 0) scale(0.996264)"/>
      <use xlink:href="#CMR17-49" transform="translate(741.417803 0) scale(0.996264)"/>
      <use xlink:href="#CMR17-6e" transform="translate(774.056213 0) scale(0.996264)"/>
      <use xlink:href="#CMR17-64" transform="translate(824.951582 0) scale(0.996264)"/>
      <use xlink:href="#CMR17-69" transform="translate(875.846952 0) scale(0.996264)"/>
      <use xlink:href="#CMR17-63" transform="translate(900.718011 0) scale(0.996264)"/>
      <use xlink:href="#CMR17-61" transform="translate(941.203671 0) scale(0.996264)"/>
      <use xlink:href="#CMR17-74" transform="translate(986.894148 0) scale(0.996264)"/>
      <use xlink:href="#CMR17-6f" transform="translate(1022.174916 0) scale(0.996264)"/>
      <use xlink:href="#CMR17-72" transform="translate(1067.865393 0) scale(0.996264)"/>
     </g>
    </g>
   </g>
   <g id="line2d_15">
    <path d="M 140.814205 435.309021 
L 297.751705 435.309021 
L 300.129545 297.115989 
L 385.731818 297.115989 
L 388.109659 435.309021 
L 747.163636 435.309021 
L 747.163636 435.309021 
" clip-path="url(#pe29d45493c)" style="fill: none; stroke-dasharray: 11.1,4.8; stroke-dashoffset: 0; stroke: #4e79a7; stroke-width: 3"/>
   </g>
   <g id="line2d_16">
    <path d="M 140.814205 427.219285 
L 143.192045 427.528962 
L 147.947727 426.503666 
L 150.325568 427.148847 
L 155.08125 427.703021 
L 157.459091 427.712234 
L 159.836932 427.227592 
L 162.214773 427.735137 
L 164.592614 427.429982 
L 166.970455 426.827799 
L 169.348295 427.277851 
L 171.726136 427.859992 
L 174.103977 425.575299 
L 176.481818 427.508838 
L 178.859659 427.472249 
L 181.2375 427.812795 
L 183.615341 427.71299 
L 185.993182 430.686907 
L 188.371023 429.243349 
L 190.748864 426.994923 
L 193.126705 428.283172 
L 195.504545 428.572172 
L 197.882386 427.919018 
L 200.260227 428.196341 
L 202.638068 428.252398 
L 205.015909 428.526401 
L 207.39375 427.369039 
L 209.771591 428.132559 
L 212.149432 428.217204 
L 214.527273 427.858316 
L 216.905114 428.542649 
L 219.282955 427.749562 
L 221.660795 427.657097 
L 224.038636 428.424106 
L 226.416477 427.415988 
L 228.794318 426.549562 
L 231.172159 427.019078 
L 233.55 426.268578 
L 235.927841 427.09726 
L 245.439205 429.036881 
L 247.817045 429.250223 
L 252.572727 427.078194 
L 254.950568 425.625328 
L 257.328409 426.977882 
L 259.70625 427.309315 
L 262.084091 426.314595 
L 264.461932 427.571807 
L 266.839773 427.408121 
L 269.217614 427.581694 
L 271.595455 427.238514 
L 273.973295 427.412379 
L 276.351136 427.108693 
L 281.106818 427.020375 
L 283.484659 427.321125 
L 285.8625 427.107966 
L 288.240341 427.187417 
L 290.618182 426.910635 
L 292.996023 426.248332 
L 295.373864 420.808197 
L 297.751705 402.38749 
L 300.129545 348.129377 
L 302.507386 338.40131 
L 304.885227 337.455935 
L 307.263068 337.237985 
L 309.640909 335.554566 
L 312.01875 336.582125 
L 314.396591 337.453258 
L 316.774432 336.695898 
L 319.152273 336.84846 
L 321.530114 337.712694 
L 323.907955 337.576277 
L 326.285795 337.734001 
L 328.663636 337.723656 
L 331.041477 337.015245 
L 333.419318 337.816885 
L 335.797159 337.088279 
L 338.175 336.19989 
L 340.552841 337.78612 
L 342.930682 338.324308 
L 345.308523 337.959068 
L 347.686364 336.75101 
L 350.064205 337.329347 
L 352.442045 337.094971 
L 354.819886 337.427641 
L 357.197727 337.136506 
L 361.953409 335.604146 
L 364.33125 335.683577 
L 366.709091 336.634464 
L 369.086932 335.592374 
L 371.464773 335.428321 
L 373.842614 335.990129 
L 376.220455 336.290984 
L 378.598295 335.0767 
L 380.976136 335.242757 
L 383.353977 337.447513 
L 385.731818 340.630289 
L 390.4875 414.127284 
L 392.865341 425.186225 
L 395.243182 427.136067 
L 397.621023 427.433536 
L 399.998864 429.15803 
L 402.376705 430.382415 
L 404.754545 428.689957 
L 407.132386 426.700602 
L 409.510227 426.750652 
L 411.888068 428.657593 
L 414.265909 427.910053 
L 416.64375 429.434814 
L 419.021591 429.387738 
L 421.399432 428.708972 
L 423.777273 429.422542 
L 426.155114 429.14171 
L 428.532955 428.40543 
L 430.910795 428.449875 
L 433.288636 428.822799 
L 435.666477 428.769641 
L 438.044318 429.271739 
L 440.422159 428.556873 
L 442.8 428.991044 
L 445.177841 429.25321 
L 447.555682 428.684859 
L 449.933523 428.883832 
L 452.311364 428.816353 
L 454.689205 428.5817 
L 457.067045 429.334031 
L 459.444886 429.586534 
L 461.822727 428.149796 
L 464.200568 427.867972 
L 466.578409 428.566066 
L 468.95625 428.560385 
L 471.334091 429.082839 
L 473.711932 428.485537 
L 476.089773 428.836949 
L 478.467614 428.982643 
L 480.845455 429.506119 
L 483.223295 428.598001 
L 485.601136 428.230858 
L 487.978977 428.39882 
L 490.356818 427.532414 
L 492.734659 429.104815 
L 495.1125 427.153563 
L 497.490341 427.618716 
L 499.868182 427.614947 
L 502.246023 428.648487 
L 504.623864 429.097619 
L 507.001705 428.379735 
L 509.379545 428.537809 
L 511.757386 427.298005 
L 514.135227 425.853346 
L 516.513068 423.570171 
L 518.890909 422.030058 
L 521.26875 422.062385 
L 523.646591 421.824607 
L 526.024432 422.579579 
L 528.402273 422.786517 
L 530.780114 422.611064 
L 533.157955 422.794323 
L 535.535795 422.784304 
L 537.913636 422.39956 
L 540.291477 422.788923 
L 542.669318 423.620878 
L 545.047159 422.672994 
L 547.425 422.071532 
L 549.802841 422.962158 
L 552.180682 423.139385 
L 554.558523 422.976573 
L 556.936364 422.079344 
L 559.314205 422.504454 
L 561.692045 422.210654 
L 564.069886 422.672823 
L 566.447727 422.623538 
L 571.203409 423.162691 
L 575.959091 422.810398 
L 578.336932 423.338638 
L 580.714773 422.992299 
L 583.092614 422.3836 
L 585.470455 423.417405 
L 587.848295 422.419054 
L 590.226136 419.171861 
L 592.603977 429.407326 
L 594.981818 428.374309 
L 597.359659 427.993392 
L 599.7375 426.946096 
L 602.115341 426.718944 
L 604.493182 426.656579 
L 606.871023 426.897975 
L 609.248864 426.651366 
L 614.004545 427.163382 
L 616.382386 427.754038 
L 623.515909 427.059069 
L 625.89375 427.146415 
L 628.271591 427.50009 
L 630.649432 428.405535 
L 633.027273 430.153226 
L 635.405114 424.071994 
L 637.782955 420.135553 
L 642.538636 423.239158 
L 644.916477 424.120542 
L 647.294318 423.443699 
L 649.672159 422.917785 
L 652.05 423.18188 
L 654.427841 422.091038 
L 656.805682 422.104466 
L 659.183523 422.699813 
L 661.561364 423.029026 
L 663.939205 422.998801 
L 666.317045 422.665787 
L 668.694886 422.675416 
L 671.072727 422.938793 
L 673.450568 423.828845 
L 675.828409 422.920591 
L 678.20625 422.607239 
L 682.961932 423.417456 
L 685.339773 424.638471 
L 687.717614 424.646235 
L 690.095455 424.173604 
L 692.473295 423.537122 
L 694.851136 422.74605 
L 697.228977 423.119476 
L 699.606818 425.352995 
L 701.984659 426.529755 
L 704.3625 426.323224 
L 706.740341 426.972426 
L 709.118182 427.18682 
L 711.496023 426.924286 
L 713.873864 426.84208 
L 716.251705 427.119056 
L 718.629545 427.239244 
L 723.385227 427.088417 
L 725.763068 427.150085 
L 730.51875 427.833002 
L 735.274432 427.680266 
L 737.652273 428.417468 
L 740.030114 427.714613 
L 744.785795 427.0212 
L 747.163636 427.388459 
L 747.163636 427.388459 
" clip-path="url(#pe29d45493c)" style="fill: none; stroke: #4e79a7; stroke-width: 3; stroke-linecap: round"/>
   </g>
   <g id="line2d_17">
    <path d="M 140.814205 435.309021 
L 185.993182 435.309021 
L 188.371023 297.115989 
L 245.439205 297.115989 
L 247.817045 435.309021 
L 747.163636 435.309021 
L 747.163636 435.309021 
" clip-path="url(#pe29d45493c)" style="fill: none; stroke-dasharray: 11.1,4.8; stroke-dashoffset: 0; stroke: #f28e2b; stroke-width: 3"/>
   </g>
   <g id="line2d_18">
    <path d="M 140.814205 428.097895 
L 143.192045 426.796924 
L 145.569886 425.786007 
L 147.947727 426.225116 
L 150.325568 426.360835 
L 152.703409 426.014038 
L 155.08125 425.406585 
L 157.459091 425.756608 
L 159.836932 425.726972 
L 162.214773 425.332009 
L 164.592614 425.203099 
L 166.970455 425.437092 
L 169.348295 425.168055 
L 171.726136 426.084574 
L 174.103977 426.261773 
L 176.481818 426.316813 
L 178.859659 426.037154 
L 181.2375 426.739225 
L 183.615341 426.888816 
L 185.993182 425.289396 
L 188.371023 419.877129 
L 190.748864 423.188493 
L 193.126705 424.969682 
L 195.504545 425.191394 
L 197.882386 424.786533 
L 200.260227 424.496319 
L 202.638068 424.781836 
L 205.015909 424.475755 
L 207.39375 424.296391 
L 212.149432 424.274128 
L 216.905114 424.697321 
L 219.282955 424.302093 
L 221.660795 424.140313 
L 224.038636 423.696882 
L 226.416477 423.747313 
L 228.794318 422.796311 
L 231.172159 422.540907 
L 233.55 422.437246 
L 235.927841 423.26292 
L 245.439205 425.749311 
L 247.817045 425.789747 
L 250.194886 425.323756 
L 252.572727 423.689118 
L 254.950568 424.815257 
L 257.328409 428.520862 
L 259.70625 427.187284 
L 262.084091 425.516189 
L 264.461932 425.214966 
L 269.217614 425.823668 
L 271.595455 425.811876 
L 273.973295 425.97014 
L 278.728977 425.863186 
L 281.106818 426.238768 
L 283.484659 426.492165 
L 288.240341 426.563073 
L 292.996023 427.1553 
L 295.373864 429.518473 
L 297.751705 428.270043 
L 300.129545 425.492975 
L 304.885227 424.350255 
L 307.263068 423.414742 
L 309.640909 423.735873 
L 312.01875 424.636625 
L 316.774432 423.885465 
L 319.152273 424.263245 
L 321.530114 424.119363 
L 323.907955 423.557715 
L 326.285795 424.024581 
L 328.663636 423.842834 
L 331.041477 424.626244 
L 333.419318 424.129678 
L 335.797159 423.931956 
L 340.552841 424.628413 
L 342.930682 423.769632 
L 345.308523 423.657524 
L 347.686364 424.138646 
L 350.064205 424.105982 
L 352.442045 424.522864 
L 354.819886 424.559521 
L 357.197727 424.056212 
L 359.575568 423.890407 
L 361.953409 424.572626 
L 364.33125 424.553492 
L 366.709091 423.735289 
L 369.086932 424.574518 
L 371.464773 424.990468 
L 373.842614 425.080565 
L 376.220455 424.864234 
L 378.598295 425.209388 
L 380.976136 424.263031 
L 383.353977 422.746207 
L 385.731818 422.73858 
L 388.109659 425.307372 
L 390.4875 426.185317 
L 395.243182 426.664629 
L 397.621023 426.132306 
L 399.998864 427.572161 
L 402.376705 427.776925 
L 404.754545 425.509021 
L 407.132386 422.572086 
L 409.510227 422.428407 
L 411.888068 424.192445 
L 414.265909 425.767658 
L 416.64375 426.068845 
L 419.021591 425.875564 
L 421.399432 426.021915 
L 423.777273 425.780234 
L 426.155114 425.72641 
L 428.532955 425.089432 
L 430.910795 424.581694 
L 433.288636 424.661833 
L 435.666477 424.867071 
L 438.044318 425.281055 
L 440.422159 424.691867 
L 445.177841 424.687783 
L 447.555682 424.44614 
L 449.933523 424.958693 
L 452.311364 424.799551 
L 454.689205 424.387811 
L 457.067045 424.55907 
L 459.444886 424.864596 
L 461.822727 424.390031 
L 464.200568 424.374912 
L 466.578409 424.880562 
L 468.95625 424.583777 
L 471.334091 424.796962 
L 473.711932 424.832485 
L 476.089773 424.356799 
L 478.467614 424.7563 
L 480.845455 424.9826 
L 483.223295 424.722267 
L 485.601136 424.647338 
L 487.978977 424.251747 
L 490.356818 424.074751 
L 492.734659 424.290904 
L 495.1125 423.634427 
L 497.490341 424.378741 
L 499.868182 424.540312 
L 502.246023 425.153059 
L 504.623864 425.465359 
L 507.001705 425.495689 
L 509.379545 424.84918 
L 511.757386 423.141137 
L 516.513068 423.100803 
L 518.890909 422.421079 
L 521.26875 423.630731 
L 523.646591 426.156191 
L 526.024432 427.297852 
L 528.402273 427.700418 
L 530.780114 427.943136 
L 533.157955 427.859437 
L 535.535795 427.991961 
L 537.913636 427.804297 
L 540.291477 427.809802 
L 542.669318 427.14413 
L 545.047159 427.679135 
L 552.180682 427.896424 
L 554.558523 427.524376 
L 559.314205 427.252246 
L 561.692045 427.333015 
L 564.069886 427.660053 
L 566.447727 427.273287 
L 573.58125 427.729401 
L 578.336932 427.792544 
L 580.714773 427.285294 
L 585.470455 428.061492 
L 587.848295 426.577876 
L 592.603977 429.364033 
L 594.981818 428.956798 
L 597.359659 425.186437 
L 599.7375 425.287376 
L 602.115341 426.334923 
L 604.493182 426.777158 
L 606.871023 426.266169 
L 609.248864 426.308058 
L 611.626705 425.858151 
L 614.004545 425.71752 
L 616.382386 425.943075 
L 621.138068 425.869952 
L 623.515909 425.980622 
L 625.89375 425.856363 
L 628.271591 426.008878 
L 630.649432 424.887938 
L 633.027273 426.959052 
L 635.405114 426.219038 
L 637.782955 425.812881 
L 640.160795 425.963492 
L 642.538636 426.352418 
L 644.916477 426.296877 
L 647.294318 425.503823 
L 649.672159 425.874542 
L 652.05 426.06949 
L 654.427841 425.428935 
L 659.183523 425.837635 
L 661.561364 426.005203 
L 663.939205 425.989019 
L 666.317045 425.522719 
L 668.694886 425.858684 
L 673.450568 426.052912 
L 678.20625 425.767712 
L 680.584091 425.955277 
L 682.961932 425.92728 
L 685.339773 426.871799 
L 687.717614 427.004073 
L 694.851136 426.742125 
L 697.228977 427.530122 
L 699.606818 427.930346 
L 701.984659 427.278578 
L 704.3625 426.258489 
L 706.740341 425.924444 
L 709.118182 425.086395 
L 711.496023 424.59632 
L 713.873864 425.296644 
L 718.629545 426.191329 
L 721.007386 426.059504 
L 728.140909 426.06497 
L 730.51875 426.265809 
L 732.896591 425.272527 
L 735.274432 425.779643 
L 737.652273 425.88537 
L 740.030114 424.812418 
L 742.407955 426.534362 
L 744.785795 424.948838 
L 747.163636 426.946594 
L 747.163636 426.946594 
" clip-path="url(#pe29d45493c)" style="fill: none; stroke: #f28e2b; stroke-width: 3; stroke-linecap: round"/>
   </g>
   <g id="line2d_19">
    <path d="M 140.814205 435.309021 
L 521.26875 435.309021 
L 523.646591 297.115989 
L 590.226136 297.115989 
L 592.603977 435.309021 
L 747.163636 435.309021 
L 747.163636 435.309021 
" clip-path="url(#pe29d45493c)" style="fill: none; stroke-dasharray: 11.1,4.8; stroke-dashoffset: 0; stroke: #e15759; stroke-width: 3"/>
   </g>
   <g id="line2d_20">
    <path d="M 140.814205 427.657248 
L 143.192045 426.858094 
L 145.569886 426.924306 
L 147.947727 426.707565 
L 150.325568 427.406261 
L 152.703409 427.45619 
L 155.08125 427.741238 
L 157.459091 427.706775 
L 159.836932 427.106647 
L 162.214773 427.78508 
L 164.592614 427.460708 
L 166.970455 426.789865 
L 169.348295 427.451757 
L 171.726136 427.866182 
L 174.103977 425.607195 
L 176.481818 427.726571 
L 178.859659 427.66971 
L 183.615341 428.433494 
L 185.993182 427.504706 
L 188.371023 424.064103 
L 190.748864 425.215088 
L 193.126705 427.291389 
L 195.504545 427.474784 
L 197.882386 427.371985 
L 200.260227 426.891436 
L 202.638068 427.265573 
L 205.015909 426.696731 
L 207.39375 426.965329 
L 212.149432 426.541999 
L 214.527273 426.987454 
L 221.660795 426.697199 
L 224.038636 425.949972 
L 226.416477 426.246081 
L 228.794318 425.508885 
L 231.172159 424.95737 
L 233.55 425.162265 
L 235.927841 425.841476 
L 238.305682 426.348988 
L 240.683523 426.992754 
L 245.439205 428.064486 
L 250.194886 427.85594 
L 252.572727 426.235463 
L 254.950568 425.53307 
L 257.328409 426.405676 
L 259.70625 425.946092 
L 264.461932 427.376297 
L 269.217614 427.702802 
L 271.595455 427.291647 
L 273.973295 427.527543 
L 276.351136 427.195097 
L 278.728977 427.083501 
L 281.106818 427.107839 
L 283.484659 427.430222 
L 285.8625 427.14572 
L 288.240341 427.331843 
L 290.618182 427.138188 
L 292.996023 426.814558 
L 295.373864 424.093384 
L 297.751705 420.841827 
L 300.129545 419.059682 
L 302.507386 420.377965 
L 304.885227 420.877546 
L 307.263068 421.551299 
L 309.640909 422.471595 
L 312.01875 421.895482 
L 314.396591 420.835625 
L 316.774432 421.216928 
L 319.152273 421.789389 
L 321.530114 421.432468 
L 323.907955 421.629163 
L 326.285795 421.590808 
L 328.663636 422.140748 
L 331.041477 422.258417 
L 333.419318 421.038214 
L 335.797159 421.455436 
L 338.175 422.598688 
L 340.552841 421.42088 
L 342.930682 419.969367 
L 345.308523 420.441777 
L 347.686364 421.478718 
L 350.064205 421.455836 
L 354.819886 420.807988 
L 357.197727 421.108672 
L 359.575568 421.614047 
L 361.953409 422.364796 
L 364.33125 422.493406 
L 366.709091 422.234087 
L 369.086932 422.10265 
L 371.464773 422.482327 
L 376.220455 421.397828 
L 378.598295 422.332541 
L 380.976136 422.986473 
L 383.353977 422.615559 
L 385.731818 420.754872 
L 388.109659 424.814749 
L 390.4875 425.57526 
L 392.865341 427.279201 
L 397.621023 427.88279 
L 399.998864 428.110224 
L 402.376705 427.869298 
L 404.754545 425.799398 
L 407.132386 424.21361 
L 409.510227 424.880999 
L 411.888068 426.197398 
L 414.265909 428.453182 
L 416.64375 428.353118 
L 419.021591 428.063672 
L 421.399432 428.46585 
L 423.777273 428.013473 
L 426.155114 427.976291 
L 428.532955 427.47814 
L 430.910795 426.82619 
L 433.288636 426.765702 
L 438.044318 427.33334 
L 440.422159 426.992198 
L 445.177841 426.704938 
L 447.555682 426.663211 
L 449.933523 427.133137 
L 454.689205 426.563547 
L 457.067045 426.56909 
L 459.444886 426.702186 
L 464.200568 426.731331 
L 466.578409 427.065763 
L 468.95625 426.806907 
L 471.334091 426.722804 
L 473.711932 427.113961 
L 476.089773 426.327219 
L 478.467614 426.956957 
L 480.845455 426.844004 
L 485.601136 427.049959 
L 487.978977 426.440595 
L 490.356818 426.679552 
L 492.734659 426.215426 
L 495.1125 426.224756 
L 497.490341 426.920026 
L 499.868182 427.08278 
L 502.246023 427.523576 
L 504.623864 427.571794 
L 507.001705 427.881401 
L 509.379545 427.111124 
L 511.757386 425.377922 
L 514.135227 421.722117 
L 516.513068 403.730823 
L 518.890909 372.396809 
L 521.26875 351.804799 
L 523.646591 339.710085 
L 526.024432 336.737934 
L 528.402273 335.725366 
L 530.780114 335.386485 
L 533.157955 335.176998 
L 535.535795 335.160929 
L 537.913636 336.03257 
L 540.291477 336.056189 
L 545.047159 335.274682 
L 547.425 335.94519 
L 552.180682 335.639729 
L 556.936364 336.673453 
L 559.314205 336.337502 
L 561.692045 336.521865 
L 564.069886 336.255606 
L 566.447727 336.711439 
L 568.825568 336.095006 
L 571.203409 335.64323 
L 573.58125 335.822837 
L 575.959091 336.147977 
L 578.336932 335.776332 
L 580.714773 336.297244 
L 583.092614 335.753413 
L 585.470455 334.751993 
L 587.848295 336.756447 
L 590.226136 347.783906 
L 592.603977 415.142206 
L 594.981818 424.982421 
L 597.359659 427.192535 
L 599.7375 426.953663 
L 604.493182 426.807723 
L 606.871023 427.234495 
L 609.248864 426.880801 
L 611.626705 426.988426 
L 614.004545 427.224072 
L 616.382386 427.836866 
L 623.515909 427.115616 
L 625.89375 427.168623 
L 628.271591 427.515929 
L 630.649432 428.902334 
L 633.027273 428.594299 
L 635.405114 425.84152 
L 637.782955 425.789104 
L 642.538636 426.869364 
L 644.916477 428.501501 
L 649.672159 428.633386 
L 652.05 428.907821 
L 654.427841 428.255116 
L 656.805682 428.089787 
L 661.561364 428.654773 
L 666.317045 429.168464 
L 668.694886 428.823677 
L 671.072727 428.67123 
L 673.450568 429.373928 
L 675.828409 429.735184 
L 678.20625 429.138312 
L 682.961932 429.327795 
L 687.717614 429.763287 
L 690.095455 429.941562 
L 692.473295 429.15137 
L 694.851136 427.767343 
L 697.228977 426.533048 
L 699.606818 427.411468 
L 701.984659 428.513964 
L 704.3625 428.408428 
L 706.740341 427.994611 
L 709.118182 427.379449 
L 711.496023 427.063776 
L 713.873864 427.018759 
L 716.251705 427.357722 
L 718.629545 427.464129 
L 721.007386 427.319454 
L 725.763068 427.23219 
L 730.51875 427.955695 
L 735.274432 427.617258 
L 737.652273 428.556643 
L 740.030114 427.652449 
L 742.407955 427.558372 
L 744.785795 427.049579 
L 747.163636 427.454612 
L 747.163636 427.454612 
" clip-path="url(#pe29d45493c)" style="fill: none; stroke: #e15759; stroke-width: 3; stroke-linecap: round"/>
   </g>
   <g id="line2d_21">
    <path d="M 140.814205 435.309021 
L 747.163636 435.309021 
L 747.163636 435.309021 
" clip-path="url(#pe29d45493c)" style="fill: none; stroke-dasharray: 11.1,4.8; stroke-dashoffset: 0; stroke: #76b7b2; stroke-width: 3"/>
   </g>
   <g id="line2d_22">
    <path d="M 140.814205 429.107807 
L 143.192045 428.510535 
L 145.569886 428.436128 
L 147.947727 428.613931 
L 150.325568 429.136347 
L 152.703409 428.989358 
L 157.459091 429.207599 
L 159.836932 428.567261 
L 162.214773 428.628746 
L 164.592614 428.932741 
L 166.970455 428.512496 
L 169.348295 428.771617 
L 171.726136 429.775831 
L 174.103977 428.196789 
L 181.2375 429.771953 
L 185.993182 429.655809 
L 188.371023 423.681895 
L 190.748864 423.375824 
L 193.126705 425.807666 
L 195.504545 426.301926 
L 197.882386 426.578463 
L 200.260227 426.086931 
L 202.638068 426.136685 
L 205.015909 425.581073 
L 207.39375 425.895114 
L 212.149432 425.549144 
L 214.527273 425.889975 
L 216.905114 425.84512 
L 219.282955 425.653749 
L 221.660795 425.82586 
L 224.038636 425.357018 
L 226.416477 425.307775 
L 228.794318 424.50357 
L 231.172159 423.990514 
L 233.55 424.126408 
L 235.927841 424.765431 
L 238.305682 425.163848 
L 240.683523 426.007531 
L 245.439205 427.045678 
L 247.817045 426.706202 
L 250.194886 426.665452 
L 252.572727 425.049823 
L 254.950568 424.881733 
L 257.328409 426.047206 
L 259.70625 425.433908 
L 262.084091 428.205828 
L 264.461932 428.906116 
L 266.839773 429.15623 
L 269.217614 429.108902 
L 271.595455 428.798221 
L 273.973295 428.955209 
L 281.106818 428.80355 
L 283.484659 429.061804 
L 285.8625 428.929951 
L 290.618182 428.856504 
L 292.996023 428.426576 
L 295.373864 428.875991 
L 297.751705 430.435627 
L 300.129545 430.115585 
L 302.507386 430.608722 
L 304.885227 430.906043 
L 307.263068 431.053334 
L 309.640909 431.312835 
L 314.396591 430.76991 
L 321.530114 430.850518 
L 326.285795 430.636495 
L 331.041477 431.04402 
L 333.419318 430.703058 
L 335.797159 430.86161 
L 338.175 431.16379 
L 342.930682 430.524743 
L 345.308523 430.679937 
L 347.686364 431.100268 
L 350.064205 430.902514 
L 352.442045 430.959461 
L 357.197727 430.883138 
L 361.953409 431.360205 
L 364.33125 431.325618 
L 366.709091 430.990429 
L 369.086932 431.360948 
L 376.220455 431.407252 
L 378.598295 431.715484 
L 380.976136 431.511854 
L 383.353977 431.066228 
L 385.731818 430.070524 
L 388.109659 431.297653 
L 390.4875 431.241048 
L 392.865341 429.764356 
L 395.243182 429.339496 
L 397.621023 429.445372 
L 399.998864 429.677085 
L 402.376705 429.456101 
L 404.754545 426.305434 
L 407.132386 422.500414 
L 409.510227 422.673984 
L 411.888068 424.322933 
L 414.265909 426.972695 
L 419.021591 426.644918 
L 421.399432 427.125021 
L 423.777273 426.787068 
L 426.155114 426.631904 
L 433.288636 425.628508 
L 435.666477 425.78274 
L 438.044318 426.060814 
L 440.422159 425.929558 
L 442.8 425.966644 
L 445.177841 425.768657 
L 447.555682 425.90843 
L 449.933523 426.326264 
L 452.311364 425.956819 
L 457.067045 425.953398 
L 459.444886 425.702241 
L 464.200568 425.849725 
L 466.578409 425.886379 
L 471.334091 425.749634 
L 473.711932 426.05422 
L 476.089773 425.714957 
L 478.467614 426.096041 
L 480.845455 425.591095 
L 485.601136 425.9619 
L 487.978977 425.683631 
L 490.356818 425.705073 
L 492.734659 425.204433 
L 495.1125 424.852179 
L 497.490341 425.553836 
L 499.868182 425.661468 
L 502.246023 426.491142 
L 504.623864 426.362285 
L 507.001705 426.853091 
L 509.379545 426.1395 
L 511.757386 424.71017 
L 514.135227 424.945879 
L 516.513068 423.709477 
L 518.890909 423.756993 
L 521.26875 421.616833 
L 523.646591 423.263148 
L 526.024432 424.409416 
L 528.402273 424.877186 
L 533.157955 425.149298 
L 535.535795 425.019318 
L 537.913636 424.632573 
L 540.291477 424.555142 
L 542.669318 424.910845 
L 545.047159 424.52955 
L 547.425 424.293752 
L 549.802841 424.178855 
L 554.558523 424.629943 
L 564.069886 424.05748 
L 566.447727 424.29893 
L 568.825568 424.311681 
L 571.203409 424.681128 
L 573.58125 424.708776 
L 575.959091 424.423483 
L 585.470455 424.803793 
L 587.848295 424.5024 
L 590.226136 425.262672 
L 592.603977 429.619771 
L 594.981818 429.261667 
L 597.359659 428.568468 
L 599.7375 428.168342 
L 602.115341 428.75161 
L 604.493182 429.056263 
L 609.248864 428.753889 
L 611.626705 428.889702 
L 614.004545 428.59656 
L 616.382386 428.924896 
L 618.760227 429.054602 
L 623.515909 428.779086 
L 625.89375 428.969593 
L 628.271591 428.949929 
L 630.649432 430.23771 
L 633.027273 433.213015 
L 635.405114 418.786737 
L 637.782955 412.7167 
L 640.160795 416.060852 
L 642.538636 420.515558 
L 644.916477 422.650408 
L 647.294318 424.059897 
L 652.05 426.005567 
L 654.427841 425.504221 
L 656.805682 425.561206 
L 659.183523 425.853885 
L 661.561364 425.905148 
L 663.939205 425.822599 
L 666.317045 426.020456 
L 668.694886 425.985422 
L 671.072727 425.645431 
L 675.828409 426.371134 
L 678.20625 425.879956 
L 680.584091 426.237491 
L 682.961932 426.2476 
L 685.339773 426.684598 
L 687.717614 426.69079 
L 690.095455 426.847359 
L 692.473295 426.138918 
L 694.851136 424.937894 
L 697.228977 424.920181 
L 699.606818 423.843506 
L 704.3625 423.148716 
L 706.740341 424.644753 
L 709.118182 425.928627 
L 711.496023 427.44196 
L 713.873864 428.02447 
L 716.251705 428.248343 
L 718.629545 428.930078 
L 721.007386 429.033515 
L 728.140909 428.820783 
L 730.51875 429.21737 
L 732.896591 429.182961 
L 735.274432 428.794275 
L 737.652273 428.915178 
L 740.030114 428.717895 
L 742.407955 429.36485 
L 744.785795 428.449624 
L 747.163636 428.329359 
L 747.163636 428.329359 
" clip-path="url(#pe29d45493c)" style="fill: none; stroke: #76b7b2; stroke-width: 3; stroke-linecap: round"/>
   </g>
   <g id="line2d_23">
    <path d="M 140.814205 435.309021 
L 633.027273 435.309021 
L 635.405114 297.115989 
L 694.851136 297.115989 
L 697.228977 435.309021 
L 747.163636 435.309021 
L 747.163636 435.309021 
" clip-path="url(#pe29d45493c)" style="fill: none; stroke-dasharray: 11.1,4.8; stroke-dashoffset: 0; stroke: #59a14f; stroke-width: 3"/>
   </g>
   <g id="line2d_24">
    <path d="M 140.814205 427.277953 
L 143.192045 426.851591 
L 145.569886 425.021233 
L 147.947727 424.490527 
L 150.325568 425.136244 
L 152.703409 425.29868 
L 155.08125 425.700284 
L 157.459091 425.680788 
L 159.836932 424.947057 
L 162.214773 425.678369 
L 164.592614 425.343936 
L 166.970455 424.539119 
L 169.348295 425.498107 
L 171.726136 426.024557 
L 174.103977 423.407804 
L 176.481818 425.650554 
L 178.859659 425.829588 
L 181.2375 426.165256 
L 183.615341 425.895827 
L 185.993182 427.568493 
L 188.371023 426.91106 
L 190.748864 426.833548 
L 193.126705 428.799953 
L 195.504545 429.022622 
L 197.882386 429.046775 
L 200.260227 428.741578 
L 202.638068 428.999526 
L 205.015909 428.590434 
L 209.771591 428.669069 
L 212.149432 428.430878 
L 214.527273 428.661128 
L 216.905114 428.648362 
L 219.282955 428.438432 
L 221.660795 428.56438 
L 226.416477 428.170447 
L 228.794318 427.665424 
L 231.172159 427.330577 
L 233.55 427.392088 
L 235.927841 427.911727 
L 238.305682 428.225295 
L 240.683523 428.740126 
L 243.061364 429.089709 
L 245.439205 429.585555 
L 250.194886 429.283616 
L 252.572727 428.026546 
L 254.950568 427.103718 
L 257.328409 427.208605 
L 259.70625 425.873146 
L 262.084091 425.416229 
L 269.217614 425.671735 
L 271.595455 425.221965 
L 273.973295 425.422286 
L 276.351136 425.038101 
L 278.728977 424.996116 
L 281.106818 425.084137 
L 283.484659 425.386859 
L 285.8625 425.085088 
L 288.240341 425.16285 
L 290.618182 424.775656 
L 292.996023 423.677146 
L 295.373864 423.588224 
L 297.751705 424.462642 
L 300.129545 422.62975 
L 302.507386 423.418943 
L 304.885227 424.328808 
L 307.263068 424.773009 
L 309.640909 425.549324 
L 312.01875 424.665102 
L 314.396591 424.155898 
L 316.774432 424.536711 
L 319.152273 424.437744 
L 321.530114 424.089134 
L 323.907955 424.039293 
L 326.285795 423.658429 
L 331.041477 424.34025 
L 333.419318 423.894762 
L 338.175 424.895087 
L 340.552841 423.960707 
L 342.930682 423.752733 
L 345.308523 424.071129 
L 347.686364 424.849011 
L 350.064205 424.321379 
L 352.442045 424.461222 
L 354.819886 424.262489 
L 357.197727 424.454357 
L 359.575568 425.042112 
L 361.953409 425.404714 
L 364.33125 425.295499 
L 366.709091 424.668686 
L 369.086932 425.464422 
L 373.842614 425.174125 
L 376.220455 425.334922 
L 378.598295 426.023866 
L 380.976136 425.744363 
L 383.353977 424.657998 
L 385.731818 422.810898 
L 388.109659 425.344995 
L 390.4875 425.761381 
L 392.865341 425.144857 
L 395.243182 425.138057 
L 397.621023 425.713684 
L 399.998864 426.931641 
L 402.376705 427.974279 
L 404.754545 426.778328 
L 407.132386 426.270148 
L 409.510227 426.96815 
L 411.888068 428.118094 
L 414.265909 429.62773 
L 416.64375 429.828208 
L 419.021591 429.574034 
L 421.399432 429.733833 
L 426.155114 429.484873 
L 430.910795 428.650863 
L 433.288636 428.641959 
L 438.044318 429.051701 
L 440.422159 428.830425 
L 445.177841 428.784181 
L 447.555682 428.700321 
L 449.933523 428.951462 
L 452.311364 428.59771 
L 454.689205 428.579322 
L 457.067045 428.808292 
L 459.444886 428.766736 
L 464.200568 428.452507 
L 466.578409 428.721105 
L 471.334091 428.58281 
L 473.711932 428.787555 
L 476.089773 428.382686 
L 478.467614 428.952107 
L 480.845455 428.769979 
L 483.223295 428.723012 
L 485.601136 428.803879 
L 487.978977 428.422006 
L 490.356818 428.538114 
L 492.734659 428.393388 
L 495.1125 428.085778 
L 497.490341 428.571192 
L 499.868182 428.641054 
L 502.246023 429.198731 
L 504.623864 429.130284 
L 507.001705 429.2578 
L 509.379545 428.840529 
L 511.757386 427.470509 
L 514.135227 425.809445 
L 516.513068 420.907947 
L 518.890909 416.433382 
L 521.26875 417.097956 
L 523.646591 420.231103 
L 526.024432 421.46929 
L 530.780114 421.785712 
L 533.157955 421.585512 
L 537.913636 421.529199 
L 540.291477 421.338472 
L 542.669318 420.815733 
L 545.047159 420.818559 
L 547.425 421.088497 
L 549.802841 420.745629 
L 552.180682 421.053661 
L 556.936364 420.951173 
L 559.314205 420.492257 
L 561.692045 420.82699 
L 564.069886 420.669305 
L 566.447727 420.804597 
L 568.825568 420.742786 
L 571.203409 421.286923 
L 573.58125 421.330058 
L 575.959091 421.230769 
L 578.336932 420.952268 
L 580.714773 421.160337 
L 583.092614 421.087378 
L 585.470455 421.482012 
L 587.848295 421.279195 
L 590.226136 418.75043 
L 592.603977 429.301279 
L 594.981818 428.613051 
L 597.359659 426.78346 
L 599.7375 425.117745 
L 604.493182 424.696949 
L 606.871023 424.959047 
L 609.248864 424.526394 
L 611.626705 424.624825 
L 614.004545 425.110971 
L 616.382386 425.88881 
L 621.138068 425.235194 
L 623.515909 425.110177 
L 625.89375 425.258406 
L 628.271591 425.64541 
L 630.649432 424.124831 
L 633.027273 429.389054 
L 635.405114 382.454333 
L 637.782955 350.0609 
L 640.160795 345.385115 
L 642.538636 340.458172 
L 644.916477 336.563297 
L 647.294318 334.841796 
L 649.672159 334.177493 
L 652.05 333.700642 
L 654.427841 334.443787 
L 656.805682 334.920157 
L 659.183523 334.411326 
L 661.561364 334.043299 
L 666.317045 332.955116 
L 668.694886 333.391489 
L 671.072727 333.627533 
L 673.450568 332.096559 
L 675.828409 332.088898 
L 678.20625 332.514296 
L 680.584091 332.553812 
L 685.339773 332.140819 
L 687.717614 331.593625 
L 690.095455 331.890162 
L 692.473295 333.663157 
L 694.851136 335.844891 
L 697.228977 343.080369 
L 699.606818 360.882093 
L 701.984659 384.819401 
L 704.3625 403.189429 
L 706.740341 416.068576 
L 709.118182 420.743208 
L 711.496023 422.191229 
L 716.251705 424.640036 
L 718.629545 424.886707 
L 723.385227 424.906008 
L 725.763068 424.989506 
L 728.140909 425.489601 
L 730.51875 425.846625 
L 732.896591 425.578079 
L 735.274432 425.633541 
L 737.652273 426.612769 
L 740.030114 425.522107 
L 742.407955 425.060147 
L 744.785795 425.057235 
L 747.163636 423.757115 
L 747.163636 423.757115 
" clip-path="url(#pe29d45493c)" style="fill: none; stroke: #59a14f; stroke-width: 3; stroke-linecap: round"/>
   </g>
   <g id="line2d_25">
    <path d="M 140.814205 435.309021 
L 409.510227 435.309021 
L 411.888068 297.115989 
L 514.135227 297.115989 
L 516.513068 435.309021 
L 747.163636 435.309021 
L 747.163636 435.309021 
" clip-path="url(#pe29d45493c)" style="fill: none; stroke-dasharray: 11.1,4.8; stroke-dashoffset: 0; stroke: #edc948; stroke-width: 3"/>
   </g>
   <g id="line2d_26">
    <path d="M 140.814205 425.759766 
L 143.192045 425.388099 
L 145.569886 423.177133 
L 147.947727 423.625408 
L 150.325568 424.397376 
L 152.703409 424.572775 
L 155.08125 424.571766 
L 157.459091 424.733803 
L 159.836932 424.571728 
L 162.214773 424.575416 
L 164.592614 424.225607 
L 166.970455 424.106838 
L 169.348295 423.67037 
L 171.726136 424.490233 
L 174.103977 423.571161 
L 176.481818 424.408393 
L 178.859659 423.672844 
L 181.2375 424.030433 
L 183.615341 421.949953 
L 185.993182 402.02873 
L 188.371023 358.439762 
L 190.748864 342.238773 
L 193.126705 339.251054 
L 195.504545 338.595812 
L 200.260227 338.925798 
L 202.638068 338.845377 
L 205.015909 339.057829 
L 207.39375 339.758333 
L 209.771591 339.1887 
L 214.527273 339.435074 
L 216.905114 338.91848 
L 219.282955 339.71522 
L 221.660795 339.53448 
L 224.038636 339.095987 
L 228.794318 341.290742 
L 231.172159 341.293961 
L 233.55 341.762526 
L 235.927841 340.728652 
L 238.305682 340.136594 
L 240.683523 339.072415 
L 243.061364 338.400575 
L 245.439205 337.552204 
L 247.817045 337.694154 
L 250.194886 338.635205 
L 252.572727 340.671406 
L 254.950568 350.678644 
L 257.328409 377.460362 
L 259.70625 405.757558 
L 262.084091 420.436854 
L 264.461932 423.800404 
L 266.839773 424.217528 
L 269.217614 424.426686 
L 271.595455 424.151956 
L 273.973295 424.385656 
L 278.728977 424.16179 
L 281.106818 424.059416 
L 283.484659 424.290205 
L 285.8625 424.222749 
L 288.240341 424.384341 
L 290.618182 424.227394 
L 292.996023 423.159042 
L 295.373864 423.267603 
L 297.751705 424.294028 
L 300.129545 423.528168 
L 302.507386 423.540994 
L 304.885227 423.948365 
L 309.640909 424.092482 
L 312.01875 423.942187 
L 314.396591 423.568144 
L 316.774432 423.333578 
L 319.152273 423.558015 
L 321.530114 423.657066 
L 323.907955 423.116216 
L 326.285795 423.042174 
L 331.041477 423.78864 
L 333.419318 423.396849 
L 335.797159 423.511569 
L 338.175 423.791414 
L 340.552841 423.804894 
L 342.930682 423.35645 
L 345.308523 423.537243 
L 347.686364 424.125004 
L 350.064205 423.701845 
L 352.442045 423.95681 
L 354.819886 423.926032 
L 357.197727 423.710451 
L 361.953409 424.334563 
L 364.33125 424.204196 
L 366.709091 423.48651 
L 369.086932 424.422383 
L 371.464773 424.275267 
L 373.842614 424.560434 
L 378.598295 425.334718 
L 385.731818 422.679763 
L 388.109659 424.613959 
L 390.4875 424.434546 
L 392.865341 423.375933 
L 395.243182 423.947414 
L 397.621023 423.073248 
L 399.998864 419.216751 
L 402.376705 406.823892 
L 404.754545 377.850807 
L 407.132386 353.302907 
L 409.510227 343.212943 
L 411.888068 339.907813 
L 416.64375 337.360901 
L 421.399432 337.857967 
L 423.777273 337.359837 
L 426.155114 337.815128 
L 428.532955 338.707457 
L 430.910795 338.94164 
L 435.666477 338.734824 
L 438.044318 338.114294 
L 440.422159 338.755856 
L 442.8 338.291628 
L 445.177841 338.201708 
L 447.555682 338.597843 
L 449.933523 338.201839 
L 452.311364 338.63618 
L 454.689205 338.66192 
L 457.067045 337.916524 
L 459.444886 337.983045 
L 461.822727 339.223138 
L 464.200568 339.484262 
L 466.578409 338.915893 
L 468.95625 338.889116 
L 471.334091 338.528365 
L 473.711932 338.84951 
L 476.089773 338.692671 
L 478.467614 338.188653 
L 480.845455 338.200836 
L 483.223295 338.873479 
L 487.978977 339.078222 
L 490.356818 339.719956 
L 492.734659 338.757091 
L 495.1125 340.703296 
L 497.490341 339.883226 
L 499.868182 339.846311 
L 502.246023 338.27442 
L 504.623864 338.113168 
L 509.379545 338.680419 
L 511.757386 340.728927 
L 514.135227 350.265904 
L 516.513068 371.996754 
L 518.890909 402.601173 
L 521.26875 420.005454 
L 523.646591 426.868378 
L 526.024432 428.385935 
L 530.780114 429.062549 
L 533.157955 428.842342 
L 535.535795 428.878469 
L 537.913636 428.732404 
L 540.291477 428.397939 
L 542.669318 427.571704 
L 545.047159 428.417676 
L 547.425 428.654781 
L 549.802841 428.062202 
L 552.180682 428.233308 
L 554.558523 427.856338 
L 556.936364 428.067944 
L 559.314205 427.736062 
L 561.692045 428.131821 
L 566.447727 427.750683 
L 568.825568 427.874436 
L 571.203409 428.387883 
L 575.959091 428.29111 
L 578.336932 427.918518 
L 580.714773 427.987749 
L 585.470455 428.845362 
L 587.848295 428.305378 
L 590.226136 426.86694 
L 594.981818 427.888964 
L 597.359659 425.200303 
L 599.7375 423.363373 
L 604.493182 423.905636 
L 606.871023 423.912924 
L 611.626705 424.531274 
L 614.004545 424.321485 
L 616.382386 424.444503 
L 621.138068 424.009283 
L 628.271591 423.781871 
L 630.649432 424.691956 
L 633.027273 428.174648 
L 635.405114 424.803155 
L 637.782955 424.794008 
L 640.160795 424.89871 
L 642.538636 425.153291 
L 644.916477 426.17783 
L 647.294318 426.109733 
L 649.672159 426.368891 
L 652.05 426.470742 
L 654.427841 426.229385 
L 656.805682 426.263228 
L 663.939205 426.761995 
L 666.317045 426.60554 
L 668.694886 426.801609 
L 671.072727 426.733513 
L 673.450568 427.205656 
L 680.584091 427.130927 
L 682.961932 427.177718 
L 685.339773 427.609746 
L 687.717614 427.873816 
L 690.095455 427.533988 
L 692.473295 426.95528 
L 694.851136 426.773927 
L 697.228977 427.112801 
L 699.606818 428.617439 
L 701.984659 428.892959 
L 704.3625 428.407947 
L 706.740341 427.375373 
L 709.118182 426.63271 
L 711.496023 425.336771 
L 713.873864 424.795001 
L 716.251705 424.378649 
L 721.007386 424.428103 
L 725.763068 424.33413 
L 728.140909 424.496033 
L 730.51875 424.991019 
L 732.896591 424.98286 
L 735.274432 424.807473 
L 737.652273 424.777014 
L 740.030114 424.252541 
L 742.407955 425.299025 
L 744.785795 423.592744 
L 747.163636 423.85719 
L 747.163636 423.85719 
" clip-path="url(#pe29d45493c)" style="fill: none; stroke: #edc948; stroke-width: 3; stroke-linecap: round"/>
   </g>
   <g id="line2d_27">
    <path d="M 138.436364 459.106889 
L 140.814205 465.352074 
L 143.192045 440.565088 
L 145.569886 420.498524 
L 147.947727 448.134278 
L 150.325568 403.563164 
L 152.703409 432.236631 
L 155.08125 421.555272 
L 157.459091 370.598051 
L 159.836932 444.101485 
L 162.214773 436.425337 
L 164.592614 383.090322 
L 166.970455 450.698745 
L 169.348295 456.512598 
L 171.726136 350.686865 
L 174.103977 458.084399 
L 176.481818 424.362526 
L 178.859659 466.999756 
L 181.2375 422.093337 
L 183.615341 435.934025 
L 185.993182 417.828539 
L 188.371023 463.87267 
L 190.748864 409.263877 
L 193.126705 423.032577 
L 195.504545 378.821378 
L 197.882386 390.407882 
L 200.260227 360.798972 
L 202.638068 374.408311 
L 205.015909 335.196027 
L 207.39375 353.471306 
L 209.771591 351.651742 
L 212.149432 322.97814 
L 214.527273 347.503123 
L 216.905114 325.222345 
L 219.282955 346.990532 
L 221.660795 382.684598 
L 224.038636 335.282851 
L 226.416477 317.295344 
L 228.794318 360.456861 
L 231.172159 327.101901 
L 233.55 349.528937 
L 235.927841 364.011078 
L 238.305682 395.869209 
L 240.683523 398.675153 
L 243.061364 439.044633 
L 245.439205 445.359823 
L 247.817045 408.579475 
L 250.194886 433.694225 
L 252.572727 377.626368 
L 254.950568 445.529983 
L 257.328409 463.99289 
L 259.70625 485.036295 
L 262.084091 440.99749 
L 264.461932 431.068366 
L 266.839773 438.043528 
L 269.217614 410.457914 
L 271.595455 448.454879 
L 273.973295 418.453806 
L 276.351136 406.723054 
L 278.728977 412.191139 
L 281.106818 442.991338 
L 283.484659 421.26775 
L 285.8625 454.848399 
L 288.240341 423.731116 
L 290.618182 425.535906 
L 292.996023 430.003146 
L 295.373864 418.957992 
L 297.751705 337.320082 
L 300.129545 350.601985 
L 302.507386 337.527531 
L 304.885227 361.282501 
L 307.263068 300.861043 
L 309.640909 365.223202 
L 312.01875 390.276849 
L 314.396591 347.30321 
L 316.774432 362.243121 
L 319.152273 337.813462 
L 321.530114 334.831034 
L 323.907955 334.533672 
L 326.285795 292.502529 
L 328.663636 334.149656 
L 331.041477 346.766386 
L 333.419318 328.452728 
L 335.797159 303.329067 
L 338.175 353.093312 
L 340.552841 366.218295 
L 342.930682 376.76274 
L 345.308523 323.280628 
L 347.686364 382.216132 
L 350.064205 361.851187 
L 352.442045 349.365827 
L 354.819886 387.243684 
L 357.197727 345.6711 
L 359.575568 353.055873 
L 361.953409 305.620173 
L 364.33125 369.440925 
L 366.709091 329.529761 
L 369.086932 326.136177 
L 371.464773 365.219556 
L 373.842614 365.829677 
L 376.220455 337.097458 
L 378.598295 324.103549 
L 380.976136 340.411618 
L 383.353977 318.429076 
L 385.731818 422.862428 
L 388.109659 444.483261 
L 390.4875 415.831532 
L 392.865341 429.695705 
L 395.243182 480.409548 
L 397.621023 399.809124 
L 399.998864 441.632145 
L 402.376705 429.739197 
L 404.754545 401.504764 
L 407.132386 434.062848 
L 409.510227 439.587448 
L 411.888068 358.293992 
L 414.265909 402.598485 
L 416.64375 395.496147 
L 419.021591 337.798783 
L 421.399432 380.780043 
L 423.777273 346.980968 
L 426.155114 306.452036 
L 428.532955 329.760651 
L 430.910795 299.614926 
L 433.288636 315.756317 
L 435.666477 284.625965 
L 438.044318 242.291615 
L 440.422159 261.780929 
L 442.8 207.719049 
L 445.177841 200.073685 
L 447.555682 190.720944 
L 449.933523 151.265522 
L 452.311364 178.801894 
L 454.689205 224.52635 
L 457.067045 167.098807 
L 459.444886 89.28 
L 461.822727 124.223087 
L 464.200568 125.947449 
L 466.578409 171.811547 
L 468.95625 225.639125 
L 471.334091 166.111951 
L 473.711932 217.570947 
L 476.089773 262.95723 
L 478.467614 233.205514 
L 480.845455 231.179289 
L 483.223295 227.712974 
L 485.601136 242.618521 
L 487.978977 263.559553 
L 490.356818 333.395459 
L 492.734659 289.901007 
L 495.1125 321.339675 
L 497.490341 323.802657 
L 499.868182 391.809942 
L 504.623864 368.674239 
L 507.001705 447.527156 
L 509.379545 411.108769 
L 511.757386 430.553985 
L 514.135227 406.601557 
L 516.513068 445.601062 
L 518.890909 402.915567 
L 521.26875 415.926821 
L 523.646591 392.653448 
L 526.024432 402.725179 
L 528.402273 403.64279 
L 530.780114 421.905649 
L 533.157955 371.859312 
L 537.913636 432.002847 
L 540.291477 408.262873 
L 545.047159 345.10784 
L 547.425 383.814156 
L 549.802841 337.053519 
L 552.180682 367.843101 
L 554.558523 337.817014 
L 556.936364 330.806681 
L 559.314205 311.962396 
L 561.692045 341.804691 
L 564.069886 346.49002 
L 566.447727 319.704479 
L 568.825568 306.32527 
L 571.203409 310.76384 
L 573.58125 302.235934 
L 575.959091 328.605543 
L 578.336932 295.154098 
L 580.714773 278.217952 
L 583.092614 322.673386 
L 585.470455 261.207862 
L 587.848295 307.413931 
L 590.226136 445.53149 
L 592.603977 439.984851 
L 594.981818 436.378798 
L 597.359659 443.465312 
L 599.7375 481.563064 
L 602.115341 435.172771 
L 604.493182 460.402963 
L 606.871023 455.496322 
L 609.248864 400.493288 
L 611.626705 408.199562 
L 614.004545 440.675879 
L 616.382386 440.082618 
L 618.760227 425.033952 
L 621.138068 425.05121 
L 623.515909 440.514399 
L 625.89375 425.922607 
L 628.271591 418.516891 
L 630.649432 444.649667 
L 633.027273 256.228597 
L 635.405114 219.357029 
L 637.782955 238.077711 
L 640.160795 254.871224 
L 642.538636 191.900219 
L 644.916477 227.44352 
L 647.294318 228.997755 
L 649.672159 226.448886 
L 652.05 260.584354 
L 654.427841 268.512151 
L 656.805682 269.536438 
L 659.183523 276.301861 
L 661.561364 280.85134 
L 663.939205 264.656687 
L 666.317045 300.075926 
L 668.694886 299.57202 
L 671.072727 269.972344 
L 673.450568 287.455283 
L 675.828409 327.279656 
L 678.20625 322.017323 
L 680.584091 325.795374 
L 682.961932 353.99394 
L 685.339773 333.186799 
L 687.717614 326.463793 
L 690.095455 359.442607 
L 692.473295 381.496575 
L 694.851136 426.126877 
L 697.228977 435.863639 
L 699.606818 455.094442 
L 701.984659 440.096584 
L 704.3625 437.242693 
L 706.740341 446.617487 
L 711.496023 424.468559 
L 713.873864 466.11538 
L 716.251705 472.919064 
L 718.629545 465.829593 
L 721.007386 460.597834 
L 723.385227 428.688236 
L 725.763068 420.120866 
L 728.140909 483.534819 
L 730.51875 425.875131 
L 732.896591 393.033935 
L 735.274432 492.48 
L 740.030114 450.98098 
L 742.407955 381.831523 
L 744.785795 453.704836 
L 744.785795 453.704836 
" clip-path="url(#pe29d45493c)" style="fill: none; stroke: #808080; stroke-width: 2; stroke-linecap: round"/>
   </g>
   <g id="patch_3">
    <path d="M 108 512.64 
L 108 69.12 
" style="fill: none; stroke: #ffffff; stroke-width: 1.25; stroke-linejoin: miter; stroke-linecap: square"/>
   </g>
   <g id="patch_4">
    <path d="M 777.6 512.64 
L 777.6 69.12 
" style="fill: none; stroke: #ffffff; stroke-width: 1.25; stroke-linejoin: miter; stroke-linecap: square"/>
   </g>
   <g id="patch_5">
    <path d="M 108 512.64 
L 777.6 512.64 
" style="fill: none; stroke: #ffffff; stroke-width: 1.25; stroke-linejoin: miter; stroke-linecap: square"/>
   </g>
   <g id="patch_6">
    <path d="M 108 69.12 
L 777.6 69.12 
" style="fill: none; stroke: #ffffff; stroke-width: 1.25; stroke-linejoin: miter; stroke-linecap: square"/>
   </g>
   <g id="text_17">
    <!-- Predicted (solid) vs GT (dotted) Shape Type -->
    <g style="fill: #262626" transform="translate(170.683398 61.673027) scale(0.3 -0.3)">
     <defs>
      <path id="CMR17-50" d="M 1267 2048 
L 2291 2048 
C 3117 2048 3718 2583 3718 3187 
C 3718 3791 3130 4352 2291 4352 
L 333 4352 
L 333 4185 
C 774 4185 845 4185 845 3899 
L 845 453 
C 845 166 774 166 333 166 
L 333 0 
C 518 12 858 12 1056 12 
C 1254 12 1594 12 1779 0 
L 1779 166 
C 1338 166 1267 166 1267 453 
L 1267 2048 
z
M 1254 2182 
L 1254 3937 
C 1254 4153 1267 4185 1523 4185 
L 2170 4185 
C 2995 4185 3232 3715 3232 3187 
C 3232 2608 2950 2182 2170 2182 
L 1254 2182 
z
" transform="scale(0.015625)"/>
      <path id="CMR17-28" d="M 1958 -1562 
C 1958 -1556 1958 -1543 1939 -1524 
C 1645 -1223 858 -403 858 1596 
C 858 3595 1632 4408 1946 4729 
C 1946 4735 1958 4748 1958 4767 
C 1958 4787 1939 4800 1914 4800 
C 1843 4800 1299 4325 986 3620 
C 666 2909 576 2218 576 1603 
C 576 1141 621 360 1005 -467 
C 1312 -1133 1837 -1600 1914 -1600 
C 1946 -1600 1958 -1588 1958 -1562 
z
" transform="scale(0.015625)"/>
      <path id="CMR17-73" d="M 1978 2688 
C 1978 2803 1971 2809 1933 2809 
C 1907 2809 1901 2803 1824 2707 
C 1805 2681 1747 2617 1728 2592 
C 1523 2809 1235 2816 1126 2816 
C 416 2816 160 2444 160 2073 
C 160 1497 813 1363 998 1324 
C 1402 1241 1542 1216 1677 1100 
C 1760 1024 1901 883 1901 652 
C 1901 384 1747 38 1158 38 
C 602 38 403 460 288 1024 
C 269 1113 269 1120 218 1120 
C 166 1120 160 1113 160 985 
L 160 64 
C 160 -52 166 -58 205 -58 
C 237 -58 243 -52 275 0 
C 314 57 410 211 448 275 
C 576 102 800 -64 1158 -64 
C 1792 -64 2131 281 2131 780 
C 2131 1107 1958 1280 1875 1356 
C 1683 1555 1459 1600 1190 1651 
C 838 1728 390 1817 390 2208 
C 390 2374 480 2726 1126 2726 
C 1811 2726 1850 2086 1862 1881 
C 1869 1849 1901 1843 1920 1843 
C 1978 1843 1978 1862 1978 1971 
L 1978 2688 
z
" transform="scale(0.015625)"/>
      <path id="CMR17-29" d="M 1683 1596 
C 1683 2057 1638 2839 1254 3665 
C 947 4332 422 4800 346 4800 
C 326 4800 301 4793 301 4761 
C 301 4748 307 4742 314 4729 
C 621 4408 1402 3595 1402 1603 
C 1402 -396 627 -1210 314 -1530 
C 307 -1543 301 -1549 301 -1562 
C 301 -1594 326 -1600 346 -1600 
C 416 -1600 960 -1127 1274 -422 
C 1594 289 1683 981 1683 1596 
z
" transform="scale(0.015625)"/>
      <path id="CMR17-76" d="M 2502 2173 
C 2560 2315 2662 2572 3034 2585 
L 3034 2752 
C 2912 2745 2752 2739 2630 2739 
C 2496 2739 2285 2739 2157 2752 
L 2157 2585 
C 2317 2572 2406 2495 2406 2328 
C 2406 2270 2406 2257 2368 2167 
L 1664 379 
L 902 2308 
C 864 2392 864 2405 864 2431 
C 864 2585 1075 2585 1171 2585 
L 1171 2752 
C 1018 2739 736 2739 576 2739 
C 403 2739 205 2739 64 2752 
L 64 2585 
C 307 2585 442 2585 518 2386 
L 1446 44 
C 1485 -52 1491 -64 1549 -64 
C 1606 -64 1613 -52 1651 44 
L 2502 2173 
z
" transform="scale(0.015625)"/>
      <path id="CMR17-47" d="M 3974 1258 
C 3974 1503 3994 1536 4390 1536 
L 4390 1702 
C 4237 1689 3891 1689 3718 1689 
C 3539 1689 3040 1696 2797 1702 
L 2797 1536 
L 2989 1536 
C 3539 1536 3552 1464 3552 1232 
L 3552 806 
C 3552 96 2720 38 2522 38 
C 1862 38 781 496 781 2179 
C 781 3862 1843 4313 2464 4313 
C 3187 4313 3712 3681 3834 2785 
C 3846 2708 3846 2695 3904 2695 
C 3974 2695 3974 2708 3974 2824 
L 3974 4351 
C 3974 4467 3968 4473 3930 4473 
C 3904 4473 3898 4467 3853 4390 
L 3571 3849 
C 3258 4249 2874 4480 2381 4480 
C 1286 4480 294 3507 294 2179 
C 294 858 1267 -128 2394 -128 
C 2912 -128 3418 57 3616 425 
C 3725 161 3904 -20 3936 -20 
C 3968 -20 3974 -13 3974 102 
L 3974 1258 
z
" transform="scale(0.015625)"/>
      <path id="CMR17-54" d="M 3981 4332 
L 288 4332 
L 179 2924 
L 294 2924 
C 378 3981 467 4166 1453 4166 
C 1568 4166 1754 4166 1805 4159 
C 1926 4140 1926 4064 1926 3917 
L 1926 465 
C 1926 236 1907 166 1376 166 
L 1197 166 
L 1197 0 
C 1504 6 1824 12 2138 12 
C 2451 12 2771 6 3078 0 
L 3078 166 
L 2899 166 
C 2368 166 2349 236 2349 465 
L 2349 3917 
C 2349 4057 2349 4134 2464 4159 
C 2515 4166 2701 4166 2816 4166 
C 3795 4166 3891 3981 3974 2924 
L 4090 2924 
L 3981 4332 
z
" transform="scale(0.015625)"/>
      <path id="CMR17-79" d="M 2496 2183 
C 2656 2579 2944 2585 3034 2585 
L 3034 2752 
C 2912 2745 2752 2739 2630 2739 
C 2496 2739 2285 2739 2157 2752 
L 2157 2585 
C 2400 2566 2406 2384 2406 2332 
C 2406 2268 2394 2235 2362 2158 
L 1664 409 
L 902 2300 
C 870 2378 870 2423 870 2430 
C 870 2572 1018 2585 1171 2585 
L 1171 2752 
C 1018 2739 742 2739 582 2739 
C 410 2739 205 2739 64 2752 
L 64 2585 
C 410 2585 448 2553 531 2345 
L 1485 -31 
C 1197 -795 1030 -1242 627 -1242 
C 557 -1242 397 -1223 282 -1106 
C 429 -1093 493 -1002 493 -892 
C 493 -782 416 -685 288 -685 
C 147 -685 77 -782 77 -899 
C 77 -1158 339 -1344 627 -1344 
C 998 -1344 1229 -983 1357 -659 
L 2496 2183 
z
" transform="scale(0.015625)"/>
     </defs>
     <use xlink:href="#CMR17-50" transform="scale(0.996264)"/>
     <use xlink:href="#CMR17-72" transform="translate(62.586301 0) scale(0.996264)"/>
     <use xlink:href="#CMR17-65" transform="translate(97.867068 0) scale(0.996264)"/>
     <use xlink:href="#CMR17-64" transform="translate(138.352729 0) scale(0.996264)"/>
     <use xlink:href="#CMR17-69" transform="translate(189.248099 0) scale(0.996264)"/>
     <use xlink:href="#CMR17-63" transform="translate(214.119157 0) scale(0.996264)"/>
     <use xlink:href="#CMR17-74" transform="translate(254.604818 0) scale(0.996264)"/>
     <use xlink:href="#CMR17-65" transform="translate(289.885585 0) scale(0.996264)"/>
     <use xlink:href="#CMR17-64" transform="translate(330.371246 0) scale(0.996264)"/>
     <use xlink:href="#CMR17-28" transform="translate(411.342582 0) scale(0.996264)"/>
     <use xlink:href="#CMR17-73" transform="translate(446.62335 0) scale(0.996264)"/>
     <use xlink:href="#CMR17-6f" transform="translate(482.424687 0) scale(0.996264)"/>
     <use xlink:href="#CMR17-6c" transform="translate(528.115164 0) scale(0.996264)"/>
     <use xlink:href="#CMR17-69" transform="translate(552.986223 0) scale(0.996264)"/>
     <use xlink:href="#CMR17-64" transform="translate(577.857281 0) scale(0.996264)"/>
     <use xlink:href="#CMR17-29" transform="translate(628.752651 0) scale(0.996264)"/>
     <use xlink:href="#CMR17-76" transform="translate(694.109385 0) scale(0.996264)"/>
     <use xlink:href="#CMR17-73" transform="translate(742.402301 0) scale(0.996264)"/>
     <use xlink:href="#CMR17-47" transform="translate(808.279605 0) scale(0.996264)"/>
     <use xlink:href="#CMR17-54" transform="translate(880.634951 0) scale(0.996264)"/>
     <use xlink:href="#CMR17-28" transform="translate(977.220798 0) scale(0.996264)"/>
     <use xlink:href="#CMR17-64" transform="translate(1012.501566 0) scale(0.996264)"/>
     <use xlink:href="#CMR17-6f" transform="translate(1063.396936 0) scale(0.996264)"/>
     <use xlink:href="#CMR17-74" transform="translate(1109.087413 0) scale(0.996264)"/>
     <use xlink:href="#CMR17-74" transform="translate(1144.36818 0) scale(0.996264)"/>
     <use xlink:href="#CMR17-65" transform="translate(1179.648948 0) scale(0.996264)"/>
     <use xlink:href="#CMR17-64" transform="translate(1220.134609 0) scale(0.996264)"/>
     <use xlink:href="#CMR17-29" transform="translate(1271.029979 0) scale(0.996264)"/>
     <use xlink:href="#CMR17-53" transform="translate(1336.386713 0) scale(0.996264)"/>
     <use xlink:href="#CMR17-68" transform="translate(1387.282082 0) scale(0.996264)"/>
     <use xlink:href="#CMR17-61" transform="translate(1438.177452 0) scale(0.996264)"/>
     <use xlink:href="#CMR17-70" transform="translate(1483.867929 0) scale(0.996264)"/>
     <use xlink:href="#CMR17-65" transform="translate(1537.365738 0) scale(0.996264)"/>
     <use xlink:href="#CMR17-54" transform="translate(1607.927365 0) scale(0.996264)"/>
     <use xlink:href="#CMR17-79" transform="translate(1671.834791 0) scale(0.996264)"/>
     <use xlink:href="#CMR17-70" transform="translate(1720.127707 0) scale(0.996264)"/>
     <use xlink:href="#CMR17-65" transform="translate(1773.625516 0) scale(0.996264)"/>
    </g>
   </g>
   <g id="legend_1">
    <g id="patch_7">
     <path d="M 787.279449 409.992 
L 901.840551 409.992 
Q 907.340551 409.992 907.340551 404.492 
L 907.340551 177.268 
Q 907.340551 171.768 901.840551 171.768 
L 787.279449 171.768 
Q 781.779449 171.768 781.779449 177.268 
L 781.779449 404.492 
Q 781.779449 409.992 787.279449 409.992 
z
" style="fill: #ffffff; opacity: 0.8; stroke: #cccccc; stroke-linejoin: miter"/>
    </g>
    <g id="line2d_28">
     <path d="M 792.779449 192.393 
L 820.279449 192.393 
L 847.779449 192.393 
" style="fill: none; stroke: #4e79a7; stroke-width: 3; stroke-linecap: round"/>
    </g>
    <g id="text_18">
     <!-- S1 -->
     <g style="fill: #262626" transform="translate(869.779449 202.018) scale(0.275 -0.275)">
      <use xlink:href="#CMR17-53" transform="scale(0.996264)"/>
      <use xlink:href="#CMR17-31" transform="translate(50.89537 0) scale(0.996264)"/>
     </g>
    </g>
    <g id="line2d_29">
     <path d="M 792.779449 230.722 
L 820.279449 230.722 
L 847.779449 230.722 
" style="fill: none; stroke: #f28e2b; stroke-width: 3; stroke-linecap: round"/>
    </g>
    <g id="text_19">
     <!-- S2 -->
     <g style="fill: #262626" transform="translate(869.779449 240.347) scale(0.275 -0.275)">
      <use xlink:href="#CMR17-53" transform="scale(0.996264)"/>
      <use xlink:href="#CMR17-32" transform="translate(50.89537 0) scale(0.996264)"/>
     </g>
    </g>
    <g id="line2d_30">
     <path d="M 792.779449 269.051 
L 820.279449 269.051 
L 847.779449 269.051 
" style="fill: none; stroke: #e15759; stroke-width: 3; stroke-linecap: round"/>
    </g>
    <g id="text_20">
     <!-- S3 -->
     <g style="fill: #262626" transform="translate(869.779449 278.676) scale(0.275 -0.275)">
      <use xlink:href="#CMR17-53" transform="scale(0.996264)"/>
      <use xlink:href="#CMR17-33" transform="translate(50.89537 0) scale(0.996264)"/>
     </g>
    </g>
    <g id="line2d_31">
     <path d="M 792.779449 307.38 
L 820.279449 307.38 
L 847.779449 307.38 
" style="fill: none; stroke: #76b7b2; stroke-width: 3; stroke-linecap: round"/>
    </g>
    <g id="text_21">
     <!-- S4 -->
     <g style="fill: #262626" transform="translate(869.779449 317.005) scale(0.275 -0.275)">
      <defs>
       <path id="CMR17-34" d="M 2150 4147 
C 2150 4281 2144 4288 2029 4288 
L 128 1254 
L 128 1088 
L 1779 1088 
L 1779 460 
C 1779 230 1766 166 1318 166 
L 1197 166 
L 1197 0 
C 1402 12 1747 12 1965 12 
C 2182 12 2528 12 2733 0 
L 2733 166 
L 2611 166 
C 2163 166 2150 230 2150 460 
L 2150 1088 
L 2803 1088 
L 2803 1254 
L 2150 1254 
L 2150 4147 
z
M 1798 3723 
L 1798 1254 
L 256 1254 
L 1798 3723 
z
" transform="scale(0.015625)"/>
      </defs>
      <use xlink:href="#CMR17-53" transform="scale(0.996264)"/>
      <use xlink:href="#CMR17-34" transform="translate(50.89537 0) scale(0.996264)"/>
     </g>
    </g>
    <g id="line2d_32">
     <path d="M 792.779449 345.709 
L 820.279449 345.709 
L 847.779449 345.709 
" style="fill: none; stroke: #59a14f; stroke-width: 3; stroke-linecap: round"/>
    </g>
    <g id="text_22">
     <!-- S5 -->
     <g style="fill: #262626" transform="translate(869.779449 355.334) scale(0.275 -0.275)">
      <use xlink:href="#CMR17-53" transform="scale(0.996264)"/>
      <use xlink:href="#CMR17-35" transform="translate(50.89537 0) scale(0.996264)"/>
     </g>
    </g>
    <g id="line2d_33">
     <path d="M 792.779449 384.038 
L 820.279449 384.038 
L 847.779449 384.038 
" style="fill: none; stroke: #edc948; stroke-width: 3; stroke-linecap: round"/>
    </g>
    <g id="text_23">
     <!-- S6 -->
     <g style="fill: #262626" transform="translate(869.779449 393.663) scale(0.275 -0.275)">
      <defs>
       <path id="CMR17-36" d="M 678 2198 
C 678 3712 1395 4076 1811 4076 
C 1946 4076 2272 4049 2400 3782 
C 2298 3782 2106 3782 2106 3558 
C 2106 3385 2246 3328 2336 3328 
C 2394 3328 2566 3353 2566 3571 
C 2566 3987 2246 4224 1805 4224 
C 1043 4224 243 3411 243 2011 
C 243 257 966 -128 1478 -128 
C 2099 -128 2688 431 2688 1295 
C 2688 2101 2170 2688 1517 2688 
C 1126 2688 838 2430 678 1979 
L 678 2198 
z
M 1478 25 
C 691 25 691 1212 691 1450 
C 691 1914 909 2585 1504 2585 
C 1613 2585 1926 2585 2138 2140 
C 2253 1889 2253 1624 2253 1302 
C 2253 954 2253 696 2118 438 
C 1978 173 1773 25 1478 25 
z
" transform="scale(0.015625)"/>
      </defs>
      <use xlink:href="#CMR17-53" transform="scale(0.996264)"/>
      <use xlink:href="#CMR17-36" transform="translate(50.89537 0) scale(0.996264)"/>
     </g>
    </g>
   </g>
  </g>
  <g id="text_24">
   <!-- Class 0 -->
   <g style="fill: #262626" transform="translate(380.800709 36.4266) scale(0.36 -0.36)">
    <defs>
     <path id="CMR17-43" d="M 3974 4351 
C 3974 4467 3968 4473 3930 4473 
C 3904 4473 3898 4467 3853 4390 
L 3571 3849 
C 3258 4249 2874 4480 2381 4480 
C 1286 4480 294 3507 294 2179 
C 294 837 1286 -128 2387 -128 
C 3366 -128 3974 741 3974 1482 
C 3974 1547 3974 1573 3917 1573 
C 3866 1573 3866 1553 3859 1495 
C 3808 592 3168 38 2477 38 
C 1824 38 781 502 781 2179 
C 781 3862 1843 4313 2464 4313 
C 3187 4313 3712 3681 3834 2785 
C 3846 2707 3846 2695 3904 2695 
C 3974 2695 3974 2707 3974 2824 
L 3974 4351 
z
" transform="scale(0.015625)"/>
    </defs>
    <use xlink:href="#CMR17-43" transform="scale(0.996264)"/>
    <use xlink:href="#CMR17-6c" transform="translate(66.509881 0) scale(0.996264)"/>
    <use xlink:href="#CMR17-61" transform="translate(91.380939 0) scale(0.996264)"/>
    <use xlink:href="#CMR17-73" transform="translate(137.071416 0) scale(0.996264)"/>
    <use xlink:href="#CMR17-73" transform="translate(172.872754 0) scale(0.996264)"/>
    <use xlink:href="#CMR17-30" transform="translate(238.750058 0) scale(0.996264)"/>
   </g>
  </g>
 </g>
 <defs>
  <clipPath id="pe29d45493c">
   <rect x="108" y="69.12" width="669.6" height="443.52"/>
  </clipPath>
 </defs>
</svg>
