<?xml version="1.0" encoding="utf-8" standalone="no"?>
<!DOCTYPE svg PUBLIC "-//W3C//DTD SVG 1.1//EN"
  "http://www.w3.org/Graphics/SVG/1.1/DTD/svg11.dtd">
<svg xmlns:xlink="http://www.w3.org/1999/xlink" width="720pt" height="432pt" viewBox="0 0 720 432" xmlns="http://www.w3.org/2000/svg" version="1.1">
 <metadata>
  <rdf:RDF xmlns:dc="http://purl.org/dc/elements/1.1/" xmlns:cc="http://creativecommons.org/ns#" xmlns:rdf="http://www.w3.org/1999/02/22-rdf-syntax-ns#">
   <cc:Work>
    <dc:type rdf:resource="http://purl.org/dc/dcmitype/StillImage"/>
    <dc:date>2025-06-07T22:15:30.831032</dc:date>
    <dc:format>image/svg+xml</dc:format>
    <dc:creator>
     <cc:Agent>
      <dc:title>Matplotlib v3.10.0, https://matplotlib.org/</dc:title>
     </cc:Agent>
    </dc:creator>
   </cc:Work>
  </rdf:RDF>
 </metadata>
 <defs>
  <style type="text/css">*{stroke-linejoin: round; stroke-linecap: butt}</style>
 </defs>
 <g id="figure_1">
  <g id="patch_1">
   <path d="M 0 432 
L 720 432 
L 720 0 
L 0 0 
z
" style="fill: #ffffff"/>
  </g>
  <g id="axes_1">
   <g id="patch_2">
    <path d="M 90 384.48 
L 648 384.48 
L 648 51.84 
L 90 51.84 
z
" style="fill: #ffffff"/>
   </g>
   <g id="matplotlib.axis_1">
    <g id="xtick_1">
     <g id="line2d_1">
      <path d="M 115.363636 384.48 
L 115.363636 51.84 
" clip-path="url(#p5b1fc5cb6e)" style="fill: none; stroke: #cccccc; stroke-linecap: round"/>
     </g>
     <g id="text_1">
      <!-- $\mathdefault{60}$ -->
      <g style="fill: #262626" transform="translate(102.798755 413.005867) scale(0.275 -0.275)">
       <defs>
        <path id="CMR17-36" d="M 678 2198 
C 678 3712 1395 4076 1811 4076 
C 1946 4076 2272 4049 2400 3782 
C 2298 3782 2106 3782 2106 3558 
C 2106 3385 2246 3328 2336 3328 
C 2394 3328 2566 3353 2566 3571 
C 2566 3987 2246 4224 1805 4224 
C 1043 4224 243 3411 243 2011 
C 243 257 966 -128 1478 -128 
C 2099 -128 2688 431 2688 1295 
C 2688 2101 2170 2688 1517 2688 
C 1126 2688 838 2430 678 1979 
L 678 2198 
z
M 1478 25 
C 691 25 691 1212 691 1450 
C 691 1914 909 2585 1504 2585 
C 1613 2585 1926 2585 2138 2140 
C 2253 1889 2253 1624 2253 1302 
C 2253 954 2253 696 2118 438 
C 1978 173 1773 25 1478 25 
z
" transform="scale(0.015625)"/>
        <path id="CMR17-30" d="M 2688 2038 
C 2688 2430 2682 3099 2413 3613 
C 2176 4063 1798 4224 1466 4224 
C 1158 4224 768 4082 525 3620 
C 269 3137 243 2539 243 2038 
C 243 1671 250 1112 448 623 
C 723 -39 1216 -128 1466 -128 
C 1760 -128 2208 -7 2470 604 
C 2662 1048 2688 1568 2688 2038 
z
M 1466 -26 
C 1056 -26 813 328 723 816 
C 653 1196 653 1749 653 2109 
C 653 2604 653 3015 736 3407 
C 858 3954 1216 4121 1466 4121 
C 1728 4121 2067 3947 2189 3420 
C 2272 3054 2278 2623 2278 2109 
C 2278 1691 2278 1176 2202 797 
C 2067 96 1690 -26 1466 -26 
z
" transform="scale(0.015625)"/>
       </defs>
       <use xlink:href="#CMR17-36" transform="scale(0.996264)"/>
       <use xlink:href="#CMR17-30" transform="translate(45.690477 0) scale(0.996264)"/>
      </g>
     </g>
    </g>
    <g id="xtick_2">
     <g id="line2d_2">
      <path d="M 245.433566 384.48 
L 245.433566 51.84 
" clip-path="url(#p5b1fc5cb6e)" style="fill: none; stroke: #cccccc; stroke-linecap: round"/>
     </g>
     <g id="text_2">
      <!-- $\mathdefault{70}$ -->
      <g style="fill: #262626" transform="translate(232.868685 413.005867) scale(0.275 -0.275)">
       <defs>
        <path id="CMR17-37" d="M 2886 3955 
L 2886 4096 
L 1382 4096 
C 634 4096 621 4166 595 4288 
L 480 4288 
L 294 3104 
L 410 3104 
C 429 3226 474 3552 550 3673 
C 589 3724 1062 3724 1171 3724 
L 2579 3724 
L 1869 2670 
C 1395 1961 1069 1003 1069 166 
C 1069 89 1069 -128 1299 -128 
C 1530 -128 1530 89 1530 172 
L 1530 466 
C 1530 1514 1709 2204 2003 2644 
L 2886 3955 
z
" transform="scale(0.015625)"/>
       </defs>
       <use xlink:href="#CMR17-37" transform="scale(0.996264)"/>
       <use xlink:href="#CMR17-30" transform="translate(45.690477 0) scale(0.996264)"/>
      </g>
     </g>
    </g>
    <g id="xtick_3">
     <g id="line2d_3">
      <path d="M 375.503497 384.48 
L 375.503497 51.84 
" clip-path="url(#p5b1fc5cb6e)" style="fill: none; stroke: #cccccc; stroke-linecap: round"/>
     </g>
     <g id="text_3">
      <!-- $\mathdefault{80}$ -->
      <g style="fill: #262626" transform="translate(362.938615 413.005867) scale(0.275 -0.275)">
       <defs>
        <path id="CMR17-38" d="M 1741 2289 
C 2144 2494 2554 2803 2554 3298 
C 2554 3884 1990 4224 1472 4224 
C 890 4224 378 3800 378 3215 
C 378 3054 416 2777 666 2533 
C 730 2469 998 2276 1171 2154 
C 883 2006 211 1652 211 945 
C 211 282 838 -128 1459 -128 
C 2144 -128 2720 366 2720 1022 
C 2720 1607 2330 1877 2074 2051 
L 1741 2289 
z
M 902 2855 
C 851 2887 595 3086 595 3388 
C 595 3781 998 4076 1459 4076 
C 1965 4076 2336 3716 2336 3298 
C 2336 2700 1670 2359 1638 2359 
C 1632 2359 1626 2359 1574 2398 
L 902 2855 
z
M 2080 1536 
C 2176 1466 2483 1253 2483 861 
C 2483 385 2010 25 1472 25 
C 890 25 448 443 448 951 
C 448 1459 838 1884 1280 2083 
L 2080 1536 
z
" transform="scale(0.015625)"/>
       </defs>
       <use xlink:href="#CMR17-38" transform="scale(0.996264)"/>
       <use xlink:href="#CMR17-30" transform="translate(45.690477 0) scale(0.996264)"/>
      </g>
     </g>
    </g>
    <g id="xtick_4">
     <g id="line2d_4">
      <path d="M 505.573427 384.48 
L 505.573427 51.84 
" clip-path="url(#p5b1fc5cb6e)" style="fill: none; stroke: #cccccc; stroke-linecap: round"/>
     </g>
     <g id="text_4">
      <!-- $\mathdefault{90}$ -->
      <g style="fill: #262626" transform="translate(493.008545 413.005867) scale(0.275 -0.275)">
       <defs>
        <path id="CMR17-39" d="M 2253 1871 
C 2253 448 1670 25 1190 25 
C 1043 25 685 43 538 281 
C 704 256 826 345 826 505 
C 826 678 685 736 595 736 
C 538 736 365 710 365 492 
C 365 68 742 -128 1203 -128 
C 1939 -128 2688 665 2688 2090 
C 2688 3857 1971 4224 1485 4224 
C 851 4224 243 3664 243 2800 
C 243 2000 762 1408 1414 1408 
C 1952 1408 2189 1910 2253 2122 
L 2253 1871 
z
M 1427 1510 
C 1254 1510 1011 1542 813 1929 
C 678 2181 678 2477 678 2793 
C 678 3174 678 3438 858 3722 
C 947 3857 1114 4076 1485 4076 
C 2240 4076 2240 2909 2240 2651 
C 2240 2193 2035 1510 1427 1510 
z
" transform="scale(0.015625)"/>
       </defs>
       <use xlink:href="#CMR17-39" transform="scale(0.996264)"/>
       <use xlink:href="#CMR17-30" transform="translate(45.690477 0) scale(0.996264)"/>
      </g>
     </g>
    </g>
    <g id="xtick_5">
     <g id="line2d_5">
      <path d="M 635.643357 384.48 
L 635.643357 51.84 
" clip-path="url(#p5b1fc5cb6e)" style="fill: none; stroke: #cccccc; stroke-linecap: round"/>
     </g>
     <g id="text_5">
      <!-- $\mathdefault{100}$ -->
      <g style="fill: #262626" transform="translate(616.796035 413.005867) scale(0.275 -0.275)">
       <defs>
        <path id="CMR17-31" d="M 1702 4083 
C 1702 4217 1696 4224 1606 4224 
C 1357 3927 979 3833 621 3820 
C 602 3820 570 3820 563 3808 
C 557 3795 557 3782 557 3648 
C 755 3648 1088 3686 1344 3839 
L 1344 467 
C 1344 243 1331 166 781 166 
L 589 166 
L 589 0 
C 896 6 1216 12 1523 12 
C 1830 12 2150 6 2458 0 
L 2458 166 
L 2266 166 
C 1715 166 1702 236 1702 467 
L 1702 4083 
z
" transform="scale(0.015625)"/>
       </defs>
       <use xlink:href="#CMR17-31" transform="scale(0.996264)"/>
       <use xlink:href="#CMR17-30" transform="translate(45.690477 0) scale(0.996264)"/>
       <use xlink:href="#CMR17-30" transform="translate(91.380954 0) scale(0.996264)"/>
      </g>
     </g>
    </g>
   </g>
   <g id="matplotlib.axis_2">
    <g id="ytick_1">
     <g id="line2d_6">
      <path d="M 90 343.777532 
L 648 343.777532 
" clip-path="url(#p5b1fc5cb6e)" style="fill: none; stroke: #cccccc; stroke-linecap: round"/>
     </g>
     <g id="text_6">
      <!-- $\mathdefault{0.0}$ -->
      <g style="fill: #262626" transform="translate(47.918521 353.290465) scale(0.275 -0.275)">
       <defs>
        <path id="CMMI12-3a" d="M 1178 307 
C 1178 492 1024 620 870 620 
C 685 620 557 467 557 313 
C 557 128 710 0 864 0 
C 1050 0 1178 153 1178 307 
z
" transform="scale(0.015625)"/>
       </defs>
       <use xlink:href="#CMR17-30" transform="scale(0.996264)"/>
       <use xlink:href="#CMMI12-3a" transform="translate(45.690477 0) scale(0.996264)"/>
       <use xlink:href="#CMR17-30" transform="translate(72.787654 0) scale(0.996264)"/>
      </g>
     </g>
    </g>
    <g id="ytick_2">
     <g id="line2d_7">
      <path d="M 90 285.584687 
L 648 285.584687 
" clip-path="url(#p5b1fc5cb6e)" style="fill: none; stroke: #cccccc; stroke-linecap: round"/>
     </g>
     <g id="text_7">
      <!-- $\mathdefault{0.5}$ -->
      <g style="fill: #262626" transform="translate(47.918521 295.09762) scale(0.275 -0.275)">
       <defs>
        <path id="CMR17-35" d="M 730 3750 
C 794 3724 1056 3641 1325 3641 
C 1920 3641 2246 3961 2432 4140 
C 2432 4191 2432 4224 2394 4224 
C 2387 4224 2374 4224 2323 4198 
C 2099 4102 1837 4032 1517 4032 
C 1325 4032 1037 4055 723 4191 
C 653 4224 640 4224 634 4224 
C 602 4224 595 4217 595 4090 
L 595 2231 
C 595 2113 595 2080 659 2080 
C 691 2080 704 2093 736 2139 
C 941 2435 1222 2560 1542 2560 
C 1766 2560 2246 2415 2246 1293 
C 2246 1087 2246 716 2054 422 
C 1894 159 1645 25 1370 25 
C 947 25 518 319 403 812 
C 429 806 480 793 506 793 
C 589 793 749 838 749 1036 
C 749 1209 627 1280 506 1280 
C 358 1280 262 1190 262 1011 
C 262 454 704 -128 1382 -128 
C 2042 -128 2669 441 2669 1267 
C 2669 2054 2170 2662 1549 2662 
C 1222 2662 947 2540 730 2304 
L 730 3750 
z
" transform="scale(0.015625)"/>
       </defs>
       <use xlink:href="#CMR17-30" transform="scale(0.996264)"/>
       <use xlink:href="#CMMI12-3a" transform="translate(45.690477 0) scale(0.996264)"/>
       <use xlink:href="#CMR17-35" transform="translate(72.787654 0) scale(0.996264)"/>
      </g>
     </g>
    </g>
    <g id="ytick_3">
     <g id="line2d_8">
      <path d="M 90 227.391842 
L 648 227.391842 
" clip-path="url(#p5b1fc5cb6e)" style="fill: none; stroke: #cccccc; stroke-linecap: round"/>
     </g>
     <g id="text_8">
      <!-- $\mathdefault{1.0}$ -->
      <g style="fill: #262626" transform="translate(47.918521 236.904775) scale(0.275 -0.275)">
       <use xlink:href="#CMR17-31" transform="scale(0.996264)"/>
       <use xlink:href="#CMMI12-3a" transform="translate(45.690477 0) scale(0.996264)"/>
       <use xlink:href="#CMR17-30" transform="translate(72.787654 0) scale(0.996264)"/>
      </g>
     </g>
    </g>
    <g id="ytick_4">
     <g id="line2d_9">
      <path d="M 90 169.198996 
L 648 169.198996 
" clip-path="url(#p5b1fc5cb6e)" style="fill: none; stroke: #cccccc; stroke-linecap: round"/>
     </g>
     <g id="text_9">
      <!-- $\mathdefault{1.5}$ -->
      <g style="fill: #262626" transform="translate(47.918521 178.71193) scale(0.275 -0.275)">
       <use xlink:href="#CMR17-31" transform="scale(0.996264)"/>
       <use xlink:href="#CMMI12-3a" transform="translate(45.690477 0) scale(0.996264)"/>
       <use xlink:href="#CMR17-35" transform="translate(72.787654 0) scale(0.996264)"/>
      </g>
     </g>
    </g>
    <g id="ytick_5">
     <g id="line2d_10">
      <path d="M 90 111.006151 
L 648 111.006151 
" clip-path="url(#p5b1fc5cb6e)" style="fill: none; stroke: #cccccc; stroke-linecap: round"/>
     </g>
     <g id="text_10">
      <!-- $\mathdefault{2.0}$ -->
      <g style="fill: #262626" transform="translate(47.918521 120.519085) scale(0.275 -0.275)">
       <defs>
        <path id="CMR17-32" d="M 2669 990 
L 2554 990 
C 2490 537 2438 460 2413 422 
C 2381 371 1920 371 1830 371 
L 602 371 
C 832 620 1280 1073 1824 1596 
C 2214 1966 2669 2400 2669 3033 
C 2669 3788 2067 4224 1395 4224 
C 691 4224 262 3603 262 3027 
C 262 2777 448 2745 525 2745 
C 589 2745 781 2783 781 3007 
C 781 3206 614 3264 525 3264 
C 486 3264 448 3257 422 3244 
C 544 3788 915 4057 1306 4057 
C 1862 4057 2227 3616 2227 3033 
C 2227 2477 1901 1998 1536 1583 
L 262 147 
L 262 0 
L 2515 0 
L 2669 990 
z
" transform="scale(0.015625)"/>
       </defs>
       <use xlink:href="#CMR17-32" transform="scale(0.996264)"/>
       <use xlink:href="#CMMI12-3a" transform="translate(45.690477 0) scale(0.996264)"/>
       <use xlink:href="#CMR17-30" transform="translate(72.787654 0) scale(0.996264)"/>
      </g>
     </g>
    </g>
    <g id="ytick_6">
     <g id="line2d_11">
      <path d="M 90 52.813306 
L 648 52.813306 
" clip-path="url(#p5b1fc5cb6e)" style="fill: none; stroke: #cccccc; stroke-linecap: round"/>
     </g>
     <g id="text_11">
      <!-- $\mathdefault{2.5}$ -->
      <g style="fill: #262626" transform="translate(47.918521 62.32624) scale(0.275 -0.275)">
       <use xlink:href="#CMR17-32" transform="scale(0.996264)"/>
       <use xlink:href="#CMMI12-3a" transform="translate(45.690477 0) scale(0.996264)"/>
       <use xlink:href="#CMR17-35" transform="translate(72.787654 0) scale(0.996264)"/>
      </g>
     </g>
    </g>
   </g>
   <g id="line2d_12">
    <path d="M 115.363636 343.777532 
L 128.370629 343.777532 
L 141.377622 343.777532 
L 154.384615 343.777532 
L 167.391608 343.777532 
L 180.398601 343.777532 
L 193.405594 343.777532 
L 206.412587 343.777532 
L 219.41958 343.777532 
L 232.426573 343.777532 
L 245.433566 343.777532 
L 258.440559 343.777532 
L 271.447552 343.777532 
L 284.454545 343.777532 
L 297.461538 343.777532 
L 310.468531 343.777532 
L 323.475524 343.777532 
L 336.482517 343.777532 
L 349.48951 343.777532 
L 362.496503 343.777532 
L 375.503497 343.777532 
L 388.51049 343.777532 
L 401.517483 343.777532 
L 414.524476 343.777532 
L 427.531469 343.777532 
L 440.538462 343.777532 
L 453.545455 343.777532 
L 466.552448 343.777532 
L 479.559441 343.777532 
L 492.566434 343.777532 
L 505.573427 343.777532 
L 518.58042 343.777532 
L 531.587413 343.777532 
L 544.594406 343.777532 
L 557.601399 343.777532 
L 570.608392 343.777532 
L 583.615385 343.777532 
L 596.622378 343.777532 
L 609.629371 343.777532 
L 622.636364 343.777532 
" clip-path="url(#p5b1fc5cb6e)" style="fill: none; stroke-dasharray: 4,6.6; stroke-dashoffset: 0; stroke: #4c72b0; stroke-width: 4"/>
   </g>
   <g id="line2d_13">
    <path d="M 115.363636 343.777532 
L 128.370629 343.777532 
L 141.377622 343.777532 
L 154.384615 343.777532 
L 167.391608 343.777532 
L 180.398601 343.777532 
L 193.405594 343.777532 
L 206.412587 343.777532 
L 219.41958 343.777532 
L 232.426573 343.777532 
L 245.433566 343.777532 
L 258.440559 343.777532 
L 271.447552 343.777532 
L 284.454545 343.777532 
L 297.461538 343.777532 
L 310.468531 343.777532 
L 323.475524 343.777532 
L 336.482517 343.777532 
L 349.48951 343.777532 
L 362.496503 343.777532 
L 375.503497 343.777532 
L 388.51049 343.777532 
L 401.517483 343.777532 
L 414.524476 343.777532 
L 427.531469 343.777532 
L 440.538462 343.777532 
L 453.545455 343.777532 
L 466.552448 343.777532 
L 479.559441 343.777532 
L 492.566434 343.777532 
L 505.573427 343.777532 
L 518.58042 343.777532 
L 531.587413 343.777532 
L 544.594406 343.777532 
L 557.601399 343.777532 
L 570.608392 343.777532 
L 583.615385 343.777532 
L 596.622378 343.777532 
L 609.629371 343.777532 
L 622.636364 343.777532 
" clip-path="url(#p5b1fc5cb6e)" style="fill: none; stroke-dasharray: 4,6.6; stroke-dashoffset: 0; stroke: #dd8452; stroke-width: 4"/>
   </g>
   <g id="line2d_14">
    <path d="M 115.363636 343.777532 
L 128.370629 343.777532 
L 141.377622 343.777532 
L 154.384615 343.777532 
L 167.391608 343.777532 
L 180.398601 343.777532 
L 193.405594 343.777532 
L 206.412587 343.777532 
L 219.41958 343.777532 
L 232.426573 343.777532 
L 245.433566 343.777532 
L 258.440559 343.777532 
L 271.447552 343.777532 
L 284.454545 343.777532 
L 297.461538 343.777532 
L 310.468531 343.777532 
L 323.475524 343.777532 
L 336.482517 343.777532 
L 349.48951 343.777532 
L 362.496503 343.777532 
L 375.503497 343.777532 
L 388.51049 343.777532 
L 401.517483 343.777532 
L 414.524476 343.777532 
L 427.531469 343.777532 
L 440.538462 343.777532 
L 453.545455 343.777532 
L 466.552448 343.777532 
L 479.559441 343.777532 
L 492.566434 343.777532 
L 505.573427 343.777532 
L 518.58042 343.777532 
L 531.587413 343.777532 
L 544.594406 343.777532 
L 557.601399 343.777532 
L 570.608392 343.777532 
L 583.615385 343.777532 
L 596.622378 343.777532 
L 609.629371 343.777532 
L 622.636364 343.777532 
" clip-path="url(#p5b1fc5cb6e)" style="fill: none; stroke-dasharray: 4,6.6; stroke-dashoffset: 0; stroke: #55a868; stroke-width: 4"/>
   </g>
   <g id="line2d_15">
    <path d="M 115.363636 343.777532 
L 128.370629 343.777532 
L 141.377622 343.777532 
L 154.384615 343.777532 
L 167.391608 343.777532 
L 180.398601 343.777532 
L 193.405594 343.777532 
L 206.412587 343.777532 
L 219.41958 343.777532 
L 232.426573 343.777532 
L 245.433566 343.777532 
L 258.440559 343.777532 
L 271.447552 343.777532 
L 284.454545 343.777532 
L 297.461538 343.777532 
L 310.468531 343.777532 
L 323.475524 343.777532 
L 336.482517 343.777532 
L 349.48951 343.777532 
L 362.496503 343.777532 
L 375.503497 343.777532 
L 388.51049 343.777532 
L 401.517483 343.777532 
L 414.524476 343.777532 
L 427.531469 343.777532 
L 440.538462 343.777532 
L 453.545455 343.777532 
L 466.552448 343.777532 
L 479.559441 343.777532 
L 492.566434 343.777532 
L 505.573427 343.777532 
L 518.58042 343.777532 
L 531.587413 343.777532 
L 544.594406 343.777532 
L 557.601399 343.777532 
L 570.608392 343.777532 
L 583.615385 343.777532 
L 596.622378 343.777532 
L 609.629371 343.777532 
L 622.636364 343.777532 
" clip-path="url(#p5b1fc5cb6e)" style="fill: none; stroke-dasharray: 4,6.6; stroke-dashoffset: 0; stroke: #c44e52; stroke-width: 4"/>
   </g>
   <g id="line2d_16">
    <path d="M 115.363636 343.777532 
L 128.370629 343.777532 
L 141.377622 343.777532 
L 154.384615 343.777532 
L 167.391608 343.777532 
L 180.398601 343.777532 
L 193.405594 343.777532 
L 206.412587 343.777532 
L 219.41958 343.777532 
L 232.426573 343.777532 
L 245.433566 343.777532 
L 258.440559 343.777532 
L 271.447552 343.777532 
L 284.454545 343.777532 
L 297.461538 343.777532 
L 310.468531 343.777532 
L 323.475524 343.777532 
L 336.482517 343.777532 
L 349.48951 343.777532 
L 362.496503 343.777532 
L 375.503497 343.777532 
L 388.51049 343.777532 
L 401.517483 343.777532 
L 414.524476 343.777532 
L 427.531469 343.777532 
L 440.538462 343.777532 
L 453.545455 343.777532 
L 466.552448 343.777532 
L 479.559441 343.777532 
L 492.566434 343.777532 
L 505.573427 343.777532 
L 518.58042 343.777532 
L 531.587413 343.777532 
L 544.594406 343.777532 
L 557.601399 343.777532 
L 570.608392 343.777532 
L 583.615385 343.777532 
L 596.622378 343.777532 
L 609.629371 343.777532 
L 622.636364 343.777532 
" clip-path="url(#p5b1fc5cb6e)" style="fill: none; stroke-dasharray: 4,6.6; stroke-dashoffset: 0; stroke: #8172b3; stroke-width: 4"/>
   </g>
   <g id="line2d_17">
    <path d="M 115.363636 343.777532 
L 128.370629 343.777532 
L 141.377622 343.777532 
L 154.384615 343.777532 
L 167.391608 343.777532 
L 180.398601 343.777532 
L 193.405594 343.777532 
L 206.412587 204.114704 
L 219.41958 204.114704 
L 232.426573 204.114704 
L 245.433566 204.114704 
L 258.440559 204.114704 
L 271.447552 204.114704 
L 284.454545 204.114704 
L 297.461538 204.114704 
L 310.468531 204.114704 
L 323.475524 204.114704 
L 336.482517 204.114704 
L 349.48951 204.114704 
L 362.496503 204.114704 
L 375.503497 204.114704 
L 388.51049 204.114704 
L 401.517483 204.114704 
L 414.524476 204.114704 
L 427.531469 204.114704 
L 440.538462 204.114704 
L 453.545455 204.114704 
L 466.552448 204.114704 
L 479.559441 204.114704 
L 492.566434 204.114704 
L 505.573427 204.114704 
L 518.58042 204.114704 
L 531.587413 204.114704 
L 544.594406 204.114704 
L 557.601399 204.114704 
L 570.608392 204.114704 
L 583.615385 204.114704 
L 596.622378 204.114704 
L 609.629371 204.114704 
L 622.636364 204.114704 
" clip-path="url(#p5b1fc5cb6e)" style="fill: none; stroke-dasharray: 4,6.6; stroke-dashoffset: 0; stroke: #937860; stroke-width: 4"/>
   </g>
   <g id="line2d_18">
    <path d="M 115.363636 337.89379 
L 128.370629 337.64917 
L 141.377622 337.665924 
L 154.384615 337.685472 
L 167.391608 337.206782 
L 180.398601 336.101025 
L 193.405594 334.709438 
L 206.412587 333.572674 
L 219.41958 332.92533 
L 232.426573 333.780474 
L 245.433566 333.432861 
L 258.440559 334.004687 
L 271.447552 333.827992 
L 284.454545 333.373286 
L 297.461538 333.667163 
L 310.468531 333.421959 
L 323.475524 333.453446 
L 336.482517 333.376463 
L 349.48951 333.485335 
L 362.496503 333.116746 
L 375.503497 333.517364 
L 388.51049 333.669371 
L 401.517483 333.40711 
L 414.524476 333.690697 
L 427.531469 333.594552 
L 440.538462 333.970037 
L 453.545455 333.744152 
L 466.552448 334.110656 
L 479.559441 333.940244 
L 492.566434 333.931978 
L 505.573427 333.819444 
L 518.58042 333.508735 
L 531.587413 333.36763 
L 544.594406 333.075266 
L 557.601399 333.5242 
L 570.608392 333.507042 
L 583.615385 333.656677 
L 596.622378 333.654209 
L 609.629371 332.141261 
L 622.636364 332.571855 
" clip-path="url(#p5b1fc5cb6e)" style="fill: none; stroke: #da8bc3; stroke-width: 4; stroke-linecap: round"/>
   </g>
   <g id="line2d_19">
    <path d="M 115.363636 336.254342 
L 128.370629 336.386632 
L 141.377622 336.75313 
L 154.384615 336.735702 
L 167.391608 336.039386 
L 180.398601 334.843489 
L 193.405594 332.912351 
L 206.412587 336.283041 
L 219.41958 338.559812 
L 232.426573 340.10665 
L 245.433566 339.997651 
L 258.440559 340.013256 
L 271.447552 340.112953 
L 284.454545 339.631436 
L 297.461538 339.804027 
L 310.468531 339.513509 
L 323.475524 339.327029 
L 336.482517 339.327791 
L 349.48951 339.428863 
L 362.496503 339.285388 
L 375.503497 339.468719 
L 388.51049 339.800719 
L 401.517483 339.626908 
L 414.524476 339.824015 
L 427.531469 339.53689 
L 440.538462 339.858307 
L 453.545455 339.690621 
L 466.552448 339.953211 
L 479.559441 339.806863 
L 492.566434 339.814071 
L 505.573427 339.81596 
L 518.58042 339.655233 
L 531.587413 339.568091 
L 544.594406 339.388782 
L 557.601399 339.465289 
L 570.608392 339.738609 
L 583.615385 339.85924 
L 596.622378 339.719087 
L 609.629371 339.119398 
L 622.636364 338.705925 
" clip-path="url(#p5b1fc5cb6e)" style="fill: none; stroke: #8c8c8c; stroke-width: 4; stroke-linecap: round"/>
   </g>
   <g id="line2d_20">
    <path d="M 115.363636 335.665764 
L 128.370629 335.404858 
L 141.377622 334.968966 
L 154.384615 334.793143 
L 167.391608 335.482145 
L 180.398601 335.323668 
L 193.405594 331.296763 
L 206.412587 328.942337 
L 219.41958 326.473963 
L 232.426573 325.298491 
L 245.433566 324.678847 
L 258.440559 325.363259 
L 271.447552 324.816284 
L 284.454545 324.421591 
L 297.461538 324.777202 
L 310.468531 324.415407 
L 323.475524 324.549142 
L 336.482517 324.528445 
L 349.48951 324.466004 
L 362.496503 323.924114 
L 375.503497 324.628166 
L 388.51049 324.641283 
L 401.517483 324.500629 
L 414.524476 324.754828 
L 427.531469 324.844907 
L 440.538462 325.256736 
L 453.545455 324.939366 
L 466.552448 325.350155 
L 479.559441 325.11137 
L 492.566434 325.188555 
L 505.573427 324.95912 
L 518.58042 324.517707 
L 531.587413 324.336188 
L 544.594406 323.851944 
L 557.601399 324.612213 
L 570.608392 324.574074 
L 583.615385 324.663842 
L 596.622378 324.756692 
L 609.629371 322.492149 
L 622.636364 323.231142 
" clip-path="url(#p5b1fc5cb6e)" style="fill: none; stroke: #ccb974; stroke-width: 4; stroke-linecap: round"/>
   </g>
   <g id="line2d_21">
    <path d="M 115.363636 331.342207 
L 128.370629 331.174208 
L 141.377622 330.755458 
L 154.384615 330.734793 
L 167.391608 331.856996 
L 180.398601 335.089039 
L 193.405594 333.435469 
L 206.412587 327.627543 
L 219.41958 325.937768 
L 232.426573 325.827183 
L 245.433566 326.327976 
L 258.440559 327.416352 
L 271.447552 328.925649 
L 284.454545 327.107472 
L 297.461538 327.69129 
L 310.468531 327.497364 
L 323.475524 326.951523 
L 336.482517 326.407883 
L 349.48951 327.712915 
L 362.496503 327.552353 
L 375.503497 327.110713 
L 388.51049 328.430065 
L 401.517483 326.952141 
L 414.524476 328.015181 
L 427.531469 326.577579 
L 440.538462 327.644574 
L 453.545455 327.401996 
L 466.552448 328.36881 
L 479.559441 328.165181 
L 492.566434 327.67735 
L 505.573427 327.981489 
L 518.58042 327.718405 
L 531.587413 327.499907 
L 544.594406 327.640985 
L 557.601399 327.255513 
L 570.608392 327.43408 
L 583.615385 328.234113 
L 596.622378 327.658753 
L 609.629371 327.335124 
L 622.636364 326.66707 
" clip-path="url(#p5b1fc5cb6e)" style="fill: none; stroke: #64b5cd; stroke-width: 4; stroke-linecap: round"/>
   </g>
   <g id="line2d_22">
    <path d="M 115.363636 335.000004 
L 128.370629 334.596655 
L 141.377622 334.297344 
L 154.384615 334.166232 
L 167.391608 335.975891 
L 180.398601 338.429759 
L 193.405594 336.512829 
L 206.412587 333.481282 
L 219.41958 331.901622 
L 232.426573 332.550369 
L 245.433566 332.315983 
L 258.440559 332.44212 
L 271.447552 332.572825 
L 284.454545 331.734218 
L 297.461538 332.053382 
L 310.468531 331.564558 
L 323.475524 331.291706 
L 336.482517 331.277888 
L 349.48951 331.449582 
L 362.496503 331.169594 
L 375.503497 331.514122 
L 388.51049 332.04967 
L 401.517483 331.733109 
L 414.524476 332.089138 
L 427.531469 331.629884 
L 440.538462 332.192257 
L 453.545455 331.89182 
L 466.552448 332.36744 
L 479.559441 332.107603 
L 492.566434 332.116598 
L 505.573427 332.099606 
L 518.58042 331.795625 
L 531.587413 331.637294 
L 544.594406 331.315525 
L 557.601399 331.510441 
L 570.608392 331.923146 
L 583.615385 332.138427 
L 596.622378 331.919626 
L 609.629371 330.753203 
L 622.636364 330.23796 
" clip-path="url(#p5b1fc5cb6e)" style="fill: none; stroke: #4c72b0; stroke-width: 4; stroke-linecap: round"/>
   </g>
   <g id="line2d_23">
    <path d="M 115.363636 337.130302 
L 128.370629 336.755242 
L 141.377622 336.522408 
L 154.384615 336.922793 
L 167.391608 336.775248 
L 180.398601 331.966259 
L 193.405594 305.032265 
L 206.412587 256.060888 
L 219.41958 243.773279 
L 232.426573 240.101971 
L 245.433566 240.399837 
L 258.440559 240.368412 
L 271.447552 240.273498 
L 284.454545 241.211974 
L 297.461538 240.862134 
L 310.468531 241.470139 
L 323.475524 241.800561 
L 336.482517 241.772646 
L 349.48951 241.646543 
L 362.496503 241.963355 
L 375.503497 241.522812 
L 388.51049 240.917888 
L 401.517483 241.20727 
L 414.524476 240.839235 
L 427.531469 241.342877 
L 440.538462 240.711224 
L 453.545455 241.067327 
L 466.552448 240.543581 
L 479.559441 240.855516 
L 492.566434 240.809488 
L 505.573427 240.838714 
L 518.58042 241.187929 
L 531.587413 241.366706 
L 544.594406 241.76976 
L 557.601399 241.538428 
L 570.608392 240.998782 
L 583.615385 240.784376 
L 596.622378 241.036457 
L 609.629371 242.385236 
L 622.636364 243.076229 
" clip-path="url(#p5b1fc5cb6e)" style="fill: none; stroke: #dd8452; stroke-width: 4; stroke-linecap: round"/>
   </g>
   <g id="line2d_24">
    <path d="M 115.363636 345.28018 
L 128.370629 316.178572 
L 141.377622 345.082699 
L 154.384615 336.680904 
L 167.391608 369.36 
L 180.398601 337.34273 
L 193.405594 349.965229 
L 206.412587 355.144464 
L 219.41958 328.886411 
L 232.426573 328.318359 
L 245.433566 271.440841 
L 258.440559 292.396663 
L 271.447552 290.277916 
L 284.454545 256.672669 
L 297.461538 228.798036 
L 310.468531 266.165781 
L 323.475524 195.936162 
L 336.482517 193.734235 
L 349.48951 170.569291 
L 362.496503 174.216086 
L 375.503497 174.12841 
L 388.51049 128.55487 
L 401.517483 165.539527 
L 414.524476 79.700157 
L 427.531469 169.46069 
L 440.538462 66.96 
L 453.545455 108.352726 
L 466.552448 104.810019 
L 479.559441 107.979611 
L 492.566434 159.438234 
L 505.573427 146.294184 
L 518.58042 167.263787 
L 531.587413 168.331836 
L 544.594406 196.051441 
L 557.601399 200.592197 
L 570.608392 245.11541 
L 583.615385 288.764341 
L 596.622378 255.304464 
L 609.629371 249.698769 
L 622.636364 211.53538 
" clip-path="url(#p5b1fc5cb6e)" style="fill: none; stroke: #555555; stroke-width: 4; stroke-linecap: round"/>
   </g>
   <g id="patch_3">
    <path d="M 90 384.48 
L 90 51.84 
" style="fill: none; stroke: #ffffff; stroke-width: 1.25; stroke-linejoin: miter; stroke-linecap: square"/>
   </g>
   <g id="patch_4">
    <path d="M 648 384.48 
L 648 51.84 
" style="fill: none; stroke: #ffffff; stroke-width: 1.25; stroke-linejoin: miter; stroke-linecap: square"/>
   </g>
   <g id="patch_5">
    <path d="M 90 384.48 
L 648 384.48 
" style="fill: none; stroke: #ffffff; stroke-width: 1.25; stroke-linejoin: miter; stroke-linecap: square"/>
   </g>
   <g id="patch_6">
    <path d="M 90 51.84 
L 648 51.84 
" style="fill: none; stroke: #ffffff; stroke-width: 1.25; stroke-linejoin: miter; stroke-linecap: square"/>
   </g>
  </g>
 </g>
 <defs>
  <clipPath id="p5b1fc5cb6e">
   <rect x="90" y="51.84" width="558" height="332.64"/>
  </clipPath>
 </defs>
</svg>
