<?xml version="1.0" encoding="utf-8" standalone="no"?>
<!DOCTYPE svg PUBLIC "-//W3C//DTD SVG 1.1//EN"
  "http://www.w3.org/Graphics/SVG/1.1/DTD/svg11.dtd">
<svg xmlns:xlink="http://www.w3.org/1999/xlink" width="864pt" height="576pt" viewBox="0 0 864 576" xmlns="http://www.w3.org/2000/svg" version="1.1">
 <metadata>
  <rdf:RDF xmlns:dc="http://purl.org/dc/elements/1.1/" xmlns:cc="http://creativecommons.org/ns#" xmlns:rdf="http://www.w3.org/1999/02/22-rdf-syntax-ns#">
   <cc:Work>
    <dc:type rdf:resource="http://purl.org/dc/dcmitype/StillImage"/>
    <dc:date>2025-06-07T22:03:26.870159</dc:date>
    <dc:format>image/svg+xml</dc:format>
    <dc:creator>
     <cc:Agent>
      <dc:title>Matplotlib v3.10.0, https://matplotlib.org/</dc:title>
     </cc:Agent>
    </dc:creator>
   </cc:Work>
  </rdf:RDF>
 </metadata>
 <defs>
  <style type="text/css">*{stroke-linejoin: round; stroke-linecap: butt}</style>
 </defs>
 <g id="figure_1">
  <g id="patch_1">
   <path d="M 0 576 
L 864 576 
L 864 0 
L 0 0 
z
" style="fill: #ffffff"/>
  </g>
  <g id="axes_1">
   <g id="patch_2">
    <path d="M 108 512.64 
L 777.6 512.64 
L 777.6 69.12 
L 108 69.12 
z
" style="fill: #ffffff"/>
   </g>
   <g id="matplotlib.axis_1">
    <g id="xtick_1">
     <g id="line2d_1">
      <path d="M 138.436364 512.64 
L 138.436364 69.12 
" clip-path="url(#p66e36ce947)" style="fill: none; stroke: #cccccc; stroke-linecap: round"/>
     </g>
     <g id="text_1">
      <!-- $\mathdefault{0}$ -->
      <g style="fill: #262626" transform="translate(132.153923 541.165867) scale(0.275 -0.275)">
       <defs>
        <path id="CMR17-30" d="M 2688 2038 
C 2688 2430 2682 3099 2413 3613 
C 2176 4063 1798 4224 1466 4224 
C 1158 4224 768 4082 525 3620 
C 269 3137 243 2539 243 2038 
C 243 1671 250 1112 448 623 
C 723 -39 1216 -128 1466 -128 
C 1760 -128 2208 -7 2470 604 
C 2662 1048 2688 1568 2688 2038 
z
M 1466 -26 
C 1056 -26 813 328 723 816 
C 653 1196 653 1749 653 2109 
C 653 2604 653 3015 736 3407 
C 858 3954 1216 4121 1466 4121 
C 1728 4121 2067 3947 2189 3420 
C 2272 3054 2278 2623 2278 2109 
C 2278 1691 2278 1176 2202 797 
C 2067 96 1690 -26 1466 -26 
z
" transform="scale(0.015625)"/>
       </defs>
       <use xlink:href="#CMR17-30" transform="scale(0.996264)"/>
      </g>
     </g>
    </g>
    <g id="xtick_2">
     <g id="line2d_2">
      <path d="M 257.328409 512.64 
L 257.328409 69.12 
" clip-path="url(#p66e36ce947)" style="fill: none; stroke: #cccccc; stroke-linecap: round"/>
     </g>
     <g id="text_2">
      <!-- $\mathdefault{50}$ -->
      <g style="fill: #262626" transform="translate(244.763528 541.165867) scale(0.275 -0.275)">
       <defs>
        <path id="CMR17-35" d="M 730 3750 
C 794 3724 1056 3641 1325 3641 
C 1920 3641 2246 3961 2432 4140 
C 2432 4191 2432 4224 2394 4224 
C 2387 4224 2374 4224 2323 4198 
C 2099 4102 1837 4032 1517 4032 
C 1325 4032 1037 4055 723 4191 
C 653 4224 640 4224 634 4224 
C 602 4224 595 4217 595 4090 
L 595 2231 
C 595 2113 595 2080 659 2080 
C 691 2080 704 2093 736 2139 
C 941 2435 1222 2560 1542 2560 
C 1766 2560 2246 2415 2246 1293 
C 2246 1087 2246 716 2054 422 
C 1894 159 1645 25 1370 25 
C 947 25 518 319 403 812 
C 429 806 480 793 506 793 
C 589 793 749 838 749 1036 
C 749 1209 627 1280 506 1280 
C 358 1280 262 1190 262 1011 
C 262 454 704 -128 1382 -128 
C 2042 -128 2669 441 2669 1267 
C 2669 2054 2170 2662 1549 2662 
C 1222 2662 947 2540 730 2304 
L 730 3750 
z
" transform="scale(0.015625)"/>
       </defs>
       <use xlink:href="#CMR17-35" transform="scale(0.996264)"/>
       <use xlink:href="#CMR17-30" transform="translate(45.690477 0) scale(0.996264)"/>
      </g>
     </g>
    </g>
    <g id="xtick_3">
     <g id="line2d_3">
      <path d="M 376.220455 512.64 
L 376.220455 69.12 
" clip-path="url(#p66e36ce947)" style="fill: none; stroke: #cccccc; stroke-linecap: round"/>
     </g>
     <g id="text_3">
      <!-- $\mathdefault{100}$ -->
      <g style="fill: #262626" transform="translate(357.373133 541.165867) scale(0.275 -0.275)">
       <defs>
        <path id="CMR17-31" d="M 1702 4083 
C 1702 4217 1696 4224 1606 4224 
C 1357 3927 979 3833 621 3820 
C 602 3820 570 3820 563 3808 
C 557 3795 557 3782 557 3648 
C 755 3648 1088 3686 1344 3839 
L 1344 467 
C 1344 243 1331 166 781 166 
L 589 166 
L 589 0 
C 896 6 1216 12 1523 12 
C 1830 12 2150 6 2458 0 
L 2458 166 
L 2266 166 
C 1715 166 1702 236 1702 467 
L 1702 4083 
z
" transform="scale(0.015625)"/>
       </defs>
       <use xlink:href="#CMR17-31" transform="scale(0.996264)"/>
       <use xlink:href="#CMR17-30" transform="translate(45.690477 0) scale(0.996264)"/>
       <use xlink:href="#CMR17-30" transform="translate(91.380954 0) scale(0.996264)"/>
      </g>
     </g>
    </g>
    <g id="xtick_4">
     <g id="line2d_4">
      <path d="M 495.1125 512.64 
L 495.1125 69.12 
" clip-path="url(#p66e36ce947)" style="fill: none; stroke: #cccccc; stroke-linecap: round"/>
     </g>
     <g id="text_4">
      <!-- $\mathdefault{150}$ -->
      <g style="fill: #262626" transform="translate(476.265178 541.165867) scale(0.275 -0.275)">
       <use xlink:href="#CMR17-31" transform="scale(0.996264)"/>
       <use xlink:href="#CMR17-35" transform="translate(45.690477 0) scale(0.996264)"/>
       <use xlink:href="#CMR17-30" transform="translate(91.380954 0) scale(0.996264)"/>
      </g>
     </g>
    </g>
    <g id="xtick_5">
     <g id="line2d_5">
      <path d="M 614.004545 512.64 
L 614.004545 69.12 
" clip-path="url(#p66e36ce947)" style="fill: none; stroke: #cccccc; stroke-linecap: round"/>
     </g>
     <g id="text_5">
      <!-- $\mathdefault{200}$ -->
      <g style="fill: #262626" transform="translate(595.157224 541.165867) scale(0.275 -0.275)">
       <defs>
        <path id="CMR17-32" d="M 2669 990 
L 2554 990 
C 2490 537 2438 460 2413 422 
C 2381 371 1920 371 1830 371 
L 602 371 
C 832 620 1280 1073 1824 1596 
C 2214 1966 2669 2400 2669 3033 
C 2669 3788 2067 4224 1395 4224 
C 691 4224 262 3603 262 3027 
C 262 2777 448 2745 525 2745 
C 589 2745 781 2783 781 3007 
C 781 3206 614 3264 525 3264 
C 486 3264 448 3257 422 3244 
C 544 3788 915 4057 1306 4057 
C 1862 4057 2227 3616 2227 3033 
C 2227 2477 1901 1998 1536 1583 
L 262 147 
L 262 0 
L 2515 0 
L 2669 990 
z
" transform="scale(0.015625)"/>
       </defs>
       <use xlink:href="#CMR17-32" transform="scale(0.996264)"/>
       <use xlink:href="#CMR17-30" transform="translate(45.690477 0) scale(0.996264)"/>
       <use xlink:href="#CMR17-30" transform="translate(91.380954 0) scale(0.996264)"/>
      </g>
     </g>
    </g>
    <g id="xtick_6">
     <g id="line2d_6">
      <path d="M 732.896591 512.64 
L 732.896591 69.12 
" clip-path="url(#p66e36ce947)" style="fill: none; stroke: #cccccc; stroke-linecap: round"/>
     </g>
     <g id="text_6">
      <!-- $\mathdefault{250}$ -->
      <g style="fill: #262626" transform="translate(714.049269 541.165867) scale(0.275 -0.275)">
       <use xlink:href="#CMR17-32" transform="scale(0.996264)"/>
       <use xlink:href="#CMR17-35" transform="translate(45.690477 0) scale(0.996264)"/>
       <use xlink:href="#CMR17-30" transform="translate(91.380954 0) scale(0.996264)"/>
      </g>
     </g>
    </g>
    <g id="text_7">
     <!-- Sample number -->
     <g style="fill: #262626" transform="translate(349.409568 571.250362) scale(0.3 -0.3)">
      <defs>
       <path id="CMR17-53" d="M 2803 4351 
C 2803 4467 2797 4473 2758 4473 
C 2720 4473 2707 4447 2682 4390 
L 2490 3965 
C 2246 4320 1875 4480 1472 4480 
C 819 4480 294 3958 294 3301 
C 294 3101 339 2817 557 2546 
C 794 2250 1018 2198 1530 2063 
C 1722 2011 2042 1927 2106 1901 
C 2470 1747 2662 1360 2662 999 
C 2662 534 2336 38 1779 38 
C 1094 38 454 425 410 1328 
C 403 1431 397 1437 352 1437 
C 301 1437 294 1431 294 1302 
L 294 0 
C 294 -116 301 -122 339 -122 
C 384 -122 397 -90 486 109 
C 493 128 493 141 614 386 
C 934 -39 1472 -128 1779 -128 
C 2477 -128 2970 457 2970 1141 
C 2970 1476 2848 1734 2778 1850 
C 2509 2263 2221 2340 1914 2417 
C 1869 2437 1856 2437 1498 2527 
C 1152 2617 1005 2662 845 2836 
C 666 3036 602 3243 602 3449 
C 602 3868 934 4326 1478 4326 
C 2157 4326 2579 3842 2675 3036 
C 2694 2920 2701 2914 2746 2914 
C 2803 2914 2803 2933 2803 3043 
L 2803 4351 
z
" transform="scale(0.015625)"/>
       <path id="CMR17-61" d="M 2304 1656 
C 2304 2048 2304 2275 2035 2534 
C 1798 2751 1523 2816 1306 2816 
C 800 2816 435 2408 435 1977 
C 435 1740 627 1728 666 1728 
C 749 1728 896 1779 896 1958 
C 896 2118 774 2188 666 2188 
C 640 2188 608 2182 589 2176 
C 723 2594 1069 2713 1293 2713 
C 1613 2713 1965 2421 1965 1875 
L 1965 1632 
C 1587 1619 1133 1568 774 1373 
C 371 1147 256 822 256 576 
C 256 77 832 -64 1171 -64 
C 1523 -64 1850 135 1990 505 
C 2003 219 2182 -39 2464 -39 
C 2598 -39 2938 51 2938 563 
L 2938 926 
L 2822 926 
L 2822 557 
C 2822 161 2650 109 2566 109 
C 2304 109 2304 446 2304 732 
L 2304 1656 
z
M 1965 887 
C 1965 323 1568 38 1216 38 
C 896 38 646 278 646 576 
C 646 771 730 1114 1101 1322 
C 1408 1497 1760 1523 1965 1536 
L 1965 887 
z
" transform="scale(0.015625)"/>
       <path id="CMR17-6d" d="M 4326 1954 
C 4326 2276 4269 2816 3507 2816 
C 3072 2816 2771 2520 2656 2173 
L 2650 2173 
C 2573 2700 2195 2816 1837 2816 
C 1331 2816 1069 2424 973 2166 
L 966 2166 
L 966 2816 
L 211 2745 
L 211 2578 
C 589 2578 646 2540 646 2231 
L 646 443 
C 646 198 621 166 211 166 
L 211 0 
C 365 12 646 12 813 12 
C 979 12 1267 12 1421 0 
L 1421 166 
C 1011 166 986 192 986 443 
L 986 1678 
C 986 2269 1344 2713 1792 2713 
C 2266 2713 2317 2289 2317 1980 
L 2317 443 
C 2317 198 2291 166 1882 166 
L 1882 0 
C 2035 12 2317 12 2483 12 
C 2650 12 2938 12 3091 0 
L 3091 166 
C 2682 166 2656 192 2656 443 
L 2656 1678 
C 2656 2269 3014 2713 3462 2713 
C 3936 2713 3987 2289 3987 1980 
L 3987 443 
C 3987 198 3962 166 3552 166 
L 3552 0 
C 3706 12 3987 12 4154 12 
C 4320 12 4608 12 4762 0 
L 4762 166 
C 4352 166 4326 192 4326 443 
L 4326 1954 
z
" transform="scale(0.015625)"/>
       <path id="CMR17-70" d="M 1408 -1114 
C 998 -1114 973 -1088 973 -834 
L 973 380 
C 1158 109 1427 -64 1766 -64 
C 2406 -64 3053 503 3053 1382 
C 3053 2196 2496 2816 1837 2816 
C 1453 2816 1139 2603 960 2345 
L 960 2816 
L 198 2745 
L 198 2577 
C 576 2577 634 2539 634 2228 
L 634 -834 
C 634 -1081 608 -1114 198 -1114 
L 198 -1280 
C 352 -1268 634 -1268 800 -1268 
C 966 -1268 1254 -1268 1408 -1280 
L 1408 -1114 
z
M 973 2015 
C 973 2106 973 2241 1222 2481 
C 1254 2506 1472 2700 1792 2700 
C 2259 2700 2643 2112 2643 1376 
C 2643 639 2234 38 1728 38 
C 1498 38 1248 148 1056 451 
C 973 594 973 632 973 736 
L 973 2015 
z
" transform="scale(0.015625)"/>
       <path id="CMR17-6c" d="M 979 4416 
L 218 4345 
L 218 4179 
C 595 4179 653 4141 653 3835 
L 653 439 
C 653 198 627 166 218 166 
L 218 0 
C 371 12 653 12 813 12 
C 979 12 1261 12 1414 0 
L 1414 166 
C 1005 166 979 191 979 439 
L 979 4416 
z
" transform="scale(0.015625)"/>
       <path id="CMR17-65" d="M 2438 1503 
C 2464 1529 2464 1542 2464 1606 
C 2464 2251 2118 2816 1389 2816 
C 710 2816 173 2175 173 1394 
C 173 554 781 -64 1459 -64 
C 2176 -64 2458 619 2458 755 
C 2458 800 2419 800 2406 800 
C 2362 800 2355 787 2330 709 
C 2189 270 1837 51 1504 51 
C 1229 51 954 206 781 490 
C 582 819 582 1200 582 1503 
L 2438 1503 
z
M 589 1600 
C 634 2511 1126 2713 1382 2713 
C 1818 2713 2112 2308 2118 1600 
L 589 1600 
z
" transform="scale(0.015625)"/>
       <path id="CMR17-6e" d="M 2656 1954 
C 2656 2282 2592 2816 1837 2816 
C 1331 2816 1069 2424 973 2166 
L 966 2166 
L 966 2816 
L 211 2745 
L 211 2578 
C 589 2578 646 2540 646 2231 
L 646 443 
C 646 198 621 166 211 166 
L 211 0 
C 365 12 646 12 813 12 
C 979 12 1267 12 1421 0 
L 1421 166 
C 1011 166 986 192 986 443 
L 986 1678 
C 986 2269 1344 2713 1792 2713 
C 2266 2713 2317 2289 2317 1980 
L 2317 443 
C 2317 198 2291 166 1882 166 
L 1882 0 
C 2035 12 2317 12 2483 12 
C 2650 12 2938 12 3091 0 
L 3091 166 
C 2682 166 2656 192 2656 443 
L 2656 1954 
z
" transform="scale(0.015625)"/>
       <path id="CMR17-75" d="M 1882 2745 
L 1882 2579 
C 2259 2579 2317 2540 2317 2229 
L 2317 1053 
C 2317 510 2029 38 1555 38 
C 1030 38 986 355 986 691 
L 986 2816 
L 211 2745 
L 211 2579 
C 467 2579 640 2579 646 2320 
L 646 1079 
C 646 646 646 368 813 187 
C 896 103 1056 -64 1517 -64 
C 2061 -64 2272 400 2323 536 
L 2330 536 
L 2330 -64 
L 3091 -13 
L 3091 154 
C 2714 154 2656 193 2656 503 
L 2656 2816 
L 1882 2745 
z
" transform="scale(0.015625)"/>
       <path id="CMR17-62" d="M 960 4416 
L 198 4345 
L 198 4179 
C 576 4179 634 4141 634 3843 
L 634 -13 
L 749 -13 
L 934 445 
C 1120 141 1395 -64 1766 -64 
C 2406 -64 3053 503 3053 1382 
C 3053 2209 2477 2816 1830 2816 
C 1434 2816 1152 2603 960 2351 
L 960 4416 
z
M 973 2022 
C 973 2138 973 2157 1062 2293 
C 1312 2681 1670 2713 1792 2713 
C 1984 2713 2643 2610 2643 1388 
C 2643 109 1888 38 1734 38 
C 1536 38 1248 115 1043 490 
C 973 613 973 626 973 742 
L 973 2022 
z
" transform="scale(0.015625)"/>
       <path id="CMR17-72" d="M 960 1517 
C 960 2134 1222 2713 1702 2713 
C 1747 2713 1792 2707 1837 2687 
C 1837 2687 1696 2642 1696 2475 
C 1696 2321 1818 2257 1914 2257 
C 1990 2257 2131 2302 2131 2482 
C 2131 2687 1926 2816 1709 2816 
C 1222 2816 1011 2340 947 2115 
L 941 2115 
L 941 2816 
L 198 2745 
L 198 2578 
C 576 2578 634 2540 634 2231 
L 634 443 
C 634 198 608 166 198 166 
L 198 0 
C 352 12 646 12 813 12 
C 998 12 1325 12 1498 0 
L 1498 166 
C 1037 166 960 166 960 455 
L 960 1517 
z
" transform="scale(0.015625)"/>
      </defs>
      <use xlink:href="#CMR17-53" transform="scale(0.996264)"/>
      <use xlink:href="#CMR17-61" transform="translate(50.89537 0) scale(0.996264)"/>
      <use xlink:href="#CMR17-6d" transform="translate(96.585847 0) scale(0.996264)"/>
      <use xlink:href="#CMR17-70" transform="translate(173.505437 0) scale(0.996264)"/>
      <use xlink:href="#CMR17-6c" transform="translate(224.400807 0) scale(0.996264)"/>
      <use xlink:href="#CMR17-65" transform="translate(249.271865 0) scale(0.996264)"/>
      <use xlink:href="#CMR17-6e" transform="translate(319.833492 0) scale(0.996264)"/>
      <use xlink:href="#CMR17-75" transform="translate(368.126408 0) scale(0.996264)"/>
      <use xlink:href="#CMR17-6d" transform="translate(419.021777 0) scale(0.996264)"/>
      <use xlink:href="#CMR17-62" transform="translate(493.338913 0) scale(0.996264)"/>
      <use xlink:href="#CMR17-65" transform="translate(546.836722 0) scale(0.996264)"/>
      <use xlink:href="#CMR17-72" transform="translate(587.322382 0) scale(0.996264)"/>
     </g>
    </g>
   </g>
   <g id="matplotlib.axis_2">
    <g id="ytick_1">
     <g id="line2d_7">
      <path d="M 108 453.421389 
L 777.6 453.421389 
" clip-path="url(#p66e36ce947)" style="fill: none; stroke: #cccccc; stroke-linecap: round"/>
     </g>
     <g id="text_8">
      <!-- $\mathdefault{−1}$ -->
      <g style="fill: #262626" transform="translate(64.626066 462.934323) scale(0.275 -0.275)">
       <defs>
        <path id="CMSY10-0" d="M 4218 1472 
C 4326 1472 4442 1472 4442 1600 
C 4442 1728 4326 1728 4218 1728 
L 755 1728 
C 646 1728 531 1728 531 1600 
C 531 1472 646 1472 755 1472 
L 4218 1472 
z
" transform="scale(0.015625)"/>
       </defs>
       <use xlink:href="#CMSY10-0" transform="scale(0.996264)"/>
       <use xlink:href="#CMR17-31" transform="translate(77.487468 0) scale(0.996264)"/>
      </g>
     </g>
    </g>
    <g id="ytick_2">
     <g id="line2d_8">
      <path d="M 108 363.761663 
L 777.6 363.761663 
" clip-path="url(#p66e36ce947)" style="fill: none; stroke: #cccccc; stroke-linecap: round"/>
     </g>
     <g id="text_9">
      <!-- $\mathdefault{0}$ -->
      <g style="fill: #262626" transform="translate(85.935119 373.274597) scale(0.275 -0.275)">
       <use xlink:href="#CMR17-30" transform="scale(0.996264)"/>
      </g>
     </g>
    </g>
    <g id="ytick_3">
     <g id="line2d_9">
      <path d="M 108 274.101938 
L 777.6 274.101938 
" clip-path="url(#p66e36ce947)" style="fill: none; stroke: #cccccc; stroke-linecap: round"/>
     </g>
     <g id="text_10">
      <!-- $\mathdefault{1}$ -->
      <g style="fill: #262626" transform="translate(85.935119 283.614871) scale(0.275 -0.275)">
       <use xlink:href="#CMR17-31" transform="scale(0.996264)"/>
      </g>
     </g>
    </g>
    <g id="ytick_4">
     <g id="line2d_10">
      <path d="M 108 184.442212 
L 777.6 184.442212 
" clip-path="url(#p66e36ce947)" style="fill: none; stroke: #cccccc; stroke-linecap: round"/>
     </g>
     <g id="text_11">
      <!-- $\mathdefault{2}$ -->
      <g style="fill: #262626" transform="translate(85.935119 193.955145) scale(0.275 -0.275)">
       <use xlink:href="#CMR17-32" transform="scale(0.996264)"/>
      </g>
     </g>
    </g>
    <g id="ytick_5">
     <g id="line2d_11">
      <path d="M 108 94.782486 
L 777.6 94.782486 
" clip-path="url(#p66e36ce947)" style="fill: none; stroke: #cccccc; stroke-linecap: round"/>
     </g>
     <g id="text_12">
      <!-- $\mathdefault{3}$ -->
      <g style="fill: #262626" transform="translate(85.935119 104.295419) scale(0.275 -0.275)">
       <defs>
        <path id="CMR17-33" d="M 1414 2176 
C 1984 2176 2234 1673 2234 1094 
C 2234 322 1824 25 1453 25 
C 1114 25 563 193 390 691 
C 422 678 454 678 486 678 
C 640 678 755 780 755 947 
C 755 1132 614 1216 486 1216 
C 378 1216 211 1164 211 927 
C 211 335 787 -128 1466 -128 
C 2176 -128 2720 432 2720 1087 
C 2720 1718 2208 2176 1600 2246 
C 2086 2347 2554 2776 2554 3353 
C 2554 3856 2048 4224 1472 4224 
C 890 4224 378 3862 378 3347 
C 378 3123 544 3084 627 3084 
C 762 3084 877 3167 877 3334 
C 877 3500 762 3584 627 3584 
C 602 3584 570 3584 544 3571 
C 730 3999 1235 4076 1459 4076 
C 1683 4076 2106 3966 2106 3347 
C 2106 3167 2080 2851 1862 2574 
C 1670 2329 1453 2316 1242 2297 
C 1210 2297 1062 2284 1037 2284 
C 992 2278 966 2272 966 2227 
C 966 2182 973 2176 1101 2176 
L 1414 2176 
z
" transform="scale(0.015625)"/>
       </defs>
       <use xlink:href="#CMR17-33" transform="scale(0.996264)"/>
      </g>
     </g>
    </g>
    <g id="text_13">
     <!-- Amplitude/Shape Indicator -->
     <g style="fill: #262626" transform="translate(53.179093 456.351872) rotate(-90) scale(0.3 -0.3)">
      <defs>
       <path id="CMR17-41" d="M 2323 4441 
C 2291 4524 2278 4544 2214 4544 
C 2150 4544 2138 4524 2106 4441 
L 749 580 
C 627 236 371 166 147 166 
L 147 0 
C 262 12 518 12 640 12 
C 800 12 1056 12 1210 0 
L 1210 166 
C 909 179 864 382 864 459 
C 864 516 877 548 890 586 
L 1229 1536 
L 2906 1536 
L 3290 453 
C 3322 376 3322 363 3322 338 
C 3322 166 3046 166 2925 166 
L 2925 0 
C 3110 12 3443 12 3642 12 
C 3808 12 4128 12 4282 0 
L 4282 166 
C 3942 166 3827 166 3744 402 
L 2323 4441 
z
M 2067 3924 
L 2848 1702 
L 1286 1702 
L 2067 3924 
z
" transform="scale(0.015625)"/>
       <path id="CMR17-69" d="M 992 3961 
C 992 4102 877 4224 730 4224 
C 589 4224 467 4108 467 3961 
C 467 3820 582 3699 730 3699 
C 870 3699 992 3814 992 3961 
z
M 243 2745 
L 243 2579 
C 602 2579 653 2540 653 2231 
L 653 443 
C 653 198 627 166 218 166 
L 218 0 
C 371 12 646 12 806 12 
C 960 12 1222 12 1370 0 
L 1370 166 
C 992 166 979 205 979 436 
L 979 2816 
L 243 2745 
z
" transform="scale(0.015625)"/>
       <path id="CMR17-74" d="M 966 2585 
L 1862 2585 
L 1862 2752 
L 966 2752 
L 966 3968 
L 851 3968 
C 838 3292 614 2700 70 2687 
L 70 2585 
L 627 2585 
L 627 778 
C 627 655 627 -64 1370 -64 
C 1747 -64 1965 308 1965 784 
L 1965 1151 
L 1850 1151 
L 1850 790 
C 1850 347 1677 51 1408 51 
C 1222 51 966 179 966 765 
L 966 2585 
z
" transform="scale(0.015625)"/>
       <path id="CMR17-64" d="M 1869 4345 
L 1869 4179 
C 2246 4179 2304 4141 2304 3843 
L 2304 2371 
C 2278 2403 2016 2816 1498 2816 
C 845 2816 211 2228 211 1376 
C 211 529 806 -64 1434 -64 
C 1978 -64 2259 361 2291 406 
L 2291 -64 
L 3066 -13 
L 3066 154 
C 2688 154 2630 193 2630 503 
L 2630 4416 
L 1869 4345 
z
M 2291 762 
C 2291 568 2176 393 2029 264 
C 1811 70 1594 38 1472 38 
C 1286 38 621 135 621 1369 
C 621 2636 1363 2713 1530 2713 
C 1824 2713 2061 2545 2208 2313 
C 2291 2177 2291 2157 2291 2041 
L 2291 762 
z
" transform="scale(0.015625)"/>
       <path id="CMR17-2f" d="M 2605 4575 
C 2637 4658 2637 4671 2637 4684 
C 2637 4761 2579 4800 2528 4800 
C 2451 4800 2426 4748 2400 4671 
L 326 -1376 
C 294 -1460 294 -1472 294 -1485 
C 294 -1562 352 -1600 403 -1600 
C 480 -1600 506 -1549 531 -1472 
L 2605 4575 
z
" transform="scale(0.015625)"/>
       <path id="CMR17-68" d="M 2656 1954 
C 2656 2282 2592 2816 1837 2816 
C 1312 2816 1056 2392 979 2179 
L 973 2179 
L 973 4416 
L 211 4345 
L 211 4179 
C 589 4179 646 4141 646 3843 
L 646 443 
C 646 198 621 166 211 166 
L 211 0 
C 365 12 646 12 813 12 
C 979 12 1267 12 1421 0 
L 1421 166 
C 1011 166 986 192 986 443 
L 986 1678 
C 986 2269 1344 2713 1792 2713 
C 2266 2713 2317 2289 2317 1980 
L 2317 443 
C 2317 198 2291 166 1882 166 
L 1882 0 
C 2035 12 2317 12 2483 12 
C 2650 12 2938 12 3091 0 
L 3091 166 
C 2682 166 2656 192 2656 443 
L 2656 1954 
z
" transform="scale(0.015625)"/>
       <path id="CMR17-49" d="M 1261 3898 
C 1261 4185 1338 4185 1798 4185 
L 1798 4352 
C 1594 4339 1267 4339 1050 4339 
C 832 4339 506 4339 301 4352 
L 301 4185 
C 762 4185 838 4185 838 3898 
L 838 453 
C 838 166 762 166 301 166 
L 301 0 
C 506 12 832 12 1050 12 
C 1267 12 1594 12 1798 0 
L 1798 166 
C 1338 166 1261 166 1261 453 
L 1261 3898 
z
" transform="scale(0.015625)"/>
       <path id="CMR17-63" d="M 2234 2240 
C 2112 2240 1933 2240 1933 2015 
C 1933 1836 2080 1785 2163 1785 
C 2208 1785 2394 1804 2394 2028 
C 2394 2476 1958 2816 1466 2816 
C 787 2816 211 2201 211 1379 
C 211 521 813 -64 1466 -64 
C 2259 -64 2458 676 2458 747 
C 2458 773 2451 792 2406 792 
C 2362 792 2355 786 2330 702 
C 2163 180 1798 51 1523 51 
C 1114 51 621 431 621 1385 
C 621 2358 1094 2700 1472 2700 
C 1722 2700 2093 2582 2234 2240 
z
" transform="scale(0.015625)"/>
       <path id="CMR17-6f" d="M 2758 1356 
C 2758 2176 2163 2816 1466 2816 
C 768 2816 173 2176 173 1356 
C 173 550 768 -64 1466 -64 
C 2163 -64 2758 550 2758 1356 
z
M 1466 51 
C 1165 51 909 230 762 480 
C 602 768 582 1126 582 1408 
C 582 1676 595 2009 762 2297 
C 890 2508 1139 2713 1466 2713 
C 1754 2713 1997 2553 2150 2329 
C 2349 2028 2349 1606 2349 1408 
C 2349 1158 2336 774 2163 467 
C 1984 172 1709 51 1466 51 
z
" transform="scale(0.015625)"/>
      </defs>
      <use xlink:href="#CMR17-41" transform="scale(0.996264)"/>
      <use xlink:href="#CMR17-6d" transform="translate(69.07243 0) scale(0.996264)"/>
      <use xlink:href="#CMR17-70" transform="translate(145.99202 0) scale(0.996264)"/>
      <use xlink:href="#CMR17-6c" transform="translate(196.887389 0) scale(0.996264)"/>
      <use xlink:href="#CMR17-69" transform="translate(221.758448 0) scale(0.996264)"/>
      <use xlink:href="#CMR17-74" transform="translate(246.629506 0) scale(0.996264)"/>
      <use xlink:href="#CMR17-75" transform="translate(281.910274 0) scale(0.996264)"/>
      <use xlink:href="#CMR17-64" transform="translate(332.805644 0) scale(0.996264)"/>
      <use xlink:href="#CMR17-65" transform="translate(383.701014 0) scale(0.996264)"/>
      <use xlink:href="#CMR17-2f" transform="translate(424.186674 0) scale(0.996264)"/>
      <use xlink:href="#CMR17-53" transform="translate(469.877151 0) scale(0.996264)"/>
      <use xlink:href="#CMR17-68" transform="translate(520.772521 0) scale(0.996264)"/>
      <use xlink:href="#CMR17-61" transform="translate(571.667891 0) scale(0.996264)"/>
      <use xlink:href="#CMR17-70" transform="translate(617.358368 0) scale(0.996264)"/>
      <use xlink:href="#CMR17-65" transform="translate(670.856177 0) scale(0.996264)"/>
      <use xlink:href="#CMR17-49" transform="translate(741.417803 0) scale(0.996264)"/>
      <use xlink:href="#CMR17-6e" transform="translate(774.056213 0) scale(0.996264)"/>
      <use xlink:href="#CMR17-64" transform="translate(824.951582 0) scale(0.996264)"/>
      <use xlink:href="#CMR17-69" transform="translate(875.846952 0) scale(0.996264)"/>
      <use xlink:href="#CMR17-63" transform="translate(900.718011 0) scale(0.996264)"/>
      <use xlink:href="#CMR17-61" transform="translate(941.203671 0) scale(0.996264)"/>
      <use xlink:href="#CMR17-74" transform="translate(986.894148 0) scale(0.996264)"/>
      <use xlink:href="#CMR17-6f" transform="translate(1022.174916 0) scale(0.996264)"/>
      <use xlink:href="#CMR17-72" transform="translate(1067.865393 0) scale(0.996264)"/>
     </g>
    </g>
   </g>
   <g id="line2d_12">
    <path d="M 140.814205 363.761663 
L 409.510227 363.761663 
L 411.888068 256.169992 
L 485.601136 256.169992 
L 487.978977 363.761663 
L 747.163636 363.761663 
L 747.163636 363.761663 
" clip-path="url(#p66e36ce947)" style="fill: none; stroke-dasharray: 11.1,4.8; stroke-dashoffset: 0; stroke: #4e79a7; stroke-width: 3"/>
   </g>
   <g id="line2d_13">
    <path d="M 140.814205 359.286284 
L 145.569886 358.769558 
L 147.947727 358.978305 
L 150.325568 359.057963 
L 152.703409 358.784165 
L 155.08125 358.986161 
L 157.459091 358.932218 
L 159.836932 358.64675 
L 164.592614 358.862849 
L 166.970455 358.558612 
L 169.348295 358.42218 
L 171.726136 358.42033 
L 174.103977 358.790546 
L 176.481818 358.957248 
L 178.859659 358.717377 
L 181.2375 358.077892 
L 183.615341 356.979519 
L 185.993182 357.667428 
L 188.371023 357.625099 
L 190.748864 354.953685 
L 193.126705 356.147242 
L 195.504545 356.986241 
L 197.882386 356.55964 
L 200.260227 356.52087 
L 202.638068 356.764301 
L 207.39375 356.946059 
L 209.771591 357.408577 
L 212.149432 357.537106 
L 214.527273 357.073173 
L 216.905114 357.085829 
L 219.282955 356.867143 
L 221.660795 357.153567 
L 224.038636 357.327886 
L 226.416477 357.636632 
L 231.172159 356.994373 
L 233.55 356.44606 
L 243.061364 357.130804 
L 247.817045 356.891816 
L 250.194886 357.039289 
L 252.572727 356.660952 
L 254.950568 356.96394 
L 257.328409 356.745405 
L 259.70625 357.126002 
L 262.084091 356.893666 
L 264.461932 356.134449 
L 266.839773 354.241803 
L 269.217614 360.868453 
L 271.595455 361.239903 
L 273.973295 359.491374 
L 276.351136 358.089042 
L 278.728977 358.739761 
L 283.484659 359.229022 
L 285.8625 359.040574 
L 290.618182 359.06854 
L 292.996023 358.699773 
L 295.373864 357.847934 
L 297.751705 356.775901 
L 300.129545 355.900175 
L 302.507386 355.401483 
L 304.885227 356.060258 
L 307.263068 355.792468 
L 309.640909 356.232984 
L 312.01875 356.096864 
L 314.396591 355.746573 
L 316.774432 355.972967 
L 319.152273 355.784069 
L 326.285795 355.832892 
L 328.663636 355.548943 
L 331.041477 355.857566 
L 333.419318 355.974667 
L 335.797159 355.77263 
L 338.175 355.991096 
L 340.552841 355.917029 
L 342.930682 356.20629 
L 345.308523 356.032276 
L 347.686364 356.314618 
L 350.064205 356.183339 
L 354.819886 356.090278 
L 357.197727 355.850918 
L 359.575568 355.742216 
L 361.953409 355.516988 
L 364.33125 355.862833 
L 366.709091 355.849615 
L 369.086932 355.964888 
L 371.464773 355.962987 
L 373.842614 354.797462 
L 378.598295 355.491343 
L 383.353977 355.520287 
L 385.731818 355.001369 
L 388.109659 355.310199 
L 390.4875 356.596059 
L 392.865341 357.688916 
L 395.243182 358.327809 
L 397.621023 358.718698 
L 402.376705 358.437674 
L 404.754545 359.026709 
L 407.132386 358.251783 
L 409.510227 354.35128 
L 411.888068 295.192923 
L 414.265909 284.155006 
L 416.64375 282.692455 
L 421.399432 282.66397 
L 423.777273 282.407826 
L 430.910795 282.986078 
L 433.288636 282.877763 
L 447.555682 283.404689 
L 449.933523 283.142992 
L 452.311364 283.252157 
L 454.689205 283.223015 
L 457.067045 283.422645 
L 459.444886 283.4596 
L 461.822727 283.669454 
L 466.578409 283.669368 
L 471.334091 283.408173 
L 473.711932 283.408323 
L 476.089773 283.723349 
L 478.467614 283.508445 
L 480.845455 282.431158 
L 483.223295 283.327814 
L 485.601136 285.981418 
L 487.978977 351.842685 
L 490.356818 358.716396 
L 492.734659 359.145973 
L 495.1125 358.367106 
L 497.490341 358.831229 
L 499.868182 358.443075 
L 504.623864 358.599729 
L 507.001705 358.412132 
L 514.135227 358.356942 
L 516.513068 358.521273 
L 518.890909 358.303739 
L 521.26875 357.597784 
L 523.646591 353.33081 
L 526.024432 356.599666 
L 530.780114 357.118709 
L 533.157955 357.085699 
L 535.535795 356.697436 
L 537.913636 356.743107 
L 540.291477 356.57666 
L 542.669318 356.294242 
L 545.047159 356.688611 
L 547.425 356.958499 
L 552.180682 356.964269 
L 556.936364 356.650212 
L 564.069886 355.706736 
L 566.447727 355.833367 
L 568.825568 355.467529 
L 571.203409 354.847021 
L 573.58125 354.710094 
L 575.959091 354.735965 
L 578.336932 353.182191 
L 580.714773 353.334993 
L 583.092614 353.110174 
L 585.470455 354.200766 
L 587.848295 354.475129 
L 590.226136 355.246058 
L 594.981818 354.630942 
L 597.359659 360.137497 
L 599.7375 360.221248 
L 602.115341 359.687776 
L 604.493182 358.84561 
L 606.871023 358.783975 
L 609.248864 358.476876 
L 614.004545 358.892767 
L 616.382386 358.725429 
L 618.760227 358.975663 
L 621.138068 358.868208 
L 623.515909 359.054125 
L 625.89375 359.064843 
L 628.271591 358.793235 
L 630.649432 358.306101 
L 635.405114 353.930382 
L 637.782955 352.954244 
L 640.160795 353.914842 
L 642.538636 354.600326 
L 644.916477 355.558042 
L 652.05 356.015782 
L 654.427841 356.019541 
L 656.805682 355.572304 
L 659.183523 355.979534 
L 663.939205 355.766609 
L 666.317045 355.428291 
L 671.072727 355.569649 
L 673.450568 355.614154 
L 675.828409 355.517519 
L 680.584091 356.017409 
L 682.961932 356.431917 
L 685.339773 356.502863 
L 687.717614 355.997088 
L 692.473295 355.639957 
L 694.851136 356.45297 
L 697.228977 356.487111 
L 699.606818 356.35791 
L 701.984659 356.345732 
L 704.3625 356.185625 
L 706.740341 356.325655 
L 709.118182 355.848043 
L 716.251705 355.773769 
L 728.140909 357.372633 
L 730.51875 357.455014 
L 732.896591 356.959023 
L 735.274432 356.073078 
L 737.652273 354.294164 
L 740.030114 355.275632 
L 742.407955 358.286244 
L 744.785795 359.379805 
L 747.163636 357.128908 
L 747.163636 357.128908 
" clip-path="url(#p66e36ce947)" style="fill: none; stroke: #4e79a7; stroke-width: 3; stroke-linecap: round"/>
   </g>
   <g id="line2d_14">
    <path d="M 140.814205 363.761663 
L 633.027273 363.761663 
L 635.405114 256.169992 
L 737.652273 256.169992 
L 740.030114 363.761663 
L 747.163636 363.761663 
L 747.163636 363.761663 
" clip-path="url(#p66e36ce947)" style="fill: none; stroke-dasharray: 11.1,4.8; stroke-dashoffset: 0; stroke: #f28e2b; stroke-width: 3"/>
   </g>
   <g id="line2d_15">
    <path d="M 140.814205 357.50968 
L 143.192045 357.665422 
L 145.569886 357.576815 
L 147.947727 357.961987 
L 150.325568 357.373024 
L 155.08125 357.572051 
L 157.459091 357.946063 
L 159.836932 357.446154 
L 162.214773 357.385241 
L 164.592614 357.46749 
L 166.970455 357.432802 
L 169.348295 357.971549 
L 171.726136 357.718076 
L 174.103977 357.799147 
L 176.481818 358.408167 
L 183.615341 359.712567 
L 185.993182 360.585103 
L 188.371023 359.493679 
L 190.748864 354.09063 
L 197.882386 355.771536 
L 200.260227 355.913644 
L 205.015909 355.891188 
L 207.39375 355.374514 
L 209.771591 355.497353 
L 214.527273 354.828344 
L 216.905114 355.774882 
L 219.282955 355.151876 
L 221.660795 355.601601 
L 224.038636 355.582209 
L 226.416477 355.151525 
L 228.794318 354.879 
L 231.172159 354.94943 
L 233.55 354.547649 
L 235.927841 355.054501 
L 238.305682 354.931341 
L 240.683523 354.520849 
L 243.061364 355.047688 
L 245.439205 354.309696 
L 247.817045 355.310688 
L 250.194886 354.788432 
L 252.572727 355.551403 
L 259.70625 355.261601 
L 262.084091 356.251821 
L 264.461932 356.496602 
L 266.839773 353.987102 
L 269.217614 359.546211 
L 271.595455 359.374728 
L 276.351136 357.18857 
L 278.728977 358.138559 
L 281.106818 358.250512 
L 283.484659 357.966044 
L 285.8625 358.067956 
L 288.240341 358.350294 
L 290.618182 358.336869 
L 292.996023 357.800449 
L 295.373864 356.879169 
L 297.751705 355.391484 
L 300.129545 357.988153 
L 302.507386 359.742103 
L 304.885227 360.933736 
L 309.640909 360.861789 
L 312.01875 360.938592 
L 314.396591 360.567647 
L 316.774432 360.700605 
L 321.530114 360.333142 
L 331.041477 360.442295 
L 333.419318 360.698057 
L 335.797159 360.564159 
L 338.175 360.716004 
L 340.552841 360.494812 
L 342.930682 360.742421 
L 345.308523 360.613241 
L 347.686364 360.815532 
L 350.064205 360.70279 
L 354.819886 360.709798 
L 361.953409 360.380714 
L 364.33125 360.439653 
L 366.709091 360.65021 
L 369.086932 360.743139 
L 371.464773 360.635171 
L 373.842614 360.17319 
L 376.220455 359.854664 
L 378.598295 360.10453 
L 380.976136 359.777985 
L 383.353977 359.320079 
L 385.731818 358.305987 
L 388.109659 356.841185 
L 390.4875 358.021701 
L 392.865341 358.311834 
L 395.243182 358.035231 
L 397.621023 358.344276 
L 399.998864 358.090539 
L 402.376705 358.134925 
L 404.754545 358.031719 
L 407.132386 359.470419 
L 409.510227 360.263138 
L 411.888068 361.529207 
L 414.265909 361.881015 
L 416.64375 362.036291 
L 421.399432 361.974537 
L 423.777273 362.089035 
L 447.555682 361.753754 
L 449.933523 361.88012 
L 459.444886 361.772239 
L 464.200568 361.701706 
L 473.711932 361.834854 
L 478.467614 361.477181 
L 480.845455 361.955455 
L 483.223295 362.00837 
L 485.601136 361.772117 
L 487.978977 359.496653 
L 490.356818 356.692727 
L 492.734659 358.194747 
L 495.1125 356.872532 
L 497.490341 357.636543 
L 499.868182 357.64977 
L 502.246023 357.925916 
L 504.623864 357.904152 
L 507.001705 358.014706 
L 509.379545 358.330122 
L 511.757386 358.111491 
L 514.135227 358.566271 
L 516.513068 358.694704 
L 518.890909 359.07499 
L 521.26875 358.379256 
L 523.646591 358.655626 
L 526.024432 360.044541 
L 528.402273 360.34741 
L 533.157955 360.305391 
L 535.535795 359.961189 
L 537.913636 359.857244 
L 540.291477 359.620395 
L 552.180682 360.037381 
L 554.558523 360.029584 
L 556.936364 359.863144 
L 559.314205 359.895731 
L 561.692045 359.611714 
L 564.069886 359.673177 
L 566.447727 359.227678 
L 568.825568 358.582205 
L 571.203409 357.47313 
L 573.58125 356.865205 
L 575.959091 356.651348 
L 578.336932 357.034646 
L 583.092614 358.787259 
L 585.470455 359.590049 
L 587.848295 359.654519 
L 590.226136 360.284737 
L 592.603977 359.824355 
L 594.981818 358.03861 
L 597.359659 359.722505 
L 599.7375 358.682287 
L 602.115341 358.733003 
L 604.493182 357.609117 
L 606.871023 358.018956 
L 609.248864 357.649881 
L 611.626705 357.600901 
L 618.760227 358.068823 
L 623.515909 358.101947 
L 625.89375 357.769564 
L 628.271591 356.738649 
L 630.649432 353.581034 
L 633.027273 344.097301 
L 635.405114 342.319607 
L 637.782955 350.838715 
L 640.160795 355.963391 
L 642.538636 358.150178 
L 644.916477 359.559485 
L 649.672159 360.350917 
L 654.427841 360.565277 
L 659.183523 360.236376 
L 663.939205 360.504267 
L 666.317045 360.189647 
L 668.694886 360.116082 
L 671.072727 360.394609 
L 678.20625 360.48597 
L 680.584091 360.485866 
L 685.339773 360.903698 
L 692.473295 360.414786 
L 697.228977 361.017733 
L 699.606818 360.956396 
L 701.984659 360.693873 
L 704.3625 360.626342 
L 706.740341 360.783108 
L 709.118182 360.588914 
L 716.251705 360.586441 
L 721.007386 360.929558 
L 723.385227 361.317298 
L 725.763068 361.398766 
L 728.140909 361.337921 
L 730.51875 361.107948 
L 732.896591 360.475289 
L 735.274432 359.647947 
L 737.652273 357.753285 
L 740.030114 357.621068 
L 742.407955 359.64169 
L 744.785795 359.175 
L 747.163636 355.904221 
L 747.163636 355.904221 
" clip-path="url(#p66e36ce947)" style="fill: none; stroke: #f28e2b; stroke-width: 3; stroke-linecap: round"/>
   </g>
   <g id="line2d_16">
    <path d="M 140.814205 363.761663 
L 185.993182 363.761663 
L 188.371023 256.169992 
L 266.839773 256.169992 
L 269.217614 363.761663 
L 747.163636 363.761663 
L 747.163636 363.761663 
" clip-path="url(#p66e36ce947)" style="fill: none; stroke-dasharray: 11.1,4.8; stroke-dashoffset: 0; stroke: #e15759; stroke-width: 3"/>
   </g>
   <g id="line2d_17">
    <path d="M 140.814205 357.078666 
L 143.192045 357.700222 
L 145.569886 357.065002 
L 147.947727 357.661578 
L 150.325568 357.652202 
L 152.703409 357.367457 
L 155.08125 357.611181 
L 157.459091 357.571464 
L 159.836932 357.180846 
L 164.592614 357.53653 
L 166.970455 357.073617 
L 169.348295 357.443686 
L 171.726136 357.216553 
L 174.103977 357.421288 
L 176.481818 357.880016 
L 178.859659 357.721955 
L 181.2375 357.084159 
L 183.615341 356.74294 
L 185.993182 353.251064 
L 188.371023 333.710408 
L 190.748864 297.482736 
L 193.126705 288.307138 
L 195.504545 286.47955 
L 200.260227 284.89798 
L 202.638068 284.863644 
L 207.39375 285.334708 
L 209.771591 285.852715 
L 212.149432 286.161376 
L 214.527273 286.016037 
L 216.905114 285.691482 
L 224.038636 285.367051 
L 226.416477 286.056059 
L 228.794318 286.479363 
L 231.172159 286.634482 
L 235.927841 286.000854 
L 238.305682 285.887393 
L 240.683523 286.274608 
L 243.061364 286.465388 
L 245.439205 287.065946 
L 250.194886 286.010474 
L 252.572727 285.244766 
L 254.950568 285.320076 
L 259.70625 284.906295 
L 262.084091 284.352947 
L 264.461932 287.416596 
L 266.839773 300.176576 
L 269.217614 358.72981 
L 271.595455 359.194818 
L 273.973295 358.834678 
L 276.351136 357.111416 
L 278.728977 357.699197 
L 281.106818 357.882905 
L 283.484659 357.512623 
L 285.8625 357.31163 
L 288.240341 356.975833 
L 290.618182 356.840385 
L 292.996023 357.371169 
L 295.373864 357.249083 
L 297.751705 354.146888 
L 302.507386 350.43156 
L 304.885227 349.526015 
L 307.263068 349.048662 
L 309.640909 349.575911 
L 312.01875 349.154539 
L 314.396591 348.85048 
L 316.774432 349.124431 
L 319.152273 348.845716 
L 321.530114 348.948742 
L 326.285795 348.884695 
L 328.663636 348.46724 
L 331.041477 349.009619 
L 333.419318 349.019724 
L 335.797159 348.911369 
L 338.175 349.107195 
L 340.552841 349.176589 
L 342.930682 349.493849 
L 345.308523 349.249357 
L 347.686364 349.565816 
L 350.064205 349.381864 
L 352.442045 349.441324 
L 354.819886 349.264575 
L 357.197727 348.924525 
L 359.575568 348.784689 
L 361.953409 348.411643 
L 364.33125 348.997329 
L 369.086932 349.037103 
L 371.464773 349.108631 
L 373.842614 347.364101 
L 378.598295 348.49274 
L 380.976136 350.464558 
L 385.731818 352.221676 
L 388.109659 351.667773 
L 390.4875 355.130574 
L 392.865341 356.790318 
L 395.243182 357.244636 
L 397.621023 357.894769 
L 399.998864 357.496208 
L 404.754545 357.850989 
L 407.132386 358.726158 
L 409.510227 358.726828 
L 411.888068 352.438863 
L 414.265909 352.447843 
L 416.64375 352.598931 
L 421.399432 352.514443 
L 423.777273 352.836233 
L 426.155114 352.726698 
L 428.532955 352.36464 
L 430.910795 352.266495 
L 433.288636 352.421783 
L 442.8 352.179809 
L 445.177841 351.947069 
L 447.555682 351.912302 
L 449.933523 352.264535 
L 454.689205 352.158014 
L 461.822727 351.7975 
L 466.578409 351.831033 
L 473.711932 352.092933 
L 478.467614 351.235346 
L 480.845455 352.556665 
L 483.223295 352.657631 
L 485.601136 352.007628 
L 487.978977 358.663884 
L 490.356818 357.616057 
L 492.734659 358.461949 
L 495.1125 357.089055 
L 497.490341 357.440213 
L 499.868182 357.180044 
L 502.246023 357.635458 
L 507.001705 357.366045 
L 509.379545 357.743969 
L 511.757386 357.363833 
L 514.135227 357.575861 
L 516.513068 358.19448 
L 518.890909 356.906664 
L 521.26875 354.463263 
L 523.646591 347.468362 
L 526.024432 349.33532 
L 528.402273 350.335327 
L 530.780114 350.290392 
L 533.157955 350.366283 
L 537.913636 349.633269 
L 540.291477 349.042514 
L 552.180682 349.953024 
L 554.558523 349.881925 
L 556.936364 349.559733 
L 559.314205 349.610852 
L 561.692045 349.034929 
L 564.069886 349.196474 
L 566.447727 348.464778 
L 568.825568 347.858134 
L 571.203409 347.019768 
L 573.58125 346.712732 
L 575.959091 347.090382 
L 578.336932 346.888681 
L 580.714773 346.477828 
L 583.092614 347.194705 
L 585.470455 348.5496 
L 587.848295 348.949573 
L 590.226136 349.683042 
L 592.603977 348.78589 
L 594.981818 346.87556 
L 597.359659 359.175662 
L 599.7375 357.34472 
L 602.115341 358.213807 
L 604.493182 357.075612 
L 606.871023 357.44498 
L 609.248864 357.057133 
L 611.626705 357.556802 
L 614.004545 357.373423 
L 616.382386 357.402218 
L 618.760227 357.603668 
L 621.138068 357.402052 
L 623.515909 357.710943 
L 630.649432 357.160365 
L 635.405114 351.061074 
L 637.782955 350.890254 
L 640.160795 351.458033 
L 642.538636 351.363833 
L 644.916477 350.97558 
L 647.294318 350.353779 
L 649.672159 349.361642 
L 654.427841 349.22113 
L 656.805682 348.516122 
L 659.183523 349.299056 
L 661.561364 349.093413 
L 666.317045 348.372283 
L 668.694886 348.614196 
L 671.072727 348.48566 
L 675.828409 348.459674 
L 678.20625 348.80016 
L 680.584091 349.288145 
L 682.961932 349.899312 
L 685.339773 349.814135 
L 687.717614 349.038178 
L 690.095455 348.920646 
L 692.473295 348.60009 
L 694.851136 349.927575 
L 704.3625 349.546163 
L 706.740341 349.570367 
L 709.118182 348.882003 
L 716.251705 348.79356 
L 718.629545 349.260827 
L 723.385227 350.421684 
L 725.763068 350.734487 
L 728.140909 351.591211 
L 730.51875 353.252624 
L 732.896591 353.169205 
L 735.274432 352.439053 
L 737.652273 350.863719 
L 740.030114 353.518407 
L 742.407955 357.222484 
L 744.785795 358.634978 
L 747.163636 356.43364 
L 747.163636 356.43364 
" clip-path="url(#p66e36ce947)" style="fill: none; stroke: #e15759; stroke-width: 3; stroke-linecap: round"/>
   </g>
   <g id="line2d_18">
    <path d="M 140.814205 363.761663 
L 747.163636 363.761663 
L 747.163636 363.761663 
" clip-path="url(#p66e36ce947)" style="fill: none; stroke-dasharray: 11.1,4.8; stroke-dashoffset: 0; stroke: #76b7b2; stroke-width: 3"/>
   </g>
   <g id="line2d_19">
    <path d="M 140.814205 355.397108 
L 143.192045 355.023247 
L 145.569886 354.854273 
L 147.947727 355.012381 
L 150.325568 355.286549 
L 152.703409 354.734039 
L 155.08125 354.877228 
L 157.459091 354.56587 
L 159.836932 354.085345 
L 164.592614 354.461168 
L 166.970455 354.13623 
L 169.348295 354.290221 
L 171.726136 354.285278 
L 174.103977 354.517313 
L 176.481818 355.024835 
L 178.859659 354.801975 
L 181.2375 354.407187 
L 183.615341 354.612422 
L 185.993182 356.355791 
L 188.371023 356.58182 
L 190.748864 353.860751 
L 193.126705 355.001815 
L 195.504545 355.759334 
L 197.882386 355.661472 
L 202.638068 355.746783 
L 207.39375 355.791072 
L 209.771591 355.495083 
L 212.149432 355.367921 
L 214.527273 355.642011 
L 216.905114 355.048403 
L 219.282955 355.610277 
L 221.660795 355.900871 
L 226.416477 355.426318 
L 228.794318 355.729686 
L 231.172159 354.890911 
L 235.927841 355.415411 
L 238.305682 355.414812 
L 240.683523 355.110889 
L 243.061364 355.339911 
L 245.439205 354.955855 
L 247.817045 354.964644 
L 252.572727 355.688021 
L 254.950568 355.563846 
L 257.328409 355.664472 
L 259.70625 355.496906 
L 262.084091 355.647582 
L 264.461932 351.631529 
L 266.839773 352.927448 
L 269.217614 356.424237 
L 271.595455 354.509868 
L 273.973295 355.661679 
L 276.351136 353.965475 
L 278.728977 354.451371 
L 281.106818 354.566885 
L 283.484659 354.181897 
L 285.8625 354.052476 
L 288.240341 353.729884 
L 290.618182 353.713964 
L 292.996023 354.578473 
L 295.373864 357.068333 
L 297.751705 355.794477 
L 300.129545 351.320241 
L 302.507386 350.018493 
L 304.885227 349.933302 
L 307.263068 350.319097 
L 309.640909 351.157547 
L 312.01875 352.32026 
L 314.396591 350.919595 
L 316.774432 351.369349 
L 319.152273 351.219955 
L 323.907955 350.380655 
L 326.285795 351.386008 
L 328.663636 351.262317 
L 331.041477 350.922092 
L 333.419318 351.938477 
L 335.797159 350.799933 
L 338.175 351.618864 
L 340.552841 350.511383 
L 342.930682 351.333361 
L 345.308523 351.146487 
L 347.686364 351.891288 
L 350.064205 351.734419 
L 352.442045 351.35861 
L 354.819886 351.592909 
L 359.575568 351.221914 
L 361.953409 351.330596 
L 364.33125 351.033641 
L 366.709091 351.171203 
L 369.086932 351.787523 
L 371.464773 351.344284 
L 373.842614 351.094971 
L 376.220455 350.580324 
L 378.598295 350.579221 
L 380.976136 352.224506 
L 383.353977 351.701617 
L 385.731818 353.27942 
L 388.109659 353.707306 
L 390.4875 354.946427 
L 392.865341 355.757077 
L 395.243182 354.538867 
L 397.621023 354.904849 
L 399.998864 354.633238 
L 402.376705 354.864363 
L 407.132386 355.758055 
L 409.510227 358.036961 
L 411.888068 352.231399 
L 414.265909 352.036962 
L 416.64375 353.358019 
L 421.399432 353.042598 
L 423.777273 353.257164 
L 428.532955 353.052468 
L 430.910795 352.791601 
L 438.044318 352.860481 
L 442.8 352.876564 
L 445.177841 352.529233 
L 449.933523 352.66405 
L 452.311364 352.612489 
L 454.689205 352.781479 
L 457.067045 352.486035 
L 464.200568 352.456158 
L 466.578409 352.437179 
L 468.95625 352.664988 
L 471.334091 352.747927 
L 473.711932 353.056108 
L 478.467614 352.248883 
L 480.845455 353.13181 
L 483.223295 352.294486 
L 485.601136 350.063691 
L 487.978977 354.756445 
L 490.356818 354.529351 
L 492.734659 356.304011 
L 495.1125 354.119514 
L 497.490341 354.336331 
L 499.868182 354.189168 
L 502.246023 354.704482 
L 504.623864 354.263156 
L 507.001705 354.138932 
L 511.757386 354.412944 
L 514.135227 355.053466 
L 516.513068 356.247787 
L 518.890909 356.15452 
L 521.26875 356.629856 
L 523.646591 355.940928 
L 526.024432 358.561748 
L 528.402273 359.057682 
L 530.780114 359.29097 
L 533.157955 359.193027 
L 535.535795 358.79452 
L 537.913636 358.781854 
L 542.669318 358.482991 
L 547.425 358.955448 
L 552.180682 358.967111 
L 559.314205 358.699163 
L 566.447727 358.243898 
L 568.825568 357.570414 
L 571.203409 356.336851 
L 573.58125 355.846222 
L 575.959091 355.599615 
L 578.336932 354.991956 
L 583.092614 355.63541 
L 585.470455 356.696244 
L 587.848295 356.715878 
L 590.226136 357.795547 
L 592.603977 357.607542 
L 594.981818 357.30347 
L 597.359659 358.097296 
L 599.7375 354.5847 
L 602.115341 355.471184 
L 604.493182 353.818422 
L 606.871023 354.20165 
L 609.248864 353.689255 
L 611.626705 354.337425 
L 616.382386 354.245416 
L 618.760227 354.694987 
L 621.138068 354.433849 
L 623.515909 354.649557 
L 625.89375 354.191344 
L 628.271591 354.306249 
L 630.649432 355.10789 
L 633.027273 355.093125 
L 635.405114 355.789454 
L 637.782955 355.070522 
L 640.160795 353.347444 
L 644.916477 351.596337 
L 647.294318 351.073628 
L 649.672159 350.246628 
L 652.05 350.524614 
L 654.427841 351.17451 
L 656.805682 351.211313 
L 659.183523 350.245767 
L 661.561364 350.821685 
L 663.939205 351.635362 
L 666.317045 350.751935 
L 668.694886 350.33134 
L 671.072727 351.366832 
L 673.450568 351.541151 
L 675.828409 351.09842 
L 680.584091 350.746325 
L 682.961932 350.999396 
L 685.339773 352.179466 
L 687.717614 352.028852 
L 690.095455 351.342711 
L 692.473295 351.334773 
L 694.851136 351.020479 
L 697.228977 352.069979 
L 699.606818 352.052251 
L 704.3625 350.806065 
L 706.740341 351.945574 
L 711.496023 351.246514 
L 713.873864 351.172983 
L 718.629545 351.824973 
L 721.007386 351.690764 
L 723.385227 352.290454 
L 725.763068 352.282921 
L 728.140909 352.143605 
L 730.51875 353.246036 
L 732.896591 352.302949 
L 737.652273 353.388943 
L 740.030114 355.044164 
L 742.407955 356.972502 
L 744.785795 356.096468 
L 747.163636 357.412889 
L 747.163636 357.412889 
" clip-path="url(#p66e36ce947)" style="fill: none; stroke: #76b7b2; stroke-width: 3; stroke-linecap: round"/>
   </g>
   <g id="line2d_20">
    <path d="M 140.814205 363.761663 
L 521.26875 363.761663 
L 523.646591 256.169992 
L 594.981818 256.169992 
L 597.359659 363.761663 
L 747.163636 363.761663 
L 747.163636 363.761663 
" clip-path="url(#p66e36ce947)" style="fill: none; stroke-dasharray: 11.1,4.8; stroke-dashoffset: 0; stroke: #59a14f; stroke-width: 3"/>
   </g>
   <g id="line2d_21">
    <path d="M 140.814205 359.382838 
L 143.192045 357.075395 
L 145.569886 356.237505 
L 147.947727 356.897876 
L 150.325568 356.545048 
L 152.703409 356.455078 
L 155.08125 356.681519 
L 157.459091 356.714638 
L 159.836932 356.503687 
L 164.592614 356.701875 
L 166.970455 356.306896 
L 169.348295 356.777125 
L 171.726136 356.259646 
L 174.103977 356.749429 
L 176.481818 357.000746 
L 178.859659 356.645866 
L 181.2375 356.16113 
L 183.615341 356.348172 
L 185.993182 358.146689 
L 188.371023 358.23062 
L 190.748864 355.002892 
L 193.126705 356.970108 
L 195.504545 356.769107 
L 197.882386 356.324307 
L 200.260227 356.572402 
L 202.638068 356.021499 
L 205.015909 355.734927 
L 207.39375 356.239389 
L 214.527273 357.192009 
L 216.905114 356.699466 
L 219.282955 356.555378 
L 226.416477 356.472341 
L 228.794318 356.703264 
L 231.172159 356.439238 
L 238.305682 356.075149 
L 240.683523 355.838971 
L 243.061364 356.557146 
L 245.439205 356.482517 
L 247.817045 356.897956 
L 250.194886 357.167303 
L 252.572727 357.037148 
L 254.950568 356.697133 
L 257.328409 356.7915 
L 259.70625 356.622359 
L 262.084091 356.688276 
L 264.461932 355.05894 
L 266.839773 351.667826 
L 269.217614 359.374082 
L 271.595455 358.52096 
L 276.351136 356.401427 
L 281.106818 357.022008 
L 283.484659 356.999743 
L 288.240341 356.458437 
L 290.618182 356.357433 
L 292.996023 357.751534 
L 295.373864 359.641914 
L 297.751705 358.165175 
L 300.129545 355.82977 
L 302.507386 354.612851 
L 304.885227 355.112625 
L 307.263068 354.932062 
L 312.01875 355.129924 
L 314.396591 354.483888 
L 316.774432 354.729762 
L 319.152273 354.353188 
L 321.530114 354.142992 
L 323.907955 354.132347 
L 326.285795 354.264615 
L 328.663636 354.048921 
L 331.041477 354.314334 
L 333.419318 354.726902 
L 335.797159 354.483035 
L 338.175 354.757307 
L 340.552841 354.403513 
L 342.930682 354.836747 
L 345.308523 354.605301 
L 347.686364 354.971703 
L 350.064205 354.771533 
L 354.819886 354.765371 
L 357.197727 354.531195 
L 359.575568 354.409222 
L 361.953409 354.161341 
L 364.33125 354.311498 
L 366.709091 354.629433 
L 369.086932 354.795278 
L 371.464773 354.626721 
L 373.842614 353.728147 
L 376.220455 353.33122 
L 378.598295 353.75167 
L 380.976136 354.874654 
L 383.353977 354.861722 
L 385.731818 355.152333 
L 388.109659 354.934098 
L 390.4875 357.653727 
L 392.865341 357.456523 
L 395.243182 355.995851 
L 397.621023 356.735227 
L 399.998864 356.456467 
L 404.754545 357.004529 
L 409.510227 359.863354 
L 411.888068 353.149947 
L 414.265909 356.180633 
L 416.64375 355.067904 
L 421.399432 355.80968 
L 423.777273 355.965762 
L 428.532955 355.442377 
L 433.288636 355.720602 
L 445.177841 355.206418 
L 447.555682 355.173758 
L 449.933523 355.551298 
L 452.311364 355.456905 
L 454.689205 355.246019 
L 457.067045 355.321634 
L 459.444886 355.209151 
L 461.822727 354.985116 
L 464.200568 354.904461 
L 468.95625 355.067437 
L 476.089773 354.663889 
L 478.467614 355.311393 
L 480.845455 356.503 
L 483.223295 355.829849 
L 485.601136 355.992959 
L 487.978977 359.987849 
L 490.356818 358.830265 
L 492.734659 357.840548 
L 495.1125 357.064851 
L 497.490341 356.75312 
L 499.868182 355.95991 
L 502.246023 356.554995 
L 504.623864 356.47622 
L 507.001705 356.53086 
L 509.379545 357.176044 
L 511.757386 356.411917 
L 514.135227 356.685337 
L 516.513068 356.261704 
L 518.890909 350.338822 
L 521.26875 330.716131 
L 523.646591 288.849135 
L 526.024432 285.359563 
L 528.402273 285.254727 
L 530.780114 284.84131 
L 533.157955 285.284644 
L 535.535795 286.388694 
L 537.913636 286.182523 
L 540.291477 286.205476 
L 542.669318 286.394455 
L 545.047159 285.789333 
L 547.425 285.506276 
L 549.802841 285.579106 
L 552.180682 285.849033 
L 554.558523 285.839226 
L 556.936364 286.042955 
L 559.314205 286.121819 
L 564.069886 286.62653 
L 566.447727 287.007385 
L 568.825568 288.769085 
L 571.203409 291.995286 
L 575.959091 295.967668 
L 578.336932 294.60462 
L 580.714773 291.120633 
L 583.092614 289.042683 
L 585.470455 287.616349 
L 587.848295 288.038825 
L 590.226136 285.867107 
L 592.603977 286.289764 
L 594.981818 298.445985 
L 597.359659 354.037767 
L 599.7375 356.62917 
L 602.115341 357.524542 
L 604.493182 356.631772 
L 606.871023 356.594557 
L 609.248864 356.014094 
L 611.626705 356.800479 
L 614.004545 356.526836 
L 616.382386 356.510211 
L 618.760227 356.691253 
L 621.138068 356.254737 
L 623.515909 356.587855 
L 628.271591 356.769431 
L 630.649432 357.571444 
L 633.027273 355.298056 
L 635.405114 353.296124 
L 637.782955 353.753716 
L 640.160795 354.403054 
L 642.538636 354.55475 
L 644.916477 354.845332 
L 647.294318 354.718176 
L 649.672159 354.327638 
L 654.427841 354.529815 
L 656.805682 354.131143 
L 659.183523 354.032909 
L 663.939205 354.392098 
L 666.317045 353.863264 
L 668.694886 353.777292 
L 671.072727 354.191552 
L 673.450568 354.293566 
L 675.828409 354.228652 
L 680.584091 354.408808 
L 685.339773 355.145953 
L 687.717614 354.755475 
L 692.473295 354.23428 
L 697.228977 355.326492 
L 699.606818 355.204145 
L 701.984659 354.787078 
L 704.3625 354.652938 
L 706.740341 354.922865 
L 709.118182 354.535458 
L 713.873864 354.384377 
L 716.251705 354.518231 
L 721.007386 355.183888 
L 723.385227 355.895033 
L 728.140909 356.236252 
L 730.51875 357.005076 
L 732.896591 356.433575 
L 735.274432 355.736213 
L 737.652273 354.249471 
L 740.030114 356.42476 
L 742.407955 357.610243 
L 744.785795 358.031408 
L 747.163636 355.237824 
L 747.163636 355.237824 
" clip-path="url(#p66e36ce947)" style="fill: none; stroke: #59a14f; stroke-width: 3; stroke-linecap: round"/>
   </g>
   <g id="line2d_22">
    <path d="M 140.814205 363.761663 
L 297.751705 363.761663 
L 300.129545 256.169992 
L 388.109659 256.169992 
L 390.4875 363.761663 
L 747.163636 363.761663 
L 747.163636 363.761663 
" clip-path="url(#p66e36ce947)" style="fill: none; stroke-dasharray: 11.1,4.8; stroke-dashoffset: 0; stroke: #edc948; stroke-width: 3"/>
   </g>
   <g id="line2d_23">
    <path d="M 140.814205 358.219753 
L 143.192045 357.533185 
L 145.569886 357.89378 
L 147.947727 357.955378 
L 150.325568 358.252812 
L 157.459091 358.143498 
L 159.836932 357.98885 
L 164.592614 358.068368 
L 166.970455 358.165106 
L 169.348295 358.033586 
L 171.726136 357.675884 
L 174.103977 357.873336 
L 176.481818 358.290717 
L 178.859659 357.866155 
L 181.2375 358.108345 
L 183.615341 358.041317 
L 185.993182 358.479992 
L 188.371023 359.545491 
L 190.748864 359.012933 
L 193.126705 358.872574 
L 195.504545 358.525806 
L 197.882386 357.869284 
L 200.260227 357.966009 
L 202.638068 357.942851 
L 205.015909 357.665985 
L 209.771591 358.370763 
L 212.149432 358.600781 
L 214.527273 358.606502 
L 216.905114 358.049413 
L 219.282955 358.197666 
L 221.660795 358.468248 
L 224.038636 358.422224 
L 228.794318 358.615544 
L 231.172159 357.997757 
L 233.55 357.76342 
L 235.927841 357.78909 
L 238.305682 358.001031 
L 240.683523 357.894907 
L 243.061364 358.056441 
L 245.439205 358.093923 
L 247.817045 357.984233 
L 250.194886 358.419107 
L 252.572727 358.069422 
L 254.950568 357.986072 
L 257.328409 358.033096 
L 259.70625 357.739167 
L 262.084091 358.58689 
L 264.461932 357.453198 
L 266.839773 358.280369 
L 269.217614 358.436511 
L 271.595455 359.062194 
L 273.973295 358.629503 
L 276.351136 357.174158 
L 278.728977 358.011042 
L 281.106818 358.552406 
L 283.484659 358.640855 
L 288.240341 358.172554 
L 290.618182 358.480997 
L 292.996023 358.367334 
L 295.373864 354.662646 
L 297.751705 333.913578 
L 300.129545 296.187633 
L 302.507386 286.721661 
L 304.885227 283.893405 
L 307.263068 284.122871 
L 312.01875 284.025544 
L 314.396591 284.748515 
L 316.774432 284.47901 
L 319.152273 284.947397 
L 321.530114 285.201943 
L 326.285795 285.083293 
L 328.663636 285.327354 
L 331.041477 284.987975 
L 333.419318 284.521961 
L 335.797159 284.744892 
L 338.175 284.461369 
L 340.552841 284.849359 
L 342.930682 284.362754 
L 345.308523 284.637084 
L 347.686364 284.233607 
L 350.064205 284.473912 
L 354.819886 284.460968 
L 357.197727 284.729992 
L 359.575568 284.867716 
L 361.953409 285.178215 
L 364.33125 285.000005 
L 366.709091 284.584279 
L 369.086932 284.419108 
L 371.464773 284.613303 
L 373.842614 285.652358 
L 376.220455 286.184677 
L 378.598295 285.668871 
L 380.976136 286.876005 
L 383.353977 287.85302 
L 385.731818 290.393472 
L 388.109659 297.756067 
L 390.4875 324.38193 
L 392.865341 349.148977 
L 395.243182 355.462092 
L 397.621023 357.77887 
L 399.998864 357.942246 
L 402.376705 357.085165 
L 404.754545 358.606834 
L 407.132386 358.470311 
L 409.510227 360.785326 
L 411.888068 357.302384 
L 414.265909 356.508151 
L 416.64375 357.177785 
L 421.399432 356.812725 
L 423.777273 357.152658 
L 426.155114 357.113111 
L 428.532955 356.716098 
L 430.910795 356.609739 
L 433.288636 356.794772 
L 442.8 356.574647 
L 445.177841 356.37228 
L 447.555682 356.288094 
L 449.933523 356.676845 
L 452.311364 356.695566 
L 461.822727 356.260072 
L 468.95625 356.296103 
L 471.334091 356.438798 
L 473.711932 356.453777 
L 476.089773 356.075167 
L 478.467614 355.388573 
L 483.223295 357.295615 
L 485.601136 357.27763 
L 487.978977 357.645763 
L 490.356818 358.17515 
L 492.734659 358.248117 
L 495.1125 357.310417 
L 497.490341 357.512792 
L 499.868182 357.353462 
L 507.001705 358.256316 
L 509.379545 358.030697 
L 511.757386 357.354534 
L 514.135227 357.177453 
L 516.513068 358.236193 
L 518.890909 357.413699 
L 521.26875 357.971772 
L 523.646591 354.760991 
L 526.024432 357.537463 
L 530.780114 358.210221 
L 533.157955 358.025343 
L 535.535795 357.436311 
L 537.913636 357.485915 
L 542.669318 357.191421 
L 545.047159 357.577006 
L 547.425 357.797855 
L 552.180682 357.715757 
L 556.936364 357.519916 
L 561.692045 357.219124 
L 566.447727 356.838777 
L 568.825568 355.862358 
L 571.203409 354.036648 
L 573.58125 353.678162 
L 575.959091 353.874056 
L 578.336932 353.304401 
L 580.714773 354.155856 
L 583.092614 354.279978 
L 585.470455 355.480711 
L 587.848295 355.37999 
L 590.226136 356.786932 
L 592.603977 356.528165 
L 594.981818 355.676353 
L 597.359659 357.767767 
L 599.7375 358.716884 
L 602.115341 358.890478 
L 604.493182 357.907104 
L 606.871023 357.395202 
L 609.248864 357.212218 
L 611.626705 357.776492 
L 614.004545 357.854503 
L 616.382386 357.723569 
L 618.760227 358.146558 
L 621.138068 358.120746 
L 623.515909 358.291138 
L 625.89375 358.295252 
L 628.271591 358.12879 
L 630.649432 356.726985 
L 633.027273 349.079851 
L 635.405114 335.215918 
L 637.782955 312.527917 
L 640.160795 297.308699 
L 642.538636 290.474163 
L 644.916477 287.29794 
L 649.672159 285.16345 
L 652.05 284.878864 
L 654.427841 284.737982 
L 656.805682 285.21687 
L 659.183523 285.333377 
L 661.561364 285.055498 
L 663.939205 284.922306 
L 666.317045 285.524173 
L 668.694886 285.623954 
L 671.072727 285.146904 
L 673.450568 285.028532 
L 675.828409 285.07237 
L 680.584091 284.87034 
L 682.961932 284.393103 
L 685.339773 284.043821 
L 687.717614 284.492862 
L 692.473295 285.096252 
L 697.228977 283.793544 
L 699.606818 283.939707 
L 701.984659 284.450323 
L 704.3625 284.570331 
L 706.740341 284.303931 
L 709.118182 284.73803 
L 713.873864 284.909972 
L 716.251705 284.742631 
L 721.007386 283.958678 
L 723.385227 283.098449 
L 725.763068 282.890193 
L 728.140909 283.043495 
L 730.51875 283.961762 
L 732.896591 285.447539 
L 735.274432 287.41215 
L 737.652273 291.461327 
L 740.030114 312.641362 
L 742.407955 346.365778 
L 744.785795 357.190194 
L 747.163636 360.333978 
L 747.163636 360.333978 
" clip-path="url(#p66e36ce947)" style="fill: none; stroke: #edc948; stroke-width: 3; stroke-linecap: round"/>
   </g>
   <g id="line2d_24">
    <path d="M 138.436364 368.661051 
L 140.814205 350.949836 
L 143.192045 379.674743 
L 145.569886 399.20237 
L 147.947727 367.470905 
L 150.325568 404.387051 
L 152.703409 349.746499 
L 155.08125 347.559311 
L 157.459091 366.975136 
L 159.836932 380.066172 
L 162.214773 353.453884 
L 164.592614 359.921497 
L 166.970455 331.272389 
L 169.348295 344.06853 
L 171.726136 394.070673 
L 174.103977 354.555284 
L 176.481818 337.580133 
L 178.859659 338.920763 
L 181.2375 372.36596 
L 183.615341 365.52144 
L 185.993182 363.124852 
L 188.371023 364.034085 
L 190.748864 313.729572 
L 193.126705 352.813258 
L 195.504545 362.264549 
L 197.882386 337.265222 
L 200.260227 310.11031 
L 202.638068 337.165241 
L 205.015909 313.518774 
L 207.39375 304.824499 
L 209.771591 308.564903 
L 212.149432 338.806567 
L 214.527273 264.166863 
L 216.905114 271.865374 
L 219.282955 284.606801 
L 221.660795 255.919929 
L 224.038636 271.776928 
L 226.416477 284.19296 
L 228.794318 223.374152 
L 231.172159 248.595082 
L 233.55 222.202631 
L 235.927841 217.09653 
L 238.305682 239.690429 
L 240.683523 218.177813 
L 243.061364 235.597965 
L 245.439205 185.709536 
L 247.817045 204.314452 
L 250.194886 166.696269 
L 252.572727 205.384873 
L 254.950568 188.12476 
L 257.328409 175.788861 
L 259.70625 137.317776 
L 262.084091 189.746545 
L 264.461932 120.868553 
L 266.839773 399.678463 
L 269.217614 391.216593 
L 271.595455 379.343396 
L 273.973295 382.819868 
L 276.351136 330.275824 
L 278.728977 345.273358 
L 281.106818 364.919254 
L 283.484659 342.500328 
L 285.8625 364.767122 
L 288.240341 358.294654 
L 290.618182 383.46956 
L 292.996023 358.804503 
L 295.373864 368.528463 
L 297.751705 372.518376 
L 300.129545 352.290031 
L 302.507386 351.852423 
L 304.885227 308.035845 
L 307.263068 324.179524 
L 309.640909 322.547311 
L 312.01875 296.658929 
L 314.396591 275.185224 
L 316.774432 303.972112 
L 319.152273 249.869512 
L 321.530114 248.173219 
L 323.907955 230.327705 
L 326.285795 233.137077 
L 328.663636 233.069533 
L 331.041477 197.96117 
L 333.419318 226.452939 
L 335.797159 160.325098 
L 338.175 229.473674 
L 340.552841 150.510499 
L 342.930682 182.398099 
L 345.308523 179.668914 
L 347.686364 182.110664 
L 350.064205 221.752702 
L 352.442045 211.626957 
L 354.819886 227.781253 
L 357.197727 228.604042 
L 359.575568 249.958319 
L 361.953409 253.456369 
L 366.709091 321.381302 
L 369.086932 295.604909 
L 371.464773 291.286464 
L 373.842614 261.886638 
L 376.220455 298.320557 
L 378.598295 328.200859 
L 380.976136 307.833156 
L 383.353977 347.104158 
L 385.731818 362.027702 
L 388.109659 340.694902 
L 390.4875 366.182654 
L 392.865341 369.559842 
L 395.243182 383.504445 
L 397.621023 371.839599 
L 399.998864 367.033013 
L 402.376705 328.507784 
L 404.754545 373.128096 
L 407.132386 355.296926 
L 409.510227 141.399675 
L 411.888068 125.15853 
L 414.265909 129.570938 
L 416.64375 166.820444 
L 419.021591 152.245434 
L 421.399432 103.157446 
L 423.777273 126.978414 
L 426.155114 143.462476 
L 428.532955 138.898011 
L 430.910795 127.830861 
L 433.288636 137.388895 
L 435.666477 126.230027 
L 438.044318 134.143314 
L 440.422159 139.850184 
L 442.8 151.104648 
L 445.177841 147.684395 
L 447.555682 113.364347 
L 449.933523 140.909753 
L 452.311364 135.415531 
L 454.689205 150.358897 
L 457.067045 147.738143 
L 459.444886 153.775674 
L 461.822727 122.35296 
L 464.200568 166.340373 
L 468.95625 124.089386 
L 471.334091 150.565718 
L 473.711932 151.873623 
L 476.089773 173.238219 
L 478.467614 141.685616 
L 480.845455 89.28 
L 483.223295 139.997397 
L 485.601136 362.476129 
L 487.978977 369.346192 
L 490.356818 338.116903 
L 492.734659 390.277253 
L 495.1125 367.961552 
L 497.490341 374.499917 
L 499.868182 371.076334 
L 502.246023 339.017847 
L 504.623864 372.186485 
L 507.001705 340.010513 
L 509.379545 351.432684 
L 511.757386 400.710326 
L 514.135227 355.627623 
L 516.513068 370.354555 
L 518.890909 382.223326 
L 521.26875 266.019247 
L 523.646591 279.896951 
L 526.024432 284.06961 
L 528.402273 288.970997 
L 530.780114 292.484583 
L 533.157955 340.439644 
L 535.535795 331.491069 
L 537.913636 348.150604 
L 540.291477 372.025582 
L 542.669318 410.011226 
L 545.047159 424.415555 
L 547.425 406.386375 
L 549.802841 431.501613 
L 552.180682 448.115262 
L 554.558523 489.512643 
L 556.936364 465.01516 
L 559.314205 492.48 
L 561.692045 438.104702 
L 564.069886 471.58503 
L 566.447727 446.017846 
L 568.825568 414.812515 
L 571.203409 378.252699 
L 573.58125 381.930025 
L 575.959091 344.168999 
L 578.336932 351.502173 
L 583.092614 325.136519 
L 585.470455 327.072585 
L 587.848295 312.847925 
L 590.226136 259.089581 
L 592.603977 259.578128 
L 594.981818 377.823439 
L 597.359659 395.239184 
L 599.7375 357.866066 
L 602.115341 368.54084 
L 604.493182 358.142801 
L 606.871023 338.771497 
L 609.248864 373.063854 
L 611.626705 374.369381 
L 614.004545 376.655534 
L 616.382386 373.168271 
L 618.760227 390.391274 
L 623.515909 357.032164 
L 625.89375 370.55259 
L 628.271591 347.28416 
L 630.649432 351.237252 
L 633.027273 381.191337 
L 635.405114 352.880701 
L 637.782955 356.661939 
L 640.160795 336.492874 
L 642.538636 339.531301 
L 644.916477 336.049545 
L 647.294318 349.301832 
L 649.672159 340.176965 
L 652.05 330.558901 
L 654.427841 310.431527 
L 656.805682 285.728372 
L 659.183523 307.272005 
L 661.561364 315.617068 
L 663.939205 297.075851 
L 666.317045 279.705695 
L 668.694886 284.36893 
L 671.072727 301.815718 
L 673.450568 271.093083 
L 675.828409 305.058035 
L 678.20625 247.729673 
L 680.584091 264.589504 
L 682.961932 276.7141 
L 685.339773 269.109486 
L 687.717614 285.800696 
L 690.095455 257.545237 
L 692.473295 269.226891 
L 694.851136 293.180636 
L 697.228977 332.020191 
L 699.606818 287.356719 
L 701.984659 290.452267 
L 704.3625 308.22441 
L 706.740341 302.87547 
L 709.118182 318.970621 
L 711.496023 295.550761 
L 713.873864 300.647237 
L 716.251705 316.937819 
L 718.629545 317.117523 
L 721.007386 352.849387 
L 723.385227 343.923236 
L 725.763068 319.059917 
L 728.140909 344.150248 
L 730.51875 374.99263 
L 732.896591 358.916561 
L 735.274432 355.739286 
L 737.652273 358.595258 
L 740.030114 372.43945 
L 742.407955 362.415894 
L 744.785795 386.43426 
L 744.785795 386.43426 
" clip-path="url(#p66e36ce947)" style="fill: none; stroke: #808080; stroke-width: 2; stroke-linecap: round"/>
   </g>
   <g id="patch_3">
    <path d="M 108 512.64 
L 108 69.12 
" style="fill: none; stroke: #ffffff; stroke-width: 1.25; stroke-linejoin: miter; stroke-linecap: square"/>
   </g>
   <g id="patch_4">
    <path d="M 777.6 512.64 
L 777.6 69.12 
" style="fill: none; stroke: #ffffff; stroke-width: 1.25; stroke-linejoin: miter; stroke-linecap: square"/>
   </g>
   <g id="patch_5">
    <path d="M 108 512.64 
L 777.6 512.64 
" style="fill: none; stroke: #ffffff; stroke-width: 1.25; stroke-linejoin: miter; stroke-linecap: square"/>
   </g>
   <g id="patch_6">
    <path d="M 108 69.12 
L 777.6 69.12 
" style="fill: none; stroke: #ffffff; stroke-width: 1.25; stroke-linejoin: miter; stroke-linecap: square"/>
   </g>
   <g id="text_14">
    <!-- Predicted (solid) vs GT (dotted) Shape Type -->
    <g style="fill: #262626" transform="translate(170.683398 61.673027) scale(0.3 -0.3)">
     <defs>
      <path id="CMR17-50" d="M 1267 2048 
L 2291 2048 
C 3117 2048 3718 2583 3718 3187 
C 3718 3791 3130 4352 2291 4352 
L 333 4352 
L 333 4185 
C 774 4185 845 4185 845 3899 
L 845 453 
C 845 166 774 166 333 166 
L 333 0 
C 518 12 858 12 1056 12 
C 1254 12 1594 12 1779 0 
L 1779 166 
C 1338 166 1267 166 1267 453 
L 1267 2048 
z
M 1254 2182 
L 1254 3937 
C 1254 4153 1267 4185 1523 4185 
L 2170 4185 
C 2995 4185 3232 3715 3232 3187 
C 3232 2608 2950 2182 2170 2182 
L 1254 2182 
z
" transform="scale(0.015625)"/>
      <path id="CMR17-28" d="M 1958 -1562 
C 1958 -1556 1958 -1543 1939 -1524 
C 1645 -1223 858 -403 858 1596 
C 858 3595 1632 4408 1946 4729 
C 1946 4735 1958 4748 1958 4767 
C 1958 4787 1939 4800 1914 4800 
C 1843 4800 1299 4325 986 3620 
C 666 2909 576 2218 576 1603 
C 576 1141 621 360 1005 -467 
C 1312 -1133 1837 -1600 1914 -1600 
C 1946 -1600 1958 -1588 1958 -1562 
z
" transform="scale(0.015625)"/>
      <path id="CMR17-73" d="M 1978 2688 
C 1978 2803 1971 2809 1933 2809 
C 1907 2809 1901 2803 1824 2707 
C 1805 2681 1747 2617 1728 2592 
C 1523 2809 1235 2816 1126 2816 
C 416 2816 160 2444 160 2073 
C 160 1497 813 1363 998 1324 
C 1402 1241 1542 1216 1677 1100 
C 1760 1024 1901 883 1901 652 
C 1901 384 1747 38 1158 38 
C 602 38 403 460 288 1024 
C 269 1113 269 1120 218 1120 
C 166 1120 160 1113 160 985 
L 160 64 
C 160 -52 166 -58 205 -58 
C 237 -58 243 -52 275 0 
C 314 57 410 211 448 275 
C 576 102 800 -64 1158 -64 
C 1792 -64 2131 281 2131 780 
C 2131 1107 1958 1280 1875 1356 
C 1683 1555 1459 1600 1190 1651 
C 838 1728 390 1817 390 2208 
C 390 2374 480 2726 1126 2726 
C 1811 2726 1850 2086 1862 1881 
C 1869 1849 1901 1843 1920 1843 
C 1978 1843 1978 1862 1978 1971 
L 1978 2688 
z
" transform="scale(0.015625)"/>
      <path id="CMR17-29" d="M 1683 1596 
C 1683 2057 1638 2839 1254 3665 
C 947 4332 422 4800 346 4800 
C 326 4800 301 4793 301 4761 
C 301 4748 307 4742 314 4729 
C 621 4408 1402 3595 1402 1603 
C 1402 -396 627 -1210 314 -1530 
C 307 -1543 301 -1549 301 -1562 
C 301 -1594 326 -1600 346 -1600 
C 416 -1600 960 -1127 1274 -422 
C 1594 289 1683 981 1683 1596 
z
" transform="scale(0.015625)"/>
      <path id="CMR17-76" d="M 2502 2173 
C 2560 2315 2662 2572 3034 2585 
L 3034 2752 
C 2912 2745 2752 2739 2630 2739 
C 2496 2739 2285 2739 2157 2752 
L 2157 2585 
C 2317 2572 2406 2495 2406 2328 
C 2406 2270 2406 2257 2368 2167 
L 1664 379 
L 902 2308 
C 864 2392 864 2405 864 2431 
C 864 2585 1075 2585 1171 2585 
L 1171 2752 
C 1018 2739 736 2739 576 2739 
C 403 2739 205 2739 64 2752 
L 64 2585 
C 307 2585 442 2585 518 2386 
L 1446 44 
C 1485 -52 1491 -64 1549 -64 
C 1606 -64 1613 -52 1651 44 
L 2502 2173 
z
" transform="scale(0.015625)"/>
      <path id="CMR17-47" d="M 3974 1258 
C 3974 1503 3994 1536 4390 1536 
L 4390 1702 
C 4237 1689 3891 1689 3718 1689 
C 3539 1689 3040 1696 2797 1702 
L 2797 1536 
L 2989 1536 
C 3539 1536 3552 1464 3552 1232 
L 3552 806 
C 3552 96 2720 38 2522 38 
C 1862 38 781 496 781 2179 
C 781 3862 1843 4313 2464 4313 
C 3187 4313 3712 3681 3834 2785 
C 3846 2708 3846 2695 3904 2695 
C 3974 2695 3974 2708 3974 2824 
L 3974 4351 
C 3974 4467 3968 4473 3930 4473 
C 3904 4473 3898 4467 3853 4390 
L 3571 3849 
C 3258 4249 2874 4480 2381 4480 
C 1286 4480 294 3507 294 2179 
C 294 858 1267 -128 2394 -128 
C 2912 -128 3418 57 3616 425 
C 3725 161 3904 -20 3936 -20 
C 3968 -20 3974 -13 3974 102 
L 3974 1258 
z
" transform="scale(0.015625)"/>
      <path id="CMR17-54" d="M 3981 4332 
L 288 4332 
L 179 2924 
L 294 2924 
C 378 3981 467 4166 1453 4166 
C 1568 4166 1754 4166 1805 4159 
C 1926 4140 1926 4064 1926 3917 
L 1926 465 
C 1926 236 1907 166 1376 166 
L 1197 166 
L 1197 0 
C 1504 6 1824 12 2138 12 
C 2451 12 2771 6 3078 0 
L 3078 166 
L 2899 166 
C 2368 166 2349 236 2349 465 
L 2349 3917 
C 2349 4057 2349 4134 2464 4159 
C 2515 4166 2701 4166 2816 4166 
C 3795 4166 3891 3981 3974 2924 
L 4090 2924 
L 3981 4332 
z
" transform="scale(0.015625)"/>
      <path id="CMR17-79" d="M 2496 2183 
C 2656 2579 2944 2585 3034 2585 
L 3034 2752 
C 2912 2745 2752 2739 2630 2739 
C 2496 2739 2285 2739 2157 2752 
L 2157 2585 
C 2400 2566 2406 2384 2406 2332 
C 2406 2268 2394 2235 2362 2158 
L 1664 409 
L 902 2300 
C 870 2378 870 2423 870 2430 
C 870 2572 1018 2585 1171 2585 
L 1171 2752 
C 1018 2739 742 2739 582 2739 
C 410 2739 205 2739 64 2752 
L 64 2585 
C 410 2585 448 2553 531 2345 
L 1485 -31 
C 1197 -795 1030 -1242 627 -1242 
C 557 -1242 397 -1223 282 -1106 
C 429 -1093 493 -1002 493 -892 
C 493 -782 416 -685 288 -685 
C 147 -685 77 -782 77 -899 
C 77 -1158 339 -1344 627 -1344 
C 998 -1344 1229 -983 1357 -659 
L 2496 2183 
z
" transform="scale(0.015625)"/>
     </defs>
     <use xlink:href="#CMR17-50" transform="scale(0.996264)"/>
     <use xlink:href="#CMR17-72" transform="translate(62.586301 0) scale(0.996264)"/>
     <use xlink:href="#CMR17-65" transform="translate(97.867068 0) scale(0.996264)"/>
     <use xlink:href="#CMR17-64" transform="translate(138.352729 0) scale(0.996264)"/>
     <use xlink:href="#CMR17-69" transform="translate(189.248099 0) scale(0.996264)"/>
     <use xlink:href="#CMR17-63" transform="translate(214.119157 0) scale(0.996264)"/>
     <use xlink:href="#CMR17-74" transform="translate(254.604818 0) scale(0.996264)"/>
     <use xlink:href="#CMR17-65" transform="translate(289.885585 0) scale(0.996264)"/>
     <use xlink:href="#CMR17-64" transform="translate(330.371246 0) scale(0.996264)"/>
     <use xlink:href="#CMR17-28" transform="translate(411.342582 0) scale(0.996264)"/>
     <use xlink:href="#CMR17-73" transform="translate(446.62335 0) scale(0.996264)"/>
     <use xlink:href="#CMR17-6f" transform="translate(482.424687 0) scale(0.996264)"/>
     <use xlink:href="#CMR17-6c" transform="translate(528.115164 0) scale(0.996264)"/>
     <use xlink:href="#CMR17-69" transform="translate(552.986223 0) scale(0.996264)"/>
     <use xlink:href="#CMR17-64" transform="translate(577.857281 0) scale(0.996264)"/>
     <use xlink:href="#CMR17-29" transform="translate(628.752651 0) scale(0.996264)"/>
     <use xlink:href="#CMR17-76" transform="translate(694.109385 0) scale(0.996264)"/>
     <use xlink:href="#CMR17-73" transform="translate(742.402301 0) scale(0.996264)"/>
     <use xlink:href="#CMR17-47" transform="translate(808.279605 0) scale(0.996264)"/>
     <use xlink:href="#CMR17-54" transform="translate(880.634951 0) scale(0.996264)"/>
     <use xlink:href="#CMR17-28" transform="translate(977.220798 0) scale(0.996264)"/>
     <use xlink:href="#CMR17-64" transform="translate(1012.501566 0) scale(0.996264)"/>
     <use xlink:href="#CMR17-6f" transform="translate(1063.396936 0) scale(0.996264)"/>
     <use xlink:href="#CMR17-74" transform="translate(1109.087413 0) scale(0.996264)"/>
     <use xlink:href="#CMR17-74" transform="translate(1144.36818 0) scale(0.996264)"/>
     <use xlink:href="#CMR17-65" transform="translate(1179.648948 0) scale(0.996264)"/>
     <use xlink:href="#CMR17-64" transform="translate(1220.134609 0) scale(0.996264)"/>
     <use xlink:href="#CMR17-29" transform="translate(1271.029979 0) scale(0.996264)"/>
     <use xlink:href="#CMR17-53" transform="translate(1336.386713 0) scale(0.996264)"/>
     <use xlink:href="#CMR17-68" transform="translate(1387.282082 0) scale(0.996264)"/>
     <use xlink:href="#CMR17-61" transform="translate(1438.177452 0) scale(0.996264)"/>
     <use xlink:href="#CMR17-70" transform="translate(1483.867929 0) scale(0.996264)"/>
     <use xlink:href="#CMR17-65" transform="translate(1537.365738 0) scale(0.996264)"/>
     <use xlink:href="#CMR17-54" transform="translate(1607.927365 0) scale(0.996264)"/>
     <use xlink:href="#CMR17-79" transform="translate(1671.834791 0) scale(0.996264)"/>
     <use xlink:href="#CMR17-70" transform="translate(1720.127707 0) scale(0.996264)"/>
     <use xlink:href="#CMR17-65" transform="translate(1773.625516 0) scale(0.996264)"/>
    </g>
   </g>
   <g id="legend_1">
    <g id="patch_7">
     <path d="M 787.279449 409.992 
L 901.840551 409.992 
Q 907.340551 409.992 907.340551 404.492 
L 907.340551 177.268 
Q 907.340551 171.768 901.840551 171.768 
L 787.279449 171.768 
Q 781.779449 171.768 781.779449 177.268 
L 781.779449 404.492 
Q 781.779449 409.992 787.279449 409.992 
z
" style="fill: #ffffff; opacity: 0.8; stroke: #cccccc; stroke-linejoin: miter"/>
    </g>
    <g id="line2d_25">
     <path d="M 792.779449 192.393 
L 820.279449 192.393 
L 847.779449 192.393 
" style="fill: none; stroke: #4e79a7; stroke-width: 3; stroke-linecap: round"/>
    </g>
    <g id="text_15">
     <!-- S1 -->
     <g style="fill: #262626" transform="translate(869.779449 202.018) scale(0.275 -0.275)">
      <use xlink:href="#CMR17-53" transform="scale(0.996264)"/>
      <use xlink:href="#CMR17-31" transform="translate(50.89537 0) scale(0.996264)"/>
     </g>
    </g>
    <g id="line2d_26">
     <path d="M 792.779449 230.722 
L 820.279449 230.722 
L 847.779449 230.722 
" style="fill: none; stroke: #f28e2b; stroke-width: 3; stroke-linecap: round"/>
    </g>
    <g id="text_16">
     <!-- S2 -->
     <g style="fill: #262626" transform="translate(869.779449 240.347) scale(0.275 -0.275)">
      <use xlink:href="#CMR17-53" transform="scale(0.996264)"/>
      <use xlink:href="#CMR17-32" transform="translate(50.89537 0) scale(0.996264)"/>
     </g>
    </g>
    <g id="line2d_27">
     <path d="M 792.779449 269.051 
L 820.279449 269.051 
L 847.779449 269.051 
" style="fill: none; stroke: #e15759; stroke-width: 3; stroke-linecap: round"/>
    </g>
    <g id="text_17">
     <!-- S3 -->
     <g style="fill: #262626" transform="translate(869.779449 278.676) scale(0.275 -0.275)">
      <use xlink:href="#CMR17-53" transform="scale(0.996264)"/>
      <use xlink:href="#CMR17-33" transform="translate(50.89537 0) scale(0.996264)"/>
     </g>
    </g>
    <g id="line2d_28">
     <path d="M 792.779449 307.38 
L 820.279449 307.38 
L 847.779449 307.38 
" style="fill: none; stroke: #76b7b2; stroke-width: 3; stroke-linecap: round"/>
    </g>
    <g id="text_18">
     <!-- S4 -->
     <g style="fill: #262626" transform="translate(869.779449 317.005) scale(0.275 -0.275)">
      <defs>
       <path id="CMR17-34" d="M 2150 4147 
C 2150 4281 2144 4288 2029 4288 
L 128 1254 
L 128 1088 
L 1779 1088 
L 1779 460 
C 1779 230 1766 166 1318 166 
L 1197 166 
L 1197 0 
C 1402 12 1747 12 1965 12 
C 2182 12 2528 12 2733 0 
L 2733 166 
L 2611 166 
C 2163 166 2150 230 2150 460 
L 2150 1088 
L 2803 1088 
L 2803 1254 
L 2150 1254 
L 2150 4147 
z
M 1798 3723 
L 1798 1254 
L 256 1254 
L 1798 3723 
z
" transform="scale(0.015625)"/>
      </defs>
      <use xlink:href="#CMR17-53" transform="scale(0.996264)"/>
      <use xlink:href="#CMR17-34" transform="translate(50.89537 0) scale(0.996264)"/>
     </g>
    </g>
    <g id="line2d_29">
     <path d="M 792.779449 345.709 
L 820.279449 345.709 
L 847.779449 345.709 
" style="fill: none; stroke: #59a14f; stroke-width: 3; stroke-linecap: round"/>
    </g>
    <g id="text_19">
     <!-- S5 -->
     <g style="fill: #262626" transform="translate(869.779449 355.334) scale(0.275 -0.275)">
      <use xlink:href="#CMR17-53" transform="scale(0.996264)"/>
      <use xlink:href="#CMR17-35" transform="translate(50.89537 0) scale(0.996264)"/>
     </g>
    </g>
    <g id="line2d_30">
     <path d="M 792.779449 384.038 
L 820.279449 384.038 
L 847.779449 384.038 
" style="fill: none; stroke: #edc948; stroke-width: 3; stroke-linecap: round"/>
    </g>
    <g id="text_20">
     <!-- S6 -->
     <g style="fill: #262626" transform="translate(869.779449 393.663) scale(0.275 -0.275)">
      <defs>
       <path id="CMR17-36" d="M 678 2198 
C 678 3712 1395 4076 1811 4076 
C 1946 4076 2272 4049 2400 3782 
C 2298 3782 2106 3782 2106 3558 
C 2106 3385 2246 3328 2336 3328 
C 2394 3328 2566 3353 2566 3571 
C 2566 3987 2246 4224 1805 4224 
C 1043 4224 243 3411 243 2011 
C 243 257 966 -128 1478 -128 
C 2099 -128 2688 431 2688 1295 
C 2688 2101 2170 2688 1517 2688 
C 1126 2688 838 2430 678 1979 
L 678 2198 
z
M 1478 25 
C 691 25 691 1212 691 1450 
C 691 1914 909 2585 1504 2585 
C 1613 2585 1926 2585 2138 2140 
C 2253 1889 2253 1624 2253 1302 
C 2253 954 2253 696 2118 438 
C 1978 173 1773 25 1478 25 
z
" transform="scale(0.015625)"/>
      </defs>
      <use xlink:href="#CMR17-53" transform="scale(0.996264)"/>
      <use xlink:href="#CMR17-36" transform="translate(50.89537 0) scale(0.996264)"/>
     </g>
    </g>
   </g>
  </g>
  <g id="text_21">
   <!-- Class 1 -->
   <g style="fill: #262626" transform="translate(380.800709 36.4266) scale(0.36 -0.36)">
    <defs>
     <path id="CMR17-43" d="M 3974 4351 
C 3974 4467 3968 4473 3930 4473 
C 3904 4473 3898 4467 3853 4390 
L 3571 3849 
C 3258 4249 2874 4480 2381 4480 
C 1286 4480 294 3507 294 2179 
C 294 837 1286 -128 2387 -128 
C 3366 -128 3974 741 3974 1482 
C 3974 1547 3974 1573 3917 1573 
C 3866 1573 3866 1553 3859 1495 
C 3808 592 3168 38 2477 38 
C 1824 38 781 502 781 2179 
C 781 3862 1843 4313 2464 4313 
C 3187 4313 3712 3681 3834 2785 
C 3846 2707 3846 2695 3904 2695 
C 3974 2695 3974 2707 3974 2824 
L 3974 4351 
z
" transform="scale(0.015625)"/>
    </defs>
    <use xlink:href="#CMR17-43" transform="scale(0.996264)"/>
    <use xlink:href="#CMR17-6c" transform="translate(66.509881 0) scale(0.996264)"/>
    <use xlink:href="#CMR17-61" transform="translate(91.380939 0) scale(0.996264)"/>
    <use xlink:href="#CMR17-73" transform="translate(137.071416 0) scale(0.996264)"/>
    <use xlink:href="#CMR17-73" transform="translate(172.872754 0) scale(0.996264)"/>
    <use xlink:href="#CMR17-31" transform="translate(238.750058 0) scale(0.996264)"/>
   </g>
  </g>
 </g>
 <defs>
  <clipPath id="p66e36ce947">
   <rect x="108" y="69.12" width="669.6" height="443.52"/>
  </clipPath>
 </defs>
</svg>
