<?xml version="1.0" encoding="utf-8" standalone="no"?>
<!DOCTYPE svg PUBLIC "-//W3C//DTD SVG 1.1//EN"
  "http://www.w3.org/Graphics/SVG/1.1/DTD/svg11.dtd">
<svg xmlns:xlink="http://www.w3.org/1999/xlink" width="864pt" height="576pt" viewBox="0 0 864 576" xmlns="http://www.w3.org/2000/svg" version="1.1">
 <metadata>
  <rdf:RDF xmlns:dc="http://purl.org/dc/elements/1.1/" xmlns:cc="http://creativecommons.org/ns#" xmlns:rdf="http://www.w3.org/1999/02/22-rdf-syntax-ns#">
   <cc:Work>
    <dc:type rdf:resource="http://purl.org/dc/dcmitype/StillImage"/>
    <dc:date>2025-06-22T19:32:23.813727</dc:date>
    <dc:format>image/svg+xml</dc:format>
    <dc:creator>
     <cc:Agent>
      <dc:title>Matplotlib v3.10.0, https://matplotlib.org/</dc:title>
     </cc:Agent>
    </dc:creator>
   </cc:Work>
  </rdf:RDF>
 </metadata>
 <defs>
  <style type="text/css">*{stroke-linejoin: round; stroke-linecap: butt}</style>
 </defs>
 <g id="figure_1">
  <g id="patch_1">
   <path d="M 0 576 
L 864 576 
L 864 0 
L 0 0 
z
" style="fill: #ffffff"/>
  </g>
  <g id="axes_1">
   <g id="patch_2">
    <path d="M 129.626538 475.909127 
L 681.739358 475.909127 
L 681.739358 126.51875 
L 129.626538 126.51875 
z
" style="fill: #ffffff"/>
   </g>
   <g id="matplotlib.axis_1">
    <g id="xtick_1">
     <g id="line2d_1">
      <path d="M 154.722575 475.909127 
L 154.722575 126.51875 
" clip-path="url(#p9769339c90)" style="fill: none; stroke: #cccccc; stroke-linecap: round"/>
     </g>
     <g id="text_1">
      <!-- $\mathdefault{0}$ -->
      <g style="fill: #262626" transform="translate(148.440134 504.434994) scale(0.275 -0.275)">
       <defs>
        <path id="CMR17-30" d="M 2688 2038 
C 2688 2430 2682 3099 2413 3613 
C 2176 4063 1798 4224 1466 4224 
C 1158 4224 768 4082 525 3620 
C 269 3137 243 2539 243 2038 
C 243 1671 250 1112 448 623 
C 723 -39 1216 -128 1466 -128 
C 1760 -128 2208 -7 2470 604 
C 2662 1048 2688 1568 2688 2038 
z
M 1466 -26 
C 1056 -26 813 328 723 816 
C 653 1196 653 1749 653 2109 
C 653 2604 653 3015 736 3407 
C 858 3954 1216 4121 1466 4121 
C 1728 4121 2067 3947 2189 3420 
C 2272 3054 2278 2623 2278 2109 
C 2278 1691 2278 1176 2202 797 
C 2067 96 1690 -26 1466 -26 
z
" transform="scale(0.015625)"/>
       </defs>
       <use xlink:href="#CMR17-30" transform="scale(0.996264)"/>
      </g>
     </g>
    </g>
    <g id="xtick_2">
     <g id="line2d_2">
      <path d="M 252.753971 475.909127 
L 252.753971 126.51875 
" clip-path="url(#p9769339c90)" style="fill: none; stroke: #cccccc; stroke-linecap: round"/>
     </g>
     <g id="text_2">
      <!-- $\mathdefault{50}$ -->
      <g style="fill: #262626" transform="translate(240.189089 504.434994) scale(0.275 -0.275)">
       <defs>
        <path id="CMR17-35" d="M 730 3750 
C 794 3724 1056 3641 1325 3641 
C 1920 3641 2246 3961 2432 4140 
C 2432 4191 2432 4224 2394 4224 
C 2387 4224 2374 4224 2323 4198 
C 2099 4102 1837 4032 1517 4032 
C 1325 4032 1037 4055 723 4191 
C 653 4224 640 4224 634 4224 
C 602 4224 595 4217 595 4090 
L 595 2231 
C 595 2113 595 2080 659 2080 
C 691 2080 704 2093 736 2139 
C 941 2435 1222 2560 1542 2560 
C 1766 2560 2246 2415 2246 1293 
C 2246 1087 2246 716 2054 422 
C 1894 159 1645 25 1370 25 
C 947 25 518 319 403 812 
C 429 806 480 793 506 793 
C 589 793 749 838 749 1036 
C 749 1209 627 1280 506 1280 
C 358 1280 262 1190 262 1011 
C 262 454 704 -128 1382 -128 
C 2042 -128 2669 441 2669 1267 
C 2669 2054 2170 2662 1549 2662 
C 1222 2662 947 2540 730 2304 
L 730 3750 
z
" transform="scale(0.015625)"/>
       </defs>
       <use xlink:href="#CMR17-35" transform="scale(0.996264)"/>
       <use xlink:href="#CMR17-30" transform="translate(45.690477 0) scale(0.996264)"/>
      </g>
     </g>
    </g>
    <g id="xtick_3">
     <g id="line2d_3">
      <path d="M 350.785366 475.909127 
L 350.785366 126.51875 
" clip-path="url(#p9769339c90)" style="fill: none; stroke: #cccccc; stroke-linecap: round"/>
     </g>
     <g id="text_3">
      <!-- $\mathdefault{100}$ -->
      <g style="fill: #262626" transform="translate(331.938044 504.434994) scale(0.275 -0.275)">
       <defs>
        <path id="CMR17-31" d="M 1702 4083 
C 1702 4217 1696 4224 1606 4224 
C 1357 3927 979 3833 621 3820 
C 602 3820 570 3820 563 3808 
C 557 3795 557 3782 557 3648 
C 755 3648 1088 3686 1344 3839 
L 1344 467 
C 1344 243 1331 166 781 166 
L 589 166 
L 589 0 
C 896 6 1216 12 1523 12 
C 1830 12 2150 6 2458 0 
L 2458 166 
L 2266 166 
C 1715 166 1702 236 1702 467 
L 1702 4083 
z
" transform="scale(0.015625)"/>
       </defs>
       <use xlink:href="#CMR17-31" transform="scale(0.996264)"/>
       <use xlink:href="#CMR17-30" transform="translate(45.690477 0) scale(0.996264)"/>
       <use xlink:href="#CMR17-30" transform="translate(91.380954 0) scale(0.996264)"/>
      </g>
     </g>
    </g>
    <g id="xtick_4">
     <g id="line2d_4">
      <path d="M 448.816762 475.909127 
L 448.816762 126.51875 
" clip-path="url(#p9769339c90)" style="fill: none; stroke: #cccccc; stroke-linecap: round"/>
     </g>
     <g id="text_4">
      <!-- $\mathdefault{150}$ -->
      <g style="fill: #262626" transform="translate(429.96944 504.434994) scale(0.275 -0.275)">
       <use xlink:href="#CMR17-31" transform="scale(0.996264)"/>
       <use xlink:href="#CMR17-35" transform="translate(45.690477 0) scale(0.996264)"/>
       <use xlink:href="#CMR17-30" transform="translate(91.380954 0) scale(0.996264)"/>
      </g>
     </g>
    </g>
    <g id="xtick_5">
     <g id="line2d_5">
      <path d="M 546.848158 475.909127 
L 546.848158 126.51875 
" clip-path="url(#p9769339c90)" style="fill: none; stroke: #cccccc; stroke-linecap: round"/>
     </g>
     <g id="text_5">
      <!-- $\mathdefault{200}$ -->
      <g style="fill: #262626" transform="translate(528.000836 504.434994) scale(0.275 -0.275)">
       <defs>
        <path id="CMR17-32" d="M 2669 990 
L 2554 990 
C 2490 537 2438 460 2413 422 
C 2381 371 1920 371 1830 371 
L 602 371 
C 832 620 1280 1073 1824 1596 
C 2214 1966 2669 2400 2669 3033 
C 2669 3788 2067 4224 1395 4224 
C 691 4224 262 3603 262 3027 
C 262 2777 448 2745 525 2745 
C 589 2745 781 2783 781 3007 
C 781 3206 614 3264 525 3264 
C 486 3264 448 3257 422 3244 
C 544 3788 915 4057 1306 4057 
C 1862 4057 2227 3616 2227 3033 
C 2227 2477 1901 1998 1536 1583 
L 262 147 
L 262 0 
L 2515 0 
L 2669 990 
z
" transform="scale(0.015625)"/>
       </defs>
       <use xlink:href="#CMR17-32" transform="scale(0.996264)"/>
       <use xlink:href="#CMR17-30" transform="translate(45.690477 0) scale(0.996264)"/>
       <use xlink:href="#CMR17-30" transform="translate(91.380954 0) scale(0.996264)"/>
      </g>
     </g>
    </g>
    <g id="xtick_6">
     <g id="line2d_6">
      <path d="M 644.879553 475.909127 
L 644.879553 126.51875 
" clip-path="url(#p9769339c90)" style="fill: none; stroke: #cccccc; stroke-linecap: round"/>
     </g>
     <g id="text_6">
      <!-- $\mathdefault{250}$ -->
      <g style="fill: #262626" transform="translate(626.032232 504.434994) scale(0.275 -0.275)">
       <use xlink:href="#CMR17-32" transform="scale(0.996264)"/>
       <use xlink:href="#CMR17-35" transform="translate(45.690477 0) scale(0.996264)"/>
       <use xlink:href="#CMR17-30" transform="translate(91.380954 0) scale(0.996264)"/>
      </g>
     </g>
    </g>
    <g id="text_7">
     <!-- Time (index) -->
     <g style="fill: #262626" transform="translate(326.953365 536.153027) scale(0.3 -0.3)">
      <defs>
       <path id="CMR17-54" d="M 3981 4332 
L 288 4332 
L 179 2924 
L 294 2924 
C 378 3981 467 4166 1453 4166 
C 1568 4166 1754 4166 1805 4159 
C 1926 4140 1926 4064 1926 3917 
L 1926 465 
C 1926 236 1907 166 1376 166 
L 1197 166 
L 1197 0 
C 1504 6 1824 12 2138 12 
C 2451 12 2771 6 3078 0 
L 3078 166 
L 2899 166 
C 2368 166 2349 236 2349 465 
L 2349 3917 
C 2349 4057 2349 4134 2464 4159 
C 2515 4166 2701 4166 2816 4166 
C 3795 4166 3891 3981 3974 2924 
L 4090 2924 
L 3981 4332 
z
" transform="scale(0.015625)"/>
       <path id="CMR17-69" d="M 992 3961 
C 992 4102 877 4224 730 4224 
C 589 4224 467 4108 467 3961 
C 467 3820 582 3699 730 3699 
C 870 3699 992 3814 992 3961 
z
M 243 2745 
L 243 2579 
C 602 2579 653 2540 653 2231 
L 653 443 
C 653 198 627 166 218 166 
L 218 0 
C 371 12 646 12 806 12 
C 960 12 1222 12 1370 0 
L 1370 166 
C 992 166 979 205 979 436 
L 979 2816 
L 243 2745 
z
" transform="scale(0.015625)"/>
       <path id="CMR17-6d" d="M 4326 1954 
C 4326 2276 4269 2816 3507 2816 
C 3072 2816 2771 2520 2656 2173 
L 2650 2173 
C 2573 2700 2195 2816 1837 2816 
C 1331 2816 1069 2424 973 2166 
L 966 2166 
L 966 2816 
L 211 2745 
L 211 2578 
C 589 2578 646 2540 646 2231 
L 646 443 
C 646 198 621 166 211 166 
L 211 0 
C 365 12 646 12 813 12 
C 979 12 1267 12 1421 0 
L 1421 166 
C 1011 166 986 192 986 443 
L 986 1678 
C 986 2269 1344 2713 1792 2713 
C 2266 2713 2317 2289 2317 1980 
L 2317 443 
C 2317 198 2291 166 1882 166 
L 1882 0 
C 2035 12 2317 12 2483 12 
C 2650 12 2938 12 3091 0 
L 3091 166 
C 2682 166 2656 192 2656 443 
L 2656 1678 
C 2656 2269 3014 2713 3462 2713 
C 3936 2713 3987 2289 3987 1980 
L 3987 443 
C 3987 198 3962 166 3552 166 
L 3552 0 
C 3706 12 3987 12 4154 12 
C 4320 12 4608 12 4762 0 
L 4762 166 
C 4352 166 4326 192 4326 443 
L 4326 1954 
z
" transform="scale(0.015625)"/>
       <path id="CMR17-65" d="M 2438 1503 
C 2464 1529 2464 1542 2464 1606 
C 2464 2251 2118 2816 1389 2816 
C 710 2816 173 2175 173 1394 
C 173 554 781 -64 1459 -64 
C 2176 -64 2458 619 2458 755 
C 2458 800 2419 800 2406 800 
C 2362 800 2355 787 2330 709 
C 2189 270 1837 51 1504 51 
C 1229 51 954 206 781 490 
C 582 819 582 1200 582 1503 
L 2438 1503 
z
M 589 1600 
C 634 2511 1126 2713 1382 2713 
C 1818 2713 2112 2308 2118 1600 
L 589 1600 
z
" transform="scale(0.015625)"/>
       <path id="CMR17-28" d="M 1958 -1562 
C 1958 -1556 1958 -1543 1939 -1524 
C 1645 -1223 858 -403 858 1596 
C 858 3595 1632 4408 1946 4729 
C 1946 4735 1958 4748 1958 4767 
C 1958 4787 1939 4800 1914 4800 
C 1843 4800 1299 4325 986 3620 
C 666 2909 576 2218 576 1603 
C 576 1141 621 360 1005 -467 
C 1312 -1133 1837 -1600 1914 -1600 
C 1946 -1600 1958 -1588 1958 -1562 
z
" transform="scale(0.015625)"/>
       <path id="CMR17-6e" d="M 2656 1954 
C 2656 2282 2592 2816 1837 2816 
C 1331 2816 1069 2424 973 2166 
L 966 2166 
L 966 2816 
L 211 2745 
L 211 2578 
C 589 2578 646 2540 646 2231 
L 646 443 
C 646 198 621 166 211 166 
L 211 0 
C 365 12 646 12 813 12 
C 979 12 1267 12 1421 0 
L 1421 166 
C 1011 166 986 192 986 443 
L 986 1678 
C 986 2269 1344 2713 1792 2713 
C 2266 2713 2317 2289 2317 1980 
L 2317 443 
C 2317 198 2291 166 1882 166 
L 1882 0 
C 2035 12 2317 12 2483 12 
C 2650 12 2938 12 3091 0 
L 3091 166 
C 2682 166 2656 192 2656 443 
L 2656 1954 
z
" transform="scale(0.015625)"/>
       <path id="CMR17-64" d="M 1869 4345 
L 1869 4179 
C 2246 4179 2304 4141 2304 3843 
L 2304 2371 
C 2278 2403 2016 2816 1498 2816 
C 845 2816 211 2228 211 1376 
C 211 529 806 -64 1434 -64 
C 1978 -64 2259 361 2291 406 
L 2291 -64 
L 3066 -13 
L 3066 154 
C 2688 154 2630 193 2630 503 
L 2630 4416 
L 1869 4345 
z
M 2291 762 
C 2291 568 2176 393 2029 264 
C 1811 70 1594 38 1472 38 
C 1286 38 621 135 621 1369 
C 621 2636 1363 2713 1530 2713 
C 1824 2713 2061 2545 2208 2313 
C 2291 2177 2291 2157 2291 2041 
L 2291 762 
z
" transform="scale(0.015625)"/>
       <path id="CMR17-78" d="M 1664 1491 
C 1856 1740 2074 2022 2253 2233 
C 2464 2476 2707 2579 2989 2585 
L 2989 2752 
C 2880 2745 2656 2739 2541 2739 
C 2368 2739 2170 2739 2022 2752 
L 2022 2585 
C 2112 2572 2163 2508 2163 2419 
C 2163 2304 2099 2233 2067 2188 
L 1594 1587 
L 1030 2323 
C 973 2393 973 2406 973 2438 
C 973 2515 1037 2579 1146 2585 
L 1146 2752 
C 992 2739 717 2739 557 2739 
C 384 2739 179 2739 38 2752 
L 38 2585 
C 384 2585 461 2560 614 2368 
L 1350 1414 
C 1363 1401 1395 1363 1395 1344 
C 1395 1318 838 633 768 544 
C 480 198 179 172 6 166 
L 6 0 
C 115 6 339 12 454 12 
C 582 12 864 12 979 0 
L 979 166 
C 941 172 838 185 838 332 
C 838 448 890 518 947 595 
L 1478 1248 
L 2035 524 
C 2086 454 2163 358 2163 313 
C 2163 224 2086 172 1984 166 
L 1984 0 
C 2138 12 2413 12 2573 12 
C 2746 12 2950 12 3091 0 
L 3091 166 
C 2771 166 2675 179 2522 377 
L 1664 1491 
z
" transform="scale(0.015625)"/>
       <path id="CMR17-29" d="M 1683 1596 
C 1683 2057 1638 2839 1254 3665 
C 947 4332 422 4800 346 4800 
C 326 4800 301 4793 301 4761 
C 301 4748 307 4742 314 4729 
C 621 4408 1402 3595 1402 1603 
C 1402 -396 627 -1210 314 -1530 
C 307 -1543 301 -1549 301 -1562 
C 301 -1594 326 -1600 346 -1600 
C 416 -1600 960 -1127 1274 -422 
C 1594 289 1683 981 1683 1596 
z
" transform="scale(0.015625)"/>
      </defs>
      <use xlink:href="#CMR17-54" transform="scale(0.996264)"/>
      <use xlink:href="#CMR17-69" transform="translate(66.509881 0) scale(0.996264)"/>
      <use xlink:href="#CMR17-6d" transform="translate(91.380939 0) scale(0.996264)"/>
      <use xlink:href="#CMR17-65" transform="translate(168.300529 0) scale(0.996264)"/>
      <use xlink:href="#CMR17-28" transform="translate(238.862156 0) scale(0.996264)"/>
      <use xlink:href="#CMR17-69" transform="translate(274.142924 0) scale(0.996264)"/>
      <use xlink:href="#CMR17-6e" transform="translate(299.013982 0) scale(0.996264)"/>
      <use xlink:href="#CMR17-64" transform="translate(349.909352 0) scale(0.996264)"/>
      <use xlink:href="#CMR17-65" transform="translate(400.804722 0) scale(0.996264)"/>
      <use xlink:href="#CMR17-78" transform="translate(441.290382 0) scale(0.996264)"/>
      <use xlink:href="#CMR17-29" transform="translate(489.583298 0) scale(0.996264)"/>
     </g>
    </g>
   </g>
   <g id="matplotlib.axis_2">
    <g id="ytick_1">
     <g id="line2d_7">
      <path d="M 129.626538 472.850541 
L 681.739358 472.850541 
" clip-path="url(#p9769339c90)" style="fill: none; stroke: #cccccc; stroke-linecap: round"/>
     </g>
     <g id="text_8">
      <!-- $\mathdefault{−0.5}$ -->
      <g style="fill: #262626" transform="translate(66.236006 482.363474) scale(0.275 -0.275)">
       <defs>
        <path id="CMSY10-0" d="M 4218 1472 
C 4326 1472 4442 1472 4442 1600 
C 4442 1728 4326 1728 4218 1728 
L 755 1728 
C 646 1728 531 1728 531 1600 
C 531 1472 646 1472 755 1472 
L 4218 1472 
z
" transform="scale(0.015625)"/>
        <path id="CMMI12-3a" d="M 1178 307 
C 1178 492 1024 620 870 620 
C 685 620 557 467 557 313 
C 557 128 710 0 864 0 
C 1050 0 1178 153 1178 307 
z
" transform="scale(0.015625)"/>
       </defs>
       <use xlink:href="#CMSY10-0" transform="scale(0.996264)"/>
       <use xlink:href="#CMR17-30" transform="translate(77.487468 0) scale(0.996264)"/>
       <use xlink:href="#CMMI12-3a" transform="translate(123.177945 0) scale(0.996264)"/>
       <use xlink:href="#CMR17-35" transform="translate(150.275122 0) scale(0.996264)"/>
      </g>
     </g>
    </g>
    <g id="ytick_2">
     <g id="line2d_8">
      <path d="M 129.626538 401.477974 
L 681.739358 401.477974 
" clip-path="url(#p9769339c90)" style="fill: none; stroke: #cccccc; stroke-linecap: round"/>
     </g>
     <g id="text_9">
      <!-- $\mathdefault{0.0}$ -->
      <g style="fill: #262626" transform="translate(87.545059 410.990907) scale(0.275 -0.275)">
       <use xlink:href="#CMR17-30" transform="scale(0.996264)"/>
       <use xlink:href="#CMMI12-3a" transform="translate(45.690477 0) scale(0.996264)"/>
       <use xlink:href="#CMR17-30" transform="translate(72.787654 0) scale(0.996264)"/>
      </g>
     </g>
    </g>
    <g id="ytick_3">
     <g id="line2d_9">
      <path d="M 129.626538 330.105407 
L 681.739358 330.105407 
" clip-path="url(#p9769339c90)" style="fill: none; stroke: #cccccc; stroke-linecap: round"/>
     </g>
     <g id="text_10">
      <!-- $\mathdefault{0.5}$ -->
      <g style="fill: #262626" transform="translate(87.545059 339.61834) scale(0.275 -0.275)">
       <use xlink:href="#CMR17-30" transform="scale(0.996264)"/>
       <use xlink:href="#CMMI12-3a" transform="translate(45.690477 0) scale(0.996264)"/>
       <use xlink:href="#CMR17-35" transform="translate(72.787654 0) scale(0.996264)"/>
      </g>
     </g>
    </g>
    <g id="ytick_4">
     <g id="line2d_10">
      <path d="M 129.626538 258.732839 
L 681.739358 258.732839 
" clip-path="url(#p9769339c90)" style="fill: none; stroke: #cccccc; stroke-linecap: round"/>
     </g>
     <g id="text_11">
      <!-- $\mathdefault{1.0}$ -->
      <g style="fill: #262626" transform="translate(87.545059 268.245773) scale(0.275 -0.275)">
       <use xlink:href="#CMR17-31" transform="scale(0.996264)"/>
       <use xlink:href="#CMMI12-3a" transform="translate(45.690477 0) scale(0.996264)"/>
       <use xlink:href="#CMR17-30" transform="translate(72.787654 0) scale(0.996264)"/>
      </g>
     </g>
    </g>
    <g id="ytick_5">
     <g id="line2d_11">
      <path d="M 129.626538 187.360272 
L 681.739358 187.360272 
" clip-path="url(#p9769339c90)" style="fill: none; stroke: #cccccc; stroke-linecap: round"/>
     </g>
     <g id="text_12">
      <!-- $\mathdefault{1.5}$ -->
      <g style="fill: #262626" transform="translate(87.545059 196.873206) scale(0.275 -0.275)">
       <use xlink:href="#CMR17-31" transform="scale(0.996264)"/>
       <use xlink:href="#CMMI12-3a" transform="translate(45.690477 0) scale(0.996264)"/>
       <use xlink:href="#CMR17-35" transform="translate(72.787654 0) scale(0.996264)"/>
      </g>
     </g>
    </g>
    <g id="text_13">
     <!-- Amplitude/Shape Indicator -->
     <g style="fill: #262626" transform="translate(54.789033 466.685811) rotate(-90) scale(0.3 -0.3)">
      <defs>
       <path id="CMR17-41" d="M 2323 4441 
C 2291 4524 2278 4544 2214 4544 
C 2150 4544 2138 4524 2106 4441 
L 749 580 
C 627 236 371 166 147 166 
L 147 0 
C 262 12 518 12 640 12 
C 800 12 1056 12 1210 0 
L 1210 166 
C 909 179 864 382 864 459 
C 864 516 877 548 890 586 
L 1229 1536 
L 2906 1536 
L 3290 453 
C 3322 376 3322 363 3322 338 
C 3322 166 3046 166 2925 166 
L 2925 0 
C 3110 12 3443 12 3642 12 
C 3808 12 4128 12 4282 0 
L 4282 166 
C 3942 166 3827 166 3744 402 
L 2323 4441 
z
M 2067 3924 
L 2848 1702 
L 1286 1702 
L 2067 3924 
z
" transform="scale(0.015625)"/>
       <path id="CMR17-70" d="M 1408 -1114 
C 998 -1114 973 -1088 973 -834 
L 973 380 
C 1158 109 1427 -64 1766 -64 
C 2406 -64 3053 503 3053 1382 
C 3053 2196 2496 2816 1837 2816 
C 1453 2816 1139 2603 960 2345 
L 960 2816 
L 198 2745 
L 198 2577 
C 576 2577 634 2539 634 2228 
L 634 -834 
C 634 -1081 608 -1114 198 -1114 
L 198 -1280 
C 352 -1268 634 -1268 800 -1268 
C 966 -1268 1254 -1268 1408 -1280 
L 1408 -1114 
z
M 973 2015 
C 973 2106 973 2241 1222 2481 
C 1254 2506 1472 2700 1792 2700 
C 2259 2700 2643 2112 2643 1376 
C 2643 639 2234 38 1728 38 
C 1498 38 1248 148 1056 451 
C 973 594 973 632 973 736 
L 973 2015 
z
" transform="scale(0.015625)"/>
       <path id="CMR17-6c" d="M 979 4416 
L 218 4345 
L 218 4179 
C 595 4179 653 4141 653 3835 
L 653 439 
C 653 198 627 166 218 166 
L 218 0 
C 371 12 653 12 813 12 
C 979 12 1261 12 1414 0 
L 1414 166 
C 1005 166 979 191 979 439 
L 979 4416 
z
" transform="scale(0.015625)"/>
       <path id="CMR17-74" d="M 966 2585 
L 1862 2585 
L 1862 2752 
L 966 2752 
L 966 3968 
L 851 3968 
C 838 3292 614 2700 70 2687 
L 70 2585 
L 627 2585 
L 627 778 
C 627 655 627 -64 1370 -64 
C 1747 -64 1965 308 1965 784 
L 1965 1151 
L 1850 1151 
L 1850 790 
C 1850 347 1677 51 1408 51 
C 1222 51 966 179 966 765 
L 966 2585 
z
" transform="scale(0.015625)"/>
       <path id="CMR17-75" d="M 1882 2745 
L 1882 2579 
C 2259 2579 2317 2540 2317 2229 
L 2317 1053 
C 2317 510 2029 38 1555 38 
C 1030 38 986 355 986 691 
L 986 2816 
L 211 2745 
L 211 2579 
C 467 2579 640 2579 646 2320 
L 646 1079 
C 646 646 646 368 813 187 
C 896 103 1056 -64 1517 -64 
C 2061 -64 2272 400 2323 536 
L 2330 536 
L 2330 -64 
L 3091 -13 
L 3091 154 
C 2714 154 2656 193 2656 503 
L 2656 2816 
L 1882 2745 
z
" transform="scale(0.015625)"/>
       <path id="CMR17-2f" d="M 2605 4575 
C 2637 4658 2637 4671 2637 4684 
C 2637 4761 2579 4800 2528 4800 
C 2451 4800 2426 4748 2400 4671 
L 326 -1376 
C 294 -1460 294 -1472 294 -1485 
C 294 -1562 352 -1600 403 -1600 
C 480 -1600 506 -1549 531 -1472 
L 2605 4575 
z
" transform="scale(0.015625)"/>
       <path id="CMR17-53" d="M 2803 4351 
C 2803 4467 2797 4473 2758 4473 
C 2720 4473 2707 4447 2682 4390 
L 2490 3965 
C 2246 4320 1875 4480 1472 4480 
C 819 4480 294 3958 294 3301 
C 294 3101 339 2817 557 2546 
C 794 2250 1018 2198 1530 2063 
C 1722 2011 2042 1927 2106 1901 
C 2470 1747 2662 1360 2662 999 
C 2662 534 2336 38 1779 38 
C 1094 38 454 425 410 1328 
C 403 1431 397 1437 352 1437 
C 301 1437 294 1431 294 1302 
L 294 0 
C 294 -116 301 -122 339 -122 
C 384 -122 397 -90 486 109 
C 493 128 493 141 614 386 
C 934 -39 1472 -128 1779 -128 
C 2477 -128 2970 457 2970 1141 
C 2970 1476 2848 1734 2778 1850 
C 2509 2263 2221 2340 1914 2417 
C 1869 2437 1856 2437 1498 2527 
C 1152 2617 1005 2662 845 2836 
C 666 3036 602 3243 602 3449 
C 602 3868 934 4326 1478 4326 
C 2157 4326 2579 3842 2675 3036 
C 2694 2920 2701 2914 2746 2914 
C 2803 2914 2803 2933 2803 3043 
L 2803 4351 
z
" transform="scale(0.015625)"/>
       <path id="CMR17-68" d="M 2656 1954 
C 2656 2282 2592 2816 1837 2816 
C 1312 2816 1056 2392 979 2179 
L 973 2179 
L 973 4416 
L 211 4345 
L 211 4179 
C 589 4179 646 4141 646 3843 
L 646 443 
C 646 198 621 166 211 166 
L 211 0 
C 365 12 646 12 813 12 
C 979 12 1267 12 1421 0 
L 1421 166 
C 1011 166 986 192 986 443 
L 986 1678 
C 986 2269 1344 2713 1792 2713 
C 2266 2713 2317 2289 2317 1980 
L 2317 443 
C 2317 198 2291 166 1882 166 
L 1882 0 
C 2035 12 2317 12 2483 12 
C 2650 12 2938 12 3091 0 
L 3091 166 
C 2682 166 2656 192 2656 443 
L 2656 1954 
z
" transform="scale(0.015625)"/>
       <path id="CMR17-61" d="M 2304 1656 
C 2304 2048 2304 2275 2035 2534 
C 1798 2751 1523 2816 1306 2816 
C 800 2816 435 2408 435 1977 
C 435 1740 627 1728 666 1728 
C 749 1728 896 1779 896 1958 
C 896 2118 774 2188 666 2188 
C 640 2188 608 2182 589 2176 
C 723 2594 1069 2713 1293 2713 
C 1613 2713 1965 2421 1965 1875 
L 1965 1632 
C 1587 1619 1133 1568 774 1373 
C 371 1147 256 822 256 576 
C 256 77 832 -64 1171 -64 
C 1523 -64 1850 135 1990 505 
C 2003 219 2182 -39 2464 -39 
C 2598 -39 2938 51 2938 563 
L 2938 926 
L 2822 926 
L 2822 557 
C 2822 161 2650 109 2566 109 
C 2304 109 2304 446 2304 732 
L 2304 1656 
z
M 1965 887 
C 1965 323 1568 38 1216 38 
C 896 38 646 278 646 576 
C 646 771 730 1114 1101 1322 
C 1408 1497 1760 1523 1965 1536 
L 1965 887 
z
" transform="scale(0.015625)"/>
       <path id="CMR17-49" d="M 1261 3898 
C 1261 4185 1338 4185 1798 4185 
L 1798 4352 
C 1594 4339 1267 4339 1050 4339 
C 832 4339 506 4339 301 4352 
L 301 4185 
C 762 4185 838 4185 838 3898 
L 838 453 
C 838 166 762 166 301 166 
L 301 0 
C 506 12 832 12 1050 12 
C 1267 12 1594 12 1798 0 
L 1798 166 
C 1338 166 1261 166 1261 453 
L 1261 3898 
z
" transform="scale(0.015625)"/>
       <path id="CMR17-63" d="M 2234 2240 
C 2112 2240 1933 2240 1933 2015 
C 1933 1836 2080 1785 2163 1785 
C 2208 1785 2394 1804 2394 2028 
C 2394 2476 1958 2816 1466 2816 
C 787 2816 211 2201 211 1379 
C 211 521 813 -64 1466 -64 
C 2259 -64 2458 676 2458 747 
C 2458 773 2451 792 2406 792 
C 2362 792 2355 786 2330 702 
C 2163 180 1798 51 1523 51 
C 1114 51 621 431 621 1385 
C 621 2358 1094 2700 1472 2700 
C 1722 2700 2093 2582 2234 2240 
z
" transform="scale(0.015625)"/>
       <path id="CMR17-6f" d="M 2758 1356 
C 2758 2176 2163 2816 1466 2816 
C 768 2816 173 2176 173 1356 
C 173 550 768 -64 1466 -64 
C 2163 -64 2758 550 2758 1356 
z
M 1466 51 
C 1165 51 909 230 762 480 
C 602 768 582 1126 582 1408 
C 582 1676 595 2009 762 2297 
C 890 2508 1139 2713 1466 2713 
C 1754 2713 1997 2553 2150 2329 
C 2349 2028 2349 1606 2349 1408 
C 2349 1158 2336 774 2163 467 
C 1984 172 1709 51 1466 51 
z
" transform="scale(0.015625)"/>
       <path id="CMR17-72" d="M 960 1517 
C 960 2134 1222 2713 1702 2713 
C 1747 2713 1792 2707 1837 2687 
C 1837 2687 1696 2642 1696 2475 
C 1696 2321 1818 2257 1914 2257 
C 1990 2257 2131 2302 2131 2482 
C 2131 2687 1926 2816 1709 2816 
C 1222 2816 1011 2340 947 2115 
L 941 2115 
L 941 2816 
L 198 2745 
L 198 2578 
C 576 2578 634 2540 634 2231 
L 634 443 
C 634 198 608 166 198 166 
L 198 0 
C 352 12 646 12 813 12 
C 998 12 1325 12 1498 0 
L 1498 166 
C 1037 166 960 166 960 455 
L 960 1517 
z
" transform="scale(0.015625)"/>
      </defs>
      <use xlink:href="#CMR17-41" transform="scale(0.996264)"/>
      <use xlink:href="#CMR17-6d" transform="translate(69.07243 0) scale(0.996264)"/>
      <use xlink:href="#CMR17-70" transform="translate(145.99202 0) scale(0.996264)"/>
      <use xlink:href="#CMR17-6c" transform="translate(196.887389 0) scale(0.996264)"/>
      <use xlink:href="#CMR17-69" transform="translate(221.758448 0) scale(0.996264)"/>
      <use xlink:href="#CMR17-74" transform="translate(246.629506 0) scale(0.996264)"/>
      <use xlink:href="#CMR17-75" transform="translate(281.910274 0) scale(0.996264)"/>
      <use xlink:href="#CMR17-64" transform="translate(332.805644 0) scale(0.996264)"/>
      <use xlink:href="#CMR17-65" transform="translate(383.701014 0) scale(0.996264)"/>
      <use xlink:href="#CMR17-2f" transform="translate(424.186674 0) scale(0.996264)"/>
      <use xlink:href="#CMR17-53" transform="translate(469.877151 0) scale(0.996264)"/>
      <use xlink:href="#CMR17-68" transform="translate(520.772521 0) scale(0.996264)"/>
      <use xlink:href="#CMR17-61" transform="translate(571.667891 0) scale(0.996264)"/>
      <use xlink:href="#CMR17-70" transform="translate(617.358368 0) scale(0.996264)"/>
      <use xlink:href="#CMR17-65" transform="translate(670.856177 0) scale(0.996264)"/>
      <use xlink:href="#CMR17-49" transform="translate(741.417803 0) scale(0.996264)"/>
      <use xlink:href="#CMR17-6e" transform="translate(774.056213 0) scale(0.996264)"/>
      <use xlink:href="#CMR17-64" transform="translate(824.951582 0) scale(0.996264)"/>
      <use xlink:href="#CMR17-69" transform="translate(875.846952 0) scale(0.996264)"/>
      <use xlink:href="#CMR17-63" transform="translate(900.718011 0) scale(0.996264)"/>
      <use xlink:href="#CMR17-61" transform="translate(941.203671 0) scale(0.996264)"/>
      <use xlink:href="#CMR17-74" transform="translate(986.894148 0) scale(0.996264)"/>
      <use xlink:href="#CMR17-6f" transform="translate(1022.174916 0) scale(0.996264)"/>
      <use xlink:href="#CMR17-72" transform="translate(1067.865393 0) scale(0.996264)"/>
     </g>
    </g>
   </g>
   <g id="line2d_12">
    <path d="M 156.683203 401.477974 
L 360.588506 401.477974 
L 362.549134 230.183813 
L 427.249855 230.183813 
L 429.210483 401.477974 
L 656.643321 401.477974 
L 656.643321 401.477974 
" clip-path="url(#p9769339c90)" style="fill: none; stroke-dasharray: 11.1,4.8; stroke-dashoffset: 0; stroke: #4e79a7; stroke-width: 3"/>
   </g>
   <g id="line2d_13">
    <path d="M 156.683203 385.841577 
L 158.643831 389.146785 
L 160.604459 388.654103 
L 162.565087 390.223743 
L 164.525714 391.327656 
L 166.486342 386.459383 
L 168.44697 382.79056 
L 170.407598 384.425347 
L 172.368226 384.265068 
L 174.328854 384.980032 
L 176.289482 385.458474 
L 178.25011 385.122778 
L 180.210738 384.923003 
L 182.171366 385.055652 
L 184.131994 385.057885 
L 186.092622 385.2341 
L 188.053249 385.143832 
L 191.974505 384.724997 
L 193.935133 384.186583 
L 195.895761 384.793201 
L 197.856389 383.412962 
L 199.817017 383.629636 
L 201.777645 382.629337 
L 203.738273 384.029975 
L 205.698901 383.761122 
L 207.659529 384.914913 
L 209.620156 384.665607 
L 211.580784 384.998314 
L 213.541412 384.631793 
L 217.462668 385.38997 
L 219.423296 385.535573 
L 221.383924 386.126076 
L 223.344552 385.841811 
L 225.30518 385.71267 
L 227.265808 385.17749 
L 229.226436 385.711329 
L 231.187064 385.085289 
L 233.147691 386.059255 
L 235.108319 386.67964 
L 237.068947 387.560692 
L 239.029575 387.76245 
L 240.990203 388.086675 
L 242.950831 387.762832 
L 244.911459 388.15433 
L 248.832715 389.922929 
L 250.793343 390.529221 
L 252.753971 391.545485 
L 254.714599 390.724265 
L 256.675226 388.949386 
L 258.635854 385.07333 
L 260.596482 382.962578 
L 262.55711 383.465704 
L 264.517738 382.186386 
L 266.478366 382.529856 
L 268.438994 383.209052 
L 272.36025 382.090244 
L 274.320878 382.462454 
L 276.281506 383.417141 
L 278.242133 382.965973 
L 280.202761 381.071342 
L 282.163389 382.49169 
L 284.124017 381.800255 
L 288.045273 380.850351 
L 290.005901 381.718939 
L 293.927157 382.164709 
L 295.887785 382.764757 
L 297.848413 382.559522 
L 299.809041 381.809954 
L 301.769668 382.860998 
L 303.730296 385.168372 
L 305.690924 382.87161 
L 307.651552 382.054365 
L 309.61218 382.126273 
L 311.572808 381.690949 
L 315.494064 382.475182 
L 317.454692 383.689893 
L 319.41532 383.088643 
L 321.375948 382.225132 
L 325.297203 381.44854 
L 327.257831 381.09795 
L 329.218459 382.175761 
L 331.179087 382.310445 
L 333.139715 381.558196 
L 335.100343 381.277041 
L 337.060971 381.274788 
L 339.021599 381.692527 
L 340.982227 382.565363 
L 342.942855 383.052777 
L 344.903483 382.564715 
L 346.86411 384.269354 
L 348.824738 386.138039 
L 352.745994 387.770569 
L 354.706622 390.643003 
L 356.66725 390.548769 
L 358.627878 390.100134 
L 360.588506 375.852259 
L 362.549134 294.920907 
L 364.509762 277.975482 
L 366.47039 278.611713 
L 368.431018 277.912733 
L 370.391645 280.050837 
L 372.352273 281.610879 
L 374.312901 278.563624 
L 376.273529 278.947918 
L 378.234157 279.472648 
L 380.194785 278.858938 
L 384.116041 278.553644 
L 388.037297 278.817732 
L 389.997925 279.530139 
L 391.958553 280.583735 
L 393.91918 279.621679 
L 395.879808 278.783597 
L 397.840436 278.982563 
L 399.801064 279.326272 
L 401.761692 279.297233 
L 403.72232 279.465255 
L 405.682948 279.772037 
L 407.643576 280.623733 
L 409.604204 281.014084 
L 411.564832 279.992232 
L 413.52546 280.067504 
L 415.486087 280.522169 
L 417.446715 279.587927 
L 419.407343 280.154033 
L 421.367971 281.631835 
L 423.328599 279.031835 
L 425.289227 280.856553 
L 427.249855 281.4372 
L 429.210483 345.724456 
L 431.171111 381.211191 
L 433.131739 388.845945 
L 435.092367 388.965563 
L 437.052995 388.943979 
L 439.013622 388.056302 
L 440.97425 388.711506 
L 442.934878 388.157133 
L 446.856134 389.226341 
L 448.816762 389.272214 
L 450.77739 389.430119 
L 452.738018 390.405215 
L 454.698646 390.836413 
L 456.659274 390.918908 
L 458.619902 391.326154 
L 460.58053 389.668762 
L 462.541157 379.761743 
L 466.462413 385.944067 
L 468.423041 386.11258 
L 470.383669 385.733285 
L 472.344297 384.885655 
L 474.304925 384.801901 
L 476.265553 385.242535 
L 482.147437 385.627877 
L 484.108064 385.459849 
L 488.02932 386.073408 
L 489.989948 386.14274 
L 491.950576 385.879854 
L 493.911204 385.852204 
L 495.871832 386.451701 
L 497.83246 386.15663 
L 499.793088 385.604179 
L 501.753716 386.472271 
L 503.714344 386.477796 
L 505.674972 386.340359 
L 507.635599 385.868287 
L 509.596227 386.227261 
L 511.556855 385.945751 
L 513.517483 387.094908 
L 517.438739 386.927507 
L 519.399367 386.319252 
L 521.359995 386.871405 
L 523.320623 386.59574 
L 525.281251 386.816742 
L 527.241879 386.501153 
L 529.202507 386.823948 
L 533.123762 385.978589 
L 537.045018 386.043075 
L 539.005646 386.120991 
L 540.966274 386.482219 
L 542.926902 386.49434 
L 544.88753 386.984325 
L 546.848158 387.085314 
L 550.769414 386.546789 
L 552.730041 388.676586 
L 554.690669 389.326688 
L 556.651297 388.650261 
L 558.611925 388.990113 
L 560.572553 386.206209 
L 562.533181 383.641687 
L 564.493809 383.378261 
L 566.454437 384.874752 
L 568.415065 385.910713 
L 570.375693 385.929404 
L 572.336321 385.625305 
L 574.296949 385.619622 
L 576.257576 385.434103 
L 578.218204 384.479612 
L 580.178832 383.652185 
L 582.13946 383.056189 
L 584.100088 382.813162 
L 586.060716 382.776698 
L 588.021344 383.694539 
L 589.981972 383.840429 
L 593.903228 383.853342 
L 595.863856 384.091692 
L 597.824484 383.869447 
L 599.785111 383.976133 
L 603.706367 383.293123 
L 607.627623 383.250756 
L 615.470135 384.929588 
L 617.430763 384.799746 
L 619.391391 384.439188 
L 621.352018 384.428867 
L 623.312646 384.256255 
L 627.233902 384.210871 
L 633.115786 384.392369 
L 635.076414 384.834404 
L 637.037042 384.734996 
L 638.99767 384.921816 
L 640.958298 384.361371 
L 642.918926 384.535975 
L 644.879553 384.951231 
L 646.840181 384.829331 
L 648.800809 385.477629 
L 650.761437 387.713901 
L 652.722065 390.211294 
L 654.682693 392.960935 
L 656.643321 390.794618 
L 656.643321 390.794618 
" clip-path="url(#p9769339c90)" style="fill: none; stroke: #4e79a7; stroke-width: 3; stroke-linecap: round"/>
   </g>
   <g id="line2d_14">
    <path d="M 156.683203 401.477974 
L 556.651297 401.477974 
L 558.611925 230.183813 
L 654.682693 230.183813 
L 656.643321 401.477974 
L 656.643321 401.477974 
" clip-path="url(#p9769339c90)" style="fill: none; stroke-dasharray: 11.1,4.8; stroke-dashoffset: 0; stroke: #f28e2b; stroke-width: 3"/>
   </g>
   <g id="line2d_15">
    <path d="M 156.683203 393.739126 
L 158.643831 395.11815 
L 160.604459 395.797436 
L 162.565087 395.708711 
L 164.525714 395.359522 
L 166.486342 392.61817 
L 168.44697 392.614791 
L 170.407598 393.281142 
L 174.328854 395.059588 
L 176.289482 395.295516 
L 182.171366 395.040512 
L 184.131994 395.134295 
L 188.053249 394.997449 
L 190.013877 394.846734 
L 193.935133 394.32232 
L 195.895761 394.870353 
L 197.856389 394.40945 
L 199.817017 393.799129 
L 201.777645 393.056146 
L 203.738273 394.683734 
L 205.698901 394.501843 
L 209.620156 393.921269 
L 211.580784 394.616161 
L 213.541412 394.658769 
L 217.462668 395.087591 
L 219.423296 395.569207 
L 221.383924 395.51019 
L 223.344552 395.245654 
L 225.30518 395.113942 
L 227.265808 395.554226 
L 229.226436 394.89596 
L 231.187064 393.34493 
L 233.147691 392.45176 
L 237.068947 392.465909 
L 239.029575 393.216708 
L 240.990203 393.004694 
L 244.911459 393.882466 
L 248.832715 395.500308 
L 250.793343 395.914308 
L 252.753971 396.45984 
L 254.714599 395.693732 
L 256.675226 394.242324 
L 258.635854 389.73248 
L 260.596482 389.238913 
L 262.55711 390.956417 
L 264.517738 391.128482 
L 266.478366 392.29104 
L 268.438994 392.551472 
L 270.399622 392.36089 
L 272.36025 392.508349 
L 274.320878 392.826605 
L 276.281506 392.972421 
L 278.242133 392.074294 
L 280.202761 391.624118 
L 282.163389 391.948183 
L 286.084645 391.001059 
L 293.927157 391.866753 
L 295.887785 391.8666 
L 297.848413 391.746575 
L 303.730296 392.82348 
L 305.690924 391.067032 
L 307.651552 391.286539 
L 309.61218 391.756339 
L 311.572808 392.020471 
L 313.533436 392.504993 
L 317.454692 392.703106 
L 319.41532 391.926639 
L 321.375948 391.462321 
L 323.336576 391.393166 
L 327.257831 391.623235 
L 329.218459 392.050703 
L 335.100343 391.735127 
L 337.060971 391.694239 
L 339.021599 391.342273 
L 340.982227 391.227534 
L 342.942855 390.920715 
L 344.903483 388.772025 
L 346.86411 390.577675 
L 348.824738 392.039324 
L 350.785366 392.204127 
L 352.745994 393.264141 
L 354.706622 395.792007 
L 356.66725 396.575451 
L 358.627878 397.206625 
L 360.588506 396.464172 
L 362.549134 390.497705 
L 364.509762 391.802005 
L 366.47039 391.974614 
L 368.431018 391.509341 
L 370.391645 390.811314 
L 372.352273 390.460169 
L 374.312901 389.920548 
L 376.273529 390.099388 
L 378.234157 390.627227 
L 382.155413 390.573999 
L 384.116041 390.7982 
L 386.076669 390.660798 
L 388.037297 390.70946 
L 389.997925 390.544439 
L 393.91918 390.405264 
L 397.840436 391.14123 
L 399.801064 390.772911 
L 401.761692 390.988976 
L 403.72232 390.697087 
L 405.682948 390.694501 
L 407.643576 390.518519 
L 409.604204 390.669286 
L 411.564832 390.299134 
L 415.486087 390.376148 
L 417.446715 390.642413 
L 419.407343 390.362578 
L 421.367971 390.749022 
L 423.328599 390.748268 
L 425.289227 391.727633 
L 427.249855 388.355873 
L 431.171111 395.24438 
L 433.131739 396.000078 
L 435.092367 395.308425 
L 437.052995 395.664323 
L 439.013622 395.452484 
L 440.97425 396.115101 
L 442.934878 395.811896 
L 444.895506 396.242546 
L 448.816762 396.463373 
L 450.77739 396.52521 
L 454.698646 397.019888 
L 458.619902 396.108957 
L 460.58053 392.905426 
L 462.541157 390.080798 
L 464.501785 394.884853 
L 466.462413 396.302492 
L 468.423041 395.935444 
L 470.383669 395.066323 
L 472.344297 394.440234 
L 474.304925 393.380115 
L 476.265553 394.145308 
L 478.226181 394.532926 
L 480.186809 395.08035 
L 482.147437 394.919778 
L 486.068692 395.110417 
L 488.02932 395.513555 
L 489.989948 395.28711 
L 491.950576 394.605328 
L 493.911204 394.779668 
L 495.871832 395.780269 
L 497.83246 395.969539 
L 499.793088 395.291267 
L 501.753716 395.756172 
L 503.714344 396.342506 
L 505.674972 396.350684 
L 507.635599 395.424758 
L 509.596227 395.927068 
L 511.556855 396.135077 
L 513.517483 395.350218 
L 515.478111 395.325588 
L 517.438739 395.842208 
L 519.399367 395.731957 
L 521.359995 396.378228 
L 523.320623 396.263647 
L 525.281251 395.715528 
L 527.241879 395.530916 
L 529.202507 396.064331 
L 535.08439 396.003131 
L 540.966274 396.374723 
L 542.926902 396.154382 
L 544.88753 395.724305 
L 546.848158 395.498446 
L 548.808786 394.710562 
L 550.769414 392.704205 
L 552.730041 390.503816 
L 554.690669 385.613645 
L 556.651297 373.338626 
L 558.611925 328.363959 
L 560.572553 286.962566 
L 562.533181 275.006681 
L 564.493809 274.226209 
L 566.454437 272.756864 
L 568.415065 271.673548 
L 570.375693 271.545856 
L 574.296949 272.238234 
L 576.257576 272.295801 
L 580.178832 274.025201 
L 584.100088 275.225106 
L 586.060716 275.228577 
L 588.021344 274.108939 
L 593.903228 274.19694 
L 595.863856 273.789028 
L 597.824484 274.139467 
L 599.785111 273.977682 
L 601.745739 274.443161 
L 605.666995 274.652142 
L 607.627623 274.539415 
L 609.588251 274.21753 
L 611.548879 273.471772 
L 613.509507 273.253186 
L 615.470135 272.898144 
L 623.312646 273.440495 
L 631.155158 273.70335 
L 633.115786 273.613954 
L 635.076414 273.276507 
L 637.037042 273.476945 
L 638.99767 273.248115 
L 640.958298 273.56093 
L 642.918926 273.487657 
L 644.879553 272.64886 
L 646.840181 272.331859 
L 648.800809 274.057473 
L 650.761437 281.838986 
L 652.722065 305.829483 
L 654.682693 353.852554 
L 656.643321 387.657705 
L 656.643321 387.657705 
" clip-path="url(#p9769339c90)" style="fill: none; stroke: #f28e2b; stroke-width: 3; stroke-linecap: round"/>
   </g>
   <g id="line2d_16">
    <path d="M 156.683203 401.477974 
L 262.55711 401.477974 
L 264.517738 230.183813 
L 344.903483 230.183813 
L 346.86411 401.477974 
L 656.643321 401.477974 
L 656.643321 401.477974 
" clip-path="url(#p9769339c90)" style="fill: none; stroke-dasharray: 11.1,4.8; stroke-dashoffset: 0; stroke: #e15759; stroke-width: 3"/>
   </g>
   <g id="line2d_17">
    <path d="M 156.683203 386.056599 
L 158.643831 389.126528 
L 160.604459 389.692228 
L 162.565087 390.487679 
L 164.525714 391.850529 
L 166.486342 391.637911 
L 168.44697 389.547473 
L 170.407598 391.699713 
L 172.368226 392.557191 
L 176.289482 391.789722 
L 178.25011 391.245376 
L 180.210738 391.135578 
L 182.171366 391.515392 
L 184.131994 391.593853 
L 186.092622 391.519256 
L 188.053249 391.572319 
L 190.013877 390.818537 
L 191.974505 391.20921 
L 193.935133 391.484692 
L 195.895761 391.499558 
L 197.856389 389.689092 
L 199.817017 390.48008 
L 201.777645 390.333658 
L 203.738273 392.258735 
L 205.698901 390.764059 
L 207.659529 391.03116 
L 209.620156 391.475147 
L 211.580784 392.12954 
L 213.541412 391.384106 
L 215.50204 392.111127 
L 217.462668 392.326872 
L 219.423296 392.41432 
L 223.344552 390.912041 
L 225.30518 390.875919 
L 227.265808 391.861185 
L 229.226436 391.272945 
L 231.187064 389.273311 
L 233.147691 390.83765 
L 235.108319 390.571307 
L 237.068947 390.800691 
L 239.029575 390.610669 
L 240.990203 389.772402 
L 242.950831 390.236631 
L 244.911459 390.333699 
L 246.872087 390.119262 
L 248.832715 390.257268 
L 250.793343 390.757204 
L 252.753971 390.605187 
L 254.714599 385.118824 
L 256.675226 363.969712 
L 258.635854 318.508699 
L 260.596482 292.831096 
L 262.55711 282.890634 
L 264.517738 278.075335 
L 266.478366 276.304789 
L 268.438994 275.867829 
L 270.399622 274.995501 
L 272.36025 274.438967 
L 274.320878 275.522504 
L 276.281506 278.460972 
L 278.242133 278.774757 
L 280.202761 278.205443 
L 284.124017 281.54648 
L 286.084645 280.635542 
L 288.045273 280.953717 
L 291.966529 280.684209 
L 293.927157 281.228977 
L 295.887785 281.526077 
L 297.848413 279.321746 
L 299.809041 275.812015 
L 301.769668 277.663381 
L 303.730296 281.809658 
L 305.690924 280.738382 
L 307.651552 279.920294 
L 309.61218 278.948003 
L 311.572808 277.234828 
L 313.533436 276.050527 
L 315.494064 277.425481 
L 317.454692 279.329173 
L 319.41532 280.415603 
L 323.336576 279.537864 
L 325.297203 277.94823 
L 327.257831 277.489872 
L 331.179087 279.258308 
L 333.139715 278.095142 
L 335.100343 278.335662 
L 337.060971 278.994926 
L 339.021599 280.17008 
L 340.982227 281.722244 
L 342.942855 282.995907 
L 344.903483 289.081705 
L 346.86411 333.735678 
L 348.824738 369.549441 
L 350.785366 382.63364 
L 352.745994 386.521868 
L 354.706622 389.443772 
L 356.66725 390.904883 
L 358.627878 390.572265 
L 360.588506 390.453294 
L 362.549134 386.835026 
L 364.509762 390.953252 
L 366.47039 389.683208 
L 368.431018 388.999923 
L 370.391645 389.559688 
L 374.312901 389.372624 
L 376.273529 389.734999 
L 378.234157 389.626339 
L 380.194785 389.391204 
L 384.116041 389.38942 
L 389.997925 389.561089 
L 391.958553 389.099708 
L 393.91918 388.884475 
L 395.879808 389.200395 
L 397.840436 389.217762 
L 399.801064 389.400345 
L 401.761692 389.199517 
L 403.72232 388.859958 
L 407.643576 389.228116 
L 409.604204 388.790087 
L 411.564832 388.664484 
L 413.52546 389.140851 
L 415.486087 389.093761 
L 417.446715 388.552549 
L 419.407343 389.10162 
L 421.367971 388.930408 
L 423.328599 388.291622 
L 425.289227 387.281873 
L 427.249855 388.461092 
L 429.210483 393.380077 
L 431.171111 392.46729 
L 433.131739 390.877779 
L 435.092367 387.580757 
L 437.052995 388.47443 
L 439.013622 388.261773 
L 440.97425 389.793613 
L 442.934878 389.084645 
L 444.895506 389.988693 
L 448.816762 390.291481 
L 450.77739 390.288217 
L 452.738018 390.112807 
L 454.698646 390.570106 
L 456.659274 389.988114 
L 458.619902 389.194094 
L 460.58053 387.040344 
L 462.541157 380.485233 
L 464.501785 387.154596 
L 466.462413 390.135127 
L 468.423041 390.292767 
L 474.304925 388.295412 
L 476.265553 388.849135 
L 482.147437 389.348536 
L 486.068692 389.392031 
L 488.02932 389.946019 
L 489.989948 389.964321 
L 491.950576 389.536728 
L 493.911204 389.594559 
L 495.871832 390.216128 
L 497.83246 390.24301 
L 499.793088 389.53115 
L 501.753716 390.17651 
L 503.714344 390.657585 
L 505.674972 390.441109 
L 507.635599 389.645354 
L 509.596227 390.216593 
L 511.556855 390.178208 
L 513.517483 390.612192 
L 517.438739 390.759451 
L 519.399367 390.308681 
L 521.359995 390.800301 
L 527.241879 390.416081 
L 529.202507 390.732174 
L 533.123762 390.090392 
L 535.08439 390.02181 
L 539.005646 390.214792 
L 540.966274 390.627796 
L 542.926902 390.723459 
L 544.88753 391.012605 
L 546.848158 391.131179 
L 548.808786 390.399525 
L 550.769414 389.460221 
L 552.730041 390.137582 
L 554.690669 390.33982 
L 556.651297 390.967419 
L 558.611925 392.627985 
L 560.572553 389.188407 
L 562.533181 388.308374 
L 564.493809 388.449402 
L 566.454437 389.733594 
L 568.415065 390.715648 
L 570.375693 390.871001 
L 574.296949 390.059147 
L 576.257576 390.079549 
L 580.178832 388.572669 
L 582.13946 388.127353 
L 584.100088 387.327485 
L 586.060716 387.316176 
L 588.021344 388.445213 
L 589.981972 388.34211 
L 591.9426 388.452626 
L 593.903228 388.211754 
L 595.863856 388.684634 
L 597.824484 388.292798 
L 599.785111 388.485365 
L 601.745739 387.956771 
L 603.706367 388.014853 
L 605.666995 387.885702 
L 609.588251 388.260141 
L 611.548879 389.089278 
L 613.509507 389.114589 
L 615.470135 389.495874 
L 621.352018 389.083028 
L 627.233902 388.997667 
L 631.155158 388.694577 
L 633.115786 388.740403 
L 635.076414 388.990856 
L 637.037042 388.757738 
L 638.99767 388.988658 
L 640.958298 388.85108 
L 642.918926 388.880013 
L 644.879553 389.848997 
L 646.840181 390.361429 
L 648.800809 390.351507 
L 650.761437 390.999929 
L 652.722065 392.135751 
L 654.682693 393.787326 
L 656.643321 393.813734 
L 656.643321 393.813734 
" clip-path="url(#p9769339c90)" style="fill: none; stroke: #e15759; stroke-width: 3; stroke-linecap: round"/>
   </g>
   <g id="line2d_18">
    <path d="M 156.683203 401.477974 
L 164.525714 401.477974 
L 166.486342 230.183813 
L 248.832715 230.183813 
L 250.793343 401.477974 
L 656.643321 401.477974 
L 656.643321 401.477974 
" clip-path="url(#p9769339c90)" style="fill: none; stroke-dasharray: 11.1,4.8; stroke-dashoffset: 0; stroke: #76b7b2; stroke-width: 3"/>
   </g>
   <g id="line2d_19">
    <path d="M 156.683203 388.816521 
L 158.643831 390.738988 
L 160.604459 390.15334 
L 162.565087 389.332933 
L 164.525714 373.348585 
L 166.486342 303.074793 
L 168.44697 280.869622 
L 170.407598 279.514773 
L 172.368226 275.998746 
L 174.328854 274.29784 
L 176.289482 274.741002 
L 178.25011 274.510845 
L 180.210738 274.951344 
L 182.171366 274.789959 
L 184.131994 274.230565 
L 186.092622 274.663313 
L 188.053249 274.88172 
L 190.013877 275.284527 
L 191.974505 275.927268 
L 193.935133 275.42608 
L 195.895761 274.706722 
L 199.817017 276.984438 
L 201.777645 277.140548 
L 203.738273 274.519421 
L 205.698901 275.584623 
L 207.659529 276.786859 
L 209.620156 276.847659 
L 211.580784 275.343762 
L 213.541412 275.425527 
L 215.50204 275.142346 
L 217.462668 274.737394 
L 219.423296 273.575335 
L 223.344552 275.008502 
L 225.30518 275.066605 
L 227.265808 274.14407 
L 229.226436 276.314224 
L 233.147691 283.416275 
L 235.108319 285.566946 
L 239.029575 305.387257 
L 240.990203 320.047079 
L 242.950831 339.198755 
L 244.911459 356.30263 
L 246.872087 370.154126 
L 248.832715 380.618402 
L 250.793343 385.590063 
L 252.753971 386.845271 
L 254.714599 387.693012 
L 256.675226 387.291027 
L 258.635854 386.638139 
L 260.596482 389.677956 
L 262.55711 391.377315 
L 264.517738 391.142392 
L 266.478366 391.179984 
L 270.399622 390.757183 
L 274.320878 391.058945 
L 276.281506 390.593509 
L 280.202761 390.62308 
L 282.163389 390.71821 
L 284.124017 389.25486 
L 286.084645 390.221586 
L 288.045273 389.934005 
L 291.966529 390.350062 
L 297.848413 390.525336 
L 299.809041 391.48465 
L 301.769668 391.247455 
L 303.730296 390.681909 
L 305.690924 390.40391 
L 307.651552 390.680175 
L 309.61218 390.471236 
L 311.572808 390.407569 
L 313.533436 391.353755 
L 315.494064 391.099305 
L 317.454692 391.185134 
L 319.41532 390.674274 
L 321.375948 390.54379 
L 323.336576 390.172443 
L 325.297203 390.671291 
L 327.257831 390.709438 
L 329.218459 391.035852 
L 331.179087 390.605311 
L 333.139715 390.667313 
L 335.100343 390.133004 
L 337.060971 390.027938 
L 339.021599 390.123038 
L 340.982227 389.838031 
L 342.942855 389.983891 
L 344.903483 389.207067 
L 346.86411 390.128837 
L 348.824738 390.408797 
L 350.785366 391.035049 
L 352.745994 390.597623 
L 354.706622 391.018326 
L 356.66725 390.983576 
L 358.627878 391.678298 
L 360.588506 390.904666 
L 362.549134 383.673575 
L 364.509762 390.017533 
L 366.47039 390.205669 
L 368.431018 390.797865 
L 372.352273 389.463395 
L 374.312901 389.868064 
L 376.273529 389.599033 
L 378.234157 389.629938 
L 380.194785 389.783296 
L 382.155413 389.747003 
L 384.116041 390.134157 
L 386.076669 390.067262 
L 388.037297 390.183907 
L 389.997925 390.011487 
L 391.958553 389.617865 
L 393.91918 389.549282 
L 397.840436 390.293292 
L 399.801064 389.822213 
L 401.761692 390.160067 
L 403.72232 390.031126 
L 405.682948 390.081749 
L 407.643576 389.578311 
L 411.564832 389.703847 
L 413.52546 389.82436 
L 415.486087 389.495659 
L 417.446715 390.048139 
L 421.367971 389.240778 
L 423.328599 389.276979 
L 425.289227 390.37091 
L 427.249855 388.502305 
L 429.210483 392.358152 
L 431.171111 390.932866 
L 433.131739 391.770369 
L 435.092367 389.888669 
L 437.052995 389.625394 
L 439.013622 389.602267 
L 440.97425 391.017975 
L 442.934878 390.51967 
L 444.895506 390.834868 
L 448.816762 390.877288 
L 450.77739 390.969761 
L 452.738018 390.727062 
L 454.698646 390.668883 
L 456.659274 390.387076 
L 460.58053 389.265455 
L 462.541157 390.559013 
L 464.501785 389.234653 
L 466.462413 390.307581 
L 470.383669 393.150101 
L 472.344297 391.979386 
L 474.304925 391.736516 
L 476.265553 391.937777 
L 478.226181 391.980516 
L 480.186809 392.153819 
L 482.147437 391.953303 
L 484.108064 391.488839 
L 486.068692 391.540661 
L 488.02932 393.161553 
L 489.989948 392.850136 
L 491.950576 392.737646 
L 493.911204 392.319132 
L 495.871832 392.98632 
L 497.83246 393.067036 
L 499.793088 391.416266 
L 501.753716 391.632437 
L 503.714344 393.369453 
L 505.674972 391.728055 
L 507.635599 391.424731 
L 509.596227 393.362619 
L 511.556855 392.230483 
L 513.517483 392.168982 
L 515.478111 392.756011 
L 517.438739 393.022717 
L 523.320623 392.799654 
L 525.281251 392.524696 
L 527.241879 392.515284 
L 529.202507 392.217451 
L 531.163134 392.370357 
L 533.123762 391.343235 
L 535.08439 391.970935 
L 537.045018 391.511342 
L 539.005646 391.664075 
L 540.966274 392.495246 
L 542.926902 392.776483 
L 544.88753 393.171815 
L 546.848158 393.407998 
L 548.808786 392.905991 
L 550.769414 392.182997 
L 552.730041 393.351067 
L 554.690669 395.128118 
L 556.651297 395.686725 
L 558.611925 395.386338 
L 560.572553 392.618705 
L 562.533181 390.52978 
L 564.493809 391.030783 
L 566.454437 391.255896 
L 568.415065 392.027689 
L 570.375693 392.098943 
L 572.336321 391.887616 
L 574.296949 391.884034 
L 576.257576 391.724867 
L 580.178832 390.407949 
L 582.13946 389.905392 
L 584.100088 389.720675 
L 586.060716 389.810258 
L 588.021344 390.378382 
L 589.981972 390.507552 
L 593.903228 390.598218 
L 595.863856 390.689611 
L 601.745739 390.438045 
L 603.706367 390.127709 
L 607.627623 390.094911 
L 609.588251 390.521339 
L 611.548879 390.776186 
L 613.509507 391.206751 
L 615.470135 391.344873 
L 617.430763 391.29103 
L 619.391391 391.001092 
L 621.352018 391.005419 
L 623.312646 390.870621 
L 631.155158 390.908459 
L 633.115786 391.056777 
L 635.076414 391.352407 
L 637.037042 391.27725 
L 638.99767 391.396491 
L 640.958298 390.952241 
L 642.918926 391.000714 
L 644.879553 391.295873 
L 648.800809 390.924634 
L 650.761437 389.870344 
L 652.722065 387.200366 
L 654.682693 389.046619 
L 656.643321 395.178034 
L 656.643321 395.178034 
" clip-path="url(#p9769339c90)" style="fill: none; stroke: #76b7b2; stroke-width: 3; stroke-linecap: round"/>
   </g>
   <g id="line2d_20">
    <path d="M 156.683203 401.477974 
L 656.643321 401.477974 
L 656.643321 401.477974 
" clip-path="url(#p9769339c90)" style="fill: none; stroke-dasharray: 11.1,4.8; stroke-dashoffset: 0; stroke: #59a14f; stroke-width: 3"/>
   </g>
   <g id="line2d_21">
    <path d="M 156.683203 393.254559 
L 158.643831 386.136816 
L 160.604459 384.793061 
L 162.565087 388.978586 
L 164.525714 388.915424 
L 166.486342 387.517316 
L 168.44697 383.232286 
L 170.407598 383.784837 
L 172.368226 385.771378 
L 174.328854 386.853867 
L 176.289482 385.963812 
L 178.25011 385.788111 
L 180.210738 385.475149 
L 182.171366 385.713325 
L 184.131994 386.305534 
L 188.053249 386.241292 
L 190.013877 385.861779 
L 191.974505 385.313181 
L 193.935133 385.991611 
L 195.895761 386.259759 
L 197.856389 384.56604 
L 199.817017 384.537236 
L 201.777645 385.388569 
L 203.738273 386.091325 
L 205.698901 384.494238 
L 207.659529 384.963978 
L 209.620156 385.834985 
L 211.580784 386.438364 
L 213.541412 385.803465 
L 217.462668 385.87058 
L 219.423296 386.284429 
L 221.383924 386.037823 
L 223.344552 385.544364 
L 225.30518 385.386556 
L 227.265808 384.635565 
L 229.226436 384.574625 
L 231.187064 384.084003 
L 233.147691 384.775131 
L 235.108319 385.157108 
L 237.068947 385.365306 
L 239.029575 388.410181 
L 242.950831 389.912908 
L 244.911459 389.649505 
L 246.872087 388.79749 
L 248.832715 388.107493 
L 250.793343 387.897661 
L 252.753971 387.874368 
L 254.714599 387.274 
L 256.675226 387.281584 
L 258.635854 388.933628 
L 260.596482 392.017273 
L 262.55711 393.558068 
L 264.517738 393.431462 
L 266.478366 393.505305 
L 268.438994 393.732892 
L 274.320878 393.350482 
L 276.281506 393.158791 
L 278.242133 393.209874 
L 280.202761 392.441528 
L 282.163389 392.885138 
L 284.124017 391.861651 
L 286.084645 392.260045 
L 288.045273 391.770284 
L 290.005901 392.237469 
L 291.966529 392.419997 
L 293.927157 392.388666 
L 299.809041 393.418902 
L 301.769668 393.390108 
L 303.730296 393.789482 
L 305.690924 393.131696 
L 307.651552 392.86676 
L 311.572808 392.727932 
L 313.533436 393.314442 
L 315.494064 393.144394 
L 317.454692 393.509754 
L 319.41532 393.101473 
L 323.336576 392.532955 
L 325.297203 392.770255 
L 327.257831 392.605694 
L 329.218459 393.021833 
L 333.139715 392.718063 
L 335.100343 392.298744 
L 337.060971 392.150465 
L 342.942855 392.837439 
L 344.903483 392.145001 
L 346.86411 389.541375 
L 348.824738 384.396105 
L 350.785366 382.10708 
L 352.745994 383.094418 
L 354.706622 385.184522 
L 356.66725 385.044372 
L 360.588506 388.118205 
L 362.549134 384.619293 
L 364.509762 389.920021 
L 366.47039 389.856784 
L 368.431018 389.94033 
L 372.352273 389.051153 
L 374.312901 387.352292 
L 378.234157 388.324394 
L 382.155413 388.64415 
L 384.116041 389.15583 
L 386.076669 388.894837 
L 388.037297 388.862691 
L 389.997925 388.434917 
L 391.958553 388.136187 
L 393.91918 388.398898 
L 397.840436 389.601129 
L 399.801064 389.210243 
L 401.761692 389.130591 
L 403.72232 388.713009 
L 405.682948 389.109142 
L 407.643576 388.43582 
L 409.604204 388.616195 
L 411.564832 388.323842 
L 413.52546 388.749815 
L 415.486087 388.139834 
L 417.446715 388.473916 
L 419.407343 388.479963 
L 421.367971 389.005186 
L 423.328599 388.71186 
L 425.289227 388.30178 
L 427.249855 383.600865 
L 429.210483 381.724606 
L 431.171111 381.93335 
L 433.131739 388.584637 
L 435.092367 388.851613 
L 437.052995 386.584037 
L 439.013622 384.567739 
L 440.97425 385.040853 
L 442.934878 385.001885 
L 444.895506 385.508254 
L 446.856134 385.407522 
L 450.77739 386.574368 
L 452.738018 387.599803 
L 454.698646 387.596108 
L 456.659274 386.608013 
L 458.619902 385.962515 
L 460.58053 384.921645 
L 462.541157 381.024079 
L 464.501785 384.468795 
L 466.462413 384.615016 
L 468.423041 383.181432 
L 470.383669 384.329683 
L 472.344297 383.488575 
L 474.304925 383.982395 
L 476.265553 384.158395 
L 478.226181 384.881617 
L 480.186809 384.81808 
L 482.147437 384.629192 
L 484.108064 384.119773 
L 486.068692 384.941095 
L 488.02932 384.669387 
L 489.989948 384.584248 
L 491.950576 384.308763 
L 493.911204 384.263865 
L 495.871832 385.622153 
L 497.83246 384.673346 
L 499.793088 384.540212 
L 501.753716 385.19404 
L 503.714344 385.124055 
L 505.674972 385.332961 
L 507.635599 384.753528 
L 511.556855 384.850481 
L 513.517483 385.360095 
L 515.478111 384.385809 
L 517.438739 384.315106 
L 519.399367 384.738928 
L 521.359995 385.514147 
L 523.320623 384.657453 
L 525.281251 384.898896 
L 527.241879 384.065293 
L 529.202507 385.384775 
L 531.163134 385.110416 
L 533.123762 384.657483 
L 535.08439 385.51985 
L 537.045018 385.289958 
L 539.005646 385.90382 
L 540.966274 385.96481 
L 542.926902 385.107042 
L 544.88753 384.416548 
L 548.808786 383.522674 
L 550.769414 382.440702 
L 552.730041 382.844596 
L 554.690669 380.003605 
L 556.651297 381.192426 
L 558.611925 383.925198 
L 560.572553 384.2805 
L 562.533181 385.036888 
L 564.493809 384.908251 
L 566.454437 386.418937 
L 570.375693 388.131185 
L 572.336321 387.860449 
L 574.296949 387.102455 
L 576.257576 387.070773 
L 578.218204 386.790035 
L 582.13946 385.427464 
L 584.100088 384.327492 
L 586.060716 385.419205 
L 589.981972 385.185869 
L 591.9426 385.349665 
L 593.903228 385.728218 
L 595.863856 385.478446 
L 597.824484 385.532719 
L 599.785111 384.930294 
L 601.745739 385.103762 
L 603.706367 385.430066 
L 605.666995 385.559635 
L 607.627623 385.53236 
L 609.588251 386.346297 
L 613.509507 386.446187 
L 615.470135 386.425141 
L 617.430763 386.673551 
L 621.352018 386.461277 
L 623.312646 386.539161 
L 625.273274 386.759535 
L 627.233902 386.723963 
L 629.19453 386.400427 
L 631.155158 386.213225 
L 633.115786 386.66426 
L 637.037042 386.093105 
L 640.958298 386.106285 
L 642.918926 385.204888 
L 644.879553 386.392414 
L 646.840181 386.808036 
L 648.800809 386.840018 
L 652.722065 387.778381 
L 654.682693 389.224528 
L 656.643321 390.2642 
L 656.643321 390.2642 
" clip-path="url(#p9769339c90)" style="fill: none; stroke: #59a14f; stroke-width: 3; stroke-linecap: round"/>
   </g>
   <g id="line2d_22">
    <path d="M 156.683203 401.477974 
L 458.619902 401.477974 
L 460.58053 230.183813 
L 552.730041 230.183813 
L 554.690669 401.477974 
L 656.643321 401.477974 
L 656.643321 401.477974 
" clip-path="url(#p9769339c90)" style="fill: none; stroke-dasharray: 11.1,4.8; stroke-dashoffset: 0; stroke: #edc948; stroke-width: 3"/>
   </g>
   <g id="line2d_23">
    <path d="M 156.683203 390.972762 
L 158.643831 389.818823 
L 160.604459 391.39699 
L 162.565087 393.42065 
L 164.525714 391.947852 
L 166.486342 389.268719 
L 168.44697 387.257709 
L 170.407598 389.473596 
L 172.368226 390.031091 
L 174.328854 390.373465 
L 176.289482 390.057707 
L 178.25011 389.385087 
L 180.210738 389.288837 
L 188.053249 389.920466 
L 190.013877 389.418997 
L 191.974505 389.323146 
L 193.935133 389.385294 
L 195.895761 389.646487 
L 197.856389 387.946857 
L 199.817017 388.380769 
L 201.777645 388.409411 
L 203.738273 389.640843 
L 205.698901 388.266301 
L 207.659529 389.09546 
L 209.620156 389.746297 
L 211.580784 390.228084 
L 213.541412 389.551557 
L 215.50204 389.946784 
L 219.423296 390.034647 
L 221.383924 389.85615 
L 223.344552 389.342046 
L 225.30518 389.066617 
L 227.265808 388.989726 
L 229.226436 389.111746 
L 231.187064 388.374224 
L 233.147691 390.088829 
L 237.068947 391.315126 
L 242.950831 392.84309 
L 244.911459 392.47854 
L 246.872087 391.909502 
L 248.832715 391.001585 
L 250.793343 391.339634 
L 252.753971 392.142127 
L 256.675226 389.650591 
L 258.635854 386.850606 
L 260.596482 386.380231 
L 262.55711 386.980792 
L 264.517738 385.898881 
L 266.478366 386.898554 
L 268.438994 387.536128 
L 270.399622 386.968282 
L 272.36025 386.651825 
L 274.320878 387.305786 
L 276.281506 388.215092 
L 278.242133 387.173965 
L 280.202761 385.774287 
L 282.163389 386.849 
L 284.124017 386.333215 
L 286.084645 385.617625 
L 288.045273 385.485497 
L 290.005901 386.239293 
L 291.966529 386.458823 
L 295.887785 387.128679 
L 297.848413 386.756015 
L 299.809041 386.175695 
L 301.769668 387.521664 
L 303.730296 389.138888 
L 305.690924 386.650928 
L 307.651552 386.08576 
L 309.61218 386.480105 
L 311.572808 386.297978 
L 313.533436 386.666235 
L 315.494064 387.282469 
L 317.454692 388.110659 
L 319.41532 387.375016 
L 321.375948 386.382327 
L 325.297203 385.796549 
L 327.257831 385.750396 
L 329.218459 386.670729 
L 331.179087 386.84376 
L 333.139715 386.013573 
L 339.021599 386.157087 
L 340.982227 386.787541 
L 342.942855 386.741127 
L 344.903483 385.586379 
L 346.86411 388.869814 
L 348.824738 390.550658 
L 350.785366 390.132685 
L 352.745994 389.288879 
L 354.706622 392.219884 
L 360.588506 391.276146 
L 362.549134 383.981446 
L 364.509762 391.500392 
L 366.47039 391.063701 
L 368.431018 390.9722 
L 370.391645 391.284012 
L 374.312901 389.963553 
L 376.273529 390.430662 
L 378.234157 390.554622 
L 380.194785 390.31709 
L 389.997925 390.81029 
L 391.958553 390.382651 
L 393.91918 390.090744 
L 395.879808 390.610515 
L 397.840436 390.899769 
L 401.761692 390.730015 
L 403.72232 390.491123 
L 407.643576 390.762063 
L 409.604204 390.279838 
L 411.564832 390.105276 
L 413.52546 390.506488 
L 415.486087 390.450127 
L 417.446715 390.089999 
L 419.407343 390.641698 
L 421.367971 390.495462 
L 423.328599 389.806497 
L 425.289227 391.287046 
L 427.249855 392.564137 
L 429.210483 393.376736 
L 431.171111 390.219822 
L 433.131739 390.183084 
L 435.092367 388.376491 
L 437.052995 389.572971 
L 439.013622 389.753156 
L 440.97425 390.364338 
L 442.934878 390.054974 
L 444.895506 390.735405 
L 452.738018 390.419469 
L 454.698646 391.607476 
L 456.659274 391.181155 
L 458.619902 381.998708 
L 460.58053 347.407541 
L 462.541157 287.945561 
L 464.501785 279.811295 
L 466.462413 277.506301 
L 468.423041 277.369922 
L 470.383669 277.931315 
L 472.344297 278.959183 
L 474.304925 280.556755 
L 476.265553 279.723949 
L 478.226181 279.086339 
L 480.186809 278.240123 
L 482.147437 278.591804 
L 486.068692 278.515561 
L 488.02932 277.262369 
L 489.989948 277.747715 
L 491.950576 278.436434 
L 493.911204 278.616929 
L 495.871832 277.284295 
L 497.83246 276.66103 
L 499.793088 278.120803 
L 501.753716 277.843978 
L 503.714344 276.077745 
L 505.674972 276.662408 
L 507.635599 278.03578 
L 509.596227 276.768966 
L 511.556855 276.526276 
L 513.517483 278.519849 
L 515.478111 278.051163 
L 517.438739 277.117728 
L 519.399367 276.961848 
L 521.359995 276.561755 
L 523.320623 276.477626 
L 525.281251 277.54937 
L 527.241879 277.394571 
L 531.163134 276.67118 
L 533.123762 277.192125 
L 535.08439 276.865977 
L 537.045018 276.855623 
L 539.005646 276.509259 
L 540.966274 275.902449 
L 542.926902 276.013091 
L 544.88753 276.959313 
L 546.848158 277.346533 
L 548.808786 279.821445 
L 550.769414 284.015062 
L 552.730041 295.813255 
L 554.690669 309.019651 
L 556.651297 336.871832 
L 558.611925 369.667494 
L 560.572553 378.131589 
L 562.533181 385.286259 
L 564.493809 386.280201 
L 566.454437 387.822414 
L 568.415065 388.891403 
L 570.375693 389.164102 
L 572.336321 388.76668 
L 574.296949 388.161482 
L 576.257576 388.209408 
L 580.178832 386.667391 
L 582.13946 386.172638 
L 584.100088 385.175495 
L 586.060716 385.312776 
L 588.021344 386.413283 
L 589.981972 386.258929 
L 591.9426 386.402537 
L 593.903228 386.180213 
L 595.863856 386.641936 
L 597.824484 386.24317 
L 599.785111 386.366791 
L 601.745739 385.839246 
L 603.706367 386.010216 
L 605.666995 385.887958 
L 609.588251 386.34222 
L 611.548879 387.207901 
L 613.509507 387.156874 
L 615.470135 387.54558 
L 621.352018 387.162716 
L 625.273274 387.116168 
L 627.233902 387.134999 
L 631.155158 386.720152 
L 635.076414 386.987876 
L 637.037042 386.699523 
L 638.99767 386.935456 
L 642.918926 386.758039 
L 644.879553 387.938212 
L 646.840181 388.586817 
L 648.800809 388.805794 
L 650.761437 390.376458 
L 652.722065 392.82691 
L 654.682693 392.733282 
L 656.643321 391.39585 
L 656.643321 391.39585 
" clip-path="url(#p9769339c90)" style="fill: none; stroke: #edc948; stroke-width: 3; stroke-linecap: round"/>
   </g>
   <g id="line2d_24">
    <path d="M 154.722575 406.263238 
L 156.683203 396.062951 
L 158.643831 384.227591 
L 160.604459 405.545353 
L 162.565087 416.159031 
L 164.525714 333.476993 
L 166.486342 270.008282 
L 168.44697 327.272806 
L 170.407598 355.030723 
L 172.368226 272.061069 
L 174.328854 294.90767 
L 176.289482 313.840143 
L 178.25011 315.010422 
L 180.210738 350.535678 
L 182.171366 346.369265 
L 184.131994 331.303889 
L 186.092622 331.36733 
L 188.053249 314.696757 
L 190.013877 318.285379 
L 191.974505 368.174642 
L 193.935133 321.024856 
L 195.895761 345.430639 
L 197.856389 330.890074 
L 199.817017 391.054397 
L 201.777645 295.411136 
L 203.738273 357.036915 
L 205.698901 356.906455 
L 207.659529 382.076996 
L 209.620156 336.346671 
L 211.580784 332.292233 
L 213.541412 338.739443 
L 215.50204 392.005183 
L 217.462668 355.546636 
L 219.423296 408.129719 
L 221.383924 393.221061 
L 223.344552 367.111279 
L 225.30518 313.436302 
L 227.265808 414.516461 
L 229.226436 440.952235 
L 231.187064 354.535771 
L 233.147691 387.260327 
L 235.108319 377.186659 
L 237.068947 377.779178 
L 239.029575 391.550868 
L 240.990203 406.279912 
L 242.950831 383.738127 
L 244.911459 373.546232 
L 246.872087 371.142626 
L 250.793343 392.759356 
L 252.753971 368.985369 
L 254.714599 369.031445 
L 256.675226 335.431637 
L 258.635854 369.400315 
L 260.596482 412.185806 
L 262.55711 397.365093 
L 264.517738 397.40317 
L 266.478366 362.602813 
L 268.438994 396.2384 
L 270.399622 369.150659 
L 272.36025 354.303949 
L 274.320878 408.796362 
L 276.281506 405.102128 
L 278.242133 420.592484 
L 280.202761 337.534579 
L 282.163389 412.507739 
L 284.124017 432.658565 
L 286.084645 381.366243 
L 288.045273 378.75738 
L 290.005901 393.751961 
L 291.966529 386.906818 
L 293.927157 349.760218 
L 295.887785 335.673711 
L 297.848413 310.964675 
L 299.809041 289.504464 
L 301.769668 393.763092 
L 303.730296 364.192066 
L 305.690924 360.668459 
L 307.651552 312.052246 
L 309.61218 303.362044 
L 311.572808 325.726846 
L 313.533436 300.567014 
L 315.494064 349.648652 
L 317.454692 359.936398 
L 319.41532 340.692737 
L 321.375948 305.805794 
L 323.336576 312.987812 
L 325.297203 293.1937 
L 329.218459 358.294314 
L 331.179087 337.215152 
L 333.139715 293.196086 
L 337.060971 319.967553 
L 339.021599 328.590486 
L 340.982227 327.061581 
L 342.942855 300.672688 
L 344.903483 409.185231 
L 346.86411 407.2542 
L 348.824738 429.139862 
L 350.785366 460.027746 
L 352.745994 350.920318 
L 354.706622 401.72987 
L 356.66725 411.15967 
L 358.627878 431.022906 
L 360.588506 229.601494 
L 362.549134 203.671201 
L 364.509762 181.69668 
L 366.47039 158.288353 
L 368.431018 169.547171 
L 370.391645 268.099718 
L 372.352273 216.357761 
L 374.312901 174.673979 
L 376.273529 190.989916 
L 378.234157 172.411743 
L 380.194785 178.103374 
L 382.155413 160.315546 
L 384.116041 183.691114 
L 386.076669 183.105532 
L 388.037297 193.315223 
L 389.997925 222.191653 
L 391.958553 188.257731 
L 393.91918 152.323643 
L 395.879808 142.400131 
L 397.840436 182.121422 
L 399.801064 177.767787 
L 401.761692 216.033941 
L 403.72232 160.611114 
L 405.682948 188.154295 
L 407.643576 186.4988 
L 409.604204 191.965356 
L 411.564832 165.620401 
L 413.52546 195.572271 
L 415.486087 170.514843 
L 417.446715 154.868065 
L 419.407343 233.445269 
L 421.367971 220.717017 
L 423.328599 181.739601 
L 425.289227 163.438681 
L 427.249855 345.489706 
L 431.171111 455.392505 
L 433.131739 459.717166 
L 435.092367 374.372597 
L 437.052995 421.317655 
L 439.013622 392.658272 
L 440.97425 414.309485 
L 442.934878 387.212783 
L 444.895506 403.93232 
L 446.856134 435.836944 
L 448.816762 416.263647 
L 450.77739 442.797278 
L 452.738018 347.285837 
L 454.698646 402.586207 
L 456.659274 393.270636 
L 458.619902 415.211778 
L 460.58053 446.013013 
L 462.541157 339.706734 
L 464.501785 397.355101 
L 466.462413 352.927765 
L 468.423041 371.126592 
L 470.383669 344.486284 
L 472.344297 301.502678 
L 474.304925 346.478255 
L 476.265553 327.942285 
L 478.226181 344.668814 
L 480.186809 342.869791 
L 482.147437 335.631214 
L 484.108064 313.753253 
L 486.068692 337.117214 
L 488.02932 293.3458 
L 489.989948 254.050907 
L 491.950576 322.077073 
L 493.911204 326.38786 
L 495.871832 299.255528 
L 497.83246 263.622086 
L 499.793088 286.058575 
L 501.753716 299.451236 
L 503.714344 225.424296 
L 505.674972 238.926816 
L 507.635599 307.989991 
L 509.596227 252.318944 
L 511.556855 246.974431 
L 513.517483 267.574117 
L 515.478111 285.28046 
L 517.438739 309.320036 
L 519.399367 353.697163 
L 521.359995 323.760691 
L 523.320623 270.855576 
L 525.281251 308.005077 
L 527.241879 342.711997 
L 529.202507 368.713617 
L 531.163134 343.031501 
L 533.123762 360.283704 
L 535.08439 360.041138 
L 537.045018 358.361911 
L 539.005646 372.314157 
L 540.966274 388.093079 
L 542.926902 409.605021 
L 544.88753 377.485539 
L 546.848158 363.127806 
L 548.808786 360.140509 
L 550.769414 385.467212 
L 552.730041 389.768396 
L 554.690669 446.823415 
L 556.651297 446.430375 
L 558.611925 449.570627 
L 560.572553 348.483394 
L 562.533181 386.51779 
L 564.493809 327.481666 
L 566.454437 334.197906 
L 568.415065 347.941046 
L 570.375693 327.604638 
L 572.336321 284.897237 
L 574.296949 284.759113 
L 576.257576 248.271043 
L 578.218204 295.431526 
L 580.178832 338.893201 
L 582.13946 250.757793 
L 584.100088 290.449568 
L 586.060716 224.395627 
L 588.021344 259.771107 
L 589.981972 272.453595 
L 591.9426 284.198989 
L 593.903228 196.565544 
L 595.863856 226.311233 
L 597.824484 211.509398 
L 599.785111 227.158734 
L 601.745739 231.262237 
L 603.706367 257.402668 
L 605.666995 238.765972 
L 607.627623 262.58585 
L 609.588251 225.775596 
L 611.548879 231.845628 
L 613.509507 203.504752 
L 615.470135 223.498015 
L 617.430763 234.139321 
L 619.391391 270.234058 
L 621.352018 273.069191 
L 623.312646 278.438345 
L 625.273274 300.786509 
L 627.233902 308.451865 
L 629.19453 286.909833 
L 631.155158 319.987102 
L 633.115786 283.651385 
L 635.076414 324.424934 
L 637.037042 296.597372 
L 638.99767 370.010003 
L 640.958298 311.314379 
L 642.918926 341.661346 
L 644.879553 347.756037 
L 646.840181 346.494849 
L 648.800809 402.749733 
L 650.761437 382.933294 
L 652.722065 413.864822 
L 654.682693 406.312613 
L 654.682693 406.312613 
" clip-path="url(#p9769339c90)" style="fill: none; stroke: #808080; stroke-width: 2; stroke-linecap: round"/>
   </g>
   <g id="patch_3">
    <path d="M 129.626538 475.909127 
L 129.626538 126.51875 
" style="fill: none; stroke: #ffffff; stroke-width: 1.25; stroke-linejoin: miter; stroke-linecap: square"/>
   </g>
   <g id="patch_4">
    <path d="M 681.739358 475.909127 
L 681.739358 126.51875 
" style="fill: none; stroke: #ffffff; stroke-width: 1.25; stroke-linejoin: miter; stroke-linecap: square"/>
   </g>
   <g id="patch_5">
    <path d="M 129.626538 475.909127 
L 681.739358 475.909127 
" style="fill: none; stroke: #ffffff; stroke-width: 1.25; stroke-linejoin: miter; stroke-linecap: square"/>
   </g>
   <g id="patch_6">
    <path d="M 129.626538 126.51875 
L 681.739358 126.51875 
" style="fill: none; stroke: #ffffff; stroke-width: 1.25; stroke-linejoin: miter; stroke-linecap: square"/>
   </g>
   <g id="text_14">
    <!-- Predicted (solid) vs GT (dotted) Shape Type -->
    <g style="fill: #262626" transform="translate(133.566346 119.071777) scale(0.3 -0.3)">
     <defs>
      <path id="CMR17-50" d="M 1267 2048 
L 2291 2048 
C 3117 2048 3718 2583 3718 3187 
C 3718 3791 3130 4352 2291 4352 
L 333 4352 
L 333 4185 
C 774 4185 845 4185 845 3899 
L 845 453 
C 845 166 774 166 333 166 
L 333 0 
C 518 12 858 12 1056 12 
C 1254 12 1594 12 1779 0 
L 1779 166 
C 1338 166 1267 166 1267 453 
L 1267 2048 
z
M 1254 2182 
L 1254 3937 
C 1254 4153 1267 4185 1523 4185 
L 2170 4185 
C 2995 4185 3232 3715 3232 3187 
C 3232 2608 2950 2182 2170 2182 
L 1254 2182 
z
" transform="scale(0.015625)"/>
      <path id="CMR17-73" d="M 1978 2688 
C 1978 2803 1971 2809 1933 2809 
C 1907 2809 1901 2803 1824 2707 
C 1805 2681 1747 2617 1728 2592 
C 1523 2809 1235 2816 1126 2816 
C 416 2816 160 2444 160 2073 
C 160 1497 813 1363 998 1324 
C 1402 1241 1542 1216 1677 1100 
C 1760 1024 1901 883 1901 652 
C 1901 384 1747 38 1158 38 
C 602 38 403 460 288 1024 
C 269 1113 269 1120 218 1120 
C 166 1120 160 1113 160 985 
L 160 64 
C 160 -52 166 -58 205 -58 
C 237 -58 243 -52 275 0 
C 314 57 410 211 448 275 
C 576 102 800 -64 1158 -64 
C 1792 -64 2131 281 2131 780 
C 2131 1107 1958 1280 1875 1356 
C 1683 1555 1459 1600 1190 1651 
C 838 1728 390 1817 390 2208 
C 390 2374 480 2726 1126 2726 
C 1811 2726 1850 2086 1862 1881 
C 1869 1849 1901 1843 1920 1843 
C 1978 1843 1978 1862 1978 1971 
L 1978 2688 
z
" transform="scale(0.015625)"/>
      <path id="CMR17-76" d="M 2502 2173 
C 2560 2315 2662 2572 3034 2585 
L 3034 2752 
C 2912 2745 2752 2739 2630 2739 
C 2496 2739 2285 2739 2157 2752 
L 2157 2585 
C 2317 2572 2406 2495 2406 2328 
C 2406 2270 2406 2257 2368 2167 
L 1664 379 
L 902 2308 
C 864 2392 864 2405 864 2431 
C 864 2585 1075 2585 1171 2585 
L 1171 2752 
C 1018 2739 736 2739 576 2739 
C 403 2739 205 2739 64 2752 
L 64 2585 
C 307 2585 442 2585 518 2386 
L 1446 44 
C 1485 -52 1491 -64 1549 -64 
C 1606 -64 1613 -52 1651 44 
L 2502 2173 
z
" transform="scale(0.015625)"/>
      <path id="CMR17-47" d="M 3974 1258 
C 3974 1503 3994 1536 4390 1536 
L 4390 1702 
C 4237 1689 3891 1689 3718 1689 
C 3539 1689 3040 1696 2797 1702 
L 2797 1536 
L 2989 1536 
C 3539 1536 3552 1464 3552 1232 
L 3552 806 
C 3552 96 2720 38 2522 38 
C 1862 38 781 496 781 2179 
C 781 3862 1843 4313 2464 4313 
C 3187 4313 3712 3681 3834 2785 
C 3846 2708 3846 2695 3904 2695 
C 3974 2695 3974 2708 3974 2824 
L 3974 4351 
C 3974 4467 3968 4473 3930 4473 
C 3904 4473 3898 4467 3853 4390 
L 3571 3849 
C 3258 4249 2874 4480 2381 4480 
C 1286 4480 294 3507 294 2179 
C 294 858 1267 -128 2394 -128 
C 2912 -128 3418 57 3616 425 
C 3725 161 3904 -20 3936 -20 
C 3968 -20 3974 -13 3974 102 
L 3974 1258 
z
" transform="scale(0.015625)"/>
      <path id="CMR17-79" d="M 2496 2183 
C 2656 2579 2944 2585 3034 2585 
L 3034 2752 
C 2912 2745 2752 2739 2630 2739 
C 2496 2739 2285 2739 2157 2752 
L 2157 2585 
C 2400 2566 2406 2384 2406 2332 
C 2406 2268 2394 2235 2362 2158 
L 1664 409 
L 902 2300 
C 870 2378 870 2423 870 2430 
C 870 2572 1018 2585 1171 2585 
L 1171 2752 
C 1018 2739 742 2739 582 2739 
C 410 2739 205 2739 64 2752 
L 64 2585 
C 410 2585 448 2553 531 2345 
L 1485 -31 
C 1197 -795 1030 -1242 627 -1242 
C 557 -1242 397 -1223 282 -1106 
C 429 -1093 493 -1002 493 -892 
C 493 -782 416 -685 288 -685 
C 147 -685 77 -782 77 -899 
C 77 -1158 339 -1344 627 -1344 
C 998 -1344 1229 -983 1357 -659 
L 2496 2183 
z
" transform="scale(0.015625)"/>
     </defs>
     <use xlink:href="#CMR17-50" transform="scale(0.996264)"/>
     <use xlink:href="#CMR17-72" transform="translate(62.586301 0) scale(0.996264)"/>
     <use xlink:href="#CMR17-65" transform="translate(97.867068 0) scale(0.996264)"/>
     <use xlink:href="#CMR17-64" transform="translate(138.352729 0) scale(0.996264)"/>
     <use xlink:href="#CMR17-69" transform="translate(189.248099 0) scale(0.996264)"/>
     <use xlink:href="#CMR17-63" transform="translate(214.119157 0) scale(0.996264)"/>
     <use xlink:href="#CMR17-74" transform="translate(254.604818 0) scale(0.996264)"/>
     <use xlink:href="#CMR17-65" transform="translate(289.885585 0) scale(0.996264)"/>
     <use xlink:href="#CMR17-64" transform="translate(330.371246 0) scale(0.996264)"/>
     <use xlink:href="#CMR17-28" transform="translate(411.342582 0) scale(0.996264)"/>
     <use xlink:href="#CMR17-73" transform="translate(446.62335 0) scale(0.996264)"/>
     <use xlink:href="#CMR17-6f" transform="translate(482.424687 0) scale(0.996264)"/>
     <use xlink:href="#CMR17-6c" transform="translate(528.115164 0) scale(0.996264)"/>
     <use xlink:href="#CMR17-69" transform="translate(552.986223 0) scale(0.996264)"/>
     <use xlink:href="#CMR17-64" transform="translate(577.857281 0) scale(0.996264)"/>
     <use xlink:href="#CMR17-29" transform="translate(628.752651 0) scale(0.996264)"/>
     <use xlink:href="#CMR17-76" transform="translate(694.109385 0) scale(0.996264)"/>
     <use xlink:href="#CMR17-73" transform="translate(742.402301 0) scale(0.996264)"/>
     <use xlink:href="#CMR17-47" transform="translate(808.279605 0) scale(0.996264)"/>
     <use xlink:href="#CMR17-54" transform="translate(880.634951 0) scale(0.996264)"/>
     <use xlink:href="#CMR17-28" transform="translate(977.220798 0) scale(0.996264)"/>
     <use xlink:href="#CMR17-64" transform="translate(1012.501566 0) scale(0.996264)"/>
     <use xlink:href="#CMR17-6f" transform="translate(1063.396936 0) scale(0.996264)"/>
     <use xlink:href="#CMR17-74" transform="translate(1109.087413 0) scale(0.996264)"/>
     <use xlink:href="#CMR17-74" transform="translate(1144.36818 0) scale(0.996264)"/>
     <use xlink:href="#CMR17-65" transform="translate(1179.648948 0) scale(0.996264)"/>
     <use xlink:href="#CMR17-64" transform="translate(1220.134609 0) scale(0.996264)"/>
     <use xlink:href="#CMR17-29" transform="translate(1271.029979 0) scale(0.996264)"/>
     <use xlink:href="#CMR17-53" transform="translate(1336.386713 0) scale(0.996264)"/>
     <use xlink:href="#CMR17-68" transform="translate(1387.282082 0) scale(0.996264)"/>
     <use xlink:href="#CMR17-61" transform="translate(1438.177452 0) scale(0.996264)"/>
     <use xlink:href="#CMR17-70" transform="translate(1483.867929 0) scale(0.996264)"/>
     <use xlink:href="#CMR17-65" transform="translate(1537.365738 0) scale(0.996264)"/>
     <use xlink:href="#CMR17-54" transform="translate(1607.927365 0) scale(0.996264)"/>
     <use xlink:href="#CMR17-79" transform="translate(1671.834791 0) scale(0.996264)"/>
     <use xlink:href="#CMR17-70" transform="translate(1720.127707 0) scale(0.996264)"/>
     <use xlink:href="#CMR17-65" transform="translate(1773.625516 0) scale(0.996264)"/>
    </g>
   </g>
   <g id="legend_1">
    <g id="patch_7">
     <path d="M 659.549999 439.490439 
L 814.351282 439.490439 
Q 819.851282 439.490439 819.851282 433.990439 
L 819.851282 168.437438 
Q 819.851282 162.937438 814.351282 162.937438 
L 659.549999 162.937438 
Q 654.049999 162.937438 654.049999 168.437438 
L 654.049999 433.990439 
Q 654.049999 439.490439 659.549999 439.490439 
z
" style="fill: #ffffff; opacity: 0.8; stroke: #cccccc; stroke-linejoin: miter"/>
    </g>
    <g id="line2d_25">
     <path d="M 665.049999 183.562438 
L 692.549999 183.562438 
L 720.049999 183.562438 
" style="fill: none; stroke: #4e79a7; stroke-width: 3; stroke-linecap: round"/>
    </g>
    <g id="text_15">
     <!-- S1 -->
     <g style="fill: #262626" transform="translate(742.049999 193.187438) scale(0.275 -0.275)">
      <use xlink:href="#CMR17-53" transform="scale(0.996264)"/>
      <use xlink:href="#CMR17-31" transform="translate(50.89537 0) scale(0.996264)"/>
     </g>
    </g>
    <g id="line2d_26">
     <path d="M 665.049999 221.891438 
L 692.549999 221.891438 
L 720.049999 221.891438 
" style="fill: none; stroke: #f28e2b; stroke-width: 3; stroke-linecap: round"/>
    </g>
    <g id="text_16">
     <!-- S2 -->
     <g style="fill: #262626" transform="translate(742.049999 231.516438) scale(0.275 -0.275)">
      <use xlink:href="#CMR17-53" transform="scale(0.996264)"/>
      <use xlink:href="#CMR17-32" transform="translate(50.89537 0) scale(0.996264)"/>
     </g>
    </g>
    <g id="line2d_27">
     <path d="M 665.049999 260.220438 
L 692.549999 260.220438 
L 720.049999 260.220438 
" style="fill: none; stroke: #e15759; stroke-width: 3; stroke-linecap: round"/>
    </g>
    <g id="text_17">
     <!-- S3 -->
     <g style="fill: #262626" transform="translate(742.049999 269.845438) scale(0.275 -0.275)">
      <defs>
       <path id="CMR17-33" d="M 1414 2176 
C 1984 2176 2234 1673 2234 1094 
C 2234 322 1824 25 1453 25 
C 1114 25 563 193 390 691 
C 422 678 454 678 486 678 
C 640 678 755 780 755 947 
C 755 1132 614 1216 486 1216 
C 378 1216 211 1164 211 927 
C 211 335 787 -128 1466 -128 
C 2176 -128 2720 432 2720 1087 
C 2720 1718 2208 2176 1600 2246 
C 2086 2347 2554 2776 2554 3353 
C 2554 3856 2048 4224 1472 4224 
C 890 4224 378 3862 378 3347 
C 378 3123 544 3084 627 3084 
C 762 3084 877 3167 877 3334 
C 877 3500 762 3584 627 3584 
C 602 3584 570 3584 544 3571 
C 730 3999 1235 4076 1459 4076 
C 1683 4076 2106 3966 2106 3347 
C 2106 3167 2080 2851 1862 2574 
C 1670 2329 1453 2316 1242 2297 
C 1210 2297 1062 2284 1037 2284 
C 992 2278 966 2272 966 2227 
C 966 2182 973 2176 1101 2176 
L 1414 2176 
z
" transform="scale(0.015625)"/>
      </defs>
      <use xlink:href="#CMR17-53" transform="scale(0.996264)"/>
      <use xlink:href="#CMR17-33" transform="translate(50.89537 0) scale(0.996264)"/>
     </g>
    </g>
    <g id="line2d_28">
     <path d="M 665.049999 298.549439 
L 692.549999 298.549439 
L 720.049999 298.549439 
" style="fill: none; stroke: #76b7b2; stroke-width: 3; stroke-linecap: round"/>
    </g>
    <g id="text_18">
     <!-- S4 -->
     <g style="fill: #262626" transform="translate(742.049999 308.174439) scale(0.275 -0.275)">
      <defs>
       <path id="CMR17-34" d="M 2150 4147 
C 2150 4281 2144 4288 2029 4288 
L 128 1254 
L 128 1088 
L 1779 1088 
L 1779 460 
C 1779 230 1766 166 1318 166 
L 1197 166 
L 1197 0 
C 1402 12 1747 12 1965 12 
C 2182 12 2528 12 2733 0 
L 2733 166 
L 2611 166 
C 2163 166 2150 230 2150 460 
L 2150 1088 
L 2803 1088 
L 2803 1254 
L 2150 1254 
L 2150 4147 
z
M 1798 3723 
L 1798 1254 
L 256 1254 
L 1798 3723 
z
" transform="scale(0.015625)"/>
      </defs>
      <use xlink:href="#CMR17-53" transform="scale(0.996264)"/>
      <use xlink:href="#CMR17-34" transform="translate(50.89537 0) scale(0.996264)"/>
     </g>
    </g>
    <g id="line2d_29">
     <path d="M 665.049999 336.878439 
L 692.549999 336.878439 
L 720.049999 336.878439 
" style="fill: none; stroke: #59a14f; stroke-width: 3; stroke-linecap: round"/>
    </g>
    <g id="text_19">
     <!-- S5 -->
     <g style="fill: #262626" transform="translate(742.049999 346.503439) scale(0.275 -0.275)">
      <use xlink:href="#CMR17-53" transform="scale(0.996264)"/>
      <use xlink:href="#CMR17-35" transform="translate(50.89537 0) scale(0.996264)"/>
     </g>
    </g>
    <g id="line2d_30">
     <path d="M 665.049999 375.207439 
L 692.549999 375.207439 
L 720.049999 375.207439 
" style="fill: none; stroke: #edc948; stroke-width: 3; stroke-linecap: round"/>
    </g>
    <g id="text_20">
     <!-- S6 -->
     <g style="fill: #262626" transform="translate(742.049999 384.832439) scale(0.275 -0.275)">
      <defs>
       <path id="CMR17-36" d="M 678 2198 
C 678 3712 1395 4076 1811 4076 
C 1946 4076 2272 4049 2400 3782 
C 2298 3782 2106 3782 2106 3558 
C 2106 3385 2246 3328 2336 3328 
C 2394 3328 2566 3353 2566 3571 
C 2566 3987 2246 4224 1805 4224 
C 1043 4224 243 3411 243 2011 
C 243 257 966 -128 1478 -128 
C 2099 -128 2688 431 2688 1295 
C 2688 2101 2170 2688 1517 2688 
C 1126 2688 838 2430 678 1979 
L 678 2198 
z
M 1478 25 
C 691 25 691 1212 691 1450 
C 691 1914 909 2585 1504 2585 
C 1613 2585 1926 2585 2138 2140 
C 2253 1889 2253 1624 2253 1302 
C 2253 954 2253 696 2118 438 
C 1978 173 1773 25 1478 25 
z
" transform="scale(0.015625)"/>
      </defs>
      <use xlink:href="#CMR17-53" transform="scale(0.996264)"/>
      <use xlink:href="#CMR17-36" transform="translate(50.89537 0) scale(0.996264)"/>
     </g>
    </g>
    <g id="line2d_31">
     <path d="M 665.049999 413.536439 
L 692.549999 413.536439 
L 720.049999 413.536439 
" style="fill: none; stroke: #808080; stroke-width: 3; stroke-linecap: round"/>
    </g>
    <g id="text_21">
     <!-- Signal -->
     <g style="fill: #262626" transform="translate(742.049999 423.161439) scale(0.275 -0.275)">
      <defs>
       <path id="CMR17-67" d="M 710 1165 
C 832 1068 1043 960 1299 960 
C 1805 960 2240 1359 2240 1895 
C 2240 2063 2189 2321 1997 2521 
C 2176 2713 2438 2777 2586 2777 
C 2611 2777 2650 2777 2682 2758 
C 2656 2751 2598 2726 2598 2623 
C 2598 2540 2656 2483 2739 2483 
C 2835 2483 2886 2547 2886 2630 
C 2886 2751 2790 2880 2586 2880 
C 2330 2880 2106 2758 1926 2591 
C 1734 2764 1504 2828 1299 2828 
C 794 2828 358 2431 358 1895 
C 358 1527 570 1294 634 1230 
C 442 1004 442 742 442 710 
C 442 544 506 300 723 166 
C 390 82 128 -184 128 -517 
C 128 -996 736 -1344 1466 -1344 
C 2170 -1344 2803 -1009 2803 -510 
C 2803 384 1856 384 1363 384 
C 1216 384 954 384 922 390 
C 723 422 589 601 589 825 
C 589 883 589 1024 710 1165 
z
M 1299 1068 
C 736 1068 736 1766 736 1895 
C 736 2024 736 2719 1299 2719 
C 1862 2719 1862 2024 1862 1895 
C 1862 1766 1862 1068 1299 1068 
z
M 1466 -1236 
C 826 -1236 384 -883 384 -517 
C 384 -311 493 -118 634 -11 
C 794 102 858 102 1293 102 
C 1818 102 2547 102 2547 -517 
C 2547 -883 2106 -1236 1466 -1236 
z
" transform="scale(0.015625)"/>
      </defs>
      <use xlink:href="#CMR17-53" transform="scale(0.996264)"/>
      <use xlink:href="#CMR17-69" transform="translate(50.89537 0) scale(0.996264)"/>
      <use xlink:href="#CMR17-67" transform="translate(75.766428 0) scale(0.996264)"/>
      <use xlink:href="#CMR17-6e" transform="translate(121.456905 0) scale(0.996264)"/>
      <use xlink:href="#CMR17-61" transform="translate(172.352275 0) scale(0.996264)"/>
      <use xlink:href="#CMR17-6c" transform="translate(218.042752 0) scale(0.996264)"/>
     </g>
    </g>
   </g>
  </g>
  <g id="text_22">
   <!-- Class 1 -->
   <g style="fill: #262626" transform="translate(380.800709 36.4266) scale(0.36 -0.36)">
    <defs>
     <path id="CMR17-43" d="M 3974 4351 
C 3974 4467 3968 4473 3930 4473 
C 3904 4473 3898 4467 3853 4390 
L 3571 3849 
C 3258 4249 2874 4480 2381 4480 
C 1286 4480 294 3507 294 2179 
C 294 837 1286 -128 2387 -128 
C 3366 -128 3974 741 3974 1482 
C 3974 1547 3974 1573 3917 1573 
C 3866 1573 3866 1553 3859 1495 
C 3808 592 3168 38 2477 38 
C 1824 38 781 502 781 2179 
C 781 3862 1843 4313 2464 4313 
C 3187 4313 3712 3681 3834 2785 
C 3846 2707 3846 2695 3904 2695 
C 3974 2695 3974 2707 3974 2824 
L 3974 4351 
z
" transform="scale(0.015625)"/>
    </defs>
    <use xlink:href="#CMR17-43" transform="scale(0.996264)"/>
    <use xlink:href="#CMR17-6c" transform="translate(66.509881 0) scale(0.996264)"/>
    <use xlink:href="#CMR17-61" transform="translate(91.380939 0) scale(0.996264)"/>
    <use xlink:href="#CMR17-73" transform="translate(137.071416 0) scale(0.996264)"/>
    <use xlink:href="#CMR17-73" transform="translate(172.872754 0) scale(0.996264)"/>
    <use xlink:href="#CMR17-31" transform="translate(238.750058 0) scale(0.996264)"/>
   </g>
  </g>
 </g>
 <defs>
  <clipPath id="p9769339c90">
   <rect x="129.626538" y="126.51875" width="552.112821" height="349.390377"/>
  </clipPath>
 </defs>
</svg>
