<?xml version="1.0" encoding="utf-8" standalone="no"?>
<!DOCTYPE svg PUBLIC "-//W3C//DTD SVG 1.1//EN"
  "http://www.w3.org/Graphics/SVG/1.1/DTD/svg11.dtd">
<svg xmlns:xlink="http://www.w3.org/1999/xlink" width="864pt" height="576pt" viewBox="0 0 864 576" xmlns="http://www.w3.org/2000/svg" version="1.1">
 <metadata>
  <rdf:RDF xmlns:dc="http://purl.org/dc/elements/1.1/" xmlns:cc="http://creativecommons.org/ns#" xmlns:rdf="http://www.w3.org/1999/02/22-rdf-syntax-ns#">
   <cc:Work>
    <dc:type rdf:resource="http://purl.org/dc/dcmitype/StillImage"/>
    <dc:date>2025-06-20T13:42:05.845711</dc:date>
    <dc:format>image/svg+xml</dc:format>
    <dc:creator>
     <cc:Agent>
      <dc:title>Matplotlib v3.10.0, https://matplotlib.org/</dc:title>
     </cc:Agent>
    </dc:creator>
   </cc:Work>
  </rdf:RDF>
 </metadata>
 <defs>
  <style type="text/css">*{stroke-linejoin: round; stroke-linecap: butt}</style>
 </defs>
 <g id="figure_1">
  <g id="patch_1">
   <path d="M 0 576 
L 864 576 
L 864 0 
L 0 0 
z
" style="fill: #ffffff"/>
  </g>
  <g id="axes_1">
   <g id="patch_2">
    <path d="M 108 512.64 
L 777.6 512.64 
L 777.6 69.12 
L 108 69.12 
z
" style="fill: #ffffff"/>
   </g>
   <g id="matplotlib.axis_1">
    <g id="xtick_1">
     <g id="line2d_1">
      <path d="M 138.436364 512.64 
L 138.436364 69.12 
" clip-path="url(#pd8e1493286)" style="fill: none; stroke: #cccccc; stroke-linecap: round"/>
     </g>
     <g id="text_1">
      <!-- $\mathdefault{0}$ -->
      <g style="fill: #262626" transform="translate(132.153923 541.165867) scale(0.275 -0.275)">
       <defs>
        <path id="CMR17-30" d="M 2688 2038 
C 2688 2430 2682 3099 2413 3613 
C 2176 4063 1798 4224 1466 4224 
C 1158 4224 768 4082 525 3620 
C 269 3137 243 2539 243 2038 
C 243 1671 250 1112 448 623 
C 723 -39 1216 -128 1466 -128 
C 1760 -128 2208 -7 2470 604 
C 2662 1048 2688 1568 2688 2038 
z
M 1466 -26 
C 1056 -26 813 328 723 816 
C 653 1196 653 1749 653 2109 
C 653 2604 653 3015 736 3407 
C 858 3954 1216 4121 1466 4121 
C 1728 4121 2067 3947 2189 3420 
C 2272 3054 2278 2623 2278 2109 
C 2278 1691 2278 1176 2202 797 
C 2067 96 1690 -26 1466 -26 
z
" transform="scale(0.015625)"/>
       </defs>
       <use xlink:href="#CMR17-30" transform="scale(0.996264)"/>
      </g>
     </g>
    </g>
    <g id="xtick_2">
     <g id="line2d_2">
      <path d="M 257.328409 512.64 
L 257.328409 69.12 
" clip-path="url(#pd8e1493286)" style="fill: none; stroke: #cccccc; stroke-linecap: round"/>
     </g>
     <g id="text_2">
      <!-- $\mathdefault{50}$ -->
      <g style="fill: #262626" transform="translate(244.763528 541.165867) scale(0.275 -0.275)">
       <defs>
        <path id="CMR17-35" d="M 730 3750 
C 794 3724 1056 3641 1325 3641 
C 1920 3641 2246 3961 2432 4140 
C 2432 4191 2432 4224 2394 4224 
C 2387 4224 2374 4224 2323 4198 
C 2099 4102 1837 4032 1517 4032 
C 1325 4032 1037 4055 723 4191 
C 653 4224 640 4224 634 4224 
C 602 4224 595 4217 595 4090 
L 595 2231 
C 595 2113 595 2080 659 2080 
C 691 2080 704 2093 736 2139 
C 941 2435 1222 2560 1542 2560 
C 1766 2560 2246 2415 2246 1293 
C 2246 1087 2246 716 2054 422 
C 1894 159 1645 25 1370 25 
C 947 25 518 319 403 812 
C 429 806 480 793 506 793 
C 589 793 749 838 749 1036 
C 749 1209 627 1280 506 1280 
C 358 1280 262 1190 262 1011 
C 262 454 704 -128 1382 -128 
C 2042 -128 2669 441 2669 1267 
C 2669 2054 2170 2662 1549 2662 
C 1222 2662 947 2540 730 2304 
L 730 3750 
z
" transform="scale(0.015625)"/>
       </defs>
       <use xlink:href="#CMR17-35" transform="scale(0.996264)"/>
       <use xlink:href="#CMR17-30" transform="translate(45.690477 0) scale(0.996264)"/>
      </g>
     </g>
    </g>
    <g id="xtick_3">
     <g id="line2d_3">
      <path d="M 376.220455 512.64 
L 376.220455 69.12 
" clip-path="url(#pd8e1493286)" style="fill: none; stroke: #cccccc; stroke-linecap: round"/>
     </g>
     <g id="text_3">
      <!-- $\mathdefault{100}$ -->
      <g style="fill: #262626" transform="translate(357.373133 541.165867) scale(0.275 -0.275)">
       <defs>
        <path id="CMR17-31" d="M 1702 4083 
C 1702 4217 1696 4224 1606 4224 
C 1357 3927 979 3833 621 3820 
C 602 3820 570 3820 563 3808 
C 557 3795 557 3782 557 3648 
C 755 3648 1088 3686 1344 3839 
L 1344 467 
C 1344 243 1331 166 781 166 
L 589 166 
L 589 0 
C 896 6 1216 12 1523 12 
C 1830 12 2150 6 2458 0 
L 2458 166 
L 2266 166 
C 1715 166 1702 236 1702 467 
L 1702 4083 
z
" transform="scale(0.015625)"/>
       </defs>
       <use xlink:href="#CMR17-31" transform="scale(0.996264)"/>
       <use xlink:href="#CMR17-30" transform="translate(45.690477 0) scale(0.996264)"/>
       <use xlink:href="#CMR17-30" transform="translate(91.380954 0) scale(0.996264)"/>
      </g>
     </g>
    </g>
    <g id="xtick_4">
     <g id="line2d_4">
      <path d="M 495.1125 512.64 
L 495.1125 69.12 
" clip-path="url(#pd8e1493286)" style="fill: none; stroke: #cccccc; stroke-linecap: round"/>
     </g>
     <g id="text_4">
      <!-- $\mathdefault{150}$ -->
      <g style="fill: #262626" transform="translate(476.265178 541.165867) scale(0.275 -0.275)">
       <use xlink:href="#CMR17-31" transform="scale(0.996264)"/>
       <use xlink:href="#CMR17-35" transform="translate(45.690477 0) scale(0.996264)"/>
       <use xlink:href="#CMR17-30" transform="translate(91.380954 0) scale(0.996264)"/>
      </g>
     </g>
    </g>
    <g id="xtick_5">
     <g id="line2d_5">
      <path d="M 614.004545 512.64 
L 614.004545 69.12 
" clip-path="url(#pd8e1493286)" style="fill: none; stroke: #cccccc; stroke-linecap: round"/>
     </g>
     <g id="text_5">
      <!-- $\mathdefault{200}$ -->
      <g style="fill: #262626" transform="translate(595.157224 541.165867) scale(0.275 -0.275)">
       <defs>
        <path id="CMR17-32" d="M 2669 990 
L 2554 990 
C 2490 537 2438 460 2413 422 
C 2381 371 1920 371 1830 371 
L 602 371 
C 832 620 1280 1073 1824 1596 
C 2214 1966 2669 2400 2669 3033 
C 2669 3788 2067 4224 1395 4224 
C 691 4224 262 3603 262 3027 
C 262 2777 448 2745 525 2745 
C 589 2745 781 2783 781 3007 
C 781 3206 614 3264 525 3264 
C 486 3264 448 3257 422 3244 
C 544 3788 915 4057 1306 4057 
C 1862 4057 2227 3616 2227 3033 
C 2227 2477 1901 1998 1536 1583 
L 262 147 
L 262 0 
L 2515 0 
L 2669 990 
z
" transform="scale(0.015625)"/>
       </defs>
       <use xlink:href="#CMR17-32" transform="scale(0.996264)"/>
       <use xlink:href="#CMR17-30" transform="translate(45.690477 0) scale(0.996264)"/>
       <use xlink:href="#CMR17-30" transform="translate(91.380954 0) scale(0.996264)"/>
      </g>
     </g>
    </g>
    <g id="xtick_6">
     <g id="line2d_6">
      <path d="M 732.896591 512.64 
L 732.896591 69.12 
" clip-path="url(#pd8e1493286)" style="fill: none; stroke: #cccccc; stroke-linecap: round"/>
     </g>
     <g id="text_6">
      <!-- $\mathdefault{250}$ -->
      <g style="fill: #262626" transform="translate(714.049269 541.165867) scale(0.275 -0.275)">
       <use xlink:href="#CMR17-32" transform="scale(0.996264)"/>
       <use xlink:href="#CMR17-35" transform="translate(45.690477 0) scale(0.996264)"/>
       <use xlink:href="#CMR17-30" transform="translate(91.380954 0) scale(0.996264)"/>
      </g>
     </g>
    </g>
    <g id="text_7">
     <!-- Sample number -->
     <g style="fill: #262626" transform="translate(349.409568 571.250362) scale(0.3 -0.3)">
      <defs>
       <path id="CMR17-53" d="M 2803 4351 
C 2803 4467 2797 4473 2758 4473 
C 2720 4473 2707 4447 2682 4390 
L 2490 3965 
C 2246 4320 1875 4480 1472 4480 
C 819 4480 294 3958 294 3301 
C 294 3101 339 2817 557 2546 
C 794 2250 1018 2198 1530 2063 
C 1722 2011 2042 1927 2106 1901 
C 2470 1747 2662 1360 2662 999 
C 2662 534 2336 38 1779 38 
C 1094 38 454 425 410 1328 
C 403 1431 397 1437 352 1437 
C 301 1437 294 1431 294 1302 
L 294 0 
C 294 -116 301 -122 339 -122 
C 384 -122 397 -90 486 109 
C 493 128 493 141 614 386 
C 934 -39 1472 -128 1779 -128 
C 2477 -128 2970 457 2970 1141 
C 2970 1476 2848 1734 2778 1850 
C 2509 2263 2221 2340 1914 2417 
C 1869 2437 1856 2437 1498 2527 
C 1152 2617 1005 2662 845 2836 
C 666 3036 602 3243 602 3449 
C 602 3868 934 4326 1478 4326 
C 2157 4326 2579 3842 2675 3036 
C 2694 2920 2701 2914 2746 2914 
C 2803 2914 2803 2933 2803 3043 
L 2803 4351 
z
" transform="scale(0.015625)"/>
       <path id="CMR17-61" d="M 2304 1656 
C 2304 2048 2304 2275 2035 2534 
C 1798 2751 1523 2816 1306 2816 
C 800 2816 435 2408 435 1977 
C 435 1740 627 1728 666 1728 
C 749 1728 896 1779 896 1958 
C 896 2118 774 2188 666 2188 
C 640 2188 608 2182 589 2176 
C 723 2594 1069 2713 1293 2713 
C 1613 2713 1965 2421 1965 1875 
L 1965 1632 
C 1587 1619 1133 1568 774 1373 
C 371 1147 256 822 256 576 
C 256 77 832 -64 1171 -64 
C 1523 -64 1850 135 1990 505 
C 2003 219 2182 -39 2464 -39 
C 2598 -39 2938 51 2938 563 
L 2938 926 
L 2822 926 
L 2822 557 
C 2822 161 2650 109 2566 109 
C 2304 109 2304 446 2304 732 
L 2304 1656 
z
M 1965 887 
C 1965 323 1568 38 1216 38 
C 896 38 646 278 646 576 
C 646 771 730 1114 1101 1322 
C 1408 1497 1760 1523 1965 1536 
L 1965 887 
z
" transform="scale(0.015625)"/>
       <path id="CMR17-6d" d="M 4326 1954 
C 4326 2276 4269 2816 3507 2816 
C 3072 2816 2771 2520 2656 2173 
L 2650 2173 
C 2573 2700 2195 2816 1837 2816 
C 1331 2816 1069 2424 973 2166 
L 966 2166 
L 966 2816 
L 211 2745 
L 211 2578 
C 589 2578 646 2540 646 2231 
L 646 443 
C 646 198 621 166 211 166 
L 211 0 
C 365 12 646 12 813 12 
C 979 12 1267 12 1421 0 
L 1421 166 
C 1011 166 986 192 986 443 
L 986 1678 
C 986 2269 1344 2713 1792 2713 
C 2266 2713 2317 2289 2317 1980 
L 2317 443 
C 2317 198 2291 166 1882 166 
L 1882 0 
C 2035 12 2317 12 2483 12 
C 2650 12 2938 12 3091 0 
L 3091 166 
C 2682 166 2656 192 2656 443 
L 2656 1678 
C 2656 2269 3014 2713 3462 2713 
C 3936 2713 3987 2289 3987 1980 
L 3987 443 
C 3987 198 3962 166 3552 166 
L 3552 0 
C 3706 12 3987 12 4154 12 
C 4320 12 4608 12 4762 0 
L 4762 166 
C 4352 166 4326 192 4326 443 
L 4326 1954 
z
" transform="scale(0.015625)"/>
       <path id="CMR17-70" d="M 1408 -1114 
C 998 -1114 973 -1088 973 -834 
L 973 380 
C 1158 109 1427 -64 1766 -64 
C 2406 -64 3053 503 3053 1382 
C 3053 2196 2496 2816 1837 2816 
C 1453 2816 1139 2603 960 2345 
L 960 2816 
L 198 2745 
L 198 2577 
C 576 2577 634 2539 634 2228 
L 634 -834 
C 634 -1081 608 -1114 198 -1114 
L 198 -1280 
C 352 -1268 634 -1268 800 -1268 
C 966 -1268 1254 -1268 1408 -1280 
L 1408 -1114 
z
M 973 2015 
C 973 2106 973 2241 1222 2481 
C 1254 2506 1472 2700 1792 2700 
C 2259 2700 2643 2112 2643 1376 
C 2643 639 2234 38 1728 38 
C 1498 38 1248 148 1056 451 
C 973 594 973 632 973 736 
L 973 2015 
z
" transform="scale(0.015625)"/>
       <path id="CMR17-6c" d="M 979 4416 
L 218 4345 
L 218 4179 
C 595 4179 653 4141 653 3835 
L 653 439 
C 653 198 627 166 218 166 
L 218 0 
C 371 12 653 12 813 12 
C 979 12 1261 12 1414 0 
L 1414 166 
C 1005 166 979 191 979 439 
L 979 4416 
z
" transform="scale(0.015625)"/>
       <path id="CMR17-65" d="M 2438 1503 
C 2464 1529 2464 1542 2464 1606 
C 2464 2251 2118 2816 1389 2816 
C 710 2816 173 2175 173 1394 
C 173 554 781 -64 1459 -64 
C 2176 -64 2458 619 2458 755 
C 2458 800 2419 800 2406 800 
C 2362 800 2355 787 2330 709 
C 2189 270 1837 51 1504 51 
C 1229 51 954 206 781 490 
C 582 819 582 1200 582 1503 
L 2438 1503 
z
M 589 1600 
C 634 2511 1126 2713 1382 2713 
C 1818 2713 2112 2308 2118 1600 
L 589 1600 
z
" transform="scale(0.015625)"/>
       <path id="CMR17-6e" d="M 2656 1954 
C 2656 2282 2592 2816 1837 2816 
C 1331 2816 1069 2424 973 2166 
L 966 2166 
L 966 2816 
L 211 2745 
L 211 2578 
C 589 2578 646 2540 646 2231 
L 646 443 
C 646 198 621 166 211 166 
L 211 0 
C 365 12 646 12 813 12 
C 979 12 1267 12 1421 0 
L 1421 166 
C 1011 166 986 192 986 443 
L 986 1678 
C 986 2269 1344 2713 1792 2713 
C 2266 2713 2317 2289 2317 1980 
L 2317 443 
C 2317 198 2291 166 1882 166 
L 1882 0 
C 2035 12 2317 12 2483 12 
C 2650 12 2938 12 3091 0 
L 3091 166 
C 2682 166 2656 192 2656 443 
L 2656 1954 
z
" transform="scale(0.015625)"/>
       <path id="CMR17-75" d="M 1882 2745 
L 1882 2579 
C 2259 2579 2317 2540 2317 2229 
L 2317 1053 
C 2317 510 2029 38 1555 38 
C 1030 38 986 355 986 691 
L 986 2816 
L 211 2745 
L 211 2579 
C 467 2579 640 2579 646 2320 
L 646 1079 
C 646 646 646 368 813 187 
C 896 103 1056 -64 1517 -64 
C 2061 -64 2272 400 2323 536 
L 2330 536 
L 2330 -64 
L 3091 -13 
L 3091 154 
C 2714 154 2656 193 2656 503 
L 2656 2816 
L 1882 2745 
z
" transform="scale(0.015625)"/>
       <path id="CMR17-62" d="M 960 4416 
L 198 4345 
L 198 4179 
C 576 4179 634 4141 634 3843 
L 634 -13 
L 749 -13 
L 934 445 
C 1120 141 1395 -64 1766 -64 
C 2406 -64 3053 503 3053 1382 
C 3053 2209 2477 2816 1830 2816 
C 1434 2816 1152 2603 960 2351 
L 960 4416 
z
M 973 2022 
C 973 2138 973 2157 1062 2293 
C 1312 2681 1670 2713 1792 2713 
C 1984 2713 2643 2610 2643 1388 
C 2643 109 1888 38 1734 38 
C 1536 38 1248 115 1043 490 
C 973 613 973 626 973 742 
L 973 2022 
z
" transform="scale(0.015625)"/>
       <path id="CMR17-72" d="M 960 1517 
C 960 2134 1222 2713 1702 2713 
C 1747 2713 1792 2707 1837 2687 
C 1837 2687 1696 2642 1696 2475 
C 1696 2321 1818 2257 1914 2257 
C 1990 2257 2131 2302 2131 2482 
C 2131 2687 1926 2816 1709 2816 
C 1222 2816 1011 2340 947 2115 
L 941 2115 
L 941 2816 
L 198 2745 
L 198 2578 
C 576 2578 634 2540 634 2231 
L 634 443 
C 634 198 608 166 198 166 
L 198 0 
C 352 12 646 12 813 12 
C 998 12 1325 12 1498 0 
L 1498 166 
C 1037 166 960 166 960 455 
L 960 1517 
z
" transform="scale(0.015625)"/>
      </defs>
      <use xlink:href="#CMR17-53" transform="scale(0.996264)"/>
      <use xlink:href="#CMR17-61" transform="translate(50.89537 0) scale(0.996264)"/>
      <use xlink:href="#CMR17-6d" transform="translate(96.585847 0) scale(0.996264)"/>
      <use xlink:href="#CMR17-70" transform="translate(173.505437 0) scale(0.996264)"/>
      <use xlink:href="#CMR17-6c" transform="translate(224.400807 0) scale(0.996264)"/>
      <use xlink:href="#CMR17-65" transform="translate(249.271865 0) scale(0.996264)"/>
      <use xlink:href="#CMR17-6e" transform="translate(319.833492 0) scale(0.996264)"/>
      <use xlink:href="#CMR17-75" transform="translate(368.126408 0) scale(0.996264)"/>
      <use xlink:href="#CMR17-6d" transform="translate(419.021777 0) scale(0.996264)"/>
      <use xlink:href="#CMR17-62" transform="translate(493.338913 0) scale(0.996264)"/>
      <use xlink:href="#CMR17-65" transform="translate(546.836722 0) scale(0.996264)"/>
      <use xlink:href="#CMR17-72" transform="translate(587.322382 0) scale(0.996264)"/>
     </g>
    </g>
   </g>
   <g id="matplotlib.axis_2">
    <g id="ytick_1">
     <g id="line2d_7">
      <path d="M 108 476.841349 
L 777.6 476.841349 
" clip-path="url(#pd8e1493286)" style="fill: none; stroke: #cccccc; stroke-linecap: round"/>
     </g>
     <g id="text_8">
      <!-- $\mathdefault{−0.5}$ -->
      <g style="fill: #262626" transform="translate(44.609469 486.354283) scale(0.275 -0.275)">
       <defs>
        <path id="CMSY10-0" d="M 4218 1472 
C 4326 1472 4442 1472 4442 1600 
C 4442 1728 4326 1728 4218 1728 
L 755 1728 
C 646 1728 531 1728 531 1600 
C 531 1472 646 1472 755 1472 
L 4218 1472 
z
" transform="scale(0.015625)"/>
        <path id="CMMI12-3a" d="M 1178 307 
C 1178 492 1024 620 870 620 
C 685 620 557 467 557 313 
C 557 128 710 0 864 0 
C 1050 0 1178 153 1178 307 
z
" transform="scale(0.015625)"/>
       </defs>
       <use xlink:href="#CMSY10-0" transform="scale(0.996264)"/>
       <use xlink:href="#CMR17-30" transform="translate(77.487468 0) scale(0.996264)"/>
       <use xlink:href="#CMMI12-3a" transform="translate(123.177945 0) scale(0.996264)"/>
       <use xlink:href="#CMR17-35" transform="translate(150.275122 0) scale(0.996264)"/>
      </g>
     </g>
    </g>
    <g id="ytick_2">
     <g id="line2d_8">
      <path d="M 108 379.217288 
L 777.6 379.217288 
" clip-path="url(#pd8e1493286)" style="fill: none; stroke: #cccccc; stroke-linecap: round"/>
     </g>
     <g id="text_9">
      <!-- $\mathdefault{0.0}$ -->
      <g style="fill: #262626" transform="translate(65.918521 388.730221) scale(0.275 -0.275)">
       <use xlink:href="#CMR17-30" transform="scale(0.996264)"/>
       <use xlink:href="#CMMI12-3a" transform="translate(45.690477 0) scale(0.996264)"/>
       <use xlink:href="#CMR17-30" transform="translate(72.787654 0) scale(0.996264)"/>
      </g>
     </g>
    </g>
    <g id="ytick_3">
     <g id="line2d_9">
      <path d="M 108 281.593226 
L 777.6 281.593226 
" clip-path="url(#pd8e1493286)" style="fill: none; stroke: #cccccc; stroke-linecap: round"/>
     </g>
     <g id="text_10">
      <!-- $\mathdefault{0.5}$ -->
      <g style="fill: #262626" transform="translate(65.918521 291.10616) scale(0.275 -0.275)">
       <use xlink:href="#CMR17-30" transform="scale(0.996264)"/>
       <use xlink:href="#CMMI12-3a" transform="translate(45.690477 0) scale(0.996264)"/>
       <use xlink:href="#CMR17-35" transform="translate(72.787654 0) scale(0.996264)"/>
      </g>
     </g>
    </g>
    <g id="ytick_4">
     <g id="line2d_10">
      <path d="M 108 183.969165 
L 777.6 183.969165 
" clip-path="url(#pd8e1493286)" style="fill: none; stroke: #cccccc; stroke-linecap: round"/>
     </g>
     <g id="text_11">
      <!-- $\mathdefault{1.0}$ -->
      <g style="fill: #262626" transform="translate(65.918521 193.482098) scale(0.275 -0.275)">
       <use xlink:href="#CMR17-31" transform="scale(0.996264)"/>
       <use xlink:href="#CMMI12-3a" transform="translate(45.690477 0) scale(0.996264)"/>
       <use xlink:href="#CMR17-30" transform="translate(72.787654 0) scale(0.996264)"/>
      </g>
     </g>
    </g>
    <g id="ytick_5">
     <g id="line2d_11">
      <path d="M 108 86.345103 
L 777.6 86.345103 
" clip-path="url(#pd8e1493286)" style="fill: none; stroke: #cccccc; stroke-linecap: round"/>
     </g>
     <g id="text_12">
      <!-- $\mathdefault{1.5}$ -->
      <g style="fill: #262626" transform="translate(65.918521 95.858037) scale(0.275 -0.275)">
       <use xlink:href="#CMR17-31" transform="scale(0.996264)"/>
       <use xlink:href="#CMMI12-3a" transform="translate(45.690477 0) scale(0.996264)"/>
       <use xlink:href="#CMR17-35" transform="translate(72.787654 0) scale(0.996264)"/>
      </g>
     </g>
    </g>
    <g id="text_13">
     <!-- Amplitude/Shape Indicator -->
     <g style="fill: #262626" transform="translate(33.162496 456.351872) rotate(-90) scale(0.3 -0.3)">
      <defs>
       <path id="CMR17-41" d="M 2323 4441 
C 2291 4524 2278 4544 2214 4544 
C 2150 4544 2138 4524 2106 4441 
L 749 580 
C 627 236 371 166 147 166 
L 147 0 
C 262 12 518 12 640 12 
C 800 12 1056 12 1210 0 
L 1210 166 
C 909 179 864 382 864 459 
C 864 516 877 548 890 586 
L 1229 1536 
L 2906 1536 
L 3290 453 
C 3322 376 3322 363 3322 338 
C 3322 166 3046 166 2925 166 
L 2925 0 
C 3110 12 3443 12 3642 12 
C 3808 12 4128 12 4282 0 
L 4282 166 
C 3942 166 3827 166 3744 402 
L 2323 4441 
z
M 2067 3924 
L 2848 1702 
L 1286 1702 
L 2067 3924 
z
" transform="scale(0.015625)"/>
       <path id="CMR17-69" d="M 992 3961 
C 992 4102 877 4224 730 4224 
C 589 4224 467 4108 467 3961 
C 467 3820 582 3699 730 3699 
C 870 3699 992 3814 992 3961 
z
M 243 2745 
L 243 2579 
C 602 2579 653 2540 653 2231 
L 653 443 
C 653 198 627 166 218 166 
L 218 0 
C 371 12 646 12 806 12 
C 960 12 1222 12 1370 0 
L 1370 166 
C 992 166 979 205 979 436 
L 979 2816 
L 243 2745 
z
" transform="scale(0.015625)"/>
       <path id="CMR17-74" d="M 966 2585 
L 1862 2585 
L 1862 2752 
L 966 2752 
L 966 3968 
L 851 3968 
C 838 3292 614 2700 70 2687 
L 70 2585 
L 627 2585 
L 627 778 
C 627 655 627 -64 1370 -64 
C 1747 -64 1965 308 1965 784 
L 1965 1151 
L 1850 1151 
L 1850 790 
C 1850 347 1677 51 1408 51 
C 1222 51 966 179 966 765 
L 966 2585 
z
" transform="scale(0.015625)"/>
       <path id="CMR17-64" d="M 1869 4345 
L 1869 4179 
C 2246 4179 2304 4141 2304 3843 
L 2304 2371 
C 2278 2403 2016 2816 1498 2816 
C 845 2816 211 2228 211 1376 
C 211 529 806 -64 1434 -64 
C 1978 -64 2259 361 2291 406 
L 2291 -64 
L 3066 -13 
L 3066 154 
C 2688 154 2630 193 2630 503 
L 2630 4416 
L 1869 4345 
z
M 2291 762 
C 2291 568 2176 393 2029 264 
C 1811 70 1594 38 1472 38 
C 1286 38 621 135 621 1369 
C 621 2636 1363 2713 1530 2713 
C 1824 2713 2061 2545 2208 2313 
C 2291 2177 2291 2157 2291 2041 
L 2291 762 
z
" transform="scale(0.015625)"/>
       <path id="CMR17-2f" d="M 2605 4575 
C 2637 4658 2637 4671 2637 4684 
C 2637 4761 2579 4800 2528 4800 
C 2451 4800 2426 4748 2400 4671 
L 326 -1376 
C 294 -1460 294 -1472 294 -1485 
C 294 -1562 352 -1600 403 -1600 
C 480 -1600 506 -1549 531 -1472 
L 2605 4575 
z
" transform="scale(0.015625)"/>
       <path id="CMR17-68" d="M 2656 1954 
C 2656 2282 2592 2816 1837 2816 
C 1312 2816 1056 2392 979 2179 
L 973 2179 
L 973 4416 
L 211 4345 
L 211 4179 
C 589 4179 646 4141 646 3843 
L 646 443 
C 646 198 621 166 211 166 
L 211 0 
C 365 12 646 12 813 12 
C 979 12 1267 12 1421 0 
L 1421 166 
C 1011 166 986 192 986 443 
L 986 1678 
C 986 2269 1344 2713 1792 2713 
C 2266 2713 2317 2289 2317 1980 
L 2317 443 
C 2317 198 2291 166 1882 166 
L 1882 0 
C 2035 12 2317 12 2483 12 
C 2650 12 2938 12 3091 0 
L 3091 166 
C 2682 166 2656 192 2656 443 
L 2656 1954 
z
" transform="scale(0.015625)"/>
       <path id="CMR17-49" d="M 1261 3898 
C 1261 4185 1338 4185 1798 4185 
L 1798 4352 
C 1594 4339 1267 4339 1050 4339 
C 832 4339 506 4339 301 4352 
L 301 4185 
C 762 4185 838 4185 838 3898 
L 838 453 
C 838 166 762 166 301 166 
L 301 0 
C 506 12 832 12 1050 12 
C 1267 12 1594 12 1798 0 
L 1798 166 
C 1338 166 1261 166 1261 453 
L 1261 3898 
z
" transform="scale(0.015625)"/>
       <path id="CMR17-63" d="M 2234 2240 
C 2112 2240 1933 2240 1933 2015 
C 1933 1836 2080 1785 2163 1785 
C 2208 1785 2394 1804 2394 2028 
C 2394 2476 1958 2816 1466 2816 
C 787 2816 211 2201 211 1379 
C 211 521 813 -64 1466 -64 
C 2259 -64 2458 676 2458 747 
C 2458 773 2451 792 2406 792 
C 2362 792 2355 786 2330 702 
C 2163 180 1798 51 1523 51 
C 1114 51 621 431 621 1385 
C 621 2358 1094 2700 1472 2700 
C 1722 2700 2093 2582 2234 2240 
z
" transform="scale(0.015625)"/>
       <path id="CMR17-6f" d="M 2758 1356 
C 2758 2176 2163 2816 1466 2816 
C 768 2816 173 2176 173 1356 
C 173 550 768 -64 1466 -64 
C 2163 -64 2758 550 2758 1356 
z
M 1466 51 
C 1165 51 909 230 762 480 
C 602 768 582 1126 582 1408 
C 582 1676 595 2009 762 2297 
C 890 2508 1139 2713 1466 2713 
C 1754 2713 1997 2553 2150 2329 
C 2349 2028 2349 1606 2349 1408 
C 2349 1158 2336 774 2163 467 
C 1984 172 1709 51 1466 51 
z
" transform="scale(0.015625)"/>
      </defs>
      <use xlink:href="#CMR17-41" transform="scale(0.996264)"/>
      <use xlink:href="#CMR17-6d" transform="translate(69.07243 0) scale(0.996264)"/>
      <use xlink:href="#CMR17-70" transform="translate(145.99202 0) scale(0.996264)"/>
      <use xlink:href="#CMR17-6c" transform="translate(196.887389 0) scale(0.996264)"/>
      <use xlink:href="#CMR17-69" transform="translate(221.758448 0) scale(0.996264)"/>
      <use xlink:href="#CMR17-74" transform="translate(246.629506 0) scale(0.996264)"/>
      <use xlink:href="#CMR17-75" transform="translate(281.910274 0) scale(0.996264)"/>
      <use xlink:href="#CMR17-64" transform="translate(332.805644 0) scale(0.996264)"/>
      <use xlink:href="#CMR17-65" transform="translate(383.701014 0) scale(0.996264)"/>
      <use xlink:href="#CMR17-2f" transform="translate(424.186674 0) scale(0.996264)"/>
      <use xlink:href="#CMR17-53" transform="translate(469.877151 0) scale(0.996264)"/>
      <use xlink:href="#CMR17-68" transform="translate(520.772521 0) scale(0.996264)"/>
      <use xlink:href="#CMR17-61" transform="translate(571.667891 0) scale(0.996264)"/>
      <use xlink:href="#CMR17-70" transform="translate(617.358368 0) scale(0.996264)"/>
      <use xlink:href="#CMR17-65" transform="translate(670.856177 0) scale(0.996264)"/>
      <use xlink:href="#CMR17-49" transform="translate(741.417803 0) scale(0.996264)"/>
      <use xlink:href="#CMR17-6e" transform="translate(774.056213 0) scale(0.996264)"/>
      <use xlink:href="#CMR17-64" transform="translate(824.951582 0) scale(0.996264)"/>
      <use xlink:href="#CMR17-69" transform="translate(875.846952 0) scale(0.996264)"/>
      <use xlink:href="#CMR17-63" transform="translate(900.718011 0) scale(0.996264)"/>
      <use xlink:href="#CMR17-61" transform="translate(941.203671 0) scale(0.996264)"/>
      <use xlink:href="#CMR17-74" transform="translate(986.894148 0) scale(0.996264)"/>
      <use xlink:href="#CMR17-6f" transform="translate(1022.174916 0) scale(0.996264)"/>
      <use xlink:href="#CMR17-72" transform="translate(1067.865393 0) scale(0.996264)"/>
     </g>
    </g>
   </g>
   <g id="line2d_12">
    <path d="M 140.814205 379.217288 
L 292.996023 379.217288 
L 295.373864 144.91954 
L 361.953409 144.91954 
L 364.33125 379.217288 
L 747.163636 379.217288 
L 747.163636 379.217288 
" clip-path="url(#pd8e1493286)" style="fill: none; stroke-dasharray: 11.1,4.8; stroke-dashoffset: 0; stroke: #4e79a7; stroke-width: 3"/>
   </g>
   <g id="line2d_13">
    <path d="M 140.814205 357.408448 
L 143.192045 361.003188 
L 145.569886 363.439769 
L 147.947727 367.488907 
L 150.325568 366.526937 
L 152.703409 361.1743 
L 155.08125 353.179566 
L 157.459091 353.842042 
L 159.836932 354.041165 
L 162.214773 352.566416 
L 164.592614 352.315179 
L 166.970455 351.666168 
L 169.348295 351.886374 
L 171.726136 351.862883 
L 174.103977 353.034351 
L 176.481818 355.308879 
L 178.859659 354.227063 
L 181.2375 352.259594 
L 183.615341 354.303281 
L 185.993182 354.472819 
L 188.371023 354.774061 
L 190.748864 354.780942 
L 193.126705 355.863663 
L 195.504545 356.465699 
L 197.882386 355.936056 
L 200.260227 355.522039 
L 205.015909 358.171831 
L 207.39375 358.504384 
L 209.771591 356.848885 
L 212.149432 356.811612 
L 214.527273 358.234933 
L 216.905114 357.619447 
L 219.282955 358.801246 
L 221.660795 356.904078 
L 224.038636 358.776578 
L 226.416477 358.464144 
L 228.794318 357.984246 
L 231.172159 358.908646 
L 233.55 357.69851 
L 235.927841 357.848231 
L 238.305682 356.911932 
L 240.683523 355.673108 
L 243.061364 354.687794 
L 245.439205 354.818533 
L 250.194886 355.693859 
L 252.572727 355.294516 
L 254.950568 355.469405 
L 257.328409 354.654228 
L 259.70625 352.382934 
L 262.084091 352.596282 
L 264.461932 352.465966 
L 266.839773 352.875095 
L 269.217614 351.683371 
L 271.595455 350.681855 
L 273.973295 341.604726 
L 276.351136 325.935847 
L 278.728977 321.768284 
L 281.106818 316.917716 
L 283.484659 319.69568 
L 285.8625 331.149159 
L 288.240341 333.738773 
L 290.618182 344.159174 
L 292.996023 348.474859 
L 295.373864 348.199066 
L 297.751705 341.31786 
L 300.129545 348.087396 
L 302.507386 348.306092 
L 304.885227 347.636203 
L 307.263068 348.351773 
L 309.640909 348.552252 
L 312.01875 348.186785 
L 314.396591 346.993086 
L 316.774432 344.818999 
L 319.152273 335.650579 
L 321.530114 324.040206 
L 323.907955 313.183301 
L 326.285795 316.772012 
L 328.663636 330.868452 
L 331.041477 324.601888 
L 333.419318 328.119911 
L 335.797159 322.860144 
L 338.175 319.555236 
L 340.552841 312.013934 
L 342.930682 313.850211 
L 345.308523 297.673344 
L 347.686364 270.512465 
L 350.064205 263.897774 
L 352.442045 254.273784 
L 354.819886 236.07137 
L 357.197727 242.393617 
L 359.575568 274.203325 
L 361.953409 315.466175 
L 364.33125 359.650526 
L 366.709091 365.062681 
L 369.086932 365.066774 
L 371.464773 364.652806 
L 373.842614 363.031013 
L 376.220455 364.337071 
L 378.598295 361.225123 
L 380.976136 361.701239 
L 383.353977 362.302742 
L 385.731818 363.073408 
L 388.109659 362.09069 
L 392.865341 360.785941 
L 395.243182 361.384337 
L 397.621023 362.745774 
L 399.998864 363.201872 
L 402.376705 362.745486 
L 404.754545 362.870471 
L 407.132386 361.339231 
L 409.510227 360.810245 
L 411.888068 361.639386 
L 414.265909 363.771532 
L 416.64375 364.303768 
L 419.021591 365.2288 
L 421.399432 365.702613 
L 423.777273 364.996567 
L 426.155114 355.359415 
L 428.532955 346.260127 
L 430.910795 349.913048 
L 433.288636 349.377708 
L 435.666477 347.995816 
L 438.044318 348.473768 
L 440.422159 347.02479 
L 442.8 346.13307 
L 445.177841 347.554352 
L 447.555682 348.100774 
L 449.933523 347.840433 
L 452.311364 348.065643 
L 457.067045 350.541149 
L 459.444886 350.989142 
L 461.822727 352.707608 
L 464.200568 353.068051 
L 466.578409 354.61713 
L 468.95625 353.064623 
L 471.334091 354.931547 
L 473.711932 354.633582 
L 476.089773 356.581251 
L 480.845455 355.669865 
L 483.223295 356.417894 
L 485.601136 358.348387 
L 490.356818 359.041148 
L 492.734659 358.088634 
L 495.1125 358.449177 
L 497.490341 357.476585 
L 499.868182 357.903126 
L 502.246023 358.11183 
L 504.623864 360.415471 
L 507.001705 361.373156 
L 509.379545 359.225735 
L 511.757386 358.515002 
L 514.135227 359.715051 
L 518.890909 364.197469 
L 521.26875 364.673608 
L 523.646591 360.798731 
L 526.024432 357.144408 
L 528.402273 354.115539 
L 530.780114 349.463589 
L 533.157955 345.425149 
L 535.535795 350.925146 
L 537.913636 346.917805 
L 540.291477 348.84586 
L 542.669318 347.739709 
L 545.047159 346.208013 
L 547.425 347.171396 
L 549.802841 345.414712 
L 552.180682 348.950256 
L 554.558523 349.244265 
L 556.936364 350.359508 
L 559.314205 347.973783 
L 561.692045 349.551346 
L 564.069886 349.015916 
L 566.447727 348.887648 
L 568.825568 348.224919 
L 571.203409 347.847721 
L 573.58125 347.975616 
L 578.336932 350.181538 
L 580.714773 350.184131 
L 583.092614 349.495784 
L 585.470455 349.776107 
L 587.848295 349.712312 
L 592.603977 351.522946 
L 597.359659 352.750164 
L 599.7375 353.240992 
L 602.115341 354.066088 
L 606.871023 355.398039 
L 609.248864 355.057912 
L 611.626705 355.486839 
L 614.004545 359.805042 
L 618.760227 365.733665 
L 621.138068 366.737691 
L 623.515909 364.242497 
L 625.89375 364.592952 
L 628.271591 364.103112 
L 630.649432 365.988988 
L 633.027273 364.13375 
L 635.405114 368.529786 
L 637.782955 351.614878 
L 640.160795 352.09241 
L 642.538636 355.724065 
L 644.916477 358.496126 
L 647.294318 356.705393 
L 649.672159 355.810918 
L 652.05 356.030106 
L 654.427841 355.983097 
L 656.805682 353.805674 
L 659.183523 356.058279 
L 661.561364 353.419969 
L 663.939205 356.146152 
L 666.317045 355.281152 
L 668.694886 354.274653 
L 671.072727 354.793938 
L 673.450568 354.14006 
L 675.828409 354.495097 
L 678.20625 355.614198 
L 680.584091 355.590729 
L 682.961932 355.066553 
L 685.339773 356.254542 
L 687.717614 355.671496 
L 690.095455 355.228225 
L 692.473295 353.200601 
L 694.851136 354.085127 
L 697.228977 355.425141 
L 699.606818 356.488244 
L 701.984659 356.213683 
L 704.3625 355.59222 
L 706.740341 355.490934 
L 709.118182 354.920997 
L 711.496023 356.275312 
L 713.873864 356.241958 
L 716.251705 358.791534 
L 718.629545 360.423483 
L 721.007386 361.477562 
L 723.385227 359.236379 
L 725.763068 360.244568 
L 728.140909 362.514286 
L 730.51875 362.042498 
L 735.274432 363.813305 
L 740.030114 362.031973 
L 742.407955 362.252412 
L 744.785795 363.509617 
L 747.163636 362.587484 
L 747.163636 362.587484 
" clip-path="url(#pd8e1493286)" style="fill: none; stroke: #4e79a7; stroke-width: 3; stroke-linecap: round"/>
   </g>
   <g id="line2d_14">
    <path d="M 140.814205 379.217288 
L 521.26875 379.217288 
L 523.646591 144.91954 
L 614.004545 144.91954 
L 616.382386 379.217288 
L 747.163636 379.217288 
L 747.163636 379.217288 
" clip-path="url(#pd8e1493286)" style="fill: none; stroke-dasharray: 11.1,4.8; stroke-dashoffset: 0; stroke: #f28e2b; stroke-width: 3"/>
   </g>
   <g id="line2d_15">
    <path d="M 140.814205 367.50009 
L 143.192045 369.235748 
L 145.569886 369.737384 
L 147.947727 369.469445 
L 150.325568 359.652321 
L 152.703409 331.712583 
L 155.08125 301.466802 
L 157.459091 301.751873 
L 159.836932 306.254613 
L 162.214773 302.397329 
L 164.592614 303.667077 
L 166.970455 300.196157 
L 169.348295 300.425443 
L 171.726136 301.674622 
L 174.103977 309.192811 
L 176.481818 322.06661 
L 178.859659 338.697912 
L 181.2375 346.144853 
L 183.615341 346.337788 
L 185.993182 347.864293 
L 188.371023 342.301251 
L 190.748864 344.972602 
L 193.126705 347.268172 
L 195.504545 352.039107 
L 197.882386 355.240558 
L 200.260227 363.22827 
L 202.638068 366.524691 
L 205.015909 368.398125 
L 207.39375 367.346296 
L 209.771591 368.73148 
L 212.149432 368.886269 
L 214.527273 370.26818 
L 216.905114 369.949266 
L 219.282955 368.933231 
L 221.660795 370.030471 
L 224.038636 371.522495 
L 226.416477 372.256892 
L 228.794318 371.453457 
L 231.172159 370.075563 
L 233.55 369.745764 
L 235.927841 367.550643 
L 238.305682 364.676961 
L 240.683523 358.442849 
L 243.061364 349.087162 
L 245.439205 343.817145 
L 247.817045 338.894653 
L 250.194886 338.436814 
L 252.572727 340.857088 
L 254.950568 345.180641 
L 257.328409 347.917821 
L 259.70625 350.4761 
L 262.084091 353.939324 
L 264.461932 354.554638 
L 266.839773 349.635632 
L 269.217614 346.917991 
L 271.595455 348.556506 
L 273.973295 335.747294 
L 276.351136 329.324889 
L 278.728977 331.800591 
L 281.106818 336.551022 
L 283.484659 333.859308 
L 285.8625 328.71956 
L 288.240341 342.757923 
L 290.618182 353.28665 
L 292.996023 358.966618 
L 295.373864 360.94229 
L 297.751705 361.157025 
L 300.129545 362.294041 
L 302.507386 361.248159 
L 304.885227 360.328663 
L 307.263068 360.363271 
L 309.640909 360.27175 
L 316.774432 357.71417 
L 319.152273 353.428615 
L 321.530114 349.639106 
L 323.907955 349.376213 
L 326.285795 350.573918 
L 328.663636 352.002157 
L 331.041477 352.428518 
L 333.419318 351.895806 
L 335.797159 350.370642 
L 338.175 350.352467 
L 340.552841 348.443021 
L 342.930682 347.340192 
L 345.308523 352.21531 
L 347.686364 352.789694 
L 350.064205 354.568586 
L 352.442045 354.603074 
L 354.819886 356.06501 
L 357.197727 351.84046 
L 359.575568 355.228346 
L 361.953409 363.78332 
L 364.33125 368.697196 
L 366.709091 371.703214 
L 369.086932 372.293211 
L 371.464773 372.050601 
L 373.842614 371.330467 
L 376.220455 372.330661 
L 378.598295 370.568929 
L 380.976136 371.310899 
L 385.731818 372.106211 
L 392.865341 370.77082 
L 395.243182 370.733552 
L 397.621023 371.448294 
L 399.998864 371.364223 
L 402.376705 371.025855 
L 404.754545 371.127957 
L 407.132386 370.009592 
L 409.510227 370.143365 
L 411.888068 370.493136 
L 414.265909 371.485568 
L 416.64375 371.716825 
L 419.021591 372.706315 
L 421.399432 372.736712 
L 423.777273 369.964434 
L 426.155114 354.016444 
L 428.532955 319.806762 
L 430.910795 274.828025 
L 433.288636 243.268109 
L 435.666477 233.393874 
L 438.044318 232.630336 
L 440.422159 234.198853 
L 442.8 237.660602 
L 445.177841 245.073115 
L 447.555682 248.828669 
L 449.933523 251.199594 
L 452.311364 262.169122 
L 457.067045 291.49129 
L 459.444886 304.142139 
L 461.822727 314.276459 
L 464.200568 330.136892 
L 466.578409 343.277432 
L 468.95625 347.138575 
L 471.334091 353.944424 
L 473.711932 359.782263 
L 476.089773 363.420714 
L 478.467614 365.788383 
L 480.845455 365.711929 
L 483.223295 366.153363 
L 485.601136 368.674148 
L 487.978977 369.98114 
L 492.734659 370.081553 
L 495.1125 369.365622 
L 497.490341 368.806311 
L 499.868182 369.885314 
L 502.246023 370.104109 
L 504.623864 370.698652 
L 507.001705 370.569205 
L 509.379545 368.551443 
L 511.757386 363.15434 
L 514.135227 358.108053 
L 516.513068 354.604814 
L 518.890909 350.105457 
L 521.26875 336.055643 
L 523.646591 306.862258 
L 526.024432 274.178339 
L 528.402273 254.006466 
L 533.157955 243.839892 
L 535.535795 254.445614 
L 537.913636 257.910738 
L 540.291477 261.572329 
L 542.669318 260.541032 
L 545.047159 243.515305 
L 547.425 233.928195 
L 549.802841 230.518735 
L 552.180682 229.427282 
L 554.558523 229.795557 
L 556.936364 229.8827 
L 559.314205 227.428764 
L 561.692045 225.620219 
L 564.069886 227.516977 
L 566.447727 223.091476 
L 568.825568 220.910526 
L 571.203409 220.78428 
L 573.58125 219.047284 
L 575.959091 218.258132 
L 578.336932 215.228875 
L 580.714773 214.789633 
L 583.092614 214.612019 
L 585.470455 215.264649 
L 587.848295 212.623486 
L 590.226136 211.458459 
L 592.603977 209.295024 
L 594.981818 208.314094 
L 597.359659 207.675999 
L 599.7375 207.350714 
L 602.115341 206.52751 
L 604.493182 205.887146 
L 606.871023 205.079071 
L 609.248864 204.997176 
L 611.626705 204.746617 
L 614.004545 214.973811 
L 616.382386 255.283715 
L 618.760227 326.974267 
L 621.138068 362.29365 
L 623.515909 368.319031 
L 625.89375 369.925122 
L 628.271591 370.845801 
L 630.649432 372.155305 
L 633.027273 370.292909 
L 635.405114 371.332735 
L 637.782955 363.195407 
L 640.160795 367.76051 
L 642.538636 368.679554 
L 644.916477 370.487081 
L 647.294318 369.861636 
L 649.672159 369.001518 
L 652.05 368.414329 
L 654.427841 367.623475 
L 656.805682 365.549752 
L 659.183523 366.675873 
L 661.561364 363.887553 
L 663.939205 366.834267 
L 666.317045 368.156633 
L 668.694886 367.250727 
L 671.072727 366.954764 
L 675.828409 366.099905 
L 678.20625 365.925553 
L 680.584091 366.111714 
L 682.961932 365.672419 
L 685.339773 366.803516 
L 687.717614 367.52183 
L 690.095455 367.667602 
L 692.473295 367.084355 
L 694.851136 367.867471 
L 697.228977 368.153221 
L 699.606818 368.77584 
L 701.984659 369.171763 
L 704.3625 369.014826 
L 706.740341 368.713699 
L 709.118182 369.437442 
L 711.496023 369.607759 
L 713.873864 368.162716 
L 716.251705 368.26878 
L 718.629545 367.509422 
L 721.007386 367.958798 
L 723.385227 368.706448 
L 725.763068 369.757836 
L 728.140909 371.355028 
L 730.51875 371.396368 
L 732.896591 372.326734 
L 735.274432 372.736884 
L 740.030114 372.09521 
L 744.785795 372.43766 
L 747.163636 373.647359 
L 747.163636 373.647359 
" clip-path="url(#pd8e1493286)" style="fill: none; stroke: #f28e2b; stroke-width: 3; stroke-linecap: round"/>
   </g>
   <g id="line2d_16">
    <path d="M 140.814205 379.217288 
L 747.163636 379.217288 
L 747.163636 379.217288 
" clip-path="url(#pd8e1493286)" style="fill: none; stroke-dasharray: 11.1,4.8; stroke-dashoffset: 0; stroke: #e15759; stroke-width: 3"/>
   </g>
   <g id="line2d_17">
    <path d="M 140.814205 362.444344 
L 143.192045 364.362868 
L 145.569886 368.50669 
L 147.947727 370.934684 
L 150.325568 369.202877 
L 152.703409 365.482403 
L 155.08125 355.790422 
L 157.459091 357.1804 
L 159.836932 358.412764 
L 162.214773 356.644826 
L 164.592614 356.087721 
L 166.970455 354.962999 
L 169.348295 355.255544 
L 171.726136 355.32583 
L 174.103977 355.547021 
L 176.481818 359.439814 
L 178.859659 359.373853 
L 181.2375 356.152447 
L 183.615341 355.746354 
L 185.993182 356.824614 
L 188.371023 357.487795 
L 190.748864 357.528308 
L 193.126705 358.131389 
L 195.504545 359.089264 
L 197.882386 358.664327 
L 200.260227 359.528134 
L 202.638068 361.086422 
L 205.015909 362.844011 
L 207.39375 362.874349 
L 209.771591 362.006522 
L 212.149432 361.688253 
L 214.527273 363.216778 
L 216.905114 362.770683 
L 219.282955 363.185106 
L 221.660795 362.178325 
L 224.038636 363.797466 
L 226.416477 364.214965 
L 228.794318 363.42313 
L 231.172159 363.739805 
L 233.55 362.833822 
L 235.927841 362.157053 
L 238.305682 360.807737 
L 240.683523 358.40256 
L 243.061364 357.794792 
L 245.439205 357.830987 
L 250.194886 358.483304 
L 252.572727 357.751852 
L 254.950568 358.13079 
L 257.328409 357.826573 
L 259.70625 356.252419 
L 262.084091 356.956917 
L 264.461932 356.775937 
L 266.839773 356.847887 
L 269.217614 354.347647 
L 271.595455 354.672042 
L 273.973295 341.703821 
L 276.351136 306.835474 
L 278.728977 270.09729 
L 281.106818 263.583835 
L 283.484659 243.091414 
L 285.8625 229.919161 
L 288.240341 226.626892 
L 290.618182 222.141805 
L 292.996023 217.906243 
L 295.373864 220.039979 
L 297.751705 219.359616 
L 300.129545 215.354865 
L 302.507386 218.394118 
L 304.885227 219.405364 
L 309.640909 222.686764 
L 312.01875 220.384001 
L 314.396591 218.530931 
L 316.774432 222.099898 
L 319.152273 223.626519 
L 321.530114 235.219549 
L 323.907955 246.155072 
L 326.285795 242.471183 
L 328.663636 248.547572 
L 331.041477 257.412738 
L 333.419318 273.75134 
L 338.175 293.501486 
L 340.552841 308.768745 
L 342.930682 333.886674 
L 345.308523 334.615956 
L 347.686364 332.111192 
L 350.064205 330.411408 
L 352.442045 337.927339 
L 354.819886 342.947466 
L 357.197727 353.178277 
L 359.575568 362.328895 
L 361.953409 367.672014 
L 364.33125 370.178516 
L 366.709091 368.702067 
L 369.086932 366.210111 
L 371.464773 365.172493 
L 373.842614 362.842165 
L 376.220455 363.867289 
L 378.598295 361.702627 
L 380.976136 362.798455 
L 383.353977 362.923953 
L 385.731818 363.629967 
L 388.109659 363.403713 
L 390.4875 362.608147 
L 392.865341 362.185294 
L 395.243182 362.580826 
L 397.621023 363.091187 
L 399.998864 363.142198 
L 402.376705 362.789618 
L 404.754545 362.676632 
L 407.132386 361.976232 
L 409.510227 362.371487 
L 411.888068 362.602865 
L 414.265909 364.036194 
L 416.64375 364.534468 
L 419.021591 365.780018 
L 421.399432 366.699849 
L 423.777273 368.052112 
L 426.155114 367.884219 
L 428.532955 364.245731 
L 430.910795 360.268474 
L 433.288636 358.279889 
L 435.666477 354.763375 
L 438.044318 354.977322 
L 440.422159 352.568089 
L 442.8 352.433194 
L 445.177841 352.735236 
L 447.555682 352.477568 
L 449.933523 352.428326 
L 452.311364 352.809234 
L 454.689205 353.902386 
L 457.067045 353.932929 
L 459.444886 354.269538 
L 461.822727 355.996519 
L 464.200568 356.576663 
L 466.578409 357.463058 
L 468.95625 355.687883 
L 471.334091 357.663149 
L 473.711932 357.775203 
L 476.089773 360.06281 
L 478.467614 360.371661 
L 480.845455 359.940312 
L 483.223295 360.744158 
L 485.601136 362.940044 
L 487.978977 363.553139 
L 490.356818 363.702988 
L 492.734659 363.235839 
L 495.1125 363.223471 
L 497.490341 362.540209 
L 502.246023 363.472106 
L 504.623864 365.524309 
L 507.001705 366.238386 
L 509.379545 364.313302 
L 511.757386 363.186428 
L 514.135227 361.337011 
L 516.513068 363.001223 
L 518.890909 365.473688 
L 521.26875 366.22688 
L 523.646591 364.195751 
L 526.024432 361.248633 
L 528.402273 359.065465 
L 530.780114 355.653106 
L 533.157955 351.156804 
L 535.535795 355.502307 
L 537.913636 351.717342 
L 540.291477 352.992039 
L 542.669318 353.258708 
L 545.047159 350.335206 
L 547.425 351.387925 
L 549.802841 349.962089 
L 552.180682 353.338004 
L 554.558523 353.860732 
L 556.936364 354.186753 
L 559.314205 351.882935 
L 561.692045 352.885571 
L 564.069886 353.159575 
L 566.447727 353.050382 
L 568.825568 352.129985 
L 571.203409 353.208977 
L 573.58125 352.66012 
L 575.959091 353.737358 
L 578.336932 354.082261 
L 580.714773 354.908939 
L 583.092614 354.846997 
L 585.470455 355.324988 
L 587.848295 354.384984 
L 590.226136 356.107675 
L 592.603977 357.001245 
L 594.981818 358.071497 
L 597.359659 358.676563 
L 599.7375 358.868532 
L 602.115341 359.604971 
L 604.493182 360.132101 
L 606.871023 360.959126 
L 609.248864 361.30613 
L 611.626705 361.864987 
L 614.004545 364.250901 
L 616.382386 365.074864 
L 618.760227 369.509399 
L 621.138068 370.949599 
L 625.89375 368.670266 
L 628.271591 364.907553 
L 630.649432 365.817233 
L 633.027273 364.033123 
L 635.405114 367.558636 
L 637.782955 367.047224 
L 640.160795 369.048682 
L 642.538636 363.34362 
L 644.916477 366.991136 
L 647.294318 366.767125 
L 649.672159 364.905575 
L 652.05 364.382094 
L 654.427841 366.083185 
L 656.805682 364.224185 
L 659.183523 366.937375 
L 661.561364 365.060534 
L 663.939205 364.09447 
L 666.317045 365.380807 
L 668.694886 365.032067 
L 673.450568 363.440834 
L 675.828409 365.071837 
L 678.20625 365.133082 
L 680.584091 364.643388 
L 682.961932 364.675348 
L 685.339773 365.539131 
L 687.717614 363.480063 
L 690.095455 363.256775 
L 692.473295 364.122125 
L 694.851136 364.155888 
L 697.228977 364.991336 
L 699.606818 364.887128 
L 701.984659 363.84579 
L 704.3625 364.415801 
L 706.740341 365.803377 
L 711.496023 366.423031 
L 713.873864 364.194609 
L 716.251705 365.185639 
L 718.629545 365.286712 
L 721.007386 366.009116 
L 723.385227 364.567146 
L 725.763068 361.653514 
L 728.140909 362.229436 
L 730.51875 361.419675 
L 732.896591 362.345589 
L 735.274432 363.070639 
L 737.652273 363.148997 
L 740.030114 362.50577 
L 742.407955 362.794632 
L 744.785795 364.179403 
L 747.163636 361.439109 
L 747.163636 361.439109 
" clip-path="url(#pd8e1493286)" style="fill: none; stroke: #e15759; stroke-width: 3; stroke-linecap: round"/>
   </g>
   <g id="line2d_18">
    <path d="M 140.814205 379.217288 
L 635.405114 379.217288 
L 637.782955 144.91954 
L 721.007386 144.91954 
L 723.385227 379.217288 
L 747.163636 379.217288 
L 747.163636 379.217288 
" clip-path="url(#pd8e1493286)" style="fill: none; stroke-dasharray: 11.1,4.8; stroke-dashoffset: 0; stroke: #76b7b2; stroke-width: 3"/>
   </g>
   <g id="line2d_19">
    <path d="M 140.814205 360.228644 
L 143.192045 364.068538 
L 145.569886 364.80714 
L 147.947727 367.022783 
L 150.325568 365.338139 
L 152.703409 366.568455 
L 155.08125 365.860128 
L 157.459091 365.62406 
L 159.836932 366.332026 
L 162.214773 365.875091 
L 164.592614 365.300225 
L 166.970455 365.570646 
L 169.348295 366.142598 
L 171.726136 366.99542 
L 174.103977 368.106969 
L 176.481818 369.700173 
L 178.859659 369.436623 
L 181.2375 362.429727 
L 183.615341 366.449487 
L 185.993182 366.336748 
L 188.371023 368.307846 
L 190.748864 367.189654 
L 193.126705 369.225494 
L 195.504545 368.571146 
L 197.882386 368.360541 
L 200.260227 366.322824 
L 202.638068 369.266915 
L 205.015909 369.127173 
L 207.39375 368.855276 
L 209.771591 366.61238 
L 212.149432 366.922175 
L 214.527273 369.118065 
L 216.905114 367.465336 
L 219.282955 367.284414 
L 221.660795 366.391687 
L 226.416477 368.851267 
L 228.794318 365.518383 
L 231.172159 367.68237 
L 233.55 366.528836 
L 235.927841 367.928603 
L 238.305682 368.530531 
L 240.683523 368.347843 
L 243.061364 368.308232 
L 245.439205 368.814412 
L 247.817045 368.060209 
L 252.572727 368.366675 
L 254.950568 367.802438 
L 257.328409 367.534245 
L 259.70625 364.835318 
L 262.084091 364.094858 
L 264.461932 365.096979 
L 266.839773 365.351846 
L 269.217614 366.083675 
L 271.595455 367.574578 
L 273.973295 359.511481 
L 276.351136 357.530775 
L 278.728977 346.351404 
L 281.106818 348.235329 
L 283.484659 345.080123 
L 285.8625 349.039639 
L 288.240341 352.175151 
L 290.618182 356.444216 
L 292.996023 359.381289 
L 295.373864 358.721537 
L 300.129545 361.108457 
L 302.507386 360.644741 
L 304.885227 360.00509 
L 307.263068 360.322645 
L 309.640909 360.041634 
L 312.01875 360.452587 
L 314.396591 359.804433 
L 316.774432 359.002158 
L 319.152273 359.115487 
L 321.530114 356.768343 
L 323.907955 357.627699 
L 326.285795 358.935305 
L 328.663636 358.048223 
L 331.041477 359.468957 
L 333.419318 359.496459 
L 335.797159 359.337706 
L 340.552841 362.116376 
L 342.930682 363.544274 
L 345.308523 360.860285 
L 347.686364 360.35926 
L 350.064205 358.254111 
L 352.442045 357.852924 
L 354.819886 358.814046 
L 357.197727 359.017188 
L 359.575568 357.025793 
L 361.953409 363.861864 
L 364.33125 367.615005 
L 366.709091 366.250412 
L 369.086932 364.518646 
L 373.842614 362.584566 
L 376.220455 364.275062 
L 378.598295 362.057217 
L 380.976136 363.642174 
L 383.353977 363.178512 
L 385.731818 363.449333 
L 388.109659 363.267235 
L 392.865341 363.482743 
L 395.243182 363.900097 
L 397.621023 364.628461 
L 399.998864 364.683836 
L 402.376705 364.302206 
L 404.754545 364.830731 
L 407.132386 364.062152 
L 411.888068 364.960354 
L 414.265909 365.541397 
L 416.64375 365.390598 
L 419.021591 365.67711 
L 421.399432 363.948873 
L 423.777273 365.860138 
L 426.155114 364.482373 
L 428.532955 368.112518 
L 430.910795 365.007527 
L 435.666477 360.176049 
L 438.044318 359.695318 
L 440.422159 354.249873 
L 442.8 354.051735 
L 445.177841 355.93048 
L 447.555682 355.163288 
L 449.933523 355.635089 
L 452.311364 357.617294 
L 454.689205 359.020246 
L 457.067045 362.586984 
L 459.444886 362.34133 
L 461.822727 364.537699 
L 464.200568 366.106656 
L 466.578409 365.918968 
L 468.95625 364.893102 
L 471.334091 367.043412 
L 473.711932 365.630023 
L 476.089773 366.624016 
L 478.467614 368.430896 
L 480.845455 366.22252 
L 483.223295 366.560625 
L 485.601136 367.675585 
L 487.978977 367.351954 
L 490.356818 368.278876 
L 492.734659 368.094029 
L 495.1125 368.454215 
L 497.490341 367.930712 
L 499.868182 367.028266 
L 502.246023 367.442918 
L 504.623864 368.71688 
L 507.001705 369.388259 
L 509.379545 367.190311 
L 511.757386 366.921104 
L 514.135227 364.348934 
L 516.513068 367.008906 
L 518.890909 367.879492 
L 521.26875 366.697301 
L 523.646591 364.964786 
L 526.024432 365.595335 
L 528.402273 365.39986 
L 533.157955 358.599571 
L 535.535795 362.952358 
L 537.913636 359.183277 
L 542.669318 362.324229 
L 545.047159 359.605681 
L 547.425 360.356368 
L 549.802841 358.958097 
L 552.180682 361.676598 
L 554.558523 362.156907 
L 556.936364 362.971781 
L 559.314205 361.230736 
L 561.692045 362.214694 
L 564.069886 361.721112 
L 566.447727 361.485825 
L 568.825568 360.666641 
L 571.203409 360.350562 
L 573.58125 360.159745 
L 575.959091 360.995148 
L 578.336932 361.410701 
L 580.714773 361.361625 
L 583.092614 360.814794 
L 585.470455 361.094588 
L 587.848295 360.566347 
L 590.226136 361.259036 
L 594.981818 362.229592 
L 599.7375 363.029302 
L 604.493182 364.183066 
L 606.871023 364.614372 
L 609.248864 364.166679 
L 611.626705 364.273673 
L 614.004545 363.25934 
L 616.382386 360.606126 
L 618.760227 365.196923 
L 621.138068 367.989731 
L 623.515909 366.065971 
L 625.89375 365.832698 
L 628.271591 365.105979 
L 630.649432 365.246938 
L 633.027273 361.129814 
L 635.405114 363.893619 
L 637.782955 244.663329 
L 640.160795 225.441802 
L 644.916477 210.638083 
L 647.294318 210.522475 
L 649.672159 211.11531 
L 652.05 210.489982 
L 654.427841 212.192775 
L 656.805682 215.841076 
L 659.183523 215.37558 
L 661.561364 217.330887 
L 663.939205 212.984743 
L 666.317045 210.857326 
L 671.072727 211.123282 
L 673.450568 212.110729 
L 675.828409 213.327578 
L 678.20625 213.293328 
L 680.584091 213.771091 
L 682.961932 215.104852 
L 685.339773 212.927823 
L 687.717614 211.241661 
L 690.095455 212.266977 
L 692.473295 211.134629 
L 694.851136 209.676321 
L 697.228977 210.26172 
L 699.606818 209.234868 
L 701.984659 208.670231 
L 704.3625 209.38013 
L 706.740341 209.230213 
L 709.118182 207.843407 
L 711.496023 208.227707 
L 713.873864 211.100903 
L 716.251705 215.811667 
L 718.629545 221.563866 
L 721.007386 235.28785 
L 723.385227 264.221953 
L 725.763068 318.473995 
L 728.140909 351.059248 
L 730.51875 357.506042 
L 732.896591 361.89376 
L 735.274432 363.040226 
L 737.652273 363.390177 
L 740.030114 363.8527 
L 742.407955 364.464713 
L 744.785795 364.576352 
L 747.163636 366.476168 
L 747.163636 366.476168 
" clip-path="url(#pd8e1493286)" style="fill: none; stroke: #76b7b2; stroke-width: 3; stroke-linecap: round"/>
   </g>
   <g id="line2d_20">
    <path d="M 140.814205 379.217288 
L 178.859659 379.217288 
L 181.2375 144.91954 
L 283.484659 144.91954 
L 285.8625 379.217288 
L 747.163636 379.217288 
L 747.163636 379.217288 
" clip-path="url(#pd8e1493286)" style="fill: none; stroke-dasharray: 11.1,4.8; stroke-dashoffset: 0; stroke: #59a14f; stroke-width: 3"/>
   </g>
   <g id="line2d_21">
    <path d="M 140.814205 366.965253 
L 143.192045 356.541603 
L 145.569886 357.635475 
L 147.947727 360.998332 
L 150.325568 357.342849 
L 152.703409 351.739651 
L 155.08125 352.43107 
L 157.459091 349.681964 
L 159.836932 347.577389 
L 162.214773 349.363377 
L 164.592614 349.995507 
L 166.970455 348.514133 
L 169.348295 347.954535 
L 171.726136 350.275984 
L 174.103977 350.895139 
L 176.481818 354.342861 
L 178.859659 354.398545 
L 181.2375 351.149256 
L 183.615341 346.297592 
L 185.993182 347.676772 
L 188.371023 350.532016 
L 190.748864 350.972844 
L 193.126705 352.636566 
L 195.504545 351.899734 
L 197.882386 353.085606 
L 200.260227 354.120133 
L 202.638068 357.027065 
L 205.015909 356.559827 
L 207.39375 355.543614 
L 209.771591 355.363304 
L 212.149432 355.995615 
L 214.527273 356.812514 
L 216.905114 356.24842 
L 219.282955 357.326058 
L 221.660795 356.442444 
L 224.038636 358.539202 
L 226.416477 357.830882 
L 228.794318 357.598627 
L 231.172159 356.162138 
L 233.55 354.889693 
L 235.927841 354.399327 
L 240.683523 350.868055 
L 243.061364 350.301395 
L 247.817045 349.435437 
L 250.194886 349.374304 
L 252.572727 344.233754 
L 254.950568 341.762658 
L 257.328409 337.997942 
L 259.70625 337.084904 
L 262.084091 331.988984 
L 264.461932 335.392452 
L 266.839773 329.467032 
L 269.217614 334.743444 
L 271.595455 343.013123 
L 273.973295 336.902812 
L 276.351136 345.875469 
L 278.728977 346.465349 
L 281.106818 352.729728 
L 283.484659 353.758262 
L 285.8625 354.505419 
L 288.240341 357.297893 
L 290.618182 361.771848 
L 292.996023 364.376748 
L 295.373864 363.078797 
L 297.751705 362.503642 
L 300.129545 364.089933 
L 302.507386 363.908254 
L 304.885227 363.420783 
L 307.263068 363.877786 
L 309.640909 363.523332 
L 312.01875 364.000594 
L 314.396591 363.633971 
L 316.774432 361.660417 
L 319.152273 360.628841 
L 321.530114 355.152202 
L 323.907955 349.320486 
L 326.285795 354.885458 
L 328.663636 355.294686 
L 331.041477 356.910199 
L 333.419318 357.016745 
L 335.797159 353.662053 
L 338.175 352.010583 
L 342.930682 350.056707 
L 345.308523 349.170229 
L 347.686364 353.254754 
L 350.064205 351.984764 
L 352.442045 354.630981 
L 354.819886 354.414677 
L 357.197727 353.643593 
L 359.575568 353.421467 
L 361.953409 356.762766 
L 364.33125 358.446048 
L 366.709091 361.188718 
L 369.086932 359.695322 
L 371.464773 359.630964 
L 373.842614 357.185828 
L 376.220455 359.849628 
L 378.598295 356.301664 
L 380.976136 357.095646 
L 383.353977 356.531175 
L 385.731818 357.251027 
L 388.109659 356.658412 
L 390.4875 357.028604 
L 392.865341 357.053634 
L 395.243182 356.432902 
L 397.621023 357.831876 
L 399.998864 358.242037 
L 402.376705 357.478945 
L 404.754545 358.353759 
L 407.132386 355.68999 
L 409.510227 355.360682 
L 411.888068 356.677533 
L 414.265909 358.303838 
L 416.64375 358.418663 
L 419.021591 358.676605 
L 421.399432 354.429027 
L 423.777273 357.509802 
L 426.155114 347.765568 
L 428.532955 353.65201 
L 430.910795 351.606379 
L 433.288636 353.553532 
L 435.666477 348.815817 
L 438.044318 348.501669 
L 440.422159 344.492902 
L 442.8 344.718481 
L 445.177841 341.82565 
L 447.555682 343.185628 
L 452.311364 344.872661 
L 454.689205 347.120813 
L 457.067045 348.109639 
L 459.444886 349.370819 
L 461.822727 351.671966 
L 464.200568 350.007392 
L 466.578409 352.32986 
L 468.95625 350.722982 
L 471.334091 352.565192 
L 473.711932 352.593582 
L 476.089773 355.621218 
L 478.467614 354.792865 
L 480.845455 354.247426 
L 483.223295 354.842581 
L 485.601136 356.31923 
L 487.978977 356.438248 
L 490.356818 357.145745 
L 492.734659 356.647512 
L 495.1125 357.169932 
L 497.490341 356.451152 
L 499.868182 358.462762 
L 502.246023 357.438366 
L 504.623864 355.638924 
L 507.001705 355.177522 
L 509.379545 353.013909 
L 511.757386 352.834491 
L 514.135227 350.679038 
L 516.513068 351.884866 
L 518.890909 351.32489 
L 521.26875 353.639697 
L 523.646591 354.638188 
L 526.024432 352.927138 
L 528.402273 350.763295 
L 530.780114 349.098698 
L 533.157955 346.853969 
L 535.535795 345.349687 
L 537.913636 343.26846 
L 540.291477 347.436069 
L 542.669318 347.484107 
L 545.047159 340.850534 
L 547.425 343.131176 
L 549.802841 341.625136 
L 552.180682 346.478316 
L 554.558523 346.503361 
L 556.936364 347.911769 
L 559.314205 346.624768 
L 561.692045 348.691541 
L 564.069886 348.137468 
L 566.447727 348.683741 
L 568.825568 350.736738 
L 571.203409 351.297364 
L 573.58125 351.741819 
L 575.959091 351.005772 
L 578.336932 351.57977 
L 580.714773 352.000085 
L 583.092614 353.349962 
L 585.470455 352.138088 
L 587.848295 353.472347 
L 590.226136 354.527717 
L 592.603977 355.828291 
L 594.981818 356.55296 
L 597.359659 356.715505 
L 599.7375 356.721926 
L 602.115341 356.90674 
L 604.493182 357.438197 
L 606.871023 357.850458 
L 609.248864 356.874803 
L 611.626705 356.458303 
L 616.382386 361.475465 
L 618.760227 361.356609 
L 621.138068 359.63684 
L 623.515909 359.785255 
L 625.89375 361.393227 
L 630.649432 360.415329 
L 633.027273 358.621815 
L 635.405114 365.601492 
L 637.782955 346.254084 
L 640.160795 340.079443 
L 642.538636 344.566051 
L 644.916477 352.002532 
L 647.294318 352.086908 
L 649.672159 353.128072 
L 652.05 355.544242 
L 654.427841 355.110822 
L 656.805682 354.901418 
L 659.183523 356.152011 
L 663.939205 357.656976 
L 666.317045 356.585806 
L 668.694886 356.737027 
L 671.072727 357.998178 
L 673.450568 358.125461 
L 675.828409 358.555094 
L 678.20625 360.042178 
L 680.584091 359.825197 
L 682.961932 359.071853 
L 685.339773 358.979975 
L 687.717614 358.403115 
L 690.095455 356.167367 
L 692.473295 356.128274 
L 694.851136 357.301031 
L 697.228977 357.333078 
L 699.606818 358.072687 
L 701.984659 357.800362 
L 704.3625 356.621753 
L 706.740341 357.148532 
L 711.496023 355.23375 
L 713.873864 354.745863 
L 716.251705 354.655426 
L 718.629545 354.80893 
L 721.007386 357.183313 
L 723.385227 359.249977 
L 725.763068 360.30514 
L 728.140909 361.934768 
L 730.51875 357.962493 
L 732.896591 358.008277 
L 735.274432 359.354665 
L 737.652273 358.637774 
L 742.407955 358.867355 
L 744.785795 356.991395 
L 747.163636 361.347932 
L 747.163636 361.347932 
" clip-path="url(#pd8e1493286)" style="fill: none; stroke: #59a14f; stroke-width: 3; stroke-linecap: round"/>
   </g>
   <g id="line2d_22">
    <path d="M 140.814205 379.217288 
L 407.132386 379.217288 
L 409.510227 144.91954 
L 521.26875 144.91954 
L 523.646591 379.217288 
L 747.163636 379.217288 
L 747.163636 379.217288 
" clip-path="url(#pd8e1493286)" style="fill: none; stroke-dasharray: 11.1,4.8; stroke-dashoffset: 0; stroke: #edc948; stroke-width: 3"/>
   </g>
   <g id="line2d_23">
    <path d="M 140.814205 367.511693 
L 143.192045 366.458771 
L 145.569886 371.494889 
L 147.947727 372.757785 
L 150.325568 367.485456 
L 152.703409 336.96771 
L 155.08125 285.065001 
L 157.459091 279.328868 
L 159.836932 275.123285 
L 162.214773 275.604178 
L 164.592614 274.86949 
L 166.970455 275.448535 
L 169.348295 274.010116 
L 171.726136 271.749785 
L 174.103977 264.927721 
L 176.481818 258.737317 
L 178.859659 244.801736 
L 181.2375 239.835315 
L 183.615341 235.214417 
L 185.993182 233.780792 
L 188.371023 239.5197 
L 190.748864 237.058561 
L 193.126705 233.956312 
L 195.504545 229.416947 
L 197.882386 226.750391 
L 200.260227 218.871625 
L 202.638068 214.262935 
L 205.015909 212.058837 
L 207.39375 214.547558 
L 209.771591 212.397214 
L 212.149432 212.520702 
L 214.527273 210.120206 
L 216.905114 211.071797 
L 219.282955 212.970964 
L 221.660795 210.736818 
L 224.038636 209.092365 
L 226.416477 207.127643 
L 228.794318 209.057743 
L 231.172159 211.190618 
L 233.55 211.26262 
L 235.927841 214.376262 
L 238.305682 217.283975 
L 240.683523 223.362867 
L 243.061364 233.277555 
L 247.817045 243.041337 
L 250.194886 243.677779 
L 252.572727 239.49518 
L 254.950568 239.164215 
L 257.328409 239.499055 
L 259.70625 237.198597 
L 262.084091 239.00621 
L 264.461932 237.710586 
L 266.839773 238.384129 
L 269.217614 240.863819 
L 271.595455 239.196708 
L 273.973295 249.035704 
L 276.351136 282.324306 
L 278.728977 313.331833 
L 281.106818 330.996353 
L 283.484659 330.661228 
L 285.8625 326.718179 
L 288.240341 333.647528 
L 290.618182 346.093277 
L 292.996023 352.511612 
L 295.373864 353.128281 
L 297.751705 353.048397 
L 300.129545 354.290113 
L 302.507386 353.838841 
L 304.885227 353.25224 
L 307.263068 353.834748 
L 309.640909 354.047639 
L 312.01875 352.87709 
L 316.774432 349.607983 
L 319.152273 342.052111 
L 321.530114 337.582026 
L 323.907955 331.504373 
L 326.285795 340.015939 
L 328.663636 342.865507 
L 331.041477 347.453814 
L 333.419318 350.472298 
L 335.797159 347.641812 
L 338.175 345.51276 
L 340.552841 345.41642 
L 342.930682 347.002065 
L 345.308523 347.96463 
L 347.686364 350.483697 
L 350.064205 350.939065 
L 352.442045 352.204059 
L 354.819886 354.689638 
L 357.197727 359.133779 
L 359.575568 366.657933 
L 361.953409 368.53646 
L 364.33125 369.682672 
L 366.709091 369.680604 
L 369.086932 367.252363 
L 371.464773 366.838849 
L 373.842614 365.168315 
L 376.220455 366.084971 
L 378.598295 363.69411 
L 380.976136 363.179604 
L 383.353977 363.62835 
L 385.731818 364.538825 
L 388.109659 363.264667 
L 390.4875 362.929542 
L 392.865341 363.067484 
L 395.243182 363.38827 
L 397.621023 364.688715 
L 399.998864 364.40317 
L 402.376705 364.381278 
L 404.754545 365.05892 
L 407.132386 364.201206 
L 409.510227 362.975697 
L 411.888068 363.025088 
L 414.265909 364.842974 
L 416.64375 365.903785 
L 419.021591 367.401374 
L 421.399432 367.572217 
L 423.777273 368.180262 
L 426.155114 360.819288 
L 428.532955 354.538258 
L 430.910795 334.388299 
L 433.288636 334.23499 
L 435.666477 333.018912 
L 438.044318 333.06564 
L 440.422159 332.27613 
L 442.8 330.476104 
L 445.177841 323.406016 
L 447.555682 320.381268 
L 449.933523 318.397204 
L 452.311364 310.225977 
L 454.689205 299.596549 
L 457.067045 285.693698 
L 459.444886 275.431404 
L 461.822727 267.723538 
L 464.200568 252.622826 
L 466.578409 242.010004 
L 471.334091 229.894873 
L 473.711932 223.528611 
L 476.089773 220.60826 
L 478.467614 215.754061 
L 480.845455 216.199028 
L 483.223295 215.786658 
L 485.601136 213.147252 
L 487.978977 211.501926 
L 490.356818 210.883429 
L 492.734659 209.966868 
L 495.1125 211.119465 
L 497.490341 211.765834 
L 499.868182 210.65952 
L 502.246023 210.028641 
L 507.001705 211.067794 
L 509.379545 217.42961 
L 511.757386 231.213307 
L 514.135227 245.995519 
L 516.513068 274.663584 
L 518.890909 301.889826 
L 521.26875 320.008228 
L 523.646591 321.934516 
L 526.024432 323.217334 
L 528.402273 322.702942 
L 530.780114 318.854566 
L 533.157955 321.447048 
L 535.535795 314.022478 
L 537.913636 308.641749 
L 540.291477 307.732502 
L 542.669318 309.604774 
L 545.047159 317.945888 
L 547.425 327.45079 
L 549.802841 327.687378 
L 552.180682 331.926769 
L 554.558523 330.51677 
L 556.936364 331.385139 
L 559.314205 330.746951 
L 561.692045 333.998369 
L 564.069886 333.645994 
L 566.447727 336.353071 
L 568.825568 339.742546 
L 571.203409 340.709575 
L 573.58125 342.669947 
L 575.959091 343.00335 
L 578.336932 346.207237 
L 583.092614 348.010852 
L 585.470455 346.983072 
L 587.848295 350.188722 
L 590.226136 351.67155 
L 592.603977 354.113974 
L 594.981818 355.286063 
L 597.359659 355.880782 
L 599.7375 356.01339 
L 602.115341 356.720883 
L 604.493182 357.265184 
L 606.871023 358.143105 
L 609.248864 358.462045 
L 611.626705 359.025452 
L 614.004545 363.201491 
L 616.382386 365.572837 
L 618.760227 368.824813 
L 621.138068 370.315405 
L 623.515909 370.393957 
L 625.89375 371.077478 
L 628.271591 369.113416 
L 630.649432 368.755249 
L 633.027273 368.849863 
L 635.405114 370.499002 
L 637.782955 360.304119 
L 640.160795 362.814771 
L 642.538636 360.324903 
L 644.916477 363.180559 
L 647.294318 362.637934 
L 649.672159 361.535361 
L 652.05 361.541234 
L 654.427841 362.464739 
L 656.805682 362.11644 
L 659.183523 364.777643 
L 661.561364 363.43917 
L 663.939205 363.014708 
L 666.317045 362.996987 
L 668.694886 362.194466 
L 671.072727 362.488005 
L 673.450568 362.619722 
L 675.828409 363.997497 
L 678.20625 364.79584 
L 680.584091 364.879236 
L 685.339773 364.613776 
L 687.717614 363.01645 
L 690.095455 362.100386 
L 692.473295 361.384974 
L 694.851136 362.00492 
L 697.228977 362.929212 
L 699.606818 363.31903 
L 701.984659 362.703554 
L 704.3625 362.588328 
L 706.740341 363.090605 
L 709.118182 362.494383 
L 711.496023 362.150499 
L 713.873864 360.884871 
L 716.251705 362.894916 
L 721.007386 365.243955 
L 723.385227 365.851031 
L 725.763068 364.052539 
L 728.140909 363.792396 
L 730.51875 362.518716 
L 732.896591 362.958386 
L 735.274432 364.32048 
L 737.652273 363.274824 
L 740.030114 363.205373 
L 744.785795 364.792083 
L 747.163636 363.294854 
L 747.163636 363.294854 
" clip-path="url(#pd8e1493286)" style="fill: none; stroke: #edc948; stroke-width: 3; stroke-linecap: round"/>
   </g>
   <g id="line2d_24">
    <path d="M 138.436364 362.506997 
L 140.814205 351.959456 
L 143.192045 390.578439 
L 145.569886 359.425348 
L 147.947727 375.260411 
L 150.325568 424.796124 
L 152.703409 376.299345 
L 155.08125 401.437883 
L 157.459091 394.442575 
L 159.836932 366.919031 
L 162.214773 312.282156 
L 164.592614 346.216767 
L 166.970455 355.914795 
L 169.348295 342.991456 
L 171.726136 363.973509 
L 174.103977 375.127908 
L 176.481818 338.95552 
L 178.859659 209.496301 
L 181.2375 241.297608 
L 183.615341 176.596228 
L 185.993182 212.40724 
L 188.371023 161.298629 
L 190.748864 216.741973 
L 193.126705 171.557741 
L 195.504545 217.643823 
L 197.882386 205.742589 
L 200.260227 251.808814 
L 202.638068 143.309594 
L 205.015909 186.890087 
L 207.39375 149.310584 
L 209.771591 205.40709 
L 212.149432 253.897886 
L 214.527273 191.112644 
L 216.905114 177.503908 
L 219.282955 212.003049 
L 221.660795 280.171754 
L 224.038636 317.340906 
L 226.416477 185.122791 
L 228.794318 214.147448 
L 231.172159 174.330304 
L 233.55 237.778037 
L 235.927841 238.201037 
L 238.305682 203.128849 
L 240.683523 257.244041 
L 243.061364 273.803248 
L 245.439205 201.595965 
L 247.817045 236.370285 
L 250.194886 234.860763 
L 252.572727 253.503911 
L 254.950568 242.302473 
L 257.328409 293.103979 
L 259.70625 274.922851 
L 262.084091 302.74815 
L 264.461932 291.382161 
L 266.839773 231.939815 
L 269.217614 348.535258 
L 271.595455 298.384376 
L 273.973295 296.965858 
L 276.351136 296.403877 
L 278.728977 154.308377 
L 283.484659 423.612109 
L 285.8625 314.223497 
L 288.240341 375.361592 
L 290.618182 418.688939 
L 292.996023 268.982841 
L 295.373864 247.939762 
L 297.751705 254.575757 
L 300.129545 324.62741 
L 302.507386 267.616571 
L 304.885227 284.381252 
L 307.263068 259.065998 
L 309.640909 253.908842 
L 312.01875 279.892376 
L 314.396591 290.206176 
L 316.774432 260.483768 
L 319.152273 320.32342 
L 321.530114 182.251291 
L 323.907955 247.180883 
L 326.285795 263.978798 
L 328.663636 250.798091 
L 331.041477 260.755241 
L 333.419318 238.788834 
L 335.797159 227.495977 
L 338.175 176.532778 
L 340.552841 285.478711 
L 342.930682 265.41519 
L 345.308523 172.431503 
L 347.686364 214.843813 
L 350.064205 271.870117 
L 352.442045 191.325409 
L 354.819886 248.982617 
L 357.197727 257.410324 
L 359.575568 250.034671 
L 361.953409 394.987223 
L 364.33125 396.088583 
L 366.709091 364.835495 
L 369.086932 404.120787 
L 371.464773 492.48 
L 373.842614 365.821819 
L 376.220455 351.596061 
L 378.598295 334.620395 
L 380.976136 371.37299 
L 383.353977 419.828603 
L 385.731818 404.013341 
L 388.109659 422.455669 
L 392.865341 371.685212 
L 395.243182 380.543881 
L 397.621023 364.546336 
L 399.998864 436.532932 
L 402.376705 342.715401 
L 404.754545 337.854675 
L 407.132386 319.815277 
L 409.510227 331.796624 
L 411.888068 361.093589 
L 414.265909 392.71872 
L 419.021591 345.601716 
L 421.399432 367.422228 
L 423.777273 244.462938 
L 426.155114 284.259706 
L 428.532955 283.847534 
L 430.910795 363.793535 
L 433.288636 298.648456 
L 435.666477 338.637322 
L 438.044318 248.345874 
L 440.422159 279.474096 
L 442.8 230.823146 
L 445.177841 161.902613 
L 447.555682 205.323731 
L 449.933523 233.050143 
L 452.311364 214.919526 
L 454.689205 215.555548 
L 457.067045 159.73117 
L 459.444886 182.127604 
L 461.822727 186.526043 
L 464.200568 141.159231 
L 466.578409 108.098613 
L 468.95625 241.81392 
L 471.334091 221.114316 
L 473.711932 254.001798 
L 476.089773 280.983095 
L 478.467614 177.45012 
L 480.845455 218.189836 
L 483.223295 273.878631 
L 485.601136 236.458057 
L 487.978977 225.636371 
L 490.356818 274.190191 
L 492.734659 342.39795 
L 495.1125 329.173151 
L 497.490341 243.272485 
L 499.868182 347.371544 
L 502.246023 407.605115 
L 504.623864 346.062026 
L 507.001705 308.041511 
L 509.379545 326.068597 
L 511.757386 300.98494 
L 514.135227 334.144089 
L 516.513068 371.581851 
L 518.890909 359.73624 
L 521.26875 397.303321 
L 523.646591 355.543273 
L 526.024432 398.941792 
L 528.402273 311.215523 
L 530.780114 265.709419 
L 533.157955 272.328588 
L 535.535795 301.461938 
L 537.913636 188.735849 
L 540.291477 315.23014 
L 542.669318 159.240964 
L 545.047159 196.24232 
L 547.425 150.721606 
L 549.802841 188.203948 
L 552.180682 142.10083 
L 554.558523 168.519937 
L 556.936364 101.538894 
L 559.314205 137.776372 
L 561.692045 166.758782 
L 564.069886 130.5883 
L 566.447727 183.61307 
L 568.825568 182.901414 
L 571.203409 186.310458 
L 573.58125 89.28 
L 575.959091 92.404939 
L 578.336932 117.212162 
L 580.714773 169.138587 
L 583.092614 108.18639 
L 585.470455 196.467781 
L 587.848295 163.588979 
L 590.226136 254.418324 
L 592.603977 295.300006 
L 594.981818 293.938661 
L 597.359659 317.760707 
L 599.7375 305.042947 
L 602.115341 299.422155 
L 604.493182 295.498958 
L 606.871023 384.593337 
L 609.248864 355.685664 
L 611.626705 336.114938 
L 614.004545 358.485203 
L 616.382386 462.945164 
L 618.760227 367.923644 
L 621.138068 435.351834 
L 623.515909 419.754311 
L 625.89375 411.053253 
L 628.271591 357.680305 
L 630.649432 316.069141 
L 633.027273 388.684588 
L 635.405114 97.405963 
L 637.782955 105.507937 
L 640.160795 187.310802 
L 642.538636 131.403562 
L 644.916477 139.626582 
L 647.294318 187.848096 
L 649.672159 207.701789 
L 652.05 197.131073 
L 654.427841 245.18047 
L 656.805682 162.476622 
L 659.183523 202.93366 
L 661.561364 140.125676 
L 663.939205 121.377431 
L 666.317045 242.446691 
L 668.694886 233.532141 
L 671.072727 225.592232 
L 673.450568 273.235271 
L 675.828409 297.229143 
L 678.20625 247.024036 
L 680.584091 208.524271 
L 682.961932 313.544575 
L 685.339773 273.536781 
L 687.717614 242.144197 
L 690.095455 304.247678 
L 692.473295 206.561175 
L 694.851136 299.050701 
L 697.228977 325.09221 
L 699.606818 306.410701 
L 701.984659 282.063709 
L 704.3625 343.868908 
L 706.740341 301.864605 
L 709.118182 375.389593 
L 711.496023 424.338448 
L 713.873864 333.125467 
L 716.251705 352.291484 
L 718.629545 344.952081 
L 721.007386 463.164147 
L 723.385227 424.588212 
L 725.763068 381.385629 
L 728.140909 333.659163 
L 730.51875 365.819842 
L 732.896591 401.592702 
L 735.274432 354.866957 
L 737.652273 393.530936 
L 740.030114 359.466877 
L 742.407955 349.162245 
L 744.785795 409.568358 
L 744.785795 409.568358 
" clip-path="url(#pd8e1493286)" style="fill: none; stroke: #808080; stroke-width: 2; stroke-linecap: round"/>
   </g>
   <g id="patch_3">
    <path d="M 108 512.64 
L 108 69.12 
" style="fill: none; stroke: #ffffff; stroke-width: 1.25; stroke-linejoin: miter; stroke-linecap: square"/>
   </g>
   <g id="patch_4">
    <path d="M 777.6 512.64 
L 777.6 69.12 
" style="fill: none; stroke: #ffffff; stroke-width: 1.25; stroke-linejoin: miter; stroke-linecap: square"/>
   </g>
   <g id="patch_5">
    <path d="M 108 512.64 
L 777.6 512.64 
" style="fill: none; stroke: #ffffff; stroke-width: 1.25; stroke-linejoin: miter; stroke-linecap: square"/>
   </g>
   <g id="patch_6">
    <path d="M 108 69.12 
L 777.6 69.12 
" style="fill: none; stroke: #ffffff; stroke-width: 1.25; stroke-linejoin: miter; stroke-linecap: square"/>
   </g>
   <g id="text_14">
    <!-- Predicted (solid) vs GT (dotted) Shape Type -->
    <g style="fill: #262626" transform="translate(170.683398 61.673027) scale(0.3 -0.3)">
     <defs>
      <path id="CMR17-50" d="M 1267 2048 
L 2291 2048 
C 3117 2048 3718 2583 3718 3187 
C 3718 3791 3130 4352 2291 4352 
L 333 4352 
L 333 4185 
C 774 4185 845 4185 845 3899 
L 845 453 
C 845 166 774 166 333 166 
L 333 0 
C 518 12 858 12 1056 12 
C 1254 12 1594 12 1779 0 
L 1779 166 
C 1338 166 1267 166 1267 453 
L 1267 2048 
z
M 1254 2182 
L 1254 3937 
C 1254 4153 1267 4185 1523 4185 
L 2170 4185 
C 2995 4185 3232 3715 3232 3187 
C 3232 2608 2950 2182 2170 2182 
L 1254 2182 
z
" transform="scale(0.015625)"/>
      <path id="CMR17-28" d="M 1958 -1562 
C 1958 -1556 1958 -1543 1939 -1524 
C 1645 -1223 858 -403 858 1596 
C 858 3595 1632 4408 1946 4729 
C 1946 4735 1958 4748 1958 4767 
C 1958 4787 1939 4800 1914 4800 
C 1843 4800 1299 4325 986 3620 
C 666 2909 576 2218 576 1603 
C 576 1141 621 360 1005 -467 
C 1312 -1133 1837 -1600 1914 -1600 
C 1946 -1600 1958 -1588 1958 -1562 
z
" transform="scale(0.015625)"/>
      <path id="CMR17-73" d="M 1978 2688 
C 1978 2803 1971 2809 1933 2809 
C 1907 2809 1901 2803 1824 2707 
C 1805 2681 1747 2617 1728 2592 
C 1523 2809 1235 2816 1126 2816 
C 416 2816 160 2444 160 2073 
C 160 1497 813 1363 998 1324 
C 1402 1241 1542 1216 1677 1100 
C 1760 1024 1901 883 1901 652 
C 1901 384 1747 38 1158 38 
C 602 38 403 460 288 1024 
C 269 1113 269 1120 218 1120 
C 166 1120 160 1113 160 985 
L 160 64 
C 160 -52 166 -58 205 -58 
C 237 -58 243 -52 275 0 
C 314 57 410 211 448 275 
C 576 102 800 -64 1158 -64 
C 1792 -64 2131 281 2131 780 
C 2131 1107 1958 1280 1875 1356 
C 1683 1555 1459 1600 1190 1651 
C 838 1728 390 1817 390 2208 
C 390 2374 480 2726 1126 2726 
C 1811 2726 1850 2086 1862 1881 
C 1869 1849 1901 1843 1920 1843 
C 1978 1843 1978 1862 1978 1971 
L 1978 2688 
z
" transform="scale(0.015625)"/>
      <path id="CMR17-29" d="M 1683 1596 
C 1683 2057 1638 2839 1254 3665 
C 947 4332 422 4800 346 4800 
C 326 4800 301 4793 301 4761 
C 301 4748 307 4742 314 4729 
C 621 4408 1402 3595 1402 1603 
C 1402 -396 627 -1210 314 -1530 
C 307 -1543 301 -1549 301 -1562 
C 301 -1594 326 -1600 346 -1600 
C 416 -1600 960 -1127 1274 -422 
C 1594 289 1683 981 1683 1596 
z
" transform="scale(0.015625)"/>
      <path id="CMR17-76" d="M 2502 2173 
C 2560 2315 2662 2572 3034 2585 
L 3034 2752 
C 2912 2745 2752 2739 2630 2739 
C 2496 2739 2285 2739 2157 2752 
L 2157 2585 
C 2317 2572 2406 2495 2406 2328 
C 2406 2270 2406 2257 2368 2167 
L 1664 379 
L 902 2308 
C 864 2392 864 2405 864 2431 
C 864 2585 1075 2585 1171 2585 
L 1171 2752 
C 1018 2739 736 2739 576 2739 
C 403 2739 205 2739 64 2752 
L 64 2585 
C 307 2585 442 2585 518 2386 
L 1446 44 
C 1485 -52 1491 -64 1549 -64 
C 1606 -64 1613 -52 1651 44 
L 2502 2173 
z
" transform="scale(0.015625)"/>
      <path id="CMR17-47" d="M 3974 1258 
C 3974 1503 3994 1536 4390 1536 
L 4390 1702 
C 4237 1689 3891 1689 3718 1689 
C 3539 1689 3040 1696 2797 1702 
L 2797 1536 
L 2989 1536 
C 3539 1536 3552 1464 3552 1232 
L 3552 806 
C 3552 96 2720 38 2522 38 
C 1862 38 781 496 781 2179 
C 781 3862 1843 4313 2464 4313 
C 3187 4313 3712 3681 3834 2785 
C 3846 2708 3846 2695 3904 2695 
C 3974 2695 3974 2708 3974 2824 
L 3974 4351 
C 3974 4467 3968 4473 3930 4473 
C 3904 4473 3898 4467 3853 4390 
L 3571 3849 
C 3258 4249 2874 4480 2381 4480 
C 1286 4480 294 3507 294 2179 
C 294 858 1267 -128 2394 -128 
C 2912 -128 3418 57 3616 425 
C 3725 161 3904 -20 3936 -20 
C 3968 -20 3974 -13 3974 102 
L 3974 1258 
z
" transform="scale(0.015625)"/>
      <path id="CMR17-54" d="M 3981 4332 
L 288 4332 
L 179 2924 
L 294 2924 
C 378 3981 467 4166 1453 4166 
C 1568 4166 1754 4166 1805 4159 
C 1926 4140 1926 4064 1926 3917 
L 1926 465 
C 1926 236 1907 166 1376 166 
L 1197 166 
L 1197 0 
C 1504 6 1824 12 2138 12 
C 2451 12 2771 6 3078 0 
L 3078 166 
L 2899 166 
C 2368 166 2349 236 2349 465 
L 2349 3917 
C 2349 4057 2349 4134 2464 4159 
C 2515 4166 2701 4166 2816 4166 
C 3795 4166 3891 3981 3974 2924 
L 4090 2924 
L 3981 4332 
z
" transform="scale(0.015625)"/>
      <path id="CMR17-79" d="M 2496 2183 
C 2656 2579 2944 2585 3034 2585 
L 3034 2752 
C 2912 2745 2752 2739 2630 2739 
C 2496 2739 2285 2739 2157 2752 
L 2157 2585 
C 2400 2566 2406 2384 2406 2332 
C 2406 2268 2394 2235 2362 2158 
L 1664 409 
L 902 2300 
C 870 2378 870 2423 870 2430 
C 870 2572 1018 2585 1171 2585 
L 1171 2752 
C 1018 2739 742 2739 582 2739 
C 410 2739 205 2739 64 2752 
L 64 2585 
C 410 2585 448 2553 531 2345 
L 1485 -31 
C 1197 -795 1030 -1242 627 -1242 
C 557 -1242 397 -1223 282 -1106 
C 429 -1093 493 -1002 493 -892 
C 493 -782 416 -685 288 -685 
C 147 -685 77 -782 77 -899 
C 77 -1158 339 -1344 627 -1344 
C 998 -1344 1229 -983 1357 -659 
L 2496 2183 
z
" transform="scale(0.015625)"/>
     </defs>
     <use xlink:href="#CMR17-50" transform="scale(0.996264)"/>
     <use xlink:href="#CMR17-72" transform="translate(62.586301 0) scale(0.996264)"/>
     <use xlink:href="#CMR17-65" transform="translate(97.867068 0) scale(0.996264)"/>
     <use xlink:href="#CMR17-64" transform="translate(138.352729 0) scale(0.996264)"/>
     <use xlink:href="#CMR17-69" transform="translate(189.248099 0) scale(0.996264)"/>
     <use xlink:href="#CMR17-63" transform="translate(214.119157 0) scale(0.996264)"/>
     <use xlink:href="#CMR17-74" transform="translate(254.604818 0) scale(0.996264)"/>
     <use xlink:href="#CMR17-65" transform="translate(289.885585 0) scale(0.996264)"/>
     <use xlink:href="#CMR17-64" transform="translate(330.371246 0) scale(0.996264)"/>
     <use xlink:href="#CMR17-28" transform="translate(411.342582 0) scale(0.996264)"/>
     <use xlink:href="#CMR17-73" transform="translate(446.62335 0) scale(0.996264)"/>
     <use xlink:href="#CMR17-6f" transform="translate(482.424687 0) scale(0.996264)"/>
     <use xlink:href="#CMR17-6c" transform="translate(528.115164 0) scale(0.996264)"/>
     <use xlink:href="#CMR17-69" transform="translate(552.986223 0) scale(0.996264)"/>
     <use xlink:href="#CMR17-64" transform="translate(577.857281 0) scale(0.996264)"/>
     <use xlink:href="#CMR17-29" transform="translate(628.752651 0) scale(0.996264)"/>
     <use xlink:href="#CMR17-76" transform="translate(694.109385 0) scale(0.996264)"/>
     <use xlink:href="#CMR17-73" transform="translate(742.402301 0) scale(0.996264)"/>
     <use xlink:href="#CMR17-47" transform="translate(808.279605 0) scale(0.996264)"/>
     <use xlink:href="#CMR17-54" transform="translate(880.634951 0) scale(0.996264)"/>
     <use xlink:href="#CMR17-28" transform="translate(977.220798 0) scale(0.996264)"/>
     <use xlink:href="#CMR17-64" transform="translate(1012.501566 0) scale(0.996264)"/>
     <use xlink:href="#CMR17-6f" transform="translate(1063.396936 0) scale(0.996264)"/>
     <use xlink:href="#CMR17-74" transform="translate(1109.087413 0) scale(0.996264)"/>
     <use xlink:href="#CMR17-74" transform="translate(1144.36818 0) scale(0.996264)"/>
     <use xlink:href="#CMR17-65" transform="translate(1179.648948 0) scale(0.996264)"/>
     <use xlink:href="#CMR17-64" transform="translate(1220.134609 0) scale(0.996264)"/>
     <use xlink:href="#CMR17-29" transform="translate(1271.029979 0) scale(0.996264)"/>
     <use xlink:href="#CMR17-53" transform="translate(1336.386713 0) scale(0.996264)"/>
     <use xlink:href="#CMR17-68" transform="translate(1387.282082 0) scale(0.996264)"/>
     <use xlink:href="#CMR17-61" transform="translate(1438.177452 0) scale(0.996264)"/>
     <use xlink:href="#CMR17-70" transform="translate(1483.867929 0) scale(0.996264)"/>
     <use xlink:href="#CMR17-65" transform="translate(1537.365738 0) scale(0.996264)"/>
     <use xlink:href="#CMR17-54" transform="translate(1607.927365 0) scale(0.996264)"/>
     <use xlink:href="#CMR17-79" transform="translate(1671.834791 0) scale(0.996264)"/>
     <use xlink:href="#CMR17-70" transform="translate(1720.127707 0) scale(0.996264)"/>
     <use xlink:href="#CMR17-65" transform="translate(1773.625516 0) scale(0.996264)"/>
    </g>
   </g>
   <g id="legend_1">
    <g id="patch_7">
     <path d="M 787.279449 409.992 
L 901.840551 409.992 
Q 907.340551 409.992 907.340551 404.492 
L 907.340551 177.268 
Q 907.340551 171.768 901.840551 171.768 
L 787.279449 171.768 
Q 781.779449 171.768 781.779449 177.268 
L 781.779449 404.492 
Q 781.779449 409.992 787.279449 409.992 
z
" style="fill: #ffffff; opacity: 0.8; stroke: #cccccc; stroke-linejoin: miter"/>
    </g>
    <g id="line2d_25">
     <path d="M 792.779449 192.393 
L 820.279449 192.393 
L 847.779449 192.393 
" style="fill: none; stroke: #4e79a7; stroke-width: 3; stroke-linecap: round"/>
    </g>
    <g id="text_15">
     <!-- S1 -->
     <g style="fill: #262626" transform="translate(869.779449 202.018) scale(0.275 -0.275)">
      <use xlink:href="#CMR17-53" transform="scale(0.996264)"/>
      <use xlink:href="#CMR17-31" transform="translate(50.89537 0) scale(0.996264)"/>
     </g>
    </g>
    <g id="line2d_26">
     <path d="M 792.779449 230.722 
L 820.279449 230.722 
L 847.779449 230.722 
" style="fill: none; stroke: #f28e2b; stroke-width: 3; stroke-linecap: round"/>
    </g>
    <g id="text_16">
     <!-- S2 -->
     <g style="fill: #262626" transform="translate(869.779449 240.347) scale(0.275 -0.275)">
      <use xlink:href="#CMR17-53" transform="scale(0.996264)"/>
      <use xlink:href="#CMR17-32" transform="translate(50.89537 0) scale(0.996264)"/>
     </g>
    </g>
    <g id="line2d_27">
     <path d="M 792.779449 269.051 
L 820.279449 269.051 
L 847.779449 269.051 
" style="fill: none; stroke: #e15759; stroke-width: 3; stroke-linecap: round"/>
    </g>
    <g id="text_17">
     <!-- S3 -->
     <g style="fill: #262626" transform="translate(869.779449 278.676) scale(0.275 -0.275)">
      <defs>
       <path id="CMR17-33" d="M 1414 2176 
C 1984 2176 2234 1673 2234 1094 
C 2234 322 1824 25 1453 25 
C 1114 25 563 193 390 691 
C 422 678 454 678 486 678 
C 640 678 755 780 755 947 
C 755 1132 614 1216 486 1216 
C 378 1216 211 1164 211 927 
C 211 335 787 -128 1466 -128 
C 2176 -128 2720 432 2720 1087 
C 2720 1718 2208 2176 1600 2246 
C 2086 2347 2554 2776 2554 3353 
C 2554 3856 2048 4224 1472 4224 
C 890 4224 378 3862 378 3347 
C 378 3123 544 3084 627 3084 
C 762 3084 877 3167 877 3334 
C 877 3500 762 3584 627 3584 
C 602 3584 570 3584 544 3571 
C 730 3999 1235 4076 1459 4076 
C 1683 4076 2106 3966 2106 3347 
C 2106 3167 2080 2851 1862 2574 
C 1670 2329 1453 2316 1242 2297 
C 1210 2297 1062 2284 1037 2284 
C 992 2278 966 2272 966 2227 
C 966 2182 973 2176 1101 2176 
L 1414 2176 
z
" transform="scale(0.015625)"/>
      </defs>
      <use xlink:href="#CMR17-53" transform="scale(0.996264)"/>
      <use xlink:href="#CMR17-33" transform="translate(50.89537 0) scale(0.996264)"/>
     </g>
    </g>
    <g id="line2d_28">
     <path d="M 792.779449 307.38 
L 820.279449 307.38 
L 847.779449 307.38 
" style="fill: none; stroke: #76b7b2; stroke-width: 3; stroke-linecap: round"/>
    </g>
    <g id="text_18">
     <!-- S4 -->
     <g style="fill: #262626" transform="translate(869.779449 317.005) scale(0.275 -0.275)">
      <defs>
       <path id="CMR17-34" d="M 2150 4147 
C 2150 4281 2144 4288 2029 4288 
L 128 1254 
L 128 1088 
L 1779 1088 
L 1779 460 
C 1779 230 1766 166 1318 166 
L 1197 166 
L 1197 0 
C 1402 12 1747 12 1965 12 
C 2182 12 2528 12 2733 0 
L 2733 166 
L 2611 166 
C 2163 166 2150 230 2150 460 
L 2150 1088 
L 2803 1088 
L 2803 1254 
L 2150 1254 
L 2150 4147 
z
M 1798 3723 
L 1798 1254 
L 256 1254 
L 1798 3723 
z
" transform="scale(0.015625)"/>
      </defs>
      <use xlink:href="#CMR17-53" transform="scale(0.996264)"/>
      <use xlink:href="#CMR17-34" transform="translate(50.89537 0) scale(0.996264)"/>
     </g>
    </g>
    <g id="line2d_29">
     <path d="M 792.779449 345.709 
L 820.279449 345.709 
L 847.779449 345.709 
" style="fill: none; stroke: #59a14f; stroke-width: 3; stroke-linecap: round"/>
    </g>
    <g id="text_19">
     <!-- S5 -->
     <g style="fill: #262626" transform="translate(869.779449 355.334) scale(0.275 -0.275)">
      <use xlink:href="#CMR17-53" transform="scale(0.996264)"/>
      <use xlink:href="#CMR17-35" transform="translate(50.89537 0) scale(0.996264)"/>
     </g>
    </g>
    <g id="line2d_30">
     <path d="M 792.779449 384.038 
L 820.279449 384.038 
L 847.779449 384.038 
" style="fill: none; stroke: #edc948; stroke-width: 3; stroke-linecap: round"/>
    </g>
    <g id="text_20">
     <!-- S6 -->
     <g style="fill: #262626" transform="translate(869.779449 393.663) scale(0.275 -0.275)">
      <defs>
       <path id="CMR17-36" d="M 678 2198 
C 678 3712 1395 4076 1811 4076 
C 1946 4076 2272 4049 2400 3782 
C 2298 3782 2106 3782 2106 3558 
C 2106 3385 2246 3328 2336 3328 
C 2394 3328 2566 3353 2566 3571 
C 2566 3987 2246 4224 1805 4224 
C 1043 4224 243 3411 243 2011 
C 243 257 966 -128 1478 -128 
C 2099 -128 2688 431 2688 1295 
C 2688 2101 2170 2688 1517 2688 
C 1126 2688 838 2430 678 1979 
L 678 2198 
z
M 1478 25 
C 691 25 691 1212 691 1450 
C 691 1914 909 2585 1504 2585 
C 1613 2585 1926 2585 2138 2140 
C 2253 1889 2253 1624 2253 1302 
C 2253 954 2253 696 2118 438 
C 1978 173 1773 25 1478 25 
z
" transform="scale(0.015625)"/>
      </defs>
      <use xlink:href="#CMR17-53" transform="scale(0.996264)"/>
      <use xlink:href="#CMR17-36" transform="translate(50.89537 0) scale(0.996264)"/>
     </g>
    </g>
   </g>
  </g>
  <g id="text_21">
   <!-- Class 0 -->
   <g style="fill: #262626" transform="translate(380.800709 36.4266) scale(0.36 -0.36)">
    <defs>
     <path id="CMR17-43" d="M 3974 4351 
C 3974 4467 3968 4473 3930 4473 
C 3904 4473 3898 4467 3853 4390 
L 3571 3849 
C 3258 4249 2874 4480 2381 4480 
C 1286 4480 294 3507 294 2179 
C 294 837 1286 -128 2387 -128 
C 3366 -128 3974 741 3974 1482 
C 3974 1547 3974 1573 3917 1573 
C 3866 1573 3866 1553 3859 1495 
C 3808 592 3168 38 2477 38 
C 1824 38 781 502 781 2179 
C 781 3862 1843 4313 2464 4313 
C 3187 4313 3712 3681 3834 2785 
C 3846 2707 3846 2695 3904 2695 
C 3974 2695 3974 2707 3974 2824 
L 3974 4351 
z
" transform="scale(0.015625)"/>
    </defs>
    <use xlink:href="#CMR17-43" transform="scale(0.996264)"/>
    <use xlink:href="#CMR17-6c" transform="translate(66.509881 0) scale(0.996264)"/>
    <use xlink:href="#CMR17-61" transform="translate(91.380939 0) scale(0.996264)"/>
    <use xlink:href="#CMR17-73" transform="translate(137.071416 0) scale(0.996264)"/>
    <use xlink:href="#CMR17-73" transform="translate(172.872754 0) scale(0.996264)"/>
    <use xlink:href="#CMR17-30" transform="translate(238.750058 0) scale(0.996264)"/>
   </g>
  </g>
 </g>
 <defs>
  <clipPath id="pd8e1493286">
   <rect x="108" y="69.12" width="669.6" height="443.52"/>
  </clipPath>
 </defs>
</svg>
