<?xml version="1.0" encoding="utf-8" standalone="no"?>
<!DOCTYPE svg PUBLIC "-//W3C//DTD SVG 1.1//EN"
  "http://www.w3.org/Graphics/SVG/1.1/DTD/svg11.dtd">
<svg xmlns:xlink="http://www.w3.org/1999/xlink" width="864pt" height="576pt" viewBox="0 0 864 576" xmlns="http://www.w3.org/2000/svg" version="1.1">
 <metadata>
  <rdf:RDF xmlns:dc="http://purl.org/dc/elements/1.1/" xmlns:cc="http://creativecommons.org/ns#" xmlns:rdf="http://www.w3.org/1999/02/22-rdf-syntax-ns#">
   <cc:Work>
    <dc:type rdf:resource="http://purl.org/dc/dcmitype/StillImage"/>
    <dc:date>2025-06-20T18:29:23.722556</dc:date>
    <dc:format>image/svg+xml</dc:format>
    <dc:creator>
     <cc:Agent>
      <dc:title>Matplotlib v3.10.0, https://matplotlib.org/</dc:title>
     </cc:Agent>
    </dc:creator>
   </cc:Work>
  </rdf:RDF>
 </metadata>
 <defs>
  <style type="text/css">*{stroke-linejoin: round; stroke-linecap: butt}</style>
 </defs>
 <g id="figure_1">
  <g id="patch_1">
   <path d="M 0 576 
L 864 576 
L 864 0 
L 0 0 
z
" style="fill: #ffffff"/>
  </g>
  <g id="axes_1">
   <g id="patch_2">
    <path d="M 108 512.64 
L 777.6 512.64 
L 777.6 69.12 
L 108 69.12 
z
" style="fill: #ffffff"/>
   </g>
   <g id="matplotlib.axis_1">
    <g id="xtick_1">
     <g id="line2d_1">
      <defs>
       <path id="m129f8559af" d="M 0 0 
L 0 3.5 
" style="stroke: #000000; stroke-width: 0.8"/>
      </defs>
      <g>
       <use xlink:href="#m129f8559af" x="138.436364" y="512.64" style="stroke: #000000; stroke-width: 0.8"/>
      </g>
     </g>
     <g id="text_1">
      <!-- 0 -->
      <g transform="translate(135.255114 527.238438) scale(0.1 -0.1)">
       <defs>
        <path id="DejaVuSans-30" d="M 2034 4250 
Q 1547 4250 1301 3770 
Q 1056 3291 1056 2328 
Q 1056 1369 1301 889 
Q 1547 409 2034 409 
Q 2525 409 2770 889 
Q 3016 1369 3016 2328 
Q 3016 3291 2770 3770 
Q 2525 4250 2034 4250 
z
M 2034 4750 
Q 2819 4750 3233 4129 
Q 3647 3509 3647 2328 
Q 3647 1150 3233 529 
Q 2819 -91 2034 -91 
Q 1250 -91 836 529 
Q 422 1150 422 2328 
Q 422 3509 836 4129 
Q 1250 4750 2034 4750 
z
" transform="scale(0.015625)"/>
       </defs>
       <use xlink:href="#DejaVuSans-30"/>
      </g>
     </g>
    </g>
    <g id="xtick_2">
     <g id="line2d_2">
      <g>
       <use xlink:href="#m129f8559af" x="257.328409" y="512.64" style="stroke: #000000; stroke-width: 0.8"/>
      </g>
     </g>
     <g id="text_2">
      <!-- 50 -->
      <g transform="translate(250.965909 527.238438) scale(0.1 -0.1)">
       <defs>
        <path id="DejaVuSans-35" d="M 691 4666 
L 3169 4666 
L 3169 4134 
L 1269 4134 
L 1269 2991 
Q 1406 3038 1543 3061 
Q 1681 3084 1819 3084 
Q 2600 3084 3056 2656 
Q 3513 2228 3513 1497 
Q 3513 744 3044 326 
Q 2575 -91 1722 -91 
Q 1428 -91 1123 -41 
Q 819 9 494 109 
L 494 744 
Q 775 591 1075 516 
Q 1375 441 1709 441 
Q 2250 441 2565 725 
Q 2881 1009 2881 1497 
Q 2881 1984 2565 2268 
Q 2250 2553 1709 2553 
Q 1456 2553 1204 2497 
Q 953 2441 691 2322 
L 691 4666 
z
" transform="scale(0.015625)"/>
       </defs>
       <use xlink:href="#DejaVuSans-35"/>
       <use xlink:href="#DejaVuSans-30" transform="translate(63.623047 0)"/>
      </g>
     </g>
    </g>
    <g id="xtick_3">
     <g id="line2d_3">
      <g>
       <use xlink:href="#m129f8559af" x="376.220455" y="512.64" style="stroke: #000000; stroke-width: 0.8"/>
      </g>
     </g>
     <g id="text_3">
      <!-- 100 -->
      <g transform="translate(366.676705 527.238438) scale(0.1 -0.1)">
       <defs>
        <path id="DejaVuSans-31" d="M 794 531 
L 1825 531 
L 1825 4091 
L 703 3866 
L 703 4441 
L 1819 4666 
L 2450 4666 
L 2450 531 
L 3481 531 
L 3481 0 
L 794 0 
L 794 531 
z
" transform="scale(0.015625)"/>
       </defs>
       <use xlink:href="#DejaVuSans-31"/>
       <use xlink:href="#DejaVuSans-30" transform="translate(63.623047 0)"/>
       <use xlink:href="#DejaVuSans-30" transform="translate(127.246094 0)"/>
      </g>
     </g>
    </g>
    <g id="xtick_4">
     <g id="line2d_4">
      <g>
       <use xlink:href="#m129f8559af" x="495.1125" y="512.64" style="stroke: #000000; stroke-width: 0.8"/>
      </g>
     </g>
     <g id="text_4">
      <!-- 150 -->
      <g transform="translate(485.56875 527.238438) scale(0.1 -0.1)">
       <use xlink:href="#DejaVuSans-31"/>
       <use xlink:href="#DejaVuSans-35" transform="translate(63.623047 0)"/>
       <use xlink:href="#DejaVuSans-30" transform="translate(127.246094 0)"/>
      </g>
     </g>
    </g>
    <g id="xtick_5">
     <g id="line2d_5">
      <g>
       <use xlink:href="#m129f8559af" x="614.004545" y="512.64" style="stroke: #000000; stroke-width: 0.8"/>
      </g>
     </g>
     <g id="text_5">
      <!-- 200 -->
      <g transform="translate(604.460795 527.238438) scale(0.1 -0.1)">
       <defs>
        <path id="DejaVuSans-32" d="M 1228 531 
L 3431 531 
L 3431 0 
L 469 0 
L 469 531 
Q 828 903 1448 1529 
Q 2069 2156 2228 2338 
Q 2531 2678 2651 2914 
Q 2772 3150 2772 3378 
Q 2772 3750 2511 3984 
Q 2250 4219 1831 4219 
Q 1534 4219 1204 4116 
Q 875 4013 500 3803 
L 500 4441 
Q 881 4594 1212 4672 
Q 1544 4750 1819 4750 
Q 2544 4750 2975 4387 
Q 3406 4025 3406 3419 
Q 3406 3131 3298 2873 
Q 3191 2616 2906 2266 
Q 2828 2175 2409 1742 
Q 1991 1309 1228 531 
z
" transform="scale(0.015625)"/>
       </defs>
       <use xlink:href="#DejaVuSans-32"/>
       <use xlink:href="#DejaVuSans-30" transform="translate(63.623047 0)"/>
       <use xlink:href="#DejaVuSans-30" transform="translate(127.246094 0)"/>
      </g>
     </g>
    </g>
    <g id="xtick_6">
     <g id="line2d_6">
      <g>
       <use xlink:href="#m129f8559af" x="732.896591" y="512.64" style="stroke: #000000; stroke-width: 0.8"/>
      </g>
     </g>
     <g id="text_6">
      <!-- 250 -->
      <g transform="translate(723.352841 527.238438) scale(0.1 -0.1)">
       <use xlink:href="#DejaVuSans-32"/>
       <use xlink:href="#DejaVuSans-35" transform="translate(63.623047 0)"/>
       <use xlink:href="#DejaVuSans-30" transform="translate(127.246094 0)"/>
      </g>
     </g>
    </g>
    <g id="text_7">
     <!-- Sample number -->
     <g transform="translate(402.948438 540.916563) scale(0.1 -0.1)">
      <defs>
       <path id="DejaVuSans-53" d="M 3425 4513 
L 3425 3897 
Q 3066 4069 2747 4153 
Q 2428 4238 2131 4238 
Q 1616 4238 1336 4038 
Q 1056 3838 1056 3469 
Q 1056 3159 1242 3001 
Q 1428 2844 1947 2747 
L 2328 2669 
Q 3034 2534 3370 2195 
Q 3706 1856 3706 1288 
Q 3706 609 3251 259 
Q 2797 -91 1919 -91 
Q 1588 -91 1214 -16 
Q 841 59 441 206 
L 441 856 
Q 825 641 1194 531 
Q 1563 422 1919 422 
Q 2459 422 2753 634 
Q 3047 847 3047 1241 
Q 3047 1584 2836 1778 
Q 2625 1972 2144 2069 
L 1759 2144 
Q 1053 2284 737 2584 
Q 422 2884 422 3419 
Q 422 4038 858 4394 
Q 1294 4750 2059 4750 
Q 2388 4750 2728 4690 
Q 3069 4631 3425 4513 
z
" transform="scale(0.015625)"/>
       <path id="DejaVuSans-61" d="M 2194 1759 
Q 1497 1759 1228 1600 
Q 959 1441 959 1056 
Q 959 750 1161 570 
Q 1363 391 1709 391 
Q 2188 391 2477 730 
Q 2766 1069 2766 1631 
L 2766 1759 
L 2194 1759 
z
M 3341 1997 
L 3341 0 
L 2766 0 
L 2766 531 
Q 2569 213 2275 61 
Q 1981 -91 1556 -91 
Q 1019 -91 701 211 
Q 384 513 384 1019 
Q 384 1609 779 1909 
Q 1175 2209 1959 2209 
L 2766 2209 
L 2766 2266 
Q 2766 2663 2505 2880 
Q 2244 3097 1772 3097 
Q 1472 3097 1187 3025 
Q 903 2953 641 2809 
L 641 3341 
Q 956 3463 1253 3523 
Q 1550 3584 1831 3584 
Q 2591 3584 2966 3190 
Q 3341 2797 3341 1997 
z
" transform="scale(0.015625)"/>
       <path id="DejaVuSans-6d" d="M 3328 2828 
Q 3544 3216 3844 3400 
Q 4144 3584 4550 3584 
Q 5097 3584 5394 3201 
Q 5691 2819 5691 2113 
L 5691 0 
L 5113 0 
L 5113 2094 
Q 5113 2597 4934 2840 
Q 4756 3084 4391 3084 
Q 3944 3084 3684 2787 
Q 3425 2491 3425 1978 
L 3425 0 
L 2847 0 
L 2847 2094 
Q 2847 2600 2669 2842 
Q 2491 3084 2119 3084 
Q 1678 3084 1418 2786 
Q 1159 2488 1159 1978 
L 1159 0 
L 581 0 
L 581 3500 
L 1159 3500 
L 1159 2956 
Q 1356 3278 1631 3431 
Q 1906 3584 2284 3584 
Q 2666 3584 2933 3390 
Q 3200 3197 3328 2828 
z
" transform="scale(0.015625)"/>
       <path id="DejaVuSans-70" d="M 1159 525 
L 1159 -1331 
L 581 -1331 
L 581 3500 
L 1159 3500 
L 1159 2969 
Q 1341 3281 1617 3432 
Q 1894 3584 2278 3584 
Q 2916 3584 3314 3078 
Q 3713 2572 3713 1747 
Q 3713 922 3314 415 
Q 2916 -91 2278 -91 
Q 1894 -91 1617 61 
Q 1341 213 1159 525 
z
M 3116 1747 
Q 3116 2381 2855 2742 
Q 2594 3103 2138 3103 
Q 1681 3103 1420 2742 
Q 1159 2381 1159 1747 
Q 1159 1113 1420 752 
Q 1681 391 2138 391 
Q 2594 391 2855 752 
Q 3116 1113 3116 1747 
z
" transform="scale(0.015625)"/>
       <path id="DejaVuSans-6c" d="M 603 4863 
L 1178 4863 
L 1178 0 
L 603 0 
L 603 4863 
z
" transform="scale(0.015625)"/>
       <path id="DejaVuSans-65" d="M 3597 1894 
L 3597 1613 
L 953 1613 
Q 991 1019 1311 708 
Q 1631 397 2203 397 
Q 2534 397 2845 478 
Q 3156 559 3463 722 
L 3463 178 
Q 3153 47 2828 -22 
Q 2503 -91 2169 -91 
Q 1331 -91 842 396 
Q 353 884 353 1716 
Q 353 2575 817 3079 
Q 1281 3584 2069 3584 
Q 2775 3584 3186 3129 
Q 3597 2675 3597 1894 
z
M 3022 2063 
Q 3016 2534 2758 2815 
Q 2500 3097 2075 3097 
Q 1594 3097 1305 2825 
Q 1016 2553 972 2059 
L 3022 2063 
z
" transform="scale(0.015625)"/>
       <path id="DejaVuSans-20" transform="scale(0.015625)"/>
       <path id="DejaVuSans-6e" d="M 3513 2113 
L 3513 0 
L 2938 0 
L 2938 2094 
Q 2938 2591 2744 2837 
Q 2550 3084 2163 3084 
Q 1697 3084 1428 2787 
Q 1159 2491 1159 1978 
L 1159 0 
L 581 0 
L 581 3500 
L 1159 3500 
L 1159 2956 
Q 1366 3272 1645 3428 
Q 1925 3584 2291 3584 
Q 2894 3584 3203 3211 
Q 3513 2838 3513 2113 
z
" transform="scale(0.015625)"/>
       <path id="DejaVuSans-75" d="M 544 1381 
L 544 3500 
L 1119 3500 
L 1119 1403 
Q 1119 906 1312 657 
Q 1506 409 1894 409 
Q 2359 409 2629 706 
Q 2900 1003 2900 1516 
L 2900 3500 
L 3475 3500 
L 3475 0 
L 2900 0 
L 2900 538 
Q 2691 219 2414 64 
Q 2138 -91 1772 -91 
Q 1169 -91 856 284 
Q 544 659 544 1381 
z
M 1991 3584 
L 1991 3584 
z
" transform="scale(0.015625)"/>
       <path id="DejaVuSans-62" d="M 3116 1747 
Q 3116 2381 2855 2742 
Q 2594 3103 2138 3103 
Q 1681 3103 1420 2742 
Q 1159 2381 1159 1747 
Q 1159 1113 1420 752 
Q 1681 391 2138 391 
Q 2594 391 2855 752 
Q 3116 1113 3116 1747 
z
M 1159 2969 
Q 1341 3281 1617 3432 
Q 1894 3584 2278 3584 
Q 2916 3584 3314 3078 
Q 3713 2572 3713 1747 
Q 3713 922 3314 415 
Q 2916 -91 2278 -91 
Q 1894 -91 1617 61 
Q 1341 213 1159 525 
L 1159 0 
L 581 0 
L 581 4863 
L 1159 4863 
L 1159 2969 
z
" transform="scale(0.015625)"/>
       <path id="DejaVuSans-72" d="M 2631 2963 
Q 2534 3019 2420 3045 
Q 2306 3072 2169 3072 
Q 1681 3072 1420 2755 
Q 1159 2438 1159 1844 
L 1159 0 
L 581 0 
L 581 3500 
L 1159 3500 
L 1159 2956 
Q 1341 3275 1631 3429 
Q 1922 3584 2338 3584 
Q 2397 3584 2469 3576 
Q 2541 3569 2628 3553 
L 2631 2963 
z
" transform="scale(0.015625)"/>
      </defs>
      <use xlink:href="#DejaVuSans-53"/>
      <use xlink:href="#DejaVuSans-61" transform="translate(63.476562 0)"/>
      <use xlink:href="#DejaVuSans-6d" transform="translate(124.755859 0)"/>
      <use xlink:href="#DejaVuSans-70" transform="translate(222.167969 0)"/>
      <use xlink:href="#DejaVuSans-6c" transform="translate(285.644531 0)"/>
      <use xlink:href="#DejaVuSans-65" transform="translate(313.427734 0)"/>
      <use xlink:href="#DejaVuSans-20" transform="translate(374.951172 0)"/>
      <use xlink:href="#DejaVuSans-6e" transform="translate(406.738281 0)"/>
      <use xlink:href="#DejaVuSans-75" transform="translate(470.117188 0)"/>
      <use xlink:href="#DejaVuSans-6d" transform="translate(533.496094 0)"/>
      <use xlink:href="#DejaVuSans-62" transform="translate(630.908203 0)"/>
      <use xlink:href="#DejaVuSans-65" transform="translate(694.384766 0)"/>
      <use xlink:href="#DejaVuSans-72" transform="translate(755.908203 0)"/>
     </g>
    </g>
   </g>
   <g id="matplotlib.axis_2">
    <g id="ytick_1">
     <g id="line2d_7">
      <defs>
       <path id="mbf45f390f4" d="M 0 0 
L -3.5 0 
" style="stroke: #000000; stroke-width: 0.8"/>
      </defs>
      <g>
       <use xlink:href="#mbf45f390f4" x="108" y="509.235116" style="stroke: #000000; stroke-width: 0.8"/>
      </g>
     </g>
     <g id="text_8">
      <!-- −0.5 -->
      <g transform="translate(76.717187 513.034335) scale(0.1 -0.1)">
       <defs>
        <path id="DejaVuSans-2212" d="M 678 2272 
L 4684 2272 
L 4684 1741 
L 678 1741 
L 678 2272 
z
" transform="scale(0.015625)"/>
        <path id="DejaVuSans-2e" d="M 684 794 
L 1344 794 
L 1344 0 
L 684 0 
L 684 794 
z
" transform="scale(0.015625)"/>
       </defs>
       <use xlink:href="#DejaVuSans-2212"/>
       <use xlink:href="#DejaVuSans-30" transform="translate(83.789062 0)"/>
       <use xlink:href="#DejaVuSans-2e" transform="translate(147.412109 0)"/>
       <use xlink:href="#DejaVuSans-35" transform="translate(179.199219 0)"/>
      </g>
     </g>
    </g>
    <g id="ytick_2">
     <g id="line2d_8">
      <g>
       <use xlink:href="#mbf45f390f4" x="108" y="418.786196" style="stroke: #000000; stroke-width: 0.8"/>
      </g>
     </g>
     <g id="text_9">
      <!-- 0.0 -->
      <g transform="translate(85.096875 422.585415) scale(0.1 -0.1)">
       <use xlink:href="#DejaVuSans-30"/>
       <use xlink:href="#DejaVuSans-2e" transform="translate(63.623047 0)"/>
       <use xlink:href="#DejaVuSans-30" transform="translate(95.410156 0)"/>
      </g>
     </g>
    </g>
    <g id="ytick_3">
     <g id="line2d_9">
      <g>
       <use xlink:href="#mbf45f390f4" x="108" y="328.337277" style="stroke: #000000; stroke-width: 0.8"/>
      </g>
     </g>
     <g id="text_10">
      <!-- 0.5 -->
      <g transform="translate(85.096875 332.136496) scale(0.1 -0.1)">
       <use xlink:href="#DejaVuSans-30"/>
       <use xlink:href="#DejaVuSans-2e" transform="translate(63.623047 0)"/>
       <use xlink:href="#DejaVuSans-35" transform="translate(95.410156 0)"/>
      </g>
     </g>
    </g>
    <g id="ytick_4">
     <g id="line2d_10">
      <g>
       <use xlink:href="#mbf45f390f4" x="108" y="237.888357" style="stroke: #000000; stroke-width: 0.8"/>
      </g>
     </g>
     <g id="text_11">
      <!-- 1.0 -->
      <g transform="translate(85.096875 241.687576) scale(0.1 -0.1)">
       <use xlink:href="#DejaVuSans-31"/>
       <use xlink:href="#DejaVuSans-2e" transform="translate(63.623047 0)"/>
       <use xlink:href="#DejaVuSans-30" transform="translate(95.410156 0)"/>
      </g>
     </g>
    </g>
    <g id="ytick_5">
     <g id="line2d_11">
      <g>
       <use xlink:href="#mbf45f390f4" x="108" y="147.439438" style="stroke: #000000; stroke-width: 0.8"/>
      </g>
     </g>
     <g id="text_12">
      <!-- 1.5 -->
      <g transform="translate(85.096875 151.238656) scale(0.1 -0.1)">
       <use xlink:href="#DejaVuSans-31"/>
       <use xlink:href="#DejaVuSans-2e" transform="translate(63.623047 0)"/>
       <use xlink:href="#DejaVuSans-35" transform="translate(95.410156 0)"/>
      </g>
     </g>
    </g>
    <g id="text_13">
     <!-- Amplitude/Shape Indicator -->
     <g transform="translate(70.6375 357.529219) rotate(-90) scale(0.1 -0.1)">
      <defs>
       <path id="DejaVuSans-41" d="M 2188 4044 
L 1331 1722 
L 3047 1722 
L 2188 4044 
z
M 1831 4666 
L 2547 4666 
L 4325 0 
L 3669 0 
L 3244 1197 
L 1141 1197 
L 716 0 
L 50 0 
L 1831 4666 
z
" transform="scale(0.015625)"/>
       <path id="DejaVuSans-69" d="M 603 3500 
L 1178 3500 
L 1178 0 
L 603 0 
L 603 3500 
z
M 603 4863 
L 1178 4863 
L 1178 4134 
L 603 4134 
L 603 4863 
z
" transform="scale(0.015625)"/>
       <path id="DejaVuSans-74" d="M 1172 4494 
L 1172 3500 
L 2356 3500 
L 2356 3053 
L 1172 3053 
L 1172 1153 
Q 1172 725 1289 603 
Q 1406 481 1766 481 
L 2356 481 
L 2356 0 
L 1766 0 
Q 1100 0 847 248 
Q 594 497 594 1153 
L 594 3053 
L 172 3053 
L 172 3500 
L 594 3500 
L 594 4494 
L 1172 4494 
z
" transform="scale(0.015625)"/>
       <path id="DejaVuSans-64" d="M 2906 2969 
L 2906 4863 
L 3481 4863 
L 3481 0 
L 2906 0 
L 2906 525 
Q 2725 213 2448 61 
Q 2172 -91 1784 -91 
Q 1150 -91 751 415 
Q 353 922 353 1747 
Q 353 2572 751 3078 
Q 1150 3584 1784 3584 
Q 2172 3584 2448 3432 
Q 2725 3281 2906 2969 
z
M 947 1747 
Q 947 1113 1208 752 
Q 1469 391 1925 391 
Q 2381 391 2643 752 
Q 2906 1113 2906 1747 
Q 2906 2381 2643 2742 
Q 2381 3103 1925 3103 
Q 1469 3103 1208 2742 
Q 947 2381 947 1747 
z
" transform="scale(0.015625)"/>
       <path id="DejaVuSans-2f" d="M 1625 4666 
L 2156 4666 
L 531 -594 
L 0 -594 
L 1625 4666 
z
" transform="scale(0.015625)"/>
       <path id="DejaVuSans-68" d="M 3513 2113 
L 3513 0 
L 2938 0 
L 2938 2094 
Q 2938 2591 2744 2837 
Q 2550 3084 2163 3084 
Q 1697 3084 1428 2787 
Q 1159 2491 1159 1978 
L 1159 0 
L 581 0 
L 581 4863 
L 1159 4863 
L 1159 2956 
Q 1366 3272 1645 3428 
Q 1925 3584 2291 3584 
Q 2894 3584 3203 3211 
Q 3513 2838 3513 2113 
z
" transform="scale(0.015625)"/>
       <path id="DejaVuSans-49" d="M 628 4666 
L 1259 4666 
L 1259 0 
L 628 0 
L 628 4666 
z
" transform="scale(0.015625)"/>
       <path id="DejaVuSans-63" d="M 3122 3366 
L 3122 2828 
Q 2878 2963 2633 3030 
Q 2388 3097 2138 3097 
Q 1578 3097 1268 2742 
Q 959 2388 959 1747 
Q 959 1106 1268 751 
Q 1578 397 2138 397 
Q 2388 397 2633 464 
Q 2878 531 3122 666 
L 3122 134 
Q 2881 22 2623 -34 
Q 2366 -91 2075 -91 
Q 1284 -91 818 406 
Q 353 903 353 1747 
Q 353 2603 823 3093 
Q 1294 3584 2113 3584 
Q 2378 3584 2631 3529 
Q 2884 3475 3122 3366 
z
" transform="scale(0.015625)"/>
       <path id="DejaVuSans-6f" d="M 1959 3097 
Q 1497 3097 1228 2736 
Q 959 2375 959 1747 
Q 959 1119 1226 758 
Q 1494 397 1959 397 
Q 2419 397 2687 759 
Q 2956 1122 2956 1747 
Q 2956 2369 2687 2733 
Q 2419 3097 1959 3097 
z
M 1959 3584 
Q 2709 3584 3137 3096 
Q 3566 2609 3566 1747 
Q 3566 888 3137 398 
Q 2709 -91 1959 -91 
Q 1206 -91 779 398 
Q 353 888 353 1747 
Q 353 2609 779 3096 
Q 1206 3584 1959 3584 
z
" transform="scale(0.015625)"/>
      </defs>
      <use xlink:href="#DejaVuSans-41"/>
      <use xlink:href="#DejaVuSans-6d" transform="translate(68.408203 0)"/>
      <use xlink:href="#DejaVuSans-70" transform="translate(165.820312 0)"/>
      <use xlink:href="#DejaVuSans-6c" transform="translate(229.296875 0)"/>
      <use xlink:href="#DejaVuSans-69" transform="translate(257.080078 0)"/>
      <use xlink:href="#DejaVuSans-74" transform="translate(284.863281 0)"/>
      <use xlink:href="#DejaVuSans-75" transform="translate(324.072266 0)"/>
      <use xlink:href="#DejaVuSans-64" transform="translate(387.451172 0)"/>
      <use xlink:href="#DejaVuSans-65" transform="translate(450.927734 0)"/>
      <use xlink:href="#DejaVuSans-2f" transform="translate(512.451172 0)"/>
      <use xlink:href="#DejaVuSans-53" transform="translate(546.142578 0)"/>
      <use xlink:href="#DejaVuSans-68" transform="translate(609.619141 0)"/>
      <use xlink:href="#DejaVuSans-61" transform="translate(672.998047 0)"/>
      <use xlink:href="#DejaVuSans-70" transform="translate(734.277344 0)"/>
      <use xlink:href="#DejaVuSans-65" transform="translate(797.753906 0)"/>
      <use xlink:href="#DejaVuSans-20" transform="translate(859.277344 0)"/>
      <use xlink:href="#DejaVuSans-49" transform="translate(891.064453 0)"/>
      <use xlink:href="#DejaVuSans-6e" transform="translate(920.556641 0)"/>
      <use xlink:href="#DejaVuSans-64" transform="translate(983.935547 0)"/>
      <use xlink:href="#DejaVuSans-69" transform="translate(1047.412109 0)"/>
      <use xlink:href="#DejaVuSans-63" transform="translate(1075.195312 0)"/>
      <use xlink:href="#DejaVuSans-61" transform="translate(1130.175781 0)"/>
      <use xlink:href="#DejaVuSans-74" transform="translate(1191.455078 0)"/>
      <use xlink:href="#DejaVuSans-6f" transform="translate(1230.664062 0)"/>
      <use xlink:href="#DejaVuSans-72" transform="translate(1291.845703 0)"/>
     </g>
    </g>
   </g>
   <g id="line2d_12">
    <path d="M 140.814205 418.786196 
L 747.163636 418.786196 
L 747.163636 418.786196 
" clip-path="url(#p5c0f4aabc1)" style="fill: none; stroke-dasharray: 11.1,4.8; stroke-dashoffset: 0; stroke: #4e79a7; stroke-width: 3"/>
   </g>
   <g id="line2d_13">
    <path d="M 140.814205 398.209813 
L 143.192045 403.456096 
L 145.569886 403.400789 
L 147.947727 405.755144 
L 150.325568 403.108133 
L 152.703409 396.853507 
L 155.08125 395.657454 
L 157.459091 393.429181 
L 159.836932 394.107893 
L 162.214773 393.929186 
L 164.592614 393.215955 
L 166.970455 393.909333 
L 169.348295 393.467443 
L 171.726136 393.550914 
L 174.103977 395.250566 
L 176.481818 394.296948 
L 178.859659 394.510093 
L 181.2375 393.130322 
L 183.615341 394.235585 
L 185.993182 393.599969 
L 188.371023 393.602818 
L 193.126705 393.003527 
L 195.504545 393.476354 
L 197.882386 393.399519 
L 200.260227 392.179701 
L 202.638068 390.816127 
L 205.015909 393.427079 
L 207.39375 393.185225 
L 209.771591 393.517858 
L 212.149432 392.58488 
L 214.527273 392.820553 
L 216.905114 392.904329 
L 221.660795 389.935791 
L 224.038636 386.104601 
L 226.416477 386.542238 
L 228.794318 381.842599 
L 231.172159 387.19051 
L 233.55 399.216401 
L 235.927841 396.883952 
L 238.305682 396.504136 
L 240.683523 400.359863 
L 243.061364 400.254892 
L 245.439205 401.194405 
L 250.194886 400.015923 
L 252.572727 400.823484 
L 254.950568 401.357161 
L 257.328409 398.90712 
L 259.70625 402.806464 
L 262.084091 405.659003 
L 264.461932 402.278974 
L 266.839773 400.35538 
L 269.217614 395.552639 
L 271.595455 392.519334 
L 273.973295 390.245326 
L 276.351136 385.179914 
L 278.728977 381.649209 
L 281.106818 369.350581 
L 285.8625 286.888797 
L 288.240341 273.589769 
L 290.618182 268.762963 
L 292.996023 269.973821 
L 295.373864 269.520606 
L 297.751705 269.442283 
L 300.129545 268.369073 
L 302.507386 269.42529 
L 304.885227 266.893303 
L 307.263068 266.564377 
L 309.640909 268.289801 
L 312.01875 267.956346 
L 314.396591 268.686839 
L 319.152273 273.281102 
L 321.530114 276.510201 
L 323.907955 280.476909 
L 326.285795 283.528585 
L 328.663636 298.268523 
L 331.041477 303.821326 
L 333.419318 315.528113 
L 335.797159 343.089124 
L 338.175 360.480394 
L 342.930682 384.913714 
L 345.308523 391.400803 
L 347.686364 394.589093 
L 350.064205 395.024986 
L 352.442045 392.650884 
L 354.819886 390.468701 
L 357.197727 390.992354 
L 359.575568 385.986922 
L 361.953409 380.381582 
L 364.33125 363.020937 
L 366.709091 341.37445 
L 369.086932 338.031355 
L 371.464773 343.166989 
L 373.842614 352.493426 
L 376.220455 404.502624 
L 378.598295 405.945847 
L 380.976136 405.39619 
L 383.353977 405.581293 
L 385.731818 405.161141 
L 388.109659 402.511296 
L 390.4875 396.634648 
L 392.865341 397.896125 
L 395.243182 400.819561 
L 397.621023 400.949622 
L 399.998864 400.566002 
L 404.754545 399.239735 
L 407.132386 399.06173 
L 409.510227 398.731849 
L 411.888068 399.816718 
L 414.265909 399.898716 
L 416.64375 399.343718 
L 419.021591 399.364834 
L 421.399432 399.664397 
L 423.777273 399.50415 
L 426.155114 399.921863 
L 428.532955 399.726521 
L 430.910795 399.686516 
L 433.288636 398.875691 
L 438.044318 399.392099 
L 440.422159 398.987171 
L 442.8 399.255622 
L 445.177841 399.018196 
L 447.555682 399.367052 
L 449.933523 399.236458 
L 452.311364 398.682103 
L 454.689205 399.714573 
L 457.067045 399.944101 
L 459.444886 400.348898 
L 461.822727 400.071539 
L 464.200568 400.180222 
L 468.95625 399.262919 
L 471.334091 399.695341 
L 473.711932 399.758718 
L 476.089773 400.272814 
L 478.467614 401.952504 
L 480.845455 403.04669 
L 483.223295 402.025833 
L 485.601136 403.119212 
L 487.978977 403.689643 
L 490.356818 403.253549 
L 492.734659 402.959273 
L 495.1125 403.192869 
L 497.490341 403.162362 
L 499.868182 404.492063 
L 502.246023 403.832491 
L 504.623864 404.387622 
L 507.001705 404.289293 
L 509.379545 399.649118 
L 511.757386 396.107013 
L 514.135227 399.157285 
L 516.513068 400.304254 
L 518.890909 400.374174 
L 521.26875 400.006881 
L 523.646591 400.31278 
L 526.024432 399.030632 
L 528.402273 400.837914 
L 530.780114 401.453248 
L 533.157955 399.754188 
L 535.535795 400.169494 
L 537.913636 399.736178 
L 540.291477 399.670687 
L 542.669318 399.295105 
L 545.047159 399.472792 
L 547.425 399.470533 
L 549.802841 398.622517 
L 552.180682 399.948187 
L 554.558523 399.598277 
L 556.936364 399.655879 
L 559.314205 397.689886 
L 561.692045 396.461679 
L 564.069886 396.941949 
L 566.447727 398.805964 
L 568.825568 398.447591 
L 573.58125 399.198939 
L 575.959091 398.722537 
L 580.714773 399.105036 
L 583.092614 398.641041 
L 585.470455 399.74836 
L 587.848295 399.26583 
L 590.226136 401.47389 
L 592.603977 400.837625 
L 594.981818 401.728767 
L 597.359659 404.193909 
L 599.7375 404.305777 
L 602.115341 404.055945 
L 604.493182 402.662082 
L 609.248864 402.246808 
L 611.626705 403.167885 
L 614.004545 403.214283 
L 616.382386 402.543901 
L 618.760227 402.003674 
L 621.138068 403.263191 
L 623.515909 402.102425 
L 625.89375 401.589881 
L 628.271591 403.655298 
L 630.649432 401.216527 
L 633.027273 397.816063 
L 635.405114 401.565874 
L 637.782955 400.310795 
L 640.160795 397.438053 
L 642.538636 397.858224 
L 644.916477 397.279063 
L 647.294318 398.140802 
L 649.672159 397.313138 
L 652.05 397.679076 
L 654.427841 397.169029 
L 656.805682 397.013716 
L 659.183523 397.590762 
L 661.561364 397.037424 
L 663.939205 396.65192 
L 666.317045 396.771531 
L 668.694886 397.077612 
L 671.072727 396.863177 
L 673.450568 396.068763 
L 675.828409 396.54379 
L 678.20625 396.777496 
L 680.584091 397.759722 
L 682.961932 397.786669 
L 685.339773 397.434297 
L 687.717614 397.664852 
L 690.095455 396.884106 
L 692.473295 397.05647 
L 694.851136 396.694711 
L 697.228977 398.270052 
L 699.606818 397.506168 
L 701.984659 398.160863 
L 704.3625 397.056338 
L 709.118182 396.801848 
L 711.496023 397.262321 
L 713.873864 397.543131 
L 716.251705 398.001529 
L 718.629545 398.587786 
L 721.007386 398.420279 
L 723.385227 397.864785 
L 725.763068 397.043403 
L 728.140909 396.445356 
L 730.51875 396.237012 
L 732.896591 397.325286 
L 735.274432 398.807452 
L 737.652273 400.438311 
L 740.030114 396.811381 
L 742.407955 396.363805 
L 744.785795 399.821862 
L 747.163636 400.342327 
L 747.163636 400.342327 
" clip-path="url(#p5c0f4aabc1)" style="fill: none; stroke: #4e79a7; stroke-width: 3; stroke-linecap: square"/>
   </g>
   <g id="line2d_14">
    <path d="M 140.814205 418.786196 
L 399.998864 418.786196 
L 402.376705 201.708789 
L 473.711932 201.708789 
L 476.089773 418.786196 
L 747.163636 418.786196 
L 747.163636 418.786196 
" clip-path="url(#p5c0f4aabc1)" style="fill: none; stroke-dasharray: 11.1,4.8; stroke-dashoffset: 0; stroke: #f28e2b; stroke-width: 3"/>
   </g>
   <g id="line2d_15">
    <path d="M 140.814205 408.664852 
L 143.192045 411.057143 
L 147.947727 412.369855 
L 150.325568 409.461033 
L 152.703409 403.50584 
L 155.08125 405.515262 
L 157.459091 406.30017 
L 159.836932 407.901672 
L 162.214773 407.698319 
L 164.592614 407.17571 
L 166.970455 406.889237 
L 169.348295 405.929648 
L 174.103977 406.660162 
L 181.2375 405.324006 
L 183.615341 405.404651 
L 185.993182 404.993632 
L 188.371023 404.840161 
L 190.748864 404.012911 
L 193.126705 404.04568 
L 195.504545 404.248076 
L 197.882386 404.580022 
L 202.638068 402.841317 
L 205.015909 404.318703 
L 209.771591 403.581234 
L 214.527273 402.347657 
L 219.282955 401.623957 
L 221.660795 401.048963 
L 224.038636 399.070766 
L 226.416477 399.451448 
L 228.794318 391.77205 
L 231.172159 395.648119 
L 233.55 403.786323 
L 238.305682 406.624972 
L 240.683523 409.857646 
L 243.061364 410.890718 
L 247.817045 412.139795 
L 252.572727 411.452947 
L 254.950568 411.474748 
L 257.328409 409.876434 
L 259.70625 408.623842 
L 262.084091 410.381195 
L 264.461932 411.484966 
L 266.839773 412.764727 
L 269.217614 412.373481 
L 271.595455 412.382371 
L 273.973295 411.917907 
L 276.351136 411.322983 
L 278.728977 411.259139 
L 281.106818 411.636251 
L 283.484659 407.930359 
L 285.8625 402.88935 
L 288.240341 405.985816 
L 290.618182 407.143863 
L 295.373864 405.312387 
L 297.751705 405.4308 
L 300.129545 404.923099 
L 302.507386 405.019859 
L 309.640909 405.669227 
L 314.396591 405.000246 
L 319.152273 403.108072 
L 321.530114 403.171368 
L 323.907955 403.734163 
L 326.285795 399.766816 
L 328.663636 401.001805 
L 331.041477 399.835656 
L 333.419318 398.924904 
L 335.797159 399.781686 
L 338.175 398.076917 
L 340.552841 397.976153 
L 342.930682 400.280009 
L 345.308523 399.65102 
L 347.686364 401.114813 
L 354.819886 401.022016 
L 357.197727 401.289838 
L 359.575568 398.886879 
L 361.953409 398.127847 
L 364.33125 397.697243 
L 366.709091 400.583048 
L 369.086932 402.221855 
L 371.464773 402.088232 
L 373.842614 406.717466 
L 376.220455 410.629797 
L 378.598295 413.137782 
L 380.976136 412.355226 
L 383.353977 412.06923 
L 385.731818 411.132505 
L 388.109659 408.479767 
L 390.4875 404.817444 
L 392.865341 409.59372 
L 395.243182 412.605988 
L 397.621023 413.159656 
L 399.998864 412.640083 
L 404.754545 410.864587 
L 407.132386 410.728514 
L 409.510227 411.322782 
L 411.888068 411.218278 
L 416.64375 411.51064 
L 419.021591 411.235025 
L 421.399432 411.326203 
L 423.777273 411.722418 
L 428.532955 411.934492 
L 433.288636 411.241952 
L 435.666477 410.494276 
L 438.044318 411.41059 
L 440.422159 411.305601 
L 442.8 410.563688 
L 445.177841 410.713965 
L 447.555682 410.560596 
L 449.933523 410.88886 
L 452.311364 410.761442 
L 454.689205 411.799435 
L 457.067045 411.885435 
L 459.444886 412.284634 
L 461.822727 412.04259 
L 464.200568 412.167288 
L 466.578409 412.13198 
L 468.95625 411.727048 
L 471.334091 410.457501 
L 473.711932 411.132613 
L 476.089773 412.079196 
L 478.467614 410.620202 
L 480.845455 409.823452 
L 483.223295 411.701783 
L 492.734659 411.337457 
L 497.490341 411.524847 
L 499.868182 412.515492 
L 502.246023 412.137494 
L 504.623864 412.447851 
L 507.001705 412.211367 
L 509.379545 409.761078 
L 511.757386 408.967934 
L 514.135227 412.067025 
L 516.513068 412.463335 
L 518.890909 410.888803 
L 521.26875 410.543881 
L 523.646591 411.568808 
L 526.024432 411.756173 
L 528.402273 411.649827 
L 530.780114 412.161188 
L 533.157955 411.776528 
L 535.535795 412.091184 
L 537.913636 412.062988 
L 540.291477 411.863058 
L 542.669318 410.805251 
L 545.047159 411.55713 
L 547.425 411.611705 
L 549.802841 411.357431 
L 552.180682 410.442355 
L 554.558523 410.338793 
L 556.936364 410.836176 
L 559.314205 410.189068 
L 561.692045 409.836382 
L 564.069886 410.049618 
L 566.447727 410.027795 
L 568.825568 410.884965 
L 573.58125 410.718761 
L 575.959091 411.332145 
L 578.336932 410.983668 
L 580.714773 410.354437 
L 583.092614 409.969177 
L 585.470455 410.14465 
L 587.848295 409.993253 
L 590.226136 408.872557 
L 592.603977 408.613519 
L 594.981818 410.709297 
L 597.359659 411.83831 
L 602.115341 411.099966 
L 604.493182 410.345417 
L 606.871023 410.581423 
L 609.248864 410.224981 
L 611.626705 411.401893 
L 614.004545 411.910401 
L 616.382386 411.341389 
L 618.760227 410.442633 
L 621.138068 411.84094 
L 623.515909 412.235023 
L 625.89375 409.025364 
L 628.271591 407.539392 
L 630.649432 413.288467 
L 633.027273 411.797849 
L 635.405114 413.449228 
L 637.782955 412.699901 
L 640.160795 410.751528 
L 642.538636 410.692071 
L 644.916477 409.813743 
L 647.294318 410.186936 
L 649.672159 409.921189 
L 652.05 410.245767 
L 656.805682 409.382834 
L 659.183523 410.180142 
L 661.561364 410.132971 
L 663.939205 409.83764 
L 675.828409 409.11837 
L 678.20625 409.047529 
L 680.584091 408.773724 
L 682.961932 409.268369 
L 685.339773 410.546301 
L 687.717614 410.577074 
L 694.851136 409.229934 
L 697.228977 410.454366 
L 704.3625 409.777757 
L 706.740341 409.613419 
L 711.496023 409.656118 
L 713.873864 410.032518 
L 716.251705 410.077754 
L 718.629545 410.469878 
L 721.007386 410.656927 
L 723.385227 410.446539 
L 725.763068 410.693829 
L 728.140909 410.014954 
L 730.51875 408.655125 
L 732.896591 406.240893 
L 735.274432 405.237747 
L 737.652273 406.896061 
L 740.030114 407.638011 
L 742.407955 410.400581 
L 744.785795 411.142359 
L 747.163636 413.331105 
L 747.163636 413.331105 
" clip-path="url(#p5c0f4aabc1)" style="fill: none; stroke: #f28e2b; stroke-width: 3; stroke-linecap: square"/>
   </g>
   <g id="line2d_16">
    <path d="M 140.814205 418.786196 
L 171.726136 418.786196 
L 174.103977 201.708789 
L 231.172159 201.708789 
L 233.55 418.786196 
L 747.163636 418.786196 
L 747.163636 418.786196 
" clip-path="url(#p5c0f4aabc1)" style="fill: none; stroke-dasharray: 11.1,4.8; stroke-dashoffset: 0; stroke: #e15759; stroke-width: 3"/>
   </g>
   <g id="line2d_17">
    <path d="M 140.814205 399.301917 
L 143.192045 403.520616 
L 145.569886 404.057287 
L 147.947727 403.225104 
L 150.325568 381.388861 
L 152.703409 304.229966 
L 155.08125 268.454501 
L 157.459091 260.973652 
L 159.836932 260.054532 
L 162.214773 260.436389 
L 164.592614 261.948484 
L 166.970455 265.588304 
L 169.348295 265.568368 
L 171.726136 266.1052 
L 174.103977 267.309933 
L 176.481818 269.270423 
L 178.859659 270.177834 
L 181.2375 270.405978 
L 183.615341 272.286689 
L 185.993182 272.713821 
L 190.748864 275.207024 
L 193.126705 273.926469 
L 195.504545 273.767505 
L 197.882386 274.95475 
L 200.260227 274.283117 
L 202.638068 273.442417 
L 205.015909 273.966288 
L 207.39375 273.033594 
L 209.771591 273.501429 
L 212.149432 276.007291 
L 214.527273 278.285763 
L 216.905114 279.325893 
L 219.282955 276.83117 
L 221.660795 277.000787 
L 224.038636 281.585001 
L 226.416477 303.923057 
L 228.794318 305.112911 
L 231.172159 333.199907 
L 233.55 384.503845 
L 235.927841 398.364245 
L 238.305682 400.108916 
L 240.683523 404.575122 
L 243.061364 405.166171 
L 245.439205 405.891702 
L 247.817045 405.938321 
L 250.194886 405.282609 
L 252.572727 405.917034 
L 254.950568 406.075501 
L 257.328409 403.377912 
L 259.70625 405.351169 
L 262.084091 406.656288 
L 264.461932 406.632319 
L 266.839773 406.251388 
L 269.217614 405.462438 
L 271.595455 405.255238 
L 273.973295 407.245245 
L 276.351136 408.167173 
L 278.728977 408.923093 
L 281.106818 406.623124 
L 283.484659 401.70228 
L 285.8625 399.321723 
L 288.240341 404.65599 
L 290.618182 401.710142 
L 297.751705 401.399446 
L 302.507386 401.082428 
L 304.885227 401.416293 
L 307.263068 401.891043 
L 309.640909 401.261172 
L 312.01875 400.496104 
L 314.396591 400.158438 
L 316.774432 400.266714 
L 319.152273 399.453764 
L 321.530114 399.503435 
L 323.907955 398.89866 
L 326.285795 398.172584 
L 328.663636 398.359017 
L 331.041477 396.666244 
L 335.797159 405.030416 
L 338.175 404.101893 
L 342.930682 406.186377 
L 345.308523 407.053289 
L 347.686364 407.654859 
L 350.064205 407.593363 
L 352.442045 406.568725 
L 354.819886 406.323704 
L 357.197727 405.705196 
L 359.575568 404.417644 
L 361.953409 402.857142 
L 364.33125 399.473609 
L 366.709091 397.836032 
L 369.086932 401.722193 
L 371.464773 400.299363 
L 373.842614 406.024333 
L 376.220455 412.829605 
L 380.976136 408.451974 
L 383.353977 407.065794 
L 385.731818 406.278719 
L 388.109659 404.57019 
L 390.4875 399.162592 
L 392.865341 402.273834 
L 395.243182 405.854453 
L 397.621023 406.245521 
L 399.998864 405.781032 
L 402.376705 404.92523 
L 404.754545 404.22069 
L 409.510227 404.030116 
L 411.888068 404.652911 
L 414.265909 404.827089 
L 416.64375 404.344495 
L 419.021591 404.182225 
L 421.399432 404.50981 
L 423.777273 404.452998 
L 426.155114 404.708885 
L 428.532955 404.782136 
L 430.910795 404.690161 
L 433.288636 403.834855 
L 435.666477 403.690701 
L 438.044318 404.317104 
L 440.422159 403.895448 
L 445.177841 403.803797 
L 447.555682 404.141558 
L 452.311364 403.575149 
L 454.689205 404.695014 
L 457.067045 404.85582 
L 459.444886 405.342788 
L 461.822727 404.901568 
L 464.200568 405.031971 
L 466.578409 404.876447 
L 468.95625 404.534226 
L 471.334091 404.510792 
L 476.089773 405.60552 
L 478.467614 405.444425 
L 480.845455 404.752835 
L 483.223295 406.255268 
L 485.601136 403.811719 
L 487.978977 403.265286 
L 490.356818 403.52778 
L 492.734659 403.01497 
L 497.490341 403.543658 
L 499.868182 404.475975 
L 502.246023 404.032065 
L 504.623864 403.887924 
L 507.001705 403.021129 
L 509.379545 400.173518 
L 511.757386 400.277298 
L 514.135227 404.237795 
L 516.513068 405.500672 
L 518.890909 405.257259 
L 521.26875 404.691335 
L 523.646591 405.343061 
L 526.024432 404.363505 
L 528.402273 405.498204 
L 530.780114 406.153042 
L 533.157955 404.803643 
L 535.535795 404.99068 
L 540.291477 404.641817 
L 542.669318 404.025524 
L 545.047159 404.335329 
L 547.425 404.489296 
L 549.802841 403.917812 
L 552.180682 404.440076 
L 554.558523 404.206564 
L 556.936364 404.392838 
L 559.314205 402.424793 
L 561.692045 401.80203 
L 564.069886 402.129282 
L 566.447727 403.376118 
L 571.203409 403.695316 
L 573.58125 404.107363 
L 575.959091 403.822577 
L 578.336932 403.785953 
L 580.714773 403.997324 
L 583.092614 403.649864 
L 585.470455 404.532044 
L 587.848295 404.006004 
L 590.226136 404.057308 
L 592.603977 402.50614 
L 594.981818 404.412752 
L 597.359659 404.326368 
L 599.7375 403.649433 
L 602.115341 403.338482 
L 604.493182 402.640783 
L 609.248864 401.894849 
L 611.626705 403.204862 
L 614.004545 403.886688 
L 616.382386 402.63836 
L 618.760227 402.142543 
L 621.138068 402.771117 
L 623.515909 401.953818 
L 625.89375 397.94693 
L 628.271591 405.805805 
L 630.649432 412.402574 
L 633.027273 406.446368 
L 635.405114 407.177975 
L 637.782955 406.77353 
L 640.160795 403.701712 
L 642.538636 404.507831 
L 644.916477 403.627582 
L 647.294318 405.659618 
L 649.672159 405.098422 
L 652.05 406.049856 
L 654.427841 406.389564 
L 656.805682 405.884683 
L 659.183523 406.531929 
L 661.561364 406.162624 
L 663.939205 405.406464 
L 666.317045 404.953595 
L 668.694886 404.97574 
L 671.072727 405.38062 
L 673.450568 405.00546 
L 675.828409 404.982223 
L 678.20625 405.815854 
L 680.584091 406.340763 
L 685.339773 406.99335 
L 687.717614 405.958514 
L 690.095455 404.429807 
L 692.473295 405.040764 
L 694.851136 405.948277 
L 697.228977 406.36979 
L 699.606818 405.783007 
L 701.984659 405.93388 
L 704.3625 405.872864 
L 706.740341 405.268919 
L 709.118182 405.658766 
L 713.873864 406.150591 
L 716.251705 406.613419 
L 718.629545 406.802471 
L 721.007386 406.548779 
L 723.385227 404.704595 
L 725.763068 405.14028 
L 728.140909 405.219692 
L 730.51875 405.511595 
L 735.274432 407.188126 
L 737.652273 409.507352 
L 740.030114 408.850468 
L 742.407955 407.372242 
L 744.785795 408.388164 
L 747.163636 402.580155 
L 747.163636 402.580155 
" clip-path="url(#p5c0f4aabc1)" style="fill: none; stroke: #e15759; stroke-width: 3; stroke-linecap: square"/>
   </g>
   <g id="line2d_18">
    <path d="M 140.814205 418.786196 
L 628.271591 418.786196 
L 630.649432 201.708789 
L 735.274432 201.708789 
L 737.652273 418.786196 
L 747.163636 418.786196 
L 747.163636 418.786196 
" clip-path="url(#p5c0f4aabc1)" style="fill: none; stroke-dasharray: 11.1,4.8; stroke-dashoffset: 0; stroke: #76b7b2; stroke-width: 3"/>
   </g>
   <g id="line2d_19">
    <path d="M 140.814205 402.354052 
L 143.192045 405.438454 
L 145.569886 405.446603 
L 147.947727 405.863362 
L 150.325568 404.081159 
L 152.703409 402.467648 
L 155.08125 405.494534 
L 157.459091 405.916649 
L 159.836932 405.846026 
L 162.214773 405.210632 
L 166.970455 404.552443 
L 169.348295 404.814563 
L 171.726136 404.685584 
L 174.103977 404.929752 
L 176.481818 403.660752 
L 178.859659 404.0257 
L 181.2375 403.891718 
L 190.748864 402.605525 
L 193.126705 403.484026 
L 195.504545 403.186154 
L 197.882386 402.528008 
L 200.260227 402.620447 
L 202.638068 401.748035 
L 205.015909 402.827637 
L 207.39375 402.450617 
L 209.771591 402.413136 
L 212.149432 401.524145 
L 214.527273 401.459326 
L 219.282955 400.822023 
L 221.660795 400.0599 
L 224.038636 400.156979 
L 226.416477 401.246908 
L 228.794318 394.357623 
L 231.172159 398.619824 
L 233.55 402.14364 
L 235.927841 403.740517 
L 240.683523 408.36824 
L 243.061364 407.747534 
L 245.439205 408.62981 
L 250.194886 407.751563 
L 252.572727 407.809642 
L 254.950568 408.042541 
L 257.328409 403.611488 
L 259.70625 404.790032 
L 262.084091 403.287016 
L 264.461932 404.221701 
L 266.839773 405.671138 
L 271.595455 405.240382 
L 273.973295 404.765774 
L 276.351136 404.009415 
L 278.728977 405.343455 
L 281.106818 403.591653 
L 285.8625 401.143397 
L 288.240341 402.061827 
L 290.618182 405.678403 
L 292.996023 404.808019 
L 295.373864 404.065853 
L 297.751705 403.686533 
L 300.129545 403.886686 
L 302.507386 403.377699 
L 304.885227 403.986839 
L 307.263068 404.217308 
L 309.640909 404.017553 
L 314.396591 404.448979 
L 316.774432 403.788473 
L 319.152273 403.739008 
L 321.530114 403.016734 
L 323.907955 401.440167 
L 326.285795 397.795187 
L 328.663636 400.291542 
L 331.041477 398.746506 
L 333.419318 399.285066 
L 335.797159 398.759276 
L 338.175 398.725335 
L 340.552841 400.224576 
L 342.930682 399.861078 
L 347.686364 401.8833 
L 350.064205 401.807434 
L 352.442045 400.841204 
L 354.819886 400.891349 
L 357.197727 399.394086 
L 359.575568 400.949963 
L 361.953409 399.632712 
L 364.33125 396.336463 
L 366.709091 396.709928 
L 369.086932 396.8591 
L 371.464773 394.211126 
L 373.842614 397.07879 
L 376.220455 410.638114 
L 378.598295 408.383268 
L 380.976136 407.417905 
L 383.353977 405.797284 
L 385.731818 405.864409 
L 388.109659 406.506699 
L 390.4875 404.492954 
L 392.865341 406.014077 
L 395.243182 407.229214 
L 399.998864 407.262211 
L 404.754545 407.956687 
L 407.132386 408.172946 
L 409.510227 407.128566 
L 411.888068 407.626405 
L 416.64375 406.6561 
L 419.021591 406.353553 
L 421.399432 407.067221 
L 423.777273 406.715712 
L 426.155114 407.906363 
L 428.532955 408.704729 
L 430.910795 407.987031 
L 433.288636 405.853252 
L 435.666477 406.85753 
L 438.044318 408.370305 
L 440.422159 407.198158 
L 445.177841 407.498094 
L 447.555682 408.155611 
L 449.933523 406.801423 
L 452.311364 407.482022 
L 457.067045 407.657065 
L 459.444886 407.886999 
L 461.822727 406.67044 
L 466.578409 408.867233 
L 468.95625 408.052537 
L 471.334091 408.502117 
L 473.711932 408.168512 
L 476.089773 407.547487 
L 478.467614 404.022141 
L 480.845455 402.049534 
L 483.223295 404.658287 
L 485.601136 404.71846 
L 487.978977 404.506903 
L 490.356818 404.705567 
L 495.1125 404.604422 
L 497.490341 404.461563 
L 499.868182 405.594059 
L 502.246023 404.631565 
L 504.623864 405.021882 
L 507.001705 405.956484 
L 509.379545 402.377233 
L 511.757386 402.63756 
L 514.135227 406.284869 
L 516.513068 408.270402 
L 518.890909 409.272071 
L 521.26875 409.765135 
L 523.646591 410.031479 
L 526.024432 406.586196 
L 528.402273 407.710453 
L 530.780114 408.496871 
L 533.157955 407.897409 
L 535.535795 407.671826 
L 537.913636 408.686215 
L 540.291477 407.773411 
L 542.669318 407.79997 
L 545.047159 407.212245 
L 547.425 409.723908 
L 549.802841 407.322222 
L 554.558523 408.242462 
L 556.936364 407.873228 
L 559.314205 407.051831 
L 561.692045 406.571424 
L 564.069886 404.304958 
L 566.447727 406.598706 
L 568.825568 405.994542 
L 571.203409 406.906526 
L 573.58125 406.938458 
L 575.959091 405.724748 
L 578.336932 407.327856 
L 580.714773 407.271756 
L 583.092614 406.862206 
L 585.470455 408.003493 
L 587.848295 406.692995 
L 590.226136 403.988108 
L 592.603977 402.046524 
L 594.981818 404.424325 
L 597.359659 405.367272 
L 606.871023 404.433292 
L 609.248864 403.822808 
L 611.626705 404.601621 
L 614.004545 404.481028 
L 616.382386 403.826759 
L 618.760227 403.565628 
L 621.138068 404.8344 
L 623.515909 404.542497 
L 625.89375 400.539053 
L 628.271591 369.039538 
L 630.649432 260.116078 
L 633.027273 260.15442 
L 635.405114 254.390412 
L 637.782955 255.484271 
L 640.160795 257.600005 
L 642.538636 257.595132 
L 644.916477 259.427463 
L 647.294318 258.773308 
L 649.672159 259.262407 
L 652.05 258.93499 
L 654.427841 259.753252 
L 656.805682 259.806301 
L 659.183523 258.527331 
L 661.561364 258.375138 
L 666.317045 259.160578 
L 668.694886 259.749564 
L 671.072727 260.150064 
L 673.450568 260.302235 
L 675.828409 260.915125 
L 678.20625 261.083125 
L 680.584091 261.797068 
L 682.961932 261.174441 
L 685.339773 257.632805 
L 687.717614 258.724033 
L 690.095455 258.783163 
L 692.473295 260.227783 
L 694.851136 259.926233 
L 697.228977 258.244283 
L 701.984659 259.702521 
L 706.740341 259.659963 
L 709.118182 260.031695 
L 711.496023 259.528849 
L 713.873864 259.225251 
L 716.251705 259.295487 
L 721.007386 258.424607 
L 723.385227 258.768435 
L 725.763068 257.871764 
L 728.140909 259.087657 
L 730.51875 261.227598 
L 735.274432 276.414917 
L 737.652273 292.989548 
L 740.030114 325.500688 
L 742.407955 368.166 
L 744.785795 390.606777 
L 747.163636 401.918694 
L 747.163636 401.918694 
" clip-path="url(#p5c0f4aabc1)" style="fill: none; stroke: #76b7b2; stroke-width: 3; stroke-linecap: square"/>
   </g>
   <g id="line2d_20">
    <path d="M 140.814205 418.786196 
L 285.8625 418.786196 
L 288.240341 201.708789 
L 373.842614 201.708789 
L 376.220455 418.786196 
L 747.163636 418.786196 
L 747.163636 418.786196 
" clip-path="url(#p5c0f4aabc1)" style="fill: none; stroke-dasharray: 11.1,4.8; stroke-dashoffset: 0; stroke: #59a14f; stroke-width: 3"/>
   </g>
   <g id="line2d_21">
    <path d="M 140.814205 408.13455 
L 143.192045 400.222326 
L 145.569886 397.68543 
L 147.947727 401.048358 
L 150.325568 400.836727 
L 152.703409 403.736523 
L 155.08125 408.38288 
L 159.836932 408.140344 
L 162.214773 407.779063 
L 164.592614 407.202894 
L 166.970455 406.991733 
L 169.348295 407.217813 
L 171.726136 406.97121 
L 174.103977 407.76769 
L 176.481818 406.594604 
L 178.859659 406.876778 
L 181.2375 406.150663 
L 183.615341 406.382489 
L 185.993182 405.915415 
L 190.748864 405.481586 
L 193.126705 405.869191 
L 195.504545 405.966421 
L 197.882386 405.343815 
L 200.260227 405.042124 
L 202.638068 404.214293 
L 205.015909 405.70274 
L 207.39375 405.64105 
L 209.771591 405.865462 
L 212.149432 404.792981 
L 216.905114 404.746201 
L 219.282955 404.165541 
L 221.660795 403.093563 
L 224.038636 402.476926 
L 226.416477 401.260119 
L 228.794318 394.765508 
L 231.172159 397.183456 
L 233.55 396.063596 
L 235.927841 393.177947 
L 238.305682 395.615435 
L 240.683523 397.138759 
L 243.061364 396.609083 
L 245.439205 398.299394 
L 247.817045 397.596186 
L 250.194886 397.777685 
L 252.572727 395.975102 
L 254.950568 397.163625 
L 257.328409 396.228262 
L 259.70625 397.104679 
L 262.084091 395.099955 
L 264.461932 395.293879 
L 266.839773 397.117044 
L 271.595455 394.622553 
L 273.973295 397.589894 
L 276.351136 396.076467 
L 278.728977 398.24457 
L 281.106818 397.210028 
L 283.484659 397.216158 
L 285.8625 397.73806 
L 288.240341 400.979946 
L 290.618182 400.387366 
L 292.996023 402.982585 
L 300.129545 402.615332 
L 302.507386 402.991968 
L 304.885227 403.509011 
L 307.263068 403.339208 
L 309.640909 403.441413 
L 314.396591 403.153062 
L 316.774432 402.383989 
L 319.152273 401.431171 
L 321.530114 398.902392 
L 323.907955 394.930726 
L 326.285795 383.276182 
L 328.663636 376.296548 
L 331.041477 365.810644 
L 333.419318 350.753651 
L 335.797159 331.19674 
L 338.175 310.56615 
L 342.930682 296.318038 
L 345.308523 293.301632 
L 347.686364 291.589276 
L 350.064205 293.250794 
L 352.442045 292.411646 
L 354.819886 296.102283 
L 357.197727 294.183003 
L 359.575568 295.377267 
L 361.953409 297.375054 
L 364.33125 304.424437 
L 366.709091 316.629584 
L 369.086932 334.217804 
L 371.464773 334.442557 
L 373.842614 351.582754 
L 376.220455 385.443284 
L 378.598295 398.588276 
L 380.976136 401.282386 
L 383.353977 399.017684 
L 385.731818 396.088263 
L 388.109659 393.882741 
L 390.4875 394.089123 
L 392.865341 397.599817 
L 395.243182 398.885355 
L 399.998864 398.724883 
L 402.376705 399.023242 
L 404.754545 397.988656 
L 407.132386 397.75514 
L 409.510227 398.451191 
L 411.888068 398.503998 
L 414.265909 397.121726 
L 416.64375 397.328857 
L 419.021591 397.079943 
L 421.399432 396.962186 
L 426.155114 398.646617 
L 430.910795 398.392504 
L 433.288636 397.963167 
L 435.666477 397.15386 
L 438.044318 397.394659 
L 440.422159 398.039395 
L 445.177841 396.756922 
L 447.555682 397.005834 
L 449.933523 397.890431 
L 452.311364 396.919323 
L 454.689205 397.724075 
L 457.067045 398.308349 
L 459.444886 397.935959 
L 461.822727 398.734522 
L 464.200568 399.792693 
L 466.578409 399.699627 
L 471.334091 398.342221 
L 473.711932 398.357453 
L 476.089773 397.444509 
L 480.845455 394.872453 
L 483.223295 396.283548 
L 485.601136 398.368078 
L 487.978977 399.341831 
L 492.734659 399.707254 
L 495.1125 399.595236 
L 497.490341 398.577706 
L 499.868182 400.259685 
L 502.246023 399.395349 
L 504.623864 400.127407 
L 507.001705 400.159393 
L 509.379545 397.804139 
L 511.757386 397.056573 
L 514.135227 398.004715 
L 516.513068 397.91396 
L 518.890909 396.898524 
L 521.26875 399.069614 
L 523.646591 399.225965 
L 526.024432 399.253945 
L 528.402273 398.866794 
L 530.780114 397.980722 
L 533.157955 397.374932 
L 535.535795 398.6742 
L 537.913636 398.42974 
L 540.291477 398.603879 
L 542.669318 397.862229 
L 545.047159 398.510119 
L 547.425 398.631984 
L 549.802841 398.221978 
L 552.180682 398.041166 
L 554.558523 396.559787 
L 556.936364 396.717063 
L 559.314205 398.088492 
L 561.692045 394.816617 
L 564.069886 396.144172 
L 566.447727 397.236354 
L 568.825568 396.717733 
L 571.203409 397.665798 
L 573.58125 396.523133 
L 575.959091 397.461095 
L 578.336932 398.20033 
L 580.714773 396.915819 
L 585.470455 397.656212 
L 587.848295 395.852952 
L 590.226136 395.774348 
L 592.603977 395.059449 
L 594.981818 396.620392 
L 597.359659 398.732387 
L 599.7375 400.188701 
L 602.115341 400.508938 
L 604.493182 399.485963 
L 606.871023 399.789984 
L 609.248864 398.967066 
L 611.626705 398.96455 
L 614.004545 398.543559 
L 616.382386 398.848207 
L 618.760227 398.504775 
L 621.138068 399.207683 
L 623.515909 399.444118 
L 625.89375 398.734017 
L 628.271591 402.570114 
L 630.649432 400.73952 
L 633.027273 392.345043 
L 635.405114 398.427384 
L 637.782955 397.789168 
L 642.538636 399.307761 
L 644.916477 398.488046 
L 647.294318 398.684938 
L 649.672159 398.05472 
L 652.05 398.441802 
L 654.427841 398.35649 
L 656.805682 399.444254 
L 659.183523 399.523485 
L 661.561364 399.203931 
L 663.939205 399.13872 
L 666.317045 399.193691 
L 668.694886 399.461527 
L 673.450568 398.875871 
L 678.20625 397.822789 
L 680.584091 399.210882 
L 682.961932 399.255848 
L 685.339773 400.035512 
L 687.717614 398.239586 
L 690.095455 398.299846 
L 692.473295 397.922504 
L 694.851136 399.065084 
L 697.228977 399.914197 
L 699.606818 398.62628 
L 701.984659 399.179637 
L 704.3625 398.963343 
L 706.740341 399.093927 
L 709.118182 398.576897 
L 711.496023 399.370427 
L 716.251705 399.229171 
L 718.629545 399.45251 
L 721.007386 399.222531 
L 723.385227 398.520036 
L 725.763068 397.955886 
L 728.140909 397.023846 
L 730.51875 397.59931 
L 732.896591 397.295328 
L 735.274432 399.201892 
L 737.652273 401.352421 
L 740.030114 403.212076 
L 742.407955 403.846503 
L 744.785795 402.535636 
L 747.163636 405.533004 
L 747.163636 405.533004 
" clip-path="url(#p5c0f4aabc1)" style="fill: none; stroke: #59a14f; stroke-width: 3; stroke-linecap: square"/>
   </g>
   <g id="line2d_22">
    <path d="M 140.814205 418.786196 
L 514.135227 418.786196 
L 516.513068 201.708789 
L 585.470455 201.708789 
L 587.848295 418.786196 
L 747.163636 418.786196 
L 747.163636 418.786196 
" clip-path="url(#p5c0f4aabc1)" style="fill: none; stroke-dasharray: 11.1,4.8; stroke-dashoffset: 0; stroke: #edc948; stroke-width: 3"/>
   </g>
   <g id="line2d_23">
    <path d="M 140.814205 405.267961 
L 143.192045 402.873093 
L 145.569886 406.210096 
L 147.947727 406.241452 
L 150.325568 403.804953 
L 152.703409 399.625327 
L 155.08125 400.361082 
L 157.459091 398.84755 
L 159.836932 400.404012 
L 162.214773 400.396095 
L 164.592614 399.712559 
L 166.970455 400.124208 
L 169.348295 399.064746 
L 171.726136 399.577258 
L 174.103977 400.62856 
L 176.481818 400.10953 
L 178.859659 399.990903 
L 181.2375 398.835543 
L 183.615341 399.717445 
L 185.993182 399.244566 
L 188.371023 399.115228 
L 190.748864 398.541203 
L 193.126705 398.116549 
L 197.882386 399.114443 
L 200.260227 397.652426 
L 202.638068 396.568462 
L 205.015909 398.919676 
L 207.39375 398.599606 
L 209.771591 398.758096 
L 212.149432 398.022052 
L 216.905114 397.758397 
L 219.282955 396.532989 
L 221.660795 395.014966 
L 224.038636 393.806464 
L 226.416477 396.176851 
L 228.794318 390.983332 
L 231.172159 387.000374 
L 233.55 364.365652 
L 235.927841 295.407976 
L 238.305682 270.057438 
L 240.683523 264.910094 
L 243.061364 262.446748 
L 245.439205 261.818115 
L 247.817045 260.028644 
L 250.194886 260.640919 
L 252.572727 262.140842 
L 254.950568 263.302263 
L 257.328409 268.856586 
L 259.70625 290.891238 
L 262.084091 321.169763 
L 264.461932 359.989177 
L 266.839773 385.13727 
L 269.217614 398.713093 
L 271.595455 402.838768 
L 273.973295 405.984887 
L 276.351136 405.520226 
L 278.728977 406.618824 
L 281.106818 405.553465 
L 283.484659 404.125708 
L 285.8625 403.801169 
L 288.240341 407.275484 
L 290.618182 406.643387 
L 292.996023 406.163684 
L 295.373864 405.330663 
L 297.751705 404.756423 
L 300.129545 404.577766 
L 302.507386 404.573643 
L 304.885227 404.74486 
L 307.263068 405.316729 
L 309.640909 405.029175 
L 312.01875 404.555034 
L 316.774432 404.604864 
L 319.152273 404.010651 
L 321.530114 404.145418 
L 323.907955 403.710803 
L 328.663636 402.425015 
L 331.041477 402.515066 
L 333.419318 401.479609 
L 335.797159 400.66008 
L 338.175 398.861105 
L 340.552841 398.639677 
L 342.930682 397.141275 
L 345.308523 396.297728 
L 347.686364 393.185576 
L 350.064205 391.83624 
L 352.442045 390.723792 
L 354.819886 391.049859 
L 357.197727 389.414699 
L 359.575568 388.401517 
L 361.953409 388.274859 
L 364.33125 388.745234 
L 366.709091 394.543856 
L 369.086932 399.318571 
L 371.464773 405.123543 
L 376.220455 411.452045 
L 378.598295 408.411145 
L 380.976136 408.728459 
L 383.353977 406.545304 
L 385.731818 397.32447 
L 388.109659 358.332609 
L 390.4875 284.80859 
L 392.865341 265.968673 
L 395.243182 260.71962 
L 397.621023 259.150529 
L 399.998864 259.679101 
L 404.754545 261.336963 
L 407.132386 261.528911 
L 409.510227 261.008641 
L 411.888068 261.95145 
L 414.265909 262.025675 
L 416.64375 261.757626 
L 419.021591 262.382884 
L 421.399432 261.981813 
L 423.777273 261.269185 
L 426.155114 260.853806 
L 428.532955 259.977406 
L 430.910795 261.07588 
L 433.288636 261.991129 
L 435.666477 263.266487 
L 438.044318 261.406315 
L 440.422159 261.652229 
L 442.8 262.918411 
L 445.177841 262.381374 
L 449.933523 262.838417 
L 454.689205 261.201063 
L 459.444886 260.337483 
L 461.822727 260.91532 
L 466.578409 259.001247 
L 468.95625 259.762384 
L 471.334091 261.648401 
L 473.711932 261.422068 
L 476.089773 262.875767 
L 478.467614 277.515537 
L 480.845455 308.085023 
L 483.223295 367.008908 
L 485.601136 394.864191 
L 487.978977 403.201952 
L 490.356818 403.959597 
L 492.734659 403.867011 
L 495.1125 404.06347 
L 499.868182 405.44854 
L 502.246023 404.816179 
L 504.623864 404.784065 
L 507.001705 390.823691 
L 511.757386 273.202132 
L 514.135227 261.952086 
L 516.513068 259.48876 
L 518.890909 261.168759 
L 521.26875 261.415028 
L 523.646591 260.177483 
L 526.024432 260.478268 
L 528.402273 261.681007 
L 530.780114 260.602135 
L 535.535795 260.771655 
L 537.913636 260.075849 
L 540.291477 260.453447 
L 542.669318 262.126426 
L 547.425 260.085208 
L 549.802841 260.880902 
L 552.180682 263.01225 
L 554.558523 262.952311 
L 556.936364 262.643439 
L 561.692045 263.319579 
L 564.069886 264.008582 
L 566.447727 264.266517 
L 568.825568 262.266909 
L 571.203409 262.409689 
L 573.58125 262.884091 
L 575.959091 261.947546 
L 578.336932 261.811786 
L 580.714773 262.78155 
L 585.470455 263.349069 
L 587.848295 265.682758 
L 590.226136 285.918762 
L 592.603977 324.21913 
L 594.981818 380.595498 
L 597.359659 399.738013 
L 599.7375 404.028702 
L 602.115341 404.537459 
L 604.493182 403.079176 
L 606.871023 402.902621 
L 609.248864 402.369702 
L 611.626705 403.745018 
L 616.382386 403.483952 
L 618.760227 403.390505 
L 621.138068 404.445483 
L 623.515909 404.231049 
L 625.89375 404.278204 
L 628.271591 407.036831 
L 630.649432 408.246666 
L 633.027273 403.199034 
L 635.405114 404.123835 
L 637.782955 403.547185 
L 640.160795 401.933209 
L 642.538636 402.731248 
L 644.916477 402.048446 
L 647.294318 402.959827 
L 649.672159 402.386612 
L 652.05 403.302101 
L 659.183523 404.018762 
L 663.939205 403.080661 
L 666.317045 402.98764 
L 668.694886 403.384568 
L 671.072727 403.551475 
L 673.450568 403.107567 
L 678.20625 402.985415 
L 680.584091 404.331991 
L 682.961932 404.680044 
L 685.339773 404.48289 
L 690.095455 402.313192 
L 692.473295 402.731429 
L 694.851136 403.405199 
L 697.228977 404.256664 
L 699.606818 403.348722 
L 701.984659 403.961768 
L 704.3625 403.715436 
L 706.740341 403.351964 
L 709.118182 403.447303 
L 713.873864 404.020294 
L 716.251705 404.208049 
L 718.629545 404.551933 
L 721.007386 404.190573 
L 723.385227 402.822515 
L 728.140909 401.782955 
L 730.51875 402.36655 
L 732.896591 404.482906 
L 735.274432 407.012257 
L 737.652273 410.957415 
L 740.030114 412.13132 
L 742.407955 411.465861 
L 744.785795 410.048793 
L 747.163636 407.917333 
L 747.163636 407.917333 
" clip-path="url(#p5c0f4aabc1)" style="fill: none; stroke: #edc948; stroke-width: 3; stroke-linecap: square"/>
   </g>
   <g id="line2d_24">
    <path d="M 138.436364 399.234868 
L 140.814205 481.944591 
L 143.192045 466.666076 
L 145.569886 461.276651 
L 147.947727 366.647292 
L 150.325568 426.398054 
L 152.703409 415.551838 
L 155.08125 492.48 
L 157.459091 408.58381 
L 159.836932 423.493994 
L 162.214773 415.463473 
L 164.592614 446.470557 
L 166.970455 453.6359 
L 169.348295 417.358239 
L 171.726136 344.049817 
L 174.103977 446.75921 
L 176.481818 416.717959 
L 178.859659 456.66687 
L 181.2375 360.71659 
L 183.615341 367.152087 
L 185.993182 406.60386 
L 188.371023 420.71053 
L 190.748864 396.63519 
L 193.126705 369.193994 
L 195.504545 401.960124 
L 197.882386 282.294431 
L 200.260227 315.718114 
L 202.638068 345.781408 
L 205.015909 300.987311 
L 207.39375 324.388556 
L 209.771591 269.458486 
L 212.149432 314.884474 
L 214.527273 328.514877 
L 216.905114 302.510081 
L 219.282955 254.467222 
L 221.660795 273.32085 
L 224.038636 333.136107 
L 226.416477 289.389059 
L 228.794318 257.074596 
L 231.172159 445.899086 
L 235.927841 381.275977 
L 238.305682 408.073816 
L 240.683523 344.734113 
L 243.061364 407.875307 
L 245.439205 360.599352 
L 247.817045 412.166191 
L 250.194886 432.838327 
L 252.572727 400.824507 
L 254.950568 329.788087 
L 257.328409 400.765565 
L 259.70625 393.936651 
L 262.084091 457.48338 
L 264.461932 388.279482 
L 266.839773 442.082324 
L 269.217614 447.77501 
L 271.595455 464.329562 
L 273.973295 426.782043 
L 276.351136 463.502912 
L 278.728977 420.114012 
L 281.106818 455.544513 
L 283.484659 385.297141 
L 285.8625 250.045877 
L 288.240341 266.824899 
L 290.618182 188.200709 
L 292.996023 252.167016 
L 295.373864 230.509621 
L 297.751705 194.009993 
L 300.129545 248.092349 
L 302.507386 209.385587 
L 304.885227 210.801619 
L 307.263068 233.247152 
L 309.640909 241.460572 
L 312.01875 212.849712 
L 314.396591 265.73416 
L 316.774432 249.652545 
L 319.152273 247.871836 
L 321.530114 202.084404 
L 323.907955 202.207098 
L 326.285795 271.222288 
L 328.663636 242.911391 
L 331.041477 112.308355 
L 333.419318 218.599791 
L 335.797159 200.498017 
L 338.175 202.469745 
L 340.552841 191.485427 
L 342.930682 263.646183 
L 345.308523 213.315966 
L 347.686364 285.327217 
L 350.064205 236.242581 
L 352.442045 252.657359 
L 354.819886 298.038815 
L 357.197727 242.387184 
L 359.575568 235.078093 
L 364.33125 199.876947 
L 366.709091 256.894959 
L 369.086932 248.418685 
L 371.464773 215.529368 
L 373.842614 392.043483 
L 376.220455 436.36654 
L 378.598295 453.536228 
L 380.976136 401.634675 
L 383.353977 446.916491 
L 385.731818 457.742514 
L 388.109659 437.571986 
L 390.4875 429.290618 
L 392.865341 389.393843 
L 395.243182 424.062299 
L 397.621023 390.17411 
L 399.998864 387.588151 
L 402.376705 405.677567 
L 404.754545 432.650267 
L 407.132386 356.100815 
L 409.510227 364.44139 
L 411.888068 357.525242 
L 414.265909 333.502436 
L 416.64375 307.835942 
L 419.021591 294.628117 
L 421.399432 275.623005 
L 423.777273 281.144867 
L 426.155114 246.011119 
L 428.532955 198.214483 
L 430.910795 155.145968 
L 433.288636 244.780455 
L 435.666477 266.221396 
L 438.044318 208.170376 
L 440.422159 252.880904 
L 442.8 264.91386 
L 445.177841 271.796103 
L 447.555682 259.146529 
L 449.933523 248.713204 
L 452.311364 340.521726 
L 454.689205 299.578231 
L 457.067045 324.06962 
L 459.444886 322.036565 
L 461.822727 326.364137 
L 464.200568 387.523012 
L 466.578409 413.556761 
L 468.95625 430.268699 
L 471.334091 444.624338 
L 473.711932 331.768514 
L 476.089773 448.12134 
L 478.467614 442.973847 
L 480.845455 397.639139 
L 483.223295 393.499203 
L 485.601136 451.718205 
L 487.978977 418.676775 
L 490.356818 444.501692 
L 492.734659 390.447759 
L 495.1125 459.501949 
L 499.868182 348.928251 
L 502.246023 419.581389 
L 504.623864 407.061437 
L 507.001705 348.725968 
L 509.379545 391.973337 
L 511.757386 372.837723 
L 514.135227 395.763071 
L 516.513068 456.552788 
L 518.890909 372.559364 
L 521.26875 404.38943 
L 523.646591 268.464116 
L 526.024432 350.537115 
L 528.402273 302.001515 
L 530.780114 301.76558 
L 533.157955 311.45609 
L 535.535795 301.916584 
L 537.913636 220.438485 
L 540.291477 254.744325 
L 542.669318 227.063792 
L 545.047159 238.686909 
L 547.425 134.884206 
L 549.802841 138.042532 
L 552.180682 194.067194 
L 554.558523 199.727133 
L 556.936364 237.505614 
L 559.314205 175.40268 
L 561.692045 324.849249 
L 564.069886 376.401893 
L 566.447727 292.487307 
L 568.825568 317.006843 
L 571.203409 364.010684 
L 573.58125 286.055897 
L 575.959091 352.627205 
L 578.336932 389.931402 
L 580.714773 367.715348 
L 583.092614 412.848041 
L 585.470455 405.097069 
L 587.848295 459.623613 
L 590.226136 376.408236 
L 592.603977 391.248551 
L 594.981818 381.197159 
L 597.359659 422.40208 
L 599.7375 422.43944 
L 602.115341 412.929856 
L 604.493182 402.42578 
L 606.871023 391.134383 
L 609.248864 466.390311 
L 611.626705 432.230797 
L 614.004545 476.746741 
L 616.382386 439.936335 
L 618.760227 449.457994 
L 621.138068 450.826556 
L 623.515909 431.186361 
L 625.89375 401.200643 
L 628.271591 89.28 
L 630.649432 257.334438 
L 633.027273 161.516087 
L 635.405114 212.841441 
L 637.782955 254.579891 
L 640.160795 208.871861 
L 642.538636 280.202784 
L 644.916477 230.309634 
L 647.294318 260.674005 
L 649.672159 220.750407 
L 652.05 243.086286 
L 654.427841 254.174367 
L 656.805682 227.234178 
L 659.183523 247.363792 
L 661.561364 263.120583 
L 663.939205 274.613423 
L 666.317045 289.858133 
L 668.694886 308.321157 
L 671.072727 320.573083 
L 673.450568 309.788933 
L 675.828409 369.477677 
L 678.20625 337.750183 
L 680.584091 322.119884 
L 682.961932 238.371402 
L 685.339773 274.086954 
L 687.717614 296.567594 
L 690.095455 298.887054 
L 692.473295 399.596845 
L 694.851136 315.269218 
L 697.228977 352.421951 
L 699.606818 323.14532 
L 701.984659 343.876254 
L 704.3625 306.546991 
L 706.740341 346.178716 
L 709.118182 363.543921 
L 711.496023 356.939619 
L 713.873864 381.807205 
L 716.251705 378.034546 
L 718.629545 389.543824 
L 721.007386 403.513324 
L 723.385227 338.258618 
L 725.763068 423.238136 
L 728.140909 448.059698 
L 730.51875 446.089891 
L 732.896591 463.98598 
L 735.274432 361.629058 
L 737.652273 373.483689 
L 740.030114 386.764036 
L 742.407955 388.262506 
L 744.785795 431.164379 
L 744.785795 431.164379 
" clip-path="url(#p5c0f4aabc1)" style="fill: none; stroke: #808080; stroke-width: 2; stroke-linecap: square"/>
   </g>
   <g id="patch_3">
    <path d="M 108 512.64 
L 108 69.12 
" style="fill: none; stroke: #000000; stroke-width: 0.8; stroke-linejoin: miter; stroke-linecap: square"/>
   </g>
   <g id="patch_4">
    <path d="M 777.6 512.64 
L 777.6 69.12 
" style="fill: none; stroke: #000000; stroke-width: 0.8; stroke-linejoin: miter; stroke-linecap: square"/>
   </g>
   <g id="patch_5">
    <path d="M 108 512.64 
L 777.6 512.64 
" style="fill: none; stroke: #000000; stroke-width: 0.8; stroke-linejoin: miter; stroke-linecap: square"/>
   </g>
   <g id="patch_6">
    <path d="M 108 69.12 
L 777.6 69.12 
" style="fill: none; stroke: #000000; stroke-width: 0.8; stroke-linejoin: miter; stroke-linecap: square"/>
   </g>
   <g id="text_14">
    <!-- Predicted (solid) vs GT (dotted) Shape Type -->
    <g transform="translate(312.863438 63.12) scale(0.12 -0.12)">
     <defs>
      <path id="DejaVuSans-50" d="M 1259 4147 
L 1259 2394 
L 2053 2394 
Q 2494 2394 2734 2622 
Q 2975 2850 2975 3272 
Q 2975 3691 2734 3919 
Q 2494 4147 2053 4147 
L 1259 4147 
z
M 628 4666 
L 2053 4666 
Q 2838 4666 3239 4311 
Q 3641 3956 3641 3272 
Q 3641 2581 3239 2228 
Q 2838 1875 2053 1875 
L 1259 1875 
L 1259 0 
L 628 0 
L 628 4666 
z
" transform="scale(0.015625)"/>
      <path id="DejaVuSans-28" d="M 1984 4856 
Q 1566 4138 1362 3434 
Q 1159 2731 1159 2009 
Q 1159 1288 1364 580 
Q 1569 -128 1984 -844 
L 1484 -844 
Q 1016 -109 783 600 
Q 550 1309 550 2009 
Q 550 2706 781 3412 
Q 1013 4119 1484 4856 
L 1984 4856 
z
" transform="scale(0.015625)"/>
      <path id="DejaVuSans-73" d="M 2834 3397 
L 2834 2853 
Q 2591 2978 2328 3040 
Q 2066 3103 1784 3103 
Q 1356 3103 1142 2972 
Q 928 2841 928 2578 
Q 928 2378 1081 2264 
Q 1234 2150 1697 2047 
L 1894 2003 
Q 2506 1872 2764 1633 
Q 3022 1394 3022 966 
Q 3022 478 2636 193 
Q 2250 -91 1575 -91 
Q 1294 -91 989 -36 
Q 684 19 347 128 
L 347 722 
Q 666 556 975 473 
Q 1284 391 1588 391 
Q 1994 391 2212 530 
Q 2431 669 2431 922 
Q 2431 1156 2273 1281 
Q 2116 1406 1581 1522 
L 1381 1569 
Q 847 1681 609 1914 
Q 372 2147 372 2553 
Q 372 3047 722 3315 
Q 1072 3584 1716 3584 
Q 2034 3584 2315 3537 
Q 2597 3491 2834 3397 
z
" transform="scale(0.015625)"/>
      <path id="DejaVuSans-29" d="M 513 4856 
L 1013 4856 
Q 1481 4119 1714 3412 
Q 1947 2706 1947 2009 
Q 1947 1309 1714 600 
Q 1481 -109 1013 -844 
L 513 -844 
Q 928 -128 1133 580 
Q 1338 1288 1338 2009 
Q 1338 2731 1133 3434 
Q 928 4138 513 4856 
z
" transform="scale(0.015625)"/>
      <path id="DejaVuSans-76" d="M 191 3500 
L 800 3500 
L 1894 563 
L 2988 3500 
L 3597 3500 
L 2284 0 
L 1503 0 
L 191 3500 
z
" transform="scale(0.015625)"/>
      <path id="DejaVuSans-47" d="M 3809 666 
L 3809 1919 
L 2778 1919 
L 2778 2438 
L 4434 2438 
L 4434 434 
Q 4069 175 3628 42 
Q 3188 -91 2688 -91 
Q 1594 -91 976 548 
Q 359 1188 359 2328 
Q 359 3472 976 4111 
Q 1594 4750 2688 4750 
Q 3144 4750 3555 4637 
Q 3966 4525 4313 4306 
L 4313 3634 
Q 3963 3931 3569 4081 
Q 3175 4231 2741 4231 
Q 1884 4231 1454 3753 
Q 1025 3275 1025 2328 
Q 1025 1384 1454 906 
Q 1884 428 2741 428 
Q 3075 428 3337 486 
Q 3600 544 3809 666 
z
" transform="scale(0.015625)"/>
      <path id="DejaVuSans-54" d="M -19 4666 
L 3928 4666 
L 3928 4134 
L 2272 4134 
L 2272 0 
L 1638 0 
L 1638 4134 
L -19 4134 
L -19 4666 
z
" transform="scale(0.015625)"/>
      <path id="DejaVuSans-79" d="M 2059 -325 
Q 1816 -950 1584 -1140 
Q 1353 -1331 966 -1331 
L 506 -1331 
L 506 -850 
L 844 -850 
Q 1081 -850 1212 -737 
Q 1344 -625 1503 -206 
L 1606 56 
L 191 3500 
L 800 3500 
L 1894 763 
L 2988 3500 
L 3597 3500 
L 2059 -325 
z
" transform="scale(0.015625)"/>
     </defs>
     <use xlink:href="#DejaVuSans-50"/>
     <use xlink:href="#DejaVuSans-72" transform="translate(58.552734 0)"/>
     <use xlink:href="#DejaVuSans-65" transform="translate(97.416016 0)"/>
     <use xlink:href="#DejaVuSans-64" transform="translate(158.939453 0)"/>
     <use xlink:href="#DejaVuSans-69" transform="translate(222.416016 0)"/>
     <use xlink:href="#DejaVuSans-63" transform="translate(250.199219 0)"/>
     <use xlink:href="#DejaVuSans-74" transform="translate(305.179688 0)"/>
     <use xlink:href="#DejaVuSans-65" transform="translate(344.388672 0)"/>
     <use xlink:href="#DejaVuSans-64" transform="translate(405.912109 0)"/>
     <use xlink:href="#DejaVuSans-20" transform="translate(469.388672 0)"/>
     <use xlink:href="#DejaVuSans-28" transform="translate(501.175781 0)"/>
     <use xlink:href="#DejaVuSans-73" transform="translate(540.189453 0)"/>
     <use xlink:href="#DejaVuSans-6f" transform="translate(592.289062 0)"/>
     <use xlink:href="#DejaVuSans-6c" transform="translate(653.470703 0)"/>
     <use xlink:href="#DejaVuSans-69" transform="translate(681.253906 0)"/>
     <use xlink:href="#DejaVuSans-64" transform="translate(709.037109 0)"/>
     <use xlink:href="#DejaVuSans-29" transform="translate(772.513672 0)"/>
     <use xlink:href="#DejaVuSans-20" transform="translate(811.527344 0)"/>
     <use xlink:href="#DejaVuSans-76" transform="translate(843.314453 0)"/>
     <use xlink:href="#DejaVuSans-73" transform="translate(902.494141 0)"/>
     <use xlink:href="#DejaVuSans-20" transform="translate(954.59375 0)"/>
     <use xlink:href="#DejaVuSans-47" transform="translate(986.380859 0)"/>
     <use xlink:href="#DejaVuSans-54" transform="translate(1060.246094 0)"/>
     <use xlink:href="#DejaVuSans-20" transform="translate(1121.330078 0)"/>
     <use xlink:href="#DejaVuSans-28" transform="translate(1153.117188 0)"/>
     <use xlink:href="#DejaVuSans-64" transform="translate(1192.130859 0)"/>
     <use xlink:href="#DejaVuSans-6f" transform="translate(1255.607422 0)"/>
     <use xlink:href="#DejaVuSans-74" transform="translate(1316.789062 0)"/>
     <use xlink:href="#DejaVuSans-74" transform="translate(1355.998047 0)"/>
     <use xlink:href="#DejaVuSans-65" transform="translate(1395.207031 0)"/>
     <use xlink:href="#DejaVuSans-64" transform="translate(1456.730469 0)"/>
     <use xlink:href="#DejaVuSans-29" transform="translate(1520.207031 0)"/>
     <use xlink:href="#DejaVuSans-20" transform="translate(1559.220703 0)"/>
     <use xlink:href="#DejaVuSans-53" transform="translate(1591.007812 0)"/>
     <use xlink:href="#DejaVuSans-68" transform="translate(1654.484375 0)"/>
     <use xlink:href="#DejaVuSans-61" transform="translate(1717.863281 0)"/>
     <use xlink:href="#DejaVuSans-70" transform="translate(1779.142578 0)"/>
     <use xlink:href="#DejaVuSans-65" transform="translate(1842.619141 0)"/>
     <use xlink:href="#DejaVuSans-20" transform="translate(1904.142578 0)"/>
     <use xlink:href="#DejaVuSans-54" transform="translate(1935.929688 0)"/>
     <use xlink:href="#DejaVuSans-79" transform="translate(1981.388672 0)"/>
     <use xlink:href="#DejaVuSans-70" transform="translate(2040.568359 0)"/>
     <use xlink:href="#DejaVuSans-65" transform="translate(2104.044922 0)"/>
    </g>
   </g>
   <g id="legend_1">
    <g id="patch_7">
     <path d="M 813.200625 343.753438 
L 875.919375 343.753438 
Q 877.919375 343.753438 877.919375 341.753438 
L 877.919375 240.006563 
Q 877.919375 238.006563 875.919375 238.006563 
L 813.200625 238.006563 
Q 811.200625 238.006563 811.200625 240.006563 
L 811.200625 341.753438 
Q 811.200625 343.753438 813.200625 343.753438 
z
" style="fill: #ffffff; opacity: 0.8; stroke: #cccccc; stroke-linejoin: miter"/>
    </g>
    <g id="line2d_25">
     <path d="M 815.200625 246.105 
L 825.200625 246.105 
L 835.200625 246.105 
" style="fill: none; stroke: #4e79a7; stroke-width: 3; stroke-linecap: square"/>
    </g>
    <g id="text_15">
     <!-- S1 -->
     <g transform="translate(843.200625 249.605) scale(0.1 -0.1)">
      <use xlink:href="#DejaVuSans-53"/>
      <use xlink:href="#DejaVuSans-31" transform="translate(63.476562 0)"/>
     </g>
    </g>
    <g id="line2d_26">
     <path d="M 815.200625 260.783125 
L 825.200625 260.783125 
L 835.200625 260.783125 
" style="fill: none; stroke: #f28e2b; stroke-width: 3; stroke-linecap: square"/>
    </g>
    <g id="text_16">
     <!-- S2 -->
     <g transform="translate(843.200625 264.283125) scale(0.1 -0.1)">
      <use xlink:href="#DejaVuSans-53"/>
      <use xlink:href="#DejaVuSans-32" transform="translate(63.476562 0)"/>
     </g>
    </g>
    <g id="line2d_27">
     <path d="M 815.200625 275.46125 
L 825.200625 275.46125 
L 835.200625 275.46125 
" style="fill: none; stroke: #e15759; stroke-width: 3; stroke-linecap: square"/>
    </g>
    <g id="text_17">
     <!-- S3 -->
     <g transform="translate(843.200625 278.96125) scale(0.1 -0.1)">
      <defs>
       <path id="DejaVuSans-33" d="M 2597 2516 
Q 3050 2419 3304 2112 
Q 3559 1806 3559 1356 
Q 3559 666 3084 287 
Q 2609 -91 1734 -91 
Q 1441 -91 1130 -33 
Q 819 25 488 141 
L 488 750 
Q 750 597 1062 519 
Q 1375 441 1716 441 
Q 2309 441 2620 675 
Q 2931 909 2931 1356 
Q 2931 1769 2642 2001 
Q 2353 2234 1838 2234 
L 1294 2234 
L 1294 2753 
L 1863 2753 
Q 2328 2753 2575 2939 
Q 2822 3125 2822 3475 
Q 2822 3834 2567 4026 
Q 2313 4219 1838 4219 
Q 1578 4219 1281 4162 
Q 984 4106 628 3988 
L 628 4550 
Q 988 4650 1302 4700 
Q 1616 4750 1894 4750 
Q 2613 4750 3031 4423 
Q 3450 4097 3450 3541 
Q 3450 3153 3228 2886 
Q 3006 2619 2597 2516 
z
" transform="scale(0.015625)"/>
      </defs>
      <use xlink:href="#DejaVuSans-53"/>
      <use xlink:href="#DejaVuSans-33" transform="translate(63.476562 0)"/>
     </g>
    </g>
    <g id="line2d_28">
     <path d="M 815.200625 290.139375 
L 825.200625 290.139375 
L 835.200625 290.139375 
" style="fill: none; stroke: #76b7b2; stroke-width: 3; stroke-linecap: square"/>
    </g>
    <g id="text_18">
     <!-- S4 -->
     <g transform="translate(843.200625 293.639375) scale(0.1 -0.1)">
      <defs>
       <path id="DejaVuSans-34" d="M 2419 4116 
L 825 1625 
L 2419 1625 
L 2419 4116 
z
M 2253 4666 
L 3047 4666 
L 3047 1625 
L 3713 1625 
L 3713 1100 
L 3047 1100 
L 3047 0 
L 2419 0 
L 2419 1100 
L 313 1100 
L 313 1709 
L 2253 4666 
z
" transform="scale(0.015625)"/>
      </defs>
      <use xlink:href="#DejaVuSans-53"/>
      <use xlink:href="#DejaVuSans-34" transform="translate(63.476562 0)"/>
     </g>
    </g>
    <g id="line2d_29">
     <path d="M 815.200625 304.8175 
L 825.200625 304.8175 
L 835.200625 304.8175 
" style="fill: none; stroke: #59a14f; stroke-width: 3; stroke-linecap: square"/>
    </g>
    <g id="text_19">
     <!-- S5 -->
     <g transform="translate(843.200625 308.3175) scale(0.1 -0.1)">
      <use xlink:href="#DejaVuSans-53"/>
      <use xlink:href="#DejaVuSans-35" transform="translate(63.476562 0)"/>
     </g>
    </g>
    <g id="line2d_30">
     <path d="M 815.200625 319.495625 
L 825.200625 319.495625 
L 835.200625 319.495625 
" style="fill: none; stroke: #edc948; stroke-width: 3; stroke-linecap: square"/>
    </g>
    <g id="text_20">
     <!-- S6 -->
     <g transform="translate(843.200625 322.995625) scale(0.1 -0.1)">
      <defs>
       <path id="DejaVuSans-36" d="M 2113 2584 
Q 1688 2584 1439 2293 
Q 1191 2003 1191 1497 
Q 1191 994 1439 701 
Q 1688 409 2113 409 
Q 2538 409 2786 701 
Q 3034 994 3034 1497 
Q 3034 2003 2786 2293 
Q 2538 2584 2113 2584 
z
M 3366 4563 
L 3366 3988 
Q 3128 4100 2886 4159 
Q 2644 4219 2406 4219 
Q 1781 4219 1451 3797 
Q 1122 3375 1075 2522 
Q 1259 2794 1537 2939 
Q 1816 3084 2150 3084 
Q 2853 3084 3261 2657 
Q 3669 2231 3669 1497 
Q 3669 778 3244 343 
Q 2819 -91 2113 -91 
Q 1303 -91 875 529 
Q 447 1150 447 2328 
Q 447 3434 972 4092 
Q 1497 4750 2381 4750 
Q 2619 4750 2861 4703 
Q 3103 4656 3366 4563 
z
" transform="scale(0.015625)"/>
      </defs>
      <use xlink:href="#DejaVuSans-53"/>
      <use xlink:href="#DejaVuSans-36" transform="translate(63.476562 0)"/>
     </g>
    </g>
    <g id="line2d_31">
     <path d="M 815.200625 334.17375 
L 825.200625 334.17375 
L 835.200625 334.17375 
" style="fill: none; stroke: #808080; stroke-width: 3; stroke-linecap: square"/>
    </g>
    <g id="text_21">
     <!-- Signal -->
     <g transform="translate(843.200625 337.67375) scale(0.1 -0.1)">
      <defs>
       <path id="DejaVuSans-67" d="M 2906 1791 
Q 2906 2416 2648 2759 
Q 2391 3103 1925 3103 
Q 1463 3103 1205 2759 
Q 947 2416 947 1791 
Q 947 1169 1205 825 
Q 1463 481 1925 481 
Q 2391 481 2648 825 
Q 2906 1169 2906 1791 
z
M 3481 434 
Q 3481 -459 3084 -895 
Q 2688 -1331 1869 -1331 
Q 1566 -1331 1297 -1286 
Q 1028 -1241 775 -1147 
L 775 -588 
Q 1028 -725 1275 -790 
Q 1522 -856 1778 -856 
Q 2344 -856 2625 -561 
Q 2906 -266 2906 331 
L 2906 616 
Q 2728 306 2450 153 
Q 2172 0 1784 0 
Q 1141 0 747 490 
Q 353 981 353 1791 
Q 353 2603 747 3093 
Q 1141 3584 1784 3584 
Q 2172 3584 2450 3431 
Q 2728 3278 2906 2969 
L 2906 3500 
L 3481 3500 
L 3481 434 
z
" transform="scale(0.015625)"/>
      </defs>
      <use xlink:href="#DejaVuSans-53"/>
      <use xlink:href="#DejaVuSans-69" transform="translate(63.476562 0)"/>
      <use xlink:href="#DejaVuSans-67" transform="translate(91.259766 0)"/>
      <use xlink:href="#DejaVuSans-6e" transform="translate(154.736328 0)"/>
      <use xlink:href="#DejaVuSans-61" transform="translate(218.115234 0)"/>
      <use xlink:href="#DejaVuSans-6c" transform="translate(279.394531 0)"/>
     </g>
    </g>
   </g>
  </g>
  <g id="text_22">
   <!-- Class 0 -->
   <g transform="translate(410.490937 20.638125) scale(0.12 -0.12)">
    <defs>
     <path id="DejaVuSans-43" d="M 4122 4306 
L 4122 3641 
Q 3803 3938 3442 4084 
Q 3081 4231 2675 4231 
Q 1875 4231 1450 3742 
Q 1025 3253 1025 2328 
Q 1025 1406 1450 917 
Q 1875 428 2675 428 
Q 3081 428 3442 575 
Q 3803 722 4122 1019 
L 4122 359 
Q 3791 134 3420 21 
Q 3050 -91 2638 -91 
Q 1578 -91 968 557 
Q 359 1206 359 2328 
Q 359 3453 968 4101 
Q 1578 4750 2638 4750 
Q 3056 4750 3426 4639 
Q 3797 4528 4122 4306 
z
" transform="scale(0.015625)"/>
    </defs>
    <use xlink:href="#DejaVuSans-43"/>
    <use xlink:href="#DejaVuSans-6c" transform="translate(69.824219 0)"/>
    <use xlink:href="#DejaVuSans-61" transform="translate(97.607422 0)"/>
    <use xlink:href="#DejaVuSans-73" transform="translate(158.886719 0)"/>
    <use xlink:href="#DejaVuSans-73" transform="translate(210.986328 0)"/>
    <use xlink:href="#DejaVuSans-20" transform="translate(263.085938 0)"/>
    <use xlink:href="#DejaVuSans-30" transform="translate(294.873047 0)"/>
   </g>
  </g>
 </g>
 <defs>
  <clipPath id="p5c0f4aabc1">
   <rect x="108" y="69.12" width="669.6" height="443.52"/>
  </clipPath>
 </defs>
</svg>
