<?xml version="1.0" encoding="utf-8" standalone="no"?>
<!DOCTYPE svg PUBLIC "-//W3C//DTD SVG 1.1//EN"
  "http://www.w3.org/Graphics/SVG/1.1/DTD/svg11.dtd">
<svg xmlns:xlink="http://www.w3.org/1999/xlink" width="720pt" height="432pt" viewBox="0 0 720 432" xmlns="http://www.w3.org/2000/svg" version="1.1">
 <metadata>
  <rdf:RDF xmlns:dc="http://purl.org/dc/elements/1.1/" xmlns:cc="http://creativecommons.org/ns#" xmlns:rdf="http://www.w3.org/1999/02/22-rdf-syntax-ns#">
   <cc:Work>
    <dc:type rdf:resource="http://purl.org/dc/dcmitype/StillImage"/>
    <dc:date>2025-06-16T22:44:09.437976</dc:date>
    <dc:format>image/svg+xml</dc:format>
    <dc:creator>
     <cc:Agent>
      <dc:title>Matplotlib v3.10.0, https://matplotlib.org/</dc:title>
     </cc:Agent>
    </dc:creator>
   </cc:Work>
  </rdf:RDF>
 </metadata>
 <defs>
  <style type="text/css">*{stroke-linejoin: round; stroke-linecap: butt}</style>
 </defs>
 <g id="figure_1">
  <g id="patch_1">
   <path d="M 0 432 
L 720 432 
L 720 0 
L 0 0 
z
" style="fill: #ffffff"/>
  </g>
  <g id="axes_1">
   <g id="patch_2">
    <path d="M 90 384.48 
L 648 384.48 
L 648 51.84 
L 90 51.84 
z
" style="fill: #ffffff"/>
   </g>
   <g id="matplotlib.axis_1">
    <g id="xtick_1">
     <g id="line2d_1">
      <path d="M 115.363636 384.48 
L 115.363636 51.84 
" clip-path="url(#pb692bd4bd1)" style="fill: none; stroke: #cccccc; stroke-linecap: round"/>
     </g>
     <g id="text_1">
      <!-- $\mathdefault{0}$ -->
      <g style="fill: #262626" transform="translate(109.081196 413.005867) scale(0.275 -0.275)">
       <defs>
        <path id="CMR17-30" d="M 2688 2038 
C 2688 2430 2682 3099 2413 3613 
C 2176 4063 1798 4224 1466 4224 
C 1158 4224 768 4082 525 3620 
C 269 3137 243 2539 243 2038 
C 243 1671 250 1112 448 623 
C 723 -39 1216 -128 1466 -128 
C 1760 -128 2208 -7 2470 604 
C 2662 1048 2688 1568 2688 2038 
z
M 1466 -26 
C 1056 -26 813 328 723 816 
C 653 1196 653 1749 653 2109 
C 653 2604 653 3015 736 3407 
C 858 3954 1216 4121 1466 4121 
C 1728 4121 2067 3947 2189 3420 
C 2272 3054 2278 2623 2278 2109 
C 2278 1691 2278 1176 2202 797 
C 2067 96 1690 -26 1466 -26 
z
" transform="scale(0.015625)"/>
       </defs>
       <use xlink:href="#CMR17-30" transform="scale(0.996264)"/>
      </g>
     </g>
    </g>
    <g id="xtick_2">
     <g id="line2d_2">
      <path d="M 214.828877 384.48 
L 214.828877 51.84 
" clip-path="url(#pb692bd4bd1)" style="fill: none; stroke: #cccccc; stroke-linecap: round"/>
     </g>
     <g id="text_2">
      <!-- $\mathdefault{50}$ -->
      <g style="fill: #262626" transform="translate(202.263996 413.005867) scale(0.275 -0.275)">
       <defs>
        <path id="CMR17-35" d="M 730 3750 
C 794 3724 1056 3641 1325 3641 
C 1920 3641 2246 3961 2432 4140 
C 2432 4191 2432 4224 2394 4224 
C 2387 4224 2374 4224 2323 4198 
C 2099 4102 1837 4032 1517 4032 
C 1325 4032 1037 4055 723 4191 
C 653 4224 640 4224 634 4224 
C 602 4224 595 4217 595 4090 
L 595 2231 
C 595 2113 595 2080 659 2080 
C 691 2080 704 2093 736 2139 
C 941 2435 1222 2560 1542 2560 
C 1766 2560 2246 2415 2246 1293 
C 2246 1087 2246 716 2054 422 
C 1894 159 1645 25 1370 25 
C 947 25 518 319 403 812 
C 429 806 480 793 506 793 
C 589 793 749 838 749 1036 
C 749 1209 627 1280 506 1280 
C 358 1280 262 1190 262 1011 
C 262 454 704 -128 1382 -128 
C 2042 -128 2669 441 2669 1267 
C 2669 2054 2170 2662 1549 2662 
C 1222 2662 947 2540 730 2304 
L 730 3750 
z
" transform="scale(0.015625)"/>
       </defs>
       <use xlink:href="#CMR17-35" transform="scale(0.996264)"/>
       <use xlink:href="#CMR17-30" transform="translate(45.690477 0) scale(0.996264)"/>
      </g>
     </g>
    </g>
    <g id="xtick_3">
     <g id="line2d_3">
      <path d="M 314.294118 384.48 
L 314.294118 51.84 
" clip-path="url(#pb692bd4bd1)" style="fill: none; stroke: #cccccc; stroke-linecap: round"/>
     </g>
     <g id="text_3">
      <!-- $\mathdefault{100}$ -->
      <g style="fill: #262626" transform="translate(295.446796 413.005867) scale(0.275 -0.275)">
       <defs>
        <path id="CMR17-31" d="M 1702 4083 
C 1702 4217 1696 4224 1606 4224 
C 1357 3927 979 3833 621 3820 
C 602 3820 570 3820 563 3808 
C 557 3795 557 3782 557 3648 
C 755 3648 1088 3686 1344 3839 
L 1344 467 
C 1344 243 1331 166 781 166 
L 589 166 
L 589 0 
C 896 6 1216 12 1523 12 
C 1830 12 2150 6 2458 0 
L 2458 166 
L 2266 166 
C 1715 166 1702 236 1702 467 
L 1702 4083 
z
" transform="scale(0.015625)"/>
       </defs>
       <use xlink:href="#CMR17-31" transform="scale(0.996264)"/>
       <use xlink:href="#CMR17-30" transform="translate(45.690477 0) scale(0.996264)"/>
       <use xlink:href="#CMR17-30" transform="translate(91.380954 0) scale(0.996264)"/>
      </g>
     </g>
    </g>
    <g id="xtick_4">
     <g id="line2d_4">
      <path d="M 413.759358 384.48 
L 413.759358 51.84 
" clip-path="url(#pb692bd4bd1)" style="fill: none; stroke: #cccccc; stroke-linecap: round"/>
     </g>
     <g id="text_4">
      <!-- $\mathdefault{150}$ -->
      <g style="fill: #262626" transform="translate(394.912036 413.005867) scale(0.275 -0.275)">
       <use xlink:href="#CMR17-31" transform="scale(0.996264)"/>
       <use xlink:href="#CMR17-35" transform="translate(45.690477 0) scale(0.996264)"/>
       <use xlink:href="#CMR17-30" transform="translate(91.380954 0) scale(0.996264)"/>
      </g>
     </g>
    </g>
    <g id="xtick_5">
     <g id="line2d_5">
      <path d="M 513.224599 384.48 
L 513.224599 51.84 
" clip-path="url(#pb692bd4bd1)" style="fill: none; stroke: #cccccc; stroke-linecap: round"/>
     </g>
     <g id="text_5">
      <!-- $\mathdefault{200}$ -->
      <g style="fill: #262626" transform="translate(494.377277 413.005867) scale(0.275 -0.275)">
       <defs>
        <path id="CMR17-32" d="M 2669 990 
L 2554 990 
C 2490 537 2438 460 2413 422 
C 2381 371 1920 371 1830 371 
L 602 371 
C 832 620 1280 1073 1824 1596 
C 2214 1966 2669 2400 2669 3033 
C 2669 3788 2067 4224 1395 4224 
C 691 4224 262 3603 262 3027 
C 262 2777 448 2745 525 2745 
C 589 2745 781 2783 781 3007 
C 781 3206 614 3264 525 3264 
C 486 3264 448 3257 422 3244 
C 544 3788 915 4057 1306 4057 
C 1862 4057 2227 3616 2227 3033 
C 2227 2477 1901 1998 1536 1583 
L 262 147 
L 262 0 
L 2515 0 
L 2669 990 
z
" transform="scale(0.015625)"/>
       </defs>
       <use xlink:href="#CMR17-32" transform="scale(0.996264)"/>
       <use xlink:href="#CMR17-30" transform="translate(45.690477 0) scale(0.996264)"/>
       <use xlink:href="#CMR17-30" transform="translate(91.380954 0) scale(0.996264)"/>
      </g>
     </g>
    </g>
    <g id="xtick_6">
     <g id="line2d_6">
      <path d="M 612.68984 384.48 
L 612.68984 51.84 
" clip-path="url(#pb692bd4bd1)" style="fill: none; stroke: #cccccc; stroke-linecap: round"/>
     </g>
     <g id="text_6">
      <!-- $\mathdefault{250}$ -->
      <g style="fill: #262626" transform="translate(593.842518 413.005867) scale(0.275 -0.275)">
       <use xlink:href="#CMR17-32" transform="scale(0.996264)"/>
       <use xlink:href="#CMR17-35" transform="translate(45.690477 0) scale(0.996264)"/>
       <use xlink:href="#CMR17-30" transform="translate(91.380954 0) scale(0.996264)"/>
      </g>
     </g>
    </g>
    <g id="text_7">
     <!-- Time Index, $k$ -->
     <g style="fill: #262626" transform="translate(283.837213 443.090362) scale(0.3 -0.3)">
      <defs>
       <path id="CMR17-54" d="M 3981 4332 
L 288 4332 
L 179 2924 
L 294 2924 
C 378 3981 467 4166 1453 4166 
C 1568 4166 1754 4166 1805 4159 
C 1926 4140 1926 4064 1926 3917 
L 1926 465 
C 1926 236 1907 166 1376 166 
L 1197 166 
L 1197 0 
C 1504 6 1824 12 2138 12 
C 2451 12 2771 6 3078 0 
L 3078 166 
L 2899 166 
C 2368 166 2349 236 2349 465 
L 2349 3917 
C 2349 4057 2349 4134 2464 4159 
C 2515 4166 2701 4166 2816 4166 
C 3795 4166 3891 3981 3974 2924 
L 4090 2924 
L 3981 4332 
z
" transform="scale(0.015625)"/>
       <path id="CMR17-69" d="M 992 3961 
C 992 4102 877 4224 730 4224 
C 589 4224 467 4108 467 3961 
C 467 3820 582 3699 730 3699 
C 870 3699 992 3814 992 3961 
z
M 243 2745 
L 243 2579 
C 602 2579 653 2540 653 2231 
L 653 443 
C 653 198 627 166 218 166 
L 218 0 
C 371 12 646 12 806 12 
C 960 12 1222 12 1370 0 
L 1370 166 
C 992 166 979 205 979 436 
L 979 2816 
L 243 2745 
z
" transform="scale(0.015625)"/>
       <path id="CMR17-6d" d="M 4326 1954 
C 4326 2276 4269 2816 3507 2816 
C 3072 2816 2771 2520 2656 2173 
L 2650 2173 
C 2573 2700 2195 2816 1837 2816 
C 1331 2816 1069 2424 973 2166 
L 966 2166 
L 966 2816 
L 211 2745 
L 211 2578 
C 589 2578 646 2540 646 2231 
L 646 443 
C 646 198 621 166 211 166 
L 211 0 
C 365 12 646 12 813 12 
C 979 12 1267 12 1421 0 
L 1421 166 
C 1011 166 986 192 986 443 
L 986 1678 
C 986 2269 1344 2713 1792 2713 
C 2266 2713 2317 2289 2317 1980 
L 2317 443 
C 2317 198 2291 166 1882 166 
L 1882 0 
C 2035 12 2317 12 2483 12 
C 2650 12 2938 12 3091 0 
L 3091 166 
C 2682 166 2656 192 2656 443 
L 2656 1678 
C 2656 2269 3014 2713 3462 2713 
C 3936 2713 3987 2289 3987 1980 
L 3987 443 
C 3987 198 3962 166 3552 166 
L 3552 0 
C 3706 12 3987 12 4154 12 
C 4320 12 4608 12 4762 0 
L 4762 166 
C 4352 166 4326 192 4326 443 
L 4326 1954 
z
" transform="scale(0.015625)"/>
       <path id="CMR17-65" d="M 2438 1503 
C 2464 1529 2464 1542 2464 1606 
C 2464 2251 2118 2816 1389 2816 
C 710 2816 173 2175 173 1394 
C 173 554 781 -64 1459 -64 
C 2176 -64 2458 619 2458 755 
C 2458 800 2419 800 2406 800 
C 2362 800 2355 787 2330 709 
C 2189 270 1837 51 1504 51 
C 1229 51 954 206 781 490 
C 582 819 582 1200 582 1503 
L 2438 1503 
z
M 589 1600 
C 634 2511 1126 2713 1382 2713 
C 1818 2713 2112 2308 2118 1600 
L 589 1600 
z
" transform="scale(0.015625)"/>
       <path id="CMR17-49" d="M 1261 3898 
C 1261 4185 1338 4185 1798 4185 
L 1798 4352 
C 1594 4339 1267 4339 1050 4339 
C 832 4339 506 4339 301 4352 
L 301 4185 
C 762 4185 838 4185 838 3898 
L 838 453 
C 838 166 762 166 301 166 
L 301 0 
C 506 12 832 12 1050 12 
C 1267 12 1594 12 1798 0 
L 1798 166 
C 1338 166 1261 166 1261 453 
L 1261 3898 
z
" transform="scale(0.015625)"/>
       <path id="CMR17-6e" d="M 2656 1954 
C 2656 2282 2592 2816 1837 2816 
C 1331 2816 1069 2424 973 2166 
L 966 2166 
L 966 2816 
L 211 2745 
L 211 2578 
C 589 2578 646 2540 646 2231 
L 646 443 
C 646 198 621 166 211 166 
L 211 0 
C 365 12 646 12 813 12 
C 979 12 1267 12 1421 0 
L 1421 166 
C 1011 166 986 192 986 443 
L 986 1678 
C 986 2269 1344 2713 1792 2713 
C 2266 2713 2317 2289 2317 1980 
L 2317 443 
C 2317 198 2291 166 1882 166 
L 1882 0 
C 2035 12 2317 12 2483 12 
C 2650 12 2938 12 3091 0 
L 3091 166 
C 2682 166 2656 192 2656 443 
L 2656 1954 
z
" transform="scale(0.015625)"/>
       <path id="CMR17-64" d="M 1869 4345 
L 1869 4179 
C 2246 4179 2304 4141 2304 3843 
L 2304 2371 
C 2278 2403 2016 2816 1498 2816 
C 845 2816 211 2228 211 1376 
C 211 529 806 -64 1434 -64 
C 1978 -64 2259 361 2291 406 
L 2291 -64 
L 3066 -13 
L 3066 154 
C 2688 154 2630 193 2630 503 
L 2630 4416 
L 1869 4345 
z
M 2291 762 
C 2291 568 2176 393 2029 264 
C 1811 70 1594 38 1472 38 
C 1286 38 621 135 621 1369 
C 621 2636 1363 2713 1530 2713 
C 1824 2713 2061 2545 2208 2313 
C 2291 2177 2291 2157 2291 2041 
L 2291 762 
z
" transform="scale(0.015625)"/>
       <path id="CMR17-78" d="M 1664 1491 
C 1856 1740 2074 2022 2253 2233 
C 2464 2476 2707 2579 2989 2585 
L 2989 2752 
C 2880 2745 2656 2739 2541 2739 
C 2368 2739 2170 2739 2022 2752 
L 2022 2585 
C 2112 2572 2163 2508 2163 2419 
C 2163 2304 2099 2233 2067 2188 
L 1594 1587 
L 1030 2323 
C 973 2393 973 2406 973 2438 
C 973 2515 1037 2579 1146 2585 
L 1146 2752 
C 992 2739 717 2739 557 2739 
C 384 2739 179 2739 38 2752 
L 38 2585 
C 384 2585 461 2560 614 2368 
L 1350 1414 
C 1363 1401 1395 1363 1395 1344 
C 1395 1318 838 633 768 544 
C 480 198 179 172 6 166 
L 6 0 
C 115 6 339 12 454 12 
C 582 12 864 12 979 0 
L 979 166 
C 941 172 838 185 838 332 
C 838 448 890 518 947 595 
L 1478 1248 
L 2035 524 
C 2086 454 2163 358 2163 313 
C 2163 224 2086 172 1984 166 
L 1984 0 
C 2138 12 2413 12 2573 12 
C 2746 12 2950 12 3091 0 
L 3091 166 
C 2771 166 2675 179 2522 377 
L 1664 1491 
z
" transform="scale(0.015625)"/>
       <path id="CMR17-2c" d="M 1011 102 
C 1024 44 1024 25 1024 -76 
C 1024 -451 896 -795 627 -1108 
C 595 -1140 595 -1152 595 -1165 
C 595 -1191 621 -1216 646 -1216 
C 685 -1216 1126 -776 1126 -82 
C 1126 128 1101 524 800 524 
C 659 524 538 428 538 262 
C 538 96 659 0 800 0 
C 877 0 960 32 1011 102 
z
" transform="scale(0.015625)"/>
       <path id="CMMI12-6b" d="M 1798 4255 
C 1805 4281 1818 4319 1818 4351 
C 1818 4416 1754 4416 1741 4416 
C 1734 4416 1504 4396 1389 4383 
C 1280 4377 1184 4364 1069 4358 
C 915 4345 870 4339 870 4223 
C 870 4159 934 4159 998 4159 
C 1325 4159 1325 4103 1325 4040 
C 1325 4014 1325 4002 1293 3888 
L 378 250 
C 352 153 352 141 352 102 
C 352 -39 461 -64 525 -64 
C 704 -64 742 76 794 275 
L 1094 1476 
C 1555 1425 1830 1232 1830 924 
C 1830 885 1830 860 1811 763 
C 1786 667 1786 590 1786 558 
C 1786 185 2029 -64 2355 -64 
C 2650 -64 2803 205 2854 295 
C 2989 532 3072 892 3072 917 
C 3072 949 3046 975 3008 975 
C 2950 975 2944 949 2918 847 
C 2829 513 2694 64 2368 64 
C 2240 64 2157 128 2157 372 
C 2157 494 2182 635 2208 731 
C 2234 847 2234 853 2234 930 
C 2234 1309 1894 1521 1306 1598 
C 1536 1739 1766 1989 1856 2086 
C 2221 2495 2470 2687 2765 2687 
C 2912 2687 2950 2655 2995 2624 
C 2758 2598 2669 2431 2669 2303 
C 2669 2150 2790 2099 2880 2099 
C 3053 2099 3206 2246 3206 2451 
C 3206 2634 3059 2816 2771 2816 
C 2419 2816 2131 2579 1677 2067 
C 1613 1989 1376 1746 1139 1656 
L 1798 4255 
z
" transform="scale(0.015625)"/>
      </defs>
      <use xlink:href="#CMR17-54" transform="scale(0.996264)"/>
      <use xlink:href="#CMR17-69" transform="translate(66.509881 0) scale(0.996264)"/>
      <use xlink:href="#CMR17-6d" transform="translate(91.380939 0) scale(0.996264)"/>
      <use xlink:href="#CMR17-65" transform="translate(168.300529 0) scale(0.996264)"/>
      <use xlink:href="#CMR17-49" transform="translate(238.862156 0) scale(0.996264)"/>
      <use xlink:href="#CMR17-6e" transform="translate(271.500565 0) scale(0.996264)"/>
      <use xlink:href="#CMR17-64" transform="translate(322.395935 0) scale(0.996264)"/>
      <use xlink:href="#CMR17-65" transform="translate(373.291304 0) scale(0.996264)"/>
      <use xlink:href="#CMR17-78" transform="translate(413.776965 0) scale(0.996264)"/>
      <use xlink:href="#CMR17-2c" transform="translate(462.069881 0) scale(0.996264)"/>
      <use xlink:href="#CMMI12-6b" transform="translate(517.016906 0) scale(0.996264)"/>
     </g>
    </g>
   </g>
   <g id="matplotlib.axis_2">
    <g id="ytick_1">
     <g id="line2d_7">
      <path d="M 90 369.36 
L 648 369.36 
" clip-path="url(#pb692bd4bd1)" style="fill: none; stroke: #cccccc; stroke-linecap: round"/>
     </g>
     <g id="text_8">
      <!-- $\mathdefault{0}$ -->
      <g style="fill: #262626" transform="translate(67.935119 378.872933) scale(0.275 -0.275)">
       <use xlink:href="#CMR17-30" transform="scale(0.996264)"/>
      </g>
     </g>
    </g>
    <g id="ytick_2">
     <g id="line2d_8">
      <path d="M 90 278.328529 
L 648 278.328529 
" clip-path="url(#pb692bd4bd1)" style="fill: none; stroke: #cccccc; stroke-linecap: round"/>
     </g>
     <g id="text_9">
      <!-- $\mathdefault{2}$ -->
      <g style="fill: #262626" transform="translate(67.935119 287.841463) scale(0.275 -0.275)">
       <use xlink:href="#CMR17-32" transform="scale(0.996264)"/>
      </g>
     </g>
    </g>
    <g id="ytick_3">
     <g id="line2d_9">
      <path d="M 90 187.297059 
L 648 187.297059 
" clip-path="url(#pb692bd4bd1)" style="fill: none; stroke: #cccccc; stroke-linecap: round"/>
     </g>
     <g id="text_10">
      <!-- $\mathdefault{4}$ -->
      <g style="fill: #262626" transform="translate(67.935119 196.809992) scale(0.275 -0.275)">
       <defs>
        <path id="CMR17-34" d="M 2150 4147 
C 2150 4281 2144 4288 2029 4288 
L 128 1254 
L 128 1088 
L 1779 1088 
L 1779 460 
C 1779 230 1766 166 1318 166 
L 1197 166 
L 1197 0 
C 1402 12 1747 12 1965 12 
C 2182 12 2528 12 2733 0 
L 2733 166 
L 2611 166 
C 2163 166 2150 230 2150 460 
L 2150 1088 
L 2803 1088 
L 2803 1254 
L 2150 1254 
L 2150 4147 
z
M 1798 3723 
L 1798 1254 
L 256 1254 
L 1798 3723 
z
" transform="scale(0.015625)"/>
       </defs>
       <use xlink:href="#CMR17-34" transform="scale(0.996264)"/>
      </g>
     </g>
    </g>
    <g id="ytick_4">
     <g id="line2d_10">
      <path d="M 90 96.265588 
L 648 96.265588 
" clip-path="url(#pb692bd4bd1)" style="fill: none; stroke: #cccccc; stroke-linecap: round"/>
     </g>
     <g id="text_11">
      <!-- $\mathdefault{6}$ -->
      <g style="fill: #262626" transform="translate(67.935119 105.778521) scale(0.275 -0.275)">
       <defs>
        <path id="CMR17-36" d="M 678 2198 
C 678 3712 1395 4076 1811 4076 
C 1946 4076 2272 4049 2400 3782 
C 2298 3782 2106 3782 2106 3558 
C 2106 3385 2246 3328 2336 3328 
C 2394 3328 2566 3353 2566 3571 
C 2566 3987 2246 4224 1805 4224 
C 1043 4224 243 3411 243 2011 
C 243 257 966 -128 1478 -128 
C 2099 -128 2688 431 2688 1295 
C 2688 2101 2170 2688 1517 2688 
C 1126 2688 838 2430 678 1979 
L 678 2198 
z
M 1478 25 
C 691 25 691 1212 691 1450 
C 691 1914 909 2585 1504 2585 
C 1613 2585 1926 2585 2138 2140 
C 2253 1889 2253 1624 2253 1302 
C 2253 954 2253 696 2118 438 
C 1978 173 1773 25 1478 25 
z
" transform="scale(0.015625)"/>
       </defs>
       <use xlink:href="#CMR17-36" transform="scale(0.996264)"/>
      </g>
     </g>
    </g>
    <g id="text_12">
     <!-- Entropy -->
     <g style="fill: #262626" transform="translate(58.121668 266.717541) rotate(-90) scale(0.3 -0.3)">
      <defs>
       <path id="CMR17-45" d="M 3885 1614 
L 3770 1614 
C 3629 676 3546 166 2419 166 
L 1530 166 
C 1274 166 1261 198 1261 415 
L 1261 2176 
L 1862 2176 
C 2464 2176 2522 1959 2522 1429 
L 2637 1429 
L 2637 3086 
L 2522 3086 
C 2522 2558 2464 2342 1862 2342 
L 1261 2342 
L 1261 3924 
C 1261 4141 1274 4172 1530 4172 
L 2406 4172 
C 3398 4172 3514 3778 3603 2933 
L 3718 2933 
L 3565 4339 
L 326 4339 
L 326 4172 
C 768 4172 838 4172 838 3886 
L 838 453 
C 838 166 768 166 326 166 
L 326 0 
L 3654 0 
L 3885 1614 
z
" transform="scale(0.015625)"/>
       <path id="CMR17-74" d="M 966 2585 
L 1862 2585 
L 1862 2752 
L 966 2752 
L 966 3968 
L 851 3968 
C 838 3292 614 2700 70 2687 
L 70 2585 
L 627 2585 
L 627 778 
C 627 655 627 -64 1370 -64 
C 1747 -64 1965 308 1965 784 
L 1965 1151 
L 1850 1151 
L 1850 790 
C 1850 347 1677 51 1408 51 
C 1222 51 966 179 966 765 
L 966 2585 
z
" transform="scale(0.015625)"/>
       <path id="CMR17-72" d="M 960 1517 
C 960 2134 1222 2713 1702 2713 
C 1747 2713 1792 2707 1837 2687 
C 1837 2687 1696 2642 1696 2475 
C 1696 2321 1818 2257 1914 2257 
C 1990 2257 2131 2302 2131 2482 
C 2131 2687 1926 2816 1709 2816 
C 1222 2816 1011 2340 947 2115 
L 941 2115 
L 941 2816 
L 198 2745 
L 198 2578 
C 576 2578 634 2540 634 2231 
L 634 443 
C 634 198 608 166 198 166 
L 198 0 
C 352 12 646 12 813 12 
C 998 12 1325 12 1498 0 
L 1498 166 
C 1037 166 960 166 960 455 
L 960 1517 
z
" transform="scale(0.015625)"/>
       <path id="CMR17-6f" d="M 2758 1356 
C 2758 2176 2163 2816 1466 2816 
C 768 2816 173 2176 173 1356 
C 173 550 768 -64 1466 -64 
C 2163 -64 2758 550 2758 1356 
z
M 1466 51 
C 1165 51 909 230 762 480 
C 602 768 582 1126 582 1408 
C 582 1676 595 2009 762 2297 
C 890 2508 1139 2713 1466 2713 
C 1754 2713 1997 2553 2150 2329 
C 2349 2028 2349 1606 2349 1408 
C 2349 1158 2336 774 2163 467 
C 1984 172 1709 51 1466 51 
z
" transform="scale(0.015625)"/>
       <path id="CMR17-70" d="M 1408 -1114 
C 998 -1114 973 -1088 973 -834 
L 973 380 
C 1158 109 1427 -64 1766 -64 
C 2406 -64 3053 503 3053 1382 
C 3053 2196 2496 2816 1837 2816 
C 1453 2816 1139 2603 960 2345 
L 960 2816 
L 198 2745 
L 198 2577 
C 576 2577 634 2539 634 2228 
L 634 -834 
C 634 -1081 608 -1114 198 -1114 
L 198 -1280 
C 352 -1268 634 -1268 800 -1268 
C 966 -1268 1254 -1268 1408 -1280 
L 1408 -1114 
z
M 973 2015 
C 973 2106 973 2241 1222 2481 
C 1254 2506 1472 2700 1792 2700 
C 2259 2700 2643 2112 2643 1376 
C 2643 639 2234 38 1728 38 
C 1498 38 1248 148 1056 451 
C 973 594 973 632 973 736 
L 973 2015 
z
" transform="scale(0.015625)"/>
       <path id="CMR17-79" d="M 2496 2183 
C 2656 2579 2944 2585 3034 2585 
L 3034 2752 
C 2912 2745 2752 2739 2630 2739 
C 2496 2739 2285 2739 2157 2752 
L 2157 2585 
C 2400 2566 2406 2384 2406 2332 
C 2406 2268 2394 2235 2362 2158 
L 1664 409 
L 902 2300 
C 870 2378 870 2423 870 2430 
C 870 2572 1018 2585 1171 2585 
L 1171 2752 
C 1018 2739 742 2739 582 2739 
C 410 2739 205 2739 64 2752 
L 64 2585 
C 410 2585 448 2553 531 2345 
L 1485 -31 
C 1197 -795 1030 -1242 627 -1242 
C 557 -1242 397 -1223 282 -1106 
C 429 -1093 493 -1002 493 -892 
C 493 -782 416 -685 288 -685 
C 147 -685 77 -782 77 -899 
C 77 -1158 339 -1344 627 -1344 
C 998 -1344 1229 -983 1357 -659 
L 2496 2183 
z
" transform="scale(0.015625)"/>
      </defs>
      <use xlink:href="#CMR17-45" transform="scale(0.996264)"/>
      <use xlink:href="#CMR17-6e" transform="translate(62.586301 0) scale(0.996264)"/>
      <use xlink:href="#CMR17-74" transform="translate(110.879216 0) scale(0.996264)"/>
      <use xlink:href="#CMR17-72" transform="translate(146.159984 0) scale(0.996264)"/>
      <use xlink:href="#CMR17-6f" transform="translate(181.440752 0) scale(0.996264)"/>
      <use xlink:href="#CMR17-70" transform="translate(227.131229 0) scale(0.996264)"/>
      <use xlink:href="#CMR17-79" transform="translate(275.424145 0) scale(0.996264)"/>
     </g>
    </g>
   </g>
   <g id="line2d_11">
    <path d="M 115.363636 369.36 
L 117.352941 367.979524 
L 119.342246 361.0153 
L 121.331551 354.892863 
L 123.320856 347.729727 
L 127.299465 335.124607 
L 129.28877 328.284591 
L 131.278075 322.521135 
L 133.26738 315.828892 
L 145.203209 278.868277 
L 149.181818 264.889712 
L 155.149733 244.158764 
L 157.139037 235.473973 
L 159.128342 227.919741 
L 163.106952 211.291583 
L 165.096257 203.129226 
L 167.085561 195.564111 
L 169.074866 187.539441 
L 171.064171 181.034078 
L 175.042781 171.406496 
L 177.032086 167.346218 
L 179.02139 165.606634 
L 181.010695 166.014994 
L 183 167.329527 
L 184.989305 169.519557 
L 188.967914 173.246891 
L 192.946524 178.657255 
L 194.935829 182.289491 
L 196.925134 185.63749 
L 198.914439 191.123248 
L 200.903743 195.066674 
L 202.893048 200.185729 
L 206.871658 211.790522 
L 208.860963 217.881315 
L 212.839572 232.720757 
L 216.818182 249.260469 
L 218.807487 255.700682 
L 220.796791 256.641517 
L 222.786096 256.752437 
L 224.775401 257.171396 
L 226.764706 256.61598 
L 228.754011 255.111223 
L 230.743316 252.277993 
L 232.73262 251.919887 
L 234.721925 251.732723 
L 236.71123 248.024072 
L 238.700535 245.234731 
L 240.68984 243.436973 
L 242.679144 241.159769 
L 244.668449 237.124972 
L 246.657754 231.527884 
L 248.647059 228.900535 
L 250.636364 224.530342 
L 254.614973 209.260713 
L 256.604278 202.257539 
L 258.593583 196.631428 
L 262.572193 178.301023 
L 264.561497 172.149412 
L 266.550802 169.933455 
L 268.540107 170.632155 
L 270.529412 170.484559 
L 272.518717 169.191027 
L 274.508021 167.193497 
L 276.497326 165.526288 
L 278.486631 164.913183 
L 280.475936 163.952751 
L 282.465241 164.190237 
L 284.454545 165.111915 
L 286.44385 167.202464 
L 288.433155 169.474035 
L 292.411765 176.272406 
L 294.40107 180.212125 
L 296.390374 185.089122 
L 298.379679 192.132586 
L 300.368984 198.397553 
L 302.358289 205.569003 
L 304.347594 213.178662 
L 306.336898 222.122425 
L 308.326203 229.88519 
L 310.315508 240.140795 
L 312.304813 248.634438 
L 314.294118 258.484873 
L 318.272727 276.375249 
L 320.262032 281.249158 
L 322.251337 278.975403 
L 324.240642 278.050667 
L 326.229947 276.284703 
L 328.219251 271.2623 
L 330.208556 267.177753 
L 332.197861 264.85633 
L 334.187166 257.378122 
L 336.176471 252.594047 
L 338.165775 248.864217 
L 340.15508 241.714362 
L 344.13369 226.396313 
L 346.122995 215.449787 
L 350.101604 198.076516 
L 352.090909 185.814847 
L 354.080214 177.487257 
L 356.069519 174.565926 
L 358.058824 174.977106 
L 360.048128 175.596056 
L 362.037433 175.115899 
L 364.026738 173.784311 
L 366.016043 171.510334 
L 371.983957 163.576724 
L 373.973262 161.515636 
L 375.962567 160.281789 
L 377.951872 159.7606 
L 379.941176 160.031685 
L 381.930481 161.283185 
L 383.919786 163.079879 
L 385.909091 166.036704 
L 387.898396 170.027505 
L 391.877005 181.738729 
L 397.84492 206.489584 
L 405.802139 242.97357 
L 407.791444 251.709852 
L 411.770053 270.377022 
L 415.748663 288.312042 
L 417.737968 296.866981 
L 419.727273 304.630872 
L 421.716578 308.112469 
L 423.705882 303.46749 
L 427.684492 288.079033 
L 429.673797 277.847613 
L 431.663102 266.099273 
L 437.631016 226.340535 
L 441.609626 199.062233 
L 443.59893 188.962873 
L 445.588235 185.728278 
L 447.57754 186.560075 
L 449.566845 185.35177 
L 451.55615 184.649275 
L 455.534759 181.576501 
L 457.524064 178.996259 
L 459.513369 176.806343 
L 461.502674 174.153949 
L 465.481283 170.062002 
L 467.470588 167.167671 
L 469.459893 163.959385 
L 473.438503 158.362553 
L 475.427807 156.705626 
L 477.417112 156.987778 
L 479.406417 158.923773 
L 481.395722 162.1578 
L 483.385027 167.066725 
L 485.374332 173.386074 
L 487.363636 180.798739 
L 489.352941 188.973763 
L 491.342246 198.01259 
L 493.331551 207.788285 
L 497.31016 225.220463 
L 503.278075 250.935831 
L 507.256684 269.728768 
L 509.245989 279.204134 
L 511.235294 289.232468 
L 517.203209 321.105539 
L 519.192513 330.273357 
L 521.181818 333.407255 
L 523.171123 327.545218 
L 525.160428 310.741668 
L 527.149733 284.504865 
L 531.128342 226.244729 
L 533.117647 205.14589 
L 535.106952 195.178308 
L 537.096257 195.281992 
L 539.085561 195.530933 
L 541.074866 194.932791 
L 543.064171 193.772383 
L 545.053476 191.900373 
L 547.042781 188.276594 
L 549.032086 183.575696 
L 551.02139 179.889834 
L 555 174.299598 
L 556.989305 172.907599 
L 558.97861 170.680024 
L 560.967914 169.128418 
L 562.957219 167.219815 
L 564.946524 164.689128 
L 566.935829 162.453159 
L 568.925134 159.217026 
L 570.914439 156.516352 
L 572.903743 155.160969 
L 574.893048 156.017809 
L 576.882353 159.846521 
L 578.871658 166.035086 
L 580.860963 173.980355 
L 582.850267 182.930285 
L 584.839572 193.369965 
L 586.828877 201.381376 
L 588.818182 209.958903 
L 590.807487 217.787722 
L 600.754011 261.890715 
L 602.743316 271.232237 
L 604.73262 282.118521 
L 606.721925 292.184736 
L 608.71123 303.789266 
L 610.700535 314.698588 
L 612.68984 324.691019 
L 614.679144 336.250628 
L 616.668449 346.113063 
L 618.657754 354.794232 
L 620.647059 361.69664 
L 622.636364 365.654575 
L 622.636364 365.654575 
" clip-path="url(#pb692bd4bd1)" style="fill: none; stroke: #1f77b4; stroke-width: 3; stroke-linecap: round"/>
   </g>
   <g id="line2d_12">
    <path d="M 115.363636 181.735747 
L 119.342246 172.580295 
L 123.320856 166.53517 
L 125.31016 162.061434 
L 133.26738 148.774864 
L 135.256684 145.711802 
L 139.235294 141.138403 
L 141.224599 137.826787 
L 143.213904 135.936792 
L 147.192513 131.786148 
L 149.181818 130.21395 
L 151.171123 128.103977 
L 153.160428 126.221979 
L 155.149733 125.085428 
L 157.139037 122.91287 
L 159.128342 121.953619 
L 161.117647 121.162978 
L 163.106952 120.889895 
L 167.085561 119.061196 
L 169.074866 119.375373 
L 171.064171 119.443724 
L 173.053476 119.692571 
L 175.042781 119.311989 
L 177.032086 119.561508 
L 179.02139 120.253666 
L 181.010695 120.099625 
L 183 119.649076 
L 184.989305 119.033123 
L 186.97861 118.71058 
L 188.967914 118.052964 
L 190.957219 117.888433 
L 194.935829 116.298044 
L 196.925134 116.077834 
L 198.914439 116.145209 
L 200.903743 116.342738 
L 202.893048 117.259207 
L 204.882353 117.7236 
L 206.871658 119.110909 
L 208.860963 120.340378 
L 210.850267 121.430603 
L 212.839572 123.386043 
L 214.828877 126.107458 
L 216.818182 128.358379 
L 218.807487 130.183054 
L 220.796791 129.792531 
L 222.786096 130.121366 
L 224.775401 130.88759 
L 226.764706 131.877653 
L 228.754011 130.373713 
L 230.743316 130.061429 
L 232.73262 130.610993 
L 234.721925 130.454909 
L 236.71123 128.822848 
L 238.700535 128.055241 
L 240.68984 128.718032 
L 242.679144 127.569692 
L 244.668449 126.089196 
L 246.657754 124.776716 
L 248.647059 124.382213 
L 250.636364 123.454549 
L 254.614973 121.126969 
L 256.604278 121.261568 
L 260.582888 120.065245 
L 262.572193 120.195045 
L 266.550802 121.705274 
L 268.540107 122.32777 
L 270.529412 121.763642 
L 272.518717 122.081367 
L 274.508021 121.143644 
L 276.497326 120.519991 
L 278.486631 119.166446 
L 280.475936 118.083616 
L 282.465241 117.528007 
L 286.44385 115.422208 
L 288.433155 115.132979 
L 290.42246 114.65464 
L 292.411765 114.4348 
L 294.40107 114.582075 
L 296.390374 114.905495 
L 298.379679 115.570333 
L 300.368984 117.089376 
L 302.358289 117.941975 
L 304.347594 119.809284 
L 306.336898 121.350111 
L 310.315508 126.636923 
L 312.304813 129.059248 
L 318.272727 138.418648 
L 320.262032 138.914779 
L 322.251337 137.761305 
L 324.240642 137.391383 
L 326.229947 136.372662 
L 328.219251 134.969213 
L 330.208556 135.057585 
L 332.197861 132.003865 
L 334.187166 130.948017 
L 336.176471 130.479316 
L 338.165775 128.724564 
L 340.15508 127.494704 
L 342.144385 126.980687 
L 344.13369 125.42678 
L 346.122995 124.021395 
L 348.112299 123.088465 
L 352.090909 122.810192 
L 356.069519 125.123493 
L 360.048128 125.33026 
L 362.037433 125.43884 
L 364.026738 125.109657 
L 366.016043 124.494984 
L 369.994652 122.363975 
L 371.983957 120.368397 
L 373.973262 119.485202 
L 377.951872 116.563864 
L 379.941176 115.741463 
L 381.930481 114.44015 
L 385.909091 113.518808 
L 387.898396 113.772289 
L 389.887701 113.561203 
L 393.86631 115.681462 
L 395.855615 116.672238 
L 397.84492 118.264615 
L 401.823529 122.003629 
L 405.802139 127.927896 
L 407.791444 131.442255 
L 409.780749 134.515677 
L 411.770053 137.986898 
L 417.737968 150.124541 
L 419.727273 150.461266 
L 421.716578 149.035929 
L 423.705882 145.298186 
L 425.695187 143.24668 
L 427.684492 139.521418 
L 429.673797 137.322938 
L 431.663102 133.127137 
L 433.652406 131.473525 
L 435.641711 128.325437 
L 437.631016 127.3272 
L 439.620321 125.613701 
L 441.609626 126.36279 
L 443.59893 126.992013 
L 445.588235 128.436985 
L 449.566845 129.809773 
L 451.55615 129.377508 
L 453.545455 129.591913 
L 455.534759 128.456718 
L 457.524064 127.159559 
L 459.513369 125.596675 
L 463.491979 123.017085 
L 467.470588 120.865434 
L 469.459893 118.973834 
L 471.449198 118.293918 
L 473.438503 117.093442 
L 475.427807 116.192452 
L 477.417112 114.442926 
L 481.395722 113.947852 
L 483.385027 113.766363 
L 485.374332 114.183714 
L 487.363636 114.859109 
L 489.352941 116.276211 
L 491.342246 117.426829 
L 493.331551 119.649409 
L 495.320856 122.340983 
L 497.31016 124.475807 
L 499.299465 127.441989 
L 501.28877 130.026756 
L 505.26738 137.293254 
L 511.235294 148.888251 
L 513.224599 152.271375 
L 517.203209 159.601501 
L 519.192513 160.454183 
L 521.181818 157.670619 
L 523.171123 150.506949 
L 527.149733 134.756603 
L 529.139037 129.025868 
L 531.128342 125.180266 
L 533.117647 125.072432 
L 535.106952 126.420377 
L 537.096257 129.264042 
L 539.085561 130.641972 
L 541.074866 132.509332 
L 543.064171 133.000725 
L 545.053476 132.746611 
L 549.032086 130.376772 
L 555 125.071446 
L 556.989305 123.37823 
L 558.97861 121.962301 
L 560.967914 122.053084 
L 562.957219 120.598882 
L 564.946524 119.499385 
L 566.935829 118.224666 
L 572.903743 114.828654 
L 574.893048 114.550969 
L 576.882353 114.060786 
L 578.871658 113.76794 
L 580.860963 114.548127 
L 582.850267 114.866384 
L 584.839572 116.296164 
L 586.828877 118.760657 
L 588.818182 120.266033 
L 590.807487 122.714148 
L 592.796791 124.691683 
L 594.786096 127.282298 
L 596.775401 130.803409 
L 598.764706 133.749247 
L 600.754011 137.58177 
L 602.743316 141.163104 
L 608.71123 153.395071 
L 610.700535 156.46999 
L 612.68984 160.870201 
L 614.679144 165.599984 
L 618.657754 173.354548 
L 620.647059 176.28108 
L 622.636364 179.597692 
L 622.636364 179.597692 
" clip-path="url(#pb692bd4bd1)" style="fill: none; stroke: #ff7f0e; stroke-width: 3; stroke-linecap: round"/>
   </g>
   <g id="line2d_13">
    <path d="M 90 280.646086 
L 648 280.646086 
" clip-path="url(#pb692bd4bd1)" style="fill: none; stroke-dasharray: 11.1,4.8; stroke-dashoffset: 0; stroke: #1f77b4; stroke-width: 3"/>
   </g>
   <g id="line2d_14">
    <path d="M 90 266.922902 
L 648 266.922902 
" clip-path="url(#pb692bd4bd1)" style="fill: none; stroke-dasharray: 11.1,4.8; stroke-dashoffset: 0; stroke: #ff7f0e; stroke-width: 3"/>
   </g>
   <g id="line2d_15">
    <path d="M 90 66.96 
L 648 66.96 
" clip-path="url(#pb692bd4bd1)" style="fill: none; stroke-dasharray: 11.1,4.8; stroke-dashoffset: 0; stroke: #7f7f7f; stroke-width: 3"/>
   </g>
   <g id="patch_3">
    <path d="M 90 384.48 
L 90 51.84 
" style="fill: none; stroke: #ffffff; stroke-width: 1.25; stroke-linejoin: miter; stroke-linecap: square"/>
   </g>
   <g id="patch_4">
    <path d="M 648 384.48 
L 648 51.84 
" style="fill: none; stroke: #ffffff; stroke-width: 1.25; stroke-linejoin: miter; stroke-linecap: square"/>
   </g>
   <g id="patch_5">
    <path d="M 90 384.48 
L 648 384.48 
" style="fill: none; stroke: #ffffff; stroke-width: 1.25; stroke-linejoin: miter; stroke-linecap: square"/>
   </g>
   <g id="patch_6">
    <path d="M 90 51.84 
L 648 51.84 
" style="fill: none; stroke: #ffffff; stroke-width: 1.25; stroke-linejoin: miter; stroke-linecap: square"/>
   </g>
   <g id="text_13">
    <!-- Entropy of Amplitudes -->
    <g style="fill: #262626" transform="translate(231.446908 45.84) scale(0.3 -0.3)">
     <defs>
      <path id="CMR17-66" d="M 979 2585 
L 1709 2585 
L 1709 2752 
L 966 2752 
L 966 3539 
C 966 4076 1235 4377 1510 4377 
C 1594 4377 1690 4363 1754 4339 
C 1702 4326 1568 4281 1568 4121 
C 1568 3955 1696 3904 1786 3904 
C 1875 3904 2003 3955 2003 4121 
C 2003 4353 1773 4480 1517 4480 
C 1152 4480 653 4211 653 3526 
L 653 2752 
L 141 2752 
L 141 2585 
L 653 2585 
L 653 441 
C 653 198 627 166 218 166 
L 218 0 
C 371 12 666 12 832 12 
C 1018 12 1344 12 1517 0 
L 1517 166 
C 1056 166 979 166 979 454 
L 979 2585 
z
" transform="scale(0.015625)"/>
      <path id="CMR17-41" d="M 2323 4441 
C 2291 4524 2278 4544 2214 4544 
C 2150 4544 2138 4524 2106 4441 
L 749 580 
C 627 236 371 166 147 166 
L 147 0 
C 262 12 518 12 640 12 
C 800 12 1056 12 1210 0 
L 1210 166 
C 909 179 864 382 864 459 
C 864 516 877 548 890 586 
L 1229 1536 
L 2906 1536 
L 3290 453 
C 3322 376 3322 363 3322 338 
C 3322 166 3046 166 2925 166 
L 2925 0 
C 3110 12 3443 12 3642 12 
C 3808 12 4128 12 4282 0 
L 4282 166 
C 3942 166 3827 166 3744 402 
L 2323 4441 
z
M 2067 3924 
L 2848 1702 
L 1286 1702 
L 2067 3924 
z
" transform="scale(0.015625)"/>
      <path id="CMR17-6c" d="M 979 4416 
L 218 4345 
L 218 4179 
C 595 4179 653 4141 653 3835 
L 653 439 
C 653 198 627 166 218 166 
L 218 0 
C 371 12 653 12 813 12 
C 979 12 1261 12 1414 0 
L 1414 166 
C 1005 166 979 191 979 439 
L 979 4416 
z
" transform="scale(0.015625)"/>
      <path id="CMR17-75" d="M 1882 2745 
L 1882 2579 
C 2259 2579 2317 2540 2317 2229 
L 2317 1053 
C 2317 510 2029 38 1555 38 
C 1030 38 986 355 986 691 
L 986 2816 
L 211 2745 
L 211 2579 
C 467 2579 640 2579 646 2320 
L 646 1079 
C 646 646 646 368 813 187 
C 896 103 1056 -64 1517 -64 
C 2061 -64 2272 400 2323 536 
L 2330 536 
L 2330 -64 
L 3091 -13 
L 3091 154 
C 2714 154 2656 193 2656 503 
L 2656 2816 
L 1882 2745 
z
" transform="scale(0.015625)"/>
      <path id="CMR17-73" d="M 1978 2688 
C 1978 2803 1971 2809 1933 2809 
C 1907 2809 1901 2803 1824 2707 
C 1805 2681 1747 2617 1728 2592 
C 1523 2809 1235 2816 1126 2816 
C 416 2816 160 2444 160 2073 
C 160 1497 813 1363 998 1324 
C 1402 1241 1542 1216 1677 1100 
C 1760 1024 1901 883 1901 652 
C 1901 384 1747 38 1158 38 
C 602 38 403 460 288 1024 
C 269 1113 269 1120 218 1120 
C 166 1120 160 1113 160 985 
L 160 64 
C 160 -52 166 -58 205 -58 
C 237 -58 243 -52 275 0 
C 314 57 410 211 448 275 
C 576 102 800 -64 1158 -64 
C 1792 -64 2131 281 2131 780 
C 2131 1107 1958 1280 1875 1356 
C 1683 1555 1459 1600 1190 1651 
C 838 1728 390 1817 390 2208 
C 390 2374 480 2726 1126 2726 
C 1811 2726 1850 2086 1862 1881 
C 1869 1849 1901 1843 1920 1843 
C 1978 1843 1978 1862 1978 1971 
L 1978 2688 
z
" transform="scale(0.015625)"/>
     </defs>
     <use xlink:href="#CMR17-45" transform="scale(0.996264)"/>
     <use xlink:href="#CMR17-6e" transform="translate(62.586301 0) scale(0.996264)"/>
     <use xlink:href="#CMR17-74" transform="translate(110.879216 0) scale(0.996264)"/>
     <use xlink:href="#CMR17-72" transform="translate(146.159984 0) scale(0.996264)"/>
     <use xlink:href="#CMR17-6f" transform="translate(181.440752 0) scale(0.996264)"/>
     <use xlink:href="#CMR17-70" transform="translate(227.131229 0) scale(0.996264)"/>
     <use xlink:href="#CMR17-79" transform="translate(275.424145 0) scale(0.996264)"/>
     <use xlink:href="#CMR17-6f" transform="translate(353.793027 0) scale(0.996264)"/>
     <use xlink:href="#CMR17-66" transform="translate(399.483504 0) scale(0.996264)"/>
     <use xlink:href="#CMR17-41" transform="translate(457.032983 0) scale(0.996264)"/>
     <use xlink:href="#CMR17-6d" transform="translate(526.105413 0) scale(0.996264)"/>
     <use xlink:href="#CMR17-70" transform="translate(603.025003 0) scale(0.996264)"/>
     <use xlink:href="#CMR17-6c" transform="translate(653.920372 0) scale(0.996264)"/>
     <use xlink:href="#CMR17-69" transform="translate(678.791431 0) scale(0.996264)"/>
     <use xlink:href="#CMR17-74" transform="translate(703.662489 0) scale(0.996264)"/>
     <use xlink:href="#CMR17-75" transform="translate(738.943257 0) scale(0.996264)"/>
     <use xlink:href="#CMR17-64" transform="translate(789.838627 0) scale(0.996264)"/>
     <use xlink:href="#CMR17-65" transform="translate(840.733997 0) scale(0.996264)"/>
     <use xlink:href="#CMR17-73" transform="translate(881.219657 0) scale(0.996264)"/>
    </g>
   </g>
   <g id="legend_1">
    <g id="patch_7">
     <path d="M 649.943421 252.964832 
L 980.856579 252.964832 
Q 986.356579 252.964832 986.356579 247.464832 
L 986.356579 55.799168 
Q 986.356579 50.299168 980.856579 50.299168 
L 649.943421 50.299168 
Q 644.443421 50.299168 644.443421 55.799168 
L 644.443421 247.464832 
Q 644.443421 252.964832 649.943421 252.964832 
z
" style="fill: #ffffff; opacity: 0.8; stroke: #cccccc; stroke-linejoin: miter"/>
    </g>
    <g id="line2d_16">
     <path d="M 655.443421 70.924168 
L 682.943421 70.924168 
L 710.443421 70.924168 
" style="fill: none; stroke: #1f77b4; stroke-width: 3; stroke-linecap: round"/>
    </g>
    <g id="text_14">
     <!-- No noise -->
     <g style="fill: #262626" transform="translate(732.443421 80.549168) scale(0.275 -0.275)">
      <defs>
       <path id="CMR17-4e" d="M 1312 4275 
C 1267 4345 1261 4352 1139 4352 
L 326 4352 
L 326 4185 
L 448 4185 
C 704 4185 819 4153 838 4147 
L 838 624 
C 838 465 838 166 326 166 
L 326 0 
C 474 12 742 12 902 12 
C 1062 12 1331 12 1478 0 
L 1478 166 
C 966 166 966 465 966 624 
L 966 4057 
C 1011 4019 1011 4007 1056 3943 
L 3430 76 
C 3475 0 3494 0 3526 0 
C 3590 0 3590 19 3590 140 
L 3590 3726 
C 3590 3885 3590 4185 4102 4185 
L 4102 4352 
C 3955 4339 3686 4339 3526 4339 
C 3366 4339 3098 4339 2950 4352 
L 2950 4185 
C 3462 4185 3462 3885 3462 3726 
L 3462 777 
L 1312 4275 
z
" transform="scale(0.015625)"/>
      </defs>
      <use xlink:href="#CMR17-4e" transform="scale(0.996264)"/>
      <use xlink:href="#CMR17-6f" transform="translate(69.07243 0) scale(0.996264)"/>
      <use xlink:href="#CMR17-6e" transform="translate(144.838873 0) scale(0.996264)"/>
      <use xlink:href="#CMR17-6f" transform="translate(195.734243 0) scale(0.996264)"/>
      <use xlink:href="#CMR17-69" transform="translate(241.42472 0) scale(0.996264)"/>
      <use xlink:href="#CMR17-73" transform="translate(266.295779 0) scale(0.996264)"/>
      <use xlink:href="#CMR17-65" transform="translate(302.097116 0) scale(0.996264)"/>
     </g>
    </g>
    <g id="line2d_17">
     <path d="M 655.443421 109.253168 
L 682.943421 109.253168 
L 710.443421 109.253168 
" style="fill: none; stroke: #ff7f0e; stroke-width: 3; stroke-linecap: round"/>
    </g>
    <g id="text_15">
     <!-- With noise -->
     <g style="fill: #262626" transform="translate(732.443421 118.878168) scale(0.275 -0.275)">
      <defs>
       <path id="CMR17-57" d="M 5523 3775 
C 5581 3948 5677 4173 6048 4185 
L 6048 4352 
C 5939 4345 5715 4339 5600 4339 
C 5440 4339 5158 4339 5005 4352 
L 5005 4185 
C 5293 4179 5414 4019 5414 3865 
C 5414 3820 5408 3794 5382 3724 
L 4390 557 
L 3347 3890 
C 3328 3955 3322 3980 3322 4006 
C 3322 4185 3603 4185 3725 4185 
L 3725 4352 
C 3539 4339 3219 4339 3021 4339 
C 2861 4339 2573 4339 2426 4352 
L 2426 4185 
C 2720 4185 2797 4166 2861 4051 
C 2886 3993 2989 3660 2989 3640 
C 2989 3615 2976 3576 2970 3557 
L 2029 564 
L 986 3890 
C 954 3980 954 3993 954 4006 
C 954 4185 1235 4185 1363 4185 
L 1363 4352 
C 1178 4339 858 4339 659 4339 
C 493 4339 211 4339 58 4352 
L 58 4185 
C 442 4185 467 4147 531 3942 
L 1779 -20 
C 1811 -116 1811 -128 1869 -128 
C 1920 -128 1939 -116 1965 -26 
L 3053 3448 
L 4141 -26 
C 4166 -116 4186 -128 4237 -128 
C 4294 -128 4294 -116 4326 -20 
L 5523 3775 
z
" transform="scale(0.015625)"/>
       <path id="CMR17-68" d="M 2656 1954 
C 2656 2282 2592 2816 1837 2816 
C 1312 2816 1056 2392 979 2179 
L 973 2179 
L 973 4416 
L 211 4345 
L 211 4179 
C 589 4179 646 4141 646 3843 
L 646 443 
C 646 198 621 166 211 166 
L 211 0 
C 365 12 646 12 813 12 
C 979 12 1267 12 1421 0 
L 1421 166 
C 1011 166 986 192 986 443 
L 986 1678 
C 986 2269 1344 2713 1792 2713 
C 2266 2713 2317 2289 2317 1980 
L 2317 443 
C 2317 198 2291 166 1882 166 
L 1882 0 
C 2035 12 2317 12 2483 12 
C 2650 12 2938 12 3091 0 
L 3091 166 
C 2682 166 2656 192 2656 443 
L 2656 1954 
z
" transform="scale(0.015625)"/>
      </defs>
      <use xlink:href="#CMR17-57" transform="scale(0.996264)"/>
      <use xlink:href="#CMR17-69" transform="translate(95.09665 0) scale(0.996264)"/>
      <use xlink:href="#CMR17-74" transform="translate(119.967708 0) scale(0.996264)"/>
      <use xlink:href="#CMR17-68" transform="translate(155.248476 0) scale(0.996264)"/>
      <use xlink:href="#CMR17-6e" transform="translate(236.219812 0) scale(0.996264)"/>
      <use xlink:href="#CMR17-6f" transform="translate(287.115182 0) scale(0.996264)"/>
      <use xlink:href="#CMR17-69" transform="translate(332.805659 0) scale(0.996264)"/>
      <use xlink:href="#CMR17-73" transform="translate(357.676718 0) scale(0.996264)"/>
      <use xlink:href="#CMR17-65" transform="translate(393.478055 0) scale(0.996264)"/>
     </g>
    </g>
    <g id="line2d_18">
     <path d="M 655.443421 147.582168 
L 682.943421 147.582168 
L 710.443421 147.582168 
" style="fill: none; stroke-dasharray: 11.1,4.8; stroke-dashoffset: 0; stroke: #1f77b4; stroke-width: 3"/>
    </g>
    <g id="text_16">
     <!-- No noise -->
     <g style="fill: #262626" transform="translate(732.443421 157.207168) scale(0.275 -0.275)">
      <use xlink:href="#CMR17-4e" transform="scale(0.996264)"/>
      <use xlink:href="#CMR17-6f" transform="translate(69.07243 0) scale(0.996264)"/>
      <use xlink:href="#CMR17-6e" transform="translate(144.838873 0) scale(0.996264)"/>
      <use xlink:href="#CMR17-6f" transform="translate(195.734243 0) scale(0.996264)"/>
      <use xlink:href="#CMR17-69" transform="translate(241.42472 0) scale(0.996264)"/>
      <use xlink:href="#CMR17-73" transform="translate(266.295779 0) scale(0.996264)"/>
      <use xlink:href="#CMR17-65" transform="translate(302.097116 0) scale(0.996264)"/>
     </g>
    </g>
    <g id="line2d_19">
     <path d="M 655.443421 187.184441 
L 682.943421 187.184441 
L 710.443421 187.184441 
" style="fill: none; stroke-dasharray: 11.1,4.8; stroke-dashoffset: 0; stroke: #ff7f0e; stroke-width: 3"/>
    </g>
    <g id="text_17">
     <!-- With noise, $\mathcal{U}(range)$ -->
     <g style="fill: #262626" transform="translate(732.443421 196.809441) scale(0.275 -0.275)">
      <defs>
       <path id="CMSY10-55" d="M 3155 1892 
C 3008 1359 2784 573 2784 83 
C 2784 -90 2893 -167 3046 -167 
C 3302 -167 3782 108 3782 236 
C 3782 268 3750 281 3718 281 
C 3642 281 3526 224 3456 185 
C 3373 198 3328 262 3328 350 
C 3328 1125 4058 3346 4243 3815 
C 4320 3993 4403 4255 4403 4307 
C 4403 4352 4365 4352 4339 4352 
C 4205 4352 3917 4179 3866 4057 
C 3782 3834 3770 3802 3693 3568 
C 3482 2965 2848 1918 2214 1182 
C 2016 960 1389 224 934 224 
C 627 224 435 484 435 903 
C 435 1347 685 1918 1069 2787 
C 1299 3308 1491 3758 1491 4044 
C 1491 4345 1286 4352 1171 4352 
C 678 4352 64 3955 64 3822 
C 64 3783 109 3783 134 3783 
C 211 3783 326 3834 429 3904 
C 474 3936 576 3999 749 3999 
C 890 3999 947 3910 947 3771 
C 947 3492 717 2971 448 2362 
C 26 1410 -109 1004 -109 636 
C -109 217 58 -128 512 -128 
C 909 -128 1491 134 2144 738 
C 2586 1150 2874 1531 3149 1899 
L 3155 1892 
z
" transform="scale(0.015625)"/>
       <path id="CMR17-28" d="M 1958 -1562 
C 1958 -1556 1958 -1543 1939 -1524 
C 1645 -1223 858 -403 858 1596 
C 858 3595 1632 4408 1946 4729 
C 1946 4735 1958 4748 1958 4767 
C 1958 4787 1939 4800 1914 4800 
C 1843 4800 1299 4325 986 3620 
C 666 2909 576 2218 576 1603 
C 576 1141 621 360 1005 -467 
C 1312 -1133 1837 -1600 1914 -1600 
C 1946 -1600 1958 -1588 1958 -1562 
z
" transform="scale(0.015625)"/>
       <path id="CMMI12-72" d="M 2490 2633 
C 2291 2598 2189 2457 2189 2316 
C 2189 2163 2310 2111 2400 2111 
C 2579 2111 2726 2265 2726 2457 
C 2726 2651 2528 2816 2208 2816 
C 1952 2816 1658 2700 1389 2335 
C 1344 2660 1088 2816 832 2816 
C 582 2816 454 2642 378 2508 
C 269 2278 173 1892 173 1860 
C 173 1834 198 1801 243 1801 
C 294 1801 301 1808 339 1957 
C 435 2342 557 2687 813 2687 
C 966 2687 1011 2604 1011 2419 
C 1011 2278 947 2028 902 1827 
L 723 1130 
C 698 1007 627 716 595 600 
C 550 432 480 128 480 96 
C 480 6 550 -64 646 -64 
C 717 -64 838 -20 877 109 
C 896 160 1133 1136 1171 1285 
C 1203 1427 1242 1562 1274 1705 
C 1299 1795 1325 1898 1344 1982 
C 1363 2040 1536 2355 1696 2495 
C 1773 2566 1939 2687 2202 2687 
C 2304 2687 2406 2674 2490 2633 
z
" transform="scale(0.015625)"/>
       <path id="CMMI12-61" d="M 1926 759 
C 1894 651 1894 638 1805 517 
C 1664 338 1382 64 1082 64 
C 819 64 672 300 672 676 
C 672 1028 870 1743 992 2011 
C 1210 2458 1510 2687 1760 2687 
C 2182 2687 2266 2164 2266 2113 
C 2266 2107 2246 2024 2240 2011 
L 1926 759 
z
M 2336 2394 
C 2266 2560 2093 2816 1760 2816 
C 1037 2816 256 1883 256 938 
C 256 306 627 -64 1062 -64 
C 1414 -64 1715 210 1894 421 
C 1958 44 2259 -64 2451 -64 
C 2643 -64 2797 51 2912 280 
C 3014 496 3104 885 3104 910 
C 3104 942 3078 968 3040 968 
C 2982 968 2976 936 2950 840 
C 2854 465 2733 64 2470 64 
C 2285 64 2272 229 2272 356 
C 2272 503 2291 573 2349 821 
C 2394 980 2426 1120 2477 1305 
C 2714 2260 2771 2489 2771 2528 
C 2771 2617 2701 2688 2605 2688 
C 2400 2688 2349 2464 2336 2388 
L 2336 2394 
z
" transform="scale(0.015625)"/>
       <path id="CMMI12-6e" d="M 1318 1870 
C 1331 1909 1491 2228 1728 2432 
C 1894 2585 2112 2687 2362 2687 
C 2618 2687 2707 2496 2707 2241 
C 2707 1877 2445 1149 2317 804 
C 2259 651 2227 568 2227 453 
C 2227 166 2426 -64 2733 -64 
C 3328 -64 3552 874 3552 913 
C 3552 945 3526 970 3488 970 
C 3430 970 3424 951 3392 842 
C 3245 319 3002 64 2752 64 
C 2688 64 2586 70 2586 274 
C 2586 434 2656 625 2694 715 
C 2822 1066 3091 1781 3091 2145 
C 3091 2528 2867 2816 2381 2816 
C 1811 2816 1510 2413 1395 2253 
C 1376 2617 1114 2816 832 2816 
C 627 2816 486 2694 378 2477 
C 262 2247 173 1864 173 1838 
C 173 1813 198 1781 243 1781 
C 294 1781 301 1787 339 1934 
C 442 2324 557 2687 813 2687 
C 960 2687 1011 2585 1011 2394 
C 1011 2253 947 2004 902 1807 
L 723 1117 
C 698 996 627 708 595 593 
C 550 427 480 127 480 95 
C 480 6 550 -64 646 -64 
C 723 -64 813 -26 864 70 
C 877 102 934 325 966 453 
L 1107 1028 
L 1318 1870 
z
" transform="scale(0.015625)"/>
       <path id="CMMI12-67" d="M 2163 811 
C 2138 708 2125 683 2042 587 
C 1779 249 1510 128 1312 128 
C 1101 128 902 293 902 734 
C 902 1072 1094 1787 1235 2075 
C 1421 2432 1709 2687 1978 2687 
C 2400 2687 2483 2164 2483 2126 
L 2464 2036 
L 2163 811 
z
M 2560 2394 
C 2477 2579 2298 2816 1978 2816 
C 1280 2816 486 1941 486 989 
C 486 325 890 0 1299 0 
C 1638 0 1939 268 2054 396 
L 1914 -176 
C 1824 -520 1786 -677 1555 -896 
C 1293 -1152 1050 -1152 909 -1152 
C 717 -1152 557 -1140 397 -1090 
C 602 -1034 653 -858 653 -789 
C 653 -689 576 -589 435 -589 
C 282 -589 115 -714 115 -921 
C 115 -1178 378 -1280 922 -1280 
C 1747 -1280 2176 -758 2259 -420 
L 2970 2426 
C 2989 2502 2989 2515 2989 2528 
C 2989 2617 2918 2688 2822 2688 
C 2669 2688 2579 2560 2560 2388 
L 2560 2394 
z
" transform="scale(0.015625)"/>
       <path id="CMMI12-65" d="M 1146 1472 
C 1318 1472 1754 1484 2061 1600 
C 2547 1786 2592 2160 2592 2275 
C 2592 2559 2349 2816 1926 2816 
C 1254 2816 288 2205 288 1066 
C 288 400 672 -64 1254 -64 
C 2125 -64 2675 609 2675 691 
C 2675 729 2637 761 2611 761 
C 2592 761 2586 755 2528 698 
C 2118 159 1510 64 1267 64 
C 902 64 710 349 710 818 
C 710 907 710 1066 806 1472 
L 1146 1472 
z
M 838 1600 
C 1114 2591 1722 2687 1926 2687 
C 2208 2687 2400 2520 2400 2275 
C 2400 1600 1376 1600 1107 1600 
L 838 1600 
z
" transform="scale(0.015625)"/>
       <path id="CMR17-29" d="M 1683 1596 
C 1683 2057 1638 2839 1254 3665 
C 947 4332 422 4800 346 4800 
C 326 4800 301 4793 301 4761 
C 301 4748 307 4742 314 4729 
C 621 4408 1402 3595 1402 1603 
C 1402 -396 627 -1210 314 -1530 
C 307 -1543 301 -1549 301 -1562 
C 301 -1594 326 -1600 346 -1600 
C 416 -1600 960 -1127 1274 -422 
C 1594 289 1683 981 1683 1596 
z
" transform="scale(0.015625)"/>
      </defs>
      <use xlink:href="#CMR17-57" transform="scale(0.996264)"/>
      <use xlink:href="#CMR17-69" transform="translate(95.09665 0) scale(0.996264)"/>
      <use xlink:href="#CMR17-74" transform="translate(119.967708 0) scale(0.996264)"/>
      <use xlink:href="#CMR17-68" transform="translate(155.248476 0) scale(0.996264)"/>
      <use xlink:href="#CMR17-6e" transform="translate(236.219812 0) scale(0.996264)"/>
      <use xlink:href="#CMR17-6f" transform="translate(287.115182 0) scale(0.996264)"/>
      <use xlink:href="#CMR17-69" transform="translate(332.805659 0) scale(0.996264)"/>
      <use xlink:href="#CMR17-73" transform="translate(357.676718 0) scale(0.996264)"/>
      <use xlink:href="#CMR17-65" transform="translate(393.478055 0) scale(0.996264)"/>
      <use xlink:href="#CMR17-2c" transform="translate(433.963716 0) scale(0.996264)"/>
      <use xlink:href="#CMSY10-55" transform="translate(488.910741 0) scale(0.996264)"/>
      <use xlink:href="#CMR17-28" transform="translate(561.153593 0) scale(0.996264)"/>
      <use xlink:href="#CMMI12-72" transform="translate(596.434361 0) scale(0.996264)"/>
      <use xlink:href="#CMMI12-61" transform="translate(643.104973 0) scale(0.996264)"/>
      <use xlink:href="#CMMI12-6e" transform="translate(694.312831 0) scale(0.996264)"/>
      <use xlink:href="#CMMI12-67" transform="translate(752.542878 0) scale(0.996264)"/>
      <use xlink:href="#CMMI12-65" transform="translate(802.828368 0) scale(0.996264)"/>
      <use xlink:href="#CMR17-29" transform="translate(848.040369 0) scale(0.996264)"/>
     </g>
    </g>
    <g id="line2d_20">
     <path d="M 655.443421 227.010832 
L 682.943421 227.010832 
L 710.443421 227.010832 
" style="fill: none; stroke-dasharray: 11.1,4.8; stroke-dashoffset: 0; stroke: #7f7f7f; stroke-width: 3"/>
    </g>
    <g id="text_18">
     <!-- Uniform, Binned -->
     <g style="fill: #262626" transform="translate(732.443421 236.635832) scale(0.275 -0.275)">
      <defs>
       <path id="CMR17-55" d="M 3456 1442 
C 3456 583 2899 38 2291 38 
C 1965 38 1670 211 1491 480 
C 1286 788 1261 1185 1261 1410 
L 1261 3897 
C 1261 4185 1331 4185 1773 4185 
L 1773 4352 
C 1587 4339 1248 4339 1050 4339 
C 851 4339 512 4339 326 4352 
L 326 4185 
C 768 4185 838 4185 838 3897 
L 838 1442 
C 838 519 1536 -128 2278 -128 
C 3110 -128 3590 724 3590 1352 
L 3590 3788 
C 3590 4147 3917 4185 4102 4185 
L 4102 4352 
C 3955 4339 3686 4339 3526 4339 
C 3366 4339 3091 4339 2944 4352 
L 2944 4185 
C 3456 4185 3456 3884 3456 3724 
L 3456 1442 
z
" transform="scale(0.015625)"/>
       <path id="CMR17-42" d="M 333 4352 
L 333 4185 
C 774 4185 845 4185 845 3897 
L 845 451 
C 845 166 774 166 333 166 
L 333 0 
L 2534 0 
C 3354 0 3885 578 3885 1155 
C 3885 1726 3360 2214 2675 2259 
C 3290 2380 3718 2790 3718 3276 
C 3718 3808 3194 4352 2368 4352 
L 333 4352 
z
M 1248 2304 
L 1248 3936 
C 1248 4153 1261 4185 1517 4185 
L 2336 4185 
C 2970 4185 3251 3673 3251 3276 
C 3251 2790 2861 2304 2170 2304 
L 1248 2304 
z
M 1517 166 
C 1261 166 1248 198 1248 413 
L 1248 2201 
L 2432 2201 
C 3091 2201 3411 1624 3411 1161 
C 3411 698 3046 166 2349 166 
L 1517 166 
z
" transform="scale(0.015625)"/>
      </defs>
      <use xlink:href="#CMR17-55" transform="scale(0.996264)"/>
      <use xlink:href="#CMR17-6e" transform="translate(69.07243 0) scale(0.996264)"/>
      <use xlink:href="#CMR17-69" transform="translate(119.9678 0) scale(0.996264)"/>
      <use xlink:href="#CMR17-66" transform="translate(144.838858 0) scale(0.996264)"/>
      <use xlink:href="#CMR17-6f" transform="translate(172.31237 0) scale(0.996264)"/>
      <use xlink:href="#CMR17-72" transform="translate(218.002848 0) scale(0.996264)"/>
      <use xlink:href="#CMR17-6d" transform="translate(253.283615 0) scale(0.996264)"/>
      <use xlink:href="#CMR17-2c" transform="translate(330.203205 0) scale(0.996264)"/>
      <use xlink:href="#CMR17-42" transform="translate(385.15023 0) scale(0.996264)"/>
      <use xlink:href="#CMR17-69" transform="translate(450.338985 0) scale(0.996264)"/>
      <use xlink:href="#CMR17-6e" transform="translate(475.210043 0) scale(0.996264)"/>
      <use xlink:href="#CMR17-6e" transform="translate(526.105413 0) scale(0.996264)"/>
      <use xlink:href="#CMR17-65" transform="translate(577.000783 0) scale(0.996264)"/>
      <use xlink:href="#CMR17-64" transform="translate(617.486443 0) scale(0.996264)"/>
     </g>
    </g>
   </g>
  </g>
 </g>
 <defs>
  <clipPath id="pb692bd4bd1">
   <rect x="90" y="51.84" width="558" height="332.64"/>
  </clipPath>
 </defs>
</svg>
