<?xml version="1.0" encoding="utf-8" standalone="no"?>
<!DOCTYPE svg PUBLIC "-//W3C//DTD SVG 1.1//EN"
  "http://www.w3.org/Graphics/SVG/1.1/DTD/svg11.dtd">
<svg xmlns:xlink="http://www.w3.org/1999/xlink" width="720pt" height="432pt" viewBox="0 0 720 432" xmlns="http://www.w3.org/2000/svg" version="1.1">
 <metadata>
  <rdf:RDF xmlns:dc="http://purl.org/dc/elements/1.1/" xmlns:cc="http://creativecommons.org/ns#" xmlns:rdf="http://www.w3.org/1999/02/22-rdf-syntax-ns#">
   <cc:Work>
    <dc:type rdf:resource="http://purl.org/dc/dcmitype/StillImage"/>
    <dc:date>2025-05-27T19:58:15.641767</dc:date>
    <dc:format>image/svg+xml</dc:format>
    <dc:creator>
     <cc:Agent>
      <dc:title>Matplotlib v3.10.0, https://matplotlib.org/</dc:title>
     </cc:Agent>
    </dc:creator>
   </cc:Work>
  </rdf:RDF>
 </metadata>
 <defs>
  <style type="text/css">*{stroke-linejoin: round; stroke-linecap: butt}</style>
 </defs>
 <g id="figure_1">
  <g id="patch_1">
   <path d="M 0 432 
L 720 432 
L 720 0 
L 0 0 
z
" style="fill: #ffffff"/>
  </g>
  <g id="axes_1">
   <g id="patch_2">
    <path d="M 90 384.48 
L 648 384.48 
L 648 51.84 
L 90 51.84 
z
" style="fill: #ffffff"/>
   </g>
   <g id="matplotlib.axis_1">
    <g id="xtick_1">
     <g id="line2d_1">
      <path d="M 93.96894 384.48 
L 93.96894 51.84 
" clip-path="url(#p8e73f41e43)" style="fill: none; stroke: #cccccc; stroke-linecap: round"/>
     </g>
     <g id="text_1">
      <!-- $\mathdefault{−6}$ -->
      <g style="fill: #262626" transform="translate(77.031973 413.005867) scale(0.275 -0.275)">
       <defs>
        <path id="CMSY10-0" d="M 4218 1472 
C 4326 1472 4442 1472 4442 1600 
C 4442 1728 4326 1728 4218 1728 
L 755 1728 
C 646 1728 531 1728 531 1600 
C 531 1472 646 1472 755 1472 
L 4218 1472 
z
" transform="scale(0.015625)"/>
        <path id="CMR17-36" d="M 678 2198 
C 678 3712 1395 4076 1811 4076 
C 1946 4076 2272 4049 2400 3782 
C 2298 3782 2106 3782 2106 3558 
C 2106 3385 2246 3328 2336 3328 
C 2394 3328 2566 3353 2566 3571 
C 2566 3987 2246 4224 1805 4224 
C 1043 4224 243 3411 243 2011 
C 243 257 966 -128 1478 -128 
C 2099 -128 2688 431 2688 1295 
C 2688 2101 2170 2688 1517 2688 
C 1126 2688 838 2430 678 1979 
L 678 2198 
z
M 1478 25 
C 691 25 691 1212 691 1450 
C 691 1914 909 2585 1504 2585 
C 1613 2585 1926 2585 2138 2140 
C 2253 1889 2253 1624 2253 1302 
C 2253 954 2253 696 2118 438 
C 1978 173 1773 25 1478 25 
z
" transform="scale(0.015625)"/>
       </defs>
       <use xlink:href="#CMSY10-0" transform="scale(0.996264)"/>
       <use xlink:href="#CMR17-36" transform="translate(77.487468 0) scale(0.996264)"/>
      </g>
     </g>
    </g>
    <g id="xtick_2">
     <g id="line2d_2">
      <path d="M 189.742675 384.48 
L 189.742675 51.84 
" clip-path="url(#p8e73f41e43)" style="fill: none; stroke: #cccccc; stroke-linecap: round"/>
     </g>
     <g id="text_2">
      <!-- $\mathdefault{−4}$ -->
      <g style="fill: #262626" transform="translate(172.805708 413.005867) scale(0.275 -0.275)">
       <defs>
        <path id="CMR17-34" d="M 2150 4147 
C 2150 4281 2144 4288 2029 4288 
L 128 1254 
L 128 1088 
L 1779 1088 
L 1779 460 
C 1779 230 1766 166 1318 166 
L 1197 166 
L 1197 0 
C 1402 12 1747 12 1965 12 
C 2182 12 2528 12 2733 0 
L 2733 166 
L 2611 166 
C 2163 166 2150 230 2150 460 
L 2150 1088 
L 2803 1088 
L 2803 1254 
L 2150 1254 
L 2150 4147 
z
M 1798 3723 
L 1798 1254 
L 256 1254 
L 1798 3723 
z
" transform="scale(0.015625)"/>
       </defs>
       <use xlink:href="#CMSY10-0" transform="scale(0.996264)"/>
       <use xlink:href="#CMR17-34" transform="translate(77.487468 0) scale(0.996264)"/>
      </g>
     </g>
    </g>
    <g id="xtick_3">
     <g id="line2d_3">
      <path d="M 285.516409 384.48 
L 285.516409 51.84 
" clip-path="url(#p8e73f41e43)" style="fill: none; stroke: #cccccc; stroke-linecap: round"/>
     </g>
     <g id="text_3">
      <!-- $\mathdefault{−2}$ -->
      <g style="fill: #262626" transform="translate(268.579442 413.005867) scale(0.275 -0.275)">
       <defs>
        <path id="CMR17-32" d="M 2669 990 
L 2554 990 
C 2490 537 2438 460 2413 422 
C 2381 371 1920 371 1830 371 
L 602 371 
C 832 620 1280 1073 1824 1596 
C 2214 1966 2669 2400 2669 3033 
C 2669 3788 2067 4224 1395 4224 
C 691 4224 262 3603 262 3027 
C 262 2777 448 2745 525 2745 
C 589 2745 781 2783 781 3007 
C 781 3206 614 3264 525 3264 
C 486 3264 448 3257 422 3244 
C 544 3788 915 4057 1306 4057 
C 1862 4057 2227 3616 2227 3033 
C 2227 2477 1901 1998 1536 1583 
L 262 147 
L 262 0 
L 2515 0 
L 2669 990 
z
" transform="scale(0.015625)"/>
       </defs>
       <use xlink:href="#CMSY10-0" transform="scale(0.996264)"/>
       <use xlink:href="#CMR17-32" transform="translate(77.487468 0) scale(0.996264)"/>
      </g>
     </g>
    </g>
    <g id="xtick_4">
     <g id="line2d_4">
      <path d="M 381.290144 384.48 
L 381.290144 51.84 
" clip-path="url(#p8e73f41e43)" style="fill: none; stroke: #cccccc; stroke-linecap: round"/>
     </g>
     <g id="text_4">
      <!-- $\mathdefault{0}$ -->
      <g style="fill: #262626" transform="translate(375.007703 413.005867) scale(0.275 -0.275)">
       <defs>
        <path id="CMR17-30" d="M 2688 2038 
C 2688 2430 2682 3099 2413 3613 
C 2176 4063 1798 4224 1466 4224 
C 1158 4224 768 4082 525 3620 
C 269 3137 243 2539 243 2038 
C 243 1671 250 1112 448 623 
C 723 -39 1216 -128 1466 -128 
C 1760 -128 2208 -7 2470 604 
C 2662 1048 2688 1568 2688 2038 
z
M 1466 -26 
C 1056 -26 813 328 723 816 
C 653 1196 653 1749 653 2109 
C 653 2604 653 3015 736 3407 
C 858 3954 1216 4121 1466 4121 
C 1728 4121 2067 3947 2189 3420 
C 2272 3054 2278 2623 2278 2109 
C 2278 1691 2278 1176 2202 797 
C 2067 96 1690 -26 1466 -26 
z
" transform="scale(0.015625)"/>
       </defs>
       <use xlink:href="#CMR17-30" transform="scale(0.996264)"/>
      </g>
     </g>
    </g>
    <g id="xtick_5">
     <g id="line2d_5">
      <path d="M 477.063878 384.48 
L 477.063878 51.84 
" clip-path="url(#p8e73f41e43)" style="fill: none; stroke: #cccccc; stroke-linecap: round"/>
     </g>
     <g id="text_5">
      <!-- $\mathdefault{2}$ -->
      <g style="fill: #262626" transform="translate(470.781438 413.005867) scale(0.275 -0.275)">
       <use xlink:href="#CMR17-32" transform="scale(0.996264)"/>
      </g>
     </g>
    </g>
    <g id="xtick_6">
     <g id="line2d_6">
      <path d="M 572.837613 384.48 
L 572.837613 51.84 
" clip-path="url(#p8e73f41e43)" style="fill: none; stroke: #cccccc; stroke-linecap: round"/>
     </g>
     <g id="text_6">
      <!-- $\mathdefault{4}$ -->
      <g style="fill: #262626" transform="translate(566.555172 413.005867) scale(0.275 -0.275)">
       <use xlink:href="#CMR17-34" transform="scale(0.996264)"/>
      </g>
     </g>
    </g>
    <g id="text_7">
     <!-- Deviation from ens. mean -->
     <g style="fill: #262626" transform="translate(213.222388 443.090362) scale(0.3 -0.3)">
      <defs>
       <path id="CMR17-44" d="M 333 4352 
L 333 4185 
C 774 4185 845 4185 845 3898 
L 845 453 
C 845 166 774 166 333 166 
L 333 0 
L 2368 0 
C 3398 0 4224 943 4224 2140 
C 4224 3344 3411 4352 2368 4352 
L 333 4352 
z
M 1523 166 
C 1267 166 1254 198 1254 414 
L 1254 3936 
C 1254 4153 1267 4185 1523 4185 
L 2240 4185 
C 2771 4185 3750 3873 3750 2140 
C 3750 1242 3488 879 3366 707 
C 3213 510 2848 166 2240 166 
L 1523 166 
z
" transform="scale(0.015625)"/>
       <path id="CMR17-65" d="M 2438 1503 
C 2464 1529 2464 1542 2464 1606 
C 2464 2251 2118 2816 1389 2816 
C 710 2816 173 2175 173 1394 
C 173 554 781 -64 1459 -64 
C 2176 -64 2458 619 2458 755 
C 2458 800 2419 800 2406 800 
C 2362 800 2355 787 2330 709 
C 2189 270 1837 51 1504 51 
C 1229 51 954 206 781 490 
C 582 819 582 1200 582 1503 
L 2438 1503 
z
M 589 1600 
C 634 2511 1126 2713 1382 2713 
C 1818 2713 2112 2308 2118 1600 
L 589 1600 
z
" transform="scale(0.015625)"/>
       <path id="CMR17-76" d="M 2502 2173 
C 2560 2315 2662 2572 3034 2585 
L 3034 2752 
C 2912 2745 2752 2739 2630 2739 
C 2496 2739 2285 2739 2157 2752 
L 2157 2585 
C 2317 2572 2406 2495 2406 2328 
C 2406 2270 2406 2257 2368 2167 
L 1664 379 
L 902 2308 
C 864 2392 864 2405 864 2431 
C 864 2585 1075 2585 1171 2585 
L 1171 2752 
C 1018 2739 736 2739 576 2739 
C 403 2739 205 2739 64 2752 
L 64 2585 
C 307 2585 442 2585 518 2386 
L 1446 44 
C 1485 -52 1491 -64 1549 -64 
C 1606 -64 1613 -52 1651 44 
L 2502 2173 
z
" transform="scale(0.015625)"/>
       <path id="CMR17-69" d="M 992 3961 
C 992 4102 877 4224 730 4224 
C 589 4224 467 4108 467 3961 
C 467 3820 582 3699 730 3699 
C 870 3699 992 3814 992 3961 
z
M 243 2745 
L 243 2579 
C 602 2579 653 2540 653 2231 
L 653 443 
C 653 198 627 166 218 166 
L 218 0 
C 371 12 646 12 806 12 
C 960 12 1222 12 1370 0 
L 1370 166 
C 992 166 979 205 979 436 
L 979 2816 
L 243 2745 
z
" transform="scale(0.015625)"/>
       <path id="CMR17-61" d="M 2304 1656 
C 2304 2048 2304 2275 2035 2534 
C 1798 2751 1523 2816 1306 2816 
C 800 2816 435 2408 435 1977 
C 435 1740 627 1728 666 1728 
C 749 1728 896 1779 896 1958 
C 896 2118 774 2188 666 2188 
C 640 2188 608 2182 589 2176 
C 723 2594 1069 2713 1293 2713 
C 1613 2713 1965 2421 1965 1875 
L 1965 1632 
C 1587 1619 1133 1568 774 1373 
C 371 1147 256 822 256 576 
C 256 77 832 -64 1171 -64 
C 1523 -64 1850 135 1990 505 
C 2003 219 2182 -39 2464 -39 
C 2598 -39 2938 51 2938 563 
L 2938 926 
L 2822 926 
L 2822 557 
C 2822 161 2650 109 2566 109 
C 2304 109 2304 446 2304 732 
L 2304 1656 
z
M 1965 887 
C 1965 323 1568 38 1216 38 
C 896 38 646 278 646 576 
C 646 771 730 1114 1101 1322 
C 1408 1497 1760 1523 1965 1536 
L 1965 887 
z
" transform="scale(0.015625)"/>
       <path id="CMR17-74" d="M 966 2585 
L 1862 2585 
L 1862 2752 
L 966 2752 
L 966 3968 
L 851 3968 
C 838 3292 614 2700 70 2687 
L 70 2585 
L 627 2585 
L 627 778 
C 627 655 627 -64 1370 -64 
C 1747 -64 1965 308 1965 784 
L 1965 1151 
L 1850 1151 
L 1850 790 
C 1850 347 1677 51 1408 51 
C 1222 51 966 179 966 765 
L 966 2585 
z
" transform="scale(0.015625)"/>
       <path id="CMR17-6f" d="M 2758 1356 
C 2758 2176 2163 2816 1466 2816 
C 768 2816 173 2176 173 1356 
C 173 550 768 -64 1466 -64 
C 2163 -64 2758 550 2758 1356 
z
M 1466 51 
C 1165 51 909 230 762 480 
C 602 768 582 1126 582 1408 
C 582 1676 595 2009 762 2297 
C 890 2508 1139 2713 1466 2713 
C 1754 2713 1997 2553 2150 2329 
C 2349 2028 2349 1606 2349 1408 
C 2349 1158 2336 774 2163 467 
C 1984 172 1709 51 1466 51 
z
" transform="scale(0.015625)"/>
       <path id="CMR17-6e" d="M 2656 1954 
C 2656 2282 2592 2816 1837 2816 
C 1331 2816 1069 2424 973 2166 
L 966 2166 
L 966 2816 
L 211 2745 
L 211 2578 
C 589 2578 646 2540 646 2231 
L 646 443 
C 646 198 621 166 211 166 
L 211 0 
C 365 12 646 12 813 12 
C 979 12 1267 12 1421 0 
L 1421 166 
C 1011 166 986 192 986 443 
L 986 1678 
C 986 2269 1344 2713 1792 2713 
C 2266 2713 2317 2289 2317 1980 
L 2317 443 
C 2317 198 2291 166 1882 166 
L 1882 0 
C 2035 12 2317 12 2483 12 
C 2650 12 2938 12 3091 0 
L 3091 166 
C 2682 166 2656 192 2656 443 
L 2656 1954 
z
" transform="scale(0.015625)"/>
       <path id="CMR17-66" d="M 979 2585 
L 1709 2585 
L 1709 2752 
L 966 2752 
L 966 3539 
C 966 4076 1235 4377 1510 4377 
C 1594 4377 1690 4363 1754 4339 
C 1702 4326 1568 4281 1568 4121 
C 1568 3955 1696 3904 1786 3904 
C 1875 3904 2003 3955 2003 4121 
C 2003 4353 1773 4480 1517 4480 
C 1152 4480 653 4211 653 3526 
L 653 2752 
L 141 2752 
L 141 2585 
L 653 2585 
L 653 441 
C 653 198 627 166 218 166 
L 218 0 
C 371 12 666 12 832 12 
C 1018 12 1344 12 1517 0 
L 1517 166 
C 1056 166 979 166 979 454 
L 979 2585 
z
" transform="scale(0.015625)"/>
       <path id="CMR17-72" d="M 960 1517 
C 960 2134 1222 2713 1702 2713 
C 1747 2713 1792 2707 1837 2687 
C 1837 2687 1696 2642 1696 2475 
C 1696 2321 1818 2257 1914 2257 
C 1990 2257 2131 2302 2131 2482 
C 2131 2687 1926 2816 1709 2816 
C 1222 2816 1011 2340 947 2115 
L 941 2115 
L 941 2816 
L 198 2745 
L 198 2578 
C 576 2578 634 2540 634 2231 
L 634 443 
C 634 198 608 166 198 166 
L 198 0 
C 352 12 646 12 813 12 
C 998 12 1325 12 1498 0 
L 1498 166 
C 1037 166 960 166 960 455 
L 960 1517 
z
" transform="scale(0.015625)"/>
       <path id="CMR17-6d" d="M 4326 1954 
C 4326 2276 4269 2816 3507 2816 
C 3072 2816 2771 2520 2656 2173 
L 2650 2173 
C 2573 2700 2195 2816 1837 2816 
C 1331 2816 1069 2424 973 2166 
L 966 2166 
L 966 2816 
L 211 2745 
L 211 2578 
C 589 2578 646 2540 646 2231 
L 646 443 
C 646 198 621 166 211 166 
L 211 0 
C 365 12 646 12 813 12 
C 979 12 1267 12 1421 0 
L 1421 166 
C 1011 166 986 192 986 443 
L 986 1678 
C 986 2269 1344 2713 1792 2713 
C 2266 2713 2317 2289 2317 1980 
L 2317 443 
C 2317 198 2291 166 1882 166 
L 1882 0 
C 2035 12 2317 12 2483 12 
C 2650 12 2938 12 3091 0 
L 3091 166 
C 2682 166 2656 192 2656 443 
L 2656 1678 
C 2656 2269 3014 2713 3462 2713 
C 3936 2713 3987 2289 3987 1980 
L 3987 443 
C 3987 198 3962 166 3552 166 
L 3552 0 
C 3706 12 3987 12 4154 12 
C 4320 12 4608 12 4762 0 
L 4762 166 
C 4352 166 4326 192 4326 443 
L 4326 1954 
z
" transform="scale(0.015625)"/>
       <path id="CMR17-73" d="M 1978 2688 
C 1978 2803 1971 2809 1933 2809 
C 1907 2809 1901 2803 1824 2707 
C 1805 2681 1747 2617 1728 2592 
C 1523 2809 1235 2816 1126 2816 
C 416 2816 160 2444 160 2073 
C 160 1497 813 1363 998 1324 
C 1402 1241 1542 1216 1677 1100 
C 1760 1024 1901 883 1901 652 
C 1901 384 1747 38 1158 38 
C 602 38 403 460 288 1024 
C 269 1113 269 1120 218 1120 
C 166 1120 160 1113 160 985 
L 160 64 
C 160 -52 166 -58 205 -58 
C 237 -58 243 -52 275 0 
C 314 57 410 211 448 275 
C 576 102 800 -64 1158 -64 
C 1792 -64 2131 281 2131 780 
C 2131 1107 1958 1280 1875 1356 
C 1683 1555 1459 1600 1190 1651 
C 838 1728 390 1817 390 2208 
C 390 2374 480 2726 1126 2726 
C 1811 2726 1850 2086 1862 1881 
C 1869 1849 1901 1843 1920 1843 
C 1978 1843 1978 1862 1978 1971 
L 1978 2688 
z
" transform="scale(0.015625)"/>
       <path id="CMR17-2e" d="M 1062 262 
C 1062 422 934 524 800 524 
C 672 524 538 422 538 262 
C 538 102 666 0 800 0 
C 928 0 1062 102 1062 262 
z
" transform="scale(0.015625)"/>
      </defs>
      <use xlink:href="#CMR17-44" transform="scale(0.996264)"/>
      <use xlink:href="#CMR17-65" transform="translate(70.393556 0) scale(0.996264)"/>
      <use xlink:href="#CMR17-76" transform="translate(110.879216 0) scale(0.996264)"/>
      <use xlink:href="#CMR17-69" transform="translate(159.172132 0) scale(0.996264)"/>
      <use xlink:href="#CMR17-61" transform="translate(184.043191 0) scale(0.996264)"/>
      <use xlink:href="#CMR17-74" transform="translate(229.733668 0) scale(0.996264)"/>
      <use xlink:href="#CMR17-69" transform="translate(265.014436 0) scale(0.996264)"/>
      <use xlink:href="#CMR17-6f" transform="translate(289.885494 0) scale(0.996264)"/>
      <use xlink:href="#CMR17-6e" transform="translate(335.575971 0) scale(0.996264)"/>
      <use xlink:href="#CMR17-66" transform="translate(416.547307 0) scale(0.996264)"/>
      <use xlink:href="#CMR17-72" transform="translate(444.02082 0) scale(0.996264)"/>
      <use xlink:href="#CMR17-6f" transform="translate(479.301588 0) scale(0.996264)"/>
      <use xlink:href="#CMR17-6d" transform="translate(524.992065 0) scale(0.996264)"/>
      <use xlink:href="#CMR17-65" transform="translate(631.987621 0) scale(0.996264)"/>
      <use xlink:href="#CMR17-6e" transform="translate(672.473281 0) scale(0.996264)"/>
      <use xlink:href="#CMR17-73" transform="translate(723.368651 0) scale(0.996264)"/>
      <use xlink:href="#CMR17-2e" transform="translate(759.169989 0) scale(0.996264)"/>
      <use xlink:href="#CMR17-6d" transform="translate(824.526708 0) scale(0.996264)"/>
      <use xlink:href="#CMR17-65" transform="translate(901.446298 0) scale(0.996264)"/>
      <use xlink:href="#CMR17-61" transform="translate(941.931958 0) scale(0.996264)"/>
      <use xlink:href="#CMR17-6e" transform="translate(987.622435 0) scale(0.996264)"/>
     </g>
    </g>
   </g>
   <g id="matplotlib.axis_2">
    <g id="ytick_1">
     <g id="line2d_7">
      <path d="M 90 369.36 
L 648 369.36 
" clip-path="url(#p8e73f41e43)" style="fill: none; stroke: #cccccc; stroke-linecap: round"/>
     </g>
     <g id="text_8">
      <!-- $\mathdefault{0}$ -->
      <g style="fill: #262626" transform="translate(67.935119 378.872933) scale(0.275 -0.275)">
       <use xlink:href="#CMR17-30" transform="scale(0.996264)"/>
      </g>
     </g>
    </g>
    <g id="ytick_2">
     <g id="line2d_8">
      <path d="M 90 288.923772 
L 648 288.923772 
" clip-path="url(#p8e73f41e43)" style="fill: none; stroke: #cccccc; stroke-linecap: round"/>
     </g>
     <g id="text_9">
      <!-- $\mathdefault{2000}$ -->
      <g style="fill: #262626" transform="translate(30.240475 298.436705) scale(0.275 -0.275)">
       <use xlink:href="#CMR17-32" transform="scale(0.996264)"/>
       <use xlink:href="#CMR17-30" transform="translate(45.690477 0) scale(0.996264)"/>
       <use xlink:href="#CMR17-30" transform="translate(91.380954 0) scale(0.996264)"/>
       <use xlink:href="#CMR17-30" transform="translate(137.071431 0) scale(0.996264)"/>
      </g>
     </g>
    </g>
    <g id="ytick_3">
     <g id="line2d_9">
      <path d="M 90 208.487544 
L 648 208.487544 
" clip-path="url(#p8e73f41e43)" style="fill: none; stroke: #cccccc; stroke-linecap: round"/>
     </g>
     <g id="text_10">
      <!-- $\mathdefault{4000}$ -->
      <g style="fill: #262626" transform="translate(30.240475 218.000477) scale(0.275 -0.275)">
       <use xlink:href="#CMR17-34" transform="scale(0.996264)"/>
       <use xlink:href="#CMR17-30" transform="translate(45.690477 0) scale(0.996264)"/>
       <use xlink:href="#CMR17-30" transform="translate(91.380954 0) scale(0.996264)"/>
       <use xlink:href="#CMR17-30" transform="translate(137.071431 0) scale(0.996264)"/>
      </g>
     </g>
    </g>
    <g id="ytick_4">
     <g id="line2d_10">
      <path d="M 90 128.051315 
L 648 128.051315 
" clip-path="url(#p8e73f41e43)" style="fill: none; stroke: #cccccc; stroke-linecap: round"/>
     </g>
     <g id="text_11">
      <!-- $\mathdefault{6000}$ -->
      <g style="fill: #262626" transform="translate(30.240475 137.564249) scale(0.275 -0.275)">
       <use xlink:href="#CMR17-36" transform="scale(0.996264)"/>
       <use xlink:href="#CMR17-30" transform="translate(45.690477 0) scale(0.996264)"/>
       <use xlink:href="#CMR17-30" transform="translate(91.380954 0) scale(0.996264)"/>
       <use xlink:href="#CMR17-30" transform="translate(137.071431 0) scale(0.996264)"/>
      </g>
     </g>
    </g>
    <g id="text_12">
     <!-- Count -->
     <g style="fill: #262626" transform="translate(20.427025 255.160401) rotate(-90) scale(0.3 -0.3)">
      <defs>
       <path id="CMR17-43" d="M 3974 4351 
C 3974 4467 3968 4473 3930 4473 
C 3904 4473 3898 4467 3853 4390 
L 3571 3849 
C 3258 4249 2874 4480 2381 4480 
C 1286 4480 294 3507 294 2179 
C 294 837 1286 -128 2387 -128 
C 3366 -128 3974 741 3974 1482 
C 3974 1547 3974 1573 3917 1573 
C 3866 1573 3866 1553 3859 1495 
C 3808 592 3168 38 2477 38 
C 1824 38 781 502 781 2179 
C 781 3862 1843 4313 2464 4313 
C 3187 4313 3712 3681 3834 2785 
C 3846 2707 3846 2695 3904 2695 
C 3974 2695 3974 2707 3974 2824 
L 3974 4351 
z
" transform="scale(0.015625)"/>
       <path id="CMR17-75" d="M 1882 2745 
L 1882 2579 
C 2259 2579 2317 2540 2317 2229 
L 2317 1053 
C 2317 510 2029 38 1555 38 
C 1030 38 986 355 986 691 
L 986 2816 
L 211 2745 
L 211 2579 
C 467 2579 640 2579 646 2320 
L 646 1079 
C 646 646 646 368 813 187 
C 896 103 1056 -64 1517 -64 
C 2061 -64 2272 400 2323 536 
L 2330 536 
L 2330 -64 
L 3091 -13 
L 3091 154 
C 2714 154 2656 193 2656 503 
L 2656 2816 
L 1882 2745 
z
" transform="scale(0.015625)"/>
      </defs>
      <use xlink:href="#CMR17-43" transform="scale(0.996264)"/>
      <use xlink:href="#CMR17-6f" transform="translate(66.509881 0) scale(0.996264)"/>
      <use xlink:href="#CMR17-75" transform="translate(112.200358 0) scale(0.996264)"/>
      <use xlink:href="#CMR17-6e" transform="translate(163.095727 0) scale(0.996264)"/>
      <use xlink:href="#CMR17-74" transform="translate(211.388643 0) scale(0.996264)"/>
     </g>
    </g>
   </g>
   <g id="line2d_11">
    <path d="M 115.363636 369.279564 
L 119.927093 369.36 
L 124.490551 369.319782 
L 129.054008 369.36 
L 133.617465 369.319782 
L 138.180922 369.36 
L 142.744379 369.36 
L 147.307836 369.36 
L 151.871293 369.36 
L 156.434751 369.36 
L 160.998208 369.239346 
L 165.561665 369.239346 
L 170.125122 369.279564 
L 174.688579 369.239346 
L 179.252036 369.279564 
L 183.815493 369.158909 
L 188.37895 369.279564 
L 192.942408 369.158909 
L 197.505865 369.279564 
L 202.069322 369.158909 
L 206.632779 368.957819 
L 211.196236 369.078473 
L 215.759693 369.078473 
L 220.32315 368.796946 
L 224.886608 369.078473 
L 229.450065 369.199128 
L 234.013522 368.877383 
L 238.576979 368.917601 
L 243.140436 369.078473 
L 247.703893 368.837165 
L 252.26735 368.837165 
L 256.830808 368.796946 
L 261.394265 368.756728 
L 265.957722 368.837165 
L 270.521179 368.51542 
L 275.084636 368.394765 
L 279.648093 368.71651 
L 284.21155 368.796946 
L 288.775007 368.07302 
L 293.338465 368.314329 
L 297.901922 367.791494 
L 302.465379 367.87193 
L 307.028836 367.831712 
L 311.592293 367.027349 
L 316.15575 366.303423 
L 320.719207 345.912839 
L 325.282665 357.495656 
L 329.846122 354.760825 
L 334.409579 355.28366 
L 338.973036 356.12824 
L 343.536493 355.323878 
L 348.09995 354.680388 
L 352.663407 355.685841 
L 357.226864 355.645623 
L 361.790322 355.484751 
L 366.353779 356.691294 
L 370.917236 355.28366 
L 375.480693 356.088022 
L 380.04415 354.599952 
L 384.607607 356.047804 
L 389.171064 357.535874 
L 393.734522 357.656529 
L 398.297979 357.736965 
L 402.861436 357.41522 
L 407.424893 358.943508 
L 411.98835 359.54678 
L 416.551807 360.471797 
L 421.115264 360.230488 
L 425.678721 361.839213 
L 430.242179 361.396813 
L 434.805636 362.522921 
L 439.369093 362.724011 
L 443.93255 362.362048 
L 448.496007 364.734917 
L 453.059464 363.970773 
L 457.622921 364.292518 
L 462.186379 365.780588 
L 466.749836 366.182769 
L 471.313293 366.38386 
L 475.87675 367.148004 
L 480.440207 366.786041 
L 485.003664 367.107786 
L 489.567121 367.630621 
L 494.130578 367.992584 
L 498.694036 368.032802 
L 503.257493 368.354547 
L 507.82095 368.555638 
L 512.384407 368.475201 
L 516.947864 368.51542 
L 521.511321 368.877383 
L 526.074778 368.837165 
L 530.638236 368.837165 
L 535.201693 368.796946 
L 539.76515 369.199128 
L 544.328607 369.199128 
L 548.892064 369.158909 
L 553.455521 369.279564 
L 558.018978 369.319782 
L 562.582435 369.199128 
L 567.145893 369.158909 
" clip-path="url(#p8e73f41e43)" style="fill: none; stroke: #4c72b0; stroke-width: 3; stroke-linecap: round"/>
   </g>
   <g id="line2d_12">
    <path d="M 177.829022 369.319782 
L 182.275594 369.239346 
L 186.722166 369.279564 
L 191.168738 369.319782 
L 195.615309 369.36 
L 200.061881 369.36 
L 204.508453 369.239346 
L 208.955025 369.36 
L 213.401597 369.279564 
L 217.848168 369.199128 
L 222.29474 369.319782 
L 226.741312 369.118691 
L 231.187884 369.319782 
L 235.634456 369.158909 
L 240.081027 369.319782 
L 244.527599 369.199128 
L 248.974171 369.078473 
L 253.420743 369.118691 
L 257.867314 368.877383 
L 262.313886 369.118691 
L 266.760458 369.038255 
L 271.20703 368.917601 
L 275.653602 368.957819 
L 280.100173 368.998037 
L 284.546745 369.118691 
L 288.993317 368.957819 
L 293.439889 368.917601 
L 297.886461 368.837165 
L 302.333032 368.917601 
L 306.779604 368.917601 
L 311.226176 368.877383 
L 315.672748 368.475201 
L 320.119319 368.998037 
L 324.565891 368.71651 
L 329.012463 368.676292 
L 333.459035 368.877383 
L 337.905607 368.676292 
L 342.352178 368.595856 
L 346.79875 368.51542 
L 351.245322 368.274111 
L 355.691894 367.952366 
L 360.138466 367.509967 
L 364.585037 105.690044 
L 369.031609 357.616311 
L 373.478181 358.863072 
L 377.924753 361.195723 
L 382.371325 362.160958 
L 386.817896 363.246847 
L 391.264468 364.332736 
L 395.71104 363.890336 
L 400.157612 364.694699 
L 404.604183 365.94146 
L 409.050755 366.062115 
L 413.497327 365.901242 
L 417.943899 366.424078 
L 422.390471 366.303423 
L 426.837042 365.901242 
L 431.283614 366.021897 
L 435.730186 366.665386 
L 440.176758 366.625168 
L 444.62333 366.786041 
L 449.069901 367.268658 
L 453.516473 366.866477 
L 457.963045 366.906695 
L 462.409617 367.107786 
L 466.856188 367.429531 
L 471.30276 367.067567 
L 475.749332 367.509967 
L 480.195904 367.751275 
L 484.642476 367.791494 
L 489.089047 368.113238 
L 493.535619 367.87193 
L 497.982191 368.354547 
L 502.428763 368.354547 
L 506.875335 368.153457 
L 511.321906 368.51542 
L 515.768478 368.354547 
L 520.21505 368.153457 
L 524.661622 368.676292 
L 529.108194 368.796946 
L 533.554765 368.877383 
L 538.001337 368.877383 
L 542.447909 368.957819 
L 546.894481 369.118691 
L 551.341052 369.078473 
L 555.787624 369.158909 
L 560.234196 369.239346 
L 564.680768 369.239346 
L 569.12734 369.279564 
L 573.573911 369.199128 
L 578.020483 369.319782 
L 582.467055 369.279564 
L 586.913627 369.239346 
L 591.360199 369.319782 
L 595.80677 369.319782 
L 600.253342 369.279564 
L 604.699914 369.319782 
L 609.146486 369.36 
L 613.593057 369.36 
L 618.039629 369.319782 
" clip-path="url(#p8e73f41e43)" style="fill: none; stroke: #dd8452; stroke-width: 3; stroke-linecap: round"/>
   </g>
   <g id="line2d_13">
    <path d="M 174.04546 369.319782 
L 178.576681 369.36 
L 183.107902 369.36 
L 187.639124 369.36 
L 192.170345 369.36 
L 196.701566 369.319782 
L 201.232787 369.319782 
L 205.764009 369.36 
L 210.29523 369.319782 
L 214.826451 369.279564 
L 219.357672 369.319782 
L 223.888894 369.36 
L 228.420115 369.319782 
L 232.951336 369.279564 
L 237.482557 369.319782 
L 242.013779 369.279564 
L 246.545 369.239346 
L 251.076221 369.199128 
L 255.607442 369.239346 
L 260.138664 369.239346 
L 264.669885 369.279564 
L 269.201106 369.118691 
L 273.732327 369.078473 
L 278.263549 369.199128 
L 282.79477 369.199128 
L 287.325991 369.038255 
L 291.857212 368.917601 
L 296.388434 368.71651 
L 300.919655 369.038255 
L 305.450876 369.118691 
L 309.982097 369.158909 
L 314.513319 368.837165 
L 319.04454 368.957819 
L 323.575761 368.957819 
L 328.106982 368.917601 
L 332.638204 369.078473 
L 337.169425 368.71651 
L 341.700646 368.756728 
L 346.231867 368.71651 
L 350.763089 368.796946 
L 355.29431 368.636074 
L 359.825531 368.475201 
L 364.356752 368.274111 
L 368.887974 66.96 
L 373.419195 356.892385 
L 377.950416 360.270706 
L 382.481637 362.764229 
L 387.012859 364.533826 
L 391.54408 364.895789 
L 396.075301 366.222987 
L 400.606522 366.906695 
L 405.137744 367.188222 
L 409.668965 366.424078 
L 414.200186 366.946913 
L 418.731407 367.389312 
L 423.262629 367.509967 
L 427.79385 367.630621 
L 432.325071 367.389312 
L 436.856292 366.946913 
L 441.387514 367.87193 
L 445.918735 367.590403 
L 450.449956 367.992584 
L 454.981177 367.87193 
L 459.512399 367.590403 
L 464.04362 367.831712 
L 468.574841 367.992584 
L 473.106062 367.992584 
L 477.637284 367.751275 
L 482.168505 367.711057 
L 486.699726 367.992584 
L 491.230947 368.113238 
L 495.762169 367.952366 
L 500.29339 368.314329 
L 504.824611 368.51542 
L 509.355832 368.555638 
L 513.887054 368.595856 
L 518.418275 368.71651 
L 522.949496 368.676292 
L 527.480717 368.756728 
L 532.011939 368.917601 
L 536.54316 368.796946 
L 541.074381 368.877383 
L 545.605602 369.038255 
L 550.136824 369.118691 
L 554.668045 369.038255 
L 559.199266 369.239346 
L 563.730487 369.239346 
L 568.261709 369.36 
L 572.79293 369.078473 
L 577.324151 369.319782 
L 581.855372 369.319782 
L 586.386594 369.319782 
L 590.917815 369.36 
L 595.449036 369.36 
L 599.980257 369.36 
L 604.511479 369.36 
L 609.0427 369.36 
L 613.573921 369.319782 
L 618.105142 369.319782 
L 622.636364 369.319782 
" clip-path="url(#p8e73f41e43)" style="fill: none; stroke: #55a868; stroke-width: 3; stroke-linecap: round"/>
   </g>
   <g id="patch_3">
    <path d="M 90 384.48 
L 90 51.84 
" style="fill: none; stroke: #ffffff; stroke-width: 1.25; stroke-linejoin: miter; stroke-linecap: square"/>
   </g>
   <g id="patch_4">
    <path d="M 648 384.48 
L 648 51.84 
" style="fill: none; stroke: #ffffff; stroke-width: 1.25; stroke-linejoin: miter; stroke-linecap: square"/>
   </g>
   <g id="patch_5">
    <path d="M 90 384.48 
L 648 384.48 
" style="fill: none; stroke: #ffffff; stroke-width: 1.25; stroke-linejoin: miter; stroke-linecap: square"/>
   </g>
   <g id="patch_6">
    <path d="M 90 51.84 
L 648 51.84 
" style="fill: none; stroke: #ffffff; stroke-width: 1.25; stroke-linejoin: miter; stroke-linecap: square"/>
   </g>
   <g id="text_13">
    <!-- Histogram of Amplitude Deviations -->
    <g style="fill: #262626" transform="translate(155.377789 45.84) scale(0.3 -0.3)">
     <defs>
      <path id="CMR17-48" d="M 3590 3898 
C 3590 4185 3661 4185 4102 4185 
L 4102 4352 
C 3917 4339 3578 4339 3379 4339 
C 3181 4339 2842 4339 2656 4352 
L 2656 4185 
C 3098 4185 3168 4185 3168 3898 
L 3168 2342 
L 1261 2342 
L 1261 3898 
C 1261 4185 1331 4185 1773 4185 
L 1773 4352 
C 1587 4339 1248 4339 1050 4339 
C 851 4339 512 4339 326 4352 
L 326 4185 
C 768 4185 838 4185 838 3898 
L 838 452 
C 838 166 768 166 326 166 
L 326 0 
C 512 12 851 12 1050 12 
C 1248 12 1587 12 1773 0 
L 1773 166 
C 1331 166 1261 166 1261 452 
L 1261 2176 
L 3168 2176 
L 3168 452 
C 3168 166 3098 166 2656 166 
L 2656 0 
C 2842 12 3181 12 3379 12 
C 3578 12 3917 12 4102 0 
L 4102 166 
C 3661 166 3590 166 3590 452 
L 3590 3898 
z
" transform="scale(0.015625)"/>
      <path id="CMR17-67" d="M 710 1165 
C 832 1068 1043 960 1299 960 
C 1805 960 2240 1359 2240 1895 
C 2240 2063 2189 2321 1997 2521 
C 2176 2713 2438 2777 2586 2777 
C 2611 2777 2650 2777 2682 2758 
C 2656 2751 2598 2726 2598 2623 
C 2598 2540 2656 2483 2739 2483 
C 2835 2483 2886 2547 2886 2630 
C 2886 2751 2790 2880 2586 2880 
C 2330 2880 2106 2758 1926 2591 
C 1734 2764 1504 2828 1299 2828 
C 794 2828 358 2431 358 1895 
C 358 1527 570 1294 634 1230 
C 442 1004 442 742 442 710 
C 442 544 506 300 723 166 
C 390 82 128 -184 128 -517 
C 128 -996 736 -1344 1466 -1344 
C 2170 -1344 2803 -1009 2803 -510 
C 2803 384 1856 384 1363 384 
C 1216 384 954 384 922 390 
C 723 422 589 601 589 825 
C 589 883 589 1024 710 1165 
z
M 1299 1068 
C 736 1068 736 1766 736 1895 
C 736 2024 736 2719 1299 2719 
C 1862 2719 1862 2024 1862 1895 
C 1862 1766 1862 1068 1299 1068 
z
M 1466 -1236 
C 826 -1236 384 -883 384 -517 
C 384 -311 493 -118 634 -11 
C 794 102 858 102 1293 102 
C 1818 102 2547 102 2547 -517 
C 2547 -883 2106 -1236 1466 -1236 
z
" transform="scale(0.015625)"/>
      <path id="CMR17-41" d="M 2323 4441 
C 2291 4524 2278 4544 2214 4544 
C 2150 4544 2138 4524 2106 4441 
L 749 580 
C 627 236 371 166 147 166 
L 147 0 
C 262 12 518 12 640 12 
C 800 12 1056 12 1210 0 
L 1210 166 
C 909 179 864 382 864 459 
C 864 516 877 548 890 586 
L 1229 1536 
L 2906 1536 
L 3290 453 
C 3322 376 3322 363 3322 338 
C 3322 166 3046 166 2925 166 
L 2925 0 
C 3110 12 3443 12 3642 12 
C 3808 12 4128 12 4282 0 
L 4282 166 
C 3942 166 3827 166 3744 402 
L 2323 4441 
z
M 2067 3924 
L 2848 1702 
L 1286 1702 
L 2067 3924 
z
" transform="scale(0.015625)"/>
      <path id="CMR17-70" d="M 1408 -1114 
C 998 -1114 973 -1088 973 -834 
L 973 380 
C 1158 109 1427 -64 1766 -64 
C 2406 -64 3053 503 3053 1382 
C 3053 2196 2496 2816 1837 2816 
C 1453 2816 1139 2603 960 2345 
L 960 2816 
L 198 2745 
L 198 2577 
C 576 2577 634 2539 634 2228 
L 634 -834 
C 634 -1081 608 -1114 198 -1114 
L 198 -1280 
C 352 -1268 634 -1268 800 -1268 
C 966 -1268 1254 -1268 1408 -1280 
L 1408 -1114 
z
M 973 2015 
C 973 2106 973 2241 1222 2481 
C 1254 2506 1472 2700 1792 2700 
C 2259 2700 2643 2112 2643 1376 
C 2643 639 2234 38 1728 38 
C 1498 38 1248 148 1056 451 
C 973 594 973 632 973 736 
L 973 2015 
z
" transform="scale(0.015625)"/>
      <path id="CMR17-6c" d="M 979 4416 
L 218 4345 
L 218 4179 
C 595 4179 653 4141 653 3835 
L 653 439 
C 653 198 627 166 218 166 
L 218 0 
C 371 12 653 12 813 12 
C 979 12 1261 12 1414 0 
L 1414 166 
C 1005 166 979 191 979 439 
L 979 4416 
z
" transform="scale(0.015625)"/>
      <path id="CMR17-64" d="M 1869 4345 
L 1869 4179 
C 2246 4179 2304 4141 2304 3843 
L 2304 2371 
C 2278 2403 2016 2816 1498 2816 
C 845 2816 211 2228 211 1376 
C 211 529 806 -64 1434 -64 
C 1978 -64 2259 361 2291 406 
L 2291 -64 
L 3066 -13 
L 3066 154 
C 2688 154 2630 193 2630 503 
L 2630 4416 
L 1869 4345 
z
M 2291 762 
C 2291 568 2176 393 2029 264 
C 1811 70 1594 38 1472 38 
C 1286 38 621 135 621 1369 
C 621 2636 1363 2713 1530 2713 
C 1824 2713 2061 2545 2208 2313 
C 2291 2177 2291 2157 2291 2041 
L 2291 762 
z
" transform="scale(0.015625)"/>
     </defs>
     <use xlink:href="#CMR17-48" transform="scale(0.996264)"/>
     <use xlink:href="#CMR17-69" transform="translate(69.07243 0) scale(0.996264)"/>
     <use xlink:href="#CMR17-73" transform="translate(93.943488 0) scale(0.996264)"/>
     <use xlink:href="#CMR17-74" transform="translate(129.744826 0) scale(0.996264)"/>
     <use xlink:href="#CMR17-6f" transform="translate(165.025594 0) scale(0.996264)"/>
     <use xlink:href="#CMR17-67" transform="translate(210.716071 0) scale(0.996264)"/>
     <use xlink:href="#CMR17-72" transform="translate(256.406548 0) scale(0.996264)"/>
     <use xlink:href="#CMR17-61" transform="translate(291.687316 0) scale(0.996264)"/>
     <use xlink:href="#CMR17-6d" transform="translate(337.377793 0) scale(0.996264)"/>
     <use xlink:href="#CMR17-6f" transform="translate(444.373349 0) scale(0.996264)"/>
     <use xlink:href="#CMR17-66" transform="translate(490.063826 0) scale(0.996264)"/>
     <use xlink:href="#CMR17-41" transform="translate(547.613305 0) scale(0.996264)"/>
     <use xlink:href="#CMR17-6d" transform="translate(616.685735 0) scale(0.996264)"/>
     <use xlink:href="#CMR17-70" transform="translate(693.605325 0) scale(0.996264)"/>
     <use xlink:href="#CMR17-6c" transform="translate(744.500694 0) scale(0.996264)"/>
     <use xlink:href="#CMR17-69" transform="translate(769.371753 0) scale(0.996264)"/>
     <use xlink:href="#CMR17-74" transform="translate(794.242811 0) scale(0.996264)"/>
     <use xlink:href="#CMR17-75" transform="translate(829.523579 0) scale(0.996264)"/>
     <use xlink:href="#CMR17-64" transform="translate(880.418949 0) scale(0.996264)"/>
     <use xlink:href="#CMR17-65" transform="translate(931.314319 0) scale(0.996264)"/>
     <use xlink:href="#CMR17-44" transform="translate(1001.875946 0) scale(0.996264)"/>
     <use xlink:href="#CMR17-65" transform="translate(1072.269501 0) scale(0.996264)"/>
     <use xlink:href="#CMR17-76" transform="translate(1112.755162 0) scale(0.996264)"/>
     <use xlink:href="#CMR17-69" transform="translate(1161.048078 0) scale(0.996264)"/>
     <use xlink:href="#CMR17-61" transform="translate(1185.919136 0) scale(0.996264)"/>
     <use xlink:href="#CMR17-74" transform="translate(1231.609613 0) scale(0.996264)"/>
     <use xlink:href="#CMR17-69" transform="translate(1266.890381 0) scale(0.996264)"/>
     <use xlink:href="#CMR17-6f" transform="translate(1291.76144 0) scale(0.996264)"/>
     <use xlink:href="#CMR17-6e" transform="translate(1337.451917 0) scale(0.996264)"/>
     <use xlink:href="#CMR17-73" transform="translate(1388.347287 0) scale(0.996264)"/>
    </g>
   </g>
  </g>
 </g>
 <defs>
  <clipPath id="p8e73f41e43">
   <rect x="90" y="51.84" width="558" height="332.64"/>
  </clipPath>
 </defs>
</svg>
