<?xml version="1.0" encoding="utf-8" standalone="no"?>
<!DOCTYPE svg PUBLIC "-//W3C//DTD SVG 1.1//EN"
  "http://www.w3.org/Graphics/SVG/1.1/DTD/svg11.dtd">
<svg xmlns:xlink="http://www.w3.org/1999/xlink" width="720pt" height="432pt" viewBox="0 0 720 432" xmlns="http://www.w3.org/2000/svg" version="1.1">
 <metadata>
  <rdf:RDF xmlns:dc="http://purl.org/dc/elements/1.1/" xmlns:cc="http://creativecommons.org/ns#" xmlns:rdf="http://www.w3.org/1999/02/22-rdf-syntax-ns#">
   <cc:Work>
    <dc:type rdf:resource="http://purl.org/dc/dcmitype/StillImage"/>
    <dc:date>2025-06-12T13:55:43.720838</dc:date>
    <dc:format>image/svg+xml</dc:format>
    <dc:creator>
     <cc:Agent>
      <dc:title>Matplotlib v3.5.1, https://matplotlib.org/</dc:title>
     </cc:Agent>
    </dc:creator>
   </cc:Work>
  </rdf:RDF>
 </metadata>
 <defs>
  <style type="text/css">*{stroke-linejoin: round; stroke-linecap: butt}</style>
 </defs>
 <g id="figure_1">
  <g id="patch_1">
   <path d="M 0 432 
L 720 432 
L 720 0 
L 0 0 
z
" style="fill: #ffffff"/>
  </g>
  <g id="axes_1">
   <g id="patch_2">
    <path d="M 90 378 
L 648 378 
L 648 51.84 
L 90 51.84 
z
" style="fill: #ffffff"/>
   </g>
   <g id="matplotlib.axis_1">
    <g id="xtick_1">
     <g id="line2d_1">
      <path d="M 110.197696 378 
L 110.197696 51.84 
" clip-path="url(#paf901cdc80)" style="fill: none; stroke: #cccccc; stroke-linecap: round"/>
     </g>
     <g id="text_1">
      <!-- $\mathdefault{−2}$ -->
      <g style="fill: #262626" transform="translate(93.260729 406.525867)scale(0.275 -0.275)">
       <defs>
        <path id="CMSY10-0" d="M 4218 1472 
C 4326 1472 4442 1472 4442 1600 
C 4442 1728 4326 1728 4218 1728 
L 755 1728 
C 646 1728 531 1728 531 1600 
C 531 1472 646 1472 755 1472 
L 4218 1472 
z
" transform="scale(0.015625)"/>
        <path id="CMR17-32" d="M 2669 990 
L 2554 990 
C 2490 537 2438 460 2413 422 
C 2381 371 1920 371 1830 371 
L 602 371 
C 832 620 1280 1073 1824 1596 
C 2214 1966 2669 2400 2669 3033 
C 2669 3788 2067 4224 1395 4224 
C 691 4224 262 3603 262 3027 
C 262 2777 448 2745 525 2745 
C 589 2745 781 2783 781 3007 
C 781 3206 614 3264 525 3264 
C 486 3264 448 3257 422 3244 
C 544 3788 915 4057 1306 4057 
C 1862 4057 2227 3616 2227 3033 
C 2227 2477 1901 1998 1536 1583 
L 262 147 
L 262 0 
L 2515 0 
L 2669 990 
z
" transform="scale(0.015625)"/>
       </defs>
       <use xlink:href="#CMSY10-0" transform="scale(0.996264)"/>
       <use xlink:href="#CMR17-32" transform="translate(77.487468 0)scale(0.996264)"/>
      </g>
     </g>
    </g>
    <g id="xtick_2">
     <g id="line2d_2">
      <path d="M 247.934811 378 
L 247.934811 51.84 
" clip-path="url(#paf901cdc80)" style="fill: none; stroke: #cccccc; stroke-linecap: round"/>
     </g>
     <g id="text_2">
      <!-- $\mathdefault{−1}$ -->
      <g style="fill: #262626" transform="translate(230.997844 406.525867)scale(0.275 -0.275)">
       <defs>
        <path id="CMR17-31" d="M 1702 4083 
C 1702 4217 1696 4224 1606 4224 
C 1357 3927 979 3833 621 3820 
C 602 3820 570 3820 563 3808 
C 557 3795 557 3782 557 3648 
C 755 3648 1088 3686 1344 3839 
L 1344 467 
C 1344 243 1331 166 781 166 
L 589 166 
L 589 0 
C 896 6 1216 12 1523 12 
C 1830 12 2150 6 2458 0 
L 2458 166 
L 2266 166 
C 1715 166 1702 236 1702 467 
L 1702 4083 
z
" transform="scale(0.015625)"/>
       </defs>
       <use xlink:href="#CMSY10-0" transform="scale(0.996264)"/>
       <use xlink:href="#CMR17-31" transform="translate(77.487468 0)scale(0.996264)"/>
      </g>
     </g>
    </g>
    <g id="xtick_3">
     <g id="line2d_3">
      <path d="M 385.671926 378 
L 385.671926 51.84 
" clip-path="url(#paf901cdc80)" style="fill: none; stroke: #cccccc; stroke-linecap: round"/>
     </g>
     <g id="text_3">
      <!-- $\mathdefault{0}$ -->
      <g style="fill: #262626" transform="translate(379.389485 406.525867)scale(0.275 -0.275)">
       <defs>
        <path id="CMR17-30" d="M 2688 2038 
C 2688 2430 2682 3099 2413 3613 
C 2176 4063 1798 4224 1466 4224 
C 1158 4224 768 4082 525 3620 
C 269 3137 243 2539 243 2038 
C 243 1671 250 1112 448 623 
C 723 -39 1216 -128 1466 -128 
C 1760 -128 2208 -7 2470 604 
C 2662 1048 2688 1568 2688 2038 
z
M 1466 -26 
C 1056 -26 813 328 723 816 
C 653 1196 653 1749 653 2109 
C 653 2604 653 3015 736 3407 
C 858 3954 1216 4121 1466 4121 
C 1728 4121 2067 3947 2189 3420 
C 2272 3054 2278 2623 2278 2109 
C 2278 1691 2278 1176 2202 797 
C 2067 96 1690 -26 1466 -26 
z
" transform="scale(0.015625)"/>
       </defs>
       <use xlink:href="#CMR17-30" transform="scale(0.996264)"/>
      </g>
     </g>
    </g>
    <g id="xtick_4">
     <g id="line2d_4">
      <path d="M 523.409041 378 
L 523.409041 51.84 
" clip-path="url(#paf901cdc80)" style="fill: none; stroke: #cccccc; stroke-linecap: round"/>
     </g>
     <g id="text_4">
      <!-- $\mathdefault{1}$ -->
      <g style="fill: #262626" transform="translate(517.1266 406.525867)scale(0.275 -0.275)">
       <use xlink:href="#CMR17-31" transform="scale(0.996264)"/>
      </g>
     </g>
    </g>
    <g id="text_5">
     <!-- Deviation from ens. mean -->
     <g style="fill: #262626" transform="translate(213.222388 436.610362)scale(0.3 -0.3)">
      <defs>
       <path id="CMR17-44" d="M 333 4352 
L 333 4185 
C 774 4185 845 4185 845 3898 
L 845 453 
C 845 166 774 166 333 166 
L 333 0 
L 2368 0 
C 3398 0 4224 943 4224 2140 
C 4224 3344 3411 4352 2368 4352 
L 333 4352 
z
M 1523 166 
C 1267 166 1254 198 1254 414 
L 1254 3936 
C 1254 4153 1267 4185 1523 4185 
L 2240 4185 
C 2771 4185 3750 3873 3750 2140 
C 3750 1242 3488 879 3366 707 
C 3213 510 2848 166 2240 166 
L 1523 166 
z
" transform="scale(0.015625)"/>
       <path id="CMR17-65" d="M 2438 1503 
C 2464 1529 2464 1542 2464 1606 
C 2464 2251 2118 2816 1389 2816 
C 710 2816 173 2175 173 1394 
C 173 554 781 -64 1459 -64 
C 2176 -64 2458 619 2458 755 
C 2458 800 2419 800 2406 800 
C 2362 800 2355 787 2330 709 
C 2189 270 1837 51 1504 51 
C 1229 51 954 206 781 490 
C 582 819 582 1200 582 1503 
L 2438 1503 
z
M 589 1600 
C 634 2511 1126 2713 1382 2713 
C 1818 2713 2112 2308 2118 1600 
L 589 1600 
z
" transform="scale(0.015625)"/>
       <path id="CMR17-76" d="M 2502 2173 
C 2560 2315 2662 2572 3034 2585 
L 3034 2752 
C 2912 2745 2752 2739 2630 2739 
C 2496 2739 2285 2739 2157 2752 
L 2157 2585 
C 2317 2572 2406 2495 2406 2328 
C 2406 2270 2406 2257 2368 2167 
L 1664 379 
L 902 2308 
C 864 2392 864 2405 864 2431 
C 864 2585 1075 2585 1171 2585 
L 1171 2752 
C 1018 2739 736 2739 576 2739 
C 403 2739 205 2739 64 2752 
L 64 2585 
C 307 2585 442 2585 518 2386 
L 1446 44 
C 1485 -52 1491 -64 1549 -64 
C 1606 -64 1613 -52 1651 44 
L 2502 2173 
z
" transform="scale(0.015625)"/>
       <path id="CMR17-69" d="M 992 3961 
C 992 4102 877 4224 730 4224 
C 589 4224 467 4108 467 3961 
C 467 3820 582 3699 730 3699 
C 870 3699 992 3814 992 3961 
z
M 243 2745 
L 243 2579 
C 602 2579 653 2540 653 2231 
L 653 443 
C 653 198 627 166 218 166 
L 218 0 
C 371 12 646 12 806 12 
C 960 12 1222 12 1370 0 
L 1370 166 
C 992 166 979 205 979 436 
L 979 2816 
L 243 2745 
z
" transform="scale(0.015625)"/>
       <path id="CMR17-61" d="M 2304 1656 
C 2304 2048 2304 2275 2035 2534 
C 1798 2751 1523 2816 1306 2816 
C 800 2816 435 2408 435 1977 
C 435 1740 627 1728 666 1728 
C 749 1728 896 1779 896 1958 
C 896 2118 774 2188 666 2188 
C 640 2188 608 2182 589 2176 
C 723 2594 1069 2713 1293 2713 
C 1613 2713 1965 2421 1965 1875 
L 1965 1632 
C 1587 1619 1133 1568 774 1373 
C 371 1147 256 822 256 576 
C 256 77 832 -64 1171 -64 
C 1523 -64 1850 135 1990 505 
C 2003 219 2182 -39 2464 -39 
C 2598 -39 2938 51 2938 563 
L 2938 926 
L 2822 926 
L 2822 557 
C 2822 161 2650 109 2566 109 
C 2304 109 2304 446 2304 732 
L 2304 1656 
z
M 1965 887 
C 1965 323 1568 38 1216 38 
C 896 38 646 278 646 576 
C 646 771 730 1114 1101 1322 
C 1408 1497 1760 1523 1965 1536 
L 1965 887 
z
" transform="scale(0.015625)"/>
       <path id="CMR17-74" d="M 966 2585 
L 1862 2585 
L 1862 2752 
L 966 2752 
L 966 3968 
L 851 3968 
C 838 3292 614 2700 70 2687 
L 70 2585 
L 627 2585 
L 627 778 
C 627 655 627 -64 1370 -64 
C 1747 -64 1965 308 1965 784 
L 1965 1151 
L 1850 1151 
L 1850 790 
C 1850 347 1677 51 1408 51 
C 1222 51 966 179 966 765 
L 966 2585 
z
" transform="scale(0.015625)"/>
       <path id="CMR17-6f" d="M 2758 1356 
C 2758 2176 2163 2816 1466 2816 
C 768 2816 173 2176 173 1356 
C 173 550 768 -64 1466 -64 
C 2163 -64 2758 550 2758 1356 
z
M 1466 51 
C 1165 51 909 230 762 480 
C 602 768 582 1126 582 1408 
C 582 1676 595 2009 762 2297 
C 890 2508 1139 2713 1466 2713 
C 1754 2713 1997 2553 2150 2329 
C 2349 2028 2349 1606 2349 1408 
C 2349 1158 2336 774 2163 467 
C 1984 172 1709 51 1466 51 
z
" transform="scale(0.015625)"/>
       <path id="CMR17-6e" d="M 2656 1954 
C 2656 2282 2592 2816 1837 2816 
C 1331 2816 1069 2424 973 2166 
L 966 2166 
L 966 2816 
L 211 2745 
L 211 2578 
C 589 2578 646 2540 646 2231 
L 646 443 
C 646 198 621 166 211 166 
L 211 0 
C 365 12 646 12 813 12 
C 979 12 1267 12 1421 0 
L 1421 166 
C 1011 166 986 192 986 443 
L 986 1678 
C 986 2269 1344 2713 1792 2713 
C 2266 2713 2317 2289 2317 1980 
L 2317 443 
C 2317 198 2291 166 1882 166 
L 1882 0 
C 2035 12 2317 12 2483 12 
C 2650 12 2938 12 3091 0 
L 3091 166 
C 2682 166 2656 192 2656 443 
L 2656 1954 
z
" transform="scale(0.015625)"/>
       <path id="CMR17-66" d="M 979 2585 
L 1709 2585 
L 1709 2752 
L 966 2752 
L 966 3539 
C 966 4076 1235 4377 1510 4377 
C 1594 4377 1690 4363 1754 4339 
C 1702 4326 1568 4281 1568 4121 
C 1568 3955 1696 3904 1786 3904 
C 1875 3904 2003 3955 2003 4121 
C 2003 4353 1773 4480 1517 4480 
C 1152 4480 653 4211 653 3526 
L 653 2752 
L 141 2752 
L 141 2585 
L 653 2585 
L 653 441 
C 653 198 627 166 218 166 
L 218 0 
C 371 12 666 12 832 12 
C 1018 12 1344 12 1517 0 
L 1517 166 
C 1056 166 979 166 979 454 
L 979 2585 
z
" transform="scale(0.015625)"/>
       <path id="CMR17-72" d="M 960 1517 
C 960 2134 1222 2713 1702 2713 
C 1747 2713 1792 2707 1837 2687 
C 1837 2687 1696 2642 1696 2475 
C 1696 2321 1818 2257 1914 2257 
C 1990 2257 2131 2302 2131 2482 
C 2131 2687 1926 2816 1709 2816 
C 1222 2816 1011 2340 947 2115 
L 941 2115 
L 941 2816 
L 198 2745 
L 198 2578 
C 576 2578 634 2540 634 2231 
L 634 443 
C 634 198 608 166 198 166 
L 198 0 
C 352 12 646 12 813 12 
C 998 12 1325 12 1498 0 
L 1498 166 
C 1037 166 960 166 960 455 
L 960 1517 
z
" transform="scale(0.015625)"/>
       <path id="CMR17-6d" d="M 4326 1954 
C 4326 2276 4269 2816 3507 2816 
C 3072 2816 2771 2520 2656 2173 
L 2650 2173 
C 2573 2700 2195 2816 1837 2816 
C 1331 2816 1069 2424 973 2166 
L 966 2166 
L 966 2816 
L 211 2745 
L 211 2578 
C 589 2578 646 2540 646 2231 
L 646 443 
C 646 198 621 166 211 166 
L 211 0 
C 365 12 646 12 813 12 
C 979 12 1267 12 1421 0 
L 1421 166 
C 1011 166 986 192 986 443 
L 986 1678 
C 986 2269 1344 2713 1792 2713 
C 2266 2713 2317 2289 2317 1980 
L 2317 443 
C 2317 198 2291 166 1882 166 
L 1882 0 
C 2035 12 2317 12 2483 12 
C 2650 12 2938 12 3091 0 
L 3091 166 
C 2682 166 2656 192 2656 443 
L 2656 1678 
C 2656 2269 3014 2713 3462 2713 
C 3936 2713 3987 2289 3987 1980 
L 3987 443 
C 3987 198 3962 166 3552 166 
L 3552 0 
C 3706 12 3987 12 4154 12 
C 4320 12 4608 12 4762 0 
L 4762 166 
C 4352 166 4326 192 4326 443 
L 4326 1954 
z
" transform="scale(0.015625)"/>
       <path id="CMR17-73" d="M 1978 2688 
C 1978 2803 1971 2809 1933 2809 
C 1907 2809 1901 2803 1824 2707 
C 1805 2681 1747 2617 1728 2592 
C 1523 2809 1235 2816 1126 2816 
C 416 2816 160 2444 160 2073 
C 160 1497 813 1363 998 1324 
C 1402 1241 1542 1216 1677 1100 
C 1760 1024 1901 883 1901 652 
C 1901 384 1747 38 1158 38 
C 602 38 403 460 288 1024 
C 269 1113 269 1120 218 1120 
C 166 1120 160 1113 160 985 
L 160 64 
C 160 -52 166 -58 205 -58 
C 237 -58 243 -52 275 0 
C 314 57 410 211 448 275 
C 576 102 800 -64 1158 -64 
C 1792 -64 2131 281 2131 780 
C 2131 1107 1958 1280 1875 1356 
C 1683 1555 1459 1600 1190 1651 
C 838 1728 390 1817 390 2208 
C 390 2374 480 2726 1126 2726 
C 1811 2726 1850 2086 1862 1881 
C 1869 1849 1901 1843 1920 1843 
C 1978 1843 1978 1862 1978 1971 
L 1978 2688 
z
" transform="scale(0.015625)"/>
       <path id="CMR17-2e" d="M 1062 262 
C 1062 422 934 524 800 524 
C 672 524 538 422 538 262 
C 538 102 666 0 800 0 
C 928 0 1062 102 1062 262 
z
" transform="scale(0.015625)"/>
      </defs>
      <use xlink:href="#CMR17-44" transform="scale(0.996264)"/>
      <use xlink:href="#CMR17-65" transform="translate(70.393556 0)scale(0.996264)"/>
      <use xlink:href="#CMR17-76" transform="translate(110.879216 0)scale(0.996264)"/>
      <use xlink:href="#CMR17-69" transform="translate(159.172132 0)scale(0.996264)"/>
      <use xlink:href="#CMR17-61" transform="translate(184.043191 0)scale(0.996264)"/>
      <use xlink:href="#CMR17-74" transform="translate(229.733668 0)scale(0.996264)"/>
      <use xlink:href="#CMR17-69" transform="translate(265.014436 0)scale(0.996264)"/>
      <use xlink:href="#CMR17-6f" transform="translate(289.885494 0)scale(0.996264)"/>
      <use xlink:href="#CMR17-6e" transform="translate(335.575971 0)scale(0.996264)"/>
      <use xlink:href="#CMR17-66" transform="translate(416.547307 0)scale(0.996264)"/>
      <use xlink:href="#CMR17-72" transform="translate(444.02082 0)scale(0.996264)"/>
      <use xlink:href="#CMR17-6f" transform="translate(479.301588 0)scale(0.996264)"/>
      <use xlink:href="#CMR17-6d" transform="translate(524.992065 0)scale(0.996264)"/>
      <use xlink:href="#CMR17-65" transform="translate(631.987621 0)scale(0.996264)"/>
      <use xlink:href="#CMR17-6e" transform="translate(672.473281 0)scale(0.996264)"/>
      <use xlink:href="#CMR17-73" transform="translate(723.368651 0)scale(0.996264)"/>
      <use xlink:href="#CMR17-2e" transform="translate(759.169989 0)scale(0.996264)"/>
      <use xlink:href="#CMR17-6d" transform="translate(824.526708 0)scale(0.996264)"/>
      <use xlink:href="#CMR17-65" transform="translate(901.446298 0)scale(0.996264)"/>
      <use xlink:href="#CMR17-61" transform="translate(941.931958 0)scale(0.996264)"/>
      <use xlink:href="#CMR17-6e" transform="translate(987.622435 0)scale(0.996264)"/>
     </g>
    </g>
   </g>
   <g id="matplotlib.axis_2">
    <g id="ytick_1">
     <g id="line2d_5">
      <path d="M 90 363.174545 
L 648 363.174545 
" clip-path="url(#paf901cdc80)" style="fill: none; stroke: #cccccc; stroke-linecap: round"/>
     </g>
     <g id="text_6">
      <!-- $\mathdefault{0}$ -->
      <g style="fill: #262626" transform="translate(67.935119 372.687479)scale(0.275 -0.275)">
       <use xlink:href="#CMR17-30" transform="scale(0.996264)"/>
      </g>
     </g>
    </g>
    <g id="ytick_2">
     <g id="line2d_6">
      <path d="M 90 294.186856 
L 648 294.186856 
" clip-path="url(#paf901cdc80)" style="fill: none; stroke: #cccccc; stroke-linecap: round"/>
     </g>
     <g id="text_7">
      <!-- $\mathdefault{1000}$ -->
      <g style="fill: #262626" transform="translate(30.240475 303.699789)scale(0.275 -0.275)">
       <use xlink:href="#CMR17-31" transform="scale(0.996264)"/>
       <use xlink:href="#CMR17-30" transform="translate(45.690477 0)scale(0.996264)"/>
       <use xlink:href="#CMR17-30" transform="translate(91.380954 0)scale(0.996264)"/>
       <use xlink:href="#CMR17-30" transform="translate(137.071431 0)scale(0.996264)"/>
      </g>
     </g>
    </g>
    <g id="ytick_3">
     <g id="line2d_7">
      <path d="M 90 225.199166 
L 648 225.199166 
" clip-path="url(#paf901cdc80)" style="fill: none; stroke: #cccccc; stroke-linecap: round"/>
     </g>
     <g id="text_8">
      <!-- $\mathdefault{2000}$ -->
      <g style="fill: #262626" transform="translate(30.240475 234.712099)scale(0.275 -0.275)">
       <use xlink:href="#CMR17-32" transform="scale(0.996264)"/>
       <use xlink:href="#CMR17-30" transform="translate(45.690477 0)scale(0.996264)"/>
       <use xlink:href="#CMR17-30" transform="translate(91.380954 0)scale(0.996264)"/>
       <use xlink:href="#CMR17-30" transform="translate(137.071431 0)scale(0.996264)"/>
      </g>
     </g>
    </g>
    <g id="ytick_4">
     <g id="line2d_8">
      <path d="M 90 156.211476 
L 648 156.211476 
" clip-path="url(#paf901cdc80)" style="fill: none; stroke: #cccccc; stroke-linecap: round"/>
     </g>
     <g id="text_9">
      <!-- $\mathdefault{3000}$ -->
      <g style="fill: #262626" transform="translate(30.240475 165.724409)scale(0.275 -0.275)">
       <defs>
        <path id="CMR17-33" d="M 1414 2176 
C 1984 2176 2234 1673 2234 1094 
C 2234 322 1824 25 1453 25 
C 1114 25 563 193 390 691 
C 422 678 454 678 486 678 
C 640 678 755 780 755 947 
C 755 1132 614 1216 486 1216 
C 378 1216 211 1164 211 927 
C 211 335 787 -128 1466 -128 
C 2176 -128 2720 432 2720 1087 
C 2720 1718 2208 2176 1600 2246 
C 2086 2347 2554 2776 2554 3353 
C 2554 3856 2048 4224 1472 4224 
C 890 4224 378 3862 378 3347 
C 378 3123 544 3084 627 3084 
C 762 3084 877 3167 877 3334 
C 877 3500 762 3584 627 3584 
C 602 3584 570 3584 544 3571 
C 730 3999 1235 4076 1459 4076 
C 1683 4076 2106 3966 2106 3347 
C 2106 3167 2080 2851 1862 2574 
C 1670 2329 1453 2316 1242 2297 
C 1210 2297 1062 2284 1037 2284 
C 992 2278 966 2272 966 2227 
C 966 2182 973 2176 1101 2176 
L 1414 2176 
z
" transform="scale(0.015625)"/>
       </defs>
       <use xlink:href="#CMR17-33" transform="scale(0.996264)"/>
       <use xlink:href="#CMR17-30" transform="translate(45.690477 0)scale(0.996264)"/>
       <use xlink:href="#CMR17-30" transform="translate(91.380954 0)scale(0.996264)"/>
       <use xlink:href="#CMR17-30" transform="translate(137.071431 0)scale(0.996264)"/>
      </g>
     </g>
    </g>
    <g id="ytick_5">
     <g id="line2d_9">
      <path d="M 90 87.223786 
L 648 87.223786 
" clip-path="url(#paf901cdc80)" style="fill: none; stroke: #cccccc; stroke-linecap: round"/>
     </g>
     <g id="text_10">
      <!-- $\mathdefault{4000}$ -->
      <g style="fill: #262626" transform="translate(30.240475 96.736719)scale(0.275 -0.275)">
       <defs>
        <path id="CMR17-34" d="M 2150 4147 
C 2150 4281 2144 4288 2029 4288 
L 128 1254 
L 128 1088 
L 1779 1088 
L 1779 460 
C 1779 230 1766 166 1318 166 
L 1197 166 
L 1197 0 
C 1402 12 1747 12 1965 12 
C 2182 12 2528 12 2733 0 
L 2733 166 
L 2611 166 
C 2163 166 2150 230 2150 460 
L 2150 1088 
L 2803 1088 
L 2803 1254 
L 2150 1254 
L 2150 4147 
z
M 1798 3723 
L 1798 1254 
L 256 1254 
L 1798 3723 
z
" transform="scale(0.015625)"/>
       </defs>
       <use xlink:href="#CMR17-34" transform="scale(0.996264)"/>
       <use xlink:href="#CMR17-30" transform="translate(45.690477 0)scale(0.996264)"/>
       <use xlink:href="#CMR17-30" transform="translate(91.380954 0)scale(0.996264)"/>
       <use xlink:href="#CMR17-30" transform="translate(137.071431 0)scale(0.996264)"/>
      </g>
     </g>
    </g>
    <g id="text_11">
     <!-- Count -->
     <g style="fill: #262626" transform="translate(20.427025 251.920401)rotate(-90)scale(0.3 -0.3)">
      <defs>
       <path id="CMR17-43" d="M 3974 4351 
C 3974 4467 3968 4473 3930 4473 
C 3904 4473 3898 4467 3853 4390 
L 3571 3849 
C 3258 4249 2874 4480 2381 4480 
C 1286 4480 294 3507 294 2179 
C 294 837 1286 -128 2387 -128 
C 3366 -128 3974 741 3974 1482 
C 3974 1547 3974 1573 3917 1573 
C 3866 1573 3866 1553 3859 1495 
C 3808 592 3168 38 2477 38 
C 1824 38 781 502 781 2179 
C 781 3862 1843 4313 2464 4313 
C 3187 4313 3712 3681 3834 2785 
C 3846 2707 3846 2695 3904 2695 
C 3974 2695 3974 2707 3974 2824 
L 3974 4351 
z
" transform="scale(0.015625)"/>
       <path id="CMR17-75" d="M 1882 2745 
L 1882 2579 
C 2259 2579 2317 2540 2317 2229 
L 2317 1053 
C 2317 510 2029 38 1555 38 
C 1030 38 986 355 986 691 
L 986 2816 
L 211 2745 
L 211 2579 
C 467 2579 640 2579 646 2320 
L 646 1079 
C 646 646 646 368 813 187 
C 896 103 1056 -64 1517 -64 
C 2061 -64 2272 400 2323 536 
L 2330 536 
L 2330 -64 
L 3091 -13 
L 3091 154 
C 2714 154 2656 193 2656 503 
L 2656 2816 
L 1882 2745 
z
" transform="scale(0.015625)"/>
      </defs>
      <use xlink:href="#CMR17-43" transform="scale(0.996264)"/>
      <use xlink:href="#CMR17-6f" transform="translate(66.509881 0)scale(0.996264)"/>
      <use xlink:href="#CMR17-75" transform="translate(112.200358 0)scale(0.996264)"/>
      <use xlink:href="#CMR17-6e" transform="translate(163.095727 0)scale(0.996264)"/>
      <use xlink:href="#CMR17-74" transform="translate(211.388643 0)scale(0.996264)"/>
     </g>
    </g>
   </g>
   <g id="line2d_10">
    <path d="M 167.992893 363.105558 
L 172.585251 363.174545 
L 177.177609 363.03657 
L 181.769968 363.03657 
L 186.362326 363.105558 
L 190.954684 362.967582 
L 195.547042 362.967582 
L 200.139401 363.03657 
L 204.731759 362.898595 
L 209.324117 363.03657 
L 213.916476 362.967582 
L 218.508834 363.03657 
L 223.101192 363.105558 
L 227.693551 363.105558 
L 232.285909 363.03657 
L 236.878267 363.03657 
L 241.470625 363.03657 
L 246.062984 363.03657 
L 250.655342 363.105558 
L 255.2477 363.105558 
L 259.840059 363.105558 
L 264.432417 362.898595 
L 269.024775 362.829607 
L 273.617133 363.174545 
L 278.209492 362.967582 
L 282.80185 362.760619 
L 287.394208 363.03657 
L 291.986567 362.967582 
L 296.578925 362.760619 
L 301.171283 362.967582 
L 305.763641 363.03657 
L 310.356 363.105558 
L 314.948358 363.03657 
L 319.540716 363.105558 
L 324.133075 363.03657 
L 328.725433 362.898595 
L 333.317791 363.03657 
L 337.91015 66.665455 
L 342.502508 349.721946 
L 347.094866 341.23646 
L 351.687224 342.685202 
L 356.279583 343.375078 
L 360.871941 343.92698 
L 365.464299 347.445352 
L 370.056658 349.514983 
L 374.649016 350.963724 
L 379.241374 352.89538 
L 383.833732 353.585257 
L 388.426091 354.827035 
L 393.018449 354.275133 
L 397.610807 355.654887 
L 402.203166 356.413752 
L 406.795524 356.206789 
L 411.387882 356.137801 
L 415.98024 355.171973 
L 420.572599 354.482097 
L 425.164957 354.896023 
L 429.757315 354.68906 
L 434.349674 356.137801 
L 438.942032 356.206789 
L 443.53439 353.447281 
L 448.126749 354.827035 
L 452.719107 354.344121 
L 457.311465 353.861207 
L 461.903823 354.413109 
L 466.496182 353.516269 
L 471.08854 355.999826 
L 475.680898 355.516912 
L 480.273257 356.206789 
L 484.865615 358.414395 
L 489.457973 357.862493 
L 494.050331 359.242247 
L 498.64269 358.966296 
L 503.235048 359.311235 
L 507.827406 360.553013 
L 512.419765 360.277062 
L 517.012123 360.759976 
L 521.604481 360.553013 
L 526.19684 360.34605 
L 530.789198 360.553013 
L 535.381556 360.484026 
L 539.973914 360.415038 
L 544.566273 361.794792 
L 549.158631 360.828964 
L 553.750989 360.966939 
L 558.343348 360.553013 
L 562.935706 361.24289 
L 567.528064 360.484026 
L 572.120422 361.794792 
L 576.712781 361.932767 
L 581.305139 362.415681 
L 585.897497 362.622644 
L 590.489856 362.967582 
L 595.082214 362.898595 
L 599.674572 362.967582 
L 604.26693 363.03657 
L 608.859289 363.105558 
L 613.451647 363.105558 
L 618.044005 363.174545 
L 622.636364 363.03657 
" clip-path="url(#paf901cdc80)" style="fill: none; stroke: #4c72b0; stroke-width: 3; stroke-linecap: round"/>
   </g>
   <g id="line2d_11">
    <path d="M 115.363636 363.105558 
L 120.135747 363.105558 
L 124.907858 363.174545 
L 129.679968 363.105558 
L 134.452079 363.105558 
L 139.22419 363.105558 
L 143.9963 362.829607 
L 148.768411 362.967582 
L 153.540522 362.691632 
L 158.312632 362.898595 
L 163.084743 362.553656 
L 167.856854 362.553656 
L 172.628964 362.691632 
L 177.401075 362.760619 
L 182.173186 362.622644 
L 186.945296 362.691632 
L 191.717407 362.622644 
L 196.489518 362.484669 
L 201.261628 362.484669 
L 206.033739 362.967582 
L 210.80585 362.484669 
L 215.57796 361.932767 
L 220.350071 362.346693 
L 225.122181 362.415681 
L 229.894292 362.208718 
L 234.666403 362.553656 
L 239.438513 362.622644 
L 244.210624 362.277705 
L 248.982735 362.277705 
L 253.754845 361.863779 
L 258.526956 361.794792 
L 263.299067 361.794792 
L 268.071177 361.794792 
L 272.843288 362.13973 
L 277.615399 361.656816 
L 282.387509 361.725804 
L 287.15962 362.13973 
L 291.931731 361.518841 
L 296.703841 361.518841 
L 301.475952 361.104915 
L 306.248063 360.001112 
L 311.020173 356.75869 
L 315.792284 353.102343 
L 320.564395 350.480811 
L 325.336505 347.100414 
L 330.108616 343.582042 
L 334.880727 343.651029 
L 339.652837 339.028854 
L 344.424948 338.821891 
L 349.197059 337.511125 
L 353.969169 340.33962 
L 358.74128 336.959223 
L 363.513391 339.304805 
L 368.285501 335.027568 
L 373.057612 336.407322 
L 377.829722 334.95858 
L 382.601833 336.959223 
L 387.373944 335.441494 
L 392.146054 335.372506 
L 396.918165 337.925051 
L 401.690276 338.407965 
L 406.462386 341.995325 
L 411.234497 343.789005 
L 416.006608 345.444709 
L 420.778718 345.375721 
L 425.550829 350.135872 
L 430.32294 351.929552 
L 435.09505 353.033355 
L 439.867161 354.758047 
L 444.639272 354.758047 
L 449.411382 356.206789 
L 454.183493 358.138444 
L 458.955604 357.034641 
L 463.727714 359.311235 
L 468.499825 358.690346 
L 473.271936 358.966296 
L 478.044046 359.311235 
L 482.816157 358.621358 
L 487.588268 359.173259 
L 492.360378 358.828321 
L 497.132489 359.725161 
L 501.9046 358.828321 
L 506.67671 358.621358 
L 511.448821 359.380223 
L 516.220932 359.863136 
L 520.993042 359.794149 
L 525.765153 360.070099 
L 530.537264 360.897952 
L 535.309374 360.759976 
L 540.081485 361.932767 
L 544.853595 362.070742 
L 549.625706 362.346693 
L 554.397817 362.346693 
L 559.169927 362.898595 
L 563.942038 363.03657 
L 568.714149 363.174545 
L 573.486259 363.03657 
L 578.25837 363.174545 
L 583.030481 363.174545 
L 587.802591 363.105558 
" clip-path="url(#paf901cdc80)" style="fill: none; stroke: #dd8452; stroke-width: 3; stroke-linecap: round"/>
   </g>
   <g id="line2d_12">
    <path d="M 288.794071 363.105558 
L 291.814623 363.174545 
L 294.835174 363.174545 
L 297.855725 363.105558 
L 300.876276 363.03657 
L 303.896827 363.03657 
L 306.917379 354.206146 
L 309.93793 344.82382 
L 312.958481 339.235817 
L 315.979032 339.028854 
L 318.999583 337.235174 
L 322.020135 336.75226 
L 325.040686 340.270632 
L 328.061237 341.719374 
L 331.081788 343.651029 
L 334.102339 345.513697 
L 337.122891 345.030783 
L 340.143442 346.893451 
L 343.163993 350.066884 
L 346.184544 349.170044 
L 349.205095 350.687774 
L 352.225647 351.722589 
L 355.246198 351.791577 
L 358.266749 353.654244 
L 361.2873 353.999183 
L 364.307851 353.999183 
L 367.328403 353.999183 
L 370.348954 355.033998 
L 373.369505 354.896023 
L 376.390056 355.171973 
L 379.410607 356.275776 
L 382.431159 354.827035 
L 385.45171 355.5859 
L 388.472261 355.033998 
L 391.492812 356.137801 
L 394.513364 356.48274 
L 397.533915 355.792863 
L 400.554466 355.102986 
L 403.575017 353.723232 
L 406.595568 352.688417 
L 409.61612 354.06817 
L 412.636671 352.481454 
L 415.657222 352.826392 
L 418.677773 351.99854 
L 421.698324 350.273847 
L 424.718876 352.964367 
L 427.739427 353.17133 
L 430.759978 353.102343 
L 433.780529 354.06817 
L 436.80108 353.378293 
L 439.821632 354.758047 
L 442.842183 354.96501 
L 445.862734 355.5859 
L 448.883285 356.48274 
L 451.903836 355.378937 
L 454.924388 355.999826 
L 457.944939 357.172616 
L 460.96549 358.690346 
L 463.986041 357.172616 
L 467.006592 359.104272 
L 470.027144 358.759333 
L 473.047695 359.173259 
L 476.068246 360.34605 
L 479.088797 359.794149 
L 482.109348 360.001112 
L 485.1299 360.759976 
L 488.150451 360.34605 
L 491.171002 359.932124 
L 494.191553 360.34605 
L 497.212105 360.415038 
L 500.232656 360.34605 
L 503.253207 360.897952 
L 506.273758 359.518198 
L 509.294309 360.828964 
L 512.314861 359.44921 
L 515.335412 361.518841 
L 518.355963 361.104915 
L 521.376514 360.966939 
L 524.397065 361.311878 
L 527.417617 361.587829 
L 530.438168 361.587829 
L 533.458719 361.24289 
L 536.47927 361.104915 
L 539.499821 361.932767 
L 542.520373 362.070742 
L 545.540924 361.725804 
L 548.561475 362.346693 
L 551.582026 361.863779 
L 554.602577 362.484669 
L 557.623129 362.13973 
L 560.64368 362.277705 
L 563.664231 362.898595 
L 566.684782 362.898595 
L 569.705333 362.691632 
L 572.725885 363.105558 
L 575.746436 362.967582 
L 578.766987 363.105558 
L 581.787538 363.03657 
L 584.808089 363.174545 
L 587.828641 363.03657 
" clip-path="url(#paf901cdc80)" style="fill: none; stroke: #55a868; stroke-width: 3; stroke-linecap: round"/>
   </g>
   <g id="patch_3">
    <path d="M 90 378 
L 90 51.84 
" style="fill: none; stroke: #ffffff; stroke-width: 1.25; stroke-linejoin: miter; stroke-linecap: square"/>
   </g>
   <g id="patch_4">
    <path d="M 648 378 
L 648 51.84 
" style="fill: none; stroke: #ffffff; stroke-width: 1.25; stroke-linejoin: miter; stroke-linecap: square"/>
   </g>
   <g id="patch_5">
    <path d="M 90 378 
L 648 378 
" style="fill: none; stroke: #ffffff; stroke-width: 1.25; stroke-linejoin: miter; stroke-linecap: square"/>
   </g>
   <g id="patch_6">
    <path d="M 90 51.84 
L 648 51.84 
" style="fill: none; stroke: #ffffff; stroke-width: 1.25; stroke-linejoin: miter; stroke-linecap: square"/>
   </g>
   <g id="text_12">
    <!-- Histogram of Amplitude Deviations -->
    <g style="fill: #262626" transform="translate(155.377789 45.84)scale(0.3 -0.3)">
     <defs>
      <path id="CMR17-48" d="M 3590 3898 
C 3590 4185 3661 4185 4102 4185 
L 4102 4352 
C 3917 4339 3578 4339 3379 4339 
C 3181 4339 2842 4339 2656 4352 
L 2656 4185 
C 3098 4185 3168 4185 3168 3898 
L 3168 2342 
L 1261 2342 
L 1261 3898 
C 1261 4185 1331 4185 1773 4185 
L 1773 4352 
C 1587 4339 1248 4339 1050 4339 
C 851 4339 512 4339 326 4352 
L 326 4185 
C 768 4185 838 4185 838 3898 
L 838 452 
C 838 166 768 166 326 166 
L 326 0 
C 512 12 851 12 1050 12 
C 1248 12 1587 12 1773 0 
L 1773 166 
C 1331 166 1261 166 1261 452 
L 1261 2176 
L 3168 2176 
L 3168 452 
C 3168 166 3098 166 2656 166 
L 2656 0 
C 2842 12 3181 12 3379 12 
C 3578 12 3917 12 4102 0 
L 4102 166 
C 3661 166 3590 166 3590 452 
L 3590 3898 
z
" transform="scale(0.015625)"/>
      <path id="CMR17-67" d="M 710 1165 
C 832 1068 1043 960 1299 960 
C 1805 960 2240 1359 2240 1895 
C 2240 2063 2189 2321 1997 2521 
C 2176 2713 2438 2777 2586 2777 
C 2611 2777 2650 2777 2682 2758 
C 2656 2751 2598 2726 2598 2623 
C 2598 2540 2656 2483 2739 2483 
C 2835 2483 2886 2547 2886 2630 
C 2886 2751 2790 2880 2586 2880 
C 2330 2880 2106 2758 1926 2591 
C 1734 2764 1504 2828 1299 2828 
C 794 2828 358 2431 358 1895 
C 358 1527 570 1294 634 1230 
C 442 1004 442 742 442 710 
C 442 544 506 300 723 166 
C 390 82 128 -184 128 -517 
C 128 -996 736 -1344 1466 -1344 
C 2170 -1344 2803 -1009 2803 -510 
C 2803 384 1856 384 1363 384 
C 1216 384 954 384 922 390 
C 723 422 589 601 589 825 
C 589 883 589 1024 710 1165 
z
M 1299 1068 
C 736 1068 736 1766 736 1895 
C 736 2024 736 2719 1299 2719 
C 1862 2719 1862 2024 1862 1895 
C 1862 1766 1862 1068 1299 1068 
z
M 1466 -1236 
C 826 -1236 384 -883 384 -517 
C 384 -311 493 -118 634 -11 
C 794 102 858 102 1293 102 
C 1818 102 2547 102 2547 -517 
C 2547 -883 2106 -1236 1466 -1236 
z
" transform="scale(0.015625)"/>
      <path id="CMR17-41" d="M 2323 4441 
C 2291 4524 2278 4544 2214 4544 
C 2150 4544 2138 4524 2106 4441 
L 749 580 
C 627 236 371 166 147 166 
L 147 0 
C 262 12 518 12 640 12 
C 800 12 1056 12 1210 0 
L 1210 166 
C 909 179 864 382 864 459 
C 864 516 877 548 890 586 
L 1229 1536 
L 2906 1536 
L 3290 453 
C 3322 376 3322 363 3322 338 
C 3322 166 3046 166 2925 166 
L 2925 0 
C 3110 12 3443 12 3642 12 
C 3808 12 4128 12 4282 0 
L 4282 166 
C 3942 166 3827 166 3744 402 
L 2323 4441 
z
M 2067 3924 
L 2848 1702 
L 1286 1702 
L 2067 3924 
z
" transform="scale(0.015625)"/>
      <path id="CMR17-70" d="M 1408 -1114 
C 998 -1114 973 -1088 973 -834 
L 973 380 
C 1158 109 1427 -64 1766 -64 
C 2406 -64 3053 503 3053 1382 
C 3053 2196 2496 2816 1837 2816 
C 1453 2816 1139 2603 960 2345 
L 960 2816 
L 198 2745 
L 198 2577 
C 576 2577 634 2539 634 2228 
L 634 -834 
C 634 -1081 608 -1114 198 -1114 
L 198 -1280 
C 352 -1268 634 -1268 800 -1268 
C 966 -1268 1254 -1268 1408 -1280 
L 1408 -1114 
z
M 973 2015 
C 973 2106 973 2241 1222 2481 
C 1254 2506 1472 2700 1792 2700 
C 2259 2700 2643 2112 2643 1376 
C 2643 639 2234 38 1728 38 
C 1498 38 1248 148 1056 451 
C 973 594 973 632 973 736 
L 973 2015 
z
" transform="scale(0.015625)"/>
      <path id="CMR17-6c" d="M 979 4416 
L 218 4345 
L 218 4179 
C 595 4179 653 4141 653 3835 
L 653 439 
C 653 198 627 166 218 166 
L 218 0 
C 371 12 653 12 813 12 
C 979 12 1261 12 1414 0 
L 1414 166 
C 1005 166 979 191 979 439 
L 979 4416 
z
" transform="scale(0.015625)"/>
      <path id="CMR17-64" d="M 1869 4345 
L 1869 4179 
C 2246 4179 2304 4141 2304 3843 
L 2304 2371 
C 2278 2403 2016 2816 1498 2816 
C 845 2816 211 2228 211 1376 
C 211 529 806 -64 1434 -64 
C 1978 -64 2259 361 2291 406 
L 2291 -64 
L 3066 -13 
L 3066 154 
C 2688 154 2630 193 2630 503 
L 2630 4416 
L 1869 4345 
z
M 2291 762 
C 2291 568 2176 393 2029 264 
C 1811 70 1594 38 1472 38 
C 1286 38 621 135 621 1369 
C 621 2636 1363 2713 1530 2713 
C 1824 2713 2061 2545 2208 2313 
C 2291 2177 2291 2157 2291 2041 
L 2291 762 
z
" transform="scale(0.015625)"/>
     </defs>
     <use xlink:href="#CMR17-48" transform="scale(0.996264)"/>
     <use xlink:href="#CMR17-69" transform="translate(69.07243 0)scale(0.996264)"/>
     <use xlink:href="#CMR17-73" transform="translate(93.943488 0)scale(0.996264)"/>
     <use xlink:href="#CMR17-74" transform="translate(129.744826 0)scale(0.996264)"/>
     <use xlink:href="#CMR17-6f" transform="translate(165.025594 0)scale(0.996264)"/>
     <use xlink:href="#CMR17-67" transform="translate(210.716071 0)scale(0.996264)"/>
     <use xlink:href="#CMR17-72" transform="translate(256.406548 0)scale(0.996264)"/>
     <use xlink:href="#CMR17-61" transform="translate(291.687316 0)scale(0.996264)"/>
     <use xlink:href="#CMR17-6d" transform="translate(337.377793 0)scale(0.996264)"/>
     <use xlink:href="#CMR17-6f" transform="translate(444.373349 0)scale(0.996264)"/>
     <use xlink:href="#CMR17-66" transform="translate(490.063826 0)scale(0.996264)"/>
     <use xlink:href="#CMR17-41" transform="translate(547.613305 0)scale(0.996264)"/>
     <use xlink:href="#CMR17-6d" transform="translate(616.685735 0)scale(0.996264)"/>
     <use xlink:href="#CMR17-70" transform="translate(693.605325 0)scale(0.996264)"/>
     <use xlink:href="#CMR17-6c" transform="translate(744.500694 0)scale(0.996264)"/>
     <use xlink:href="#CMR17-69" transform="translate(769.371753 0)scale(0.996264)"/>
     <use xlink:href="#CMR17-74" transform="translate(794.242811 0)scale(0.996264)"/>
     <use xlink:href="#CMR17-75" transform="translate(829.523579 0)scale(0.996264)"/>
     <use xlink:href="#CMR17-64" transform="translate(880.418949 0)scale(0.996264)"/>
     <use xlink:href="#CMR17-65" transform="translate(931.314319 0)scale(0.996264)"/>
     <use xlink:href="#CMR17-44" transform="translate(1001.875946 0)scale(0.996264)"/>
     <use xlink:href="#CMR17-65" transform="translate(1072.269501 0)scale(0.996264)"/>
     <use xlink:href="#CMR17-76" transform="translate(1112.755162 0)scale(0.996264)"/>
     <use xlink:href="#CMR17-69" transform="translate(1161.048078 0)scale(0.996264)"/>
     <use xlink:href="#CMR17-61" transform="translate(1185.919136 0)scale(0.996264)"/>
     <use xlink:href="#CMR17-74" transform="translate(1231.609613 0)scale(0.996264)"/>
     <use xlink:href="#CMR17-69" transform="translate(1266.890381 0)scale(0.996264)"/>
     <use xlink:href="#CMR17-6f" transform="translate(1291.76144 0)scale(0.996264)"/>
     <use xlink:href="#CMR17-6e" transform="translate(1337.451917 0)scale(0.996264)"/>
     <use xlink:href="#CMR17-73" transform="translate(1388.347287 0)scale(0.996264)"/>
    </g>
   </g>
  </g>
 </g>
 <defs>
  <clipPath id="paf901cdc80">
   <rect x="90" y="51.84" width="558" height="326.16"/>
  </clipPath>
 </defs>
</svg>
