<?xml version="1.0" encoding="utf-8" standalone="no"?>
<!DOCTYPE svg PUBLIC "-//W3C//DTD SVG 1.1//EN"
  "http://www.w3.org/Graphics/SVG/1.1/DTD/svg11.dtd">
<svg xmlns:xlink="http://www.w3.org/1999/xlink" width="720pt" height="432pt" viewBox="0 0 720 432" xmlns="http://www.w3.org/2000/svg" version="1.1">
 <metadata>
  <rdf:RDF xmlns:dc="http://purl.org/dc/elements/1.1/" xmlns:cc="http://creativecommons.org/ns#" xmlns:rdf="http://www.w3.org/1999/02/22-rdf-syntax-ns#">
   <cc:Work>
    <dc:type rdf:resource="http://purl.org/dc/dcmitype/StillImage"/>
    <dc:date>2025-06-22T19:19:57.961435</dc:date>
    <dc:format>image/svg+xml</dc:format>
    <dc:creator>
     <cc:Agent>
      <dc:title>Matplotlib v3.10.0, https://matplotlib.org/</dc:title>
     </cc:Agent>
    </dc:creator>
   </cc:Work>
  </rdf:RDF>
 </metadata>
 <defs>
  <style type="text/css">*{stroke-linejoin: round; stroke-linecap: butt}</style>
 </defs>
 <g id="figure_1">
  <g id="patch_1">
   <path d="M 0 432 
L 720 432 
L 720 0 
L 0 0 
z
" style="fill: #ffffff"/>
  </g>
  <g id="axes_1">
   <g id="patch_2">
    <path d="M 105.050424 335.176188 
L 687.6 335.176188 
L 687.6 59.155495 
L 105.050424 59.155495 
z
" style="fill: #ffffff"/>
   </g>
   <g id="matplotlib.axis_1">
    <g id="xtick_1">
     <g id="line2d_1">
      <path d="M 190.373342 335.176188 
L 190.373342 59.155495 
" clip-path="url(#pf06a5da50a)" style="fill: none; stroke: #cccccc; stroke-linecap: round"/>
     </g>
     <g id="text_1">
      <!-- $\mathdefault{0.2}$ -->
      <g style="fill: #262626" transform="translate(174.082602 363.702054) scale(0.275 -0.275)">
       <defs>
        <path id="CMR17-30" d="M 2688 2038 
C 2688 2430 2682 3099 2413 3613 
C 2176 4063 1798 4224 1466 4224 
C 1158 4224 768 4082 525 3620 
C 269 3137 243 2539 243 2038 
C 243 1671 250 1112 448 623 
C 723 -39 1216 -128 1466 -128 
C 1760 -128 2208 -7 2470 604 
C 2662 1048 2688 1568 2688 2038 
z
M 1466 -26 
C 1056 -26 813 328 723 816 
C 653 1196 653 1749 653 2109 
C 653 2604 653 3015 736 3407 
C 858 3954 1216 4121 1466 4121 
C 1728 4121 2067 3947 2189 3420 
C 2272 3054 2278 2623 2278 2109 
C 2278 1691 2278 1176 2202 797 
C 2067 96 1690 -26 1466 -26 
z
" transform="scale(0.015625)"/>
        <path id="CMMI12-3a" d="M 1178 307 
C 1178 492 1024 620 870 620 
C 685 620 557 467 557 313 
C 557 128 710 0 864 0 
C 1050 0 1178 153 1178 307 
z
" transform="scale(0.015625)"/>
        <path id="CMR17-32" d="M 2669 990 
L 2554 990 
C 2490 537 2438 460 2413 422 
C 2381 371 1920 371 1830 371 
L 602 371 
C 832 620 1280 1073 1824 1596 
C 2214 1966 2669 2400 2669 3033 
C 2669 3788 2067 4224 1395 4224 
C 691 4224 262 3603 262 3027 
C 262 2777 448 2745 525 2745 
C 589 2745 781 2783 781 3007 
C 781 3206 614 3264 525 3264 
C 486 3264 448 3257 422 3244 
C 544 3788 915 4057 1306 4057 
C 1862 4057 2227 3616 2227 3033 
C 2227 2477 1901 1998 1536 1583 
L 262 147 
L 262 0 
L 2515 0 
L 2669 990 
z
" transform="scale(0.015625)"/>
       </defs>
       <use xlink:href="#CMR17-30" transform="scale(0.996264)"/>
       <use xlink:href="#CMMI12-3a" transform="translate(45.690477 0) scale(0.996264)"/>
       <use xlink:href="#CMR17-32" transform="translate(72.787654 0) scale(0.996264)"/>
      </g>
     </g>
    </g>
    <g id="xtick_2">
     <g id="line2d_2">
      <path d="M 308.060125 335.176188 
L 308.060125 59.155495 
" clip-path="url(#pf06a5da50a)" style="fill: none; stroke: #cccccc; stroke-linecap: round"/>
     </g>
     <g id="text_2">
      <!-- $\mathdefault{0.4}$ -->
      <g style="fill: #262626" transform="translate(291.769386 363.702054) scale(0.275 -0.275)">
       <defs>
        <path id="CMR17-34" d="M 2150 4147 
C 2150 4281 2144 4288 2029 4288 
L 128 1254 
L 128 1088 
L 1779 1088 
L 1779 460 
C 1779 230 1766 166 1318 166 
L 1197 166 
L 1197 0 
C 1402 12 1747 12 1965 12 
C 2182 12 2528 12 2733 0 
L 2733 166 
L 2611 166 
C 2163 166 2150 230 2150 460 
L 2150 1088 
L 2803 1088 
L 2803 1254 
L 2150 1254 
L 2150 4147 
z
M 1798 3723 
L 1798 1254 
L 256 1254 
L 1798 3723 
z
" transform="scale(0.015625)"/>
       </defs>
       <use xlink:href="#CMR17-30" transform="scale(0.996264)"/>
       <use xlink:href="#CMMI12-3a" transform="translate(45.690477 0) scale(0.996264)"/>
       <use xlink:href="#CMR17-34" transform="translate(72.787654 0) scale(0.996264)"/>
      </g>
     </g>
    </g>
    <g id="xtick_3">
     <g id="line2d_3">
      <path d="M 425.746908 335.176188 
L 425.746908 59.155495 
" clip-path="url(#pf06a5da50a)" style="fill: none; stroke: #cccccc; stroke-linecap: round"/>
     </g>
     <g id="text_3">
      <!-- $\mathdefault{0.6}$ -->
      <g style="fill: #262626" transform="translate(409.456169 363.702054) scale(0.275 -0.275)">
       <defs>
        <path id="CMR17-36" d="M 678 2198 
C 678 3712 1395 4076 1811 4076 
C 1946 4076 2272 4049 2400 3782 
C 2298 3782 2106 3782 2106 3558 
C 2106 3385 2246 3328 2336 3328 
C 2394 3328 2566 3353 2566 3571 
C 2566 3987 2246 4224 1805 4224 
C 1043 4224 243 3411 243 2011 
C 243 257 966 -128 1478 -128 
C 2099 -128 2688 431 2688 1295 
C 2688 2101 2170 2688 1517 2688 
C 1126 2688 838 2430 678 1979 
L 678 2198 
z
M 1478 25 
C 691 25 691 1212 691 1450 
C 691 1914 909 2585 1504 2585 
C 1613 2585 1926 2585 2138 2140 
C 2253 1889 2253 1624 2253 1302 
C 2253 954 2253 696 2118 438 
C 1978 173 1773 25 1478 25 
z
" transform="scale(0.015625)"/>
       </defs>
       <use xlink:href="#CMR17-30" transform="scale(0.996264)"/>
       <use xlink:href="#CMMI12-3a" transform="translate(45.690477 0) scale(0.996264)"/>
       <use xlink:href="#CMR17-36" transform="translate(72.787654 0) scale(0.996264)"/>
      </g>
     </g>
    </g>
    <g id="xtick_4">
     <g id="line2d_4">
      <path d="M 543.433691 335.176188 
L 543.433691 59.155495 
" clip-path="url(#pf06a5da50a)" style="fill: none; stroke: #cccccc; stroke-linecap: round"/>
     </g>
     <g id="text_4">
      <!-- $\mathdefault{0.8}$ -->
      <g style="fill: #262626" transform="translate(527.142952 363.702054) scale(0.275 -0.275)">
       <defs>
        <path id="CMR17-38" d="M 1741 2289 
C 2144 2494 2554 2803 2554 3298 
C 2554 3884 1990 4224 1472 4224 
C 890 4224 378 3800 378 3215 
C 378 3054 416 2777 666 2533 
C 730 2469 998 2276 1171 2154 
C 883 2006 211 1652 211 945 
C 211 282 838 -128 1459 -128 
C 2144 -128 2720 366 2720 1022 
C 2720 1607 2330 1877 2074 2051 
L 1741 2289 
z
M 902 2855 
C 851 2887 595 3086 595 3388 
C 595 3781 998 4076 1459 4076 
C 1965 4076 2336 3716 2336 3298 
C 2336 2700 1670 2359 1638 2359 
C 1632 2359 1626 2359 1574 2398 
L 902 2855 
z
M 2080 1536 
C 2176 1466 2483 1253 2483 861 
C 2483 385 2010 25 1472 25 
C 890 25 448 443 448 951 
C 448 1459 838 1884 1280 2083 
L 2080 1536 
z
" transform="scale(0.015625)"/>
       </defs>
       <use xlink:href="#CMR17-30" transform="scale(0.996264)"/>
       <use xlink:href="#CMMI12-3a" transform="translate(45.690477 0) scale(0.996264)"/>
       <use xlink:href="#CMR17-38" transform="translate(72.787654 0) scale(0.996264)"/>
      </g>
     </g>
    </g>
    <g id="xtick_5">
     <g id="line2d_5">
      <path d="M 661.120474 335.176188 
L 661.120474 59.155495 
" clip-path="url(#pf06a5da50a)" style="fill: none; stroke: #cccccc; stroke-linecap: round"/>
     </g>
     <g id="text_5">
      <!-- $\mathdefault{1.0}$ -->
      <g style="fill: #262626" transform="translate(644.829735 363.702054) scale(0.275 -0.275)">
       <defs>
        <path id="CMR17-31" d="M 1702 4083 
C 1702 4217 1696 4224 1606 4224 
C 1357 3927 979 3833 621 3820 
C 602 3820 570 3820 563 3808 
C 557 3795 557 3782 557 3648 
C 755 3648 1088 3686 1344 3839 
L 1344 467 
C 1344 243 1331 166 781 166 
L 589 166 
L 589 0 
C 896 6 1216 12 1523 12 
C 1830 12 2150 6 2458 0 
L 2458 166 
L 2266 166 
C 1715 166 1702 236 1702 467 
L 1702 4083 
z
" transform="scale(0.015625)"/>
       </defs>
       <use xlink:href="#CMR17-31" transform="scale(0.996264)"/>
       <use xlink:href="#CMMI12-3a" transform="translate(45.690477 0) scale(0.996264)"/>
       <use xlink:href="#CMR17-30" transform="translate(72.787654 0) scale(0.996264)"/>
      </g>
     </g>
    </g>
    <g id="text_6">
     <!-- Noise Level -->
     <g style="fill: #262626" transform="translate(328.088569 393.78655) scale(0.3 -0.3)">
      <defs>
       <path id="CMR17-4e" d="M 1312 4275 
C 1267 4345 1261 4352 1139 4352 
L 326 4352 
L 326 4185 
L 448 4185 
C 704 4185 819 4153 838 4147 
L 838 624 
C 838 465 838 166 326 166 
L 326 0 
C 474 12 742 12 902 12 
C 1062 12 1331 12 1478 0 
L 1478 166 
C 966 166 966 465 966 624 
L 966 4057 
C 1011 4019 1011 4007 1056 3943 
L 3430 76 
C 3475 0 3494 0 3526 0 
C 3590 0 3590 19 3590 140 
L 3590 3726 
C 3590 3885 3590 4185 4102 4185 
L 4102 4352 
C 3955 4339 3686 4339 3526 4339 
C 3366 4339 3098 4339 2950 4352 
L 2950 4185 
C 3462 4185 3462 3885 3462 3726 
L 3462 777 
L 1312 4275 
z
" transform="scale(0.015625)"/>
       <path id="CMR17-6f" d="M 2758 1356 
C 2758 2176 2163 2816 1466 2816 
C 768 2816 173 2176 173 1356 
C 173 550 768 -64 1466 -64 
C 2163 -64 2758 550 2758 1356 
z
M 1466 51 
C 1165 51 909 230 762 480 
C 602 768 582 1126 582 1408 
C 582 1676 595 2009 762 2297 
C 890 2508 1139 2713 1466 2713 
C 1754 2713 1997 2553 2150 2329 
C 2349 2028 2349 1606 2349 1408 
C 2349 1158 2336 774 2163 467 
C 1984 172 1709 51 1466 51 
z
" transform="scale(0.015625)"/>
       <path id="CMR17-69" d="M 992 3961 
C 992 4102 877 4224 730 4224 
C 589 4224 467 4108 467 3961 
C 467 3820 582 3699 730 3699 
C 870 3699 992 3814 992 3961 
z
M 243 2745 
L 243 2579 
C 602 2579 653 2540 653 2231 
L 653 443 
C 653 198 627 166 218 166 
L 218 0 
C 371 12 646 12 806 12 
C 960 12 1222 12 1370 0 
L 1370 166 
C 992 166 979 205 979 436 
L 979 2816 
L 243 2745 
z
" transform="scale(0.015625)"/>
       <path id="CMR17-73" d="M 1978 2688 
C 1978 2803 1971 2809 1933 2809 
C 1907 2809 1901 2803 1824 2707 
C 1805 2681 1747 2617 1728 2592 
C 1523 2809 1235 2816 1126 2816 
C 416 2816 160 2444 160 2073 
C 160 1497 813 1363 998 1324 
C 1402 1241 1542 1216 1677 1100 
C 1760 1024 1901 883 1901 652 
C 1901 384 1747 38 1158 38 
C 602 38 403 460 288 1024 
C 269 1113 269 1120 218 1120 
C 166 1120 160 1113 160 985 
L 160 64 
C 160 -52 166 -58 205 -58 
C 237 -58 243 -52 275 0 
C 314 57 410 211 448 275 
C 576 102 800 -64 1158 -64 
C 1792 -64 2131 281 2131 780 
C 2131 1107 1958 1280 1875 1356 
C 1683 1555 1459 1600 1190 1651 
C 838 1728 390 1817 390 2208 
C 390 2374 480 2726 1126 2726 
C 1811 2726 1850 2086 1862 1881 
C 1869 1849 1901 1843 1920 1843 
C 1978 1843 1978 1862 1978 1971 
L 1978 2688 
z
" transform="scale(0.015625)"/>
       <path id="CMR17-65" d="M 2438 1503 
C 2464 1529 2464 1542 2464 1606 
C 2464 2251 2118 2816 1389 2816 
C 710 2816 173 2175 173 1394 
C 173 554 781 -64 1459 -64 
C 2176 -64 2458 619 2458 755 
C 2458 800 2419 800 2406 800 
C 2362 800 2355 787 2330 709 
C 2189 270 1837 51 1504 51 
C 1229 51 954 206 781 490 
C 582 819 582 1200 582 1503 
L 2438 1503 
z
M 589 1600 
C 634 2511 1126 2713 1382 2713 
C 1818 2713 2112 2308 2118 1600 
L 589 1600 
z
" transform="scale(0.015625)"/>
       <path id="CMR17-4c" d="M 3469 1612 
L 3354 1612 
C 3302 981 3219 166 2125 166 
L 1530 166 
C 1274 166 1261 198 1261 414 
L 1261 3892 
C 1261 4121 1274 4185 1760 4185 
L 1901 4185 
L 1901 4352 
C 1638 4339 1331 4339 1069 4339 
C 870 4339 512 4339 326 4352 
L 326 4185 
C 768 4185 838 4185 838 3898 
L 838 453 
C 838 166 768 166 326 166 
L 326 0 
L 3315 0 
L 3469 1612 
z
" transform="scale(0.015625)"/>
       <path id="CMR17-76" d="M 2502 2173 
C 2560 2315 2662 2572 3034 2585 
L 3034 2752 
C 2912 2745 2752 2739 2630 2739 
C 2496 2739 2285 2739 2157 2752 
L 2157 2585 
C 2317 2572 2406 2495 2406 2328 
C 2406 2270 2406 2257 2368 2167 
L 1664 379 
L 902 2308 
C 864 2392 864 2405 864 2431 
C 864 2585 1075 2585 1171 2585 
L 1171 2752 
C 1018 2739 736 2739 576 2739 
C 403 2739 205 2739 64 2752 
L 64 2585 
C 307 2585 442 2585 518 2386 
L 1446 44 
C 1485 -52 1491 -64 1549 -64 
C 1606 -64 1613 -52 1651 44 
L 2502 2173 
z
" transform="scale(0.015625)"/>
       <path id="CMR17-6c" d="M 979 4416 
L 218 4345 
L 218 4179 
C 595 4179 653 4141 653 3835 
L 653 439 
C 653 198 627 166 218 166 
L 218 0 
C 371 12 653 12 813 12 
C 979 12 1261 12 1414 0 
L 1414 166 
C 1005 166 979 191 979 439 
L 979 4416 
z
" transform="scale(0.015625)"/>
      </defs>
      <use xlink:href="#CMR17-4e" transform="scale(0.996264)"/>
      <use xlink:href="#CMR17-6f" transform="translate(69.07243 0) scale(0.996264)"/>
      <use xlink:href="#CMR17-69" transform="translate(114.762907 0) scale(0.996264)"/>
      <use xlink:href="#CMR17-73" transform="translate(139.633965 0) scale(0.996264)"/>
      <use xlink:href="#CMR17-65" transform="translate(175.435303 0) scale(0.996264)"/>
      <use xlink:href="#CMR17-4c" transform="translate(245.99693 0) scale(0.996264)"/>
      <use xlink:href="#CMR17-65" transform="translate(303.378338 0) scale(0.996264)"/>
      <use xlink:href="#CMR17-76" transform="translate(343.863998 0) scale(0.996264)"/>
      <use xlink:href="#CMR17-65" transform="translate(389.55446 0) scale(0.996264)"/>
      <use xlink:href="#CMR17-6c" transform="translate(430.040121 0) scale(0.996264)"/>
     </g>
    </g>
   </g>
   <g id="matplotlib.axis_2">
    <g id="ytick_1">
     <g id="line2d_6">
      <path d="M 105.050424 332.038902 
L 687.6 332.038902 
" clip-path="url(#pf06a5da50a)" style="fill: none; stroke: #cccccc; stroke-linecap: round"/>
     </g>
     <g id="text_7">
      <!-- $\mathdefault{0.0}$ -->
      <g style="fill: #262626" transform="translate(62.968946 341.551835) scale(0.275 -0.275)">
       <use xlink:href="#CMR17-30" transform="scale(0.996264)"/>
       <use xlink:href="#CMMI12-3a" transform="translate(45.690477 0) scale(0.996264)"/>
       <use xlink:href="#CMR17-30" transform="translate(72.787654 0) scale(0.996264)"/>
      </g>
     </g>
    </g>
    <g id="ytick_2">
     <g id="line2d_7">
      <path d="M 105.050424 273.978157 
L 687.6 273.978157 
" clip-path="url(#pf06a5da50a)" style="fill: none; stroke: #cccccc; stroke-linecap: round"/>
     </g>
     <g id="text_8">
      <!-- $\mathdefault{0.2}$ -->
      <g style="fill: #262626" transform="translate(62.968946 283.49109) scale(0.275 -0.275)">
       <use xlink:href="#CMR17-30" transform="scale(0.996264)"/>
       <use xlink:href="#CMMI12-3a" transform="translate(45.690477 0) scale(0.996264)"/>
       <use xlink:href="#CMR17-32" transform="translate(72.787654 0) scale(0.996264)"/>
      </g>
     </g>
    </g>
    <g id="ytick_3">
     <g id="line2d_8">
      <path d="M 105.050424 215.917412 
L 687.6 215.917412 
" clip-path="url(#pf06a5da50a)" style="fill: none; stroke: #cccccc; stroke-linecap: round"/>
     </g>
     <g id="text_9">
      <!-- $\mathdefault{0.4}$ -->
      <g style="fill: #262626" transform="translate(62.968946 225.430345) scale(0.275 -0.275)">
       <use xlink:href="#CMR17-30" transform="scale(0.996264)"/>
       <use xlink:href="#CMMI12-3a" transform="translate(45.690477 0) scale(0.996264)"/>
       <use xlink:href="#CMR17-34" transform="translate(72.787654 0) scale(0.996264)"/>
      </g>
     </g>
    </g>
    <g id="ytick_4">
     <g id="line2d_9">
      <path d="M 105.050424 157.856667 
L 687.6 157.856667 
" clip-path="url(#pf06a5da50a)" style="fill: none; stroke: #cccccc; stroke-linecap: round"/>
     </g>
     <g id="text_10">
      <!-- $\mathdefault{0.6}$ -->
      <g style="fill: #262626" transform="translate(62.968946 167.369601) scale(0.275 -0.275)">
       <use xlink:href="#CMR17-30" transform="scale(0.996264)"/>
       <use xlink:href="#CMMI12-3a" transform="translate(45.690477 0) scale(0.996264)"/>
       <use xlink:href="#CMR17-36" transform="translate(72.787654 0) scale(0.996264)"/>
      </g>
     </g>
    </g>
    <g id="ytick_5">
     <g id="line2d_10">
      <path d="M 105.050424 99.795923 
L 687.6 99.795923 
" clip-path="url(#pf06a5da50a)" style="fill: none; stroke: #cccccc; stroke-linecap: round"/>
     </g>
     <g id="text_11">
      <!-- $\mathdefault{0.8}$ -->
      <g style="fill: #262626" transform="translate(62.968946 109.308856) scale(0.275 -0.275)">
       <use xlink:href="#CMR17-30" transform="scale(0.996264)"/>
       <use xlink:href="#CMMI12-3a" transform="translate(45.690477 0) scale(0.996264)"/>
       <use xlink:href="#CMR17-38" transform="translate(72.787654 0) scale(0.996264)"/>
      </g>
     </g>
    </g>
    <g id="text_12">
     <!-- Jaccard Index -->
     <g style="fill: #262626" transform="translate(53.155495 280.983407) rotate(-90) scale(0.3 -0.3)">
      <defs>
       <path id="CMR17-4a" d="M 1888 902 
C 1888 316 1568 -26 1242 -26 
C 1075 -26 691 49 525 428 
C 550 422 582 415 608 415 
C 730 415 883 499 883 691 
C 883 844 774 960 614 960 
C 461 960 339 863 339 678 
C 339 254 730 -128 1254 -128 
C 1754 -128 2214 223 2291 755 
C 2298 799 2298 812 2298 1030 
L 2298 3734 
C 2298 3844 2298 4024 2310 4063 
C 2336 4185 2483 4185 2682 4185 
L 2682 4352 
C 2669 4352 2214 4339 2054 4339 
C 1786 4339 1491 4339 1222 4352 
L 1222 4185 
L 1376 4185 
C 1875 4185 1888 4114 1888 3883 
L 1888 902 
z
" transform="scale(0.015625)"/>
       <path id="CMR17-61" d="M 2304 1656 
C 2304 2048 2304 2275 2035 2534 
C 1798 2751 1523 2816 1306 2816 
C 800 2816 435 2408 435 1977 
C 435 1740 627 1728 666 1728 
C 749 1728 896 1779 896 1958 
C 896 2118 774 2188 666 2188 
C 640 2188 608 2182 589 2176 
C 723 2594 1069 2713 1293 2713 
C 1613 2713 1965 2421 1965 1875 
L 1965 1632 
C 1587 1619 1133 1568 774 1373 
C 371 1147 256 822 256 576 
C 256 77 832 -64 1171 -64 
C 1523 -64 1850 135 1990 505 
C 2003 219 2182 -39 2464 -39 
C 2598 -39 2938 51 2938 563 
L 2938 926 
L 2822 926 
L 2822 557 
C 2822 161 2650 109 2566 109 
C 2304 109 2304 446 2304 732 
L 2304 1656 
z
M 1965 887 
C 1965 323 1568 38 1216 38 
C 896 38 646 278 646 576 
C 646 771 730 1114 1101 1322 
C 1408 1497 1760 1523 1965 1536 
L 1965 887 
z
" transform="scale(0.015625)"/>
       <path id="CMR17-63" d="M 2234 2240 
C 2112 2240 1933 2240 1933 2015 
C 1933 1836 2080 1785 2163 1785 
C 2208 1785 2394 1804 2394 2028 
C 2394 2476 1958 2816 1466 2816 
C 787 2816 211 2201 211 1379 
C 211 521 813 -64 1466 -64 
C 2259 -64 2458 676 2458 747 
C 2458 773 2451 792 2406 792 
C 2362 792 2355 786 2330 702 
C 2163 180 1798 51 1523 51 
C 1114 51 621 431 621 1385 
C 621 2358 1094 2700 1472 2700 
C 1722 2700 2093 2582 2234 2240 
z
" transform="scale(0.015625)"/>
       <path id="CMR17-72" d="M 960 1517 
C 960 2134 1222 2713 1702 2713 
C 1747 2713 1792 2707 1837 2687 
C 1837 2687 1696 2642 1696 2475 
C 1696 2321 1818 2257 1914 2257 
C 1990 2257 2131 2302 2131 2482 
C 2131 2687 1926 2816 1709 2816 
C 1222 2816 1011 2340 947 2115 
L 941 2115 
L 941 2816 
L 198 2745 
L 198 2578 
C 576 2578 634 2540 634 2231 
L 634 443 
C 634 198 608 166 198 166 
L 198 0 
C 352 12 646 12 813 12 
C 998 12 1325 12 1498 0 
L 1498 166 
C 1037 166 960 166 960 455 
L 960 1517 
z
" transform="scale(0.015625)"/>
       <path id="CMR17-64" d="M 1869 4345 
L 1869 4179 
C 2246 4179 2304 4141 2304 3843 
L 2304 2371 
C 2278 2403 2016 2816 1498 2816 
C 845 2816 211 2228 211 1376 
C 211 529 806 -64 1434 -64 
C 1978 -64 2259 361 2291 406 
L 2291 -64 
L 3066 -13 
L 3066 154 
C 2688 154 2630 193 2630 503 
L 2630 4416 
L 1869 4345 
z
M 2291 762 
C 2291 568 2176 393 2029 264 
C 1811 70 1594 38 1472 38 
C 1286 38 621 135 621 1369 
C 621 2636 1363 2713 1530 2713 
C 1824 2713 2061 2545 2208 2313 
C 2291 2177 2291 2157 2291 2041 
L 2291 762 
z
" transform="scale(0.015625)"/>
       <path id="CMR17-49" d="M 1261 3898 
C 1261 4185 1338 4185 1798 4185 
L 1798 4352 
C 1594 4339 1267 4339 1050 4339 
C 832 4339 506 4339 301 4352 
L 301 4185 
C 762 4185 838 4185 838 3898 
L 838 453 
C 838 166 762 166 301 166 
L 301 0 
C 506 12 832 12 1050 12 
C 1267 12 1594 12 1798 0 
L 1798 166 
C 1338 166 1261 166 1261 453 
L 1261 3898 
z
" transform="scale(0.015625)"/>
       <path id="CMR17-6e" d="M 2656 1954 
C 2656 2282 2592 2816 1837 2816 
C 1331 2816 1069 2424 973 2166 
L 966 2166 
L 966 2816 
L 211 2745 
L 211 2578 
C 589 2578 646 2540 646 2231 
L 646 443 
C 646 198 621 166 211 166 
L 211 0 
C 365 12 646 12 813 12 
C 979 12 1267 12 1421 0 
L 1421 166 
C 1011 166 986 192 986 443 
L 986 1678 
C 986 2269 1344 2713 1792 2713 
C 2266 2713 2317 2289 2317 1980 
L 2317 443 
C 2317 198 2291 166 1882 166 
L 1882 0 
C 2035 12 2317 12 2483 12 
C 2650 12 2938 12 3091 0 
L 3091 166 
C 2682 166 2656 192 2656 443 
L 2656 1954 
z
" transform="scale(0.015625)"/>
       <path id="CMR17-78" d="M 1664 1491 
C 1856 1740 2074 2022 2253 2233 
C 2464 2476 2707 2579 2989 2585 
L 2989 2752 
C 2880 2745 2656 2739 2541 2739 
C 2368 2739 2170 2739 2022 2752 
L 2022 2585 
C 2112 2572 2163 2508 2163 2419 
C 2163 2304 2099 2233 2067 2188 
L 1594 1587 
L 1030 2323 
C 973 2393 973 2406 973 2438 
C 973 2515 1037 2579 1146 2585 
L 1146 2752 
C 992 2739 717 2739 557 2739 
C 384 2739 179 2739 38 2752 
L 38 2585 
C 384 2585 461 2560 614 2368 
L 1350 1414 
C 1363 1401 1395 1363 1395 1344 
C 1395 1318 838 633 768 544 
C 480 198 179 172 6 166 
L 6 0 
C 115 6 339 12 454 12 
C 582 12 864 12 979 0 
L 979 166 
C 941 172 838 185 838 332 
C 838 448 890 518 947 595 
L 1478 1248 
L 2035 524 
C 2086 454 2163 358 2163 313 
C 2163 224 2086 172 1984 166 
L 1984 0 
C 2138 12 2413 12 2573 12 
C 2746 12 2950 12 3091 0 
L 3091 166 
C 2771 166 2675 179 2522 377 
L 1664 1491 
z
" transform="scale(0.015625)"/>
      </defs>
      <use xlink:href="#CMR17-4a" transform="scale(0.996264)"/>
      <use xlink:href="#CMR17-61" transform="translate(46.97179 0) scale(0.996264)"/>
      <use xlink:href="#CMR17-63" transform="translate(92.662267 0) scale(0.996264)"/>
      <use xlink:href="#CMR17-63" transform="translate(133.147927 0) scale(0.996264)"/>
      <use xlink:href="#CMR17-61" transform="translate(173.633588 0) scale(0.996264)"/>
      <use xlink:href="#CMR17-72" transform="translate(219.324065 0) scale(0.996264)"/>
      <use xlink:href="#CMR17-64" transform="translate(254.604833 0) scale(0.996264)"/>
      <use xlink:href="#CMR17-49" transform="translate(335.576169 0) scale(0.996264)"/>
      <use xlink:href="#CMR17-6e" transform="translate(368.214578 0) scale(0.996264)"/>
      <use xlink:href="#CMR17-64" transform="translate(419.109948 0) scale(0.996264)"/>
      <use xlink:href="#CMR17-65" transform="translate(470.005318 0) scale(0.996264)"/>
      <use xlink:href="#CMR17-78" transform="translate(510.490978 0) scale(0.996264)"/>
     </g>
    </g>
   </g>
   <g id="FillBetweenPolyCollection_1">
    <defs>
     <path id="mad8fe791d0" d="M 131.52995 -360.29811 
L 131.52995 -253.255912 
L 190.373342 -233.86556 
L 249.216733 -200.358107 
L 308.060125 -162.282098 
L 366.903516 -142.744812 
L 425.746908 -127.400241 
L 484.590299 -121.273969 
L 543.433691 -120.100917 
L 602.277082 -118.748009 
L 661.120474 -119.892936 
L 661.120474 -149.130791 
L 661.120474 -149.130791 
L 602.277082 -153.941104 
L 543.433691 -161.779213 
L 484.590299 -168.732427 
L 425.746908 -186.217429 
L 366.903516 -215.560068 
L 308.060125 -264.865499 
L 249.216733 -308.193087 
L 190.373342 -349.485865 
L 131.52995 -360.29811 
z
" style="stroke: #4e79a7; stroke-opacity: 0.2"/>
    </defs>
    <g clip-path="url(#pf06a5da50a)">
     <use xlink:href="#mad8fe791d0" x="0" y="432" style="fill: #4e79a7; fill-opacity: 0.2; stroke: #4e79a7; stroke-opacity: 0.2"/>
    </g>
   </g>
   <g id="FillBetweenPolyCollection_2">
    <defs>
     <path id="m5ff9b4c187" d="M 131.52995 -359.010325 
L 131.52995 -243.547558 
L 190.373342 -226.667917 
L 249.216733 -195.636768 
L 308.060125 -155.56638 
L 366.903516 -131.066491 
L 425.746908 -118.770036 
L 484.590299 -113.112884 
L 543.433691 -109.370207 
L 602.277082 -111.438038 
L 661.120474 -112.502082 
L 661.120474 -157.580191 
L 661.120474 -157.580191 
L 602.277082 -164.258899 
L 543.433691 -168.814915 
L 484.590299 -175.813345 
L 425.746908 -195.535214 
L 366.903516 -219.273325 
L 308.060125 -266.486868 
L 249.216733 -311.893729 
L 190.373342 -340.394788 
L 131.52995 -359.010325 
z
" style="stroke: #f28e2b; stroke-opacity: 0.2"/>
    </defs>
    <g clip-path="url(#pf06a5da50a)">
     <use xlink:href="#m5ff9b4c187" x="0" y="432" style="fill: #f28e2b; fill-opacity: 0.2; stroke: #f28e2b; stroke-opacity: 0.2"/>
    </g>
   </g>
   <g id="line2d_11">
    <path d="M 131.52995 125.222989 
L 190.373342 140.324287 
L 249.216733 177.724403 
L 308.060125 218.426201 
L 366.903516 252.84756 
L 425.746908 275.191165 
L 484.590299 286.996802 
L 543.433691 291.059935 
L 602.277082 295.655443 
L 661.120474 297.488137 
" clip-path="url(#pf06a5da50a)" style="fill: none; stroke: #4e79a7; stroke-width: 1.5; stroke-linecap: round"/>
    <defs>
     <path id="m8bbead4957" d="M 0 3 
C 0.795609 3 1.55874 2.683901 2.12132 2.12132 
C 2.683901 1.55874 3 0.795609 3 0 
C 3 -0.795609 2.683901 -1.55874 2.12132 -2.12132 
C 1.55874 -2.683901 0.795609 -3 0 -3 
C -0.795609 -3 -1.55874 -2.683901 -2.12132 -2.12132 
C -2.683901 -1.55874 -3 -0.795609 -3 0 
C -3 0.795609 -2.683901 1.55874 -2.12132 2.12132 
C -1.55874 2.683901 -0.795609 3 0 3 
z
" style="stroke: #4e79a7"/>
    </defs>
    <g clip-path="url(#pf06a5da50a)">
     <use xlink:href="#m8bbead4957" x="131.52995" y="125.222989" style="fill: #4e79a7; stroke: #4e79a7"/>
     <use xlink:href="#m8bbead4957" x="190.373342" y="140.324287" style="fill: #4e79a7; stroke: #4e79a7"/>
     <use xlink:href="#m8bbead4957" x="249.216733" y="177.724403" style="fill: #4e79a7; stroke: #4e79a7"/>
     <use xlink:href="#m8bbead4957" x="308.060125" y="218.426201" style="fill: #4e79a7; stroke: #4e79a7"/>
     <use xlink:href="#m8bbead4957" x="366.903516" y="252.84756" style="fill: #4e79a7; stroke: #4e79a7"/>
     <use xlink:href="#m8bbead4957" x="425.746908" y="275.191165" style="fill: #4e79a7; stroke: #4e79a7"/>
     <use xlink:href="#m8bbead4957" x="484.590299" y="286.996802" style="fill: #4e79a7; stroke: #4e79a7"/>
     <use xlink:href="#m8bbead4957" x="543.433691" y="291.059935" style="fill: #4e79a7; stroke: #4e79a7"/>
     <use xlink:href="#m8bbead4957" x="602.277082" y="295.655443" style="fill: #4e79a7; stroke: #4e79a7"/>
     <use xlink:href="#m8bbead4957" x="661.120474" y="297.488137" style="fill: #4e79a7; stroke: #4e79a7"/>
    </g>
   </g>
   <g id="line2d_12">
    <path d="M 131.52995 130.721059 
L 190.373342 148.468647 
L 249.216733 178.234752 
L 308.060125 220.973376 
L 366.903516 256.830092 
L 425.746908 274.847375 
L 484.590299 287.536885 
L 543.433691 292.907439 
L 602.277082 294.151532 
L 661.120474 296.958863 
" clip-path="url(#pf06a5da50a)" style="fill: none; stroke: #f28e2b; stroke-width: 1.5; stroke-linecap: round"/>
    <defs>
     <path id="mad688f8595" d="M 0 3 
C 0.795609 3 1.55874 2.683901 2.12132 2.12132 
C 2.683901 1.55874 3 0.795609 3 0 
C 3 -0.795609 2.683901 -1.55874 2.12132 -2.12132 
C 1.55874 -2.683901 0.795609 -3 0 -3 
C -0.795609 -3 -1.55874 -2.683901 -2.12132 -2.12132 
C -2.683901 -1.55874 -3 -0.795609 -3 0 
C -3 0.795609 -2.683901 1.55874 -2.12132 2.12132 
C -1.55874 2.683901 -0.795609 3 0 3 
z
" style="stroke: #f28e2b"/>
    </defs>
    <g clip-path="url(#pf06a5da50a)">
     <use xlink:href="#mad688f8595" x="131.52995" y="130.721059" style="fill: #f28e2b; stroke: #f28e2b"/>
     <use xlink:href="#mad688f8595" x="190.373342" y="148.468647" style="fill: #f28e2b; stroke: #f28e2b"/>
     <use xlink:href="#mad688f8595" x="249.216733" y="178.234752" style="fill: #f28e2b; stroke: #f28e2b"/>
     <use xlink:href="#mad688f8595" x="308.060125" y="220.973376" style="fill: #f28e2b; stroke: #f28e2b"/>
     <use xlink:href="#mad688f8595" x="366.903516" y="256.830092" style="fill: #f28e2b; stroke: #f28e2b"/>
     <use xlink:href="#mad688f8595" x="425.746908" y="274.847375" style="fill: #f28e2b; stroke: #f28e2b"/>
     <use xlink:href="#mad688f8595" x="484.590299" y="287.536885" style="fill: #f28e2b; stroke: #f28e2b"/>
     <use xlink:href="#mad688f8595" x="543.433691" y="292.907439" style="fill: #f28e2b; stroke: #f28e2b"/>
     <use xlink:href="#mad688f8595" x="602.277082" y="294.151532" style="fill: #f28e2b; stroke: #f28e2b"/>
     <use xlink:href="#mad688f8595" x="661.120474" y="296.958863" style="fill: #f28e2b; stroke: #f28e2b"/>
    </g>
   </g>
   <g id="patch_3">
    <path d="M 105.050424 335.176188 
L 105.050424 59.155495 
" style="fill: none; stroke: #ffffff; stroke-width: 1.25; stroke-linejoin: miter; stroke-linecap: square"/>
   </g>
   <g id="patch_4">
    <path d="M 687.6 335.176188 
L 687.6 59.155495 
" style="fill: none; stroke: #ffffff; stroke-width: 1.25; stroke-linejoin: miter; stroke-linecap: square"/>
   </g>
   <g id="patch_5">
    <path d="M 105.050424 335.176188 
L 687.6 335.176188 
" style="fill: none; stroke: #ffffff; stroke-width: 1.25; stroke-linejoin: miter; stroke-linecap: square"/>
   </g>
   <g id="patch_6">
    <path d="M 105.050424 59.155495 
L 687.6 59.155495 
" style="fill: none; stroke: #ffffff; stroke-width: 1.25; stroke-linejoin: miter; stroke-linecap: square"/>
   </g>
   <g id="text_13">
    <!-- Jaccard Index vs Noise Level -->
    <g style="fill: #262626" transform="translate(222.634078 53.155495) scale(0.3 -0.3)">
     <use xlink:href="#CMR17-4a" transform="scale(0.996264)"/>
     <use xlink:href="#CMR17-61" transform="translate(46.97179 0) scale(0.996264)"/>
     <use xlink:href="#CMR17-63" transform="translate(92.662267 0) scale(0.996264)"/>
     <use xlink:href="#CMR17-63" transform="translate(133.147927 0) scale(0.996264)"/>
     <use xlink:href="#CMR17-61" transform="translate(173.633588 0) scale(0.996264)"/>
     <use xlink:href="#CMR17-72" transform="translate(219.324065 0) scale(0.996264)"/>
     <use xlink:href="#CMR17-64" transform="translate(254.604833 0) scale(0.996264)"/>
     <use xlink:href="#CMR17-49" transform="translate(335.576169 0) scale(0.996264)"/>
     <use xlink:href="#CMR17-6e" transform="translate(368.214578 0) scale(0.996264)"/>
     <use xlink:href="#CMR17-64" transform="translate(419.109948 0) scale(0.996264)"/>
     <use xlink:href="#CMR17-65" transform="translate(470.005318 0) scale(0.996264)"/>
     <use xlink:href="#CMR17-78" transform="translate(510.490978 0) scale(0.996264)"/>
     <use xlink:href="#CMR17-76" transform="translate(588.85986 0) scale(0.996264)"/>
     <use xlink:href="#CMR17-73" transform="translate(637.152776 0) scale(0.996264)"/>
     <use xlink:href="#CMR17-4e" transform="translate(703.03008 0) scale(0.996264)"/>
     <use xlink:href="#CMR17-6f" transform="translate(772.10251 0) scale(0.996264)"/>
     <use xlink:href="#CMR17-69" transform="translate(817.792987 0) scale(0.996264)"/>
     <use xlink:href="#CMR17-73" transform="translate(842.664045 0) scale(0.996264)"/>
     <use xlink:href="#CMR17-65" transform="translate(878.465383 0) scale(0.996264)"/>
     <use xlink:href="#CMR17-4c" transform="translate(949.02701 0) scale(0.996264)"/>
     <use xlink:href="#CMR17-65" transform="translate(1006.408418 0) scale(0.996264)"/>
     <use xlink:href="#CMR17-76" transform="translate(1046.894078 0) scale(0.996264)"/>
     <use xlink:href="#CMR17-65" transform="translate(1092.58454 0) scale(0.996264)"/>
     <use xlink:href="#CMR17-6c" transform="translate(1133.070201 0) scale(0.996264)"/>
    </g>
   </g>
   <g id="legend_1">
    <g id="patch_7">
     <path d="M 380.084744 237.242159 
L 668.35 237.242159 
Q 673.85 237.242159 673.85 231.742159 
L 673.85 78.405495 
Q 673.85 72.905495 668.35 72.905495 
L 380.084744 72.905495 
Q 374.584744 72.905495 374.584744 78.405495 
L 374.584744 231.742159 
Q 374.584744 237.242159 380.084744 237.242159 
z
" style="fill: #ffffff; opacity: 0.8; stroke: #cccccc; stroke-linejoin: miter"/>
    </g>
    <g id="line2d_13">
     <path d="M 385.584744 94.803768 
L 413.084744 94.803768 
L 440.584744 94.803768 
" style="fill: none; stroke: #4e79a7; stroke-width: 1.5; stroke-linecap: round"/>
     <g>
      <use xlink:href="#m8bbead4957" x="413.084744" y="94.803768" style="fill: #4e79a7; stroke: #4e79a7"/>
     </g>
    </g>
    <g id="text_14">
     <!-- W/o Replacement -->
     <g style="fill: #262626" transform="translate(462.584744 104.428768) scale(0.275 -0.275)">
      <defs>
       <path id="CMR17-57" d="M 5523 3775 
C 5581 3948 5677 4173 6048 4185 
L 6048 4352 
C 5939 4345 5715 4339 5600 4339 
C 5440 4339 5158 4339 5005 4352 
L 5005 4185 
C 5293 4179 5414 4019 5414 3865 
C 5414 3820 5408 3794 5382 3724 
L 4390 557 
L 3347 3890 
C 3328 3955 3322 3980 3322 4006 
C 3322 4185 3603 4185 3725 4185 
L 3725 4352 
C 3539 4339 3219 4339 3021 4339 
C 2861 4339 2573 4339 2426 4352 
L 2426 4185 
C 2720 4185 2797 4166 2861 4051 
C 2886 3993 2989 3660 2989 3640 
C 2989 3615 2976 3576 2970 3557 
L 2029 564 
L 986 3890 
C 954 3980 954 3993 954 4006 
C 954 4185 1235 4185 1363 4185 
L 1363 4352 
C 1178 4339 858 4339 659 4339 
C 493 4339 211 4339 58 4352 
L 58 4185 
C 442 4185 467 4147 531 3942 
L 1779 -20 
C 1811 -116 1811 -128 1869 -128 
C 1920 -128 1939 -116 1965 -26 
L 3053 3448 
L 4141 -26 
C 4166 -116 4186 -128 4237 -128 
C 4294 -128 4294 -116 4326 -20 
L 5523 3775 
z
" transform="scale(0.015625)"/>
       <path id="CMR17-2f" d="M 2605 4575 
C 2637 4658 2637 4671 2637 4684 
C 2637 4761 2579 4800 2528 4800 
C 2451 4800 2426 4748 2400 4671 
L 326 -1376 
C 294 -1460 294 -1472 294 -1485 
C 294 -1562 352 -1600 403 -1600 
C 480 -1600 506 -1549 531 -1472 
L 2605 4575 
z
" transform="scale(0.015625)"/>
       <path id="CMR17-52" d="M 2509 2156 
C 3117 2278 3629 2689 3629 3203 
C 3629 3806 2950 4352 2054 4352 
L 333 4352 
L 333 4185 
C 774 4185 845 4185 845 3896 
L 845 428 
C 845 140 774 140 333 140 
L 333 -26 
C 518 -13 851 -13 1050 -13 
C 1248 -13 1581 -13 1766 -26 
L 1766 140 
C 1325 140 1254 140 1254 428 
L 1254 2112 
L 2003 2112 
C 2368 2112 2573 1964 2662 1881 
C 2918 1632 2918 1459 2918 1024 
C 2918 595 2918 377 3110 160 
C 3354 -103 3680 -128 3821 -128 
C 4294 -128 4365 403 4365 512 
C 4365 550 4365 595 4307 595 
C 4256 595 4250 556 4250 531 
C 4218 115 4032 -26 3834 -26 
C 3482 -26 3443 377 3405 768 
C 3386 902 3373 998 3360 1139 
C 3322 1459 3270 1926 2509 2156 
z
M 1984 2214 
L 1254 2214 
L 1254 3935 
C 1254 4153 1267 4185 1523 4185 
L 1990 4185 
C 2522 4185 3142 3999 3142 3203 
C 3142 2374 2464 2214 1984 2214 
z
" transform="scale(0.015625)"/>
       <path id="CMR17-70" d="M 1408 -1114 
C 998 -1114 973 -1088 973 -834 
L 973 380 
C 1158 109 1427 -64 1766 -64 
C 2406 -64 3053 503 3053 1382 
C 3053 2196 2496 2816 1837 2816 
C 1453 2816 1139 2603 960 2345 
L 960 2816 
L 198 2745 
L 198 2577 
C 576 2577 634 2539 634 2228 
L 634 -834 
C 634 -1081 608 -1114 198 -1114 
L 198 -1280 
C 352 -1268 634 -1268 800 -1268 
C 966 -1268 1254 -1268 1408 -1280 
L 1408 -1114 
z
M 973 2015 
C 973 2106 973 2241 1222 2481 
C 1254 2506 1472 2700 1792 2700 
C 2259 2700 2643 2112 2643 1376 
C 2643 639 2234 38 1728 38 
C 1498 38 1248 148 1056 451 
C 973 594 973 632 973 736 
L 973 2015 
z
" transform="scale(0.015625)"/>
       <path id="CMR17-6d" d="M 4326 1954 
C 4326 2276 4269 2816 3507 2816 
C 3072 2816 2771 2520 2656 2173 
L 2650 2173 
C 2573 2700 2195 2816 1837 2816 
C 1331 2816 1069 2424 973 2166 
L 966 2166 
L 966 2816 
L 211 2745 
L 211 2578 
C 589 2578 646 2540 646 2231 
L 646 443 
C 646 198 621 166 211 166 
L 211 0 
C 365 12 646 12 813 12 
C 979 12 1267 12 1421 0 
L 1421 166 
C 1011 166 986 192 986 443 
L 986 1678 
C 986 2269 1344 2713 1792 2713 
C 2266 2713 2317 2289 2317 1980 
L 2317 443 
C 2317 198 2291 166 1882 166 
L 1882 0 
C 2035 12 2317 12 2483 12 
C 2650 12 2938 12 3091 0 
L 3091 166 
C 2682 166 2656 192 2656 443 
L 2656 1678 
C 2656 2269 3014 2713 3462 2713 
C 3936 2713 3987 2289 3987 1980 
L 3987 443 
C 3987 198 3962 166 3552 166 
L 3552 0 
C 3706 12 3987 12 4154 12 
C 4320 12 4608 12 4762 0 
L 4762 166 
C 4352 166 4326 192 4326 443 
L 4326 1954 
z
" transform="scale(0.015625)"/>
       <path id="CMR17-74" d="M 966 2585 
L 1862 2585 
L 1862 2752 
L 966 2752 
L 966 3968 
L 851 3968 
C 838 3292 614 2700 70 2687 
L 70 2585 
L 627 2585 
L 627 778 
C 627 655 627 -64 1370 -64 
C 1747 -64 1965 308 1965 784 
L 1965 1151 
L 1850 1151 
L 1850 790 
C 1850 347 1677 51 1408 51 
C 1222 51 966 179 966 765 
L 966 2585 
z
" transform="scale(0.015625)"/>
      </defs>
      <use xlink:href="#CMR17-57" transform="scale(0.996264)"/>
      <use xlink:href="#CMR17-2f" transform="translate(95.09665 0) scale(0.996264)"/>
      <use xlink:href="#CMR17-6f" transform="translate(140.787127 0) scale(0.996264)"/>
      <use xlink:href="#CMR17-52" transform="translate(216.55357 0) scale(0.996264)"/>
      <use xlink:href="#CMR17-65" transform="translate(284.344672 0) scale(0.996264)"/>
      <use xlink:href="#CMR17-70" transform="translate(324.830333 0) scale(0.996264)"/>
      <use xlink:href="#CMR17-6c" transform="translate(375.725703 0) scale(0.996264)"/>
      <use xlink:href="#CMR17-61" transform="translate(400.596761 0) scale(0.996264)"/>
      <use xlink:href="#CMR17-63" transform="translate(446.287238 0) scale(0.996264)"/>
      <use xlink:href="#CMR17-65" transform="translate(486.772899 0) scale(0.996264)"/>
      <use xlink:href="#CMR17-6d" transform="translate(527.258559 0) scale(0.996264)"/>
      <use xlink:href="#CMR17-65" transform="translate(604.178149 0) scale(0.996264)"/>
      <use xlink:href="#CMR17-6e" transform="translate(644.66381 0) scale(0.996264)"/>
      <use xlink:href="#CMR17-74" transform="translate(692.956725 0) scale(0.996264)"/>
     </g>
    </g>
    <g id="patch_8">
     <path d="M 385.584744 144.255159 
L 440.584744 144.255159 
L 440.584744 125.005159 
L 385.584744 125.005159 
z
" style="fill: #4e79a7; fill-opacity: 0.2; stroke: #4e79a7; stroke-opacity: 0.2; stroke-linejoin: miter"/>
    </g>
    <g id="text_15">
     <!-- SD -->
     <g style="fill: #262626" transform="translate(462.584744 144.255159) scale(0.275 -0.275)">
      <defs>
       <path id="CMR17-53" d="M 2803 4351 
C 2803 4467 2797 4473 2758 4473 
C 2720 4473 2707 4447 2682 4390 
L 2490 3965 
C 2246 4320 1875 4480 1472 4480 
C 819 4480 294 3958 294 3301 
C 294 3101 339 2817 557 2546 
C 794 2250 1018 2198 1530 2063 
C 1722 2011 2042 1927 2106 1901 
C 2470 1747 2662 1360 2662 999 
C 2662 534 2336 38 1779 38 
C 1094 38 454 425 410 1328 
C 403 1431 397 1437 352 1437 
C 301 1437 294 1431 294 1302 
L 294 0 
C 294 -116 301 -122 339 -122 
C 384 -122 397 -90 486 109 
C 493 128 493 141 614 386 
C 934 -39 1472 -128 1779 -128 
C 2477 -128 2970 457 2970 1141 
C 2970 1476 2848 1734 2778 1850 
C 2509 2263 2221 2340 1914 2417 
C 1869 2437 1856 2437 1498 2527 
C 1152 2617 1005 2662 845 2836 
C 666 3036 602 3243 602 3449 
C 602 3868 934 4326 1478 4326 
C 2157 4326 2579 3842 2675 3036 
C 2694 2920 2701 2914 2746 2914 
C 2803 2914 2803 2933 2803 3043 
L 2803 4351 
z
" transform="scale(0.015625)"/>
       <path id="CMR17-44" d="M 333 4352 
L 333 4185 
C 774 4185 845 4185 845 3898 
L 845 453 
C 845 166 774 166 333 166 
L 333 0 
L 2368 0 
C 3398 0 4224 943 4224 2140 
C 4224 3344 3411 4352 2368 4352 
L 333 4352 
z
M 1523 166 
C 1267 166 1254 198 1254 414 
L 1254 3936 
C 1254 4153 1267 4185 1523 4185 
L 2240 4185 
C 2771 4185 3750 3873 3750 2140 
C 3750 1242 3488 879 3366 707 
C 3213 510 2848 166 2240 166 
L 1523 166 
z
" transform="scale(0.015625)"/>
      </defs>
      <use xlink:href="#CMR17-53" transform="scale(0.996264)"/>
      <use xlink:href="#CMR17-44" transform="translate(50.89537 0) scale(0.996264)"/>
     </g>
    </g>
    <g id="line2d_14">
     <path d="M 385.584744 172.959159 
L 413.084744 172.959159 
L 440.584744 172.959159 
" style="fill: none; stroke: #f28e2b; stroke-width: 1.5; stroke-linecap: round"/>
     <g>
      <use xlink:href="#mad688f8595" x="413.084744" y="172.959159" style="fill: #f28e2b; stroke: #f28e2b"/>
     </g>
    </g>
    <g id="text_16">
     <!-- W. Replacement -->
     <g style="fill: #262626" transform="translate(462.584744 182.584159) scale(0.275 -0.275)">
      <defs>
       <path id="CMR17-2e" d="M 1062 262 
C 1062 422 934 524 800 524 
C 672 524 538 422 538 262 
C 538 102 666 0 800 0 
C 928 0 1062 102 1062 262 
z
" transform="scale(0.015625)"/>
      </defs>
      <use xlink:href="#CMR17-57" transform="scale(0.996264)"/>
      <use xlink:href="#CMR17-2e" transform="translate(95.09665 0) scale(0.996264)"/>
      <use xlink:href="#CMR17-52" transform="translate(150.043675 0) scale(0.996264)"/>
      <use xlink:href="#CMR17-65" transform="translate(217.834777 0) scale(0.996264)"/>
      <use xlink:href="#CMR17-70" transform="translate(258.320437 0) scale(0.996264)"/>
      <use xlink:href="#CMR17-6c" transform="translate(309.215807 0) scale(0.996264)"/>
      <use xlink:href="#CMR17-61" transform="translate(334.086865 0) scale(0.996264)"/>
      <use xlink:href="#CMR17-63" transform="translate(379.777343 0) scale(0.996264)"/>
      <use xlink:href="#CMR17-65" transform="translate(420.263003 0) scale(0.996264)"/>
      <use xlink:href="#CMR17-6d" transform="translate(460.748663 0) scale(0.996264)"/>
      <use xlink:href="#CMR17-65" transform="translate(537.668253 0) scale(0.996264)"/>
      <use xlink:href="#CMR17-6e" transform="translate(578.153914 0) scale(0.996264)"/>
      <use xlink:href="#CMR17-74" transform="translate(626.44683 0) scale(0.996264)"/>
     </g>
    </g>
    <g id="patch_9">
     <path d="M 385.584744 220.913159 
L 440.584744 220.913159 
L 440.584744 201.663159 
L 385.584744 201.663159 
z
" style="fill: #f28e2b; fill-opacity: 0.2; stroke: #f28e2b; stroke-opacity: 0.2; stroke-linejoin: miter"/>
    </g>
    <g id="text_17">
     <!-- SD -->
     <g style="fill: #262626" transform="translate(462.584744 220.913159) scale(0.275 -0.275)">
      <use xlink:href="#CMR17-53" transform="scale(0.996264)"/>
      <use xlink:href="#CMR17-44" transform="translate(50.89537 0) scale(0.996264)"/>
     </g>
    </g>
   </g>
  </g>
 </g>
 <defs>
  <clipPath id="pf06a5da50a">
   <rect x="105.050424" y="59.155495" width="582.549576" height="276.020693"/>
  </clipPath>
 </defs>
</svg>
