<?xml version="1.0" encoding="utf-8" standalone="no"?>
<!DOCTYPE svg PUBLIC "-//W3C//DTD SVG 1.1//EN"
  "http://www.w3.org/Graphics/SVG/1.1/DTD/svg11.dtd">
<svg xmlns:xlink="http://www.w3.org/1999/xlink" width="720pt" height="432pt" viewBox="0 0 720 432" xmlns="http://www.w3.org/2000/svg" version="1.1">
 <metadata>
  <rdf:RDF xmlns:dc="http://purl.org/dc/elements/1.1/" xmlns:cc="http://creativecommons.org/ns#" xmlns:rdf="http://www.w3.org/1999/02/22-rdf-syntax-ns#">
   <cc:Work>
    <dc:type rdf:resource="http://purl.org/dc/dcmitype/StillImage"/>
    <dc:date>2025-06-12T13:53:38.346012</dc:date>
    <dc:format>image/svg+xml</dc:format>
    <dc:creator>
     <cc:Agent>
      <dc:title>Matplotlib v3.5.1, https://matplotlib.org/</dc:title>
     </cc:Agent>
    </dc:creator>
   </cc:Work>
  </rdf:RDF>
 </metadata>
 <defs>
  <style type="text/css">*{stroke-linejoin: round; stroke-linecap: butt}</style>
 </defs>
 <g id="figure_1">
  <g id="patch_1">
   <path d="M 0 432 
L 720 432 
L 720 0 
L 0 0 
z
" style="fill: #ffffff"/>
  </g>
  <g id="axes_1">
   <g id="patch_2">
    <path d="M 90 378 
L 648 378 
L 648 51.84 
L 90 51.84 
z
" style="fill: #ffffff"/>
   </g>
   <g id="matplotlib.axis_1">
    <g id="xtick_1">
     <g id="line2d_1">
      <path d="M 115.363636 378 
L 115.363636 51.84 
" clip-path="url(#p6cc200958c)" style="fill: none; stroke: #cccccc; stroke-linecap: round"/>
     </g>
     <g id="text_1">
      <!-- $\mathdefault{0}$ -->
      <g style="fill: #262626" transform="translate(109.081196 406.525867)scale(0.275 -0.275)">
       <defs>
        <path id="CMR17-30" d="M 2688 2038 
C 2688 2430 2682 3099 2413 3613 
C 2176 4063 1798 4224 1466 4224 
C 1158 4224 768 4082 525 3620 
C 269 3137 243 2539 243 2038 
C 243 1671 250 1112 448 623 
C 723 -39 1216 -128 1466 -128 
C 1760 -128 2208 -7 2470 604 
C 2662 1048 2688 1568 2688 2038 
z
M 1466 -26 
C 1056 -26 813 328 723 816 
C 653 1196 653 1749 653 2109 
C 653 2604 653 3015 736 3407 
C 858 3954 1216 4121 1466 4121 
C 1728 4121 2067 3947 2189 3420 
C 2272 3054 2278 2623 2278 2109 
C 2278 1691 2278 1176 2202 797 
C 2067 96 1690 -26 1466 -26 
z
" transform="scale(0.015625)"/>
       </defs>
       <use xlink:href="#CMR17-30" transform="scale(0.996264)"/>
      </g>
     </g>
    </g>
    <g id="xtick_2">
     <g id="line2d_2">
      <path d="M 214.828877 378 
L 214.828877 51.84 
" clip-path="url(#p6cc200958c)" style="fill: none; stroke: #cccccc; stroke-linecap: round"/>
     </g>
     <g id="text_2">
      <!-- $\mathdefault{50}$ -->
      <g style="fill: #262626" transform="translate(202.263996 406.525867)scale(0.275 -0.275)">
       <defs>
        <path id="CMR17-35" d="M 730 3750 
C 794 3724 1056 3641 1325 3641 
C 1920 3641 2246 3961 2432 4140 
C 2432 4191 2432 4224 2394 4224 
C 2387 4224 2374 4224 2323 4198 
C 2099 4102 1837 4032 1517 4032 
C 1325 4032 1037 4055 723 4191 
C 653 4224 640 4224 634 4224 
C 602 4224 595 4217 595 4090 
L 595 2231 
C 595 2113 595 2080 659 2080 
C 691 2080 704 2093 736 2139 
C 941 2435 1222 2560 1542 2560 
C 1766 2560 2246 2415 2246 1293 
C 2246 1087 2246 716 2054 422 
C 1894 159 1645 25 1370 25 
C 947 25 518 319 403 812 
C 429 806 480 793 506 793 
C 589 793 749 838 749 1036 
C 749 1209 627 1280 506 1280 
C 358 1280 262 1190 262 1011 
C 262 454 704 -128 1382 -128 
C 2042 -128 2669 441 2669 1267 
C 2669 2054 2170 2662 1549 2662 
C 1222 2662 947 2540 730 2304 
L 730 3750 
z
" transform="scale(0.015625)"/>
       </defs>
       <use xlink:href="#CMR17-35" transform="scale(0.996264)"/>
       <use xlink:href="#CMR17-30" transform="translate(45.690477 0)scale(0.996264)"/>
      </g>
     </g>
    </g>
    <g id="xtick_3">
     <g id="line2d_3">
      <path d="M 314.294118 378 
L 314.294118 51.84 
" clip-path="url(#p6cc200958c)" style="fill: none; stroke: #cccccc; stroke-linecap: round"/>
     </g>
     <g id="text_3">
      <!-- $\mathdefault{100}$ -->
      <g style="fill: #262626" transform="translate(295.446796 406.525867)scale(0.275 -0.275)">
       <defs>
        <path id="CMR17-31" d="M 1702 4083 
C 1702 4217 1696 4224 1606 4224 
C 1357 3927 979 3833 621 3820 
C 602 3820 570 3820 563 3808 
C 557 3795 557 3782 557 3648 
C 755 3648 1088 3686 1344 3839 
L 1344 467 
C 1344 243 1331 166 781 166 
L 589 166 
L 589 0 
C 896 6 1216 12 1523 12 
C 1830 12 2150 6 2458 0 
L 2458 166 
L 2266 166 
C 1715 166 1702 236 1702 467 
L 1702 4083 
z
" transform="scale(0.015625)"/>
       </defs>
       <use xlink:href="#CMR17-31" transform="scale(0.996264)"/>
       <use xlink:href="#CMR17-30" transform="translate(45.690477 0)scale(0.996264)"/>
       <use xlink:href="#CMR17-30" transform="translate(91.380954 0)scale(0.996264)"/>
      </g>
     </g>
    </g>
    <g id="xtick_4">
     <g id="line2d_4">
      <path d="M 413.759358 378 
L 413.759358 51.84 
" clip-path="url(#p6cc200958c)" style="fill: none; stroke: #cccccc; stroke-linecap: round"/>
     </g>
     <g id="text_4">
      <!-- $\mathdefault{150}$ -->
      <g style="fill: #262626" transform="translate(394.912036 406.525867)scale(0.275 -0.275)">
       <use xlink:href="#CMR17-31" transform="scale(0.996264)"/>
       <use xlink:href="#CMR17-35" transform="translate(45.690477 0)scale(0.996264)"/>
       <use xlink:href="#CMR17-30" transform="translate(91.380954 0)scale(0.996264)"/>
      </g>
     </g>
    </g>
    <g id="xtick_5">
     <g id="line2d_5">
      <path d="M 513.224599 378 
L 513.224599 51.84 
" clip-path="url(#p6cc200958c)" style="fill: none; stroke: #cccccc; stroke-linecap: round"/>
     </g>
     <g id="text_5">
      <!-- $\mathdefault{200}$ -->
      <g style="fill: #262626" transform="translate(494.377277 406.525867)scale(0.275 -0.275)">
       <defs>
        <path id="CMR17-32" d="M 2669 990 
L 2554 990 
C 2490 537 2438 460 2413 422 
C 2381 371 1920 371 1830 371 
L 602 371 
C 832 620 1280 1073 1824 1596 
C 2214 1966 2669 2400 2669 3033 
C 2669 3788 2067 4224 1395 4224 
C 691 4224 262 3603 262 3027 
C 262 2777 448 2745 525 2745 
C 589 2745 781 2783 781 3007 
C 781 3206 614 3264 525 3264 
C 486 3264 448 3257 422 3244 
C 544 3788 915 4057 1306 4057 
C 1862 4057 2227 3616 2227 3033 
C 2227 2477 1901 1998 1536 1583 
L 262 147 
L 262 0 
L 2515 0 
L 2669 990 
z
" transform="scale(0.015625)"/>
       </defs>
       <use xlink:href="#CMR17-32" transform="scale(0.996264)"/>
       <use xlink:href="#CMR17-30" transform="translate(45.690477 0)scale(0.996264)"/>
       <use xlink:href="#CMR17-30" transform="translate(91.380954 0)scale(0.996264)"/>
      </g>
     </g>
    </g>
    <g id="xtick_6">
     <g id="line2d_6">
      <path d="M 612.68984 378 
L 612.68984 51.84 
" clip-path="url(#p6cc200958c)" style="fill: none; stroke: #cccccc; stroke-linecap: round"/>
     </g>
     <g id="text_6">
      <!-- $\mathdefault{250}$ -->
      <g style="fill: #262626" transform="translate(593.842518 406.525867)scale(0.275 -0.275)">
       <use xlink:href="#CMR17-32" transform="scale(0.996264)"/>
       <use xlink:href="#CMR17-35" transform="translate(45.690477 0)scale(0.996264)"/>
       <use xlink:href="#CMR17-30" transform="translate(91.380954 0)scale(0.996264)"/>
      </g>
     </g>
    </g>
    <g id="text_7">
     <!-- Time Index -->
     <g style="fill: #262626" transform="translate(299.689541 436.610362)scale(0.3 -0.3)">
      <defs>
       <path id="CMR17-54" d="M 3981 4332 
L 288 4332 
L 179 2924 
L 294 2924 
C 378 3981 467 4166 1453 4166 
C 1568 4166 1754 4166 1805 4159 
C 1926 4140 1926 4064 1926 3917 
L 1926 465 
C 1926 236 1907 166 1376 166 
L 1197 166 
L 1197 0 
C 1504 6 1824 12 2138 12 
C 2451 12 2771 6 3078 0 
L 3078 166 
L 2899 166 
C 2368 166 2349 236 2349 465 
L 2349 3917 
C 2349 4057 2349 4134 2464 4159 
C 2515 4166 2701 4166 2816 4166 
C 3795 4166 3891 3981 3974 2924 
L 4090 2924 
L 3981 4332 
z
" transform="scale(0.015625)"/>
       <path id="CMR17-69" d="M 992 3961 
C 992 4102 877 4224 730 4224 
C 589 4224 467 4108 467 3961 
C 467 3820 582 3699 730 3699 
C 870 3699 992 3814 992 3961 
z
M 243 2745 
L 243 2579 
C 602 2579 653 2540 653 2231 
L 653 443 
C 653 198 627 166 218 166 
L 218 0 
C 371 12 646 12 806 12 
C 960 12 1222 12 1370 0 
L 1370 166 
C 992 166 979 205 979 436 
L 979 2816 
L 243 2745 
z
" transform="scale(0.015625)"/>
       <path id="CMR17-6d" d="M 4326 1954 
C 4326 2276 4269 2816 3507 2816 
C 3072 2816 2771 2520 2656 2173 
L 2650 2173 
C 2573 2700 2195 2816 1837 2816 
C 1331 2816 1069 2424 973 2166 
L 966 2166 
L 966 2816 
L 211 2745 
L 211 2578 
C 589 2578 646 2540 646 2231 
L 646 443 
C 646 198 621 166 211 166 
L 211 0 
C 365 12 646 12 813 12 
C 979 12 1267 12 1421 0 
L 1421 166 
C 1011 166 986 192 986 443 
L 986 1678 
C 986 2269 1344 2713 1792 2713 
C 2266 2713 2317 2289 2317 1980 
L 2317 443 
C 2317 198 2291 166 1882 166 
L 1882 0 
C 2035 12 2317 12 2483 12 
C 2650 12 2938 12 3091 0 
L 3091 166 
C 2682 166 2656 192 2656 443 
L 2656 1678 
C 2656 2269 3014 2713 3462 2713 
C 3936 2713 3987 2289 3987 1980 
L 3987 443 
C 3987 198 3962 166 3552 166 
L 3552 0 
C 3706 12 3987 12 4154 12 
C 4320 12 4608 12 4762 0 
L 4762 166 
C 4352 166 4326 192 4326 443 
L 4326 1954 
z
" transform="scale(0.015625)"/>
       <path id="CMR17-65" d="M 2438 1503 
C 2464 1529 2464 1542 2464 1606 
C 2464 2251 2118 2816 1389 2816 
C 710 2816 173 2175 173 1394 
C 173 554 781 -64 1459 -64 
C 2176 -64 2458 619 2458 755 
C 2458 800 2419 800 2406 800 
C 2362 800 2355 787 2330 709 
C 2189 270 1837 51 1504 51 
C 1229 51 954 206 781 490 
C 582 819 582 1200 582 1503 
L 2438 1503 
z
M 589 1600 
C 634 2511 1126 2713 1382 2713 
C 1818 2713 2112 2308 2118 1600 
L 589 1600 
z
" transform="scale(0.015625)"/>
       <path id="CMR17-49" d="M 1261 3898 
C 1261 4185 1338 4185 1798 4185 
L 1798 4352 
C 1594 4339 1267 4339 1050 4339 
C 832 4339 506 4339 301 4352 
L 301 4185 
C 762 4185 838 4185 838 3898 
L 838 453 
C 838 166 762 166 301 166 
L 301 0 
C 506 12 832 12 1050 12 
C 1267 12 1594 12 1798 0 
L 1798 166 
C 1338 166 1261 166 1261 453 
L 1261 3898 
z
" transform="scale(0.015625)"/>
       <path id="CMR17-6e" d="M 2656 1954 
C 2656 2282 2592 2816 1837 2816 
C 1331 2816 1069 2424 973 2166 
L 966 2166 
L 966 2816 
L 211 2745 
L 211 2578 
C 589 2578 646 2540 646 2231 
L 646 443 
C 646 198 621 166 211 166 
L 211 0 
C 365 12 646 12 813 12 
C 979 12 1267 12 1421 0 
L 1421 166 
C 1011 166 986 192 986 443 
L 986 1678 
C 986 2269 1344 2713 1792 2713 
C 2266 2713 2317 2289 2317 1980 
L 2317 443 
C 2317 198 2291 166 1882 166 
L 1882 0 
C 2035 12 2317 12 2483 12 
C 2650 12 2938 12 3091 0 
L 3091 166 
C 2682 166 2656 192 2656 443 
L 2656 1954 
z
" transform="scale(0.015625)"/>
       <path id="CMR17-64" d="M 1869 4345 
L 1869 4179 
C 2246 4179 2304 4141 2304 3843 
L 2304 2371 
C 2278 2403 2016 2816 1498 2816 
C 845 2816 211 2228 211 1376 
C 211 529 806 -64 1434 -64 
C 1978 -64 2259 361 2291 406 
L 2291 -64 
L 3066 -13 
L 3066 154 
C 2688 154 2630 193 2630 503 
L 2630 4416 
L 1869 4345 
z
M 2291 762 
C 2291 568 2176 393 2029 264 
C 1811 70 1594 38 1472 38 
C 1286 38 621 135 621 1369 
C 621 2636 1363 2713 1530 2713 
C 1824 2713 2061 2545 2208 2313 
C 2291 2177 2291 2157 2291 2041 
L 2291 762 
z
" transform="scale(0.015625)"/>
       <path id="CMR17-78" d="M 1664 1491 
C 1856 1740 2074 2022 2253 2233 
C 2464 2476 2707 2579 2989 2585 
L 2989 2752 
C 2880 2745 2656 2739 2541 2739 
C 2368 2739 2170 2739 2022 2752 
L 2022 2585 
C 2112 2572 2163 2508 2163 2419 
C 2163 2304 2099 2233 2067 2188 
L 1594 1587 
L 1030 2323 
C 973 2393 973 2406 973 2438 
C 973 2515 1037 2579 1146 2585 
L 1146 2752 
C 992 2739 717 2739 557 2739 
C 384 2739 179 2739 38 2752 
L 38 2585 
C 384 2585 461 2560 614 2368 
L 1350 1414 
C 1363 1401 1395 1363 1395 1344 
C 1395 1318 838 633 768 544 
C 480 198 179 172 6 166 
L 6 0 
C 115 6 339 12 454 12 
C 582 12 864 12 979 0 
L 979 166 
C 941 172 838 185 838 332 
C 838 448 890 518 947 595 
L 1478 1248 
L 2035 524 
C 2086 454 2163 358 2163 313 
C 2163 224 2086 172 1984 166 
L 1984 0 
C 2138 12 2413 12 2573 12 
C 2746 12 2950 12 3091 0 
L 3091 166 
C 2771 166 2675 179 2522 377 
L 1664 1491 
z
" transform="scale(0.015625)"/>
      </defs>
      <use xlink:href="#CMR17-54" transform="scale(0.996264)"/>
      <use xlink:href="#CMR17-69" transform="translate(66.509881 0)scale(0.996264)"/>
      <use xlink:href="#CMR17-6d" transform="translate(91.380939 0)scale(0.996264)"/>
      <use xlink:href="#CMR17-65" transform="translate(168.300529 0)scale(0.996264)"/>
      <use xlink:href="#CMR17-49" transform="translate(238.862156 0)scale(0.996264)"/>
      <use xlink:href="#CMR17-6e" transform="translate(271.500565 0)scale(0.996264)"/>
      <use xlink:href="#CMR17-64" transform="translate(322.395935 0)scale(0.996264)"/>
      <use xlink:href="#CMR17-65" transform="translate(373.291304 0)scale(0.996264)"/>
      <use xlink:href="#CMR17-78" transform="translate(413.776965 0)scale(0.996264)"/>
     </g>
    </g>
   </g>
   <g id="matplotlib.axis_2">
    <g id="ytick_1">
     <g id="line2d_7">
      <path d="M 90 315.874286 
L 648 315.874286 
" clip-path="url(#p6cc200958c)" style="fill: none; stroke: #cccccc; stroke-linecap: round"/>
     </g>
     <g id="text_8">
      <!-- $\mathdefault{−2.5}$ -->
      <g style="fill: #262626" transform="translate(26.609469 325.387219)scale(0.275 -0.275)">
       <defs>
        <path id="CMSY10-0" d="M 4218 1472 
C 4326 1472 4442 1472 4442 1600 
C 4442 1728 4326 1728 4218 1728 
L 755 1728 
C 646 1728 531 1728 531 1600 
C 531 1472 646 1472 755 1472 
L 4218 1472 
z
" transform="scale(0.015625)"/>
        <path id="CMMI12-3a" d="M 1178 307 
C 1178 492 1024 620 870 620 
C 685 620 557 467 557 313 
C 557 128 710 0 864 0 
C 1050 0 1178 153 1178 307 
z
" transform="scale(0.015625)"/>
       </defs>
       <use xlink:href="#CMSY10-0" transform="scale(0.996264)"/>
       <use xlink:href="#CMR17-32" transform="translate(77.487468 0)scale(0.996264)"/>
       <use xlink:href="#CMMI12-3a" transform="translate(123.177945 0)scale(0.996264)"/>
       <use xlink:href="#CMR17-35" transform="translate(150.275122 0)scale(0.996264)"/>
      </g>
     </g>
    </g>
    <g id="ytick_2">
     <g id="line2d_8">
      <path d="M 90 238.217143 
L 648 238.217143 
" clip-path="url(#p6cc200958c)" style="fill: none; stroke: #cccccc; stroke-linecap: round"/>
     </g>
     <g id="text_9">
      <!-- $\mathdefault{0.0}$ -->
      <g style="fill: #262626" transform="translate(47.918521 247.730076)scale(0.275 -0.275)">
       <use xlink:href="#CMR17-30" transform="scale(0.996264)"/>
       <use xlink:href="#CMMI12-3a" transform="translate(45.690477 0)scale(0.996264)"/>
       <use xlink:href="#CMR17-30" transform="translate(72.787654 0)scale(0.996264)"/>
      </g>
     </g>
    </g>
    <g id="ytick_3">
     <g id="line2d_9">
      <path d="M 90 160.56 
L 648 160.56 
" clip-path="url(#p6cc200958c)" style="fill: none; stroke: #cccccc; stroke-linecap: round"/>
     </g>
     <g id="text_10">
      <!-- $\mathdefault{2.5}$ -->
      <g style="fill: #262626" transform="translate(47.918521 170.072933)scale(0.275 -0.275)">
       <use xlink:href="#CMR17-32" transform="scale(0.996264)"/>
       <use xlink:href="#CMMI12-3a" transform="translate(45.690477 0)scale(0.996264)"/>
       <use xlink:href="#CMR17-35" transform="translate(72.787654 0)scale(0.996264)"/>
      </g>
     </g>
    </g>
    <g id="ytick_4">
     <g id="line2d_10">
      <path d="M 90 82.902857 
L 648 82.902857 
" clip-path="url(#p6cc200958c)" style="fill: none; stroke: #cccccc; stroke-linecap: round"/>
     </g>
     <g id="text_11">
      <!-- $\mathdefault{5.0}$ -->
      <g style="fill: #262626" transform="translate(47.918521 92.415791)scale(0.275 -0.275)">
       <use xlink:href="#CMR17-35" transform="scale(0.996264)"/>
       <use xlink:href="#CMMI12-3a" transform="translate(45.690477 0)scale(0.996264)"/>
       <use xlink:href="#CMR17-30" transform="translate(72.787654 0)scale(0.996264)"/>
      </g>
     </g>
    </g>
    <g id="text_12">
     <!-- Signal Amplitude -->
     <g style="fill: #262626" transform="translate(16.796018 319.496428)rotate(-90)scale(0.3 -0.3)">
      <defs>
       <path id="CMR17-53" d="M 2803 4351 
C 2803 4467 2797 4473 2758 4473 
C 2720 4473 2707 4447 2682 4390 
L 2490 3965 
C 2246 4320 1875 4480 1472 4480 
C 819 4480 294 3958 294 3301 
C 294 3101 339 2817 557 2546 
C 794 2250 1018 2198 1530 2063 
C 1722 2011 2042 1927 2106 1901 
C 2470 1747 2662 1360 2662 999 
C 2662 534 2336 38 1779 38 
C 1094 38 454 425 410 1328 
C 403 1431 397 1437 352 1437 
C 301 1437 294 1431 294 1302 
L 294 0 
C 294 -116 301 -122 339 -122 
C 384 -122 397 -90 486 109 
C 493 128 493 141 614 386 
C 934 -39 1472 -128 1779 -128 
C 2477 -128 2970 457 2970 1141 
C 2970 1476 2848 1734 2778 1850 
C 2509 2263 2221 2340 1914 2417 
C 1869 2437 1856 2437 1498 2527 
C 1152 2617 1005 2662 845 2836 
C 666 3036 602 3243 602 3449 
C 602 3868 934 4326 1478 4326 
C 2157 4326 2579 3842 2675 3036 
C 2694 2920 2701 2914 2746 2914 
C 2803 2914 2803 2933 2803 3043 
L 2803 4351 
z
" transform="scale(0.015625)"/>
       <path id="CMR17-67" d="M 710 1165 
C 832 1068 1043 960 1299 960 
C 1805 960 2240 1359 2240 1895 
C 2240 2063 2189 2321 1997 2521 
C 2176 2713 2438 2777 2586 2777 
C 2611 2777 2650 2777 2682 2758 
C 2656 2751 2598 2726 2598 2623 
C 2598 2540 2656 2483 2739 2483 
C 2835 2483 2886 2547 2886 2630 
C 2886 2751 2790 2880 2586 2880 
C 2330 2880 2106 2758 1926 2591 
C 1734 2764 1504 2828 1299 2828 
C 794 2828 358 2431 358 1895 
C 358 1527 570 1294 634 1230 
C 442 1004 442 742 442 710 
C 442 544 506 300 723 166 
C 390 82 128 -184 128 -517 
C 128 -996 736 -1344 1466 -1344 
C 2170 -1344 2803 -1009 2803 -510 
C 2803 384 1856 384 1363 384 
C 1216 384 954 384 922 390 
C 723 422 589 601 589 825 
C 589 883 589 1024 710 1165 
z
M 1299 1068 
C 736 1068 736 1766 736 1895 
C 736 2024 736 2719 1299 2719 
C 1862 2719 1862 2024 1862 1895 
C 1862 1766 1862 1068 1299 1068 
z
M 1466 -1236 
C 826 -1236 384 -883 384 -517 
C 384 -311 493 -118 634 -11 
C 794 102 858 102 1293 102 
C 1818 102 2547 102 2547 -517 
C 2547 -883 2106 -1236 1466 -1236 
z
" transform="scale(0.015625)"/>
       <path id="CMR17-61" d="M 2304 1656 
C 2304 2048 2304 2275 2035 2534 
C 1798 2751 1523 2816 1306 2816 
C 800 2816 435 2408 435 1977 
C 435 1740 627 1728 666 1728 
C 749 1728 896 1779 896 1958 
C 896 2118 774 2188 666 2188 
C 640 2188 608 2182 589 2176 
C 723 2594 1069 2713 1293 2713 
C 1613 2713 1965 2421 1965 1875 
L 1965 1632 
C 1587 1619 1133 1568 774 1373 
C 371 1147 256 822 256 576 
C 256 77 832 -64 1171 -64 
C 1523 -64 1850 135 1990 505 
C 2003 219 2182 -39 2464 -39 
C 2598 -39 2938 51 2938 563 
L 2938 926 
L 2822 926 
L 2822 557 
C 2822 161 2650 109 2566 109 
C 2304 109 2304 446 2304 732 
L 2304 1656 
z
M 1965 887 
C 1965 323 1568 38 1216 38 
C 896 38 646 278 646 576 
C 646 771 730 1114 1101 1322 
C 1408 1497 1760 1523 1965 1536 
L 1965 887 
z
" transform="scale(0.015625)"/>
       <path id="CMR17-6c" d="M 979 4416 
L 218 4345 
L 218 4179 
C 595 4179 653 4141 653 3835 
L 653 439 
C 653 198 627 166 218 166 
L 218 0 
C 371 12 653 12 813 12 
C 979 12 1261 12 1414 0 
L 1414 166 
C 1005 166 979 191 979 439 
L 979 4416 
z
" transform="scale(0.015625)"/>
       <path id="CMR17-41" d="M 2323 4441 
C 2291 4524 2278 4544 2214 4544 
C 2150 4544 2138 4524 2106 4441 
L 749 580 
C 627 236 371 166 147 166 
L 147 0 
C 262 12 518 12 640 12 
C 800 12 1056 12 1210 0 
L 1210 166 
C 909 179 864 382 864 459 
C 864 516 877 548 890 586 
L 1229 1536 
L 2906 1536 
L 3290 453 
C 3322 376 3322 363 3322 338 
C 3322 166 3046 166 2925 166 
L 2925 0 
C 3110 12 3443 12 3642 12 
C 3808 12 4128 12 4282 0 
L 4282 166 
C 3942 166 3827 166 3744 402 
L 2323 4441 
z
M 2067 3924 
L 2848 1702 
L 1286 1702 
L 2067 3924 
z
" transform="scale(0.015625)"/>
       <path id="CMR17-70" d="M 1408 -1114 
C 998 -1114 973 -1088 973 -834 
L 973 380 
C 1158 109 1427 -64 1766 -64 
C 2406 -64 3053 503 3053 1382 
C 3053 2196 2496 2816 1837 2816 
C 1453 2816 1139 2603 960 2345 
L 960 2816 
L 198 2745 
L 198 2577 
C 576 2577 634 2539 634 2228 
L 634 -834 
C 634 -1081 608 -1114 198 -1114 
L 198 -1280 
C 352 -1268 634 -1268 800 -1268 
C 966 -1268 1254 -1268 1408 -1280 
L 1408 -1114 
z
M 973 2015 
C 973 2106 973 2241 1222 2481 
C 1254 2506 1472 2700 1792 2700 
C 2259 2700 2643 2112 2643 1376 
C 2643 639 2234 38 1728 38 
C 1498 38 1248 148 1056 451 
C 973 594 973 632 973 736 
L 973 2015 
z
" transform="scale(0.015625)"/>
       <path id="CMR17-74" d="M 966 2585 
L 1862 2585 
L 1862 2752 
L 966 2752 
L 966 3968 
L 851 3968 
C 838 3292 614 2700 70 2687 
L 70 2585 
L 627 2585 
L 627 778 
C 627 655 627 -64 1370 -64 
C 1747 -64 1965 308 1965 784 
L 1965 1151 
L 1850 1151 
L 1850 790 
C 1850 347 1677 51 1408 51 
C 1222 51 966 179 966 765 
L 966 2585 
z
" transform="scale(0.015625)"/>
       <path id="CMR17-75" d="M 1882 2745 
L 1882 2579 
C 2259 2579 2317 2540 2317 2229 
L 2317 1053 
C 2317 510 2029 38 1555 38 
C 1030 38 986 355 986 691 
L 986 2816 
L 211 2745 
L 211 2579 
C 467 2579 640 2579 646 2320 
L 646 1079 
C 646 646 646 368 813 187 
C 896 103 1056 -64 1517 -64 
C 2061 -64 2272 400 2323 536 
L 2330 536 
L 2330 -64 
L 3091 -13 
L 3091 154 
C 2714 154 2656 193 2656 503 
L 2656 2816 
L 1882 2745 
z
" transform="scale(0.015625)"/>
      </defs>
      <use xlink:href="#CMR17-53" transform="scale(0.996264)"/>
      <use xlink:href="#CMR17-69" transform="translate(50.89537 0)scale(0.996264)"/>
      <use xlink:href="#CMR17-67" transform="translate(75.766428 0)scale(0.996264)"/>
      <use xlink:href="#CMR17-6e" transform="translate(121.456905 0)scale(0.996264)"/>
      <use xlink:href="#CMR17-61" transform="translate(172.352275 0)scale(0.996264)"/>
      <use xlink:href="#CMR17-6c" transform="translate(218.042752 0)scale(0.996264)"/>
      <use xlink:href="#CMR17-41" transform="translate(272.989777 0)scale(0.996264)"/>
      <use xlink:href="#CMR17-6d" transform="translate(342.062207 0)scale(0.996264)"/>
      <use xlink:href="#CMR17-70" transform="translate(418.981797 0)scale(0.996264)"/>
      <use xlink:href="#CMR17-6c" transform="translate(469.877167 0)scale(0.996264)"/>
      <use xlink:href="#CMR17-69" transform="translate(494.748225 0)scale(0.996264)"/>
      <use xlink:href="#CMR17-74" transform="translate(519.619284 0)scale(0.996264)"/>
      <use xlink:href="#CMR17-75" transform="translate(554.900051 0)scale(0.996264)"/>
      <use xlink:href="#CMR17-64" transform="translate(605.795421 0)scale(0.996264)"/>
      <use xlink:href="#CMR17-65" transform="translate(656.690791 0)scale(0.996264)"/>
     </g>
    </g>
   </g>
   <g id="line2d_11">
    <path d="M 115.363636 243.029358 
L 117.352941 240.792407 
L 119.342246 237.216913 
L 121.331551 240.282951 
L 123.320856 237.883328 
L 125.31016 237.745155 
L 127.299465 231.117511 
L 129.28877 238.746912 
L 131.278075 237.818918 
L 133.26738 233.913396 
L 135.256684 233.979614 
L 137.245989 236.262598 
L 139.235294 240.231645 
L 141.224599 237.955458 
L 143.213904 241.093747 
L 145.203209 233.775638 
L 147.192513 241.29295 
L 149.181818 231.688407 
L 151.171123 234.388207 
L 153.160428 232.380991 
L 155.149733 233.668182 
L 157.139037 236.004166 
L 159.128342 228.904623 
L 161.117647 230.610416 
L 163.106952 226.798391 
L 165.096257 231.57877 
L 167.085561 231.926833 
L 171.064171 225.424212 
L 173.053476 224.964585 
L 175.042781 222.782471 
L 177.032086 225.306823 
L 179.02139 224.178535 
L 181.010695 224.810866 
L 183 219.66261 
L 184.989305 221.087275 
L 186.97861 218.297299 
L 188.967914 220.540748 
L 190.957219 217.082412 
L 192.946524 212.950935 
L 194.935829 219.185453 
L 196.925134 219.484454 
L 198.914439 216.966808 
L 200.903743 212.712284 
L 202.893048 212.864055 
L 204.882353 219.475764 
L 206.871658 208.007652 
L 208.860963 209.894427 
L 210.850267 217.023611 
L 212.839572 211.713113 
L 214.828877 204.737331 
L 216.818182 204.854721 
L 218.807487 204.753264 
L 220.796791 209.799859 
L 222.786096 212.610256 
L 224.775401 208.140496 
L 226.764706 200.679853 
L 228.754011 200.539256 
L 230.743316 205.125704 
L 232.73262 202.134466 
L 234.721925 205.877903 
L 236.71123 199.359349 
L 238.700535 206.185217 
L 240.68984 197.532287 
L 242.679144 201.234424 
L 244.668449 236.430034 
L 246.657754 233.129349 
L 248.647059 242.8949 
L 250.636364 240.065543 
L 252.625668 240.268569 
L 254.614973 236.893909 
L 256.604278 237.579169 
L 258.593583 238.817176 
L 260.582888 234.820206 
L 262.572193 191.422903 
L 264.561497 191.014688 
L 266.550802 189.035342 
L 268.540107 200.296803 
L 270.529412 196.370407 
L 272.518717 189.263189 
L 274.508021 196.57523 
L 276.497326 191.092886 
L 278.486631 196.319956 
L 280.475936 197.692932 
L 282.465241 200.227833 
L 284.454545 201.880397 
L 286.44385 200.650677 
L 288.433155 197.074049 
L 290.42246 201.604192 
L 292.411765 202.248305 
L 294.40107 206.303397 
L 296.390374 211.353895 
L 298.379679 205.855321 
L 300.368984 207.331806 
L 302.358289 215.291777 
L 304.347594 212.370358 
L 306.336898 215.226186 
L 308.326203 216.94931 
L 310.315508 215.551663 
L 312.304813 219.271475 
L 314.294118 221.981893 
L 316.283422 218.329527 
L 318.272727 228.208739 
L 320.262032 227.393218 
L 322.251337 220.914876 
L 324.240642 224.046593 
L 326.229947 227.901131 
L 328.219251 228.566767 
L 332.197861 235.315336 
L 334.187166 232.59958 
L 336.176471 231.236469 
L 338.165775 229.281367 
L 340.15508 232.678986 
L 342.144385 236.49681 
L 344.13369 237.267431 
L 346.122995 245.832749 
L 348.112299 236.898333 
L 350.101604 241.201676 
L 352.090909 239.317771 
L 354.080214 238.494432 
L 356.069519 238.441122 
L 358.058824 235.637501 
L 360.048128 241.814612 
L 362.037433 242.398712 
L 364.026738 240.113819 
L 366.016043 235.256105 
L 368.005348 237.30748 
L 369.994652 231.484931 
L 371.983957 234.012286 
L 373.973262 239.016762 
L 375.962567 235.155398 
L 377.951872 240.295773 
L 379.941176 236.936813 
L 381.930481 191.002256 
L 383.919786 193.634449 
L 385.909091 189.054155 
L 387.898396 197.670814 
L 389.887701 192.43866 
L 391.877005 189.778162 
L 393.86631 189.552978 
L 395.855615 192.785395 
L 397.84492 194.978565 
L 399.834225 189.767341 
L 401.823529 192.2567 
L 403.812834 197.65543 
L 405.802139 189.510541 
L 407.791444 189.335186 
L 409.780749 189.900507 
L 411.770053 195.280294 
L 413.759358 196.272882 
L 415.748663 191.024215 
L 417.737968 197.811048 
L 419.727273 191.924206 
L 423.705882 194.623487 
L 425.695187 194.976472 
L 427.684492 195.586792 
L 429.673797 188.668948 
L 431.663102 190.966837 
L 433.652406 189.886498 
L 435.641711 193.873381 
L 437.631016 194.527867 
L 439.620321 195.468322 
L 441.609626 187.887304 
L 443.59893 192.56868 
L 445.588235 190.414387 
L 447.57754 198.65807 
L 449.566845 191.96771 
L 451.55615 186.701928 
L 453.545455 188.533794 
L 455.534759 235.127875 
L 457.524064 239.195967 
L 459.513369 239.671649 
L 461.502674 236.862808 
L 463.491979 242.050453 
L 465.481283 246.41029 
L 467.470588 237.076468 
L 469.459893 239.517744 
L 471.449198 239.15538 
L 473.438503 231.743225 
L 475.427807 235.526579 
L 477.417112 243.389066 
L 479.406417 239.059551 
L 481.395722 235.832859 
L 483.385027 233.33305 
L 485.374332 240.114635 
L 487.363636 232.967756 
L 489.352941 233.284846 
L 491.342246 237.875398 
L 493.331551 240.558416 
L 495.320856 236.248086 
L 497.31016 244.907329 
L 499.299465 241.387137 
L 501.28877 205.18813 
L 503.278075 199.995903 
L 505.26738 205.243373 
L 507.256684 199.636828 
L 509.245989 206.695137 
L 511.235294 206.448014 
L 513.224599 212.8104 
L 515.213904 210.329469 
L 517.203209 217.98442 
L 519.192513 216.830715 
L 521.181818 219.960024 
L 523.171123 224.001319 
L 525.160428 226.546387 
L 527.149733 231.740766 
L 529.139037 232.983329 
L 531.128342 233.135098 
L 533.117647 235.389303 
L 535.106952 238.919894 
L 537.096257 244.226251 
L 539.085561 253.323554 
L 541.074866 248.903999 
L 543.064171 256.772346 
L 545.053476 260.484242 
L 547.042781 262.788646 
L 549.032086 259.106934 
L 551.02139 267.798162 
L 553.010695 269.722915 
L 555 267.032883 
L 556.989305 264.670899 
L 558.97861 269.25873 
L 560.967914 267.32841 
L 562.957219 271.438262 
L 564.946524 271.979367 
L 566.935829 271.863816 
L 568.925134 276.105014 
L 570.914439 264.410218 
L 572.903743 265.317916 
L 574.893048 268.959648 
L 576.882353 261.42257 
L 578.871658 266.564263 
L 580.860963 259.41965 
L 584.839572 253.938016 
L 586.828877 249.660617 
L 588.818182 250.138761 
L 590.807487 250.035388 
L 592.796791 239.837092 
L 594.786096 240.97268 
L 596.775401 239.168249 
L 598.764706 236.336169 
L 600.754011 231.373379 
L 602.743316 231.360374 
L 604.73262 236.488973 
L 606.721925 237.764482 
L 608.71123 238.829385 
L 610.700535 238.558875 
L 612.68984 241.846881 
L 614.679144 237.849877 
L 616.668449 240.839803 
L 618.657754 236.489218 
L 620.647059 242.314447 
L 622.636364 240.60647 
L 622.636364 240.60647 
" clip-path="url(#p6cc200958c)" style="fill: none; stroke: #555555; stroke-width: 3; stroke-linecap: round"/>
   </g>
   <g id="patch_3">
    <path d="M 90 378 
L 90 51.84 
" style="fill: none; stroke: #ffffff; stroke-width: 1.25; stroke-linejoin: miter; stroke-linecap: square"/>
   </g>
   <g id="patch_4">
    <path d="M 648 378 
L 648 51.84 
" style="fill: none; stroke: #ffffff; stroke-width: 1.25; stroke-linejoin: miter; stroke-linecap: square"/>
   </g>
   <g id="patch_5">
    <path d="M 90 378 
L 648 378 
" style="fill: none; stroke: #ffffff; stroke-width: 1.25; stroke-linejoin: miter; stroke-linecap: square"/>
   </g>
   <g id="patch_6">
    <path d="M 90 51.84 
L 648 51.84 
" style="fill: none; stroke: #ffffff; stroke-width: 1.25; stroke-linejoin: miter; stroke-linecap: square"/>
   </g>
   <g id="text_13">
    <!-- Example signal, Class 1 -->
    <g style="fill: #262626" transform="translate(226.946344 45.84)scale(0.3 -0.3)">
     <defs>
      <path id="CMR17-45" d="M 3885 1614 
L 3770 1614 
C 3629 676 3546 166 2419 166 
L 1530 166 
C 1274 166 1261 198 1261 415 
L 1261 2176 
L 1862 2176 
C 2464 2176 2522 1959 2522 1429 
L 2637 1429 
L 2637 3086 
L 2522 3086 
C 2522 2558 2464 2342 1862 2342 
L 1261 2342 
L 1261 3924 
C 1261 4141 1274 4172 1530 4172 
L 2406 4172 
C 3398 4172 3514 3778 3603 2933 
L 3718 2933 
L 3565 4339 
L 326 4339 
L 326 4172 
C 768 4172 838 4172 838 3886 
L 838 453 
C 838 166 768 166 326 166 
L 326 0 
L 3654 0 
L 3885 1614 
z
" transform="scale(0.015625)"/>
      <path id="CMR17-73" d="M 1978 2688 
C 1978 2803 1971 2809 1933 2809 
C 1907 2809 1901 2803 1824 2707 
C 1805 2681 1747 2617 1728 2592 
C 1523 2809 1235 2816 1126 2816 
C 416 2816 160 2444 160 2073 
C 160 1497 813 1363 998 1324 
C 1402 1241 1542 1216 1677 1100 
C 1760 1024 1901 883 1901 652 
C 1901 384 1747 38 1158 38 
C 602 38 403 460 288 1024 
C 269 1113 269 1120 218 1120 
C 166 1120 160 1113 160 985 
L 160 64 
C 160 -52 166 -58 205 -58 
C 237 -58 243 -52 275 0 
C 314 57 410 211 448 275 
C 576 102 800 -64 1158 -64 
C 1792 -64 2131 281 2131 780 
C 2131 1107 1958 1280 1875 1356 
C 1683 1555 1459 1600 1190 1651 
C 838 1728 390 1817 390 2208 
C 390 2374 480 2726 1126 2726 
C 1811 2726 1850 2086 1862 1881 
C 1869 1849 1901 1843 1920 1843 
C 1978 1843 1978 1862 1978 1971 
L 1978 2688 
z
" transform="scale(0.015625)"/>
      <path id="CMR17-2c" d="M 1011 102 
C 1024 44 1024 25 1024 -76 
C 1024 -451 896 -795 627 -1108 
C 595 -1140 595 -1152 595 -1165 
C 595 -1191 621 -1216 646 -1216 
C 685 -1216 1126 -776 1126 -82 
C 1126 128 1101 524 800 524 
C 659 524 538 428 538 262 
C 538 96 659 0 800 0 
C 877 0 960 32 1011 102 
z
" transform="scale(0.015625)"/>
      <path id="CMR17-43" d="M 3974 4351 
C 3974 4467 3968 4473 3930 4473 
C 3904 4473 3898 4467 3853 4390 
L 3571 3849 
C 3258 4249 2874 4480 2381 4480 
C 1286 4480 294 3507 294 2179 
C 294 837 1286 -128 2387 -128 
C 3366 -128 3974 741 3974 1482 
C 3974 1547 3974 1573 3917 1573 
C 3866 1573 3866 1553 3859 1495 
C 3808 592 3168 38 2477 38 
C 1824 38 781 502 781 2179 
C 781 3862 1843 4313 2464 4313 
C 3187 4313 3712 3681 3834 2785 
C 3846 2707 3846 2695 3904 2695 
C 3974 2695 3974 2707 3974 2824 
L 3974 4351 
z
" transform="scale(0.015625)"/>
     </defs>
     <use xlink:href="#CMR17-45" transform="scale(0.996264)"/>
     <use xlink:href="#CMR17-78" transform="translate(62.586301 0)scale(0.996264)"/>
     <use xlink:href="#CMR17-61" transform="translate(110.879216 0)scale(0.996264)"/>
     <use xlink:href="#CMR17-6d" transform="translate(156.569693 0)scale(0.996264)"/>
     <use xlink:href="#CMR17-70" transform="translate(233.489283 0)scale(0.996264)"/>
     <use xlink:href="#CMR17-6c" transform="translate(284.384653 0)scale(0.996264)"/>
     <use xlink:href="#CMR17-65" transform="translate(309.255712 0)scale(0.996264)"/>
     <use xlink:href="#CMR17-73" transform="translate(379.817338 0)scale(0.996264)"/>
     <use xlink:href="#CMR17-69" transform="translate(415.618676 0)scale(0.996264)"/>
     <use xlink:href="#CMR17-67" transform="translate(440.489735 0)scale(0.996264)"/>
     <use xlink:href="#CMR17-6e" transform="translate(486.180212 0)scale(0.996264)"/>
     <use xlink:href="#CMR17-61" transform="translate(537.075581 0)scale(0.996264)"/>
     <use xlink:href="#CMR17-6c" transform="translate(582.766059 0)scale(0.996264)"/>
     <use xlink:href="#CMR17-2c" transform="translate(607.637117 0)scale(0.996264)"/>
     <use xlink:href="#CMR17-43" transform="translate(662.584142 0)scale(0.996264)"/>
     <use xlink:href="#CMR17-6c" transform="translate(729.094022 0)scale(0.996264)"/>
     <use xlink:href="#CMR17-61" transform="translate(753.965081 0)scale(0.996264)"/>
     <use xlink:href="#CMR17-73" transform="translate(799.655558 0)scale(0.996264)"/>
     <use xlink:href="#CMR17-73" transform="translate(835.456896 0)scale(0.996264)"/>
     <use xlink:href="#CMR17-31" transform="translate(901.3342 0)scale(0.996264)"/>
    </g>
   </g>
   <g id="legend_1">
    <g id="patch_7">
     <path d="M 626.399358 75.1295 
L 781.200642 75.1295 
Q 786.700642 75.1295 786.700642 69.6295 
L 786.700642 34.0505 
Q 786.700642 28.5505 781.200642 28.5505 
L 626.399358 28.5505 
Q 620.899358 28.5505 620.899358 34.0505 
L 620.899358 69.6295 
Q 620.899358 75.1295 626.399358 75.1295 
z
" style="fill: #ffffff; opacity: 0.8; stroke: #cccccc; stroke-linejoin: miter"/>
    </g>
    <g id="line2d_12">
     <path d="M 631.899358 49.1755 
L 659.399358 49.1755 
L 686.899358 49.1755 
" style="fill: none; stroke: #555555; stroke-width: 3; stroke-linecap: round"/>
    </g>
    <g id="text_14">
     <!-- Signal -->
     <g style="fill: #262626" transform="translate(708.899358 58.8005)scale(0.275 -0.275)">
      <use xlink:href="#CMR17-53" transform="scale(0.996264)"/>
      <use xlink:href="#CMR17-69" transform="translate(50.89537 0)scale(0.996264)"/>
      <use xlink:href="#CMR17-67" transform="translate(75.766428 0)scale(0.996264)"/>
      <use xlink:href="#CMR17-6e" transform="translate(121.456905 0)scale(0.996264)"/>
      <use xlink:href="#CMR17-61" transform="translate(172.352275 0)scale(0.996264)"/>
      <use xlink:href="#CMR17-6c" transform="translate(218.042752 0)scale(0.996264)"/>
     </g>
    </g>
   </g>
  </g>
  <g id="axes_2">
   <g id="line2d_13">
    <path d="M 129.113636 359.579982 
L 393.691176 359.579982 
L 395.680481 331.411618 
L 467.295455 331.411618 
L 469.284759 359.579982 
L 636.386364 359.579982 
L 636.386364 359.579982 
" clip-path="url(#p6d9298311d)" style="fill: none; stroke: #4c72b0; stroke-width: 3; stroke-linecap: round"/>
   </g>
   <g id="line2d_14">
    <path d="M 129.113636 359.579982 
L 636.386364 359.579982 
L 636.386364 359.579982 
" clip-path="url(#p6d9298311d)" style="fill: none; stroke: #dd8452; stroke-width: 3; stroke-linecap: round"/>
   </g>
   <g id="line2d_15">
    <path d="M 129.113636 359.579982 
L 154.974599 359.579982 
L 156.963904 331.411618 
L 256.429144 331.411618 
L 258.418449 359.579982 
L 636.386364 359.579982 
L 636.386364 359.579982 
" clip-path="url(#p6d9298311d)" style="fill: none; stroke: #55a868; stroke-width: 3; stroke-linecap: round"/>
   </g>
   <g id="line2d_16">
    <path d="M 129.113636 359.579982 
L 274.332888 359.579982 
L 276.322193 331.411618 
L 359.872995 331.411618 
L 361.862299 359.579982 
L 636.386364 359.579982 
L 636.386364 359.579982 
" clip-path="url(#p6d9298311d)" style="fill: none; stroke: #c44e52; stroke-width: 3; stroke-linecap: round"/>
   </g>
   <g id="line2d_17">
    <path d="M 129.113636 359.579982 
L 513.049465 359.579982 
L 515.03877 331.411618 
L 614.504011 331.411618 
L 616.493316 359.579982 
L 636.386364 359.579982 
L 636.386364 359.579982 
" clip-path="url(#p6d9298311d)" style="fill: none; stroke: #8172b3; stroke-width: 3; stroke-linecap: round"/>
   </g>
   <g id="line2d_18">
    <path d="M 129.113636 359.579982 
L 636.386364 359.579982 
L 636.386364 359.579982 
" clip-path="url(#p6d9298311d)" style="fill: none; stroke: #937860; stroke-width: 3; stroke-linecap: round"/>
   </g>
   <g id="text_15">
    <!-- Ground Truth (Shape) -->
    <g style="fill: #262626" transform="translate(337.990642 325.777945)scale(0.3 -0.3)">
     <defs>
      <path id="CMR17-47" d="M 3974 1258 
C 3974 1503 3994 1536 4390 1536 
L 4390 1702 
C 4237 1689 3891 1689 3718 1689 
C 3539 1689 3040 1696 2797 1702 
L 2797 1536 
L 2989 1536 
C 3539 1536 3552 1464 3552 1232 
L 3552 806 
C 3552 96 2720 38 2522 38 
C 1862 38 781 496 781 2179 
C 781 3862 1843 4313 2464 4313 
C 3187 4313 3712 3681 3834 2785 
C 3846 2708 3846 2695 3904 2695 
C 3974 2695 3974 2708 3974 2824 
L 3974 4351 
C 3974 4467 3968 4473 3930 4473 
C 3904 4473 3898 4467 3853 4390 
L 3571 3849 
C 3258 4249 2874 4480 2381 4480 
C 1286 4480 294 3507 294 2179 
C 294 858 1267 -128 2394 -128 
C 2912 -128 3418 57 3616 425 
C 3725 161 3904 -20 3936 -20 
C 3968 -20 3974 -13 3974 102 
L 3974 1258 
z
" transform="scale(0.015625)"/>
      <path id="CMR17-72" d="M 960 1517 
C 960 2134 1222 2713 1702 2713 
C 1747 2713 1792 2707 1837 2687 
C 1837 2687 1696 2642 1696 2475 
C 1696 2321 1818 2257 1914 2257 
C 1990 2257 2131 2302 2131 2482 
C 2131 2687 1926 2816 1709 2816 
C 1222 2816 1011 2340 947 2115 
L 941 2115 
L 941 2816 
L 198 2745 
L 198 2578 
C 576 2578 634 2540 634 2231 
L 634 443 
C 634 198 608 166 198 166 
L 198 0 
C 352 12 646 12 813 12 
C 998 12 1325 12 1498 0 
L 1498 166 
C 1037 166 960 166 960 455 
L 960 1517 
z
" transform="scale(0.015625)"/>
      <path id="CMR17-6f" d="M 2758 1356 
C 2758 2176 2163 2816 1466 2816 
C 768 2816 173 2176 173 1356 
C 173 550 768 -64 1466 -64 
C 2163 -64 2758 550 2758 1356 
z
M 1466 51 
C 1165 51 909 230 762 480 
C 602 768 582 1126 582 1408 
C 582 1676 595 2009 762 2297 
C 890 2508 1139 2713 1466 2713 
C 1754 2713 1997 2553 2150 2329 
C 2349 2028 2349 1606 2349 1408 
C 2349 1158 2336 774 2163 467 
C 1984 172 1709 51 1466 51 
z
" transform="scale(0.015625)"/>
      <path id="CMR17-68" d="M 2656 1954 
C 2656 2282 2592 2816 1837 2816 
C 1312 2816 1056 2392 979 2179 
L 973 2179 
L 973 4416 
L 211 4345 
L 211 4179 
C 589 4179 646 4141 646 3843 
L 646 443 
C 646 198 621 166 211 166 
L 211 0 
C 365 12 646 12 813 12 
C 979 12 1267 12 1421 0 
L 1421 166 
C 1011 166 986 192 986 443 
L 986 1678 
C 986 2269 1344 2713 1792 2713 
C 2266 2713 2317 2289 2317 1980 
L 2317 443 
C 2317 198 2291 166 1882 166 
L 1882 0 
C 2035 12 2317 12 2483 12 
C 2650 12 2938 12 3091 0 
L 3091 166 
C 2682 166 2656 192 2656 443 
L 2656 1954 
z
" transform="scale(0.015625)"/>
      <path id="CMR17-28" d="M 1958 -1562 
C 1958 -1556 1958 -1543 1939 -1524 
C 1645 -1223 858 -403 858 1596 
C 858 3595 1632 4408 1946 4729 
C 1946 4735 1958 4748 1958 4767 
C 1958 4787 1939 4800 1914 4800 
C 1843 4800 1299 4325 986 3620 
C 666 2909 576 2218 576 1603 
C 576 1141 621 360 1005 -467 
C 1312 -1133 1837 -1600 1914 -1600 
C 1946 -1600 1958 -1588 1958 -1562 
z
" transform="scale(0.015625)"/>
      <path id="CMR17-29" d="M 1683 1596 
C 1683 2057 1638 2839 1254 3665 
C 947 4332 422 4800 346 4800 
C 326 4800 301 4793 301 4761 
C 301 4748 307 4742 314 4729 
C 621 4408 1402 3595 1402 1603 
C 1402 -396 627 -1210 314 -1530 
C 307 -1543 301 -1549 301 -1562 
C 301 -1594 326 -1600 346 -1600 
C 416 -1600 960 -1127 1274 -422 
C 1594 289 1683 981 1683 1596 
z
" transform="scale(0.015625)"/>
     </defs>
     <use xlink:href="#CMR17-47" transform="scale(0.996264)"/>
     <use xlink:href="#CMR17-72" transform="translate(72.355346 0)scale(0.996264)"/>
     <use xlink:href="#CMR17-6f" transform="translate(107.636114 0)scale(0.996264)"/>
     <use xlink:href="#CMR17-75" transform="translate(153.326591 0)scale(0.996264)"/>
     <use xlink:href="#CMR17-6e" transform="translate(204.221961 0)scale(0.996264)"/>
     <use xlink:href="#CMR17-64" transform="translate(255.11733 0)scale(0.996264)"/>
     <use xlink:href="#CMR17-54" transform="translate(336.088667 0)scale(0.996264)"/>
     <use xlink:href="#CMR17-72" transform="translate(394.791292 0)scale(0.996264)"/>
     <use xlink:href="#CMR17-75" transform="translate(430.072059 0)scale(0.996264)"/>
     <use xlink:href="#CMR17-74" transform="translate(480.967429 0)scale(0.996264)"/>
     <use xlink:href="#CMR17-68" transform="translate(516.248197 0)scale(0.996264)"/>
     <use xlink:href="#CMR17-28" transform="translate(597.219533 0)scale(0.996264)"/>
     <use xlink:href="#CMR17-53" transform="translate(632.500301 0)scale(0.996264)"/>
     <use xlink:href="#CMR17-68" transform="translate(683.395671 0)scale(0.996264)"/>
     <use xlink:href="#CMR17-61" transform="translate(734.291041 0)scale(0.996264)"/>
     <use xlink:href="#CMR17-70" transform="translate(779.981518 0)scale(0.996264)"/>
     <use xlink:href="#CMR17-65" transform="translate(833.479326 0)scale(0.996264)"/>
     <use xlink:href="#CMR17-29" transform="translate(873.964987 0)scale(0.996264)"/>
    </g>
   </g>
   <g id="legend_2">
    <g id="patch_8">
     <path d="M 660.269449 356.1596 
L 774.830551 356.1596 
Q 780.330551 356.1596 780.330551 350.6596 
L 780.330551 123.4356 
Q 780.330551 117.9356 774.830551 117.9356 
L 660.269449 117.9356 
Q 654.769449 117.9356 654.769449 123.4356 
L 654.769449 350.6596 
Q 654.769449 356.1596 660.269449 356.1596 
z
" style="fill: #ffffff; opacity: 0.8; stroke: #cccccc; stroke-linejoin: miter"/>
    </g>
    <g id="line2d_19">
     <path d="M 665.769449 138.5606 
L 693.269449 138.5606 
L 720.769449 138.5606 
" style="fill: none; stroke: #4c72b0; stroke-width: 3; stroke-linecap: round"/>
    </g>
    <g id="text_16">
     <!-- S1 -->
     <g style="fill: #262626" transform="translate(742.769449 148.1856)scale(0.275 -0.275)">
      <use xlink:href="#CMR17-53" transform="scale(0.996264)"/>
      <use xlink:href="#CMR17-31" transform="translate(50.89537 0)scale(0.996264)"/>
     </g>
    </g>
    <g id="line2d_20">
     <path d="M 665.769449 176.8896 
L 693.269449 176.8896 
L 720.769449 176.8896 
" style="fill: none; stroke: #dd8452; stroke-width: 3; stroke-linecap: round"/>
    </g>
    <g id="text_17">
     <!-- S2 -->
     <g style="fill: #262626" transform="translate(742.769449 186.5146)scale(0.275 -0.275)">
      <use xlink:href="#CMR17-53" transform="scale(0.996264)"/>
      <use xlink:href="#CMR17-32" transform="translate(50.89537 0)scale(0.996264)"/>
     </g>
    </g>
    <g id="line2d_21">
     <path d="M 665.769449 215.2186 
L 693.269449 215.2186 
L 720.769449 215.2186 
" style="fill: none; stroke: #55a868; stroke-width: 3; stroke-linecap: round"/>
    </g>
    <g id="text_18">
     <!-- S3 -->
     <g style="fill: #262626" transform="translate(742.769449 224.8436)scale(0.275 -0.275)">
      <defs>
       <path id="CMR17-33" d="M 1414 2176 
C 1984 2176 2234 1673 2234 1094 
C 2234 322 1824 25 1453 25 
C 1114 25 563 193 390 691 
C 422 678 454 678 486 678 
C 640 678 755 780 755 947 
C 755 1132 614 1216 486 1216 
C 378 1216 211 1164 211 927 
C 211 335 787 -128 1466 -128 
C 2176 -128 2720 432 2720 1087 
C 2720 1718 2208 2176 1600 2246 
C 2086 2347 2554 2776 2554 3353 
C 2554 3856 2048 4224 1472 4224 
C 890 4224 378 3862 378 3347 
C 378 3123 544 3084 627 3084 
C 762 3084 877 3167 877 3334 
C 877 3500 762 3584 627 3584 
C 602 3584 570 3584 544 3571 
C 730 3999 1235 4076 1459 4076 
C 1683 4076 2106 3966 2106 3347 
C 2106 3167 2080 2851 1862 2574 
C 1670 2329 1453 2316 1242 2297 
C 1210 2297 1062 2284 1037 2284 
C 992 2278 966 2272 966 2227 
C 966 2182 973 2176 1101 2176 
L 1414 2176 
z
" transform="scale(0.015625)"/>
      </defs>
      <use xlink:href="#CMR17-53" transform="scale(0.996264)"/>
      <use xlink:href="#CMR17-33" transform="translate(50.89537 0)scale(0.996264)"/>
     </g>
    </g>
    <g id="line2d_22">
     <path d="M 665.769449 253.5476 
L 693.269449 253.5476 
L 720.769449 253.5476 
" style="fill: none; stroke: #c44e52; stroke-width: 3; stroke-linecap: round"/>
    </g>
    <g id="text_19">
     <!-- S4 -->
     <g style="fill: #262626" transform="translate(742.769449 263.1726)scale(0.275 -0.275)">
      <defs>
       <path id="CMR17-34" d="M 2150 4147 
C 2150 4281 2144 4288 2029 4288 
L 128 1254 
L 128 1088 
L 1779 1088 
L 1779 460 
C 1779 230 1766 166 1318 166 
L 1197 166 
L 1197 0 
C 1402 12 1747 12 1965 12 
C 2182 12 2528 12 2733 0 
L 2733 166 
L 2611 166 
C 2163 166 2150 230 2150 460 
L 2150 1088 
L 2803 1088 
L 2803 1254 
L 2150 1254 
L 2150 4147 
z
M 1798 3723 
L 1798 1254 
L 256 1254 
L 1798 3723 
z
" transform="scale(0.015625)"/>
      </defs>
      <use xlink:href="#CMR17-53" transform="scale(0.996264)"/>
      <use xlink:href="#CMR17-34" transform="translate(50.89537 0)scale(0.996264)"/>
     </g>
    </g>
    <g id="line2d_23">
     <path d="M 665.769449 291.8766 
L 693.269449 291.8766 
L 720.769449 291.8766 
" style="fill: none; stroke: #8172b3; stroke-width: 3; stroke-linecap: round"/>
    </g>
    <g id="text_20">
     <!-- S5 -->
     <g style="fill: #262626" transform="translate(742.769449 301.5016)scale(0.275 -0.275)">
      <use xlink:href="#CMR17-53" transform="scale(0.996264)"/>
      <use xlink:href="#CMR17-35" transform="translate(50.89537 0)scale(0.996264)"/>
     </g>
    </g>
    <g id="line2d_24">
     <path d="M 665.769449 330.2056 
L 693.269449 330.2056 
L 720.769449 330.2056 
" style="fill: none; stroke: #937860; stroke-width: 3; stroke-linecap: round"/>
    </g>
    <g id="text_21">
     <!-- S6 -->
     <g style="fill: #262626" transform="translate(742.769449 339.8306)scale(0.275 -0.275)">
      <defs>
       <path id="CMR17-36" d="M 678 2198 
C 678 3712 1395 4076 1811 4076 
C 1946 4076 2272 4049 2400 3782 
C 2298 3782 2106 3782 2106 3558 
C 2106 3385 2246 3328 2336 3328 
C 2394 3328 2566 3353 2566 3571 
C 2566 3987 2246 4224 1805 4224 
C 1043 4224 243 3411 243 2011 
C 243 257 966 -128 1478 -128 
C 2099 -128 2688 431 2688 1295 
C 2688 2101 2170 2688 1517 2688 
C 1126 2688 838 2430 678 1979 
L 678 2198 
z
M 1478 25 
C 691 25 691 1212 691 1450 
C 691 1914 909 2585 1504 2585 
C 1613 2585 1926 2585 2138 2140 
C 2253 1889 2253 1624 2253 1302 
C 2253 954 2253 696 2118 438 
C 1978 173 1773 25 1478 25 
z
" transform="scale(0.015625)"/>
      </defs>
      <use xlink:href="#CMR17-53" transform="scale(0.996264)"/>
      <use xlink:href="#CMR17-36" transform="translate(50.89537 0)scale(0.996264)"/>
     </g>
    </g>
   </g>
  </g>
 </g>
 <defs>
  <clipPath id="p6cc200958c">
   <rect x="90" y="51.84" width="558" height="326.16"/>
  </clipPath>
  <clipPath id="p6d9298311d">
   <rect x="103.75" y="330.0032" width="558" height="30.9852"/>
  </clipPath>
 </defs>
</svg>
