<?xml version="1.0" encoding="utf-8" standalone="no"?>
<!DOCTYPE svg PUBLIC "-//W3C//DTD SVG 1.1//EN"
  "http://www.w3.org/Graphics/SVG/1.1/DTD/svg11.dtd">
<svg xmlns:xlink="http://www.w3.org/1999/xlink" width="720pt" height="432pt" viewBox="0 0 720 432" xmlns="http://www.w3.org/2000/svg" version="1.1">
 <metadata>
  <rdf:RDF xmlns:dc="http://purl.org/dc/elements/1.1/" xmlns:cc="http://creativecommons.org/ns#" xmlns:rdf="http://www.w3.org/1999/02/22-rdf-syntax-ns#">
   <cc:Work>
    <dc:type rdf:resource="http://purl.org/dc/dcmitype/StillImage"/>
    <dc:date>2025-05-27T19:58:13.467941</dc:date>
    <dc:format>image/svg+xml</dc:format>
    <dc:creator>
     <cc:Agent>
      <dc:title>Matplotlib v3.10.0, https://matplotlib.org/</dc:title>
     </cc:Agent>
    </dc:creator>
   </cc:Work>
  </rdf:RDF>
 </metadata>
 <defs>
  <style type="text/css">*{stroke-linejoin: round; stroke-linecap: butt}</style>
 </defs>
 <g id="figure_1">
  <g id="patch_1">
   <path d="M 0 432 
L 720 432 
L 720 0 
L 0 0 
z
" style="fill: #ffffff"/>
  </g>
  <g id="axes_1">
   <g id="patch_2">
    <path d="M 90 384.48 
L 648 384.48 
L 648 51.84 
L 90 51.84 
z
" style="fill: #ffffff"/>
   </g>
   <g id="matplotlib.axis_1">
    <g id="xtick_1">
     <g id="line2d_1">
      <path d="M 115.363636 384.48 
L 115.363636 51.84 
" clip-path="url(#p9a08a7fb79)" style="fill: none; stroke: #cccccc; stroke-linecap: round"/>
     </g>
     <g id="text_1">
      <!-- $\mathdefault{0}$ -->
      <g style="fill: #262626" transform="translate(109.081196 413.005867) scale(0.275 -0.275)">
       <defs>
        <path id="CMR17-30" d="M 2688 2038 
C 2688 2430 2682 3099 2413 3613 
C 2176 4063 1798 4224 1466 4224 
C 1158 4224 768 4082 525 3620 
C 269 3137 243 2539 243 2038 
C 243 1671 250 1112 448 623 
C 723 -39 1216 -128 1466 -128 
C 1760 -128 2208 -7 2470 604 
C 2662 1048 2688 1568 2688 2038 
z
M 1466 -26 
C 1056 -26 813 328 723 816 
C 653 1196 653 1749 653 2109 
C 653 2604 653 3015 736 3407 
C 858 3954 1216 4121 1466 4121 
C 1728 4121 2067 3947 2189 3420 
C 2272 3054 2278 2623 2278 2109 
C 2278 1691 2278 1176 2202 797 
C 2067 96 1690 -26 1466 -26 
z
" transform="scale(0.015625)"/>
       </defs>
       <use xlink:href="#CMR17-30" transform="scale(0.996264)"/>
      </g>
     </g>
    </g>
    <g id="xtick_2">
     <g id="line2d_2">
      <path d="M 214.828877 384.48 
L 214.828877 51.84 
" clip-path="url(#p9a08a7fb79)" style="fill: none; stroke: #cccccc; stroke-linecap: round"/>
     </g>
     <g id="text_2">
      <!-- $\mathdefault{50}$ -->
      <g style="fill: #262626" transform="translate(202.263996 413.005867) scale(0.275 -0.275)">
       <defs>
        <path id="CMR17-35" d="M 730 3750 
C 794 3724 1056 3641 1325 3641 
C 1920 3641 2246 3961 2432 4140 
C 2432 4191 2432 4224 2394 4224 
C 2387 4224 2374 4224 2323 4198 
C 2099 4102 1837 4032 1517 4032 
C 1325 4032 1037 4055 723 4191 
C 653 4224 640 4224 634 4224 
C 602 4224 595 4217 595 4090 
L 595 2231 
C 595 2113 595 2080 659 2080 
C 691 2080 704 2093 736 2139 
C 941 2435 1222 2560 1542 2560 
C 1766 2560 2246 2415 2246 1293 
C 2246 1087 2246 716 2054 422 
C 1894 159 1645 25 1370 25 
C 947 25 518 319 403 812 
C 429 806 480 793 506 793 
C 589 793 749 838 749 1036 
C 749 1209 627 1280 506 1280 
C 358 1280 262 1190 262 1011 
C 262 454 704 -128 1382 -128 
C 2042 -128 2669 441 2669 1267 
C 2669 2054 2170 2662 1549 2662 
C 1222 2662 947 2540 730 2304 
L 730 3750 
z
" transform="scale(0.015625)"/>
       </defs>
       <use xlink:href="#CMR17-35" transform="scale(0.996264)"/>
       <use xlink:href="#CMR17-30" transform="translate(45.690477 0) scale(0.996264)"/>
      </g>
     </g>
    </g>
    <g id="xtick_3">
     <g id="line2d_3">
      <path d="M 314.294118 384.48 
L 314.294118 51.84 
" clip-path="url(#p9a08a7fb79)" style="fill: none; stroke: #cccccc; stroke-linecap: round"/>
     </g>
     <g id="text_3">
      <!-- $\mathdefault{100}$ -->
      <g style="fill: #262626" transform="translate(295.446796 413.005867) scale(0.275 -0.275)">
       <defs>
        <path id="CMR17-31" d="M 1702 4083 
C 1702 4217 1696 4224 1606 4224 
C 1357 3927 979 3833 621 3820 
C 602 3820 570 3820 563 3808 
C 557 3795 557 3782 557 3648 
C 755 3648 1088 3686 1344 3839 
L 1344 467 
C 1344 243 1331 166 781 166 
L 589 166 
L 589 0 
C 896 6 1216 12 1523 12 
C 1830 12 2150 6 2458 0 
L 2458 166 
L 2266 166 
C 1715 166 1702 236 1702 467 
L 1702 4083 
z
" transform="scale(0.015625)"/>
       </defs>
       <use xlink:href="#CMR17-31" transform="scale(0.996264)"/>
       <use xlink:href="#CMR17-30" transform="translate(45.690477 0) scale(0.996264)"/>
       <use xlink:href="#CMR17-30" transform="translate(91.380954 0) scale(0.996264)"/>
      </g>
     </g>
    </g>
    <g id="xtick_4">
     <g id="line2d_4">
      <path d="M 413.759358 384.48 
L 413.759358 51.84 
" clip-path="url(#p9a08a7fb79)" style="fill: none; stroke: #cccccc; stroke-linecap: round"/>
     </g>
     <g id="text_4">
      <!-- $\mathdefault{150}$ -->
      <g style="fill: #262626" transform="translate(394.912036 413.005867) scale(0.275 -0.275)">
       <use xlink:href="#CMR17-31" transform="scale(0.996264)"/>
       <use xlink:href="#CMR17-35" transform="translate(45.690477 0) scale(0.996264)"/>
       <use xlink:href="#CMR17-30" transform="translate(91.380954 0) scale(0.996264)"/>
      </g>
     </g>
    </g>
    <g id="xtick_5">
     <g id="line2d_5">
      <path d="M 513.224599 384.48 
L 513.224599 51.84 
" clip-path="url(#p9a08a7fb79)" style="fill: none; stroke: #cccccc; stroke-linecap: round"/>
     </g>
     <g id="text_5">
      <!-- $\mathdefault{200}$ -->
      <g style="fill: #262626" transform="translate(494.377277 413.005867) scale(0.275 -0.275)">
       <defs>
        <path id="CMR17-32" d="M 2669 990 
L 2554 990 
C 2490 537 2438 460 2413 422 
C 2381 371 1920 371 1830 371 
L 602 371 
C 832 620 1280 1073 1824 1596 
C 2214 1966 2669 2400 2669 3033 
C 2669 3788 2067 4224 1395 4224 
C 691 4224 262 3603 262 3027 
C 262 2777 448 2745 525 2745 
C 589 2745 781 2783 781 3007 
C 781 3206 614 3264 525 3264 
C 486 3264 448 3257 422 3244 
C 544 3788 915 4057 1306 4057 
C 1862 4057 2227 3616 2227 3033 
C 2227 2477 1901 1998 1536 1583 
L 262 147 
L 262 0 
L 2515 0 
L 2669 990 
z
" transform="scale(0.015625)"/>
       </defs>
       <use xlink:href="#CMR17-32" transform="scale(0.996264)"/>
       <use xlink:href="#CMR17-30" transform="translate(45.690477 0) scale(0.996264)"/>
       <use xlink:href="#CMR17-30" transform="translate(91.380954 0) scale(0.996264)"/>
      </g>
     </g>
    </g>
    <g id="xtick_6">
     <g id="line2d_6">
      <path d="M 612.68984 384.48 
L 612.68984 51.84 
" clip-path="url(#p9a08a7fb79)" style="fill: none; stroke: #cccccc; stroke-linecap: round"/>
     </g>
     <g id="text_6">
      <!-- $\mathdefault{250}$ -->
      <g style="fill: #262626" transform="translate(593.842518 413.005867) scale(0.275 -0.275)">
       <use xlink:href="#CMR17-32" transform="scale(0.996264)"/>
       <use xlink:href="#CMR17-35" transform="translate(45.690477 0) scale(0.996264)"/>
       <use xlink:href="#CMR17-30" transform="translate(91.380954 0) scale(0.996264)"/>
      </g>
     </g>
    </g>
    <g id="text_7">
     <!-- Time -->
     <g style="fill: #262626" transform="translate(337.682086 443.090362) scale(0.3 -0.3)">
      <defs>
       <path id="CMR17-54" d="M 3981 4332 
L 288 4332 
L 179 2924 
L 294 2924 
C 378 3981 467 4166 1453 4166 
C 1568 4166 1754 4166 1805 4159 
C 1926 4140 1926 4064 1926 3917 
L 1926 465 
C 1926 236 1907 166 1376 166 
L 1197 166 
L 1197 0 
C 1504 6 1824 12 2138 12 
C 2451 12 2771 6 3078 0 
L 3078 166 
L 2899 166 
C 2368 166 2349 236 2349 465 
L 2349 3917 
C 2349 4057 2349 4134 2464 4159 
C 2515 4166 2701 4166 2816 4166 
C 3795 4166 3891 3981 3974 2924 
L 4090 2924 
L 3981 4332 
z
" transform="scale(0.015625)"/>
       <path id="CMR17-69" d="M 992 3961 
C 992 4102 877 4224 730 4224 
C 589 4224 467 4108 467 3961 
C 467 3820 582 3699 730 3699 
C 870 3699 992 3814 992 3961 
z
M 243 2745 
L 243 2579 
C 602 2579 653 2540 653 2231 
L 653 443 
C 653 198 627 166 218 166 
L 218 0 
C 371 12 646 12 806 12 
C 960 12 1222 12 1370 0 
L 1370 166 
C 992 166 979 205 979 436 
L 979 2816 
L 243 2745 
z
" transform="scale(0.015625)"/>
       <path id="CMR17-6d" d="M 4326 1954 
C 4326 2276 4269 2816 3507 2816 
C 3072 2816 2771 2520 2656 2173 
L 2650 2173 
C 2573 2700 2195 2816 1837 2816 
C 1331 2816 1069 2424 973 2166 
L 966 2166 
L 966 2816 
L 211 2745 
L 211 2578 
C 589 2578 646 2540 646 2231 
L 646 443 
C 646 198 621 166 211 166 
L 211 0 
C 365 12 646 12 813 12 
C 979 12 1267 12 1421 0 
L 1421 166 
C 1011 166 986 192 986 443 
L 986 1678 
C 986 2269 1344 2713 1792 2713 
C 2266 2713 2317 2289 2317 1980 
L 2317 443 
C 2317 198 2291 166 1882 166 
L 1882 0 
C 2035 12 2317 12 2483 12 
C 2650 12 2938 12 3091 0 
L 3091 166 
C 2682 166 2656 192 2656 443 
L 2656 1678 
C 2656 2269 3014 2713 3462 2713 
C 3936 2713 3987 2289 3987 1980 
L 3987 443 
C 3987 198 3962 166 3552 166 
L 3552 0 
C 3706 12 3987 12 4154 12 
C 4320 12 4608 12 4762 0 
L 4762 166 
C 4352 166 4326 192 4326 443 
L 4326 1954 
z
" transform="scale(0.015625)"/>
       <path id="CMR17-65" d="M 2438 1503 
C 2464 1529 2464 1542 2464 1606 
C 2464 2251 2118 2816 1389 2816 
C 710 2816 173 2175 173 1394 
C 173 554 781 -64 1459 -64 
C 2176 -64 2458 619 2458 755 
C 2458 800 2419 800 2406 800 
C 2362 800 2355 787 2330 709 
C 2189 270 1837 51 1504 51 
C 1229 51 954 206 781 490 
C 582 819 582 1200 582 1503 
L 2438 1503 
z
M 589 1600 
C 634 2511 1126 2713 1382 2713 
C 1818 2713 2112 2308 2118 1600 
L 589 1600 
z
" transform="scale(0.015625)"/>
      </defs>
      <use xlink:href="#CMR17-54" transform="scale(0.996264)"/>
      <use xlink:href="#CMR17-69" transform="translate(66.509881 0) scale(0.996264)"/>
      <use xlink:href="#CMR17-6d" transform="translate(91.380939 0) scale(0.996264)"/>
      <use xlink:href="#CMR17-65" transform="translate(168.300529 0) scale(0.996264)"/>
     </g>
    </g>
   </g>
   <g id="matplotlib.axis_2">
    <g id="ytick_1">
     <g id="line2d_7">
      <path d="M 90 314.203925 
L 648 314.203925 
" clip-path="url(#p9a08a7fb79)" style="fill: none; stroke: #cccccc; stroke-linecap: round"/>
     </g>
     <g id="text_8">
      <!-- $\mathdefault{−2}$ -->
      <g style="fill: #262626" transform="translate(46.626066 323.716858) scale(0.275 -0.275)">
       <defs>
        <path id="CMSY10-0" d="M 4218 1472 
C 4326 1472 4442 1472 4442 1600 
C 4442 1728 4326 1728 4218 1728 
L 755 1728 
C 646 1728 531 1728 531 1600 
C 531 1472 646 1472 755 1472 
L 4218 1472 
z
" transform="scale(0.015625)"/>
       </defs>
       <use xlink:href="#CMSY10-0" transform="scale(0.996264)"/>
       <use xlink:href="#CMR17-32" transform="translate(77.487468 0) scale(0.996264)"/>
      </g>
     </g>
    </g>
    <g id="ytick_2">
     <g id="line2d_8">
      <path d="M 90 231.375214 
L 648 231.375214 
" clip-path="url(#p9a08a7fb79)" style="fill: none; stroke: #cccccc; stroke-linecap: round"/>
     </g>
     <g id="text_9">
      <!-- $\mathdefault{0}$ -->
      <g style="fill: #262626" transform="translate(67.935119 240.888147) scale(0.275 -0.275)">
       <use xlink:href="#CMR17-30" transform="scale(0.996264)"/>
      </g>
     </g>
    </g>
    <g id="ytick_3">
     <g id="line2d_9">
      <path d="M 90 148.546503 
L 648 148.546503 
" clip-path="url(#p9a08a7fb79)" style="fill: none; stroke: #cccccc; stroke-linecap: round"/>
     </g>
     <g id="text_10">
      <!-- $\mathdefault{2}$ -->
      <g style="fill: #262626" transform="translate(67.935119 158.059436) scale(0.275 -0.275)">
       <use xlink:href="#CMR17-32" transform="scale(0.996264)"/>
      </g>
     </g>
    </g>
    <g id="ytick_4">
     <g id="line2d_10">
      <path d="M 90 65.717792 
L 648 65.717792 
" clip-path="url(#p9a08a7fb79)" style="fill: none; stroke: #cccccc; stroke-linecap: round"/>
     </g>
     <g id="text_11">
      <!-- $\mathdefault{4}$ -->
      <g style="fill: #262626" transform="translate(67.935119 75.230725) scale(0.275 -0.275)">
       <defs>
        <path id="CMR17-34" d="M 2150 4147 
C 2150 4281 2144 4288 2029 4288 
L 128 1254 
L 128 1088 
L 1779 1088 
L 1779 460 
C 1779 230 1766 166 1318 166 
L 1197 166 
L 1197 0 
C 1402 12 1747 12 1965 12 
C 2182 12 2528 12 2733 0 
L 2733 166 
L 2611 166 
C 2163 166 2150 230 2150 460 
L 2150 1088 
L 2803 1088 
L 2803 1254 
L 2150 1254 
L 2150 4147 
z
M 1798 3723 
L 1798 1254 
L 256 1254 
L 1798 3723 
z
" transform="scale(0.015625)"/>
       </defs>
       <use xlink:href="#CMR17-34" transform="scale(0.996264)"/>
      </g>
     </g>
    </g>
    <g id="text_12">
     <!-- Amplitude -->
     <g style="fill: #262626" transform="translate(36.812616 281.787972) rotate(-90) scale(0.3 -0.3)">
      <defs>
       <path id="CMR17-41" d="M 2323 4441 
C 2291 4524 2278 4544 2214 4544 
C 2150 4544 2138 4524 2106 4441 
L 749 580 
C 627 236 371 166 147 166 
L 147 0 
C 262 12 518 12 640 12 
C 800 12 1056 12 1210 0 
L 1210 166 
C 909 179 864 382 864 459 
C 864 516 877 548 890 586 
L 1229 1536 
L 2906 1536 
L 3290 453 
C 3322 376 3322 363 3322 338 
C 3322 166 3046 166 2925 166 
L 2925 0 
C 3110 12 3443 12 3642 12 
C 3808 12 4128 12 4282 0 
L 4282 166 
C 3942 166 3827 166 3744 402 
L 2323 4441 
z
M 2067 3924 
L 2848 1702 
L 1286 1702 
L 2067 3924 
z
" transform="scale(0.015625)"/>
       <path id="CMR17-70" d="M 1408 -1114 
C 998 -1114 973 -1088 973 -834 
L 973 380 
C 1158 109 1427 -64 1766 -64 
C 2406 -64 3053 503 3053 1382 
C 3053 2196 2496 2816 1837 2816 
C 1453 2816 1139 2603 960 2345 
L 960 2816 
L 198 2745 
L 198 2577 
C 576 2577 634 2539 634 2228 
L 634 -834 
C 634 -1081 608 -1114 198 -1114 
L 198 -1280 
C 352 -1268 634 -1268 800 -1268 
C 966 -1268 1254 -1268 1408 -1280 
L 1408 -1114 
z
M 973 2015 
C 973 2106 973 2241 1222 2481 
C 1254 2506 1472 2700 1792 2700 
C 2259 2700 2643 2112 2643 1376 
C 2643 639 2234 38 1728 38 
C 1498 38 1248 148 1056 451 
C 973 594 973 632 973 736 
L 973 2015 
z
" transform="scale(0.015625)"/>
       <path id="CMR17-6c" d="M 979 4416 
L 218 4345 
L 218 4179 
C 595 4179 653 4141 653 3835 
L 653 439 
C 653 198 627 166 218 166 
L 218 0 
C 371 12 653 12 813 12 
C 979 12 1261 12 1414 0 
L 1414 166 
C 1005 166 979 191 979 439 
L 979 4416 
z
" transform="scale(0.015625)"/>
       <path id="CMR17-74" d="M 966 2585 
L 1862 2585 
L 1862 2752 
L 966 2752 
L 966 3968 
L 851 3968 
C 838 3292 614 2700 70 2687 
L 70 2585 
L 627 2585 
L 627 778 
C 627 655 627 -64 1370 -64 
C 1747 -64 1965 308 1965 784 
L 1965 1151 
L 1850 1151 
L 1850 790 
C 1850 347 1677 51 1408 51 
C 1222 51 966 179 966 765 
L 966 2585 
z
" transform="scale(0.015625)"/>
       <path id="CMR17-75" d="M 1882 2745 
L 1882 2579 
C 2259 2579 2317 2540 2317 2229 
L 2317 1053 
C 2317 510 2029 38 1555 38 
C 1030 38 986 355 986 691 
L 986 2816 
L 211 2745 
L 211 2579 
C 467 2579 640 2579 646 2320 
L 646 1079 
C 646 646 646 368 813 187 
C 896 103 1056 -64 1517 -64 
C 2061 -64 2272 400 2323 536 
L 2330 536 
L 2330 -64 
L 3091 -13 
L 3091 154 
C 2714 154 2656 193 2656 503 
L 2656 2816 
L 1882 2745 
z
" transform="scale(0.015625)"/>
       <path id="CMR17-64" d="M 1869 4345 
L 1869 4179 
C 2246 4179 2304 4141 2304 3843 
L 2304 2371 
C 2278 2403 2016 2816 1498 2816 
C 845 2816 211 2228 211 1376 
C 211 529 806 -64 1434 -64 
C 1978 -64 2259 361 2291 406 
L 2291 -64 
L 3066 -13 
L 3066 154 
C 2688 154 2630 193 2630 503 
L 2630 4416 
L 1869 4345 
z
M 2291 762 
C 2291 568 2176 393 2029 264 
C 1811 70 1594 38 1472 38 
C 1286 38 621 135 621 1369 
C 621 2636 1363 2713 1530 2713 
C 1824 2713 2061 2545 2208 2313 
C 2291 2177 2291 2157 2291 2041 
L 2291 762 
z
" transform="scale(0.015625)"/>
      </defs>
      <use xlink:href="#CMR17-41" transform="scale(0.996264)"/>
      <use xlink:href="#CMR17-6d" transform="translate(69.07243 0) scale(0.996264)"/>
      <use xlink:href="#CMR17-70" transform="translate(145.99202 0) scale(0.996264)"/>
      <use xlink:href="#CMR17-6c" transform="translate(196.887389 0) scale(0.996264)"/>
      <use xlink:href="#CMR17-69" transform="translate(221.758448 0) scale(0.996264)"/>
      <use xlink:href="#CMR17-74" transform="translate(246.629506 0) scale(0.996264)"/>
      <use xlink:href="#CMR17-75" transform="translate(281.910274 0) scale(0.996264)"/>
      <use xlink:href="#CMR17-64" transform="translate(332.805644 0) scale(0.996264)"/>
      <use xlink:href="#CMR17-65" transform="translate(383.701014 0) scale(0.996264)"/>
     </g>
    </g>
   </g>
   <g id="line2d_11">
    <path d="M 115.363636 231.375214 
L 155.149733 231.375214 
L 188.967914 128.322067 
L 190.957219 128.322067 
L 224.775401 231.375214 
L 246.657754 231.375214 
L 248.647059 111.08589 
L 300.368984 231.375214 
L 340.15508 231.375214 
L 342.144385 77.625556 
L 423.705882 77.625556 
L 425.695187 231.375214 
L 435.641711 231.375214 
L 441.609626 216.985982 
L 445.588235 208.00837 
L 447.57754 203.835942 
L 449.566845 199.928732 
L 451.55615 196.324369 
L 453.545455 193.057565 
L 455.534759 190.15978 
L 457.524064 187.658923 
L 459.513369 185.579078 
L 461.502674 183.940274 
L 463.491979 182.758295 
L 465.481283 182.044523 
L 467.470588 181.805833 
L 469.459893 182.044523 
L 471.449198 182.758295 
L 473.438503 183.940274 
L 475.427807 185.579078 
L 477.417112 187.658923 
L 479.406417 190.15978 
L 481.395722 193.057565 
L 483.385027 196.324369 
L 485.374332 199.928732 
L 487.363636 203.835942 
L 491.342246 212.405833 
L 495.320856 221.704708 
L 499.299465 231.375214 
L 529.139037 231.375214 
L 600.754011 192.219791 
L 602.743316 231.375214 
L 622.636364 231.375214 
L 622.636364 231.375214 
" clip-path="url(#p9a08a7fb79)" style="fill: none; stroke: #4c72b0; stroke-width: 3; stroke-linecap: round"/>
   </g>
   <g id="line2d_12">
    <path d="M 115.363636 231.375214 
L 153.160428 231.375214 
L 155.149733 147.09628 
L 224.775401 147.09628 
L 226.764706 231.375214 
L 246.657754 231.375214 
L 248.647059 174.691874 
L 306.336898 231.375214 
L 340.15508 231.375214 
L 342.144385 153.361202 
L 344.13369 153.579792 
L 346.122995 154.234337 
L 348.112299 155.321168 
L 350.101604 156.834197 
L 352.090909 158.764943 
L 354.080214 161.102587 
L 356.069519 163.834029 
L 358.058824 166.943963 
L 360.048128 170.414961 
L 362.037433 174.227571 
L 364.026738 178.360429 
L 366.016043 182.790375 
L 369.994652 192.440705 
L 373.973262 202.962547 
L 377.951872 214.120379 
L 393.86631 260.021551 
L 397.84492 270.52708 
L 401.823529 280.156231 
L 403.812834 284.573907 
L 405.802139 288.693466 
L 407.791444 292.49182 
L 409.780749 295.947686 
L 411.770053 299.041696 
L 413.759358 301.756512 
L 415.748663 304.076921 
L 417.737968 305.98992 
L 419.727273 307.484788 
L 421.716578 308.553149 
L 423.705882 309.189014 
L 425.695187 309.388822 
L 427.684492 309.151453 
L 429.673797 308.478236 
L 431.663102 307.372944 
L 433.652406 305.841771 
L 435.641711 231.375214 
L 443.59893 220.292091 
L 447.57754 215.009086 
L 451.55615 210.030952 
L 455.534759 205.450421 
L 459.513369 201.35282 
L 463.491979 197.814479 
L 465.481283 196.276071 
L 467.470588 194.901311 
L 469.459893 193.696609 
L 471.449198 192.667583 
L 473.438503 191.819029 
L 475.427807 191.154905 
L 477.417112 190.678306 
L 479.406417 190.391455 
L 481.395722 190.295689 
L 483.385027 190.391455 
L 485.374332 190.678306 
L 487.363636 191.154905 
L 489.352941 191.819029 
L 491.342246 192.667583 
L 493.331551 193.696609 
L 495.320856 194.901311 
L 497.31016 196.276071 
L 499.299465 197.814479 
L 501.28877 199.509363 
L 505.26738 203.336255 
L 509.245989 207.68546 
L 513.224599 212.475961 
L 517.203209 217.618519 
L 523.171123 225.781553 
L 527.149733 231.375214 
L 529.139037 231.375214 
L 584.839572 180.690503 
L 586.828877 231.375214 
L 622.636364 231.375214 
L 622.636364 231.375214 
" clip-path="url(#p9a08a7fb79)" style="fill: none; stroke: #dd8452; stroke-width: 3; stroke-linecap: round"/>
   </g>
   <g id="line2d_13">
    <path d="M 115.363636 231.375214 
L 153.160428 231.375214 
L 155.149733 172.702523 
L 204.882353 231.375214 
L 248.647059 231.375214 
L 272.518717 198.669262 
L 274.508021 198.669262 
L 298.379679 231.375214 
L 340.15508 231.375214 
L 342.144385 99.269163 
L 344.13369 99.887344 
L 346.122995 101.736103 
L 348.112299 104.798137 
L 350.101604 109.04479 
L 352.090909 114.436316 
L 354.080214 120.922258 
L 356.069519 128.441915 
L 358.058824 136.92491 
L 360.048128 146.291854 
L 362.037433 156.455081 
L 366.016043 178.78336 
L 369.994652 203.075833 
L 381.930481 278.503684 
L 385.909091 301.362422 
L 387.898396 311.861483 
L 389.887701 321.607285 
L 391.877005 330.508616 
L 393.86631 338.482171 
L 395.855615 345.453327 
L 397.84492 351.35684 
L 399.834225 356.137462 
L 401.823529 359.75045 
L 403.812834 362.161991 
L 405.802139 363.349517 
L 407.791444 363.301912 
L 409.780749 362.019623 
L 411.770053 359.51465 
L 413.759358 355.810437 
L 415.748663 350.941652 
L 417.737968 344.95386 
L 419.727273 337.903101 
L 421.716578 329.855361 
L 423.705882 320.885959 
L 425.695187 311.078838 
L 427.684492 300.525781 
L 429.673797 231.375214 
L 433.652406 231.375214 
L 435.641711 160.212866 
L 491.342246 160.212866 
L 493.331551 231.375214 
L 529.139037 231.375214 
L 535.106952 191.967737 
L 539.085561 167.746716 
L 541.074866 156.685973 
L 543.064171 146.500893 
L 545.053476 137.310886 
L 547.042781 129.223698 
L 549.032086 122.334143 
L 551.02139 116.722995 
L 553.010695 112.45604 
L 555 109.583303 
L 556.989305 108.138465 
L 558.97861 108.138465 
L 560.967914 109.583303 
L 562.957219 112.45604 
L 564.946524 116.722995 
L 566.935829 122.334143 
L 568.925134 129.223698 
L 570.914439 137.310886 
L 572.903743 146.500893 
L 574.893048 156.685973 
L 576.882353 167.746716 
L 580.860963 191.967737 
L 584.839572 218.031408 
L 586.828877 231.375214 
L 622.636364 231.375214 
L 622.636364 231.375214 
" clip-path="url(#p9a08a7fb79)" style="fill: none; stroke: #55a868; stroke-width: 3; stroke-linecap: round"/>
   </g>
   <g id="line2d_14">
    <path d="M 115.363636 231.375214 
L 153.160428 231.375214 
L 155.149733 78.365446 
L 244.668449 78.365446 
L 246.657754 231.375214 
L 248.647059 108.529574 
L 314.294118 231.375214 
L 340.15508 231.375214 
L 342.144385 217.606775 
L 344.13369 217.69361 
L 346.122995 217.953019 
L 348.112299 218.38173 
L 350.101604 218.974335 
L 352.090909 219.72336 
L 354.080214 220.619357 
L 358.058824 222.805347 
L 362.037433 225.422361 
L 366.016043 228.338776 
L 377.951872 237.38696 
L 381.930481 239.996162 
L 385.909091 242.171771 
L 387.898396 243.061772 
L 389.887701 243.804364 
L 391.877005 244.390179 
L 393.86631 244.81183 
L 395.855615 245.063996 
L 397.84492 245.143497 
L 399.834225 245.049331 
L 401.823529 244.782686 
L 403.812834 244.346924 
L 405.802139 243.747542 
L 407.791444 231.375214 
L 435.641711 231.375214 
L 463.491979 219.428768 
L 465.481283 219.428768 
L 493.331551 231.375214 
L 529.139037 231.375214 
L 535.106952 205.813264 
L 539.085561 189.547412 
L 543.064171 174.422513 
L 545.053476 167.41838 
L 547.042781 160.851136 
L 549.032086 154.765643 
L 551.02139 149.203472 
L 553.010695 144.202616 
L 555 139.797238 
L 556.989305 136.017431 
L 558.97861 132.889013 
L 560.967914 130.433356 
L 562.957219 128.667235 
L 564.946524 127.602713 
L 566.935829 127.247063 
L 568.925134 127.602713 
L 570.914439 128.667235 
L 572.903743 130.433356 
L 574.893048 132.889013 
L 576.882353 136.017431 
L 578.871658 139.797238 
L 580.860963 144.202616 
L 582.850267 149.203472 
L 584.839572 154.765643 
L 586.828877 160.851136 
L 588.818182 167.41838 
L 592.796791 181.815692 
L 596.775401 197.564859 
L 602.743316 222.776379 
L 604.73262 231.375214 
L 622.636364 231.375214 
L 622.636364 231.375214 
" clip-path="url(#p9a08a7fb79)" style="fill: none; stroke: #c44e52; stroke-width: 3; stroke-linecap: round"/>
   </g>
   <g id="line2d_15">
    <path d="M 115.363636 231.375214 
L 155.149733 231.375214 
L 230.743316 165.524798 
L 232.73262 231.375214 
L 246.657754 231.375214 
L 248.647059 145.435093 
L 304.347594 231.375214 
L 340.15508 231.375214 
L 342.144385 109.954908 
L 344.13369 111.020586 
L 346.122995 114.198914 
L 348.112299 119.4341 
L 350.101604 126.63425 
L 352.090909 135.672974 
L 354.080214 146.391612 
L 356.069519 158.602012 
L 358.058824 172.08984 
L 362.037433 201.932474 
L 371.983957 280.664522 
L 373.973262 294.901488 
L 375.962567 308.023344 
L 377.951872 319.799753 
L 379.941176 330.023998 
L 381.930481 338.516608 
L 383.919786 345.128508 
L 385.909091 349.743634 
L 387.898396 352.280975 
L 389.887701 352.695993 
L 391.877005 350.981401 
L 393.86631 347.167297 
L 395.855615 341.320632 
L 397.84492 333.544036 
L 399.834225 323.974016 
L 401.823529 312.778558 
L 403.812834 300.154184 
L 405.802139 286.322496 
L 407.791444 271.526288 
L 409.780749 231.375214 
L 435.641711 231.375214 
L 441.609626 222.263472 
L 445.588235 216.77852 
L 447.57754 214.335961 
L 449.566845 212.141874 
L 451.55615 210.228251 
L 453.545455 208.622999 
L 455.534759 207.349526 
L 457.524064 206.426401 
L 459.513369 205.867086 
L 461.502674 205.679737 
L 463.491979 205.867086 
L 465.481283 206.426401 
L 467.470588 207.349526 
L 469.459893 208.622999 
L 471.449198 210.228251 
L 473.438503 212.141874 
L 475.427807 214.335961 
L 477.417112 216.77852 
L 481.395722 222.263472 
L 485.374332 228.277967 
L 487.363636 231.375214 
L 529.139037 231.375214 
L 555 213.829314 
L 556.989305 213.829314 
L 582.850267 231.375214 
L 622.636364 231.375214 
L 622.636364 231.375214 
" clip-path="url(#p9a08a7fb79)" style="fill: none; stroke: #8172b3; stroke-width: 3; stroke-linecap: round"/>
   </g>
   <g id="line2d_16">
    <path d="M 115.363636 231.375214 
L 155.149733 231.375214 
L 186.97861 207.407457 
L 188.967914 207.407457 
L 220.796791 231.375214 
L 246.657754 231.375214 
L 248.647059 138.708682 
L 250.636364 141.423764 
L 252.625668 149.409906 
L 254.614973 162.19913 
L 256.604278 179.042001 
L 258.593583 198.951543 
L 264.561497 264.931619 
L 266.550802 284.704276 
L 268.540107 301.351905 
L 270.529412 313.898973 
L 272.518717 321.610234 
L 274.508021 324.033818 
L 276.497326 321.027703 
L 278.486631 312.768046 
L 280.475936 299.738854 
L 282.465241 282.703624 
L 284.454545 262.660602 
L 290.42246 196.691816 
L 292.411765 177.059428 
L 294.40107 160.609889 
L 296.390374 148.307125 
L 298.379679 231.375214 
L 340.15508 231.375214 
L 342.144385 155.936419 
L 425.695187 155.936419 
L 427.684492 231.375214 
L 435.641711 231.375214 
L 499.299465 176.41636 
L 501.28877 231.375214 
L 527.149733 231.375214 
L 529.139037 160.009499 
L 600.754011 231.375214 
L 622.636364 231.375214 
L 622.636364 231.375214 
" clip-path="url(#p9a08a7fb79)" style="fill: none; stroke: #937860; stroke-width: 3; stroke-linecap: round"/>
   </g>
   <g id="line2d_17">
    <path d="M 115.363636 231.375214 
L 153.160428 231.375214 
L 155.149733 222.409381 
L 234.721925 222.409381 
L 236.71123 231.375214 
L 248.647059 231.375214 
L 276.497326 146.725125 
L 278.486631 146.725125 
L 306.336898 231.375214 
L 340.15508 231.375214 
L 342.144385 143.002657 
L 411.770053 231.375214 
L 435.641711 231.375214 
L 439.620321 216.067904 
L 443.59893 201.6502 
L 445.588235 195.040179 
L 447.57754 188.960005 
L 449.566845 183.49834 
L 451.55615 178.734828 
L 453.545455 174.738931 
L 455.534759 171.568919 
L 457.524064 169.271017 
L 459.513369 167.878734 
L 461.502674 167.412373 
L 463.491979 167.878734 
L 465.481283 169.271017 
L 467.470588 171.568919 
L 469.459893 174.738931 
L 471.449198 178.734828 
L 473.438503 183.49834 
L 475.427807 188.960005 
L 477.417112 195.040179 
L 479.406417 201.6502 
L 483.385027 216.067904 
L 487.363636 231.375214 
L 529.139037 231.375214 
L 598.764706 132.893936 
L 600.754011 231.375214 
L 622.636364 231.375214 
L 622.636364 231.375214 
" clip-path="url(#p9a08a7fb79)" style="fill: none; stroke: #da8bc3; stroke-width: 3; stroke-linecap: round"/>
   </g>
   <g id="line2d_18">
    <path d="M 115.363636 231.375214 
L 155.149733 231.375214 
L 224.775401 164.589048 
L 226.764706 231.375214 
L 248.647059 231.375214 
L 254.614973 220.465987 
L 258.593583 213.723714 
L 260.582888 210.624631 
L 262.572193 207.752896 
L 264.561497 205.139972 
L 266.550802 202.814487 
L 268.540107 200.801919 
L 270.529412 199.124319 
L 272.518717 197.800066 
L 274.508021 196.843669 
L 276.497326 196.265608 
L 278.486631 196.072214 
L 280.475936 196.265608 
L 282.465241 196.843669 
L 284.454545 197.800066 
L 286.44385 199.124319 
L 288.433155 200.801919 
L 290.42246 202.814487 
L 292.411765 205.139972 
L 294.40107 207.752896 
L 296.390374 210.624631 
L 300.368984 217.01619 
L 304.347594 224.035308 
L 308.326203 231.375214 
L 340.15508 231.375214 
L 342.144385 117.754832 
L 399.834225 117.754832 
L 401.823529 231.375214 
L 435.641711 231.375214 
L 473.438503 188.945177 
L 475.427807 188.945177 
L 513.224599 231.375214 
L 527.149733 231.375214 
L 529.139037 182.483809 
L 531.128342 182.58118 
L 533.117647 182.872905 
L 535.106952 183.357821 
L 537.096257 184.033998 
L 539.085561 184.898742 
L 541.074866 185.948608 
L 543.064171 187.179415 
L 545.053476 188.586261 
L 547.042781 190.163541 
L 549.032086 191.904973 
L 553.010695 195.851923 
L 556.989305 200.364286 
L 560.967914 205.370242 
L 564.946524 210.790112 
L 568.925134 216.537629 
L 574.893048 225.572059 
L 588.818182 246.888563 
L 592.796791 252.602919 
L 596.775401 257.9794 
L 600.754011 262.93243 
L 604.73262 267.383172 
L 608.71123 271.260785 
L 610.700535 231.375214 
L 622.636364 231.375214 
L 622.636364 231.375214 
" clip-path="url(#p9a08a7fb79)" style="fill: none; stroke: #8c8c8c; stroke-width: 3; stroke-linecap: round"/>
   </g>
   <g id="line2d_19">
    <path d="M 115.363636 231.375214 
L 155.149733 231.375214 
L 188.967914 132.373219 
L 190.957219 132.373219 
L 224.775401 231.375214 
L 246.657754 231.375214 
L 248.647059 168.812876 
L 324.240642 168.812876 
L 326.229947 231.375214 
L 340.15508 231.375214 
L 342.144385 147.299397 
L 427.684492 231.375214 
L 435.641711 231.375214 
L 503.278075 117.506016 
L 505.26738 231.375214 
L 529.139037 231.375214 
L 535.106952 214.177042 
L 539.085561 203.363078 
L 543.064171 193.503034 
L 545.053476 189.037251 
L 547.042781 184.932681 
L 549.032086 181.224342 
L 551.02139 177.943873 
L 553.010695 175.119261 
L 555 172.774606 
L 556.989305 170.929909 
L 558.97861 169.600911 
L 560.967914 168.79895 
L 562.957219 168.530867 
L 564.946524 168.79895 
L 566.935829 169.600911 
L 568.925134 170.929909 
L 570.914439 172.774606 
L 572.903743 175.119261 
L 574.893048 177.943873 
L 576.882353 181.224342 
L 578.871658 184.932681 
L 580.860963 189.037251 
L 582.850267 193.503034 
L 586.828877 203.363078 
L 590.807487 214.177042 
L 596.775401 231.375214 
L 622.636364 231.375214 
L 622.636364 231.375214 
" clip-path="url(#p9a08a7fb79)" style="fill: none; stroke: #ccb974; stroke-width: 3; stroke-linecap: round"/>
   </g>
   <g id="line2d_20">
    <path d="M 115.363636 231.375214 
L 157.139037 231.297158 
L 246.657754 227.784623 
L 248.647059 231.375214 
L 256.604278 199.378584 
L 260.582888 184.196142 
L 264.561497 169.97413 
L 268.540107 157.002067 
L 270.529412 151.068435 
L 272.518717 145.544027 
L 274.508021 140.456996 
L 276.497326 135.833262 
L 278.486631 131.696389 
L 280.475936 128.067456 
L 282.465241 124.964956 
L 284.454545 122.404698 
L 286.44385 120.399729 
L 288.433155 118.960266 
L 290.42246 118.093643 
L 292.411765 117.804278 
L 294.40107 118.093643 
L 296.390374 118.960266 
L 298.379679 120.399729 
L 300.368984 122.404698 
L 302.358289 124.964956 
L 304.347594 128.067456 
L 306.336898 131.696389 
L 308.326203 135.833262 
L 310.315508 140.456996 
L 312.304813 145.544027 
L 314.294118 151.068435 
L 316.283422 157.002067 
L 320.262032 169.97413 
L 324.240642 184.196142 
L 328.219251 199.378584 
L 334.187166 223.273156 
L 336.176471 231.375214 
L 342.144385 231.375214 
L 375.962567 125.13219 
L 377.951872 125.13219 
L 411.770053 231.375214 
L 433.652406 231.375214 
L 435.641711 67.669229 
L 501.28877 67.669229 
L 503.278075 231.375214 
L 527.149733 231.375214 
L 529.139037 133.225018 
L 531.128342 135.400341 
L 533.117647 141.829886 
L 535.106952 152.228654 
L 537.096257 166.135705 
L 539.085561 182.934589 
L 541.074866 201.880673 
L 547.042781 262.954034 
L 549.032086 281.711055 
L 551.02139 298.236869 
L 553.010695 311.798945 
L 555 321.796127 
L 556.989305 327.785273 
L 558.97861 329.500907 
L 560.967914 326.866982 
L 562.957219 320.000249 
L 564.946524 309.205086 
L 566.935829 294.960004 
L 568.925134 277.896437 
L 570.914439 258.770751 
L 574.893048 217.777941 
L 576.882353 231.375214 
L 622.636364 231.375214 
L 622.636364 231.375214 
" clip-path="url(#p9a08a7fb79)" style="fill: none; stroke: #64b5cd; stroke-width: 3; stroke-linecap: round"/>
   </g>
   <g id="line2d_21">
    <path d="M 115.363636 231.375214 
L 155.149733 231.375214 
L 161.117647 213.141494 
L 165.096257 201.934502 
L 167.085561 196.816729 
L 169.074866 192.104124 
L 171.064171 187.851936 
L 173.053476 184.110019 
L 175.042781 180.922242 
L 177.032086 178.325981 
L 179.02139 176.351674 
L 181.010695 175.022467 
L 183 174.353945 
L 184.989305 174.353945 
L 186.97861 175.022467 
L 188.967914 176.351674 
L 190.957219 178.325981 
L 192.946524 180.922242 
L 194.935829 184.110019 
L 196.925134 187.851936 
L 198.914439 192.104124 
L 200.903743 196.816729 
L 202.893048 201.934502 
L 206.871658 213.141494 
L 210.850267 225.201076 
L 212.839572 231.375214 
L 246.657754 231.375214 
L 248.647059 86.580421 
L 340.15508 231.375214 
L 342.144385 231.375214 
L 368.005348 120.981883 
L 369.994652 120.981883 
L 395.855615 231.375214 
L 435.641711 231.375214 
L 507.256684 142.31532 
L 509.245989 231.375214 
L 527.149733 231.375214 
L 529.139037 138.305735 
L 578.871658 138.305735 
L 580.860963 231.375214 
L 622.636364 231.375214 
L 622.636364 231.375214 
" clip-path="url(#p9a08a7fb79)" style="fill: none; stroke: #4c72b0; stroke-width: 3; stroke-linecap: round"/>
   </g>
   <g id="line2d_22">
    <path d="M 115.363636 231.375214 
L 153.160428 231.375214 
L 155.149733 133.490169 
L 210.850267 231.375214 
L 248.647059 231.375214 
L 256.604278 198.194961 
L 260.582888 182.413692 
L 264.561497 167.585402 
L 268.540107 153.998709 
L 270.529412 147.75469 
L 272.518717 141.918061 
L 274.508021 136.517259 
L 276.497326 131.578595 
L 278.486631 127.126131 
L 280.475936 123.181557 
L 282.465241 119.764092 
L 284.454545 116.890385 
L 286.44385 114.574437 
L 288.433155 112.82753 
L 290.42246 111.658176 
L 292.411765 111.072071 
L 294.40107 111.072071 
L 296.390374 111.658176 
L 298.379679 112.82753 
L 300.368984 114.574437 
L 302.358289 116.890385 
L 304.347594 119.764092 
L 306.336898 123.181557 
L 308.326203 127.126131 
L 310.315508 131.578595 
L 312.304813 136.517259 
L 314.294118 141.918061 
L 316.283422 147.75469 
L 318.272727 153.998709 
L 322.251337 167.585402 
L 326.229947 182.413692 
L 330.208556 198.194961 
L 336.176471 222.978176 
L 338.165775 231.375214 
L 342.144385 231.375214 
L 375.962567 99.883101 
L 377.951872 99.883101 
L 411.770053 231.375214 
L 435.641711 231.375214 
L 485.374332 109.445461 
L 487.363636 231.375214 
L 527.149733 231.375214 
L 529.139037 92.947824 
L 531.128342 95.744373 
L 533.117647 104.021028 
L 535.106952 117.443373 
L 537.096257 135.469085 
L 539.085561 157.369842 
L 541.074866 182.260754 
L 545.053476 236.910036 
L 549.032086 290.673826 
L 551.02139 314.491391 
L 553.010695 334.950684 
L 555 351.225054 
L 556.989305 362.656944 
L 558.97861 368.784452 
L 560.967914 369.36 
L 562.957219 364.360332 
L 564.946524 353.987459 
L 566.935829 338.660491 
L 568.925134 318.998708 
L 570.914439 295.796536 
L 572.903743 269.991448 
L 576.882353 214.806142 
L 578.871658 231.375214 
L 622.636364 231.375214 
L 622.636364 231.375214 
" clip-path="url(#p9a08a7fb79)" style="fill: none; stroke: #dd8452; stroke-width: 3; stroke-linecap: round"/>
   </g>
   <g id="line2d_23">
    <path d="M 115.363636 231.375214 
L 153.160428 231.375214 
L 155.149733 113.920572 
L 244.668449 113.920572 
L 246.657754 231.375214 
L 248.647059 66.96 
L 308.326203 231.375214 
L 342.144385 231.375214 
L 348.112299 214.429251 
L 352.090909 203.674138 
L 356.069519 193.715935 
L 358.058824 189.126326 
L 360.048128 184.841121 
L 362.037433 180.891195 
L 364.026738 177.305007 
L 366.016043 174.108397 
L 368.005348 171.324396 
L 369.994652 168.973062 
L 371.983957 167.071337 
L 373.973262 165.632922 
L 375.962567 164.668183 
L 377.951872 164.184069 
L 379.941176 164.184069 
L 381.930481 164.668183 
L 383.919786 165.632922 
L 385.909091 167.071337 
L 387.898396 168.973062 
L 389.887701 171.324396 
L 391.877005 174.108397 
L 393.86631 177.305007 
L 395.855615 180.891195 
L 397.84492 184.841121 
L 399.834225 189.126326 
L 403.812834 198.57688 
L 407.791444 208.970983 
L 411.770053 220.009615 
L 415.748663 231.375214 
L 435.641711 231.375214 
L 461.502674 118.172552 
L 463.491979 118.172552 
L 489.352941 231.375214 
L 529.139037 231.375214 
L 596.775401 118.835037 
L 598.764706 231.375214 
L 622.636364 231.375214 
L 622.636364 231.375214 
" clip-path="url(#p9a08a7fb79)" style="fill: none; stroke: #55a868; stroke-width: 3; stroke-linecap: round"/>
   </g>
   <g id="line2d_24">
    <path d="M 115.363636 231.375214 
L 153.160428 231.375214 
L 155.149733 125.517332 
L 238.700535 231.375214 
L 246.657754 231.375214 
L 248.647059 150.796999 
L 250.636364 150.882555 
L 252.625668 151.139041 
L 254.614973 151.565911 
L 256.604278 152.162261 
L 258.593583 152.926823 
L 260.582888 153.857974 
L 262.572193 154.953736 
L 264.561497 156.211783 
L 266.550802 157.629443 
L 268.540107 159.203706 
L 270.529412 160.931228 
L 274.508021 164.831059 
L 278.486631 169.295828 
L 282.465241 174.287631 
L 286.44385 179.76409 
L 290.42246 185.67871 
L 294.40107 191.981278 
L 298.379679 198.618289 
L 304.347594 209.076967 
L 312.304813 223.648107 
L 320.262032 238.481092 
L 322.251337 231.375214 
L 342.144385 231.375214 
L 366.016043 102.855644 
L 368.005348 102.855644 
L 391.877005 231.375214 
L 435.641711 231.375214 
L 439.620321 191.55856 
L 441.609626 172.579112 
L 443.59893 154.694924 
L 445.588235 138.239145 
L 447.57754 123.518315 
L 449.566845 110.806655 
L 451.55615 100.340959 
L 453.545455 92.316183 
L 455.534759 86.881814 
L 457.524064 84.139083 
L 459.513369 84.139083 
L 461.502674 86.881814 
L 463.491979 92.316183 
L 465.481283 100.340959 
L 467.470588 110.806655 
L 469.459893 123.518315 
L 471.449198 138.239145 
L 473.438503 154.694924 
L 475.427807 172.579112 
L 479.406417 211.279716 
L 481.395722 231.375214 
L 529.139037 231.375214 
L 616.668449 110.843628 
L 618.657754 231.375214 
L 622.636364 231.375214 
L 622.636364 231.375214 
" clip-path="url(#p9a08a7fb79)" style="fill: none; stroke: #c44e52; stroke-width: 3; stroke-linecap: round"/>
   </g>
   <g id="line2d_25">
    <path d="M 115.363636 231.375214 
L 153.160428 231.375214 
L 155.149733 127.29104 
L 240.68984 231.375214 
L 248.647059 231.375214 
L 254.614973 200.697501 
L 258.593583 181.842055 
L 260.582888 173.231549 
L 262.572193 165.302725 
L 264.561497 158.14854 
L 266.550802 151.852871 
L 268.540107 146.489528 
L 270.529412 142.121393 
L 272.518717 138.799677 
L 274.508021 136.563325 
L 276.497326 135.438555 
L 278.486631 135.438555 
L 280.475936 136.563325 
L 282.465241 138.799677 
L 284.454545 142.121393 
L 286.44385 146.489528 
L 288.433155 151.852871 
L 290.42246 158.14854 
L 292.411765 165.302725 
L 294.40107 173.231549 
L 296.390374 181.842055 
L 300.368984 200.697501 
L 304.347594 220.987402 
L 306.336898 231.375214 
L 340.15508 231.375214 
L 342.144385 160.452461 
L 393.86631 160.452461 
L 395.855615 231.375214 
L 435.641711 231.375214 
L 463.491979 101.70483 
L 465.481283 101.70483 
L 493.331551 231.375214 
L 527.149733 231.375214 
L 529.139037 144.966355 
L 533.117647 145.105045 
L 537.096257 145.52067 
L 541.074866 146.211896 
L 545.053476 147.176504 
L 549.032086 148.411398 
L 553.010695 149.912613 
L 556.989305 151.67533 
L 560.967914 153.693891 
L 564.946524 155.961817 
L 568.925134 158.471826 
L 572.903743 161.215862 
L 576.882353 164.185115 
L 580.860963 167.370055 
L 584.839572 170.760457 
L 590.807487 176.207323 
L 596.775401 182.052517 
L 602.743316 188.253835 
L 608.71123 194.766502 
L 610.700535 231.375214 
L 622.636364 231.375214 
L 622.636364 231.375214 
" clip-path="url(#p9a08a7fb79)" style="fill: none; stroke: #8172b3; stroke-width: 3; stroke-linecap: round"/>
   </g>
   <g id="line2d_26">
    <path d="M 115.363636 231.375214 
L 155.149733 231.375214 
L 181.010695 111.369891 
L 183 111.369891 
L 208.860963 231.375214 
L 248.647059 231.375214 
L 298.379679 175.123843 
L 300.368984 231.375214 
L 340.15508 231.375214 
L 342.144385 120.167558 
L 401.823529 120.167558 
L 403.812834 231.375214 
L 433.652406 231.375214 
L 435.641711 91.494768 
L 437.631016 91.787281 
L 439.620321 92.663596 
L 441.609626 94.120048 
L 443.59893 96.150546 
L 445.588235 98.746597 
L 447.57754 101.897344 
L 449.566845 105.58961 
L 451.55615 109.807952 
L 453.545455 114.534728 
L 455.534759 119.750169 
L 457.524064 125.432462 
L 459.513369 131.557843 
L 461.502674 138.100691 
L 465.481283 152.327707 
L 469.459893 167.875748 
L 473.438503 184.484981 
L 479.406417 210.777666 
L 493.331551 273.378587 
L 497.31016 290.239959 
L 501.28877 306.117595 
L 503.278075 231.375214 
L 527.149733 231.375214 
L 529.139037 169.603184 
L 582.850267 231.375214 
L 622.636364 231.375214 
L 622.636364 231.375214 
" clip-path="url(#p9a08a7fb79)" style="fill: none; stroke: #937860; stroke-width: 3; stroke-linecap: round"/>
   </g>
   <g id="line2d_27">
    <path d="M 115.363636 231.375214 
L 153.160428 231.375214 
L 155.149733 129.19149 
L 212.839572 129.19149 
L 214.828877 231.375214 
L 248.647059 231.375214 
L 298.379679 68.227465 
L 300.368984 231.375214 
L 342.144385 231.375214 
L 350.101604 199.718776 
L 354.080214 184.776494 
L 358.058824 170.87515 
L 362.037433 158.325279 
L 364.026738 152.646107 
L 366.016043 147.407222 
L 368.005348 142.637919 
L 369.994652 138.364871 
L 371.983957 134.611974 
L 373.973262 131.400217 
L 375.962567 128.747561 
L 377.951872 126.66884 
L 379.941176 125.17568 
L 381.930481 124.27643 
L 383.919786 123.97612 
L 385.909091 124.27643 
L 387.898396 125.17568 
L 389.887701 126.66884 
L 391.877005 128.747561 
L 393.86631 131.400217 
L 395.855615 134.611974 
L 397.84492 138.364871 
L 399.834225 142.637919 
L 401.823529 147.407222 
L 403.812834 152.646107 
L 405.802139 158.325279 
L 407.791444 164.412974 
L 411.770053 177.675667 
L 415.748663 192.137919 
L 419.727273 207.476667 
L 425.695187 231.375214 
L 433.652406 231.375214 
L 435.641711 162.801215 
L 437.631016 163.324207 
L 439.620321 164.885204 
L 441.609626 167.460396 
L 443.59893 171.010503 
L 445.588235 175.481374 
L 447.57754 180.804813 
L 449.566845 186.899619 
L 451.55615 193.672828 
L 453.545455 201.021124 
L 457.524064 216.987571 
L 467.470588 258.491227 
L 469.459893 266.048508 
L 471.449198 273.076905 
L 473.438503 279.469212 
L 475.427807 285.127924 
L 477.417112 289.966728 
L 479.406417 293.911815 
L 481.395722 296.90301 
L 483.385027 298.894686 
L 485.374332 299.856465 
L 487.363636 299.773675 
L 489.352941 298.64758 
L 491.342246 296.495357 
L 493.331551 293.349833 
L 495.320856 289.258989 
L 497.31016 284.285224 
L 499.299465 278.504404 
L 501.28877 231.375214 
L 529.139037 231.375214 
L 555 158.916752 
L 556.989305 158.916752 
L 582.850267 231.375214 
L 622.636364 231.375214 
L 622.636364 231.375214 
" clip-path="url(#p9a08a7fb79)" style="fill: none; stroke: #da8bc3; stroke-width: 3; stroke-linecap: round"/>
   </g>
   <g id="line2d_28">
    <path d="M 115.363636 231.375214 
L 155.149733 231.375214 
L 188.967914 177.325223 
L 190.957219 177.325223 
L 224.775401 231.375214 
L 246.657754 231.375214 
L 248.647059 145.201652 
L 250.636364 145.811422 
L 252.625668 147.632102 
L 254.614973 150.637927 
L 256.604278 154.786356 
L 258.593583 160.018682 
L 260.582888 166.260854 
L 262.572193 173.424534 
L 264.561497 181.40834 
L 266.550802 190.099284 
L 270.529412 209.102338 
L 282.465241 269.07214 
L 284.454545 278.007591 
L 286.44385 286.283094 
L 288.433155 293.781534 
L 290.42246 300.39679 
L 292.411765 306.035244 
L 294.40107 310.617099 
L 296.390374 314.077512 
L 298.379679 316.367511 
L 300.368984 317.454687 
L 302.358289 317.323655 
L 304.347594 315.976269 
L 306.336898 313.431597 
L 308.326203 309.725652 
L 310.315508 304.910881 
L 312.304813 299.055424 
L 314.294118 292.242146 
L 316.283422 284.567472 
L 318.272727 276.140013 
L 322.251337 257.512776 
L 328.219251 227.160294 
L 332.197861 206.981732 
L 336.176471 188.179165 
L 338.165775 231.375214 
L 340.15508 231.375214 
L 342.144385 130.147683 
L 395.855615 130.147683 
L 397.84492 231.375214 
L 435.641711 231.375214 
L 523.171123 213.096714 
L 525.160428 231.375214 
L 527.149733 231.375214 
L 529.139037 142.930619 
L 600.754011 231.375214 
L 622.636364 231.375214 
L 622.636364 231.375214 
" clip-path="url(#p9a08a7fb79)" style="fill: none; stroke: #8c8c8c; stroke-width: 3; stroke-linecap: round"/>
   </g>
   <g id="line2d_29">
    <path d="M 115.363636 231.375214 
L 153.160428 231.375214 
L 155.149733 194.219555 
L 157.139037 194.480727 
L 159.128342 195.260572 
L 161.117647 196.548127 
L 163.106952 198.325291 
L 165.096257 200.56708 
L 167.085561 203.241979 
L 169.074866 206.312382 
L 171.064171 209.735125 
L 173.053476 213.462091 
L 177.032086 221.615571 
L 188.967914 247.403885 
L 190.957219 251.258674 
L 192.946524 254.833936 
L 194.935829 258.079409 
L 196.925134 260.949466 
L 198.914439 263.40376 
L 200.903743 265.407789 
L 202.893048 266.933377 
L 204.882353 267.959079 
L 206.871658 268.470475 
L 208.860963 268.460376 
L 210.850267 267.928922 
L 212.839572 266.883587 
L 214.828877 265.339065 
L 216.818182 263.31707 
L 218.807487 260.846027 
L 220.796791 257.960675 
L 222.786096 254.701577 
L 224.775401 251.114551 
L 228.754011 243.162324 
L 234.721925 230.145657 
L 236.71123 231.375214 
L 248.647059 231.375214 
L 282.465241 183.333586 
L 284.454545 183.333586 
L 318.272727 231.375214 
L 340.15508 231.375214 
L 342.144385 94.743901 
L 413.759358 94.743901 
L 415.748663 231.375214 
L 435.641711 231.375214 
L 503.278075 174.046852 
L 505.26738 231.375214 
L 529.139037 231.375214 
L 535.106952 191.175532 
L 539.085561 165.992069 
L 541.074866 154.232588 
L 543.064171 143.171723 
L 545.053476 132.909643 
L 547.042781 123.539282 
L 549.032086 115.1455 
L 551.02139 107.804312 
L 553.010695 101.582201 
L 555 96.535516 
L 556.989305 92.70996 
L 558.97861 90.140178 
L 560.967914 88.849443 
L 562.957219 88.849443 
L 564.946524 90.140178 
L 566.935829 92.70996 
L 568.925134 96.535516 
L 570.914439 101.582201 
L 572.903743 107.804312 
L 574.893048 115.1455 
L 576.882353 123.539282 
L 578.871658 132.909643 
L 580.860963 143.171723 
L 582.850267 154.232588 
L 586.828877 178.343669 
L 590.807487 204.371448 
L 594.786096 231.375214 
L 622.636364 231.375214 
L 622.636364 231.375214 
" clip-path="url(#p9a08a7fb79)" style="fill: none; stroke: #ccb974; stroke-width: 3; stroke-linecap: round"/>
   </g>
   <g id="line2d_30">
    <path d="M 115.363636 231.375214 
L 153.160428 231.375214 
L 155.149733 260.653437 
L 232.73262 260.653437 
L 234.721925 231.375214 
L 246.657754 231.375214 
L 248.647059 182.928662 
L 250.636364 183.228865 
L 252.625668 184.125755 
L 254.614973 185.608215 
L 256.604278 187.657874 
L 258.593583 190.249329 
L 260.582888 193.350465 
L 262.572193 196.922848 
L 264.561497 200.922205 
L 266.550802 205.298972 
L 270.529412 214.96376 
L 274.508021 225.439588 
L 282.465241 246.739042 
L 286.44385 256.510068 
L 288.433155 260.957821 
L 290.42246 265.038951 
L 292.411765 268.702881 
L 294.40107 271.904203 
L 296.390374 274.603242 
L 298.379679 276.766548 
L 300.368984 278.367312 
L 302.358289 231.375214 
L 340.15508 231.375214 
L 342.144385 134.536652 
L 405.802139 231.375214 
L 435.641711 231.375214 
L 485.374332 106.570243 
L 487.363636 231.375214 
L 529.139037 231.375214 
L 570.914439 127.568684 
L 572.903743 127.568684 
L 614.679144 231.375214 
L 622.636364 231.375214 
L 622.636364 231.375214 
" clip-path="url(#p9a08a7fb79)" style="fill: none; stroke: #64b5cd; stroke-width: 3; stroke-linecap: round"/>
   </g>
   <g id="patch_3">
    <path d="M 90 384.48 
L 90 51.84 
" style="fill: none; stroke: #ffffff; stroke-width: 1.25; stroke-linejoin: miter; stroke-linecap: square"/>
   </g>
   <g id="patch_4">
    <path d="M 648 384.48 
L 648 51.84 
" style="fill: none; stroke: #ffffff; stroke-width: 1.25; stroke-linejoin: miter; stroke-linecap: square"/>
   </g>
   <g id="patch_5">
    <path d="M 90 384.48 
L 648 384.48 
" style="fill: none; stroke: #ffffff; stroke-width: 1.25; stroke-linejoin: miter; stroke-linecap: square"/>
   </g>
   <g id="patch_6">
    <path d="M 90 51.84 
L 648 51.84 
" style="fill: none; stroke: #ffffff; stroke-width: 1.25; stroke-linejoin: miter; stroke-linecap: square"/>
   </g>
   <g id="text_13">
    <!-- Illustration of Stochasticity in Signal Generation -->
    <g style="fill: #262626" transform="translate(78.383939 45.84) scale(0.3 -0.3)">
     <defs>
      <path id="CMR17-49" d="M 1261 3898 
C 1261 4185 1338 4185 1798 4185 
L 1798 4352 
C 1594 4339 1267 4339 1050 4339 
C 832 4339 506 4339 301 4352 
L 301 4185 
C 762 4185 838 4185 838 3898 
L 838 453 
C 838 166 762 166 301 166 
L 301 0 
C 506 12 832 12 1050 12 
C 1267 12 1594 12 1798 0 
L 1798 166 
C 1338 166 1261 166 1261 453 
L 1261 3898 
z
" transform="scale(0.015625)"/>
      <path id="CMR17-73" d="M 1978 2688 
C 1978 2803 1971 2809 1933 2809 
C 1907 2809 1901 2803 1824 2707 
C 1805 2681 1747 2617 1728 2592 
C 1523 2809 1235 2816 1126 2816 
C 416 2816 160 2444 160 2073 
C 160 1497 813 1363 998 1324 
C 1402 1241 1542 1216 1677 1100 
C 1760 1024 1901 883 1901 652 
C 1901 384 1747 38 1158 38 
C 602 38 403 460 288 1024 
C 269 1113 269 1120 218 1120 
C 166 1120 160 1113 160 985 
L 160 64 
C 160 -52 166 -58 205 -58 
C 237 -58 243 -52 275 0 
C 314 57 410 211 448 275 
C 576 102 800 -64 1158 -64 
C 1792 -64 2131 281 2131 780 
C 2131 1107 1958 1280 1875 1356 
C 1683 1555 1459 1600 1190 1651 
C 838 1728 390 1817 390 2208 
C 390 2374 480 2726 1126 2726 
C 1811 2726 1850 2086 1862 1881 
C 1869 1849 1901 1843 1920 1843 
C 1978 1843 1978 1862 1978 1971 
L 1978 2688 
z
" transform="scale(0.015625)"/>
      <path id="CMR17-72" d="M 960 1517 
C 960 2134 1222 2713 1702 2713 
C 1747 2713 1792 2707 1837 2687 
C 1837 2687 1696 2642 1696 2475 
C 1696 2321 1818 2257 1914 2257 
C 1990 2257 2131 2302 2131 2482 
C 2131 2687 1926 2816 1709 2816 
C 1222 2816 1011 2340 947 2115 
L 941 2115 
L 941 2816 
L 198 2745 
L 198 2578 
C 576 2578 634 2540 634 2231 
L 634 443 
C 634 198 608 166 198 166 
L 198 0 
C 352 12 646 12 813 12 
C 998 12 1325 12 1498 0 
L 1498 166 
C 1037 166 960 166 960 455 
L 960 1517 
z
" transform="scale(0.015625)"/>
      <path id="CMR17-61" d="M 2304 1656 
C 2304 2048 2304 2275 2035 2534 
C 1798 2751 1523 2816 1306 2816 
C 800 2816 435 2408 435 1977 
C 435 1740 627 1728 666 1728 
C 749 1728 896 1779 896 1958 
C 896 2118 774 2188 666 2188 
C 640 2188 608 2182 589 2176 
C 723 2594 1069 2713 1293 2713 
C 1613 2713 1965 2421 1965 1875 
L 1965 1632 
C 1587 1619 1133 1568 774 1373 
C 371 1147 256 822 256 576 
C 256 77 832 -64 1171 -64 
C 1523 -64 1850 135 1990 505 
C 2003 219 2182 -39 2464 -39 
C 2598 -39 2938 51 2938 563 
L 2938 926 
L 2822 926 
L 2822 557 
C 2822 161 2650 109 2566 109 
C 2304 109 2304 446 2304 732 
L 2304 1656 
z
M 1965 887 
C 1965 323 1568 38 1216 38 
C 896 38 646 278 646 576 
C 646 771 730 1114 1101 1322 
C 1408 1497 1760 1523 1965 1536 
L 1965 887 
z
" transform="scale(0.015625)"/>
      <path id="CMR17-6f" d="M 2758 1356 
C 2758 2176 2163 2816 1466 2816 
C 768 2816 173 2176 173 1356 
C 173 550 768 -64 1466 -64 
C 2163 -64 2758 550 2758 1356 
z
M 1466 51 
C 1165 51 909 230 762 480 
C 602 768 582 1126 582 1408 
C 582 1676 595 2009 762 2297 
C 890 2508 1139 2713 1466 2713 
C 1754 2713 1997 2553 2150 2329 
C 2349 2028 2349 1606 2349 1408 
C 2349 1158 2336 774 2163 467 
C 1984 172 1709 51 1466 51 
z
" transform="scale(0.015625)"/>
      <path id="CMR17-6e" d="M 2656 1954 
C 2656 2282 2592 2816 1837 2816 
C 1331 2816 1069 2424 973 2166 
L 966 2166 
L 966 2816 
L 211 2745 
L 211 2578 
C 589 2578 646 2540 646 2231 
L 646 443 
C 646 198 621 166 211 166 
L 211 0 
C 365 12 646 12 813 12 
C 979 12 1267 12 1421 0 
L 1421 166 
C 1011 166 986 192 986 443 
L 986 1678 
C 986 2269 1344 2713 1792 2713 
C 2266 2713 2317 2289 2317 1980 
L 2317 443 
C 2317 198 2291 166 1882 166 
L 1882 0 
C 2035 12 2317 12 2483 12 
C 2650 12 2938 12 3091 0 
L 3091 166 
C 2682 166 2656 192 2656 443 
L 2656 1954 
z
" transform="scale(0.015625)"/>
      <path id="CMR17-66" d="M 979 2585 
L 1709 2585 
L 1709 2752 
L 966 2752 
L 966 3539 
C 966 4076 1235 4377 1510 4377 
C 1594 4377 1690 4363 1754 4339 
C 1702 4326 1568 4281 1568 4121 
C 1568 3955 1696 3904 1786 3904 
C 1875 3904 2003 3955 2003 4121 
C 2003 4353 1773 4480 1517 4480 
C 1152 4480 653 4211 653 3526 
L 653 2752 
L 141 2752 
L 141 2585 
L 653 2585 
L 653 441 
C 653 198 627 166 218 166 
L 218 0 
C 371 12 666 12 832 12 
C 1018 12 1344 12 1517 0 
L 1517 166 
C 1056 166 979 166 979 454 
L 979 2585 
z
" transform="scale(0.015625)"/>
      <path id="CMR17-53" d="M 2803 4351 
C 2803 4467 2797 4473 2758 4473 
C 2720 4473 2707 4447 2682 4390 
L 2490 3965 
C 2246 4320 1875 4480 1472 4480 
C 819 4480 294 3958 294 3301 
C 294 3101 339 2817 557 2546 
C 794 2250 1018 2198 1530 2063 
C 1722 2011 2042 1927 2106 1901 
C 2470 1747 2662 1360 2662 999 
C 2662 534 2336 38 1779 38 
C 1094 38 454 425 410 1328 
C 403 1431 397 1437 352 1437 
C 301 1437 294 1431 294 1302 
L 294 0 
C 294 -116 301 -122 339 -122 
C 384 -122 397 -90 486 109 
C 493 128 493 141 614 386 
C 934 -39 1472 -128 1779 -128 
C 2477 -128 2970 457 2970 1141 
C 2970 1476 2848 1734 2778 1850 
C 2509 2263 2221 2340 1914 2417 
C 1869 2437 1856 2437 1498 2527 
C 1152 2617 1005 2662 845 2836 
C 666 3036 602 3243 602 3449 
C 602 3868 934 4326 1478 4326 
C 2157 4326 2579 3842 2675 3036 
C 2694 2920 2701 2914 2746 2914 
C 2803 2914 2803 2933 2803 3043 
L 2803 4351 
z
" transform="scale(0.015625)"/>
      <path id="CMR17-63" d="M 2234 2240 
C 2112 2240 1933 2240 1933 2015 
C 1933 1836 2080 1785 2163 1785 
C 2208 1785 2394 1804 2394 2028 
C 2394 2476 1958 2816 1466 2816 
C 787 2816 211 2201 211 1379 
C 211 521 813 -64 1466 -64 
C 2259 -64 2458 676 2458 747 
C 2458 773 2451 792 2406 792 
C 2362 792 2355 786 2330 702 
C 2163 180 1798 51 1523 51 
C 1114 51 621 431 621 1385 
C 621 2358 1094 2700 1472 2700 
C 1722 2700 2093 2582 2234 2240 
z
" transform="scale(0.015625)"/>
      <path id="CMR17-68" d="M 2656 1954 
C 2656 2282 2592 2816 1837 2816 
C 1312 2816 1056 2392 979 2179 
L 973 2179 
L 973 4416 
L 211 4345 
L 211 4179 
C 589 4179 646 4141 646 3843 
L 646 443 
C 646 198 621 166 211 166 
L 211 0 
C 365 12 646 12 813 12 
C 979 12 1267 12 1421 0 
L 1421 166 
C 1011 166 986 192 986 443 
L 986 1678 
C 986 2269 1344 2713 1792 2713 
C 2266 2713 2317 2289 2317 1980 
L 2317 443 
C 2317 198 2291 166 1882 166 
L 1882 0 
C 2035 12 2317 12 2483 12 
C 2650 12 2938 12 3091 0 
L 3091 166 
C 2682 166 2656 192 2656 443 
L 2656 1954 
z
" transform="scale(0.015625)"/>
      <path id="CMR17-79" d="M 2496 2183 
C 2656 2579 2944 2585 3034 2585 
L 3034 2752 
C 2912 2745 2752 2739 2630 2739 
C 2496 2739 2285 2739 2157 2752 
L 2157 2585 
C 2400 2566 2406 2384 2406 2332 
C 2406 2268 2394 2235 2362 2158 
L 1664 409 
L 902 2300 
C 870 2378 870 2423 870 2430 
C 870 2572 1018 2585 1171 2585 
L 1171 2752 
C 1018 2739 742 2739 582 2739 
C 410 2739 205 2739 64 2752 
L 64 2585 
C 410 2585 448 2553 531 2345 
L 1485 -31 
C 1197 -795 1030 -1242 627 -1242 
C 557 -1242 397 -1223 282 -1106 
C 429 -1093 493 -1002 493 -892 
C 493 -782 416 -685 288 -685 
C 147 -685 77 -782 77 -899 
C 77 -1158 339 -1344 627 -1344 
C 998 -1344 1229 -983 1357 -659 
L 2496 2183 
z
" transform="scale(0.015625)"/>
      <path id="CMR17-67" d="M 710 1165 
C 832 1068 1043 960 1299 960 
C 1805 960 2240 1359 2240 1895 
C 2240 2063 2189 2321 1997 2521 
C 2176 2713 2438 2777 2586 2777 
C 2611 2777 2650 2777 2682 2758 
C 2656 2751 2598 2726 2598 2623 
C 2598 2540 2656 2483 2739 2483 
C 2835 2483 2886 2547 2886 2630 
C 2886 2751 2790 2880 2586 2880 
C 2330 2880 2106 2758 1926 2591 
C 1734 2764 1504 2828 1299 2828 
C 794 2828 358 2431 358 1895 
C 358 1527 570 1294 634 1230 
C 442 1004 442 742 442 710 
C 442 544 506 300 723 166 
C 390 82 128 -184 128 -517 
C 128 -996 736 -1344 1466 -1344 
C 2170 -1344 2803 -1009 2803 -510 
C 2803 384 1856 384 1363 384 
C 1216 384 954 384 922 390 
C 723 422 589 601 589 825 
C 589 883 589 1024 710 1165 
z
M 1299 1068 
C 736 1068 736 1766 736 1895 
C 736 2024 736 2719 1299 2719 
C 1862 2719 1862 2024 1862 1895 
C 1862 1766 1862 1068 1299 1068 
z
M 1466 -1236 
C 826 -1236 384 -883 384 -517 
C 384 -311 493 -118 634 -11 
C 794 102 858 102 1293 102 
C 1818 102 2547 102 2547 -517 
C 2547 -883 2106 -1236 1466 -1236 
z
" transform="scale(0.015625)"/>
      <path id="CMR17-47" d="M 3974 1258 
C 3974 1503 3994 1536 4390 1536 
L 4390 1702 
C 4237 1689 3891 1689 3718 1689 
C 3539 1689 3040 1696 2797 1702 
L 2797 1536 
L 2989 1536 
C 3539 1536 3552 1464 3552 1232 
L 3552 806 
C 3552 96 2720 38 2522 38 
C 1862 38 781 496 781 2179 
C 781 3862 1843 4313 2464 4313 
C 3187 4313 3712 3681 3834 2785 
C 3846 2708 3846 2695 3904 2695 
C 3974 2695 3974 2708 3974 2824 
L 3974 4351 
C 3974 4467 3968 4473 3930 4473 
C 3904 4473 3898 4467 3853 4390 
L 3571 3849 
C 3258 4249 2874 4480 2381 4480 
C 1286 4480 294 3507 294 2179 
C 294 858 1267 -128 2394 -128 
C 2912 -128 3418 57 3616 425 
C 3725 161 3904 -20 3936 -20 
C 3968 -20 3974 -13 3974 102 
L 3974 1258 
z
" transform="scale(0.015625)"/>
     </defs>
     <use xlink:href="#CMR17-49" transform="scale(0.996264)"/>
     <use xlink:href="#CMR17-6c" transform="translate(32.638409 0) scale(0.996264)"/>
     <use xlink:href="#CMR17-6c" transform="translate(57.509468 0) scale(0.996264)"/>
     <use xlink:href="#CMR17-75" transform="translate(82.380526 0) scale(0.996264)"/>
     <use xlink:href="#CMR17-73" transform="translate(133.275896 0) scale(0.996264)"/>
     <use xlink:href="#CMR17-74" transform="translate(169.077234 0) scale(0.996264)"/>
     <use xlink:href="#CMR17-72" transform="translate(204.358001 0) scale(0.996264)"/>
     <use xlink:href="#CMR17-61" transform="translate(239.638769 0) scale(0.996264)"/>
     <use xlink:href="#CMR17-74" transform="translate(285.329246 0) scale(0.996264)"/>
     <use xlink:href="#CMR17-69" transform="translate(320.610014 0) scale(0.996264)"/>
     <use xlink:href="#CMR17-6f" transform="translate(345.481073 0) scale(0.996264)"/>
     <use xlink:href="#CMR17-6e" transform="translate(391.17155 0) scale(0.996264)"/>
     <use xlink:href="#CMR17-6f" transform="translate(472.142886 0) scale(0.996264)"/>
     <use xlink:href="#CMR17-66" transform="translate(517.833363 0) scale(0.996264)"/>
     <use xlink:href="#CMR17-53" transform="translate(575.382842 0) scale(0.996264)"/>
     <use xlink:href="#CMR17-74" transform="translate(626.278211 0) scale(0.996264)"/>
     <use xlink:href="#CMR17-6f" transform="translate(661.558979 0) scale(0.996264)"/>
     <use xlink:href="#CMR17-63" transform="translate(709.851895 0) scale(0.996264)"/>
     <use xlink:href="#CMR17-68" transform="translate(747.735102 0) scale(0.996264)"/>
     <use xlink:href="#CMR17-61" transform="translate(798.630471 0) scale(0.996264)"/>
     <use xlink:href="#CMR17-73" transform="translate(844.320949 0) scale(0.996264)"/>
     <use xlink:href="#CMR17-74" transform="translate(880.122286 0) scale(0.996264)"/>
     <use xlink:href="#CMR17-69" transform="translate(915.403054 0) scale(0.996264)"/>
     <use xlink:href="#CMR17-63" transform="translate(940.274112 0) scale(0.996264)"/>
     <use xlink:href="#CMR17-69" transform="translate(980.759773 0) scale(0.996264)"/>
     <use xlink:href="#CMR17-74" transform="translate(1005.630831 0) scale(0.996264)"/>
     <use xlink:href="#CMR17-79" transform="translate(1038.309145 0) scale(0.996264)"/>
     <use xlink:href="#CMR17-69" transform="translate(1116.678027 0) scale(0.996264)"/>
     <use xlink:href="#CMR17-6e" transform="translate(1141.549086 0) scale(0.996264)"/>
     <use xlink:href="#CMR17-53" transform="translate(1222.520422 0) scale(0.996264)"/>
     <use xlink:href="#CMR17-69" transform="translate(1273.415792 0) scale(0.996264)"/>
     <use xlink:href="#CMR17-67" transform="translate(1298.28685 0) scale(0.996264)"/>
     <use xlink:href="#CMR17-6e" transform="translate(1343.977327 0) scale(0.996264)"/>
     <use xlink:href="#CMR17-61" transform="translate(1394.872697 0) scale(0.996264)"/>
     <use xlink:href="#CMR17-6c" transform="translate(1440.563174 0) scale(0.996264)"/>
     <use xlink:href="#CMR17-47" transform="translate(1495.510199 0) scale(0.996264)"/>
     <use xlink:href="#CMR17-65" transform="translate(1567.865545 0) scale(0.996264)"/>
     <use xlink:href="#CMR17-6e" transform="translate(1608.351206 0) scale(0.996264)"/>
     <use xlink:href="#CMR17-65" transform="translate(1659.246575 0) scale(0.996264)"/>
     <use xlink:href="#CMR17-72" transform="translate(1699.732236 0) scale(0.996264)"/>
     <use xlink:href="#CMR17-61" transform="translate(1735.013004 0) scale(0.996264)"/>
     <use xlink:href="#CMR17-74" transform="translate(1780.703481 0) scale(0.996264)"/>
     <use xlink:href="#CMR17-69" transform="translate(1815.984249 0) scale(0.996264)"/>
     <use xlink:href="#CMR17-6f" transform="translate(1840.855307 0) scale(0.996264)"/>
     <use xlink:href="#CMR17-6e" transform="translate(1886.545784 0) scale(0.996264)"/>
    </g>
   </g>
  </g>
 </g>
 <defs>
  <clipPath id="p9a08a7fb79">
   <rect x="90" y="51.84" width="558" height="332.64"/>
  </clipPath>
 </defs>
</svg>
