<?xml version="1.0" encoding="utf-8" standalone="no"?>
<!DOCTYPE svg PUBLIC "-//W3C//DTD SVG 1.1//EN"
  "http://www.w3.org/Graphics/SVG/1.1/DTD/svg11.dtd">
<svg xmlns:xlink="http://www.w3.org/1999/xlink" width="720pt" height="432pt" viewBox="0 0 720 432" xmlns="http://www.w3.org/2000/svg" version="1.1">
 <metadata>
  <rdf:RDF xmlns:dc="http://purl.org/dc/elements/1.1/" xmlns:cc="http://creativecommons.org/ns#" xmlns:rdf="http://www.w3.org/1999/02/22-rdf-syntax-ns#">
   <cc:Work>
    <dc:type rdf:resource="http://purl.org/dc/dcmitype/StillImage"/>
    <dc:date>2025-06-12T13:54:03.505933</dc:date>
    <dc:format>image/svg+xml</dc:format>
    <dc:creator>
     <cc:Agent>
      <dc:title>Matplotlib v3.5.1, https://matplotlib.org/</dc:title>
     </cc:Agent>
    </dc:creator>
   </cc:Work>
  </rdf:RDF>
 </metadata>
 <defs>
  <style type="text/css">*{stroke-linejoin: round; stroke-linecap: butt}</style>
 </defs>
 <g id="figure_1">
  <g id="patch_1">
   <path d="M 0 432 
L 720 432 
L 720 0 
L 0 0 
z
" style="fill: #ffffff"/>
  </g>
  <g id="axes_1">
   <g id="patch_2">
    <path d="M 90 378 
L 648 378 
L 648 51.84 
L 90 51.84 
z
" style="fill: #ffffff"/>
   </g>
   <g id="matplotlib.axis_1">
    <g id="xtick_1">
     <g id="line2d_1">
      <path d="M 115.363636 378 
L 115.363636 51.84 
" clip-path="url(#pafdd3bb05b)" style="fill: none; stroke: #cccccc; stroke-linecap: round"/>
     </g>
     <g id="text_1">
      <!-- $\mathdefault{0}$ -->
      <g style="fill: #262626" transform="translate(109.081196 406.525867)scale(0.275 -0.275)">
       <defs>
        <path id="CMR17-30" d="M 2688 2038 
C 2688 2430 2682 3099 2413 3613 
C 2176 4063 1798 4224 1466 4224 
C 1158 4224 768 4082 525 3620 
C 269 3137 243 2539 243 2038 
C 243 1671 250 1112 448 623 
C 723 -39 1216 -128 1466 -128 
C 1760 -128 2208 -7 2470 604 
C 2662 1048 2688 1568 2688 2038 
z
M 1466 -26 
C 1056 -26 813 328 723 816 
C 653 1196 653 1749 653 2109 
C 653 2604 653 3015 736 3407 
C 858 3954 1216 4121 1466 4121 
C 1728 4121 2067 3947 2189 3420 
C 2272 3054 2278 2623 2278 2109 
C 2278 1691 2278 1176 2202 797 
C 2067 96 1690 -26 1466 -26 
z
" transform="scale(0.015625)"/>
       </defs>
       <use xlink:href="#CMR17-30" transform="scale(0.996264)"/>
      </g>
     </g>
    </g>
    <g id="xtick_2">
     <g id="line2d_2">
      <path d="M 214.828877 378 
L 214.828877 51.84 
" clip-path="url(#pafdd3bb05b)" style="fill: none; stroke: #cccccc; stroke-linecap: round"/>
     </g>
     <g id="text_2">
      <!-- $\mathdefault{50}$ -->
      <g style="fill: #262626" transform="translate(202.263996 406.525867)scale(0.275 -0.275)">
       <defs>
        <path id="CMR17-35" d="M 730 3750 
C 794 3724 1056 3641 1325 3641 
C 1920 3641 2246 3961 2432 4140 
C 2432 4191 2432 4224 2394 4224 
C 2387 4224 2374 4224 2323 4198 
C 2099 4102 1837 4032 1517 4032 
C 1325 4032 1037 4055 723 4191 
C 653 4224 640 4224 634 4224 
C 602 4224 595 4217 595 4090 
L 595 2231 
C 595 2113 595 2080 659 2080 
C 691 2080 704 2093 736 2139 
C 941 2435 1222 2560 1542 2560 
C 1766 2560 2246 2415 2246 1293 
C 2246 1087 2246 716 2054 422 
C 1894 159 1645 25 1370 25 
C 947 25 518 319 403 812 
C 429 806 480 793 506 793 
C 589 793 749 838 749 1036 
C 749 1209 627 1280 506 1280 
C 358 1280 262 1190 262 1011 
C 262 454 704 -128 1382 -128 
C 2042 -128 2669 441 2669 1267 
C 2669 2054 2170 2662 1549 2662 
C 1222 2662 947 2540 730 2304 
L 730 3750 
z
" transform="scale(0.015625)"/>
       </defs>
       <use xlink:href="#CMR17-35" transform="scale(0.996264)"/>
       <use xlink:href="#CMR17-30" transform="translate(45.690477 0)scale(0.996264)"/>
      </g>
     </g>
    </g>
    <g id="xtick_3">
     <g id="line2d_3">
      <path d="M 314.294118 378 
L 314.294118 51.84 
" clip-path="url(#pafdd3bb05b)" style="fill: none; stroke: #cccccc; stroke-linecap: round"/>
     </g>
     <g id="text_3">
      <!-- $\mathdefault{100}$ -->
      <g style="fill: #262626" transform="translate(295.446796 406.525867)scale(0.275 -0.275)">
       <defs>
        <path id="CMR17-31" d="M 1702 4083 
C 1702 4217 1696 4224 1606 4224 
C 1357 3927 979 3833 621 3820 
C 602 3820 570 3820 563 3808 
C 557 3795 557 3782 557 3648 
C 755 3648 1088 3686 1344 3839 
L 1344 467 
C 1344 243 1331 166 781 166 
L 589 166 
L 589 0 
C 896 6 1216 12 1523 12 
C 1830 12 2150 6 2458 0 
L 2458 166 
L 2266 166 
C 1715 166 1702 236 1702 467 
L 1702 4083 
z
" transform="scale(0.015625)"/>
       </defs>
       <use xlink:href="#CMR17-31" transform="scale(0.996264)"/>
       <use xlink:href="#CMR17-30" transform="translate(45.690477 0)scale(0.996264)"/>
       <use xlink:href="#CMR17-30" transform="translate(91.380954 0)scale(0.996264)"/>
      </g>
     </g>
    </g>
    <g id="xtick_4">
     <g id="line2d_4">
      <path d="M 413.759358 378 
L 413.759358 51.84 
" clip-path="url(#pafdd3bb05b)" style="fill: none; stroke: #cccccc; stroke-linecap: round"/>
     </g>
     <g id="text_4">
      <!-- $\mathdefault{150}$ -->
      <g style="fill: #262626" transform="translate(394.912036 406.525867)scale(0.275 -0.275)">
       <use xlink:href="#CMR17-31" transform="scale(0.996264)"/>
       <use xlink:href="#CMR17-35" transform="translate(45.690477 0)scale(0.996264)"/>
       <use xlink:href="#CMR17-30" transform="translate(91.380954 0)scale(0.996264)"/>
      </g>
     </g>
    </g>
    <g id="xtick_5">
     <g id="line2d_5">
      <path d="M 513.224599 378 
L 513.224599 51.84 
" clip-path="url(#pafdd3bb05b)" style="fill: none; stroke: #cccccc; stroke-linecap: round"/>
     </g>
     <g id="text_5">
      <!-- $\mathdefault{200}$ -->
      <g style="fill: #262626" transform="translate(494.377277 406.525867)scale(0.275 -0.275)">
       <defs>
        <path id="CMR17-32" d="M 2669 990 
L 2554 990 
C 2490 537 2438 460 2413 422 
C 2381 371 1920 371 1830 371 
L 602 371 
C 832 620 1280 1073 1824 1596 
C 2214 1966 2669 2400 2669 3033 
C 2669 3788 2067 4224 1395 4224 
C 691 4224 262 3603 262 3027 
C 262 2777 448 2745 525 2745 
C 589 2745 781 2783 781 3007 
C 781 3206 614 3264 525 3264 
C 486 3264 448 3257 422 3244 
C 544 3788 915 4057 1306 4057 
C 1862 4057 2227 3616 2227 3033 
C 2227 2477 1901 1998 1536 1583 
L 262 147 
L 262 0 
L 2515 0 
L 2669 990 
z
" transform="scale(0.015625)"/>
       </defs>
       <use xlink:href="#CMR17-32" transform="scale(0.996264)"/>
       <use xlink:href="#CMR17-30" transform="translate(45.690477 0)scale(0.996264)"/>
       <use xlink:href="#CMR17-30" transform="translate(91.380954 0)scale(0.996264)"/>
      </g>
     </g>
    </g>
    <g id="xtick_6">
     <g id="line2d_6">
      <path d="M 612.68984 378 
L 612.68984 51.84 
" clip-path="url(#pafdd3bb05b)" style="fill: none; stroke: #cccccc; stroke-linecap: round"/>
     </g>
     <g id="text_6">
      <!-- $\mathdefault{250}$ -->
      <g style="fill: #262626" transform="translate(593.842518 406.525867)scale(0.275 -0.275)">
       <use xlink:href="#CMR17-32" transform="scale(0.996264)"/>
       <use xlink:href="#CMR17-35" transform="translate(45.690477 0)scale(0.996264)"/>
       <use xlink:href="#CMR17-30" transform="translate(91.380954 0)scale(0.996264)"/>
      </g>
     </g>
    </g>
    <g id="text_7">
     <!-- Time -->
     <g style="fill: #262626" transform="translate(337.682086 436.610362)scale(0.3 -0.3)">
      <defs>
       <path id="CMR17-54" d="M 3981 4332 
L 288 4332 
L 179 2924 
L 294 2924 
C 378 3981 467 4166 1453 4166 
C 1568 4166 1754 4166 1805 4159 
C 1926 4140 1926 4064 1926 3917 
L 1926 465 
C 1926 236 1907 166 1376 166 
L 1197 166 
L 1197 0 
C 1504 6 1824 12 2138 12 
C 2451 12 2771 6 3078 0 
L 3078 166 
L 2899 166 
C 2368 166 2349 236 2349 465 
L 2349 3917 
C 2349 4057 2349 4134 2464 4159 
C 2515 4166 2701 4166 2816 4166 
C 3795 4166 3891 3981 3974 2924 
L 4090 2924 
L 3981 4332 
z
" transform="scale(0.015625)"/>
       <path id="CMR17-69" d="M 992 3961 
C 992 4102 877 4224 730 4224 
C 589 4224 467 4108 467 3961 
C 467 3820 582 3699 730 3699 
C 870 3699 992 3814 992 3961 
z
M 243 2745 
L 243 2579 
C 602 2579 653 2540 653 2231 
L 653 443 
C 653 198 627 166 218 166 
L 218 0 
C 371 12 646 12 806 12 
C 960 12 1222 12 1370 0 
L 1370 166 
C 992 166 979 205 979 436 
L 979 2816 
L 243 2745 
z
" transform="scale(0.015625)"/>
       <path id="CMR17-6d" d="M 4326 1954 
C 4326 2276 4269 2816 3507 2816 
C 3072 2816 2771 2520 2656 2173 
L 2650 2173 
C 2573 2700 2195 2816 1837 2816 
C 1331 2816 1069 2424 973 2166 
L 966 2166 
L 966 2816 
L 211 2745 
L 211 2578 
C 589 2578 646 2540 646 2231 
L 646 443 
C 646 198 621 166 211 166 
L 211 0 
C 365 12 646 12 813 12 
C 979 12 1267 12 1421 0 
L 1421 166 
C 1011 166 986 192 986 443 
L 986 1678 
C 986 2269 1344 2713 1792 2713 
C 2266 2713 2317 2289 2317 1980 
L 2317 443 
C 2317 198 2291 166 1882 166 
L 1882 0 
C 2035 12 2317 12 2483 12 
C 2650 12 2938 12 3091 0 
L 3091 166 
C 2682 166 2656 192 2656 443 
L 2656 1678 
C 2656 2269 3014 2713 3462 2713 
C 3936 2713 3987 2289 3987 1980 
L 3987 443 
C 3987 198 3962 166 3552 166 
L 3552 0 
C 3706 12 3987 12 4154 12 
C 4320 12 4608 12 4762 0 
L 4762 166 
C 4352 166 4326 192 4326 443 
L 4326 1954 
z
" transform="scale(0.015625)"/>
       <path id="CMR17-65" d="M 2438 1503 
C 2464 1529 2464 1542 2464 1606 
C 2464 2251 2118 2816 1389 2816 
C 710 2816 173 2175 173 1394 
C 173 554 781 -64 1459 -64 
C 2176 -64 2458 619 2458 755 
C 2458 800 2419 800 2406 800 
C 2362 800 2355 787 2330 709 
C 2189 270 1837 51 1504 51 
C 1229 51 954 206 781 490 
C 582 819 582 1200 582 1503 
L 2438 1503 
z
M 589 1600 
C 634 2511 1126 2713 1382 2713 
C 1818 2713 2112 2308 2118 1600 
L 589 1600 
z
" transform="scale(0.015625)"/>
      </defs>
      <use xlink:href="#CMR17-54" transform="scale(0.996264)"/>
      <use xlink:href="#CMR17-69" transform="translate(66.509881 0)scale(0.996264)"/>
      <use xlink:href="#CMR17-6d" transform="translate(91.380939 0)scale(0.996264)"/>
      <use xlink:href="#CMR17-65" transform="translate(168.300529 0)scale(0.996264)"/>
     </g>
    </g>
   </g>
   <g id="matplotlib.axis_2">
    <g id="ytick_1">
     <g id="line2d_7">
      <path d="M 90 337.407572 
L 648 337.407572 
" clip-path="url(#pafdd3bb05b)" style="fill: none; stroke: #cccccc; stroke-linecap: round"/>
     </g>
     <g id="text_8">
      <!-- $\mathdefault{−1}$ -->
      <g style="fill: #262626" transform="translate(46.626066 346.920506)scale(0.275 -0.275)">
       <defs>
        <path id="CMSY10-0" d="M 4218 1472 
C 4326 1472 4442 1472 4442 1600 
C 4442 1728 4326 1728 4218 1728 
L 755 1728 
C 646 1728 531 1728 531 1600 
C 531 1472 646 1472 755 1472 
L 4218 1472 
z
" transform="scale(0.015625)"/>
       </defs>
       <use xlink:href="#CMSY10-0" transform="scale(0.996264)"/>
       <use xlink:href="#CMR17-31" transform="translate(77.487468 0)scale(0.996264)"/>
      </g>
     </g>
    </g>
    <g id="ytick_2">
     <g id="line2d_8">
      <path d="M 90 237.278638 
L 648 237.278638 
" clip-path="url(#pafdd3bb05b)" style="fill: none; stroke: #cccccc; stroke-linecap: round"/>
     </g>
     <g id="text_9">
      <!-- $\mathdefault{0}$ -->
      <g style="fill: #262626" transform="translate(67.935119 246.791572)scale(0.275 -0.275)">
       <use xlink:href="#CMR17-30" transform="scale(0.996264)"/>
      </g>
     </g>
    </g>
    <g id="ytick_3">
     <g id="line2d_9">
      <path d="M 90 137.149704 
L 648 137.149704 
" clip-path="url(#pafdd3bb05b)" style="fill: none; stroke: #cccccc; stroke-linecap: round"/>
     </g>
     <g id="text_10">
      <!-- $\mathdefault{1}$ -->
      <g style="fill: #262626" transform="translate(67.935119 146.662638)scale(0.275 -0.275)">
       <use xlink:href="#CMR17-31" transform="scale(0.996264)"/>
      </g>
     </g>
    </g>
    <g id="text_11">
     <!-- Amplitude -->
     <g style="fill: #262626" transform="translate(36.812616 278.547972)rotate(-90)scale(0.3 -0.3)">
      <defs>
       <path id="CMR17-41" d="M 2323 4441 
C 2291 4524 2278 4544 2214 4544 
C 2150 4544 2138 4524 2106 4441 
L 749 580 
C 627 236 371 166 147 166 
L 147 0 
C 262 12 518 12 640 12 
C 800 12 1056 12 1210 0 
L 1210 166 
C 909 179 864 382 864 459 
C 864 516 877 548 890 586 
L 1229 1536 
L 2906 1536 
L 3290 453 
C 3322 376 3322 363 3322 338 
C 3322 166 3046 166 2925 166 
L 2925 0 
C 3110 12 3443 12 3642 12 
C 3808 12 4128 12 4282 0 
L 4282 166 
C 3942 166 3827 166 3744 402 
L 2323 4441 
z
M 2067 3924 
L 2848 1702 
L 1286 1702 
L 2067 3924 
z
" transform="scale(0.015625)"/>
       <path id="CMR17-70" d="M 1408 -1114 
C 998 -1114 973 -1088 973 -834 
L 973 380 
C 1158 109 1427 -64 1766 -64 
C 2406 -64 3053 503 3053 1382 
C 3053 2196 2496 2816 1837 2816 
C 1453 2816 1139 2603 960 2345 
L 960 2816 
L 198 2745 
L 198 2577 
C 576 2577 634 2539 634 2228 
L 634 -834 
C 634 -1081 608 -1114 198 -1114 
L 198 -1280 
C 352 -1268 634 -1268 800 -1268 
C 966 -1268 1254 -1268 1408 -1280 
L 1408 -1114 
z
M 973 2015 
C 973 2106 973 2241 1222 2481 
C 1254 2506 1472 2700 1792 2700 
C 2259 2700 2643 2112 2643 1376 
C 2643 639 2234 38 1728 38 
C 1498 38 1248 148 1056 451 
C 973 594 973 632 973 736 
L 973 2015 
z
" transform="scale(0.015625)"/>
       <path id="CMR17-6c" d="M 979 4416 
L 218 4345 
L 218 4179 
C 595 4179 653 4141 653 3835 
L 653 439 
C 653 198 627 166 218 166 
L 218 0 
C 371 12 653 12 813 12 
C 979 12 1261 12 1414 0 
L 1414 166 
C 1005 166 979 191 979 439 
L 979 4416 
z
" transform="scale(0.015625)"/>
       <path id="CMR17-74" d="M 966 2585 
L 1862 2585 
L 1862 2752 
L 966 2752 
L 966 3968 
L 851 3968 
C 838 3292 614 2700 70 2687 
L 70 2585 
L 627 2585 
L 627 778 
C 627 655 627 -64 1370 -64 
C 1747 -64 1965 308 1965 784 
L 1965 1151 
L 1850 1151 
L 1850 790 
C 1850 347 1677 51 1408 51 
C 1222 51 966 179 966 765 
L 966 2585 
z
" transform="scale(0.015625)"/>
       <path id="CMR17-75" d="M 1882 2745 
L 1882 2579 
C 2259 2579 2317 2540 2317 2229 
L 2317 1053 
C 2317 510 2029 38 1555 38 
C 1030 38 986 355 986 691 
L 986 2816 
L 211 2745 
L 211 2579 
C 467 2579 640 2579 646 2320 
L 646 1079 
C 646 646 646 368 813 187 
C 896 103 1056 -64 1517 -64 
C 2061 -64 2272 400 2323 536 
L 2330 536 
L 2330 -64 
L 3091 -13 
L 3091 154 
C 2714 154 2656 193 2656 503 
L 2656 2816 
L 1882 2745 
z
" transform="scale(0.015625)"/>
       <path id="CMR17-64" d="M 1869 4345 
L 1869 4179 
C 2246 4179 2304 4141 2304 3843 
L 2304 2371 
C 2278 2403 2016 2816 1498 2816 
C 845 2816 211 2228 211 1376 
C 211 529 806 -64 1434 -64 
C 1978 -64 2259 361 2291 406 
L 2291 -64 
L 3066 -13 
L 3066 154 
C 2688 154 2630 193 2630 503 
L 2630 4416 
L 1869 4345 
z
M 2291 762 
C 2291 568 2176 393 2029 264 
C 1811 70 1594 38 1472 38 
C 1286 38 621 135 621 1369 
C 621 2636 1363 2713 1530 2713 
C 1824 2713 2061 2545 2208 2313 
C 2291 2177 2291 2157 2291 2041 
L 2291 762 
z
" transform="scale(0.015625)"/>
      </defs>
      <use xlink:href="#CMR17-41" transform="scale(0.996264)"/>
      <use xlink:href="#CMR17-6d" transform="translate(69.07243 0)scale(0.996264)"/>
      <use xlink:href="#CMR17-70" transform="translate(145.99202 0)scale(0.996264)"/>
      <use xlink:href="#CMR17-6c" transform="translate(196.887389 0)scale(0.996264)"/>
      <use xlink:href="#CMR17-69" transform="translate(221.758448 0)scale(0.996264)"/>
      <use xlink:href="#CMR17-74" transform="translate(246.629506 0)scale(0.996264)"/>
      <use xlink:href="#CMR17-75" transform="translate(281.910274 0)scale(0.996264)"/>
      <use xlink:href="#CMR17-64" transform="translate(332.805644 0)scale(0.996264)"/>
      <use xlink:href="#CMR17-65" transform="translate(383.701014 0)scale(0.996264)"/>
     </g>
    </g>
   </g>
   <g id="line2d_10">
    <path d="M 115.363636 237.278638 
L 157.139037 237.278638 
L 159.128342 66.665455 
L 244.668449 66.665455 
L 246.657754 237.278638 
L 274.508021 237.278638 
L 375.962567 137.464371 
L 377.951872 237.278638 
L 387.898396 237.278638 
L 389.887701 112.330254 
L 391.877005 112.798335 
L 393.86631 114.199072 
L 395.855615 116.52197 
L 397.84492 119.749624 
L 399.834225 123.857851 
L 401.823529 128.815872 
L 403.812834 134.586539 
L 405.802139 141.126615 
L 407.791444 148.3871 
L 409.780749 156.313596 
L 411.770053 164.846714 
L 415.748663 183.473015 
L 419.727273 203.708828 
L 425.695187 235.747507 
L 431.663102 267.888918 
L 435.641711 288.30452 
L 439.620321 307.193763 
L 441.609626 315.887166 
L 443.59893 323.991603 
L 445.588235 331.446353 
L 447.57754 338.195561 
L 449.566845 344.188659 
L 451.55615 349.380746 
L 453.545455 353.732919 
L 455.534759 357.212571 
L 457.524064 359.79363 
L 459.513369 361.45676 
L 461.502674 362.189497 
L 463.491979 361.986353 
L 465.481283 360.84885 
L 467.470588 358.78551 
L 469.459893 355.811793 
L 471.449198 351.949979 
L 473.438503 347.229002 
L 475.427807 341.684233 
L 477.417112 335.357216 
L 479.406417 328.295357 
L 481.395722 320.551563 
L 483.385027 312.183857 
L 487.363636 293.831684 
L 489.352941 237.278638 
L 503.278075 237.278638 
L 505.26738 149.505218 
L 612.68984 237.278638 
L 622.636364 237.278638 
L 622.636364 237.278638 
" clip-path="url(#pafdd3bb05b)" style="fill: none; stroke: #4c72b0; stroke-width: 3; stroke-linecap: round"/>
   </g>
   <g id="line2d_11">
    <path d="M 115.363636 237.278638 
L 173.053476 237.278638 
L 175.042781 134.554643 
L 266.550802 237.278638 
L 286.44385 237.278638 
L 330.208556 124.968982 
L 332.197861 124.968982 
L 375.962567 237.278638 
L 397.84492 237.278638 
L 405.802139 213.591569 
L 411.770053 196.596404 
L 415.748663 185.922525 
L 419.727273 175.94315 
L 423.705882 166.793232 
L 427.684492 158.596508 
L 429.673797 154.890779 
L 431.663102 151.463825 
L 433.652406 148.327241 
L 435.641711 145.49164 
L 437.631016 142.966618 
L 439.620321 140.760717 
L 441.609626 138.881402 
L 443.59893 137.335033 
L 445.588235 136.126841 
L 447.57754 135.260915 
L 449.566845 134.740185 
L 451.55615 134.566412 
L 453.545455 134.740185 
L 455.534759 135.260915 
L 457.524064 136.126841 
L 459.513369 137.335033 
L 461.502674 138.881402 
L 463.491979 140.760717 
L 465.481283 142.966618 
L 467.470588 145.49164 
L 469.459893 148.327241 
L 471.449198 151.463825 
L 473.438503 154.890779 
L 475.427807 158.596508 
L 477.417112 162.568472 
L 481.395722 171.256492 
L 485.374332 180.837348 
L 489.352941 191.181475 
L 493.331551 202.148988 
L 499.299465 219.442847 
L 505.26738 237.278638 
L 507.256684 237.278638 
L 509.245989 186.588449 
L 614.679144 186.588449 
L 616.668449 237.278638 
L 622.636364 237.278638 
L 622.636364 237.278638 
" clip-path="url(#pafdd3bb05b)" style="fill: none; stroke: #dd8452; stroke-width: 3; stroke-linecap: round"/>
   </g>
   <g id="line2d_12">
    <path d="M 115.363636 237.278638 
L 157.139037 237.278638 
L 159.128342 111.369729 
L 161.117647 111.853241 
L 163.106952 113.300064 
L 165.096257 115.699086 
L 167.085561 119.031881 
L 169.074866 123.272852 
L 171.064171 128.389427 
L 173.053476 134.34231 
L 175.042781 141.08578 
L 177.032086 148.568044 
L 179.02139 156.731636 
L 181.010695 165.513858 
L 184.989305 184.660153 
L 188.967914 205.419857 
L 194.935829 238.183374 
L 200.903743 270.884672 
L 204.882353 291.535532 
L 208.860963 310.522745 
L 210.850267 319.208054 
L 212.839572 327.264117 
L 214.828877 334.62906 
L 216.818182 341.246318 
L 218.807487 347.065067 
L 220.796791 352.040619 
L 222.786096 356.134759 
L 224.775401 359.316042 
L 226.764706 361.560036 
L 228.754011 362.849505 
L 230.743316 363.174545 
L 232.73262 362.532662 
L 234.721925 360.928784 
L 236.71123 358.375229 
L 238.700535 354.891611 
L 240.68984 350.504684 
L 242.679144 345.248142 
L 244.668449 339.162356 
L 246.657754 332.294067 
L 248.647059 324.696027 
L 250.636364 316.426591 
L 252.625668 307.549271 
L 256.604278 288.247848 
L 260.582888 267.383587 
L 262.572193 256.56397 
L 264.561497 237.278638 
L 274.508021 237.278638 
L 304.347594 123.546835 
L 306.336898 123.546835 
L 336.176471 237.278638 
L 389.887701 237.278638 
L 395.855615 211.857293 
L 399.834225 195.7231 
L 403.812834 180.784385 
L 405.802139 173.899321 
L 407.791444 167.470906 
L 409.780749 161.545458 
L 411.770053 156.165669 
L 413.759358 151.370301 
L 415.748663 147.193904 
L 417.737968 143.66657 
L 419.727273 140.813713 
L 421.716578 138.655888 
L 423.705882 137.208642 
L 425.695187 136.482403 
L 427.684492 136.482403 
L 429.673797 137.208642 
L 431.663102 138.655888 
L 433.652406 140.813713 
L 435.641711 143.66657 
L 437.631016 147.193904 
L 439.620321 151.370301 
L 441.609626 156.165669 
L 443.59893 161.545458 
L 445.588235 167.470906 
L 447.57754 173.899321 
L 449.566845 180.784385 
L 453.545455 195.7231 
L 457.524064 211.857293 
L 463.491979 237.278638 
L 503.278075 237.278638 
L 505.26738 105.25482 
L 594.786096 105.25482 
L 596.775401 237.278638 
L 622.636364 237.278638 
L 622.636364 237.278638 
" clip-path="url(#pafdd3bb05b)" style="fill: none; stroke: #55a868; stroke-width: 3; stroke-linecap: round"/>
   </g>
   <g id="line2d_13">
    <path d="M 115.363636 237.278638 
L 165.096257 237.278638 
L 173.053476 200.120554 
L 177.032086 182.533594 
L 181.010695 166.113431 
L 184.989305 151.210029 
L 186.97861 144.427831 
L 188.967914 138.141031 
L 190.957219 132.383174 
L 192.946524 127.184979 
L 194.935829 122.574182 
L 196.925134 118.575382 
L 198.914439 115.209916 
L 200.903743 112.495739 
L 202.893048 110.447333 
L 204.882353 109.075627 
L 206.871658 108.387939 
L 208.860963 108.387939 
L 210.850267 109.075627 
L 212.839572 110.447333 
L 214.828877 112.495739 
L 216.818182 115.209916 
L 218.807487 118.575382 
L 220.796791 122.574182 
L 222.786096 127.184979 
L 224.775401 132.383174 
L 226.764706 138.141031 
L 228.754011 144.427831 
L 230.743316 151.210029 
L 232.73262 158.451441 
L 236.71123 174.155117 
L 240.68984 191.204161 
L 244.668449 209.235202 
L 250.636364 237.278638 
L 280.475936 237.278638 
L 350.101604 111.144372 
L 352.090909 237.278638 
L 393.86631 237.278638 
L 395.855615 157.903504 
L 397.84492 158.109172 
L 399.834225 158.725111 
L 401.823529 159.748129 
L 403.812834 161.172925 
L 405.802139 162.992115 
L 407.791444 165.196271 
L 409.780749 167.773972 
L 411.770053 170.711858 
L 413.759358 173.994706 
L 415.748663 177.605503 
L 417.737968 181.525538 
L 419.727273 185.734495 
L 423.705882 194.930548 
L 427.684492 205.003286 
L 431.663102 215.744185 
L 437.631016 232.619276 
L 445.588235 255.318543 
L 449.566845 266.224742 
L 453.545455 276.531702 
L 457.524064 286.026049 
L 459.513369 290.4063 
L 461.502674 294.511233 
L 463.491979 298.319576 
L 465.481283 301.811594 
L 467.470588 304.96919 
L 469.459893 307.776001 
L 471.449198 310.217482 
L 473.438503 312.280979 
L 475.427807 313.955801 
L 477.417112 315.233268 
L 479.406417 316.106759 
L 481.395722 316.571748 
L 483.385027 316.625826 
L 485.374332 316.268711 
L 487.363636 315.502256 
L 489.352941 314.330431 
L 491.342246 312.759309 
L 493.331551 310.797032 
L 495.320856 308.45377 
L 497.31016 305.741665 
L 499.299465 237.278638 
L 511.235294 237.278638 
L 566.935829 123.883862 
L 568.925134 123.883862 
L 622.636364 233.228825 
L 622.636364 233.228825 
" clip-path="url(#pafdd3bb05b)" style="fill: none; stroke: #c44e52; stroke-width: 3; stroke-linecap: round"/>
   </g>
   <g id="line2d_14">
    <path d="M 115.363636 237.278638 
L 151.171123 237.278638 
L 212.839572 115.92579 
L 214.828877 237.278638 
L 266.550802 237.278638 
L 268.540107 140.162394 
L 272.518717 140.358898 
L 276.497326 140.947617 
L 280.475936 141.926166 
L 284.454545 143.290588 
L 288.433155 145.035359 
L 292.411765 147.153419 
L 296.390374 149.636197 
L 300.368984 152.473646 
L 304.347594 155.654283 
L 308.326203 159.165236 
L 312.304813 162.992298 
L 316.283422 167.119981 
L 320.262032 171.531581 
L 324.240642 176.209246 
L 330.208556 183.682931 
L 336.176471 191.644413 
L 342.144385 200.021233 
L 348.112299 208.737148 
L 356.069519 220.748388 
L 369.994652 242.291895 
L 381.930481 260.601022 
L 383.919786 263.58782 
L 385.909091 237.278638 
L 391.877005 204.37695 
L 395.855615 184.154583 
L 397.84492 174.919861 
L 399.834225 166.416238 
L 401.823529 158.743412 
L 403.812834 151.991339 
L 405.802139 146.239183 
L 407.791444 141.55438 
L 409.780749 137.991857 
L 411.770053 135.593381 
L 413.759358 134.387071 
L 415.748663 134.387071 
L 417.737968 135.593381 
L 419.727273 137.991857 
L 421.716578 141.55438 
L 423.705882 146.239183 
L 425.695187 151.991339 
L 427.684492 158.743412 
L 429.673797 166.416238 
L 431.663102 174.919861 
L 433.652406 184.154583 
L 437.631016 204.37695 
L 441.609626 226.137764 
L 443.59893 237.278638 
L 503.278075 237.278638 
L 547.042781 178.730781 
L 549.032086 178.730781 
L 592.796791 237.278638 
L 622.636364 237.278638 
L 622.636364 237.278638 
" clip-path="url(#pafdd3bb05b)" style="fill: none; stroke: #8172b3; stroke-width: 3; stroke-linecap: round"/>
   </g>
   <g id="line2d_15">
    <path d="M 115.363636 237.278638 
L 163.106952 237.278638 
L 165.096257 177.386764 
L 167.085561 177.592492 
L 169.074866 178.208265 
L 171.064171 179.22985 
L 173.053476 180.650231 
L 175.042781 182.459648 
L 177.032086 184.645672 
L 179.02139 187.193285 
L 181.010695 190.084983 
L 183 193.300902 
L 184.989305 196.818948 
L 186.97861 200.614952 
L 190.957219 208.934789 
L 194.935829 218.032177 
L 200.903743 232.586083 
L 208.860963 252.28209 
L 212.839572 261.646809 
L 216.818182 270.343041 
L 218.807487 274.365024 
L 220.796791 278.132224 
L 222.786096 281.61876 
L 224.775401 284.800679 
L 226.764706 287.656122 
L 228.754011 290.165472 
L 230.743316 292.311489 
L 232.73262 294.079431 
L 234.721925 295.457151 
L 236.71123 296.435185 
L 238.700535 297.006814 
L 240.68984 297.16811 
L 242.679144 296.917966 
L 244.668449 296.2581 
L 246.657754 295.193045 
L 248.647059 293.730118 
L 250.636364 291.87937 
L 252.625668 289.653514 
L 254.614973 287.067844 
L 256.604278 284.140121 
L 258.593583 280.890461 
L 260.582888 277.341187 
L 262.572193 273.516684 
L 266.550802 265.148796 
L 270.529412 256.016351 
L 272.518717 251.241076 
L 274.508021 237.278638 
L 280.475936 237.278638 
L 369.994652 121.796123 
L 371.983957 237.278638 
L 393.86631 237.278638 
L 395.855615 132.83197 
L 469.459893 237.278638 
L 511.235294 237.278638 
L 558.97861 109.982822 
L 560.967914 109.982822 
L 608.71123 237.278638 
L 622.636364 237.278638 
L 622.636364 237.278638 
" clip-path="url(#pafdd3bb05b)" style="fill: none; stroke: #937860; stroke-width: 3; stroke-linecap: round"/>
   </g>
   <g id="line2d_16">
    <path d="M 115.363636 237.278638 
L 165.096257 237.278638 
L 167.085561 86.342575 
L 264.561497 86.342575 
L 266.550802 237.278638 
L 278.486631 237.278638 
L 280.475936 194.701271 
L 282.465241 194.758685 
L 284.454545 194.930772 
L 286.44385 195.217068 
L 290.42246 196.128892 
L 294.40107 197.484328 
L 298.379679 199.268764 
L 302.358289 201.462962 
L 306.336898 204.043267 
L 310.315508 206.981865 
L 314.294118 210.247074 
L 318.272727 213.803695 
L 322.251337 217.613385 
L 328.219251 223.711949 
L 334.187166 230.139215 
L 354.080214 251.914332 
L 360.048128 257.941711 
L 364.026738 261.690384 
L 368.005348 265.175887 
L 371.983957 268.360647 
L 375.962567 271.210329 
L 379.941176 273.694214 
L 383.919786 275.785523 
L 387.898396 277.461712 
L 391.877005 278.70471 
L 393.86631 237.278638 
L 401.823529 213.680426 
L 405.802139 202.312096 
L 409.780749 191.453656 
L 413.759358 181.263448 
L 417.737968 171.890068 
L 421.716578 163.4702 
L 423.705882 159.656796 
L 425.695187 156.126626 
L 427.684492 152.89257 
L 429.673797 149.96643 
L 431.663102 147.358883 
L 433.652406 145.079443 
L 435.641711 143.136428 
L 437.631016 141.536928 
L 439.620321 140.286779 
L 441.609626 139.390543 
L 443.59893 138.85149 
L 445.588235 138.671587 
L 447.57754 138.85149 
L 449.566845 139.390543 
L 451.55615 140.286779 
L 453.545455 141.536928 
L 455.534759 143.136428 
L 457.524064 145.079443 
L 459.513369 147.358883 
L 461.502674 149.96643 
L 463.491979 152.89257 
L 465.481283 156.126626 
L 467.470588 159.656796 
L 469.459893 163.4702 
L 471.449198 167.552923 
L 475.427807 176.465809 
L 479.406417 186.265482 
L 483.385027 196.809042 
L 487.363636 207.942739 
L 493.331551 225.392872 
L 497.31016 237.278638 
L 507.256684 237.278638 
L 562.957219 115.980257 
L 564.946524 237.278638 
L 622.636364 237.278638 
L 622.636364 237.278638 
" clip-path="url(#pafdd3bb05b)" style="fill: none; stroke: #da8bc3; stroke-width: 3; stroke-linecap: round"/>
   </g>
   <g id="line2d_17">
    <path d="M 115.363636 237.278638 
L 143.213904 237.278638 
L 151.171123 212.749239 
L 157.139037 195.180031 
L 161.117647 184.172194 
L 165.096257 173.909855 
L 169.074866 164.537075 
L 171.064171 160.225926 
L 173.053476 156.185427 
L 175.042781 152.429771 
L 177.032086 148.97215 
L 179.02139 145.824709 
L 181.010695 142.998503 
L 183 140.503459 
L 184.989305 138.348342 
L 186.97861 136.540721 
L 188.967914 135.086945 
L 190.957219 133.992122 
L 192.946524 133.260096 
L 194.935829 132.893439 
L 196.925134 132.893439 
L 198.914439 133.260096 
L 200.903743 133.992122 
L 202.893048 135.086945 
L 204.882353 136.540721 
L 206.871658 138.348342 
L 208.860963 140.503459 
L 210.850267 142.998503 
L 212.839572 145.824709 
L 214.828877 148.97215 
L 216.818182 152.429771 
L 218.807487 156.185427 
L 220.796791 160.225926 
L 224.775401 169.103732 
L 228.754011 178.938564 
L 232.73262 189.592362 
L 236.71123 200.915572 
L 242.679144 218.805799 
L 248.647059 237.278638 
L 260.582888 237.278638 
L 262.572193 125.148113 
L 369.994652 237.278638 
L 379.941176 237.278638 
L 381.930481 113.730673 
L 383.919786 113.873284 
L 385.909091 114.300787 
L 387.898396 115.012197 
L 389.887701 116.005869 
L 391.877005 117.279511 
L 393.86631 118.830182 
L 395.855615 120.654303 
L 397.84492 122.747661 
L 399.834225 125.105424 
L 401.823529 127.72215 
L 403.812834 130.591797 
L 405.802139 133.707741 
L 407.791444 137.062787 
L 411.770053 144.458673 
L 415.748663 152.711198 
L 419.727273 161.744199 
L 423.705882 171.47431 
L 427.684492 181.811733 
L 431.663102 192.661061 
L 437.631016 209.674781 
L 445.588235 233.187672 
L 457.524064 268.466499 
L 463.491979 285.316902 
L 467.470588 296.017658 
L 469.459893 301.170734 
L 471.449198 237.278638 
L 501.28877 237.278638 
L 551.02139 135.015532 
L 553.010695 135.015532 
L 602.743316 237.278638 
L 622.636364 237.278638 
L 622.636364 237.278638 
" clip-path="url(#pafdd3bb05b)" style="fill: none; stroke: #8c8c8c; stroke-width: 3; stroke-linecap: round"/>
   </g>
   <g id="line2d_18">
    <path d="M 115.363636 237.278638 
L 121.331551 237.278638 
L 240.68984 140.596772 
L 242.679144 237.278638 
L 246.657754 237.278638 
L 300.368984 130.726277 
L 302.358289 130.726277 
L 356.069519 237.278638 
L 371.983957 237.278638 
L 379.941176 206.06174 
L 383.919786 191.326928 
L 387.898396 177.618601 
L 391.877005 165.24298 
L 393.86631 159.642663 
L 395.855615 154.476517 
L 397.84492 149.773435 
L 399.834225 145.559717 
L 401.823529 141.858928 
L 403.812834 138.691766 
L 405.802139 136.075941 
L 407.791444 134.026082 
L 409.780749 132.553654 
L 411.770053 131.66689 
L 413.759358 131.37075 
L 415.748663 131.66689 
L 417.737968 132.553654 
L 419.727273 134.026082 
L 421.716578 136.075941 
L 423.705882 138.691766 
L 425.695187 141.858928 
L 427.684492 145.559717 
L 429.673797 149.773435 
L 431.663102 154.476517 
L 433.652406 159.642663 
L 435.641711 165.24298 
L 437.631016 171.24615 
L 441.609626 184.324694 
L 445.588235 198.586142 
L 449.566845 213.711916 
L 455.534759 237.278638 
L 495.320856 237.278638 
L 497.31016 139.589977 
L 499.299465 139.659081 
L 501.28877 139.866297 
L 503.278075 140.211331 
L 505.26738 140.693694 
L 507.256684 141.312705 
L 509.245989 142.067487 
L 511.235294 142.956974 
L 513.224599 143.979905 
L 515.213904 145.134835 
L 519.192513 147.833969 
L 523.171123 151.039105 
L 527.149733 154.732111 
L 531.128342 158.892097 
L 535.106952 163.495528 
L 539.085561 168.516361 
L 543.064171 173.926193 
L 547.042781 179.69442 
L 551.02139 185.788411 
L 556.989305 195.464332 
L 562.957219 205.672178 
L 570.914439 219.884866 
L 584.839572 245.504408 
L 594.786096 263.559589 
L 596.775401 267.079336 
L 598.764706 237.278638 
L 622.636364 237.278638 
L 622.636364 237.278638 
" clip-path="url(#pafdd3bb05b)" style="fill: none; stroke: #ccb974; stroke-width: 3; stroke-linecap: round"/>
   </g>
   <g id="line2d_19">
    <path d="M 115.363636 237.278638 
L 137.245989 237.278638 
L 139.235294 117.950109 
L 234.721925 237.278638 
L 258.593583 237.278638 
L 260.582888 144.091564 
L 268.540107 144.18615 
L 276.497326 144.469718 
L 284.454545 144.94169 
L 292.411765 145.60111 
L 300.368984 146.446638 
L 308.326203 147.476558 
L 316.283422 148.688779 
L 326.229947 150.456633 
L 336.176471 152.499854 
L 346.122995 154.811962 
L 350.101604 155.810478 
L 352.090909 237.278638 
L 381.930481 237.278638 
L 485.374332 102.62383 
L 487.363636 237.278638 
L 503.278075 237.278638 
L 509.245989 212.487768 
L 513.224599 196.75372 
L 517.203209 182.1855 
L 519.192513 175.471193 
L 521.181818 169.20221 
L 523.171123 163.423719 
L 525.160428 158.177354 
L 527.149733 153.500916 
L 529.139037 149.428098 
L 531.128342 145.988245 
L 533.117647 143.206142 
L 535.106952 141.101834 
L 537.096257 139.690481 
L 539.085561 138.982253 
L 541.074866 138.982253 
L 543.064171 139.690481 
L 545.053476 141.101834 
L 547.042781 143.206142 
L 549.032086 145.988245 
L 551.02139 149.428098 
L 553.010695 153.500916 
L 555 158.177354 
L 556.989305 163.423719 
L 558.97861 169.20221 
L 560.967914 175.471193 
L 562.957219 182.1855 
L 566.935829 196.75372 
L 570.914439 212.487768 
L 576.882353 237.278638 
L 622.636364 237.278638 
L 622.636364 237.278638 
" clip-path="url(#pafdd3bb05b)" style="fill: none; stroke: #64b5cd; stroke-width: 3; stroke-linecap: round"/>
   </g>
   <g id="line2d_20">
    <path d="M 115.363636 237.278638 
L 159.128342 237.278638 
L 266.550802 113.695888 
L 268.540107 237.278638 
L 272.518717 237.278638 
L 274.508021 143.430187 
L 276.497326 143.506061 
L 278.486631 143.73356 
L 280.475936 144.112317 
L 282.465241 144.641719 
L 284.454545 145.320909 
L 286.44385 146.148791 
L 288.433155 147.124024 
L 290.42246 148.245033 
L 292.411765 149.510005 
L 294.40107 150.916893 
L 298.379679 154.147097 
L 302.358289 157.91476 
L 306.336898 162.195525 
L 310.315508 166.961715 
L 314.294118 172.182516 
L 318.272727 177.824175 
L 322.251337 183.850217 
L 326.229947 190.221683 
L 332.197861 200.335898 
L 338.165775 210.987144 
L 346.122995 225.755724 
L 348.112299 237.278638 
L 389.887701 237.278638 
L 417.737968 113.700335 
L 419.727273 113.700335 
L 447.57754 237.278638 
L 505.26738 237.278638 
L 511.235294 210.281249 
L 515.213904 193.146787 
L 519.192513 177.281918 
L 521.181818 169.970002 
L 523.171123 163.143046 
L 525.160428 156.850238 
L 527.149733 151.136919 
L 529.139037 146.044253 
L 531.128342 141.608933 
L 533.117647 137.862915 
L 535.106952 134.83319 
L 537.096257 132.541587 
L 539.085561 131.004616 
L 541.074866 130.233352 
L 543.064171 130.233352 
L 545.053476 131.004616 
L 547.042781 132.541587 
L 549.032086 134.83319 
L 551.02139 137.862915 
L 553.010695 141.608933 
L 555 146.044253 
L 556.989305 151.136919 
L 558.97861 156.850238 
L 560.967914 163.143046 
L 562.957219 169.970002 
L 564.946524 177.281918 
L 568.925134 193.146787 
L 572.903743 210.281249 
L 578.871658 237.278638 
L 622.636364 237.278638 
L 622.636364 237.278638 
" clip-path="url(#pafdd3bb05b)" style="fill: none; stroke: #4c72b0; stroke-width: 3; stroke-linecap: round"/>
   </g>
   <g id="line2d_21">
    <path d="M 115.363636 237.278638 
L 165.096257 237.278638 
L 220.796791 133.067952 
L 222.786096 133.067952 
L 278.486631 237.278638 
L 280.475936 237.278638 
L 369.994652 133.20668 
L 371.983957 237.278638 
L 393.86631 237.278638 
L 395.855615 90.101901 
L 473.438503 90.101901 
L 475.427807 237.278638 
L 509.245989 237.278638 
L 511.235294 138.721324 
L 588.818182 237.278638 
L 622.636364 237.278638 
L 622.636364 237.278638 
" clip-path="url(#pafdd3bb05b)" style="fill: none; stroke: #dd8452; stroke-width: 3; stroke-linecap: round"/>
   </g>
   <g id="line2d_22">
    <path d="M 115.363636 237.278638 
L 117.352941 130.456784 
L 119.342246 131.70256 
L 121.331551 135.41083 
L 123.320856 141.495101 
L 125.31016 149.813463 
L 127.299465 160.171893 
L 129.28877 172.328789 
L 131.278075 186.000599 
L 133.26738 200.868436 
L 137.245989 232.785254 
L 141.224599 265.118848 
L 143.213904 280.498546 
L 145.203209 294.870168 
L 147.192513 307.898503 
L 149.181818 319.279676 
L 151.171123 328.748227 
L 153.160428 336.083309 
L 155.149733 341.113834 
L 157.139037 343.722471 
L 159.128342 343.848373 
L 161.117647 341.488604 
L 163.106952 336.698204 
L 165.096257 329.588907 
L 167.085561 320.326531 
L 169.074866 309.127117 
L 171.064171 296.251883 
L 173.053476 282.001136 
L 177.032086 250.72699 
L 183 202.422756 
L 184.989305 187.45304 
L 186.97861 173.645473 
L 188.967914 161.32211 
L 190.957219 150.770384 
L 192.946524 142.236407 
L 194.935829 135.91923 
L 196.925134 131.966196 
L 198.914439 130.469508 
L 200.903743 131.464074 
L 202.893048 237.278638 
L 244.668449 237.278638 
L 340.15508 134.683935 
L 342.144385 237.278638 
L 371.983957 237.278638 
L 379.941176 205.000554 
L 383.919786 189.525115 
L 387.898396 174.833787 
L 391.877005 161.167803 
L 395.855615 148.751556 
L 397.84492 143.076691 
L 399.834225 137.788922 
L 401.823529 132.909977 
L 403.812834 128.459905 
L 405.802139 124.456993 
L 407.791444 120.91769 
L 409.780749 117.856538 
L 411.770053 115.286118 
L 413.759358 113.216991 
L 415.748663 111.65766 
L 417.737968 110.614532 
L 419.727273 110.091894 
L 421.716578 110.091894 
L 423.705882 110.614532 
L 425.695187 111.65766 
L 427.684492 113.216991 
L 429.673797 115.286118 
L 431.663102 117.856538 
L 433.652406 120.91769 
L 435.641711 124.456993 
L 437.631016 128.459905 
L 439.620321 132.909977 
L 441.609626 137.788922 
L 443.59893 143.076691 
L 445.588235 148.751556 
L 449.566845 161.167803 
L 453.545455 174.833787 
L 457.524064 189.525115 
L 461.502674 205.000554 
L 467.470588 229.125567 
L 469.459893 237.278638 
L 497.31016 237.278638 
L 499.299465 95.357101 
L 574.893048 237.278638 
L 622.636364 237.278638 
L 622.636364 237.278638 
" clip-path="url(#pafdd3bb05b)" style="fill: none; stroke: #55a868; stroke-width: 3; stroke-linecap: round"/>
   </g>
   <g id="line2d_23">
    <path d="M 115.363636 237.278638 
L 165.096257 237.278638 
L 232.73262 112.945947 
L 234.721925 237.278638 
L 278.486631 237.278638 
L 280.475936 100.284805 
L 364.026738 100.284805 
L 366.016043 237.278638 
L 395.855615 237.278638 
L 403.812834 212.745921 
L 407.791444 201.005169 
L 411.770053 189.885067 
L 415.748663 179.575882 
L 419.727273 170.254007 
L 421.716578 166.013892 
L 423.705882 162.078943 
L 425.695187 158.46601 
L 427.684492 155.190565 
L 429.673797 152.266634 
L 431.663102 149.706738 
L 433.652406 147.521838 
L 435.641711 145.72129 
L 437.631016 144.312805 
L 439.620321 143.302413 
L 441.609626 142.694443 
L 443.59893 142.491496 
L 445.588235 142.694443 
L 447.57754 143.302413 
L 449.566845 144.312805 
L 451.55615 145.72129 
L 453.545455 147.521838 
L 455.534759 149.706738 
L 457.524064 152.266634 
L 459.513369 155.190565 
L 461.502674 158.46601 
L 463.491979 162.078943 
L 465.481283 166.013892 
L 467.470588 170.254007 
L 471.449198 179.575882 
L 475.427807 189.885067 
L 479.406417 201.005169 
L 483.385027 212.745921 
L 489.352941 231.079263 
L 491.342246 237.278638 
L 509.245989 237.278638 
L 511.235294 137.025032 
L 622.636364 237.278638 
L 622.636364 237.278638 
" clip-path="url(#pafdd3bb05b)" style="fill: none; stroke: #c44e52; stroke-width: 3; stroke-linecap: round"/>
   </g>
   <g id="line2d_24">
    <path d="M 115.363636 237.278638 
L 177.032086 237.278638 
L 228.754011 140.99688 
L 230.743316 140.99688 
L 282.465241 237.278638 
L 286.44385 237.278638 
L 288.433155 131.014477 
L 290.42246 131.427994 
L 292.411765 132.665326 
L 294.40107 134.716844 
L 296.390374 137.566581 
L 298.379679 141.192358 
L 300.368984 145.565955 
L 302.358289 150.653336 
L 304.347594 156.414904 
L 306.336898 162.80582 
L 308.326203 169.776343 
L 310.315508 177.272224 
L 314.294118 193.603068 
L 318.272727 211.290941 
L 326.229947 248.514389 
L 330.208556 266.893408 
L 334.187166 284.352276 
L 338.165775 300.348534 
L 340.15508 307.640659 
L 342.144385 314.385169 
L 344.13369 320.529574 
L 346.122995 326.026052 
L 348.112299 330.831827 
L 350.101604 334.909495 
L 352.090909 338.22732 
L 354.080214 340.759481 
L 356.069519 342.48627 
L 358.058824 343.394248 
L 360.048128 343.476349 
L 362.037433 342.731933 
L 364.026738 341.166794 
L 366.016043 338.793114 
L 368.005348 335.629365 
L 369.994652 331.700172 
L 371.983957 327.036114 
L 373.973262 321.67349 
L 375.962567 315.654037 
L 377.951872 309.024604 
L 379.941176 301.836785 
L 383.919786 286.013668 
L 385.909091 237.278638 
L 397.84492 237.278638 
L 399.834225 78.846703 
L 505.26738 78.846703 
L 507.256684 237.278638 
L 511.235294 237.278638 
L 610.700535 123.591231 
L 612.68984 237.278638 
L 622.636364 237.278638 
L 622.636364 237.278638 
" clip-path="url(#pafdd3bb05b)" style="fill: none; stroke: #8172b3; stroke-width: 3; stroke-linecap: round"/>
   </g>
   <g id="line2d_25">
    <path d="M 115.363636 237.278638 
L 161.117647 237.278638 
L 210.850267 150.317365 
L 212.839572 150.317365 
L 262.572193 237.278638 
L 276.497326 237.278638 
L 383.919786 107.649376 
L 385.909091 237.278638 
L 389.887701 237.278638 
L 391.877005 146.733868 
L 493.331551 237.278638 
L 507.256684 237.278638 
L 515.213904 212.713997 
L 519.192513 200.897856 
L 523.171123 189.633211 
L 527.149733 179.090822 
L 531.128342 169.4305 
L 533.117647 164.977462 
L 535.106952 160.798688 
L 537.096257 156.910028 
L 539.085561 153.326233 
L 541.074866 150.060899 
L 543.064171 147.126411 
L 545.053476 144.533902 
L 547.042781 142.293206 
L 549.032086 140.412821 
L 551.02139 138.899882 
L 553.010695 137.760127 
L 555 136.99788 
L 556.989305 136.616033 
L 558.97861 136.616033 
L 560.967914 136.99788 
L 562.957219 137.760127 
L 564.946524 138.899882 
L 566.935829 140.412821 
L 568.925134 142.293206 
L 570.914439 144.533902 
L 572.903743 147.126411 
L 574.893048 150.060899 
L 576.882353 153.326233 
L 578.871658 156.910028 
L 580.860963 160.798688 
L 582.850267 164.977462 
L 586.828877 174.140909 
L 590.807487 184.26146 
L 594.786096 195.185697 
L 598.764706 206.74802 
L 604.73262 224.902513 
L 608.71123 237.278638 
L 622.636364 237.278638 
L 622.636364 237.278638 
" clip-path="url(#pafdd3bb05b)" style="fill: none; stroke: #937860; stroke-width: 3; stroke-linecap: round"/>
   </g>
   <g id="line2d_26">
    <path d="M 115.363636 237.278638 
L 161.117647 237.278638 
L 198.914439 131.829115 
L 200.903743 131.829115 
L 238.700535 237.278638 
L 276.497326 237.278638 
L 282.465241 200.126448 
L 286.44385 176.946756 
L 288.433155 166.17378 
L 290.42246 156.085583 
L 292.411765 146.77932 
L 294.40107 138.344615 
L 296.390374 130.862698 
L 298.379679 124.405625 
L 300.368984 119.035581 
L 302.358289 114.804282 
L 304.347594 111.752478 
L 306.336898 109.90956 
L 308.326203 109.293275 
L 310.315508 109.90956 
L 312.304813 111.752478 
L 314.294118 114.804282 
L 316.283422 119.035581 
L 318.272727 124.405625 
L 320.262032 130.862698 
L 322.251337 138.344615 
L 324.240642 146.77932 
L 326.229947 156.085583 
L 328.219251 166.17378 
L 332.197861 188.30076 
L 336.176471 212.309933 
L 340.15508 237.278638 
L 389.887701 237.278638 
L 391.877005 122.152503 
L 397.84492 122.286794 
L 403.812834 122.689353 
L 409.780749 123.35924 
L 415.748663 124.294894 
L 421.716578 125.494132 
L 427.684492 126.954155 
L 433.652406 128.671557 
L 439.620321 130.642332 
L 445.588235 132.861883 
L 451.55615 135.325031 
L 457.524064 138.026029 
L 463.491979 140.958577 
L 465.481283 141.986381 
L 467.470588 237.278638 
L 505.26738 237.278638 
L 507.256684 138.771828 
L 616.668449 237.278638 
L 622.636364 237.278638 
L 622.636364 237.278638 
" clip-path="url(#pafdd3bb05b)" style="fill: none; stroke: #da8bc3; stroke-width: 3; stroke-linecap: round"/>
   </g>
   <g id="line2d_27">
    <path d="M 115.363636 237.278638 
L 117.352941 237.278638 
L 208.860963 131.229483 
L 210.850267 237.278638 
L 242.679144 237.278638 
L 244.668449 167.403175 
L 308.326203 237.278638 
L 371.983957 237.278638 
L 377.951872 211.576654 
L 381.930481 195.182274 
L 385.909091 179.878167 
L 387.898396 172.760221 
L 389.887701 166.060702 
L 391.877005 159.823058 
L 393.86631 154.087744 
L 395.855615 148.891954 
L 397.84492 144.269386 
L 399.834225 140.250019 
L 401.823529 136.85992 
L 403.812834 134.121074 
L 405.802139 132.051245 
L 407.791444 130.663856 
L 409.780749 129.967905 
L 411.770053 129.967905 
L 413.759358 130.663856 
L 415.748663 132.051245 
L 417.737968 134.121074 
L 419.727273 136.85992 
L 421.716578 140.250019 
L 423.705882 144.269386 
L 425.695187 148.891954 
L 427.684492 154.087744 
L 429.673797 159.823058 
L 431.663102 166.060702 
L 433.652406 172.760221 
L 437.631016 187.368377 
L 441.609626 203.269182 
L 447.57754 228.636703 
L 449.566845 237.278638 
L 499.299465 237.278638 
L 560.967914 205.661707 
L 562.957219 205.661707 
L 622.636364 236.258737 
L 622.636364 236.258737 
" clip-path="url(#pafdd3bb05b)" style="fill: none; stroke: #8c8c8c; stroke-width: 3; stroke-linecap: round"/>
   </g>
   <g id="line2d_28">
    <path d="M 115.363636 237.278638 
L 139.235294 237.278638 
L 141.224599 137.704542 
L 143.213904 138.049114 
L 145.203209 139.080444 
L 147.192513 140.791394 
L 149.181818 143.170124 
L 151.171123 146.20017 
L 153.160428 149.860562 
L 155.149733 154.125966 
L 157.139037 158.966862 
L 159.128342 164.349746 
L 161.117647 170.237365 
L 163.106952 176.58897 
L 167.085561 190.505397 
L 171.064171 205.714436 
L 177.032086 230.025286 
L 184.989305 262.872934 
L 188.967914 278.460949 
L 192.946524 292.910862 
L 194.935829 299.582699 
L 196.925134 305.823337 
L 198.914439 311.589582 
L 200.903743 316.841529 
L 202.893048 321.542828 
L 204.882353 325.660943 
L 206.871658 329.167371 
L 208.860963 332.037847 
L 210.850267 334.252502 
L 212.839572 335.796011 
L 214.828877 336.65769 
L 216.818182 336.831576 
L 218.807487 336.316465 
L 220.796791 335.115923 
L 222.786096 333.238257 
L 224.775401 330.696465 
L 226.764706 327.508136 
L 228.754011 323.695337 
L 230.743316 319.284456 
L 232.73262 314.30602 
L 234.721925 308.794485 
L 236.71123 302.787996 
L 238.700535 296.328122 
L 242.679144 282.229884 
L 246.657754 266.889385 
L 248.647059 258.884745 
L 250.636364 237.278638 
L 258.593583 237.278638 
L 260.582888 90.700742 
L 362.037433 90.700742 
L 364.026738 237.278638 
L 379.941176 237.278638 
L 385.909091 205.210631 
L 389.887701 184.978414 
L 393.86631 166.427169 
L 395.855615 157.970889 
L 397.84492 150.153148 
L 399.834225 143.03689 
L 401.823529 136.679412 
L 403.812834 131.131899 
L 405.802139 126.439018 
L 407.791444 122.638552 
L 409.780749 119.761101 
L 411.770053 117.829831 
L 413.759358 116.860294 
L 415.748663 116.860294 
L 417.737968 117.829831 
L 419.727273 119.761101 
L 421.716578 122.638552 
L 423.705882 126.439018 
L 425.695187 131.131899 
L 427.684492 136.679412 
L 429.673797 143.03689 
L 431.663102 150.153148 
L 433.652406 157.970889 
L 435.641711 166.427169 
L 439.620321 184.978414 
L 443.59893 205.210631 
L 449.566845 237.278638 
L 499.299465 237.278638 
L 539.085561 153.763849 
L 541.074866 153.763849 
L 580.860963 237.278638 
L 622.636364 237.278638 
L 622.636364 237.278638 
" clip-path="url(#pafdd3bb05b)" style="fill: none; stroke: #ccb974; stroke-width: 3; stroke-linecap: round"/>
   </g>
   <g id="line2d_29">
    <path d="M 115.363636 237.278638 
L 161.117647 237.278638 
L 224.775401 148.797207 
L 226.764706 237.278638 
L 274.508021 237.278638 
L 276.497326 154.775787 
L 358.058824 237.278638 
L 391.877005 237.278638 
L 397.84492 212.023283 
L 401.823529 196.201831 
L 403.812834 188.813965 
L 405.802139 181.865003 
L 407.791444 175.417875 
L 409.780749 169.530968 
L 411.770053 164.257594 
L 413.759358 159.64551 
L 415.748663 155.736484 
L 417.737968 152.565916 
L 419.727273 150.162519 
L 421.716578 148.54806 
L 423.705882 147.737159 
L 425.695187 147.737159 
L 427.684492 148.54806 
L 429.673797 150.162519 
L 431.663102 152.565916 
L 433.652406 155.736484 
L 435.641711 159.64551 
L 437.631016 164.257594 
L 439.620321 169.530968 
L 441.609626 175.417875 
L 443.59893 181.865003 
L 445.588235 188.813965 
L 449.566845 203.961695 
L 453.545455 220.313586 
L 457.524064 237.278638 
L 505.26738 237.278638 
L 507.256684 149.510221 
L 509.245989 149.642301 
L 511.235294 150.038143 
L 513.224599 150.696555 
L 515.213904 151.615557 
L 517.203209 152.792382 
L 519.192513 154.223487 
L 521.181818 155.904567 
L 523.171123 157.830561 
L 525.160428 159.995673 
L 527.149733 162.393386 
L 529.139037 165.016483 
L 531.128342 167.857071 
L 535.106952 174.155889 
L 539.085561 181.214066 
L 543.064171 188.946692 
L 547.042781 197.260747 
L 551.02139 206.056211 
L 556.989305 219.919325 
L 568.925134 248.665939 
L 574.893048 262.772324 
L 576.882353 237.278638 
L 622.636364 237.278638 
L 622.636364 237.278638 
" clip-path="url(#pafdd3bb05b)" style="fill: none; stroke: #64b5cd; stroke-width: 3; stroke-linecap: round"/>
   </g>
   <g id="patch_3">
    <path d="M 90 378 
L 90 51.84 
" style="fill: none; stroke: #ffffff; stroke-width: 1.25; stroke-linejoin: miter; stroke-linecap: square"/>
   </g>
   <g id="patch_4">
    <path d="M 648 378 
L 648 51.84 
" style="fill: none; stroke: #ffffff; stroke-width: 1.25; stroke-linejoin: miter; stroke-linecap: square"/>
   </g>
   <g id="patch_5">
    <path d="M 90 378 
L 648 378 
" style="fill: none; stroke: #ffffff; stroke-width: 1.25; stroke-linejoin: miter; stroke-linecap: square"/>
   </g>
   <g id="patch_6">
    <path d="M 90 51.84 
L 648 51.84 
" style="fill: none; stroke: #ffffff; stroke-width: 1.25; stroke-linejoin: miter; stroke-linecap: square"/>
   </g>
   <g id="text_12">
    <!-- Illustration of Stochasticity in Signal Generation -->
    <g style="fill: #262626" transform="translate(78.383939 45.84)scale(0.3 -0.3)">
     <defs>
      <path id="CMR17-49" d="M 1261 3898 
C 1261 4185 1338 4185 1798 4185 
L 1798 4352 
C 1594 4339 1267 4339 1050 4339 
C 832 4339 506 4339 301 4352 
L 301 4185 
C 762 4185 838 4185 838 3898 
L 838 453 
C 838 166 762 166 301 166 
L 301 0 
C 506 12 832 12 1050 12 
C 1267 12 1594 12 1798 0 
L 1798 166 
C 1338 166 1261 166 1261 453 
L 1261 3898 
z
" transform="scale(0.015625)"/>
      <path id="CMR17-73" d="M 1978 2688 
C 1978 2803 1971 2809 1933 2809 
C 1907 2809 1901 2803 1824 2707 
C 1805 2681 1747 2617 1728 2592 
C 1523 2809 1235 2816 1126 2816 
C 416 2816 160 2444 160 2073 
C 160 1497 813 1363 998 1324 
C 1402 1241 1542 1216 1677 1100 
C 1760 1024 1901 883 1901 652 
C 1901 384 1747 38 1158 38 
C 602 38 403 460 288 1024 
C 269 1113 269 1120 218 1120 
C 166 1120 160 1113 160 985 
L 160 64 
C 160 -52 166 -58 205 -58 
C 237 -58 243 -52 275 0 
C 314 57 410 211 448 275 
C 576 102 800 -64 1158 -64 
C 1792 -64 2131 281 2131 780 
C 2131 1107 1958 1280 1875 1356 
C 1683 1555 1459 1600 1190 1651 
C 838 1728 390 1817 390 2208 
C 390 2374 480 2726 1126 2726 
C 1811 2726 1850 2086 1862 1881 
C 1869 1849 1901 1843 1920 1843 
C 1978 1843 1978 1862 1978 1971 
L 1978 2688 
z
" transform="scale(0.015625)"/>
      <path id="CMR17-72" d="M 960 1517 
C 960 2134 1222 2713 1702 2713 
C 1747 2713 1792 2707 1837 2687 
C 1837 2687 1696 2642 1696 2475 
C 1696 2321 1818 2257 1914 2257 
C 1990 2257 2131 2302 2131 2482 
C 2131 2687 1926 2816 1709 2816 
C 1222 2816 1011 2340 947 2115 
L 941 2115 
L 941 2816 
L 198 2745 
L 198 2578 
C 576 2578 634 2540 634 2231 
L 634 443 
C 634 198 608 166 198 166 
L 198 0 
C 352 12 646 12 813 12 
C 998 12 1325 12 1498 0 
L 1498 166 
C 1037 166 960 166 960 455 
L 960 1517 
z
" transform="scale(0.015625)"/>
      <path id="CMR17-61" d="M 2304 1656 
C 2304 2048 2304 2275 2035 2534 
C 1798 2751 1523 2816 1306 2816 
C 800 2816 435 2408 435 1977 
C 435 1740 627 1728 666 1728 
C 749 1728 896 1779 896 1958 
C 896 2118 774 2188 666 2188 
C 640 2188 608 2182 589 2176 
C 723 2594 1069 2713 1293 2713 
C 1613 2713 1965 2421 1965 1875 
L 1965 1632 
C 1587 1619 1133 1568 774 1373 
C 371 1147 256 822 256 576 
C 256 77 832 -64 1171 -64 
C 1523 -64 1850 135 1990 505 
C 2003 219 2182 -39 2464 -39 
C 2598 -39 2938 51 2938 563 
L 2938 926 
L 2822 926 
L 2822 557 
C 2822 161 2650 109 2566 109 
C 2304 109 2304 446 2304 732 
L 2304 1656 
z
M 1965 887 
C 1965 323 1568 38 1216 38 
C 896 38 646 278 646 576 
C 646 771 730 1114 1101 1322 
C 1408 1497 1760 1523 1965 1536 
L 1965 887 
z
" transform="scale(0.015625)"/>
      <path id="CMR17-6f" d="M 2758 1356 
C 2758 2176 2163 2816 1466 2816 
C 768 2816 173 2176 173 1356 
C 173 550 768 -64 1466 -64 
C 2163 -64 2758 550 2758 1356 
z
M 1466 51 
C 1165 51 909 230 762 480 
C 602 768 582 1126 582 1408 
C 582 1676 595 2009 762 2297 
C 890 2508 1139 2713 1466 2713 
C 1754 2713 1997 2553 2150 2329 
C 2349 2028 2349 1606 2349 1408 
C 2349 1158 2336 774 2163 467 
C 1984 172 1709 51 1466 51 
z
" transform="scale(0.015625)"/>
      <path id="CMR17-6e" d="M 2656 1954 
C 2656 2282 2592 2816 1837 2816 
C 1331 2816 1069 2424 973 2166 
L 966 2166 
L 966 2816 
L 211 2745 
L 211 2578 
C 589 2578 646 2540 646 2231 
L 646 443 
C 646 198 621 166 211 166 
L 211 0 
C 365 12 646 12 813 12 
C 979 12 1267 12 1421 0 
L 1421 166 
C 1011 166 986 192 986 443 
L 986 1678 
C 986 2269 1344 2713 1792 2713 
C 2266 2713 2317 2289 2317 1980 
L 2317 443 
C 2317 198 2291 166 1882 166 
L 1882 0 
C 2035 12 2317 12 2483 12 
C 2650 12 2938 12 3091 0 
L 3091 166 
C 2682 166 2656 192 2656 443 
L 2656 1954 
z
" transform="scale(0.015625)"/>
      <path id="CMR17-66" d="M 979 2585 
L 1709 2585 
L 1709 2752 
L 966 2752 
L 966 3539 
C 966 4076 1235 4377 1510 4377 
C 1594 4377 1690 4363 1754 4339 
C 1702 4326 1568 4281 1568 4121 
C 1568 3955 1696 3904 1786 3904 
C 1875 3904 2003 3955 2003 4121 
C 2003 4353 1773 4480 1517 4480 
C 1152 4480 653 4211 653 3526 
L 653 2752 
L 141 2752 
L 141 2585 
L 653 2585 
L 653 441 
C 653 198 627 166 218 166 
L 218 0 
C 371 12 666 12 832 12 
C 1018 12 1344 12 1517 0 
L 1517 166 
C 1056 166 979 166 979 454 
L 979 2585 
z
" transform="scale(0.015625)"/>
      <path id="CMR17-53" d="M 2803 4351 
C 2803 4467 2797 4473 2758 4473 
C 2720 4473 2707 4447 2682 4390 
L 2490 3965 
C 2246 4320 1875 4480 1472 4480 
C 819 4480 294 3958 294 3301 
C 294 3101 339 2817 557 2546 
C 794 2250 1018 2198 1530 2063 
C 1722 2011 2042 1927 2106 1901 
C 2470 1747 2662 1360 2662 999 
C 2662 534 2336 38 1779 38 
C 1094 38 454 425 410 1328 
C 403 1431 397 1437 352 1437 
C 301 1437 294 1431 294 1302 
L 294 0 
C 294 -116 301 -122 339 -122 
C 384 -122 397 -90 486 109 
C 493 128 493 141 614 386 
C 934 -39 1472 -128 1779 -128 
C 2477 -128 2970 457 2970 1141 
C 2970 1476 2848 1734 2778 1850 
C 2509 2263 2221 2340 1914 2417 
C 1869 2437 1856 2437 1498 2527 
C 1152 2617 1005 2662 845 2836 
C 666 3036 602 3243 602 3449 
C 602 3868 934 4326 1478 4326 
C 2157 4326 2579 3842 2675 3036 
C 2694 2920 2701 2914 2746 2914 
C 2803 2914 2803 2933 2803 3043 
L 2803 4351 
z
" transform="scale(0.015625)"/>
      <path id="CMR17-63" d="M 2234 2240 
C 2112 2240 1933 2240 1933 2015 
C 1933 1836 2080 1785 2163 1785 
C 2208 1785 2394 1804 2394 2028 
C 2394 2476 1958 2816 1466 2816 
C 787 2816 211 2201 211 1379 
C 211 521 813 -64 1466 -64 
C 2259 -64 2458 676 2458 747 
C 2458 773 2451 792 2406 792 
C 2362 792 2355 786 2330 702 
C 2163 180 1798 51 1523 51 
C 1114 51 621 431 621 1385 
C 621 2358 1094 2700 1472 2700 
C 1722 2700 2093 2582 2234 2240 
z
" transform="scale(0.015625)"/>
      <path id="CMR17-68" d="M 2656 1954 
C 2656 2282 2592 2816 1837 2816 
C 1312 2816 1056 2392 979 2179 
L 973 2179 
L 973 4416 
L 211 4345 
L 211 4179 
C 589 4179 646 4141 646 3843 
L 646 443 
C 646 198 621 166 211 166 
L 211 0 
C 365 12 646 12 813 12 
C 979 12 1267 12 1421 0 
L 1421 166 
C 1011 166 986 192 986 443 
L 986 1678 
C 986 2269 1344 2713 1792 2713 
C 2266 2713 2317 2289 2317 1980 
L 2317 443 
C 2317 198 2291 166 1882 166 
L 1882 0 
C 2035 12 2317 12 2483 12 
C 2650 12 2938 12 3091 0 
L 3091 166 
C 2682 166 2656 192 2656 443 
L 2656 1954 
z
" transform="scale(0.015625)"/>
      <path id="CMR17-79" d="M 2496 2183 
C 2656 2579 2944 2585 3034 2585 
L 3034 2752 
C 2912 2745 2752 2739 2630 2739 
C 2496 2739 2285 2739 2157 2752 
L 2157 2585 
C 2400 2566 2406 2384 2406 2332 
C 2406 2268 2394 2235 2362 2158 
L 1664 409 
L 902 2300 
C 870 2378 870 2423 870 2430 
C 870 2572 1018 2585 1171 2585 
L 1171 2752 
C 1018 2739 742 2739 582 2739 
C 410 2739 205 2739 64 2752 
L 64 2585 
C 410 2585 448 2553 531 2345 
L 1485 -31 
C 1197 -795 1030 -1242 627 -1242 
C 557 -1242 397 -1223 282 -1106 
C 429 -1093 493 -1002 493 -892 
C 493 -782 416 -685 288 -685 
C 147 -685 77 -782 77 -899 
C 77 -1158 339 -1344 627 -1344 
C 998 -1344 1229 -983 1357 -659 
L 2496 2183 
z
" transform="scale(0.015625)"/>
      <path id="CMR17-67" d="M 710 1165 
C 832 1068 1043 960 1299 960 
C 1805 960 2240 1359 2240 1895 
C 2240 2063 2189 2321 1997 2521 
C 2176 2713 2438 2777 2586 2777 
C 2611 2777 2650 2777 2682 2758 
C 2656 2751 2598 2726 2598 2623 
C 2598 2540 2656 2483 2739 2483 
C 2835 2483 2886 2547 2886 2630 
C 2886 2751 2790 2880 2586 2880 
C 2330 2880 2106 2758 1926 2591 
C 1734 2764 1504 2828 1299 2828 
C 794 2828 358 2431 358 1895 
C 358 1527 570 1294 634 1230 
C 442 1004 442 742 442 710 
C 442 544 506 300 723 166 
C 390 82 128 -184 128 -517 
C 128 -996 736 -1344 1466 -1344 
C 2170 -1344 2803 -1009 2803 -510 
C 2803 384 1856 384 1363 384 
C 1216 384 954 384 922 390 
C 723 422 589 601 589 825 
C 589 883 589 1024 710 1165 
z
M 1299 1068 
C 736 1068 736 1766 736 1895 
C 736 2024 736 2719 1299 2719 
C 1862 2719 1862 2024 1862 1895 
C 1862 1766 1862 1068 1299 1068 
z
M 1466 -1236 
C 826 -1236 384 -883 384 -517 
C 384 -311 493 -118 634 -11 
C 794 102 858 102 1293 102 
C 1818 102 2547 102 2547 -517 
C 2547 -883 2106 -1236 1466 -1236 
z
" transform="scale(0.015625)"/>
      <path id="CMR17-47" d="M 3974 1258 
C 3974 1503 3994 1536 4390 1536 
L 4390 1702 
C 4237 1689 3891 1689 3718 1689 
C 3539 1689 3040 1696 2797 1702 
L 2797 1536 
L 2989 1536 
C 3539 1536 3552 1464 3552 1232 
L 3552 806 
C 3552 96 2720 38 2522 38 
C 1862 38 781 496 781 2179 
C 781 3862 1843 4313 2464 4313 
C 3187 4313 3712 3681 3834 2785 
C 3846 2708 3846 2695 3904 2695 
C 3974 2695 3974 2708 3974 2824 
L 3974 4351 
C 3974 4467 3968 4473 3930 4473 
C 3904 4473 3898 4467 3853 4390 
L 3571 3849 
C 3258 4249 2874 4480 2381 4480 
C 1286 4480 294 3507 294 2179 
C 294 858 1267 -128 2394 -128 
C 2912 -128 3418 57 3616 425 
C 3725 161 3904 -20 3936 -20 
C 3968 -20 3974 -13 3974 102 
L 3974 1258 
z
" transform="scale(0.015625)"/>
     </defs>
     <use xlink:href="#CMR17-49" transform="scale(0.996264)"/>
     <use xlink:href="#CMR17-6c" transform="translate(32.638409 0)scale(0.996264)"/>
     <use xlink:href="#CMR17-6c" transform="translate(57.509468 0)scale(0.996264)"/>
     <use xlink:href="#CMR17-75" transform="translate(82.380526 0)scale(0.996264)"/>
     <use xlink:href="#CMR17-73" transform="translate(133.275896 0)scale(0.996264)"/>
     <use xlink:href="#CMR17-74" transform="translate(169.077234 0)scale(0.996264)"/>
     <use xlink:href="#CMR17-72" transform="translate(204.358001 0)scale(0.996264)"/>
     <use xlink:href="#CMR17-61" transform="translate(239.638769 0)scale(0.996264)"/>
     <use xlink:href="#CMR17-74" transform="translate(285.329246 0)scale(0.996264)"/>
     <use xlink:href="#CMR17-69" transform="translate(320.610014 0)scale(0.996264)"/>
     <use xlink:href="#CMR17-6f" transform="translate(345.481073 0)scale(0.996264)"/>
     <use xlink:href="#CMR17-6e" transform="translate(391.17155 0)scale(0.996264)"/>
     <use xlink:href="#CMR17-6f" transform="translate(472.142886 0)scale(0.996264)"/>
     <use xlink:href="#CMR17-66" transform="translate(517.833363 0)scale(0.996264)"/>
     <use xlink:href="#CMR17-53" transform="translate(575.382842 0)scale(0.996264)"/>
     <use xlink:href="#CMR17-74" transform="translate(626.278211 0)scale(0.996264)"/>
     <use xlink:href="#CMR17-6f" transform="translate(661.558979 0)scale(0.996264)"/>
     <use xlink:href="#CMR17-63" transform="translate(709.851895 0)scale(0.996264)"/>
     <use xlink:href="#CMR17-68" transform="translate(747.735102 0)scale(0.996264)"/>
     <use xlink:href="#CMR17-61" transform="translate(798.630471 0)scale(0.996264)"/>
     <use xlink:href="#CMR17-73" transform="translate(844.320949 0)scale(0.996264)"/>
     <use xlink:href="#CMR17-74" transform="translate(880.122286 0)scale(0.996264)"/>
     <use xlink:href="#CMR17-69" transform="translate(915.403054 0)scale(0.996264)"/>
     <use xlink:href="#CMR17-63" transform="translate(940.274112 0)scale(0.996264)"/>
     <use xlink:href="#CMR17-69" transform="translate(980.759773 0)scale(0.996264)"/>
     <use xlink:href="#CMR17-74" transform="translate(1005.630831 0)scale(0.996264)"/>
     <use xlink:href="#CMR17-79" transform="translate(1038.309145 0)scale(0.996264)"/>
     <use xlink:href="#CMR17-69" transform="translate(1116.678027 0)scale(0.996264)"/>
     <use xlink:href="#CMR17-6e" transform="translate(1141.549086 0)scale(0.996264)"/>
     <use xlink:href="#CMR17-53" transform="translate(1222.520422 0)scale(0.996264)"/>
     <use xlink:href="#CMR17-69" transform="translate(1273.415792 0)scale(0.996264)"/>
     <use xlink:href="#CMR17-67" transform="translate(1298.28685 0)scale(0.996264)"/>
     <use xlink:href="#CMR17-6e" transform="translate(1343.977327 0)scale(0.996264)"/>
     <use xlink:href="#CMR17-61" transform="translate(1394.872697 0)scale(0.996264)"/>
     <use xlink:href="#CMR17-6c" transform="translate(1440.563174 0)scale(0.996264)"/>
     <use xlink:href="#CMR17-47" transform="translate(1495.510199 0)scale(0.996264)"/>
     <use xlink:href="#CMR17-65" transform="translate(1567.865545 0)scale(0.996264)"/>
     <use xlink:href="#CMR17-6e" transform="translate(1608.351206 0)scale(0.996264)"/>
     <use xlink:href="#CMR17-65" transform="translate(1659.246575 0)scale(0.996264)"/>
     <use xlink:href="#CMR17-72" transform="translate(1699.732236 0)scale(0.996264)"/>
     <use xlink:href="#CMR17-61" transform="translate(1735.013004 0)scale(0.996264)"/>
     <use xlink:href="#CMR17-74" transform="translate(1780.703481 0)scale(0.996264)"/>
     <use xlink:href="#CMR17-69" transform="translate(1815.984249 0)scale(0.996264)"/>
     <use xlink:href="#CMR17-6f" transform="translate(1840.855307 0)scale(0.996264)"/>
     <use xlink:href="#CMR17-6e" transform="translate(1886.545784 0)scale(0.996264)"/>
    </g>
   </g>
  </g>
 </g>
 <defs>
  <clipPath id="pafdd3bb05b">
   <rect x="90" y="51.84" width="558" height="326.16"/>
  </clipPath>
 </defs>
</svg>
