<?xml version="1.0" encoding="utf-8" standalone="no"?>
<!DOCTYPE svg PUBLIC "-//W3C//DTD SVG 1.1//EN"
  "http://www.w3.org/Graphics/SVG/1.1/DTD/svg11.dtd">
<svg xmlns:xlink="http://www.w3.org/1999/xlink" width="720pt" height="432pt" viewBox="0 0 720 432" xmlns="http://www.w3.org/2000/svg" version="1.1">
 <metadata>
  <rdf:RDF xmlns:dc="http://purl.org/dc/elements/1.1/" xmlns:cc="http://creativecommons.org/ns#" xmlns:rdf="http://www.w3.org/1999/02/22-rdf-syntax-ns#">
   <cc:Work>
    <dc:type rdf:resource="http://purl.org/dc/dcmitype/StillImage"/>
    <dc:date>2025-07-04T18:06:36.120096</dc:date>
    <dc:format>image/svg+xml</dc:format>
    <dc:creator>
     <cc:Agent>
      <dc:title>Matplotlib v3.10.0, https://matplotlib.org/</dc:title>
     </cc:Agent>
    </dc:creator>
   </cc:Work>
  </rdf:RDF>
 </metadata>
 <defs>
  <style type="text/css">*{stroke-linejoin: round; stroke-linecap: butt}</style>
 </defs>
 <g id="figure_1">
  <g id="patch_1">
   <path d="M 0 432 
L 720 432 
L 720 0 
L 0 0 
z
" style="fill: #ffffff"/>
  </g>
  <g id="axes_1">
   <g id="patch_2">
    <path d="M 90 384.48 
L 648 384.48 
L 648 51.84 
L 90 51.84 
z
" style="fill: #ffffff"/>
   </g>
   <g id="matplotlib.axis_1">
    <g id="xtick_1">
     <g id="line2d_1">
      <path d="M 115.363636 384.48 
L 115.363636 51.84 
" clip-path="url(#pe14fddbb82)" style="fill: none; stroke: #cccccc; stroke-linecap: round"/>
     </g>
     <g id="text_1">
      <!-- $\mathdefault{0}$ -->
      <g style="fill: #262626" transform="translate(109.081196 413.005867) scale(0.275 -0.275)">
       <defs>
        <path id="CMR17-30" d="M 2688 2038 
C 2688 2430 2682 3099 2413 3613 
C 2176 4063 1798 4224 1466 4224 
C 1158 4224 768 4082 525 3620 
C 269 3137 243 2539 243 2038 
C 243 1671 250 1112 448 623 
C 723 -39 1216 -128 1466 -128 
C 1760 -128 2208 -7 2470 604 
C 2662 1048 2688 1568 2688 2038 
z
M 1466 -26 
C 1056 -26 813 328 723 816 
C 653 1196 653 1749 653 2109 
C 653 2604 653 3015 736 3407 
C 858 3954 1216 4121 1466 4121 
C 1728 4121 2067 3947 2189 3420 
C 2272 3054 2278 2623 2278 2109 
C 2278 1691 2278 1176 2202 797 
C 2067 96 1690 -26 1466 -26 
z
" transform="scale(0.015625)"/>
       </defs>
       <use xlink:href="#CMR17-30" transform="scale(0.996264)"/>
      </g>
     </g>
    </g>
    <g id="xtick_2">
     <g id="line2d_2">
      <path d="M 214.828877 384.48 
L 214.828877 51.84 
" clip-path="url(#pe14fddbb82)" style="fill: none; stroke: #cccccc; stroke-linecap: round"/>
     </g>
     <g id="text_2">
      <!-- $\mathdefault{50}$ -->
      <g style="fill: #262626" transform="translate(202.263996 413.005867) scale(0.275 -0.275)">
       <defs>
        <path id="CMR17-35" d="M 730 3750 
C 794 3724 1056 3641 1325 3641 
C 1920 3641 2246 3961 2432 4140 
C 2432 4191 2432 4224 2394 4224 
C 2387 4224 2374 4224 2323 4198 
C 2099 4102 1837 4032 1517 4032 
C 1325 4032 1037 4055 723 4191 
C 653 4224 640 4224 634 4224 
C 602 4224 595 4217 595 4090 
L 595 2231 
C 595 2113 595 2080 659 2080 
C 691 2080 704 2093 736 2139 
C 941 2435 1222 2560 1542 2560 
C 1766 2560 2246 2415 2246 1293 
C 2246 1087 2246 716 2054 422 
C 1894 159 1645 25 1370 25 
C 947 25 518 319 403 812 
C 429 806 480 793 506 793 
C 589 793 749 838 749 1036 
C 749 1209 627 1280 506 1280 
C 358 1280 262 1190 262 1011 
C 262 454 704 -128 1382 -128 
C 2042 -128 2669 441 2669 1267 
C 2669 2054 2170 2662 1549 2662 
C 1222 2662 947 2540 730 2304 
L 730 3750 
z
" transform="scale(0.015625)"/>
       </defs>
       <use xlink:href="#CMR17-35" transform="scale(0.996264)"/>
       <use xlink:href="#CMR17-30" transform="translate(45.690477 0) scale(0.996264)"/>
      </g>
     </g>
    </g>
    <g id="xtick_3">
     <g id="line2d_3">
      <path d="M 314.294118 384.48 
L 314.294118 51.84 
" clip-path="url(#pe14fddbb82)" style="fill: none; stroke: #cccccc; stroke-linecap: round"/>
     </g>
     <g id="text_3">
      <!-- $\mathdefault{100}$ -->
      <g style="fill: #262626" transform="translate(295.446796 413.005867) scale(0.275 -0.275)">
       <defs>
        <path id="CMR17-31" d="M 1702 4083 
C 1702 4217 1696 4224 1606 4224 
C 1357 3927 979 3833 621 3820 
C 602 3820 570 3820 563 3808 
C 557 3795 557 3782 557 3648 
C 755 3648 1088 3686 1344 3839 
L 1344 467 
C 1344 243 1331 166 781 166 
L 589 166 
L 589 0 
C 896 6 1216 12 1523 12 
C 1830 12 2150 6 2458 0 
L 2458 166 
L 2266 166 
C 1715 166 1702 236 1702 467 
L 1702 4083 
z
" transform="scale(0.015625)"/>
       </defs>
       <use xlink:href="#CMR17-31" transform="scale(0.996264)"/>
       <use xlink:href="#CMR17-30" transform="translate(45.690477 0) scale(0.996264)"/>
       <use xlink:href="#CMR17-30" transform="translate(91.380954 0) scale(0.996264)"/>
      </g>
     </g>
    </g>
    <g id="xtick_4">
     <g id="line2d_4">
      <path d="M 413.759358 384.48 
L 413.759358 51.84 
" clip-path="url(#pe14fddbb82)" style="fill: none; stroke: #cccccc; stroke-linecap: round"/>
     </g>
     <g id="text_4">
      <!-- $\mathdefault{150}$ -->
      <g style="fill: #262626" transform="translate(394.912036 413.005867) scale(0.275 -0.275)">
       <use xlink:href="#CMR17-31" transform="scale(0.996264)"/>
       <use xlink:href="#CMR17-35" transform="translate(45.690477 0) scale(0.996264)"/>
       <use xlink:href="#CMR17-30" transform="translate(91.380954 0) scale(0.996264)"/>
      </g>
     </g>
    </g>
    <g id="xtick_5">
     <g id="line2d_5">
      <path d="M 513.224599 384.48 
L 513.224599 51.84 
" clip-path="url(#pe14fddbb82)" style="fill: none; stroke: #cccccc; stroke-linecap: round"/>
     </g>
     <g id="text_5">
      <!-- $\mathdefault{200}$ -->
      <g style="fill: #262626" transform="translate(494.377277 413.005867) scale(0.275 -0.275)">
       <defs>
        <path id="CMR17-32" d="M 2669 990 
L 2554 990 
C 2490 537 2438 460 2413 422 
C 2381 371 1920 371 1830 371 
L 602 371 
C 832 620 1280 1073 1824 1596 
C 2214 1966 2669 2400 2669 3033 
C 2669 3788 2067 4224 1395 4224 
C 691 4224 262 3603 262 3027 
C 262 2777 448 2745 525 2745 
C 589 2745 781 2783 781 3007 
C 781 3206 614 3264 525 3264 
C 486 3264 448 3257 422 3244 
C 544 3788 915 4057 1306 4057 
C 1862 4057 2227 3616 2227 3033 
C 2227 2477 1901 1998 1536 1583 
L 262 147 
L 262 0 
L 2515 0 
L 2669 990 
z
" transform="scale(0.015625)"/>
       </defs>
       <use xlink:href="#CMR17-32" transform="scale(0.996264)"/>
       <use xlink:href="#CMR17-30" transform="translate(45.690477 0) scale(0.996264)"/>
       <use xlink:href="#CMR17-30" transform="translate(91.380954 0) scale(0.996264)"/>
      </g>
     </g>
    </g>
    <g id="xtick_6">
     <g id="line2d_6">
      <path d="M 612.68984 384.48 
L 612.68984 51.84 
" clip-path="url(#pe14fddbb82)" style="fill: none; stroke: #cccccc; stroke-linecap: round"/>
     </g>
     <g id="text_6">
      <!-- $\mathdefault{250}$ -->
      <g style="fill: #262626" transform="translate(593.842518 413.005867) scale(0.275 -0.275)">
       <use xlink:href="#CMR17-32" transform="scale(0.996264)"/>
       <use xlink:href="#CMR17-35" transform="translate(45.690477 0) scale(0.996264)"/>
       <use xlink:href="#CMR17-30" transform="translate(91.380954 0) scale(0.996264)"/>
      </g>
     </g>
    </g>
    <g id="text_7">
     <!-- Time -->
     <g style="fill: #262626" transform="translate(337.682086 443.090362) scale(0.3 -0.3)">
      <defs>
       <path id="CMR17-54" d="M 3981 4332 
L 288 4332 
L 179 2924 
L 294 2924 
C 378 3981 467 4166 1453 4166 
C 1568 4166 1754 4166 1805 4159 
C 1926 4140 1926 4064 1926 3917 
L 1926 465 
C 1926 236 1907 166 1376 166 
L 1197 166 
L 1197 0 
C 1504 6 1824 12 2138 12 
C 2451 12 2771 6 3078 0 
L 3078 166 
L 2899 166 
C 2368 166 2349 236 2349 465 
L 2349 3917 
C 2349 4057 2349 4134 2464 4159 
C 2515 4166 2701 4166 2816 4166 
C 3795 4166 3891 3981 3974 2924 
L 4090 2924 
L 3981 4332 
z
" transform="scale(0.015625)"/>
       <path id="CMR17-69" d="M 992 3961 
C 992 4102 877 4224 730 4224 
C 589 4224 467 4108 467 3961 
C 467 3820 582 3699 730 3699 
C 870 3699 992 3814 992 3961 
z
M 243 2745 
L 243 2579 
C 602 2579 653 2540 653 2231 
L 653 443 
C 653 198 627 166 218 166 
L 218 0 
C 371 12 646 12 806 12 
C 960 12 1222 12 1370 0 
L 1370 166 
C 992 166 979 205 979 436 
L 979 2816 
L 243 2745 
z
" transform="scale(0.015625)"/>
       <path id="CMR17-6d" d="M 4326 1954 
C 4326 2276 4269 2816 3507 2816 
C 3072 2816 2771 2520 2656 2173 
L 2650 2173 
C 2573 2700 2195 2816 1837 2816 
C 1331 2816 1069 2424 973 2166 
L 966 2166 
L 966 2816 
L 211 2745 
L 211 2578 
C 589 2578 646 2540 646 2231 
L 646 443 
C 646 198 621 166 211 166 
L 211 0 
C 365 12 646 12 813 12 
C 979 12 1267 12 1421 0 
L 1421 166 
C 1011 166 986 192 986 443 
L 986 1678 
C 986 2269 1344 2713 1792 2713 
C 2266 2713 2317 2289 2317 1980 
L 2317 443 
C 2317 198 2291 166 1882 166 
L 1882 0 
C 2035 12 2317 12 2483 12 
C 2650 12 2938 12 3091 0 
L 3091 166 
C 2682 166 2656 192 2656 443 
L 2656 1678 
C 2656 2269 3014 2713 3462 2713 
C 3936 2713 3987 2289 3987 1980 
L 3987 443 
C 3987 198 3962 166 3552 166 
L 3552 0 
C 3706 12 3987 12 4154 12 
C 4320 12 4608 12 4762 0 
L 4762 166 
C 4352 166 4326 192 4326 443 
L 4326 1954 
z
" transform="scale(0.015625)"/>
       <path id="CMR17-65" d="M 2438 1503 
C 2464 1529 2464 1542 2464 1606 
C 2464 2251 2118 2816 1389 2816 
C 710 2816 173 2175 173 1394 
C 173 554 781 -64 1459 -64 
C 2176 -64 2458 619 2458 755 
C 2458 800 2419 800 2406 800 
C 2362 800 2355 787 2330 709 
C 2189 270 1837 51 1504 51 
C 1229 51 954 206 781 490 
C 582 819 582 1200 582 1503 
L 2438 1503 
z
M 589 1600 
C 634 2511 1126 2713 1382 2713 
C 1818 2713 2112 2308 2118 1600 
L 589 1600 
z
" transform="scale(0.015625)"/>
      </defs>
      <use xlink:href="#CMR17-54" transform="scale(0.996264)"/>
      <use xlink:href="#CMR17-69" transform="translate(66.509881 0) scale(0.996264)"/>
      <use xlink:href="#CMR17-6d" transform="translate(91.380939 0) scale(0.996264)"/>
      <use xlink:href="#CMR17-65" transform="translate(168.300529 0) scale(0.996264)"/>
     </g>
    </g>
   </g>
   <g id="matplotlib.axis_2">
    <g id="ytick_1">
     <g id="line2d_7">
      <path d="M 90 382.035586 
L 648 382.035586 
" clip-path="url(#pe14fddbb82)" style="fill: none; stroke: #cccccc; stroke-linecap: round"/>
     </g>
     <g id="text_8">
      <!-- $\mathdefault{−2}$ -->
      <g style="fill: #262626" transform="translate(46.626066 391.548519) scale(0.275 -0.275)">
       <defs>
        <path id="CMSY10-0" d="M 4218 1472 
C 4326 1472 4442 1472 4442 1600 
C 4442 1728 4326 1728 4218 1728 
L 755 1728 
C 646 1728 531 1728 531 1600 
C 531 1472 646 1472 755 1472 
L 4218 1472 
z
" transform="scale(0.015625)"/>
       </defs>
       <use xlink:href="#CMSY10-0" transform="scale(0.996264)"/>
       <use xlink:href="#CMR17-32" transform="translate(77.487468 0) scale(0.996264)"/>
      </g>
     </g>
    </g>
    <g id="ytick_2">
     <g id="line2d_8">
      <path d="M 90 311.302542 
L 648 311.302542 
" clip-path="url(#pe14fddbb82)" style="fill: none; stroke: #cccccc; stroke-linecap: round"/>
     </g>
     <g id="text_9">
      <!-- $\mathdefault{−1}$ -->
      <g style="fill: #262626" transform="translate(46.626066 320.815475) scale(0.275 -0.275)">
       <use xlink:href="#CMSY10-0" transform="scale(0.996264)"/>
       <use xlink:href="#CMR17-31" transform="translate(77.487468 0) scale(0.996264)"/>
      </g>
     </g>
    </g>
    <g id="ytick_3">
     <g id="line2d_9">
      <path d="M 90 240.569498 
L 648 240.569498 
" clip-path="url(#pe14fddbb82)" style="fill: none; stroke: #cccccc; stroke-linecap: round"/>
     </g>
     <g id="text_10">
      <!-- $\mathdefault{0}$ -->
      <g style="fill: #262626" transform="translate(67.935119 250.082431) scale(0.275 -0.275)">
       <use xlink:href="#CMR17-30" transform="scale(0.996264)"/>
      </g>
     </g>
    </g>
    <g id="ytick_4">
     <g id="line2d_10">
      <path d="M 90 169.836453 
L 648 169.836453 
" clip-path="url(#pe14fddbb82)" style="fill: none; stroke: #cccccc; stroke-linecap: round"/>
     </g>
     <g id="text_11">
      <!-- $\mathdefault{1}$ -->
      <g style="fill: #262626" transform="translate(67.935119 179.349387) scale(0.275 -0.275)">
       <use xlink:href="#CMR17-31" transform="scale(0.996264)"/>
      </g>
     </g>
    </g>
    <g id="ytick_5">
     <g id="line2d_11">
      <path d="M 90 99.103409 
L 648 99.103409 
" clip-path="url(#pe14fddbb82)" style="fill: none; stroke: #cccccc; stroke-linecap: round"/>
     </g>
     <g id="text_12">
      <!-- $\mathdefault{2}$ -->
      <g style="fill: #262626" transform="translate(67.935119 108.616343) scale(0.275 -0.275)">
       <use xlink:href="#CMR17-32" transform="scale(0.996264)"/>
      </g>
     </g>
    </g>
    <g id="text_13">
     <!-- Amplitude -->
     <g style="fill: #262626" transform="translate(36.812616 281.787972) rotate(-90) scale(0.3 -0.3)">
      <defs>
       <path id="CMR17-41" d="M 2323 4441 
C 2291 4524 2278 4544 2214 4544 
C 2150 4544 2138 4524 2106 4441 
L 749 580 
C 627 236 371 166 147 166 
L 147 0 
C 262 12 518 12 640 12 
C 800 12 1056 12 1210 0 
L 1210 166 
C 909 179 864 382 864 459 
C 864 516 877 548 890 586 
L 1229 1536 
L 2906 1536 
L 3290 453 
C 3322 376 3322 363 3322 338 
C 3322 166 3046 166 2925 166 
L 2925 0 
C 3110 12 3443 12 3642 12 
C 3808 12 4128 12 4282 0 
L 4282 166 
C 3942 166 3827 166 3744 402 
L 2323 4441 
z
M 2067 3924 
L 2848 1702 
L 1286 1702 
L 2067 3924 
z
" transform="scale(0.015625)"/>
       <path id="CMR17-70" d="M 1408 -1114 
C 998 -1114 973 -1088 973 -834 
L 973 380 
C 1158 109 1427 -64 1766 -64 
C 2406 -64 3053 503 3053 1382 
C 3053 2196 2496 2816 1837 2816 
C 1453 2816 1139 2603 960 2345 
L 960 2816 
L 198 2745 
L 198 2577 
C 576 2577 634 2539 634 2228 
L 634 -834 
C 634 -1081 608 -1114 198 -1114 
L 198 -1280 
C 352 -1268 634 -1268 800 -1268 
C 966 -1268 1254 -1268 1408 -1280 
L 1408 -1114 
z
M 973 2015 
C 973 2106 973 2241 1222 2481 
C 1254 2506 1472 2700 1792 2700 
C 2259 2700 2643 2112 2643 1376 
C 2643 639 2234 38 1728 38 
C 1498 38 1248 148 1056 451 
C 973 594 973 632 973 736 
L 973 2015 
z
" transform="scale(0.015625)"/>
       <path id="CMR17-6c" d="M 979 4416 
L 218 4345 
L 218 4179 
C 595 4179 653 4141 653 3835 
L 653 439 
C 653 198 627 166 218 166 
L 218 0 
C 371 12 653 12 813 12 
C 979 12 1261 12 1414 0 
L 1414 166 
C 1005 166 979 191 979 439 
L 979 4416 
z
" transform="scale(0.015625)"/>
       <path id="CMR17-74" d="M 966 2585 
L 1862 2585 
L 1862 2752 
L 966 2752 
L 966 3968 
L 851 3968 
C 838 3292 614 2700 70 2687 
L 70 2585 
L 627 2585 
L 627 778 
C 627 655 627 -64 1370 -64 
C 1747 -64 1965 308 1965 784 
L 1965 1151 
L 1850 1151 
L 1850 790 
C 1850 347 1677 51 1408 51 
C 1222 51 966 179 966 765 
L 966 2585 
z
" transform="scale(0.015625)"/>
       <path id="CMR17-75" d="M 1882 2745 
L 1882 2579 
C 2259 2579 2317 2540 2317 2229 
L 2317 1053 
C 2317 510 2029 38 1555 38 
C 1030 38 986 355 986 691 
L 986 2816 
L 211 2745 
L 211 2579 
C 467 2579 640 2579 646 2320 
L 646 1079 
C 646 646 646 368 813 187 
C 896 103 1056 -64 1517 -64 
C 2061 -64 2272 400 2323 536 
L 2330 536 
L 2330 -64 
L 3091 -13 
L 3091 154 
C 2714 154 2656 193 2656 503 
L 2656 2816 
L 1882 2745 
z
" transform="scale(0.015625)"/>
       <path id="CMR17-64" d="M 1869 4345 
L 1869 4179 
C 2246 4179 2304 4141 2304 3843 
L 2304 2371 
C 2278 2403 2016 2816 1498 2816 
C 845 2816 211 2228 211 1376 
C 211 529 806 -64 1434 -64 
C 1978 -64 2259 361 2291 406 
L 2291 -64 
L 3066 -13 
L 3066 154 
C 2688 154 2630 193 2630 503 
L 2630 4416 
L 1869 4345 
z
M 2291 762 
C 2291 568 2176 393 2029 264 
C 1811 70 1594 38 1472 38 
C 1286 38 621 135 621 1369 
C 621 2636 1363 2713 1530 2713 
C 1824 2713 2061 2545 2208 2313 
C 2291 2177 2291 2157 2291 2041 
L 2291 762 
z
" transform="scale(0.015625)"/>
      </defs>
      <use xlink:href="#CMR17-41" transform="scale(0.996264)"/>
      <use xlink:href="#CMR17-6d" transform="translate(69.07243 0) scale(0.996264)"/>
      <use xlink:href="#CMR17-70" transform="translate(145.99202 0) scale(0.996264)"/>
      <use xlink:href="#CMR17-6c" transform="translate(196.887389 0) scale(0.996264)"/>
      <use xlink:href="#CMR17-69" transform="translate(221.758448 0) scale(0.996264)"/>
      <use xlink:href="#CMR17-74" transform="translate(246.629506 0) scale(0.996264)"/>
      <use xlink:href="#CMR17-75" transform="translate(281.910274 0) scale(0.996264)"/>
      <use xlink:href="#CMR17-64" transform="translate(332.805644 0) scale(0.996264)"/>
      <use xlink:href="#CMR17-65" transform="translate(383.701014 0) scale(0.996264)"/>
     </g>
    </g>
   </g>
   <g id="line2d_12">
    <path d="M 115.363636 219.436213 
L 123.320856 219.436817 
L 125.31016 107.936206 
L 155.149733 107.79162 
L 173.053476 107.591136 
L 175.042781 219.061673 
L 200.903743 218.583509 
L 224.775401 217.939162 
L 256.604278 169.887145 
L 286.44385 124.444602 
L 290.42246 118.354529 
L 292.411765 214.868329 
L 314.294118 213.423531 
L 324.240642 212.68576 
L 330.208556 187.321598 
L 334.187166 171.895461 
L 336.176471 164.940963 
L 338.165775 158.617032 
L 340.15508 153.006919 
L 342.144385 148.184194 
L 344.13369 144.211751 
L 346.122995 141.140952 
L 348.112299 139.010938 
L 350.101604 137.848096 
L 352.090909 137.665703 
L 354.080214 138.463748 
L 356.069519 140.228928 
L 358.058824 142.934831 
L 360.048128 146.542294 
L 362.037433 150.999929 
L 364.026738 156.244818 
L 366.016043 162.203368 
L 368.005348 168.792302 
L 369.994652 175.919784 
L 373.973262 191.387825 
L 377.951872 207.751192 
L 395.855615 205.722931 
L 413.759358 203.48819 
L 421.716578 202.426375 
L 423.705882 132.368325 
L 425.695187 133.045457 
L 427.684492 135.597969 
L 429.673797 139.948628 
L 431.663102 145.971065 
L 433.652406 153.493223 
L 435.641711 162.302047 
L 437.631016 172.149303 
L 441.609626 193.831671 
L 445.588235 216.125877 
L 447.57754 226.721999 
L 449.566845 236.549927 
L 451.55615 245.333081 
L 453.545455 252.823305 
L 455.534759 258.807646 
L 457.524064 263.114155 
L 459.513369 265.616587 
L 461.502674 266.237836 
L 463.491979 264.952049 
L 465.481283 261.78532 
L 467.470588 256.814987 
L 469.459893 250.167516 
L 471.449198 242.015052 
L 473.438503 232.570721 
L 475.427807 222.082816 
L 479.406417 199.103859 
L 481.395722 187.22058 
L 483.385027 192.669226 
L 501.28877 189.297382 
L 517.203209 186.083285 
L 521.181818 185.247093 
L 523.171123 120.728988 
L 543.064171 140.052238 
L 560.967914 157.1486 
L 576.882353 172.103651 
L 592.796791 167.833595 
L 608.71123 163.323327 
L 622.636364 159.174899 
L 622.636364 159.174899 
" clip-path="url(#pe14fddbb82)" style="fill: none; stroke: #4c72b0; stroke-width: 3; stroke-linecap: round"/>
   </g>
   <g id="line2d_13">
    <path d="M 115.363636 234.741439 
L 143.213904 236.367531 
L 145.203209 137.09646 
L 175.042781 139.080306 
L 200.903743 140.981127 
L 202.893048 240.529255 
L 232.73262 242.937222 
L 240.68984 243.61438 
L 276.497326 214.155395 
L 314.294118 183.357405 
L 324.240642 175.30104 
L 326.229947 251.76499 
L 336.176471 252.810168 
L 342.144385 233.319497 
L 346.122995 221.138734 
L 348.112299 215.466159 
L 350.101604 210.144107 
L 352.090909 205.222726 
L 354.080214 200.748543 
L 356.069519 196.764042 
L 358.058824 193.307279 
L 360.048128 190.411539 
L 362.037433 188.105029 
L 364.026738 186.41063 
L 366.016043 185.345684 
L 368.005348 184.921841 
L 369.994652 185.14495 
L 371.983957 186.015008 
L 373.973262 187.52616 
L 375.962567 189.666751 
L 377.951872 192.419432 
L 379.941176 195.761319 
L 381.930481 199.664195 
L 383.919786 204.094772 
L 385.909091 209.014987 
L 387.898396 214.382352 
L 389.887701 220.150333 
L 393.86631 232.684356 
L 397.84492 246.180727 
L 401.823529 260.168433 
L 429.673797 263.515034 
L 431.663102 178.14113 
L 433.652406 179.139999 
L 435.641711 181.635038 
L 437.631016 185.586595 
L 439.620321 190.929357 
L 441.609626 197.573505 
L 443.59893 205.406298 
L 445.588235 214.294057 
L 447.57754 224.084521 
L 451.55615 245.688003 
L 461.502674 302.552923 
L 463.491979 312.843564 
L 465.481283 322.339964 
L 467.470588 330.879239 
L 469.459893 338.315386 
L 471.449198 344.52185 
L 473.438503 349.393757 
L 475.427807 352.849764 
L 477.417112 354.833487 
L 479.406417 355.314501 
L 481.395722 354.288871 
L 483.385027 351.779226 
L 485.374332 347.834356 
L 487.363636 342.528352 
L 489.352941 335.959305 
L 491.342246 328.247572 
L 493.331551 319.533659 
L 495.320856 309.975742 
L 499.299465 289.031965 
L 503.278075 266.923016 
L 505.26738 273.193063 
L 527.149733 276.140353 
L 556.989305 207.420095 
L 558.97861 207.697883 
L 588.818182 284.74819 
L 622.636364 289.634562 
L 622.636364 289.634562 
" clip-path="url(#pe14fddbb82)" style="fill: none; stroke: #dd8452; stroke-width: 3; stroke-linecap: round"/>
   </g>
   <g id="line2d_14">
    <path d="M 115.363636 226.955195 
L 123.320856 226.585993 
L 181.010695 173.759561 
L 183 223.973482 
L 220.796791 222.481829 
L 222.786096 170.797405 
L 226.764706 170.737566 
L 230.743316 170.85535 
L 234.721925 171.149873 
L 238.700535 171.619657 
L 242.679144 172.262627 
L 246.657754 173.076124 
L 250.636364 174.056913 
L 254.614973 175.201193 
L 258.593583 176.504611 
L 264.561497 178.747279 
L 270.529412 181.318199 
L 276.497326 184.196196 
L 278.486631 220.492923 
L 320.262032 219.299294 
L 322.251337 133.924378 
L 369.994652 218.183525 
L 407.791444 217.579547 
L 421.716578 217.41393 
L 455.534759 139.998183 
L 457.524064 139.988573 
L 491.342246 217.081934 
L 519.192513 217.196289 
L 521.181818 180.999298 
L 555 181.355683 
L 586.828877 181.90627 
L 598.764706 182.168628 
L 600.754011 218.426251 
L 622.636364 218.998655 
L 622.636364 218.998655 
" clip-path="url(#pe14fddbb82)" style="fill: none; stroke: #55a868; stroke-width: 3; stroke-linecap: round"/>
   </g>
   <g id="line2d_15">
    <path d="M 115.363636 255.498287 
L 139.235294 256.521066 
L 141.224599 164.516697 
L 143.213904 165.454272 
L 145.203209 168.091218 
L 147.192513 172.379847 
L 149.181818 178.241671 
L 151.171123 185.568866 
L 153.160428 194.226283 
L 155.149733 204.053966 
L 157.139037 214.870131 
L 161.117647 238.652313 
L 169.074866 288.512549 
L 171.064171 300.10759 
L 173.053476 310.911352 
L 175.042781 320.723705 
L 177.032086 329.362978 
L 179.02139 336.669342 
L 181.010695 342.507794 
L 183 346.770667 
L 184.989305 349.379639 
L 186.97861 350.287195 
L 188.967914 349.477507 
L 190.957219 346.966733 
L 192.946524 342.802714 
L 194.935829 337.064082 
L 196.925134 329.858796 
L 198.914439 321.322127 
L 200.903743 311.61414 
L 202.893048 300.916707 
L 206.871658 277.369359 
L 208.860963 258.778404 
L 234.721925 259.274062 
L 236.71123 259.303263 
L 264.561497 192.832099 
L 266.550802 192.840224 
L 294.40107 259.52791 
L 316.283422 259.265948 
L 330.208556 258.989154 
L 332.197861 157.161453 
L 354.080214 156.522216 
L 375.962567 155.644931 
L 395.855615 154.628717 
L 397.84492 154.515204 
L 399.834225 256.180382 
L 419.727273 254.899539 
L 427.684492 254.32273 
L 433.652406 233.690883 
L 437.631016 220.786891 
L 439.620321 214.774845 
L 441.609626 209.132217 
L 443.59893 203.911752 
L 445.588235 199.162107 
L 447.57754 194.927382 
L 449.566845 191.246693 
L 451.55615 188.153796 
L 453.545455 185.676766 
L 455.534759 183.837717 
L 457.524064 182.652601 
L 459.513369 182.131042 
L 461.502674 182.276254 
L 463.491979 183.085002 
L 465.481283 184.547639 
L 467.470588 186.648193 
L 469.459893 189.364527 
L 471.449198 192.668545 
L 473.438503 196.526469 
L 475.427807 200.899162 
L 477.417112 205.742502 
L 479.406417 211.00781 
L 483.385027 222.58968 
L 487.363636 235.182938 
L 491.342246 248.286476 
L 509.245989 246.10344 
L 523.171123 244.248521 
L 545.053476 216.833666 
L 566.935829 189.055152 
L 588.818182 160.898588 
L 600.754011 145.375971 
L 602.743316 230.823874 
L 618.657754 227.523837 
L 622.636364 226.664989 
L 622.636364 226.664989 
" clip-path="url(#pe14fddbb82)" style="fill: none; stroke: #c44e52; stroke-width: 3; stroke-linecap: round"/>
   </g>
   <g id="line2d_16">
    <path d="M 115.363636 248.127304 
L 147.192513 247.528844 
L 163.106952 247.139526 
L 165.096257 210.802672 
L 192.946524 209.944722 
L 220.796791 208.859519 
L 246.657754 207.627691 
L 254.614973 207.202219 
L 256.604278 186.642553 
L 260.582888 186.499135 
L 264.561497 186.511121 
L 268.540107 186.677754 
L 272.518717 186.997819 
L 276.497326 187.469649 
L 282.465241 188.457201 
L 288.433155 189.772351 
L 294.40107 191.403908 
L 300.368984 193.338564 
L 306.336898 195.560978 
L 312.304813 198.053876 
L 318.272727 200.798156 
L 324.240642 203.773011 
L 330.208556 206.956059 
L 338.165775 211.482634 
L 342.144385 213.850202 
L 344.13369 236.996921 
L 348.112299 236.62907 
L 371.983957 217.631876 
L 395.855615 198.356114 
L 419.727273 178.786903 
L 423.705882 175.495793 
L 425.695187 227.907052 
L 439.620321 226.007461 
L 471.449198 146.437421 
L 477.417112 131.451697 
L 479.406417 131.127532 
L 509.245989 196.109988 
L 517.203209 213.343753 
L 529.139037 211.062253 
L 531.128342 128.721901 
L 555 164.818093 
L 578.871658 200.521632 
L 596.775401 196.301029 
L 614.679144 191.84491 
L 622.636364 189.787173 
L 622.636364 189.787173 
" clip-path="url(#pe14fddbb82)" style="fill: none; stroke: #8172b3; stroke-width: 3; stroke-linecap: round"/>
   </g>
   <g id="line2d_17">
    <path d="M 115.363636 209.199576 
L 159.128342 209.926446 
L 165.096257 210.041266 
L 171.064171 194.257769 
L 175.042781 184.274631 
L 179.02139 175.081829 
L 181.010695 170.871032 
L 183 166.96113 
L 184.989305 163.382192 
L 186.97861 160.161771 
L 188.967914 157.324696 
L 190.957219 154.892879 
L 192.946524 152.88515 
L 194.935829 151.317115 
L 196.925134 150.201035 
L 198.914439 149.545735 
L 200.903743 149.356534 
L 202.893048 149.635206 
L 204.882353 150.379967 
L 206.871658 151.585488 
L 208.860963 153.242934 
L 210.850267 155.340035 
L 212.839572 157.861174 
L 214.828877 160.787512 
L 216.818182 164.097125 
L 218.807487 167.765177 
L 220.796791 171.764103 
L 222.786096 176.063823 
L 226.764706 185.434137 
L 230.743316 195.594268 
L 236.71123 211.642114 
L 256.604278 212.141193 
L 284.454545 141.055393 
L 286.44385 141.107665 
L 314.294118 213.652029 
L 346.122995 214.493228 
L 348.112299 150.043424 
L 352.090909 150.308485 
L 356.069519 150.894573 
L 360.048128 151.799237 
L 364.026738 153.018435 
L 368.005348 154.546548 
L 371.983957 156.376414 
L 375.962567 158.499361 
L 379.941176 160.905249 
L 383.919786 163.582521 
L 387.898396 166.518263 
L 391.877005 169.698265 
L 395.855615 173.107093 
L 399.834225 176.728167 
L 405.802139 182.518871 
L 411.770053 188.683625 
L 417.737968 195.154633 
L 425.695187 204.135467 
L 429.673797 208.72769 
L 431.663102 216.595968 
L 439.620321 216.770056 
L 495.320856 175.683941 
L 523.171123 155.014671 
L 525.160428 218.259587 
L 529.139037 218.308208 
L 531.128342 165.401662 
L 570.914439 165.7514 
L 606.721925 165.847975 
L 608.71123 218.776719 
L 622.636364 218.746676 
L 622.636364 218.746676 
" clip-path="url(#pe14fddbb82)" style="fill: none; stroke: #937860; stroke-width: 3; stroke-linecap: round"/>
   </g>
   <g id="line2d_18">
    <path d="M 115.363636 210.39023 
L 143.213904 211.015159 
L 149.181818 190.925937 
L 153.160428 178.350107 
L 155.149733 172.48217 
L 157.139037 166.966606 
L 159.128342 161.853848 
L 161.117647 157.190686 
L 163.106952 153.019843 
L 165.096257 149.37959 
L 167.085561 146.303399 
L 169.074866 143.819639 
L 171.064171 141.951319 
L 173.053476 140.715881 
L 175.042781 140.125042 
L 177.032086 140.184686 
L 179.02139 140.894811 
L 181.010695 142.249531 
L 183 144.237128 
L 184.989305 146.840159 
L 186.97861 150.03561 
L 188.967914 153.795112 
L 190.957219 158.08519 
L 192.946524 162.867571 
L 194.935829 168.09953 
L 196.925134 173.734274 
L 200.903743 186.007199 
L 204.882353 199.247588 
L 208.860963 212.981806 
L 238.700535 214.096971 
L 284.454545 137.033834 
L 286.44385 216.156914 
L 326.229947 218.123526 
L 332.197861 218.437546 
L 334.187166 158.718735 
L 336.176471 159.1977 
L 338.165775 160.417891 
L 340.15508 162.365437 
L 342.144385 165.01741 
L 344.13369 168.342115 
L 346.122995 172.29948 
L 348.112299 176.841559 
L 350.101604 181.913127 
L 352.090909 187.45237 
L 356.069519 199.658368 
L 360.048128 212.864228 
L 368.005348 239.678441 
L 371.983957 251.977331 
L 373.973262 257.578798 
L 375.962567 262.722208 
L 377.951872 267.344939 
L 379.941176 271.390858 
L 381.930481 274.811029 
L 383.919786 277.564315 
L 385.909091 279.617895 
L 387.898396 280.947672 
L 389.887701 281.538574 
L 391.877005 281.384738 
L 393.86631 280.489588 
L 395.855615 278.86579 
L 397.84492 276.535092 
L 399.834225 273.528059 
L 401.823529 269.883685 
L 403.812834 265.648912 
L 405.802139 260.878045 
L 407.791444 255.632073 
L 409.780749 249.97791 
L 413.759358 237.737231 
L 425.695187 199.325127 
L 427.684492 224.106164 
L 429.673797 224.236706 
L 461.502674 153.947351 
L 463.491979 154.086083 
L 495.320856 228.81328 
L 523.171123 230.906842 
L 525.160428 124.872482 
L 570.914439 128.507762 
L 588.818182 129.990718 
L 590.807487 236.34477 
L 622.636364 239.068047 
L 622.636364 239.068047 
" clip-path="url(#pe14fddbb82)" style="fill: none; stroke: #da8bc3; stroke-width: 3; stroke-linecap: round"/>
   </g>
   <g id="line2d_19">
    <path d="M 115.363636 234.131282 
L 153.160428 234.614181 
L 208.860963 178.282299 
L 210.850267 235.6125 
L 244.668449 236.401621 
L 246.657754 152.958085 
L 288.433155 194.066701 
L 326.229947 231.566854 
L 334.187166 239.503293 
L 340.15508 239.772866 
L 371.983957 173.328208 
L 373.973262 173.436736 
L 405.802139 243.364372 
L 431.663102 245.127353 
L 433.652406 245.271857 
L 439.620321 227.2059 
L 443.59893 215.793993 
L 447.57754 205.305658 
L 449.566845 200.511712 
L 451.55615 196.068935 
L 453.545455 192.012337 
L 455.534759 188.373999 
L 457.524064 185.18283 
L 459.513369 182.464344 
L 461.502674 180.240472 
L 463.491979 178.529388 
L 465.481283 177.345375 
L 467.470588 176.698715 
L 469.459893 176.595613 
L 471.449198 177.038146 
L 473.438503 178.02425 
L 475.427807 179.547734 
L 477.417112 181.59833 
L 479.406417 184.161768 
L 481.395722 187.219887 
L 483.385027 190.750771 
L 485.374332 194.728917 
L 487.363636 199.125432 
L 489.352941 203.908246 
L 491.342246 209.042365 
L 495.320856 220.211504 
L 499.299465 232.304915 
L 505.26738 251.394681 
L 525.160428 253.437717 
L 527.149733 140.797099 
L 551.02139 143.482268 
L 572.903743 146.15864 
L 582.850267 147.445665 
L 584.839572 260.562159 
L 606.721925 263.574384 
L 622.636364 265.908253 
L 622.636364 265.908253 
" clip-path="url(#pe14fddbb82)" style="fill: none; stroke: #8c8c8c; stroke-width: 3; stroke-linecap: round"/>
   </g>
   <g id="line2d_20">
    <path d="M 115.363636 211.328795 
L 129.28877 210.658651 
L 131.278075 124.250088 
L 190.957219 189.31108 
L 206.871658 206.590051 
L 228.754011 205.303137 
L 276.497326 127.832596 
L 280.475936 121.356789 
L 282.465241 201.791955 
L 314.294118 199.431489 
L 326.229947 198.485071 
L 332.197861 169.046396 
L 336.176471 150.450611 
L 340.15508 133.368355 
L 342.144385 125.565398 
L 344.13369 118.337888 
L 346.122995 111.742646 
L 348.112299 105.831393 
L 350.101604 100.650336 
L 352.090909 96.239793 
L 354.080214 92.63387 
L 356.069519 89.860186 
L 358.058824 87.939651 
L 360.048128 86.886295 
L 362.037433 86.707161 
L 364.026738 87.40224 
L 366.016043 88.964478 
L 368.005348 91.37983 
L 369.994652 94.627371 
L 371.983957 98.67947 
L 373.973262 103.502005 
L 375.962567 109.054645 
L 377.951872 115.291168 
L 379.941176 122.159841 
L 381.930481 129.603826 
L 385.909091 145.967684 
L 389.887701 163.844368 
L 395.855615 192.202831 
L 421.716578 189.498887 
L 423.705882 76.539856 
L 449.566845 73.593149 
L 473.438503 70.659168 
L 497.31016 67.507337 
L 501.28877 66.96 
L 503.278075 179.425837 
L 521.181818 176.867444 
L 553.010695 81.7802 
L 555 81.459766 
L 586.828877 166.282601 
L 608.71123 162.303843 
L 622.636364 159.647116 
L 622.636364 159.647116 
" clip-path="url(#pe14fddbb82)" style="fill: none; stroke: #ccb974; stroke-width: 3; stroke-linecap: round"/>
   </g>
   <g id="line2d_21">
    <path d="M 115.363636 264.818135 
L 145.203209 264.843656 
L 147.192513 264.853139 
L 149.181818 160.874531 
L 151.171123 161.849586 
L 153.160428 164.735004 
L 155.149733 169.477538 
L 157.139037 175.989543 
L 159.128342 184.150598 
L 161.117647 193.809737 
L 163.106952 204.788249 
L 165.096257 216.882988 
L 169.074866 243.509371 
L 177.032086 299.457117 
L 179.02139 312.495334 
L 181.010695 324.656848 
L 183 335.716754 
L 184.989305 345.470578 
L 186.97861 353.738073 
L 188.967914 360.366556 
L 190.957219 365.233737 
L 192.946524 368.249987 
L 194.935829 369.36 
L 196.925134 368.543816 
L 198.914439 365.817193 
L 200.903743 361.231311 
L 202.893048 265.516187 
L 232.73262 266.189285 
L 244.668449 266.521083 
L 250.636364 241.772683 
L 254.614973 226.491045 
L 256.604278 219.473371 
L 258.593583 212.97619 
L 260.582888 207.071397 
L 262.572193 201.824406 
L 264.561497 197.293437 
L 266.550802 193.528876 
L 268.540107 190.572721 
L 270.529412 188.458125 
L 272.518717 187.209034 
L 274.508021 186.839919 
L 276.497326 187.355621 
L 278.486631 188.751301 
L 280.475936 191.012486 
L 282.465241 194.115234 
L 284.454545 198.026392 
L 286.44385 202.703961 
L 288.433155 208.097558 
L 290.42246 214.148964 
L 292.411765 220.792764 
L 294.40107 227.957066 
L 298.379679 243.531987 
L 304.347594 268.720393 
L 334.187166 270.160309 
L 338.165775 270.369555 
L 340.15508 197.758732 
L 373.973262 230.624183 
L 407.791444 263.786156 
L 419.727273 275.561589 
L 435.641711 276.776821 
L 471.449198 236.238924 
L 499.299465 204.944045 
L 501.28877 282.495635 
L 531.128342 285.473786 
L 562.957219 199.915338 
L 564.946524 200.139397 
L 596.775401 292.868379 
L 622.636364 296.10224 
L 622.636364 296.10224 
" clip-path="url(#pe14fddbb82)" style="fill: none; stroke: #64b5cd; stroke-width: 3; stroke-linecap: round"/>
   </g>
   <g id="line2d_22">
    <path d="M 115.363636 209.270979 
L 151.171123 208.606787 
L 157.139037 208.471312 
L 159.128342 137.876287 
L 161.117647 138.713301 
L 163.106952 141.29676 
L 165.096257 145.560636 
L 167.085561 151.396729 
L 169.074866 158.65738 
L 171.064171 167.159177 
L 173.053476 176.687554 
L 177.032086 197.842947 
L 183 230.764353 
L 184.989305 240.948106 
L 186.97861 250.297719 
L 188.967914 258.577168 
L 190.957219 265.577243 
L 192.946524 271.120801 
L 194.935829 275.067205 
L 196.925134 277.315853 
L 198.914439 277.808698 
L 200.903743 276.531711 
L 202.893048 273.515225 
L 204.882353 268.833176 
L 206.871658 262.601253 
L 208.860963 254.973987 
L 210.850267 246.140884 
L 212.839572 236.321667 
L 216.818182 214.721173 
L 218.807487 203.47788 
L 220.796791 206.490087 
L 248.647059 205.264142 
L 252.625668 205.068684 
L 278.486631 146.538982 
L 280.475936 146.421119 
L 306.336898 201.878464 
L 330.208556 200.099998 
L 346.122995 198.778954 
L 373.973262 163.248541 
L 401.823529 127.342161 
L 419.727273 104.048608 
L 421.716578 190.861305 
L 437.631016 188.816567 
L 439.620321 87.491453 
L 459.513369 84.711649 
L 479.406417 81.698434 
L 499.299465 78.442138 
L 517.203209 75.295641 
L 529.139037 73.080756 
L 531.128342 173.761909 
L 533.117647 173.380782 
L 539.085561 155.028219 
L 543.064171 143.39425 
L 547.042781 132.650558 
L 549.032086 127.713862 
L 551.02139 123.116743 
L 553.010695 118.892939 
L 555 115.07316 
L 556.989305 111.684839 
L 558.97861 108.751912 
L 560.967914 106.29463 
L 562.957219 104.329386 
L 564.946524 102.868592 
L 566.935829 101.920576 
L 568.925134 101.489513 
L 570.914439 101.575393 
L 572.903743 102.174022 
L 574.893048 103.277053 
L 576.882353 104.872055 
L 578.871658 106.942614 
L 580.860963 109.468461 
L 582.850267 112.42564 
L 584.839572 115.786698 
L 586.828877 119.520908 
L 588.818182 123.594511 
L 592.796791 132.611388 
L 596.775401 142.517574 
L 602.743316 158.276311 
L 620.647059 153.808863 
L 622.636364 153.297021 
L 622.636364 153.297021 
" clip-path="url(#pe14fddbb82)" style="fill: none; stroke: #4c72b0; stroke-width: 3; stroke-linecap: round"/>
   </g>
   <g id="line2d_23">
    <path d="M 115.363636 231.81895 
L 145.203209 233.905139 
L 147.192513 157.586059 
L 184.989305 198.761306 
L 222.786096 240.268402 
L 242.679144 242.130435 
L 248.647059 224.889265 
L 252.625668 213.913333 
L 256.604278 203.697262 
L 258.593583 198.961018 
L 260.582888 194.515868 
L 262.572193 190.391937 
L 264.561497 186.617273 
L 266.550802 183.217666 
L 268.540107 180.21648 
L 270.529412 177.634501 
L 272.518717 175.489803 
L 274.508021 173.797631 
L 276.497326 172.570303 
L 278.486631 171.817126 
L 280.475936 171.544342 
L 282.465241 171.755082 
L 284.454545 172.449347 
L 286.44385 173.624012 
L 288.433155 175.272839 
L 290.42246 177.386526 
L 292.411765 179.95276 
L 294.40107 182.9563 
L 296.390374 186.379077 
L 298.379679 190.200309 
L 300.368984 194.396637 
L 302.358289 198.942274 
L 306.336898 208.96723 
L 310.315508 220.027091 
L 314.294118 231.847077 
L 320.262032 250.354903 
L 338.165775 252.479966 
L 373.973262 202.09975 
L 375.962567 202.361406 
L 411.770053 262.166045 
L 431.663102 265.056161 
L 433.652406 162.850421 
L 461.502674 167.116067 
L 487.363636 171.293811 
L 503.278075 173.970726 
L 505.26738 276.812417 
L 527.149733 280.641852 
L 529.139037 244.808285 
L 531.128342 245.681023 
L 533.117647 247.571336 
L 535.106952 250.435592 
L 537.096257 254.20245 
L 539.085561 258.774896 
L 541.074866 264.033001 
L 543.064171 269.837346 
L 547.042781 282.453862 
L 551.02139 295.280143 
L 553.010695 301.341235 
L 555 306.948757 
L 556.989305 311.953597 
L 558.97861 316.223855 
L 560.967914 319.648591 
L 562.957219 322.140993 
L 564.946524 323.640847 
L 566.935829 324.116252 
L 568.925134 323.564528 
L 570.914439 322.012296 
L 572.903743 319.514717 
L 574.893048 316.153922 
L 576.882353 312.036669 
L 578.871658 307.291307 
L 580.860963 302.064115 
L 586.828877 285.133229 
L 588.818182 292.297391 
L 614.679144 297.576503 
L 622.636364 299.248603 
L 622.636364 299.248603 
" clip-path="url(#pe14fddbb82)" style="fill: none; stroke: #dd8452; stroke-width: 3; stroke-linecap: round"/>
   </g>
   <g id="line2d_24">
    <path d="M 115.363636 235.290607 
L 143.213904 236.901889 
L 145.203209 211.829867 
L 200.903743 214.8672 
L 206.871658 215.180398 
L 208.860963 240.469009 
L 240.68984 242.101752 
L 248.647059 227.550471 
L 252.625668 220.712809 
L 256.604278 214.389805 
L 260.582888 208.734328 
L 262.572193 206.200493 
L 264.561497 203.883587 
L 266.550802 201.797786 
L 268.540107 199.95591 
L 270.529412 198.369344 
L 272.518717 197.047976 
L 274.508021 196.000136 
L 276.497326 195.232546 
L 278.486631 194.750286 
L 280.475936 194.556759 
L 282.465241 194.653672 
L 284.454545 195.041027 
L 286.44385 195.717123 
L 288.433155 196.67856 
L 290.42246 197.920265 
L 292.411765 199.435519 
L 294.40107 201.215998 
L 296.390374 203.251818 
L 298.379679 205.531599 
L 300.368984 208.042527 
L 302.358289 210.770431 
L 306.336898 216.814201 
L 310.315508 223.525741 
L 314.294118 230.75222 
L 320.262032 242.194347 
L 322.251337 246.082132 
L 336.176471 246.741132 
L 373.973262 177.571268 
L 375.962567 177.664056 
L 413.759358 250.365858 
L 431.663102 251.200648 
L 485.374332 168.114579 
L 487.363636 253.825528 
L 525.160428 255.650813 
L 527.149733 148.907131 
L 574.893048 258.138831 
L 622.636364 260.651912 
L 622.636364 260.651912 
" clip-path="url(#pe14fddbb82)" style="fill: none; stroke: #55a868; stroke-width: 3; stroke-linecap: round"/>
   </g>
   <g id="line2d_25">
    <path d="M 115.363636 240.132678 
L 145.203209 240.324418 
L 149.181818 240.366587 
L 186.97861 194.345299 
L 218.807487 155.849983 
L 220.796791 241.76883 
L 242.679144 242.431681 
L 244.668449 174.979137 
L 280.475936 203.311286 
L 318.272727 233.508178 
L 334.187166 246.308654 
L 340.15508 246.620428 
L 346.122995 227.619801 
L 350.101604 215.896068 
L 352.090909 210.51712 
L 354.080214 205.541539 
L 356.069519 201.025041 
L 358.058824 197.018322 
L 360.048128 193.5665 
L 362.037433 190.708622 
L 364.026738 188.477235 
L 366.016043 186.898031 
L 368.005348 185.989565 
L 369.994652 185.76305 
L 371.983957 186.222237 
L 373.973262 187.36337 
L 375.962567 189.175233 
L 377.951872 191.639267 
L 379.941176 194.729776 
L 381.930481 198.414208 
L 383.919786 202.653512 
L 385.909091 207.402566 
L 387.898396 212.61067 
L 389.887701 218.222105 
L 393.86631 230.410683 
L 399.834225 250.108197 
L 435.641711 252.508676 
L 473.438503 166.24984 
L 475.427807 166.401937 
L 513.224599 258.43535 
L 529.139037 259.765429 
L 531.128342 181.214714 
L 535.106952 181.636062 
L 539.085561 182.223393 
L 543.064171 182.976178 
L 547.042781 183.89355 
L 551.02139 184.974303 
L 555 186.216895 
L 558.97861 187.619453 
L 564.946524 190.018319 
L 570.914439 192.763283 
L 576.882353 195.843952 
L 582.850267 199.248383 
L 588.818182 202.96314 
L 594.786096 206.973355 
L 600.754011 211.262795 
L 606.721925 215.813944 
L 608.71123 217.385948 
L 610.700535 267.132409 
L 622.636364 268.282431 
L 622.636364 268.282431 
" clip-path="url(#pe14fddbb82)" style="fill: none; stroke: #c44e52; stroke-width: 3; stroke-linecap: round"/>
   </g>
   <g id="line2d_26">
    <path d="M 115.363636 216.432408 
L 161.117647 217.378335 
L 208.860963 186.720359 
L 246.657754 162.690764 
L 248.647059 219.821418 
L 250.636364 219.891966 
L 252.625668 163.236684 
L 254.614973 163.936369 
L 256.604278 165.877962 
L 258.593583 169.020138 
L 260.582888 173.295029 
L 262.572193 178.609729 
L 264.561497 184.848347 
L 266.550802 191.874574 
L 268.540107 199.534695 
L 272.518717 216.07546 
L 278.486631 241.196974 
L 280.475936 248.91832 
L 282.465241 256.024253 
L 284.454545 262.359466 
L 286.44385 267.78572 
L 288.433155 272.18491 
L 290.42246 275.461674 
L 292.411765 277.545504 
L 294.40107 278.392303 
L 296.390374 277.985368 
L 298.379679 276.335751 
L 300.368984 273.482023 
L 302.358289 269.489414 
L 304.347594 264.448373 
L 306.336898 258.472571 
L 308.326203 251.696378 
L 310.315508 222.440864 
L 338.165775 223.9653 
L 342.144385 224.203051 
L 344.13369 91.858062 
L 369.994652 93.553065 
L 393.86631 95.33591 
L 395.855615 95.494529 
L 397.84492 228.120568 
L 421.716578 230.171339 
L 435.641711 231.481586 
L 441.609626 213.707082 
L 445.588235 202.759612 
L 447.57754 197.746591 
L 449.566845 193.11812 
L 451.55615 188.927169 
L 453.545455 185.221937 
L 455.534759 182.04532 
L 457.524064 179.434445 
L 459.513369 177.420261 
L 461.502674 176.0272 
L 463.491979 175.272909 
L 465.481283 175.168062 
L 467.470588 175.716233 
L 469.459893 176.913868 
L 471.449198 178.750317 
L 473.438503 181.207951 
L 475.427807 184.26236 
L 477.417112 187.882615 
L 479.406417 192.031612 
L 481.395722 196.666475 
L 483.385027 201.739026 
L 485.374332 207.196316 
L 489.352941 219.032973 
L 495.320856 238.1432 
L 515.213904 240.77366 
L 525.160428 242.171653 
L 527.149733 157.444907 
L 551.02139 187.909241 
L 574.893048 218.721112 
L 598.764706 249.898658 
L 602.743316 255.13174 
L 620.647059 258.680109 
L 622.636364 259.088137 
L 622.636364 259.088137 
" clip-path="url(#pe14fddbb82)" style="fill: none; stroke: #8172b3; stroke-width: 3; stroke-linecap: round"/>
   </g>
   <g id="line2d_27">
    <path d="M 115.363636 252.063563 
L 153.160428 251.878487 
L 155.149733 176.272848 
L 214.828877 232.378255 
L 234.721925 251.024871 
L 246.657754 250.864917 
L 248.647059 216.820487 
L 314.294118 215.873185 
L 316.283422 249.861292 
L 342.144385 249.488678 
L 346.122995 231.238469 
L 350.101604 214.131965 
L 352.090909 206.347119 
L 354.080214 199.24059 
L 356.069519 192.924026 
L 358.058824 187.496618 
L 360.048128 183.043539 
L 362.037433 179.634596 
L 364.026738 177.323135 
L 366.016043 176.145193 
L 368.005348 176.118937 
L 369.994652 177.244371 
L 371.983957 179.503342 
L 373.973262 182.859822 
L 375.962567 187.260477 
L 377.951872 192.635509 
L 379.941176 198.899758 
L 381.930481 205.954043 
L 383.919786 213.686728 
L 387.898396 230.689201 
L 391.877005 248.835841 
L 433.652406 248.404431 
L 435.641711 188.525003 
L 439.620321 188.626763 
L 443.59893 188.998462 
L 447.57754 189.638335 
L 451.55615 190.543415 
L 455.534759 191.709553 
L 459.513369 193.131435 
L 463.491979 194.802603 
L 467.470588 196.715488 
L 471.449198 198.861442 
L 475.427807 201.230779 
L 479.406417 203.812818 
L 483.385027 206.595927 
L 489.352941 211.119973 
L 493.331551 214.349151 
L 495.320856 248.076407 
L 529.139037 248.104389 
L 556.989305 174.802306 
L 558.97861 174.81872 
L 586.828877 248.585969 
L 618.657754 249.126692 
L 622.636364 249.209583 
L 622.636364 249.209583 
" clip-path="url(#pe14fddbb82)" style="fill: none; stroke: #937860; stroke-width: 3; stroke-linecap: round"/>
   </g>
   <g id="line2d_28">
    <path d="M 115.363636 221.850515 
L 147.192513 221.080646 
L 171.064171 220.353598 
L 173.053476 161.547964 
L 175.042781 161.936153 
L 177.032086 163.228327 
L 179.02139 165.403344 
L 181.010695 168.42634 
L 183 172.249266 
L 184.989305 176.811638 
L 186.97861 182.041473 
L 188.967914 187.856407 
L 190.957219 194.164976 
L 194.935829 207.860293 
L 202.893048 236.493906 
L 206.871658 249.640506 
L 208.860963 255.548496 
L 210.850267 260.886376 
L 212.839572 265.569903 
L 214.828877 269.524975 
L 216.818182 272.688784 
L 218.807487 275.010791 
L 220.796791 276.453509 
L 222.786096 276.993086 
L 224.775401 276.619677 
L 226.764706 275.337593 
L 228.754011 273.165238 
L 230.743316 270.134818 
L 232.73262 266.291848 
L 234.721925 261.694438 
L 236.71123 256.412395 
L 238.700535 217.475994 
L 262.572193 216.131817 
L 268.540107 195.829934 
L 272.518717 183.043776 
L 276.497326 171.357921 
L 278.486631 166.051067 
L 280.475936 161.16154 
L 282.465241 156.729925 
L 284.454545 152.792891 
L 286.44385 149.382874 
L 288.433155 146.527802 
L 290.42246 144.250855 
L 292.411765 142.570272 
L 294.40107 141.499186 
L 296.390374 141.045524 
L 298.379679 141.211928 
L 300.368984 141.995739 
L 302.358289 143.38902 
L 304.347594 145.378617 
L 306.336898 147.946281 
L 308.326203 151.068815 
L 310.315508 154.718275 
L 312.304813 158.862212 
L 314.294118 163.463942 
L 316.283422 168.482863 
L 318.272727 173.874801 
L 322.251337 185.58546 
L 326.229947 198.186053 
L 330.208556 211.236194 
L 350.101604 209.4597 
L 352.090909 139.159665 
L 377.951872 162.619983 
L 403.812834 185.781212 
L 421.716578 201.632051 
L 439.620321 199.297043 
L 441.609626 97.081144 
L 461.502674 94.275833 
L 481.395722 91.262082 
L 501.28877 88.032401 
L 513.224599 85.987829 
L 515.213904 187.585678 
L 531.128342 184.713165 
L 555 138.792721 
L 556.989305 138.394433 
L 580.860963 174.75108 
L 598.764706 170.783159 
L 616.668449 166.604531 
L 622.636364 165.163888 
L 622.636364 165.163888 
" clip-path="url(#pe14fddbb82)" style="fill: none; stroke: #da8bc3; stroke-width: 3; stroke-linecap: round"/>
   </g>
   <g id="line2d_29">
    <path d="M 115.363636 264.356208 
L 159.128342 262.643677 
L 161.117647 191.861091 
L 220.796791 241.47898 
L 242.679144 259.758333 
L 250.636364 259.520971 
L 252.625668 237.164677 
L 292.411765 236.114777 
L 328.219251 235.376648 
L 330.208556 257.640225 
L 342.144385 257.447696 
L 344.13369 190.564738 
L 346.122995 190.803993 
L 348.112299 191.577913 
L 350.101604 192.880074 
L 352.090909 194.699821 
L 354.080214 197.022354 
L 356.069519 199.828851 
L 358.058824 203.096611 
L 360.048128 206.799245 
L 362.037433 210.90688 
L 364.026738 215.386404 
L 366.016043 220.201728 
L 369.994652 230.682303 
L 373.973262 242.011902 
L 387.898396 282.993234 
L 391.877005 293.528727 
L 393.86631 298.378435 
L 395.855615 302.896725 
L 397.84492 307.047307 
L 399.834225 310.796843 
L 401.823529 314.115222 
L 403.812834 316.975794 
L 405.802139 319.355589 
L 407.791444 321.2355 
L 409.780749 322.600433 
L 411.770053 256.893913 
L 435.641711 256.954422 
L 467.470588 196.724001 
L 469.459893 196.751985 
L 501.28877 257.885883 
L 527.149733 258.5918 
L 558.97861 226.668834 
L 588.818182 197.048544 
L 600.754011 185.2879 
L 602.743316 261.898812 
L 622.636364 263.103161 
L 622.636364 263.103161 
" clip-path="url(#pe14fddbb82)" style="fill: none; stroke: #8c8c8c; stroke-width: 3; stroke-linecap: round"/>
   </g>
   <g id="line2d_30">
    <path d="M 115.363636 275.78045 
L 163.106952 273.426384 
L 171.064171 250.290973 
L 175.042781 239.39166 
L 179.02139 229.276622 
L 183 220.178362 
L 184.989305 216.076802 
L 186.97861 212.305548 
L 188.967914 208.886158 
L 190.957219 205.838122 
L 192.946524 203.178753 
L 194.935829 200.923079 
L 196.925134 199.083762 
L 198.914439 197.671019 
L 200.903743 196.692561 
L 202.893048 196.153552 
L 204.882353 196.056576 
L 206.871658 196.401621 
L 208.860963 197.186081 
L 210.850267 198.404769 
L 212.839572 200.049951 
L 214.828877 202.111387 
L 216.818182 204.576393 
L 218.807487 207.429917 
L 220.796791 210.654624 
L 222.786096 214.231001 
L 224.775401 218.137468 
L 226.764706 222.350507 
L 230.743316 231.593374 
L 234.721925 241.738185 
L 238.700535 252.542353 
L 244.668449 269.417607 
L 252.625668 269.003745 
L 254.614973 159.233772 
L 294.40107 157.033244 
L 326.229947 155.081669 
L 328.219251 264.618295 
L 344.13369 263.555419 
L 346.122995 194.104201 
L 348.112299 195.283782 
L 350.101604 199.047552 
L 352.090909 205.247117 
L 354.080214 213.64144 
L 356.069519 223.906 
L 358.058824 235.645133 
L 362.037433 261.701133 
L 366.016043 287.840909 
L 368.005348 299.681625 
L 369.994652 310.082666 
L 371.983957 318.642894 
L 373.973262 325.031118 
L 375.962567 328.99868 
L 377.951872 330.388911 
L 379.941176 329.143087 
L 381.930481 325.302661 
L 383.919786 319.007685 
L 385.909091 310.491489 
L 387.898396 300.071803 
L 389.887701 288.138684 
L 393.86631 261.562819 
L 395.855615 259.64461 
L 421.716578 257.382092 
L 437.631016 255.872989 
L 473.438503 186.803135 
L 475.427807 182.950328 
L 477.417112 182.724377 
L 509.245989 236.923475 
L 515.213904 247.03274 
L 529.139037 245.152376 
L 555 211.633881 
L 580.860963 177.747998 
L 590.807487 164.611834 
L 592.796791 235.233145 
L 612.68984 231.648908 
L 622.636364 229.763571 
L 622.636364 229.763571 
" clip-path="url(#pe14fddbb82)" style="fill: none; stroke: #ccb974; stroke-width: 3; stroke-linecap: round"/>
   </g>
   <g id="line2d_31">
    <path d="M 115.363636 266.125676 
L 139.235294 266.998956 
L 141.224599 199.885927 
L 192.946524 244.164029 
L 222.786096 269.572866 
L 234.721925 269.875518 
L 236.71123 240.967267 
L 278.486631 241.879667 
L 312.304813 242.456017 
L 314.294118 271.442283 
L 330.208556 271.657007 
L 332.197861 218.844637 
L 334.187166 218.933568 
L 336.176471 219.151874 
L 338.165775 219.499074 
L 340.15508 219.974368 
L 342.144385 220.576639 
L 344.13369 221.304457 
L 346.122995 222.156081 
L 350.101604 224.222256 
L 354.080214 226.755211 
L 358.058824 229.730375 
L 362.037433 233.118804 
L 366.016043 236.887467 
L 369.994652 240.999566 
L 373.973262 245.414902 
L 377.951872 250.090272 
L 383.919786 257.490134 
L 391.877005 267.822832 
L 393.86631 272.164795 
L 427.684492 272.195704 
L 433.652406 255.187001 
L 437.631016 244.488672 
L 441.609626 234.73063 
L 443.59893 230.309481 
L 445.588235 226.244692 
L 447.57754 222.570869 
L 449.566845 219.319277 
L 451.55615 216.517574 
L 453.545455 214.189574 
L 455.534759 212.355046 
L 457.524064 211.029541 
L 459.513369 210.224263 
L 461.502674 209.945973 
L 463.491979 210.196931 
L 465.481283 210.974873 
L 467.470588 212.273038 
L 469.459893 214.080218 
L 471.449198 216.380859 
L 473.438503 219.15519 
L 475.427807 222.379395 
L 477.417112 226.025812 
L 479.406417 230.063174 
L 481.395722 234.456872 
L 485.374332 244.159933 
L 489.352941 254.803154 
L 495.320856 271.728915 
L 523.171123 271.322319 
L 547.042781 197.803501 
L 549.032086 197.761429 
L 572.903743 270.269669 
L 608.71123 269.242878 
L 622.636364 268.780866 
L 622.636364 268.780866 
" clip-path="url(#pe14fddbb82)" style="fill: none; stroke: #64b5cd; stroke-width: 3; stroke-linecap: round"/>
   </g>
   <g id="patch_3">
    <path d="M 90 384.48 
L 90 51.84 
" style="fill: none; stroke: #ffffff; stroke-width: 1.25; stroke-linejoin: miter; stroke-linecap: square"/>
   </g>
   <g id="patch_4">
    <path d="M 648 384.48 
L 648 51.84 
" style="fill: none; stroke: #ffffff; stroke-width: 1.25; stroke-linejoin: miter; stroke-linecap: square"/>
   </g>
   <g id="patch_5">
    <path d="M 90 384.48 
L 648 384.48 
" style="fill: none; stroke: #ffffff; stroke-width: 1.25; stroke-linejoin: miter; stroke-linecap: square"/>
   </g>
   <g id="patch_6">
    <path d="M 90 51.84 
L 648 51.84 
" style="fill: none; stroke: #ffffff; stroke-width: 1.25; stroke-linejoin: miter; stroke-linecap: square"/>
   </g>
   <g id="text_14">
    <!-- Illustration of Stochasticity in Signal Generation -->
    <g style="fill: #262626" transform="translate(78.383939 45.84) scale(0.3 -0.3)">
     <defs>
      <path id="CMR17-49" d="M 1261 3898 
C 1261 4185 1338 4185 1798 4185 
L 1798 4352 
C 1594 4339 1267 4339 1050 4339 
C 832 4339 506 4339 301 4352 
L 301 4185 
C 762 4185 838 4185 838 3898 
L 838 453 
C 838 166 762 166 301 166 
L 301 0 
C 506 12 832 12 1050 12 
C 1267 12 1594 12 1798 0 
L 1798 166 
C 1338 166 1261 166 1261 453 
L 1261 3898 
z
" transform="scale(0.015625)"/>
      <path id="CMR17-73" d="M 1978 2688 
C 1978 2803 1971 2809 1933 2809 
C 1907 2809 1901 2803 1824 2707 
C 1805 2681 1747 2617 1728 2592 
C 1523 2809 1235 2816 1126 2816 
C 416 2816 160 2444 160 2073 
C 160 1497 813 1363 998 1324 
C 1402 1241 1542 1216 1677 1100 
C 1760 1024 1901 883 1901 652 
C 1901 384 1747 38 1158 38 
C 602 38 403 460 288 1024 
C 269 1113 269 1120 218 1120 
C 166 1120 160 1113 160 985 
L 160 64 
C 160 -52 166 -58 205 -58 
C 237 -58 243 -52 275 0 
C 314 57 410 211 448 275 
C 576 102 800 -64 1158 -64 
C 1792 -64 2131 281 2131 780 
C 2131 1107 1958 1280 1875 1356 
C 1683 1555 1459 1600 1190 1651 
C 838 1728 390 1817 390 2208 
C 390 2374 480 2726 1126 2726 
C 1811 2726 1850 2086 1862 1881 
C 1869 1849 1901 1843 1920 1843 
C 1978 1843 1978 1862 1978 1971 
L 1978 2688 
z
" transform="scale(0.015625)"/>
      <path id="CMR17-72" d="M 960 1517 
C 960 2134 1222 2713 1702 2713 
C 1747 2713 1792 2707 1837 2687 
C 1837 2687 1696 2642 1696 2475 
C 1696 2321 1818 2257 1914 2257 
C 1990 2257 2131 2302 2131 2482 
C 2131 2687 1926 2816 1709 2816 
C 1222 2816 1011 2340 947 2115 
L 941 2115 
L 941 2816 
L 198 2745 
L 198 2578 
C 576 2578 634 2540 634 2231 
L 634 443 
C 634 198 608 166 198 166 
L 198 0 
C 352 12 646 12 813 12 
C 998 12 1325 12 1498 0 
L 1498 166 
C 1037 166 960 166 960 455 
L 960 1517 
z
" transform="scale(0.015625)"/>
      <path id="CMR17-61" d="M 2304 1656 
C 2304 2048 2304 2275 2035 2534 
C 1798 2751 1523 2816 1306 2816 
C 800 2816 435 2408 435 1977 
C 435 1740 627 1728 666 1728 
C 749 1728 896 1779 896 1958 
C 896 2118 774 2188 666 2188 
C 640 2188 608 2182 589 2176 
C 723 2594 1069 2713 1293 2713 
C 1613 2713 1965 2421 1965 1875 
L 1965 1632 
C 1587 1619 1133 1568 774 1373 
C 371 1147 256 822 256 576 
C 256 77 832 -64 1171 -64 
C 1523 -64 1850 135 1990 505 
C 2003 219 2182 -39 2464 -39 
C 2598 -39 2938 51 2938 563 
L 2938 926 
L 2822 926 
L 2822 557 
C 2822 161 2650 109 2566 109 
C 2304 109 2304 446 2304 732 
L 2304 1656 
z
M 1965 887 
C 1965 323 1568 38 1216 38 
C 896 38 646 278 646 576 
C 646 771 730 1114 1101 1322 
C 1408 1497 1760 1523 1965 1536 
L 1965 887 
z
" transform="scale(0.015625)"/>
      <path id="CMR17-6f" d="M 2758 1356 
C 2758 2176 2163 2816 1466 2816 
C 768 2816 173 2176 173 1356 
C 173 550 768 -64 1466 -64 
C 2163 -64 2758 550 2758 1356 
z
M 1466 51 
C 1165 51 909 230 762 480 
C 602 768 582 1126 582 1408 
C 582 1676 595 2009 762 2297 
C 890 2508 1139 2713 1466 2713 
C 1754 2713 1997 2553 2150 2329 
C 2349 2028 2349 1606 2349 1408 
C 2349 1158 2336 774 2163 467 
C 1984 172 1709 51 1466 51 
z
" transform="scale(0.015625)"/>
      <path id="CMR17-6e" d="M 2656 1954 
C 2656 2282 2592 2816 1837 2816 
C 1331 2816 1069 2424 973 2166 
L 966 2166 
L 966 2816 
L 211 2745 
L 211 2578 
C 589 2578 646 2540 646 2231 
L 646 443 
C 646 198 621 166 211 166 
L 211 0 
C 365 12 646 12 813 12 
C 979 12 1267 12 1421 0 
L 1421 166 
C 1011 166 986 192 986 443 
L 986 1678 
C 986 2269 1344 2713 1792 2713 
C 2266 2713 2317 2289 2317 1980 
L 2317 443 
C 2317 198 2291 166 1882 166 
L 1882 0 
C 2035 12 2317 12 2483 12 
C 2650 12 2938 12 3091 0 
L 3091 166 
C 2682 166 2656 192 2656 443 
L 2656 1954 
z
" transform="scale(0.015625)"/>
      <path id="CMR17-66" d="M 979 2585 
L 1709 2585 
L 1709 2752 
L 966 2752 
L 966 3539 
C 966 4076 1235 4377 1510 4377 
C 1594 4377 1690 4363 1754 4339 
C 1702 4326 1568 4281 1568 4121 
C 1568 3955 1696 3904 1786 3904 
C 1875 3904 2003 3955 2003 4121 
C 2003 4353 1773 4480 1517 4480 
C 1152 4480 653 4211 653 3526 
L 653 2752 
L 141 2752 
L 141 2585 
L 653 2585 
L 653 441 
C 653 198 627 166 218 166 
L 218 0 
C 371 12 666 12 832 12 
C 1018 12 1344 12 1517 0 
L 1517 166 
C 1056 166 979 166 979 454 
L 979 2585 
z
" transform="scale(0.015625)"/>
      <path id="CMR17-53" d="M 2803 4351 
C 2803 4467 2797 4473 2758 4473 
C 2720 4473 2707 4447 2682 4390 
L 2490 3965 
C 2246 4320 1875 4480 1472 4480 
C 819 4480 294 3958 294 3301 
C 294 3101 339 2817 557 2546 
C 794 2250 1018 2198 1530 2063 
C 1722 2011 2042 1927 2106 1901 
C 2470 1747 2662 1360 2662 999 
C 2662 534 2336 38 1779 38 
C 1094 38 454 425 410 1328 
C 403 1431 397 1437 352 1437 
C 301 1437 294 1431 294 1302 
L 294 0 
C 294 -116 301 -122 339 -122 
C 384 -122 397 -90 486 109 
C 493 128 493 141 614 386 
C 934 -39 1472 -128 1779 -128 
C 2477 -128 2970 457 2970 1141 
C 2970 1476 2848 1734 2778 1850 
C 2509 2263 2221 2340 1914 2417 
C 1869 2437 1856 2437 1498 2527 
C 1152 2617 1005 2662 845 2836 
C 666 3036 602 3243 602 3449 
C 602 3868 934 4326 1478 4326 
C 2157 4326 2579 3842 2675 3036 
C 2694 2920 2701 2914 2746 2914 
C 2803 2914 2803 2933 2803 3043 
L 2803 4351 
z
" transform="scale(0.015625)"/>
      <path id="CMR17-63" d="M 2234 2240 
C 2112 2240 1933 2240 1933 2015 
C 1933 1836 2080 1785 2163 1785 
C 2208 1785 2394 1804 2394 2028 
C 2394 2476 1958 2816 1466 2816 
C 787 2816 211 2201 211 1379 
C 211 521 813 -64 1466 -64 
C 2259 -64 2458 676 2458 747 
C 2458 773 2451 792 2406 792 
C 2362 792 2355 786 2330 702 
C 2163 180 1798 51 1523 51 
C 1114 51 621 431 621 1385 
C 621 2358 1094 2700 1472 2700 
C 1722 2700 2093 2582 2234 2240 
z
" transform="scale(0.015625)"/>
      <path id="CMR17-68" d="M 2656 1954 
C 2656 2282 2592 2816 1837 2816 
C 1312 2816 1056 2392 979 2179 
L 973 2179 
L 973 4416 
L 211 4345 
L 211 4179 
C 589 4179 646 4141 646 3843 
L 646 443 
C 646 198 621 166 211 166 
L 211 0 
C 365 12 646 12 813 12 
C 979 12 1267 12 1421 0 
L 1421 166 
C 1011 166 986 192 986 443 
L 986 1678 
C 986 2269 1344 2713 1792 2713 
C 2266 2713 2317 2289 2317 1980 
L 2317 443 
C 2317 198 2291 166 1882 166 
L 1882 0 
C 2035 12 2317 12 2483 12 
C 2650 12 2938 12 3091 0 
L 3091 166 
C 2682 166 2656 192 2656 443 
L 2656 1954 
z
" transform="scale(0.015625)"/>
      <path id="CMR17-79" d="M 2496 2183 
C 2656 2579 2944 2585 3034 2585 
L 3034 2752 
C 2912 2745 2752 2739 2630 2739 
C 2496 2739 2285 2739 2157 2752 
L 2157 2585 
C 2400 2566 2406 2384 2406 2332 
C 2406 2268 2394 2235 2362 2158 
L 1664 409 
L 902 2300 
C 870 2378 870 2423 870 2430 
C 870 2572 1018 2585 1171 2585 
L 1171 2752 
C 1018 2739 742 2739 582 2739 
C 410 2739 205 2739 64 2752 
L 64 2585 
C 410 2585 448 2553 531 2345 
L 1485 -31 
C 1197 -795 1030 -1242 627 -1242 
C 557 -1242 397 -1223 282 -1106 
C 429 -1093 493 -1002 493 -892 
C 493 -782 416 -685 288 -685 
C 147 -685 77 -782 77 -899 
C 77 -1158 339 -1344 627 -1344 
C 998 -1344 1229 -983 1357 -659 
L 2496 2183 
z
" transform="scale(0.015625)"/>
      <path id="CMR17-67" d="M 710 1165 
C 832 1068 1043 960 1299 960 
C 1805 960 2240 1359 2240 1895 
C 2240 2063 2189 2321 1997 2521 
C 2176 2713 2438 2777 2586 2777 
C 2611 2777 2650 2777 2682 2758 
C 2656 2751 2598 2726 2598 2623 
C 2598 2540 2656 2483 2739 2483 
C 2835 2483 2886 2547 2886 2630 
C 2886 2751 2790 2880 2586 2880 
C 2330 2880 2106 2758 1926 2591 
C 1734 2764 1504 2828 1299 2828 
C 794 2828 358 2431 358 1895 
C 358 1527 570 1294 634 1230 
C 442 1004 442 742 442 710 
C 442 544 506 300 723 166 
C 390 82 128 -184 128 -517 
C 128 -996 736 -1344 1466 -1344 
C 2170 -1344 2803 -1009 2803 -510 
C 2803 384 1856 384 1363 384 
C 1216 384 954 384 922 390 
C 723 422 589 601 589 825 
C 589 883 589 1024 710 1165 
z
M 1299 1068 
C 736 1068 736 1766 736 1895 
C 736 2024 736 2719 1299 2719 
C 1862 2719 1862 2024 1862 1895 
C 1862 1766 1862 1068 1299 1068 
z
M 1466 -1236 
C 826 -1236 384 -883 384 -517 
C 384 -311 493 -118 634 -11 
C 794 102 858 102 1293 102 
C 1818 102 2547 102 2547 -517 
C 2547 -883 2106 -1236 1466 -1236 
z
" transform="scale(0.015625)"/>
      <path id="CMR17-47" d="M 3974 1258 
C 3974 1503 3994 1536 4390 1536 
L 4390 1702 
C 4237 1689 3891 1689 3718 1689 
C 3539 1689 3040 1696 2797 1702 
L 2797 1536 
L 2989 1536 
C 3539 1536 3552 1464 3552 1232 
L 3552 806 
C 3552 96 2720 38 2522 38 
C 1862 38 781 496 781 2179 
C 781 3862 1843 4313 2464 4313 
C 3187 4313 3712 3681 3834 2785 
C 3846 2708 3846 2695 3904 2695 
C 3974 2695 3974 2708 3974 2824 
L 3974 4351 
C 3974 4467 3968 4473 3930 4473 
C 3904 4473 3898 4467 3853 4390 
L 3571 3849 
C 3258 4249 2874 4480 2381 4480 
C 1286 4480 294 3507 294 2179 
C 294 858 1267 -128 2394 -128 
C 2912 -128 3418 57 3616 425 
C 3725 161 3904 -20 3936 -20 
C 3968 -20 3974 -13 3974 102 
L 3974 1258 
z
" transform="scale(0.015625)"/>
     </defs>
     <use xlink:href="#CMR17-49" transform="scale(0.996264)"/>
     <use xlink:href="#CMR17-6c" transform="translate(32.638409 0) scale(0.996264)"/>
     <use xlink:href="#CMR17-6c" transform="translate(57.509468 0) scale(0.996264)"/>
     <use xlink:href="#CMR17-75" transform="translate(82.380526 0) scale(0.996264)"/>
     <use xlink:href="#CMR17-73" transform="translate(133.275896 0) scale(0.996264)"/>
     <use xlink:href="#CMR17-74" transform="translate(169.077234 0) scale(0.996264)"/>
     <use xlink:href="#CMR17-72" transform="translate(204.358001 0) scale(0.996264)"/>
     <use xlink:href="#CMR17-61" transform="translate(239.638769 0) scale(0.996264)"/>
     <use xlink:href="#CMR17-74" transform="translate(285.329246 0) scale(0.996264)"/>
     <use xlink:href="#CMR17-69" transform="translate(320.610014 0) scale(0.996264)"/>
     <use xlink:href="#CMR17-6f" transform="translate(345.481073 0) scale(0.996264)"/>
     <use xlink:href="#CMR17-6e" transform="translate(391.17155 0) scale(0.996264)"/>
     <use xlink:href="#CMR17-6f" transform="translate(472.142886 0) scale(0.996264)"/>
     <use xlink:href="#CMR17-66" transform="translate(517.833363 0) scale(0.996264)"/>
     <use xlink:href="#CMR17-53" transform="translate(575.382842 0) scale(0.996264)"/>
     <use xlink:href="#CMR17-74" transform="translate(626.278211 0) scale(0.996264)"/>
     <use xlink:href="#CMR17-6f" transform="translate(661.558979 0) scale(0.996264)"/>
     <use xlink:href="#CMR17-63" transform="translate(709.851895 0) scale(0.996264)"/>
     <use xlink:href="#CMR17-68" transform="translate(747.735102 0) scale(0.996264)"/>
     <use xlink:href="#CMR17-61" transform="translate(798.630471 0) scale(0.996264)"/>
     <use xlink:href="#CMR17-73" transform="translate(844.320949 0) scale(0.996264)"/>
     <use xlink:href="#CMR17-74" transform="translate(880.122286 0) scale(0.996264)"/>
     <use xlink:href="#CMR17-69" transform="translate(915.403054 0) scale(0.996264)"/>
     <use xlink:href="#CMR17-63" transform="translate(940.274112 0) scale(0.996264)"/>
     <use xlink:href="#CMR17-69" transform="translate(980.759773 0) scale(0.996264)"/>
     <use xlink:href="#CMR17-74" transform="translate(1005.630831 0) scale(0.996264)"/>
     <use xlink:href="#CMR17-79" transform="translate(1038.309145 0) scale(0.996264)"/>
     <use xlink:href="#CMR17-69" transform="translate(1116.678027 0) scale(0.996264)"/>
     <use xlink:href="#CMR17-6e" transform="translate(1141.549086 0) scale(0.996264)"/>
     <use xlink:href="#CMR17-53" transform="translate(1222.520422 0) scale(0.996264)"/>
     <use xlink:href="#CMR17-69" transform="translate(1273.415792 0) scale(0.996264)"/>
     <use xlink:href="#CMR17-67" transform="translate(1298.28685 0) scale(0.996264)"/>
     <use xlink:href="#CMR17-6e" transform="translate(1343.977327 0) scale(0.996264)"/>
     <use xlink:href="#CMR17-61" transform="translate(1394.872697 0) scale(0.996264)"/>
     <use xlink:href="#CMR17-6c" transform="translate(1440.563174 0) scale(0.996264)"/>
     <use xlink:href="#CMR17-47" transform="translate(1495.510199 0) scale(0.996264)"/>
     <use xlink:href="#CMR17-65" transform="translate(1567.865545 0) scale(0.996264)"/>
     <use xlink:href="#CMR17-6e" transform="translate(1608.351206 0) scale(0.996264)"/>
     <use xlink:href="#CMR17-65" transform="translate(1659.246575 0) scale(0.996264)"/>
     <use xlink:href="#CMR17-72" transform="translate(1699.732236 0) scale(0.996264)"/>
     <use xlink:href="#CMR17-61" transform="translate(1735.013004 0) scale(0.996264)"/>
     <use xlink:href="#CMR17-74" transform="translate(1780.703481 0) scale(0.996264)"/>
     <use xlink:href="#CMR17-69" transform="translate(1815.984249 0) scale(0.996264)"/>
     <use xlink:href="#CMR17-6f" transform="translate(1840.855307 0) scale(0.996264)"/>
     <use xlink:href="#CMR17-6e" transform="translate(1886.545784 0) scale(0.996264)"/>
    </g>
   </g>
  </g>
 </g>
 <defs>
  <clipPath id="pe14fddbb82">
   <rect x="90" y="51.84" width="558" height="332.64"/>
  </clipPath>
 </defs>
</svg>
