<?xml version="1.0" encoding="utf-8" standalone="no"?>
<!DOCTYPE svg PUBLIC "-//W3C//DTD SVG 1.1//EN"
  "http://www.w3.org/Graphics/SVG/1.1/DTD/svg11.dtd">
<svg xmlns:xlink="http://www.w3.org/1999/xlink" width="720pt" height="432pt" viewBox="0 0 720 432" xmlns="http://www.w3.org/2000/svg" version="1.1">
 <metadata>
  <rdf:RDF xmlns:dc="http://purl.org/dc/elements/1.1/" xmlns:cc="http://creativecommons.org/ns#" xmlns:rdf="http://www.w3.org/1999/02/22-rdf-syntax-ns#">
   <cc:Work>
    <dc:type rdf:resource="http://purl.org/dc/dcmitype/StillImage"/>
    <dc:date>2025-05-27T18:28:21.877973</dc:date>
    <dc:format>image/svg+xml</dc:format>
    <dc:creator>
     <cc:Agent>
      <dc:title>Matplotlib v3.10.0, https://matplotlib.org/</dc:title>
     </cc:Agent>
    </dc:creator>
   </cc:Work>
  </rdf:RDF>
 </metadata>
 <defs>
  <style type="text/css">*{stroke-linejoin: round; stroke-linecap: butt}</style>
 </defs>
 <g id="figure_1">
  <g id="patch_1">
   <path d="M 0 432 
L 720 432 
L 720 0 
L 0 0 
z
" style="fill: #ffffff"/>
  </g>
  <g id="axes_1">
   <g id="patch_2">
    <path d="M 90 384.48 
L 648 384.48 
L 648 51.84 
L 90 51.84 
z
" style="fill: #ffffff"/>
   </g>
   <g id="matplotlib.axis_1">
    <g id="xtick_1">
     <g id="line2d_1">
      <path d="M 115.363636 384.48 
L 115.363636 51.84 
" clip-path="url(#p704b92f95b)" style="fill: none; stroke: #cccccc; stroke-linecap: round"/>
     </g>
     <g id="text_1">
      <!-- $\mathdefault{0}$ -->
      <g style="fill: #262626" transform="translate(109.081196 413.005867) scale(0.275 -0.275)">
       <defs>
        <path id="CMR17-30" d="M 2688 2038 
C 2688 2430 2682 3099 2413 3613 
C 2176 4063 1798 4224 1466 4224 
C 1158 4224 768 4082 525 3620 
C 269 3137 243 2539 243 2038 
C 243 1671 250 1112 448 623 
C 723 -39 1216 -128 1466 -128 
C 1760 -128 2208 -7 2470 604 
C 2662 1048 2688 1568 2688 2038 
z
M 1466 -26 
C 1056 -26 813 328 723 816 
C 653 1196 653 1749 653 2109 
C 653 2604 653 3015 736 3407 
C 858 3954 1216 4121 1466 4121 
C 1728 4121 2067 3947 2189 3420 
C 2272 3054 2278 2623 2278 2109 
C 2278 1691 2278 1176 2202 797 
C 2067 96 1690 -26 1466 -26 
z
" transform="scale(0.015625)"/>
       </defs>
       <use xlink:href="#CMR17-30" transform="scale(0.996264)"/>
      </g>
     </g>
    </g>
    <g id="xtick_2">
     <g id="line2d_2">
      <path d="M 214.828877 384.48 
L 214.828877 51.84 
" clip-path="url(#p704b92f95b)" style="fill: none; stroke: #cccccc; stroke-linecap: round"/>
     </g>
     <g id="text_2">
      <!-- $\mathdefault{50}$ -->
      <g style="fill: #262626" transform="translate(202.263996 413.005867) scale(0.275 -0.275)">
       <defs>
        <path id="CMR17-35" d="M 730 3750 
C 794 3724 1056 3641 1325 3641 
C 1920 3641 2246 3961 2432 4140 
C 2432 4191 2432 4224 2394 4224 
C 2387 4224 2374 4224 2323 4198 
C 2099 4102 1837 4032 1517 4032 
C 1325 4032 1037 4055 723 4191 
C 653 4224 640 4224 634 4224 
C 602 4224 595 4217 595 4090 
L 595 2231 
C 595 2113 595 2080 659 2080 
C 691 2080 704 2093 736 2139 
C 941 2435 1222 2560 1542 2560 
C 1766 2560 2246 2415 2246 1293 
C 2246 1087 2246 716 2054 422 
C 1894 159 1645 25 1370 25 
C 947 25 518 319 403 812 
C 429 806 480 793 506 793 
C 589 793 749 838 749 1036 
C 749 1209 627 1280 506 1280 
C 358 1280 262 1190 262 1011 
C 262 454 704 -128 1382 -128 
C 2042 -128 2669 441 2669 1267 
C 2669 2054 2170 2662 1549 2662 
C 1222 2662 947 2540 730 2304 
L 730 3750 
z
" transform="scale(0.015625)"/>
       </defs>
       <use xlink:href="#CMR17-35" transform="scale(0.996264)"/>
       <use xlink:href="#CMR17-30" transform="translate(45.690477 0) scale(0.996264)"/>
      </g>
     </g>
    </g>
    <g id="xtick_3">
     <g id="line2d_3">
      <path d="M 314.294118 384.48 
L 314.294118 51.84 
" clip-path="url(#p704b92f95b)" style="fill: none; stroke: #cccccc; stroke-linecap: round"/>
     </g>
     <g id="text_3">
      <!-- $\mathdefault{100}$ -->
      <g style="fill: #262626" transform="translate(295.446796 413.005867) scale(0.275 -0.275)">
       <defs>
        <path id="CMR17-31" d="M 1702 4083 
C 1702 4217 1696 4224 1606 4224 
C 1357 3927 979 3833 621 3820 
C 602 3820 570 3820 563 3808 
C 557 3795 557 3782 557 3648 
C 755 3648 1088 3686 1344 3839 
L 1344 467 
C 1344 243 1331 166 781 166 
L 589 166 
L 589 0 
C 896 6 1216 12 1523 12 
C 1830 12 2150 6 2458 0 
L 2458 166 
L 2266 166 
C 1715 166 1702 236 1702 467 
L 1702 4083 
z
" transform="scale(0.015625)"/>
       </defs>
       <use xlink:href="#CMR17-31" transform="scale(0.996264)"/>
       <use xlink:href="#CMR17-30" transform="translate(45.690477 0) scale(0.996264)"/>
       <use xlink:href="#CMR17-30" transform="translate(91.380954 0) scale(0.996264)"/>
      </g>
     </g>
    </g>
    <g id="xtick_4">
     <g id="line2d_4">
      <path d="M 413.759358 384.48 
L 413.759358 51.84 
" clip-path="url(#p704b92f95b)" style="fill: none; stroke: #cccccc; stroke-linecap: round"/>
     </g>
     <g id="text_4">
      <!-- $\mathdefault{150}$ -->
      <g style="fill: #262626" transform="translate(394.912036 413.005867) scale(0.275 -0.275)">
       <use xlink:href="#CMR17-31" transform="scale(0.996264)"/>
       <use xlink:href="#CMR17-35" transform="translate(45.690477 0) scale(0.996264)"/>
       <use xlink:href="#CMR17-30" transform="translate(91.380954 0) scale(0.996264)"/>
      </g>
     </g>
    </g>
    <g id="xtick_5">
     <g id="line2d_5">
      <path d="M 513.224599 384.48 
L 513.224599 51.84 
" clip-path="url(#p704b92f95b)" style="fill: none; stroke: #cccccc; stroke-linecap: round"/>
     </g>
     <g id="text_5">
      <!-- $\mathdefault{200}$ -->
      <g style="fill: #262626" transform="translate(494.377277 413.005867) scale(0.275 -0.275)">
       <defs>
        <path id="CMR17-32" d="M 2669 990 
L 2554 990 
C 2490 537 2438 460 2413 422 
C 2381 371 1920 371 1830 371 
L 602 371 
C 832 620 1280 1073 1824 1596 
C 2214 1966 2669 2400 2669 3033 
C 2669 3788 2067 4224 1395 4224 
C 691 4224 262 3603 262 3027 
C 262 2777 448 2745 525 2745 
C 589 2745 781 2783 781 3007 
C 781 3206 614 3264 525 3264 
C 486 3264 448 3257 422 3244 
C 544 3788 915 4057 1306 4057 
C 1862 4057 2227 3616 2227 3033 
C 2227 2477 1901 1998 1536 1583 
L 262 147 
L 262 0 
L 2515 0 
L 2669 990 
z
" transform="scale(0.015625)"/>
       </defs>
       <use xlink:href="#CMR17-32" transform="scale(0.996264)"/>
       <use xlink:href="#CMR17-30" transform="translate(45.690477 0) scale(0.996264)"/>
       <use xlink:href="#CMR17-30" transform="translate(91.380954 0) scale(0.996264)"/>
      </g>
     </g>
    </g>
    <g id="xtick_6">
     <g id="line2d_6">
      <path d="M 612.68984 384.48 
L 612.68984 51.84 
" clip-path="url(#p704b92f95b)" style="fill: none; stroke: #cccccc; stroke-linecap: round"/>
     </g>
     <g id="text_6">
      <!-- $\mathdefault{250}$ -->
      <g style="fill: #262626" transform="translate(593.842518 413.005867) scale(0.275 -0.275)">
       <use xlink:href="#CMR17-32" transform="scale(0.996264)"/>
       <use xlink:href="#CMR17-35" transform="translate(45.690477 0) scale(0.996264)"/>
       <use xlink:href="#CMR17-30" transform="translate(91.380954 0) scale(0.996264)"/>
      </g>
     </g>
    </g>
    <g id="text_7">
     <!-- Time -->
     <g style="fill: #262626" transform="translate(337.682086 443.090362) scale(0.3 -0.3)">
      <defs>
       <path id="CMR17-54" d="M 3981 4332 
L 288 4332 
L 179 2924 
L 294 2924 
C 378 3981 467 4166 1453 4166 
C 1568 4166 1754 4166 1805 4159 
C 1926 4140 1926 4064 1926 3917 
L 1926 465 
C 1926 236 1907 166 1376 166 
L 1197 166 
L 1197 0 
C 1504 6 1824 12 2138 12 
C 2451 12 2771 6 3078 0 
L 3078 166 
L 2899 166 
C 2368 166 2349 236 2349 465 
L 2349 3917 
C 2349 4057 2349 4134 2464 4159 
C 2515 4166 2701 4166 2816 4166 
C 3795 4166 3891 3981 3974 2924 
L 4090 2924 
L 3981 4332 
z
" transform="scale(0.015625)"/>
       <path id="CMR17-69" d="M 992 3961 
C 992 4102 877 4224 730 4224 
C 589 4224 467 4108 467 3961 
C 467 3820 582 3699 730 3699 
C 870 3699 992 3814 992 3961 
z
M 243 2745 
L 243 2579 
C 602 2579 653 2540 653 2231 
L 653 443 
C 653 198 627 166 218 166 
L 218 0 
C 371 12 646 12 806 12 
C 960 12 1222 12 1370 0 
L 1370 166 
C 992 166 979 205 979 436 
L 979 2816 
L 243 2745 
z
" transform="scale(0.015625)"/>
       <path id="CMR17-6d" d="M 4326 1954 
C 4326 2276 4269 2816 3507 2816 
C 3072 2816 2771 2520 2656 2173 
L 2650 2173 
C 2573 2700 2195 2816 1837 2816 
C 1331 2816 1069 2424 973 2166 
L 966 2166 
L 966 2816 
L 211 2745 
L 211 2578 
C 589 2578 646 2540 646 2231 
L 646 443 
C 646 198 621 166 211 166 
L 211 0 
C 365 12 646 12 813 12 
C 979 12 1267 12 1421 0 
L 1421 166 
C 1011 166 986 192 986 443 
L 986 1678 
C 986 2269 1344 2713 1792 2713 
C 2266 2713 2317 2289 2317 1980 
L 2317 443 
C 2317 198 2291 166 1882 166 
L 1882 0 
C 2035 12 2317 12 2483 12 
C 2650 12 2938 12 3091 0 
L 3091 166 
C 2682 166 2656 192 2656 443 
L 2656 1678 
C 2656 2269 3014 2713 3462 2713 
C 3936 2713 3987 2289 3987 1980 
L 3987 443 
C 3987 198 3962 166 3552 166 
L 3552 0 
C 3706 12 3987 12 4154 12 
C 4320 12 4608 12 4762 0 
L 4762 166 
C 4352 166 4326 192 4326 443 
L 4326 1954 
z
" transform="scale(0.015625)"/>
       <path id="CMR17-65" d="M 2438 1503 
C 2464 1529 2464 1542 2464 1606 
C 2464 2251 2118 2816 1389 2816 
C 710 2816 173 2175 173 1394 
C 173 554 781 -64 1459 -64 
C 2176 -64 2458 619 2458 755 
C 2458 800 2419 800 2406 800 
C 2362 800 2355 787 2330 709 
C 2189 270 1837 51 1504 51 
C 1229 51 954 206 781 490 
C 582 819 582 1200 582 1503 
L 2438 1503 
z
M 589 1600 
C 634 2511 1126 2713 1382 2713 
C 1818 2713 2112 2308 2118 1600 
L 589 1600 
z
" transform="scale(0.015625)"/>
      </defs>
      <use xlink:href="#CMR17-54" transform="scale(0.996264)"/>
      <use xlink:href="#CMR17-69" transform="translate(66.509881 0) scale(0.996264)"/>
      <use xlink:href="#CMR17-6d" transform="translate(91.380939 0) scale(0.996264)"/>
      <use xlink:href="#CMR17-65" transform="translate(168.300529 0) scale(0.996264)"/>
     </g>
    </g>
   </g>
   <g id="matplotlib.axis_2">
    <g id="ytick_1">
     <g id="line2d_7">
      <path d="M 90 373.47129 
L 648 373.47129 
" clip-path="url(#p704b92f95b)" style="fill: none; stroke: #cccccc; stroke-linecap: round"/>
     </g>
     <g id="text_8">
      <!-- $\mathdefault{−4}$ -->
      <g style="fill: #262626" transform="translate(46.626066 382.984224) scale(0.275 -0.275)">
       <defs>
        <path id="CMSY10-0" d="M 4218 1472 
C 4326 1472 4442 1472 4442 1600 
C 4442 1728 4326 1728 4218 1728 
L 755 1728 
C 646 1728 531 1728 531 1600 
C 531 1472 646 1472 755 1472 
L 4218 1472 
z
" transform="scale(0.015625)"/>
        <path id="CMR17-34" d="M 2150 4147 
C 2150 4281 2144 4288 2029 4288 
L 128 1254 
L 128 1088 
L 1779 1088 
L 1779 460 
C 1779 230 1766 166 1318 166 
L 1197 166 
L 1197 0 
C 1402 12 1747 12 1965 12 
C 2182 12 2528 12 2733 0 
L 2733 166 
L 2611 166 
C 2163 166 2150 230 2150 460 
L 2150 1088 
L 2803 1088 
L 2803 1254 
L 2150 1254 
L 2150 4147 
z
M 1798 3723 
L 1798 1254 
L 256 1254 
L 1798 3723 
z
" transform="scale(0.015625)"/>
       </defs>
       <use xlink:href="#CMSY10-0" transform="scale(0.996264)"/>
       <use xlink:href="#CMR17-34" transform="translate(77.487468 0) scale(0.996264)"/>
      </g>
     </g>
    </g>
    <g id="ytick_2">
     <g id="line2d_8">
      <path d="M 90 300.563175 
L 648 300.563175 
" clip-path="url(#p704b92f95b)" style="fill: none; stroke: #cccccc; stroke-linecap: round"/>
     </g>
     <g id="text_9">
      <!-- $\mathdefault{−2}$ -->
      <g style="fill: #262626" transform="translate(46.626066 310.076109) scale(0.275 -0.275)">
       <use xlink:href="#CMSY10-0" transform="scale(0.996264)"/>
       <use xlink:href="#CMR17-32" transform="translate(77.487468 0) scale(0.996264)"/>
      </g>
     </g>
    </g>
    <g id="ytick_3">
     <g id="line2d_9">
      <path d="M 90 227.65506 
L 648 227.65506 
" clip-path="url(#p704b92f95b)" style="fill: none; stroke: #cccccc; stroke-linecap: round"/>
     </g>
     <g id="text_10">
      <!-- $\mathdefault{0}$ -->
      <g style="fill: #262626" transform="translate(67.935119 237.167994) scale(0.275 -0.275)">
       <use xlink:href="#CMR17-30" transform="scale(0.996264)"/>
      </g>
     </g>
    </g>
    <g id="ytick_4">
     <g id="line2d_10">
      <path d="M 90 154.746946 
L 648 154.746946 
" clip-path="url(#p704b92f95b)" style="fill: none; stroke: #cccccc; stroke-linecap: round"/>
     </g>
     <g id="text_11">
      <!-- $\mathdefault{2}$ -->
      <g style="fill: #262626" transform="translate(67.935119 164.259879) scale(0.275 -0.275)">
       <use xlink:href="#CMR17-32" transform="scale(0.996264)"/>
      </g>
     </g>
    </g>
    <g id="ytick_5">
     <g id="line2d_11">
      <path d="M 90 81.838831 
L 648 81.838831 
" clip-path="url(#p704b92f95b)" style="fill: none; stroke: #cccccc; stroke-linecap: round"/>
     </g>
     <g id="text_12">
      <!-- $\mathdefault{4}$ -->
      <g style="fill: #262626" transform="translate(67.935119 91.351764) scale(0.275 -0.275)">
       <use xlink:href="#CMR17-34" transform="scale(0.996264)"/>
      </g>
     </g>
    </g>
    <g id="text_13">
     <!-- Amplitude -->
     <g style="fill: #262626" transform="translate(36.812616 281.787972) rotate(-90) scale(0.3 -0.3)">
      <defs>
       <path id="CMR17-41" d="M 2323 4441 
C 2291 4524 2278 4544 2214 4544 
C 2150 4544 2138 4524 2106 4441 
L 749 580 
C 627 236 371 166 147 166 
L 147 0 
C 262 12 518 12 640 12 
C 800 12 1056 12 1210 0 
L 1210 166 
C 909 179 864 382 864 459 
C 864 516 877 548 890 586 
L 1229 1536 
L 2906 1536 
L 3290 453 
C 3322 376 3322 363 3322 338 
C 3322 166 3046 166 2925 166 
L 2925 0 
C 3110 12 3443 12 3642 12 
C 3808 12 4128 12 4282 0 
L 4282 166 
C 3942 166 3827 166 3744 402 
L 2323 4441 
z
M 2067 3924 
L 2848 1702 
L 1286 1702 
L 2067 3924 
z
" transform="scale(0.015625)"/>
       <path id="CMR17-70" d="M 1408 -1114 
C 998 -1114 973 -1088 973 -834 
L 973 380 
C 1158 109 1427 -64 1766 -64 
C 2406 -64 3053 503 3053 1382 
C 3053 2196 2496 2816 1837 2816 
C 1453 2816 1139 2603 960 2345 
L 960 2816 
L 198 2745 
L 198 2577 
C 576 2577 634 2539 634 2228 
L 634 -834 
C 634 -1081 608 -1114 198 -1114 
L 198 -1280 
C 352 -1268 634 -1268 800 -1268 
C 966 -1268 1254 -1268 1408 -1280 
L 1408 -1114 
z
M 973 2015 
C 973 2106 973 2241 1222 2481 
C 1254 2506 1472 2700 1792 2700 
C 2259 2700 2643 2112 2643 1376 
C 2643 639 2234 38 1728 38 
C 1498 38 1248 148 1056 451 
C 973 594 973 632 973 736 
L 973 2015 
z
" transform="scale(0.015625)"/>
       <path id="CMR17-6c" d="M 979 4416 
L 218 4345 
L 218 4179 
C 595 4179 653 4141 653 3835 
L 653 439 
C 653 198 627 166 218 166 
L 218 0 
C 371 12 653 12 813 12 
C 979 12 1261 12 1414 0 
L 1414 166 
C 1005 166 979 191 979 439 
L 979 4416 
z
" transform="scale(0.015625)"/>
       <path id="CMR17-74" d="M 966 2585 
L 1862 2585 
L 1862 2752 
L 966 2752 
L 966 3968 
L 851 3968 
C 838 3292 614 2700 70 2687 
L 70 2585 
L 627 2585 
L 627 778 
C 627 655 627 -64 1370 -64 
C 1747 -64 1965 308 1965 784 
L 1965 1151 
L 1850 1151 
L 1850 790 
C 1850 347 1677 51 1408 51 
C 1222 51 966 179 966 765 
L 966 2585 
z
" transform="scale(0.015625)"/>
       <path id="CMR17-75" d="M 1882 2745 
L 1882 2579 
C 2259 2579 2317 2540 2317 2229 
L 2317 1053 
C 2317 510 2029 38 1555 38 
C 1030 38 986 355 986 691 
L 986 2816 
L 211 2745 
L 211 2579 
C 467 2579 640 2579 646 2320 
L 646 1079 
C 646 646 646 368 813 187 
C 896 103 1056 -64 1517 -64 
C 2061 -64 2272 400 2323 536 
L 2330 536 
L 2330 -64 
L 3091 -13 
L 3091 154 
C 2714 154 2656 193 2656 503 
L 2656 2816 
L 1882 2745 
z
" transform="scale(0.015625)"/>
       <path id="CMR17-64" d="M 1869 4345 
L 1869 4179 
C 2246 4179 2304 4141 2304 3843 
L 2304 2371 
C 2278 2403 2016 2816 1498 2816 
C 845 2816 211 2228 211 1376 
C 211 529 806 -64 1434 -64 
C 1978 -64 2259 361 2291 406 
L 2291 -64 
L 3066 -13 
L 3066 154 
C 2688 154 2630 193 2630 503 
L 2630 4416 
L 1869 4345 
z
M 2291 762 
C 2291 568 2176 393 2029 264 
C 1811 70 1594 38 1472 38 
C 1286 38 621 135 621 1369 
C 621 2636 1363 2713 1530 2713 
C 1824 2713 2061 2545 2208 2313 
C 2291 2177 2291 2157 2291 2041 
L 2291 762 
z
" transform="scale(0.015625)"/>
      </defs>
      <use xlink:href="#CMR17-41" transform="scale(0.996264)"/>
      <use xlink:href="#CMR17-6d" transform="translate(69.07243 0) scale(0.996264)"/>
      <use xlink:href="#CMR17-70" transform="translate(145.99202 0) scale(0.996264)"/>
      <use xlink:href="#CMR17-6c" transform="translate(196.887389 0) scale(0.996264)"/>
      <use xlink:href="#CMR17-69" transform="translate(221.758448 0) scale(0.996264)"/>
      <use xlink:href="#CMR17-74" transform="translate(246.629506 0) scale(0.996264)"/>
      <use xlink:href="#CMR17-75" transform="translate(281.910274 0) scale(0.996264)"/>
      <use xlink:href="#CMR17-64" transform="translate(332.805644 0) scale(0.996264)"/>
      <use xlink:href="#CMR17-65" transform="translate(383.701014 0) scale(0.996264)"/>
     </g>
    </g>
   </g>
   <g id="line2d_12">
    <path d="M 115.363636 227.65506 
L 119.342246 227.65506 
L 171.064171 173.800481 
L 173.053476 227.65506 
L 218.807487 227.65506 
L 220.796791 167.323939 
L 222.786096 167.643238 
L 224.775401 168.597754 
L 226.764706 170.177383 
L 228.754011 172.365407 
L 230.743316 175.138665 
L 232.73262 178.467801 
L 234.721925 182.317579 
L 236.71123 186.647248 
L 238.700535 191.410979 
L 240.68984 196.558349 
L 244.668449 207.782585 
L 248.647059 219.845985 
L 256.604278 244.438726 
L 260.582888 255.929577 
L 262.572193 261.255853 
L 264.561497 266.226469 
L 266.550802 270.788811 
L 268.540107 274.894588 
L 270.529412 278.500341 
L 272.518717 281.567903 
L 274.508021 284.064805 
L 276.497326 285.964616 
L 278.486631 287.247229 
L 280.475936 287.899066 
L 282.465241 287.913229 
L 284.454545 287.289566 
L 286.44385 286.03468 
L 288.433155 227.65506 
L 320.262032 227.65506 
L 322.251337 248.727786 
L 379.941176 248.727786 
L 381.930481 227.65506 
L 423.705882 227.65506 
L 463.491979 117.629506 
L 465.481283 117.629506 
L 505.26738 227.65506 
L 523.171123 227.65506 
L 525.160428 107.018219 
L 584.839572 227.65506 
L 622.636364 227.65506 
L 622.636364 227.65506 
" clip-path="url(#p704b92f95b)" style="fill: none; stroke: #4c72b0; stroke-width: 3; stroke-linecap: round"/>
   </g>
   <g id="line2d_13">
    <path d="M 115.363636 227.65506 
L 131.278075 227.65506 
L 163.106952 119.804971 
L 165.096257 119.804971 
L 196.925134 227.65506 
L 226.764706 227.65506 
L 228.754011 180.632178 
L 322.251337 227.65506 
L 324.240642 227.65506 
L 326.229947 156.573119 
L 415.748663 156.573119 
L 417.737968 227.65506 
L 423.705882 227.65506 
L 429.673797 202.427227 
L 433.652406 186.299458 
L 437.631016 171.19 
L 441.609626 157.4709 
L 443.59893 151.23987 
L 445.588235 145.479966 
L 447.57754 140.226699 
L 449.566845 135.512456 
L 451.55615 131.366304 
L 453.545455 127.813803 
L 455.534759 124.876857 
L 457.524064 122.573573 
L 459.513369 120.918151 
L 461.502674 119.920798 
L 463.491979 119.587662 
L 465.481283 119.920798 
L 467.470588 120.918151 
L 469.459893 122.573573 
L 471.449198 124.876857 
L 473.438503 127.813803 
L 475.427807 131.366304 
L 477.417112 135.512456 
L 479.406417 140.226699 
L 481.395722 145.479966 
L 483.385027 151.23987 
L 485.374332 157.4709 
L 487.363636 164.134638 
L 491.342246 178.593488 
L 495.320856 194.260398 
L 501.28877 219.17619 
L 503.278075 227.65506 
L 519.192513 227.65506 
L 521.181818 177.101624 
L 523.171123 177.671113 
L 525.160428 179.366747 
L 527.149733 182.150325 
L 529.139037 185.959131 
L 531.128342 190.707354 
L 533.117647 196.288013 
L 535.106952 202.575378 
L 537.096257 209.427791 
L 541.074866 224.200969 
L 545.053476 239.283679 
L 547.042781 246.516471 
L 549.032086 253.324313 
L 551.02139 259.553822 
L 553.010695 265.064648 
L 555 269.73263 
L 556.989305 273.452597 
L 558.97861 276.140739 
L 560.967914 277.736491 
L 562.957219 278.203901 
L 564.946524 277.532437 
L 566.935829 275.737228 
L 568.925134 272.858721 
L 570.914439 268.961768 
L 572.903743 264.134169 
L 574.893048 258.484689 
L 576.882353 252.140614 
L 580.860963 237.952834 
L 588.818182 208.162938 
L 590.807487 227.65506 
L 622.636364 227.65506 
L 622.636364 227.65506 
" clip-path="url(#p704b92f95b)" style="fill: none; stroke: #dd8452; stroke-width: 3; stroke-linecap: round"/>
   </g>
   <g id="line2d_14">
    <path d="M 115.363636 227.65506 
L 155.149733 227.65506 
L 204.882353 218.240307 
L 206.871658 227.65506 
L 246.657754 227.65506 
L 248.647059 150.528761 
L 250.636364 150.891483 
L 252.625668 151.976238 
L 254.614973 153.772822 
L 256.604278 156.264338 
L 258.593583 159.427349 
L 260.582888 163.232105 
L 262.572193 167.642819 
L 264.561497 172.618004 
L 266.550802 178.110863 
L 268.540107 184.069732 
L 272.518717 197.157445 
L 276.497326 211.389894 
L 288.433155 255.519801 
L 292.411765 268.864484 
L 294.40107 274.986019 
L 296.390374 280.662362 
L 298.379679 285.840122 
L 300.368984 290.470598 
L 302.358289 294.510235 
L 304.347594 297.921037 
L 306.336898 300.670923 
L 308.326203 302.734027 
L 310.315508 304.090943 
L 312.304813 304.728909 
L 314.294118 304.641924 
L 316.283422 303.830807 
L 318.272727 302.303185 
L 320.262032 300.073429 
L 322.251337 297.162511 
L 324.240642 293.59781 
L 326.229947 289.412857 
L 328.219251 284.647015 
L 330.208556 279.345111 
L 332.197861 273.557013 
L 334.187166 267.337165 
L 336.176471 260.74407 
L 338.165775 227.65506 
L 340.15508 227.65506 
L 342.144385 117.402997 
L 423.705882 227.65506 
L 433.652406 227.65506 
L 435.641711 176.358636 
L 485.374332 176.358636 
L 487.363636 227.65506 
L 529.139037 227.65506 
L 535.106952 203.030934 
L 539.085561 187.812387 
L 541.074866 180.817189 
L 543.064171 174.335156 
L 545.053476 168.437307 
L 547.042781 163.188261 
L 549.032086 158.645526 
L 551.02139 154.858874 
L 553.010695 151.869792 
L 555 149.71103 
L 556.989305 148.406238 
L 558.97861 147.969714 
L 560.967914 148.406238 
L 562.957219 149.71103 
L 564.946524 151.869792 
L 566.935829 154.858874 
L 568.925134 158.645526 
L 570.914439 163.188261 
L 572.903743 168.437307 
L 574.893048 174.335156 
L 576.882353 180.817189 
L 578.871658 187.812387 
L 582.850267 203.030934 
L 588.818182 227.65506 
L 622.636364 227.65506 
L 622.636364 227.65506 
" clip-path="url(#p704b92f95b)" style="fill: none; stroke: #55a868; stroke-width: 3; stroke-linecap: round"/>
   </g>
   <g id="line2d_15">
    <path d="M 115.363636 227.65506 
L 131.278075 227.65506 
L 137.245989 207.219653 
L 141.224599 194.326629 
L 145.203209 182.504807 
L 147.192513 177.116024 
L 149.181818 172.134152 
L 151.171123 167.599302 
L 153.160428 163.547985 
L 155.149733 160.01282 
L 157.139037 157.022271 
L 159.128342 154.600416 
L 161.117647 152.766754 
L 163.106952 151.536049 
L 165.096257 150.918209 
L 167.085561 150.918209 
L 169.074866 151.536049 
L 171.064171 152.766754 
L 173.053476 154.600416 
L 175.042781 157.022271 
L 177.032086 160.01282 
L 179.02139 163.547985 
L 181.010695 167.599302 
L 183 172.134152 
L 184.989305 177.116024 
L 186.97861 182.504807 
L 190.957219 194.326629 
L 194.935829 207.219653 
L 200.903743 227.65506 
L 226.764706 227.65506 
L 228.754011 131.460685 
L 298.379679 131.460685 
L 300.368984 227.65506 
L 324.240642 227.65506 
L 326.229947 195.888421 
L 379.941176 227.65506 
L 423.705882 227.65506 
L 517.203209 169.304746 
L 519.192513 227.65506 
L 521.181818 227.65506 
L 558.97861 173.434226 
L 560.967914 173.434226 
L 598.764706 227.65506 
L 622.636364 227.65506 
L 622.636364 227.65506 
" clip-path="url(#p704b92f95b)" style="fill: none; stroke: #c44e52; stroke-width: 3; stroke-linecap: round"/>
   </g>
   <g id="line2d_16">
    <path d="M 115.363636 227.65506 
L 149.181818 227.65506 
L 155.149733 200.893889 
L 159.128342 184.129105 
L 161.117647 176.300748 
L 163.106952 168.937463 
L 165.096257 162.105934 
L 167.085561 155.868028 
L 169.074866 150.280237 
L 171.064171 145.393163 
L 173.053476 141.251067 
L 175.042781 137.891458 
L 177.032086 135.344762 
L 179.02139 133.634043 
L 181.010695 132.774793 
L 183 132.774793 
L 184.989305 133.634043 
L 186.97861 135.344762 
L 188.967914 137.891458 
L 190.957219 141.251067 
L 192.946524 145.393163 
L 194.935829 150.280237 
L 196.925134 155.868028 
L 198.914439 162.105934 
L 200.903743 168.937463 
L 202.893048 176.300748 
L 206.871658 192.35164 
L 210.850267 209.67849 
L 214.828877 227.65506 
L 242.679144 227.65506 
L 244.668449 147.009628 
L 246.657754 147.668202 
L 248.647059 149.633167 
L 250.636364 152.872429 
L 252.625668 157.333085 
L 254.614973 162.942279 
L 256.604278 169.608399 
L 258.593583 177.22257 
L 260.582888 185.660434 
L 262.572193 194.784178 
L 266.550802 214.484481 
L 274.508021 255.118335 
L 276.497326 264.564633 
L 278.486631 273.408103 
L 280.475936 281.504309 
L 282.465241 288.721017 
L 284.454545 294.940362 
L 286.44385 300.060764 
L 288.433155 303.998596 
L 290.42246 306.689541 
L 292.411765 308.08965 
L 294.40107 308.176055 
L 296.390374 306.947345 
L 298.379679 304.423589 
L 300.368984 300.646005 
L 302.358289 295.676291 
L 304.347594 289.595616 
L 306.336898 282.503292 
L 308.326203 274.515156 
L 310.315508 265.761673 
L 314.294118 246.540704 
L 320.262032 215.820336 
L 322.251337 227.65506 
L 338.165775 227.65506 
L 340.15508 91.449481 
L 431.663102 227.65506 
L 435.641711 227.65506 
L 503.278075 199.220091 
L 505.26738 227.65506 
L 529.139037 227.65506 
L 531.128342 104.111989 
L 608.71123 104.111989 
L 610.700535 227.65506 
L 622.636364 227.65506 
L 622.636364 227.65506 
" clip-path="url(#p704b92f95b)" style="fill: none; stroke: #8172b3; stroke-width: 3; stroke-linecap: round"/>
   </g>
   <g id="line2d_17">
    <path d="M 115.363636 227.65506 
L 145.203209 227.65506 
L 151.171123 211.264231 
L 155.149733 200.890941 
L 159.128342 191.330865 
L 161.117647 186.94777 
L 163.106952 182.874481 
L 165.096257 179.142 
L 167.085561 175.778733 
L 169.074866 172.810276 
L 171.064171 170.259221 
L 173.053476 168.144982 
L 175.042781 166.483652 
L 177.032086 165.287873 
L 179.02139 164.566745 
L 181.010695 164.325758 
L 183 164.566745 
L 184.989305 165.287873 
L 186.97861 166.483652 
L 188.967914 168.144982 
L 190.957219 170.259221 
L 192.946524 172.810276 
L 194.935829 175.778733 
L 196.925134 179.142 
L 198.914439 182.874481 
L 200.903743 186.94777 
L 202.893048 191.330865 
L 206.871658 200.890941 
L 210.850267 211.264231 
L 216.818182 227.65506 
L 238.700535 227.65506 
L 240.68984 129.758522 
L 310.315508 227.65506 
L 336.176471 227.65506 
L 427.684492 155.531236 
L 429.673797 227.65506 
L 431.663102 192.600036 
L 433.652406 192.821167 
L 435.641711 193.481768 
L 437.631016 194.573507 
L 439.620321 196.08261 
L 441.609626 197.990037 
L 443.59893 200.271724 
L 445.588235 202.898884 
L 447.57754 205.838373 
L 449.566845 209.053106 
L 453.545455 216.143111 
L 457.524064 223.812232 
L 465.481283 239.334897 
L 469.459893 246.407564 
L 471.449198 249.610717 
L 473.438503 252.536873 
L 475.427807 255.149116 
L 477.417112 257.414488 
L 479.406417 259.304409 
L 481.395722 260.795036 
L 483.385027 261.867562 
L 485.374332 262.508457 
L 487.363636 262.709633 
L 489.352941 262.468555 
L 491.342246 261.788262 
L 493.331551 260.677339 
L 495.320856 259.149799 
L 497.31016 257.224916 
L 499.299465 254.926973 
L 501.28877 252.284963 
L 503.278075 249.332216 
L 505.26738 246.105987 
L 507.256684 227.65506 
L 525.160428 227.65506 
L 527.149733 149.870055 
L 606.721925 149.870055 
L 608.71123 227.65506 
L 622.636364 227.65506 
L 622.636364 227.65506 
" clip-path="url(#p704b92f95b)" style="fill: none; stroke: #937860; stroke-width: 3; stroke-linecap: round"/>
   </g>
   <g id="line2d_18">
    <path d="M 115.363636 227.65506 
L 151.171123 227.65506 
L 153.160428 204.460479 
L 236.71123 204.460479 
L 238.700535 227.65506 
L 244.668449 227.65506 
L 246.657754 230.385008 
L 252.625668 230.261846 
L 258.593583 229.903472 
L 264.561497 229.342222 
L 272.518717 228.367919 
L 290.42246 226.023901 
L 296.390374 225.447394 
L 302.358289 225.070087 
L 308.326203 224.926023 
L 314.294118 225.028202 
L 318.272727 225.229473 
L 320.262032 227.65506 
L 340.15508 227.65506 
L 346.122995 190.260572 
L 350.101604 167.417917 
L 352.090909 157.062992 
L 354.080214 147.595803 
L 356.069519 139.135406 
L 358.058824 131.788195 
L 360.048128 125.646566 
L 362.037433 120.787752 
L 364.026738 117.272857 
L 366.016043 115.146083 
L 368.005348 114.434173 
L 369.994652 115.146083 
L 371.983957 117.272857 
L 373.973262 120.787752 
L 375.962567 125.646566 
L 377.951872 131.788195 
L 379.941176 139.135406 
L 381.930481 147.595803 
L 383.919786 157.062992 
L 385.909091 167.417917 
L 389.887701 190.260572 
L 393.86631 214.978343 
L 395.855615 227.65506 
L 433.652406 227.65506 
L 487.363636 163.925033 
L 489.352941 227.65506 
L 527.149733 227.65506 
L 553.010695 199.952622 
L 555 199.952622 
L 580.860963 227.65506 
L 622.636364 227.65506 
L 622.636364 227.65506 
" clip-path="url(#p704b92f95b)" style="fill: none; stroke: #da8bc3; stroke-width: 3; stroke-linecap: round"/>
   </g>
   <g id="line2d_19">
    <path d="M 115.363636 227.65506 
L 143.213904 227.65506 
L 147.192513 200.006089 
L 151.171123 174.241349 
L 153.160428 162.622646 
L 155.149733 152.116665 
L 157.139037 142.903168 
L 159.128342 135.139798 
L 161.117647 128.959391 
L 163.106952 124.467694 
L 165.096257 121.741561 
L 167.085561 120.827637 
L 169.074866 121.741561 
L 171.064171 124.467694 
L 173.053476 128.959391 
L 175.042781 135.139798 
L 177.032086 142.903168 
L 179.02139 152.116665 
L 181.010695 162.622646 
L 183 174.241349 
L 186.97861 200.006089 
L 190.957219 227.65506 
L 238.700535 227.65506 
L 312.304813 185.83202 
L 314.294118 227.65506 
L 332.197861 227.65506 
L 334.187166 169.199265 
L 401.823529 227.65506 
L 427.684492 227.65506 
L 429.673797 203.276943 
L 431.663102 203.819519 
L 433.652406 205.423092 
L 435.641711 208.016285 
L 437.631016 211.483663 
L 439.620321 215.670885 
L 441.609626 220.391561 
L 447.57754 235.591026 
L 449.566845 240.250441 
L 451.55615 244.349193 
L 453.545455 247.704835 
L 455.534759 250.167995 
L 457.524064 251.62903 
L 459.513369 252.022904 
L 461.502674 251.332085 
L 463.491979 249.587324 
L 465.481283 246.866285 
L 467.470588 243.290091 
L 469.459893 239.017931 
L 471.449198 234.239971 
L 477.417112 219.053317 
L 479.406417 214.459092 
L 481.395722 210.452262 
L 483.385027 227.65506 
L 523.171123 227.65506 
L 525.160428 204.531158 
L 584.839572 204.531158 
L 586.828877 227.65506 
L 622.636364 227.65506 
L 622.636364 227.65506 
" clip-path="url(#p704b92f95b)" style="fill: none; stroke: #8c8c8c; stroke-width: 3; stroke-linecap: round"/>
   </g>
   <g id="line2d_20">
    <path d="M 115.363636 227.65506 
L 129.28877 227.65506 
L 131.278075 164.63777 
L 224.775401 164.63777 
L 226.764706 227.65506 
L 228.754011 227.65506 
L 258.593583 91.909474 
L 260.582888 91.909474 
L 290.42246 227.65506 
L 324.240642 227.65506 
L 326.229947 180.187434 
L 328.219251 180.685345 
L 330.208556 182.16863 
L 332.197861 184.606172 
L 334.187166 187.946834 
L 336.176471 192.120533 
L 338.165775 197.039709 
L 340.15508 202.601162 
L 342.144385 208.688219 
L 346.122995 221.919999 
L 352.090909 242.306585 
L 354.080214 248.675279 
L 356.069519 254.602991 
L 358.058824 259.965364 
L 360.048128 264.649901 
L 362.037433 268.558326 
L 364.026738 271.608643 
L 366.016043 273.736861 
L 368.005348 274.898331 
L 369.994652 275.068688 
L 371.983957 274.244357 
L 373.973262 272.442632 
L 375.962567 269.701311 
L 377.951872 266.077904 
L 379.941176 261.648427 
L 381.930481 256.505805 
L 383.919786 250.757925 
L 385.909091 227.65506 
L 423.705882 227.65506 
L 517.203209 140.769683 
L 519.192513 227.65506 
L 521.181818 227.65506 
L 531.128342 231.735279 
L 537.096257 233.994054 
L 543.064171 235.998783 
L 547.042781 237.153938 
L 551.02139 238.139585 
L 555 238.938136 
L 558.97861 239.53534 
L 562.957219 239.92054 
L 566.935829 240.086863 
L 570.914439 240.031339 
L 574.893048 239.754961 
L 578.871658 239.262659 
L 582.850267 238.56322 
L 586.828877 237.669124 
L 590.807487 236.596327 
L 596.775401 234.694734 
L 602.743316 232.511014 
L 610.700535 229.312983 
L 614.679144 227.65506 
L 622.636364 227.65506 
L 622.636364 227.65506 
" clip-path="url(#p704b92f95b)" style="fill: none; stroke: #ccb974; stroke-width: 3; stroke-linecap: round"/>
   </g>
   <g id="line2d_21">
    <path d="M 115.363636 227.65506 
L 169.074866 227.65506 
L 171.064171 160.349341 
L 173.053476 160.465691 
L 175.042781 160.814339 
L 177.032086 161.39408 
L 179.02139 162.202908 
L 181.010695 163.238028 
L 183 164.495861 
L 184.989305 165.972058 
L 186.97861 167.661515 
L 188.967914 169.558391 
L 190.957219 171.656129 
L 192.946524 173.947475 
L 196.925134 179.078662 
L 200.903743 184.881053 
L 204.882353 191.274474 
L 208.860963 198.170582 
L 212.839572 205.474092 
L 218.807487 216.971283 
L 222.786096 224.842921 
L 224.775401 227.65506 
L 260.582888 227.65506 
L 268.540107 204.794697 
L 272.518717 194.035888 
L 276.497326 184.065084 
L 278.486631 179.449092 
L 280.475936 175.115992 
L 282.465241 171.091212 
L 284.454545 167.398371 
L 286.44385 164.059141 
L 288.433155 161.093116 
L 290.42246 158.517704 
L 292.411765 156.348017 
L 294.40107 154.596788 
L 296.390374 153.274294 
L 298.379679 152.388296 
L 300.368984 151.943994 
L 302.358289 151.943994 
L 304.347594 152.388296 
L 306.336898 153.274294 
L 308.326203 154.596788 
L 310.315508 156.348017 
L 312.304813 158.517704 
L 314.294118 161.093116 
L 316.283422 164.059141 
L 318.272727 167.398371 
L 320.262032 171.091212 
L 322.251337 175.115992 
L 324.240642 179.449092 
L 328.219251 188.936879 
L 332.197861 199.332187 
L 336.176471 210.39136 
L 342.144385 227.65506 
L 348.112299 227.65506 
L 350.101604 126.198027 
L 423.705882 227.65506 
L 439.620321 227.65506 
L 515.213904 210.405874 
L 517.203209 227.65506 
L 527.149733 227.65506 
L 529.139037 227.260854 
L 606.721925 227.260854 
L 608.71123 227.65506 
L 622.636364 227.65506 
L 622.636364 227.65506 
" clip-path="url(#p704b92f95b)" style="fill: none; stroke: #64b5cd; stroke-width: 3; stroke-linecap: round"/>
   </g>
   <g id="line2d_22">
    <path d="M 115.363636 227.65506 
L 147.192513 227.65506 
L 149.181818 133.603429 
L 151.171123 133.765757 
L 153.160428 134.25218 
L 155.149733 135.061021 
L 157.139037 136.189486 
L 159.128342 137.63368 
L 161.117647 139.388618 
L 163.106952 141.448243 
L 165.096257 143.805444 
L 167.085561 146.452085 
L 169.074866 149.37903 
L 171.064171 152.576175 
L 173.053476 156.032485 
L 177.032086 163.674019 
L 181.010695 172.198214 
L 184.989305 181.487473 
L 188.967914 191.413643 
L 194.935829 207.195616 
L 202.893048 229.137027 
L 210.850267 250.99694 
L 216.818182 266.61319 
L 220.796791 276.38167 
L 224.775401 285.477934 
L 226.764706 289.73436 
L 228.754011 227.65506 
L 244.668449 227.65506 
L 250.636364 211.754149 
L 254.614973 201.877859 
L 256.604278 197.311693 
L 258.593583 193.056891 
L 260.582888 189.157112 
L 262.572193 185.652375 
L 264.561497 182.578643 
L 266.550802 179.967455 
L 268.540107 177.845607 
L 270.529412 176.234871 
L 272.518717 175.151776 
L 274.508021 174.607435 
L 276.497326 174.607435 
L 278.486631 175.151776 
L 280.475936 176.234871 
L 282.465241 177.845607 
L 284.454545 179.967455 
L 286.44385 182.578643 
L 288.433155 185.652375 
L 290.42246 189.157112 
L 292.411765 193.056891 
L 294.40107 197.311693 
L 298.379679 206.708534 
L 302.358289 216.962929 
L 306.336898 227.65506 
L 338.165775 227.65506 
L 340.15508 105.246927 
L 427.684492 227.65506 
L 435.641711 227.65506 
L 473.438503 211.406025 
L 475.427807 211.406025 
L 513.224599 227.65506 
L 529.139037 227.65506 
L 531.128342 155.067196 
L 586.828877 155.067196 
L 588.818182 227.65506 
L 622.636364 227.65506 
L 622.636364 227.65506 
" clip-path="url(#p704b92f95b)" style="fill: none; stroke: #4c72b0; stroke-width: 3; stroke-linecap: round"/>
   </g>
   <g id="line2d_23">
    <path d="M 115.363636 227.65506 
L 167.085561 227.65506 
L 169.074866 195.521581 
L 175.042781 195.678794 
L 181.010695 196.148895 
L 186.97861 196.927285 
L 192.946524 198.006346 
L 198.914439 199.37552 
L 204.882353 201.02141 
L 210.850267 202.927911 
L 216.818182 205.076367 
L 222.786096 207.445755 
L 228.754011 210.012892 
L 236.71123 213.699686 
L 244.668449 217.629086 
L 254.614973 222.777631 
L 256.604278 227.65506 
L 260.582888 227.65506 
L 268.540107 222.428738 
L 272.518717 220.004065 
L 276.497326 217.799497 
L 280.475936 215.878456 
L 284.454545 214.296206 
L 288.433155 213.098266 
L 292.411765 212.319099 
L 294.40107 212.09405 
L 296.390374 211.981119 
L 298.379679 211.981119 
L 300.368984 212.09405 
L 304.347594 212.654643 
L 308.326203 213.646771 
L 312.304813 215.041892 
L 316.283422 216.79987 
L 320.262032 218.870133 
L 324.240642 221.193122 
L 330.208556 225.003763 
L 334.187166 227.65506 
L 350.101604 227.65506 
L 352.090909 130.382754 
L 415.748663 227.65506 
L 443.59893 227.65506 
L 475.427807 176.075562 
L 477.417112 176.075562 
L 509.245989 227.65506 
L 533.117647 227.65506 
L 535.106952 188.532988 
L 586.828877 188.532988 
L 588.818182 227.65506 
L 622.636364 227.65506 
L 622.636364 227.65506 
" clip-path="url(#p704b92f95b)" style="fill: none; stroke: #dd8452; stroke-width: 3; stroke-linecap: round"/>
   </g>
   <g id="line2d_24">
    <path d="M 115.363636 227.65506 
L 117.352941 227.65506 
L 119.342246 126.314517 
L 192.946524 126.314517 
L 194.935829 227.65506 
L 218.807487 227.65506 
L 220.796791 139.232438 
L 316.283422 227.65506 
L 320.262032 227.65506 
L 322.251337 138.622127 
L 330.208556 138.750576 
L 338.165775 139.135552 
L 346.122995 139.775944 
L 354.080214 140.669904 
L 362.037433 141.814853 
L 369.994652 143.207487 
L 377.951872 144.843788 
L 385.909091 146.719035 
L 393.86631 148.827816 
L 401.823529 151.164046 
L 409.780749 153.720986 
L 411.770053 227.65506 
L 423.705882 227.65506 
L 497.31016 157.527739 
L 499.299465 227.65506 
L 525.160428 227.65506 
L 564.946524 137.893128 
L 566.935829 137.893128 
L 606.721925 227.65506 
L 622.636364 227.65506 
L 622.636364 227.65506 
" clip-path="url(#p704b92f95b)" style="fill: none; stroke: #55a868; stroke-width: 3; stroke-linecap: round"/>
   </g>
   <g id="line2d_25">
    <path d="M 115.363636 227.65506 
L 167.085561 227.65506 
L 169.074866 141.865916 
L 240.68984 141.865916 
L 242.679144 227.65506 
L 260.582888 227.65506 
L 322.251337 156.870254 
L 324.240642 227.65506 
L 350.101604 227.65506 
L 352.090909 150.366839 
L 354.080214 151.082054 
L 356.069519 153.214464 
L 358.058824 156.724601 
L 360.048128 161.547502 
L 362.037433 167.593905 
L 364.026738 174.751905 
L 366.016043 182.889023 
L 368.005348 191.85466 
L 371.983957 211.595491 
L 379.941176 253.085494 
L 381.930481 262.756234 
L 383.919786 271.777331 
L 385.909091 279.981823 
L 387.898396 287.217865 
L 389.887701 293.351534 
L 391.877005 298.269308 
L 393.86631 301.880172 
L 395.855615 304.117296 
L 397.84492 304.939276 
L 399.834225 304.330899 
L 401.823529 302.303425 
L 403.812834 298.894378 
L 405.802139 294.166851 
L 407.791444 288.20834 
L 409.780749 281.129125 
L 411.770053 273.060225 
L 413.759358 264.150977 
L 415.748663 254.566273 
L 417.737968 227.65506 
L 443.59893 227.65506 
L 451.55615 205.282156 
L 455.534759 194.752761 
L 459.513369 184.994568 
L 461.502674 180.477005 
L 463.491979 176.236301 
L 465.481283 172.297343 
L 467.470588 168.683246 
L 469.459893 165.415219 
L 471.449198 162.51244 
L 473.438503 159.991944 
L 475.427807 157.868522 
L 477.417112 156.154635 
L 479.406417 154.860341 
L 481.395722 153.993236 
L 483.385027 153.558407 
L 485.374332 153.558407 
L 487.363636 153.993236 
L 489.352941 154.860341 
L 491.342246 156.154635 
L 493.331551 157.868522 
L 495.320856 159.991944 
L 497.31016 162.51244 
L 499.299465 165.415219 
L 501.28877 168.683246 
L 503.278075 172.297343 
L 505.26738 176.236301 
L 507.256684 180.477005 
L 511.235294 189.76248 
L 515.213904 199.936126 
L 519.192513 210.75948 
L 525.160428 227.65506 
L 535.106952 227.65506 
L 556.989305 90.46744 
L 558.97861 90.46744 
L 580.860963 227.65506 
L 622.636364 227.65506 
L 622.636364 227.65506 
" clip-path="url(#p704b92f95b)" style="fill: none; stroke: #c44e52; stroke-width: 3; stroke-linecap: round"/>
   </g>
   <g id="line2d_26">
    <path d="M 115.363636 227.65506 
L 133.26738 227.65506 
L 196.925134 164.783072 
L 198.914439 227.65506 
L 228.754011 227.65506 
L 230.743316 188.837534 
L 316.283422 227.65506 
L 328.219251 227.65506 
L 334.187166 215.910693 
L 338.165775 208.616094 
L 340.15508 205.243537 
L 342.144385 202.100952 
L 344.13369 199.220588 
L 346.122995 196.631999 
L 348.112299 194.361749 
L 350.101604 192.433133 
L 352.090909 190.865942 
L 354.080214 189.676257 
L 356.069519 188.876286 
L 358.058824 188.474238 
L 360.048128 188.474238 
L 362.037433 188.876286 
L 364.026738 189.676257 
L 366.016043 190.865942 
L 368.005348 192.433133 
L 369.994652 194.361749 
L 371.983957 196.631999 
L 373.973262 199.220588 
L 375.962567 202.100952 
L 377.951872 205.243537 
L 381.930481 212.184017 
L 385.909091 219.757883 
L 389.887701 227.65506 
L 423.705882 227.65506 
L 425.695187 174.487444 
L 429.673797 174.630419 
L 433.652406 175.058573 
L 437.631016 175.769605 
L 441.609626 176.759689 
L 445.588235 178.023502 
L 449.566845 179.554246 
L 453.545455 181.343689 
L 457.524064 183.382205 
L 461.502674 185.658832 
L 465.481283 188.161326 
L 469.459893 190.876227 
L 473.438503 193.788934 
L 479.406417 198.494342 
L 485.374332 203.552428 
L 491.342246 208.902018 
L 499.299465 216.37602 
L 511.235294 227.989672 
L 519.192513 235.757985 
L 521.181818 227.65506 
L 523.171123 227.65506 
L 556.989305 123.540275 
L 558.97861 123.540275 
L 592.796791 227.65506 
L 622.636364 227.65506 
L 622.636364 227.65506 
" clip-path="url(#p704b92f95b)" style="fill: none; stroke: #8172b3; stroke-width: 3; stroke-linecap: round"/>
   </g>
   <g id="line2d_27">
    <path d="M 115.363636 227.65506 
L 127.299465 227.65506 
L 129.28877 109.728169 
L 188.967914 227.65506 
L 228.754011 227.65506 
L 300.368984 244.416917 
L 302.358289 227.65506 
L 326.229947 227.65506 
L 328.219251 79.600319 
L 417.737968 79.600319 
L 419.727273 227.65506 
L 427.684492 227.65506 
L 465.481283 119.865781 
L 467.470588 119.865781 
L 505.26738 227.65506 
L 525.160428 227.65506 
L 527.149733 85.897201 
L 529.139037 86.611928 
L 531.128342 88.748903 
L 533.117647 92.286575 
L 535.106952 97.189274 
L 537.096257 103.407559 
L 539.085561 110.878729 
L 541.074866 119.527445 
L 543.064171 129.266495 
L 545.053476 139.997673 
L 547.042781 151.612769 
L 551.02139 177.018485 
L 555 204.461483 
L 564.946524 274.655173 
L 568.925134 300.400282 
L 570.914439 312.235889 
L 572.903743 323.218601 
L 574.893048 333.237673 
L 576.882353 342.192073 
L 578.871658 349.991508 
L 580.860963 356.557329 
L 582.850267 361.823329 
L 584.839572 365.736407 
L 586.828877 368.257103 
L 588.818182 369.36 
L 590.807487 369.033976 
L 592.796791 367.282319 
L 594.786096 364.122692 
L 596.775401 359.586957 
L 598.764706 353.72085 
L 600.754011 346.583523 
L 602.743316 338.246949 
L 604.73262 328.795191 
L 606.721925 318.323559 
L 608.71123 306.937646 
L 612.68984 281.890292 
L 616.668449 254.660869 
L 618.657754 240.567995 
L 620.647059 227.65506 
L 622.636364 227.65506 
L 622.636364 227.65506 
" clip-path="url(#p704b92f95b)" style="fill: none; stroke: #937860; stroke-width: 3; stroke-linecap: round"/>
   </g>
   <g id="line2d_28">
    <path d="M 115.363636 227.65506 
L 177.032086 227.65506 
L 210.850267 171.953113 
L 212.839572 171.953113 
L 246.657754 227.65506 
L 264.561497 227.65506 
L 266.550802 77.125093 
L 336.176471 227.65506 
L 354.080214 227.65506 
L 356.069519 171.752677 
L 403.812834 171.752677 
L 405.802139 227.65506 
L 443.59893 227.65506 
L 445.588235 129.722452 
L 447.57754 131.385778 
L 449.566845 136.319254 
L 451.55615 144.355297 
L 453.545455 155.220931 
L 455.534759 168.547064 
L 457.524064 183.881024 
L 461.502674 218.438411 
L 465.481283 254.237476 
L 467.470588 271.084015 
L 469.459893 286.455325 
L 471.449198 299.829262 
L 473.438503 310.751528 
L 475.427807 318.851109 
L 477.417112 323.852871 
L 479.406417 325.58691 
L 481.395722 323.994324 
L 483.385027 319.12921 
L 485.374332 311.15683 
L 487.363636 300.347997 
L 489.352941 287.069873 
L 491.342246 271.7735 
L 495.320856 237.255311 
L 497.31016 219.206037 
L 499.299465 227.65506 
L 535.106952 227.65506 
L 541.074866 215.138401 
L 545.053476 207.19444 
L 549.032086 199.839093 
L 551.02139 196.449108 
L 553.010695 193.283961 
L 555 190.36646 
L 556.989305 187.717623 
L 558.97861 185.356537 
L 560.967914 183.300213 
L 562.957219 181.563466 
L 564.946524 180.15881 
L 566.935829 179.096366 
L 568.925134 178.383789 
L 570.914439 178.026212 
L 572.903743 178.026212 
L 574.893048 178.383789 
L 576.882353 179.096366 
L 578.871658 180.15881 
L 580.860963 181.563466 
L 582.850267 183.300213 
L 584.839572 185.356537 
L 586.828877 187.717623 
L 588.818182 190.36646 
L 590.807487 193.283961 
L 592.796791 196.449108 
L 596.775401 203.429494 
L 600.754011 211.106805 
L 606.721925 223.442444 
L 608.71123 227.65506 
L 622.636364 227.65506 
L 622.636364 227.65506 
" clip-path="url(#p704b92f95b)" style="fill: none; stroke: #da8bc3; stroke-width: 3; stroke-linecap: round"/>
   </g>
   <g id="line2d_29">
    <path d="M 115.363636 227.65506 
L 131.278075 227.65506 
L 220.796791 204.526732 
L 222.786096 227.65506 
L 226.764706 227.65506 
L 228.754011 66.96 
L 324.240642 227.65506 
L 326.229947 227.65506 
L 362.037433 163.828189 
L 364.026738 163.828189 
L 399.834225 227.65506 
L 423.705882 227.65506 
L 429.673797 207.143733 
L 433.652406 194.403845 
L 435.641711 188.513734 
L 437.631016 183.025266 
L 439.620321 177.994761 
L 441.609626 173.473837 
L 443.59893 169.508885 
L 445.588235 166.140592 
L 447.57754 163.403521 
L 449.566845 161.325758 
L 451.55615 159.928623 
L 453.545455 159.226453 
L 455.534759 159.226453 
L 457.524064 159.928623 
L 459.513369 161.325758 
L 461.502674 163.403521 
L 463.491979 166.140592 
L 465.481283 169.508885 
L 467.470588 173.473837 
L 469.459893 177.994761 
L 471.449198 183.025266 
L 473.438503 188.513734 
L 477.417112 200.635158 
L 481.395722 213.862781 
L 485.374332 227.65506 
L 519.192513 227.65506 
L 521.181818 122.056661 
L 574.893048 122.056661 
L 576.882353 227.65506 
L 622.636364 227.65506 
L 622.636364 227.65506 
" clip-path="url(#p704b92f95b)" style="fill: none; stroke: #8c8c8c; stroke-width: 3; stroke-linecap: round"/>
   </g>
   <g id="line2d_30">
    <path d="M 115.363636 227.65506 
L 159.128342 227.65506 
L 161.117647 171.996966 
L 236.71123 171.996966 
L 238.700535 227.65506 
L 250.636364 227.65506 
L 252.625668 232.081565 
L 256.604278 231.92773 
L 260.582888 231.476915 
L 264.561497 230.760457 
L 268.540107 229.828153 
L 274.508021 228.16975 
L 284.454545 225.362217 
L 288.433155 224.452362 
L 292.411765 223.765116 
L 296.390374 223.348246 
L 300.368984 223.230728 
L 304.347594 223.420731 
L 308.326203 223.905047 
L 312.304813 224.650014 
L 316.283422 225.603852 
L 320.262032 226.700262 
L 322.251337 227.65506 
L 342.144385 227.65506 
L 344.13369 142.984494 
L 417.737968 227.65506 
L 435.641711 227.65506 
L 497.31016 204.781005 
L 499.299465 227.65506 
L 527.149733 227.65506 
L 562.957219 140.115867 
L 564.946524 140.115867 
L 600.754011 227.65506 
L 622.636364 227.65506 
L 622.636364 227.65506 
" clip-path="url(#p704b92f95b)" style="fill: none; stroke: #ccb974; stroke-width: 3; stroke-linecap: round"/>
   </g>
   <g id="line2d_31">
    <path d="M 115.363636 227.65506 
L 133.26738 227.65506 
L 135.256684 207.514785 
L 137.245989 207.634535 
L 139.235294 207.99236 
L 141.224599 208.584005 
L 143.213904 209.402435 
L 145.203209 210.437917 
L 147.192513 211.678137 
L 149.181818 213.108348 
L 151.171123 214.711543 
L 155.149733 218.358792 
L 159.128342 222.446916 
L 173.053476 237.348833 
L 177.032086 240.940652 
L 179.02139 242.509851 
L 181.010695 243.902404 
L 183 245.10175 
L 184.989305 246.093629 
L 186.97861 246.866243 
L 188.967914 247.410407 
L 190.957219 247.719649 
L 192.946524 247.790291 
L 194.935829 247.621495 
L 196.925134 247.215266 
L 198.914439 246.576436 
L 200.903743 245.712601 
L 202.893048 244.634034 
L 204.882353 243.35356 
L 206.871658 241.886407 
L 208.860963 240.250021 
L 212.839572 236.549168 
L 216.818182 232.426513 
L 222.786096 225.882545 
L 224.775401 227.65506 
L 232.73262 227.65506 
L 256.604278 205.35381 
L 258.593583 205.35381 
L 282.465241 227.65506 
L 328.219251 227.65506 
L 330.208556 182.0351 
L 423.705882 182.0351 
L 425.695187 227.65506 
L 427.684492 227.65506 
L 433.652406 203.214323 
L 437.631016 187.702495 
L 441.609626 173.340029 
L 443.59893 166.72055 
L 445.588235 160.540107 
L 447.57754 154.843228 
L 449.566845 149.67096 
L 451.55615 145.06057 
L 453.545455 141.045274 
L 455.534759 137.654004 
L 457.524064 134.911194 
L 459.513369 132.836606 
L 461.502674 131.445186 
L 463.491979 130.746961 
L 465.481283 130.746961 
L 467.470588 131.445186 
L 469.459893 132.836606 
L 471.449198 134.911194 
L 473.438503 137.654004 
L 475.427807 141.045274 
L 477.417112 145.06057 
L 479.406417 149.67096 
L 481.395722 154.843228 
L 483.385027 160.540107 
L 485.374332 166.72055 
L 487.363636 173.340029 
L 491.342246 187.702495 
L 495.320856 203.214323 
L 501.28877 227.65506 
L 525.160428 227.65506 
L 584.839572 201.454769 
L 586.828877 227.65506 
L 622.636364 227.65506 
L 622.636364 227.65506 
" clip-path="url(#p704b92f95b)" style="fill: none; stroke: #64b5cd; stroke-width: 3; stroke-linecap: round"/>
   </g>
   <g id="patch_3">
    <path d="M 90 384.48 
L 90 51.84 
" style="fill: none; stroke: #ffffff; stroke-width: 1.25; stroke-linejoin: miter; stroke-linecap: square"/>
   </g>
   <g id="patch_4">
    <path d="M 648 384.48 
L 648 51.84 
" style="fill: none; stroke: #ffffff; stroke-width: 1.25; stroke-linejoin: miter; stroke-linecap: square"/>
   </g>
   <g id="patch_5">
    <path d="M 90 384.48 
L 648 384.48 
" style="fill: none; stroke: #ffffff; stroke-width: 1.25; stroke-linejoin: miter; stroke-linecap: square"/>
   </g>
   <g id="patch_6">
    <path d="M 90 51.84 
L 648 51.84 
" style="fill: none; stroke: #ffffff; stroke-width: 1.25; stroke-linejoin: miter; stroke-linecap: square"/>
   </g>
   <g id="text_14">
    <!-- Illustration of Stochasticity in Signal Generation -->
    <g style="fill: #262626" transform="translate(78.383939 45.84) scale(0.3 -0.3)">
     <defs>
      <path id="CMR17-49" d="M 1261 3898 
C 1261 4185 1338 4185 1798 4185 
L 1798 4352 
C 1594 4339 1267 4339 1050 4339 
C 832 4339 506 4339 301 4352 
L 301 4185 
C 762 4185 838 4185 838 3898 
L 838 453 
C 838 166 762 166 301 166 
L 301 0 
C 506 12 832 12 1050 12 
C 1267 12 1594 12 1798 0 
L 1798 166 
C 1338 166 1261 166 1261 453 
L 1261 3898 
z
" transform="scale(0.015625)"/>
      <path id="CMR17-73" d="M 1978 2688 
C 1978 2803 1971 2809 1933 2809 
C 1907 2809 1901 2803 1824 2707 
C 1805 2681 1747 2617 1728 2592 
C 1523 2809 1235 2816 1126 2816 
C 416 2816 160 2444 160 2073 
C 160 1497 813 1363 998 1324 
C 1402 1241 1542 1216 1677 1100 
C 1760 1024 1901 883 1901 652 
C 1901 384 1747 38 1158 38 
C 602 38 403 460 288 1024 
C 269 1113 269 1120 218 1120 
C 166 1120 160 1113 160 985 
L 160 64 
C 160 -52 166 -58 205 -58 
C 237 -58 243 -52 275 0 
C 314 57 410 211 448 275 
C 576 102 800 -64 1158 -64 
C 1792 -64 2131 281 2131 780 
C 2131 1107 1958 1280 1875 1356 
C 1683 1555 1459 1600 1190 1651 
C 838 1728 390 1817 390 2208 
C 390 2374 480 2726 1126 2726 
C 1811 2726 1850 2086 1862 1881 
C 1869 1849 1901 1843 1920 1843 
C 1978 1843 1978 1862 1978 1971 
L 1978 2688 
z
" transform="scale(0.015625)"/>
      <path id="CMR17-72" d="M 960 1517 
C 960 2134 1222 2713 1702 2713 
C 1747 2713 1792 2707 1837 2687 
C 1837 2687 1696 2642 1696 2475 
C 1696 2321 1818 2257 1914 2257 
C 1990 2257 2131 2302 2131 2482 
C 2131 2687 1926 2816 1709 2816 
C 1222 2816 1011 2340 947 2115 
L 941 2115 
L 941 2816 
L 198 2745 
L 198 2578 
C 576 2578 634 2540 634 2231 
L 634 443 
C 634 198 608 166 198 166 
L 198 0 
C 352 12 646 12 813 12 
C 998 12 1325 12 1498 0 
L 1498 166 
C 1037 166 960 166 960 455 
L 960 1517 
z
" transform="scale(0.015625)"/>
      <path id="CMR17-61" d="M 2304 1656 
C 2304 2048 2304 2275 2035 2534 
C 1798 2751 1523 2816 1306 2816 
C 800 2816 435 2408 435 1977 
C 435 1740 627 1728 666 1728 
C 749 1728 896 1779 896 1958 
C 896 2118 774 2188 666 2188 
C 640 2188 608 2182 589 2176 
C 723 2594 1069 2713 1293 2713 
C 1613 2713 1965 2421 1965 1875 
L 1965 1632 
C 1587 1619 1133 1568 774 1373 
C 371 1147 256 822 256 576 
C 256 77 832 -64 1171 -64 
C 1523 -64 1850 135 1990 505 
C 2003 219 2182 -39 2464 -39 
C 2598 -39 2938 51 2938 563 
L 2938 926 
L 2822 926 
L 2822 557 
C 2822 161 2650 109 2566 109 
C 2304 109 2304 446 2304 732 
L 2304 1656 
z
M 1965 887 
C 1965 323 1568 38 1216 38 
C 896 38 646 278 646 576 
C 646 771 730 1114 1101 1322 
C 1408 1497 1760 1523 1965 1536 
L 1965 887 
z
" transform="scale(0.015625)"/>
      <path id="CMR17-6f" d="M 2758 1356 
C 2758 2176 2163 2816 1466 2816 
C 768 2816 173 2176 173 1356 
C 173 550 768 -64 1466 -64 
C 2163 -64 2758 550 2758 1356 
z
M 1466 51 
C 1165 51 909 230 762 480 
C 602 768 582 1126 582 1408 
C 582 1676 595 2009 762 2297 
C 890 2508 1139 2713 1466 2713 
C 1754 2713 1997 2553 2150 2329 
C 2349 2028 2349 1606 2349 1408 
C 2349 1158 2336 774 2163 467 
C 1984 172 1709 51 1466 51 
z
" transform="scale(0.015625)"/>
      <path id="CMR17-6e" d="M 2656 1954 
C 2656 2282 2592 2816 1837 2816 
C 1331 2816 1069 2424 973 2166 
L 966 2166 
L 966 2816 
L 211 2745 
L 211 2578 
C 589 2578 646 2540 646 2231 
L 646 443 
C 646 198 621 166 211 166 
L 211 0 
C 365 12 646 12 813 12 
C 979 12 1267 12 1421 0 
L 1421 166 
C 1011 166 986 192 986 443 
L 986 1678 
C 986 2269 1344 2713 1792 2713 
C 2266 2713 2317 2289 2317 1980 
L 2317 443 
C 2317 198 2291 166 1882 166 
L 1882 0 
C 2035 12 2317 12 2483 12 
C 2650 12 2938 12 3091 0 
L 3091 166 
C 2682 166 2656 192 2656 443 
L 2656 1954 
z
" transform="scale(0.015625)"/>
      <path id="CMR17-66" d="M 979 2585 
L 1709 2585 
L 1709 2752 
L 966 2752 
L 966 3539 
C 966 4076 1235 4377 1510 4377 
C 1594 4377 1690 4363 1754 4339 
C 1702 4326 1568 4281 1568 4121 
C 1568 3955 1696 3904 1786 3904 
C 1875 3904 2003 3955 2003 4121 
C 2003 4353 1773 4480 1517 4480 
C 1152 4480 653 4211 653 3526 
L 653 2752 
L 141 2752 
L 141 2585 
L 653 2585 
L 653 441 
C 653 198 627 166 218 166 
L 218 0 
C 371 12 666 12 832 12 
C 1018 12 1344 12 1517 0 
L 1517 166 
C 1056 166 979 166 979 454 
L 979 2585 
z
" transform="scale(0.015625)"/>
      <path id="CMR17-53" d="M 2803 4351 
C 2803 4467 2797 4473 2758 4473 
C 2720 4473 2707 4447 2682 4390 
L 2490 3965 
C 2246 4320 1875 4480 1472 4480 
C 819 4480 294 3958 294 3301 
C 294 3101 339 2817 557 2546 
C 794 2250 1018 2198 1530 2063 
C 1722 2011 2042 1927 2106 1901 
C 2470 1747 2662 1360 2662 999 
C 2662 534 2336 38 1779 38 
C 1094 38 454 425 410 1328 
C 403 1431 397 1437 352 1437 
C 301 1437 294 1431 294 1302 
L 294 0 
C 294 -116 301 -122 339 -122 
C 384 -122 397 -90 486 109 
C 493 128 493 141 614 386 
C 934 -39 1472 -128 1779 -128 
C 2477 -128 2970 457 2970 1141 
C 2970 1476 2848 1734 2778 1850 
C 2509 2263 2221 2340 1914 2417 
C 1869 2437 1856 2437 1498 2527 
C 1152 2617 1005 2662 845 2836 
C 666 3036 602 3243 602 3449 
C 602 3868 934 4326 1478 4326 
C 2157 4326 2579 3842 2675 3036 
C 2694 2920 2701 2914 2746 2914 
C 2803 2914 2803 2933 2803 3043 
L 2803 4351 
z
" transform="scale(0.015625)"/>
      <path id="CMR17-63" d="M 2234 2240 
C 2112 2240 1933 2240 1933 2015 
C 1933 1836 2080 1785 2163 1785 
C 2208 1785 2394 1804 2394 2028 
C 2394 2476 1958 2816 1466 2816 
C 787 2816 211 2201 211 1379 
C 211 521 813 -64 1466 -64 
C 2259 -64 2458 676 2458 747 
C 2458 773 2451 792 2406 792 
C 2362 792 2355 786 2330 702 
C 2163 180 1798 51 1523 51 
C 1114 51 621 431 621 1385 
C 621 2358 1094 2700 1472 2700 
C 1722 2700 2093 2582 2234 2240 
z
" transform="scale(0.015625)"/>
      <path id="CMR17-68" d="M 2656 1954 
C 2656 2282 2592 2816 1837 2816 
C 1312 2816 1056 2392 979 2179 
L 973 2179 
L 973 4416 
L 211 4345 
L 211 4179 
C 589 4179 646 4141 646 3843 
L 646 443 
C 646 198 621 166 211 166 
L 211 0 
C 365 12 646 12 813 12 
C 979 12 1267 12 1421 0 
L 1421 166 
C 1011 166 986 192 986 443 
L 986 1678 
C 986 2269 1344 2713 1792 2713 
C 2266 2713 2317 2289 2317 1980 
L 2317 443 
C 2317 198 2291 166 1882 166 
L 1882 0 
C 2035 12 2317 12 2483 12 
C 2650 12 2938 12 3091 0 
L 3091 166 
C 2682 166 2656 192 2656 443 
L 2656 1954 
z
" transform="scale(0.015625)"/>
      <path id="CMR17-79" d="M 2496 2183 
C 2656 2579 2944 2585 3034 2585 
L 3034 2752 
C 2912 2745 2752 2739 2630 2739 
C 2496 2739 2285 2739 2157 2752 
L 2157 2585 
C 2400 2566 2406 2384 2406 2332 
C 2406 2268 2394 2235 2362 2158 
L 1664 409 
L 902 2300 
C 870 2378 870 2423 870 2430 
C 870 2572 1018 2585 1171 2585 
L 1171 2752 
C 1018 2739 742 2739 582 2739 
C 410 2739 205 2739 64 2752 
L 64 2585 
C 410 2585 448 2553 531 2345 
L 1485 -31 
C 1197 -795 1030 -1242 627 -1242 
C 557 -1242 397 -1223 282 -1106 
C 429 -1093 493 -1002 493 -892 
C 493 -782 416 -685 288 -685 
C 147 -685 77 -782 77 -899 
C 77 -1158 339 -1344 627 -1344 
C 998 -1344 1229 -983 1357 -659 
L 2496 2183 
z
" transform="scale(0.015625)"/>
      <path id="CMR17-67" d="M 710 1165 
C 832 1068 1043 960 1299 960 
C 1805 960 2240 1359 2240 1895 
C 2240 2063 2189 2321 1997 2521 
C 2176 2713 2438 2777 2586 2777 
C 2611 2777 2650 2777 2682 2758 
C 2656 2751 2598 2726 2598 2623 
C 2598 2540 2656 2483 2739 2483 
C 2835 2483 2886 2547 2886 2630 
C 2886 2751 2790 2880 2586 2880 
C 2330 2880 2106 2758 1926 2591 
C 1734 2764 1504 2828 1299 2828 
C 794 2828 358 2431 358 1895 
C 358 1527 570 1294 634 1230 
C 442 1004 442 742 442 710 
C 442 544 506 300 723 166 
C 390 82 128 -184 128 -517 
C 128 -996 736 -1344 1466 -1344 
C 2170 -1344 2803 -1009 2803 -510 
C 2803 384 1856 384 1363 384 
C 1216 384 954 384 922 390 
C 723 422 589 601 589 825 
C 589 883 589 1024 710 1165 
z
M 1299 1068 
C 736 1068 736 1766 736 1895 
C 736 2024 736 2719 1299 2719 
C 1862 2719 1862 2024 1862 1895 
C 1862 1766 1862 1068 1299 1068 
z
M 1466 -1236 
C 826 -1236 384 -883 384 -517 
C 384 -311 493 -118 634 -11 
C 794 102 858 102 1293 102 
C 1818 102 2547 102 2547 -517 
C 2547 -883 2106 -1236 1466 -1236 
z
" transform="scale(0.015625)"/>
      <path id="CMR17-47" d="M 3974 1258 
C 3974 1503 3994 1536 4390 1536 
L 4390 1702 
C 4237 1689 3891 1689 3718 1689 
C 3539 1689 3040 1696 2797 1702 
L 2797 1536 
L 2989 1536 
C 3539 1536 3552 1464 3552 1232 
L 3552 806 
C 3552 96 2720 38 2522 38 
C 1862 38 781 496 781 2179 
C 781 3862 1843 4313 2464 4313 
C 3187 4313 3712 3681 3834 2785 
C 3846 2708 3846 2695 3904 2695 
C 3974 2695 3974 2708 3974 2824 
L 3974 4351 
C 3974 4467 3968 4473 3930 4473 
C 3904 4473 3898 4467 3853 4390 
L 3571 3849 
C 3258 4249 2874 4480 2381 4480 
C 1286 4480 294 3507 294 2179 
C 294 858 1267 -128 2394 -128 
C 2912 -128 3418 57 3616 425 
C 3725 161 3904 -20 3936 -20 
C 3968 -20 3974 -13 3974 102 
L 3974 1258 
z
" transform="scale(0.015625)"/>
     </defs>
     <use xlink:href="#CMR17-49" transform="scale(0.996264)"/>
     <use xlink:href="#CMR17-6c" transform="translate(32.638409 0) scale(0.996264)"/>
     <use xlink:href="#CMR17-6c" transform="translate(57.509468 0) scale(0.996264)"/>
     <use xlink:href="#CMR17-75" transform="translate(82.380526 0) scale(0.996264)"/>
     <use xlink:href="#CMR17-73" transform="translate(133.275896 0) scale(0.996264)"/>
     <use xlink:href="#CMR17-74" transform="translate(169.077234 0) scale(0.996264)"/>
     <use xlink:href="#CMR17-72" transform="translate(204.358001 0) scale(0.996264)"/>
     <use xlink:href="#CMR17-61" transform="translate(239.638769 0) scale(0.996264)"/>
     <use xlink:href="#CMR17-74" transform="translate(285.329246 0) scale(0.996264)"/>
     <use xlink:href="#CMR17-69" transform="translate(320.610014 0) scale(0.996264)"/>
     <use xlink:href="#CMR17-6f" transform="translate(345.481073 0) scale(0.996264)"/>
     <use xlink:href="#CMR17-6e" transform="translate(391.17155 0) scale(0.996264)"/>
     <use xlink:href="#CMR17-6f" transform="translate(472.142886 0) scale(0.996264)"/>
     <use xlink:href="#CMR17-66" transform="translate(517.833363 0) scale(0.996264)"/>
     <use xlink:href="#CMR17-53" transform="translate(575.382842 0) scale(0.996264)"/>
     <use xlink:href="#CMR17-74" transform="translate(626.278211 0) scale(0.996264)"/>
     <use xlink:href="#CMR17-6f" transform="translate(661.558979 0) scale(0.996264)"/>
     <use xlink:href="#CMR17-63" transform="translate(709.851895 0) scale(0.996264)"/>
     <use xlink:href="#CMR17-68" transform="translate(747.735102 0) scale(0.996264)"/>
     <use xlink:href="#CMR17-61" transform="translate(798.630471 0) scale(0.996264)"/>
     <use xlink:href="#CMR17-73" transform="translate(844.320949 0) scale(0.996264)"/>
     <use xlink:href="#CMR17-74" transform="translate(880.122286 0) scale(0.996264)"/>
     <use xlink:href="#CMR17-69" transform="translate(915.403054 0) scale(0.996264)"/>
     <use xlink:href="#CMR17-63" transform="translate(940.274112 0) scale(0.996264)"/>
     <use xlink:href="#CMR17-69" transform="translate(980.759773 0) scale(0.996264)"/>
     <use xlink:href="#CMR17-74" transform="translate(1005.630831 0) scale(0.996264)"/>
     <use xlink:href="#CMR17-79" transform="translate(1038.309145 0) scale(0.996264)"/>
     <use xlink:href="#CMR17-69" transform="translate(1116.678027 0) scale(0.996264)"/>
     <use xlink:href="#CMR17-6e" transform="translate(1141.549086 0) scale(0.996264)"/>
     <use xlink:href="#CMR17-53" transform="translate(1222.520422 0) scale(0.996264)"/>
     <use xlink:href="#CMR17-69" transform="translate(1273.415792 0) scale(0.996264)"/>
     <use xlink:href="#CMR17-67" transform="translate(1298.28685 0) scale(0.996264)"/>
     <use xlink:href="#CMR17-6e" transform="translate(1343.977327 0) scale(0.996264)"/>
     <use xlink:href="#CMR17-61" transform="translate(1394.872697 0) scale(0.996264)"/>
     <use xlink:href="#CMR17-6c" transform="translate(1440.563174 0) scale(0.996264)"/>
     <use xlink:href="#CMR17-47" transform="translate(1495.510199 0) scale(0.996264)"/>
     <use xlink:href="#CMR17-65" transform="translate(1567.865545 0) scale(0.996264)"/>
     <use xlink:href="#CMR17-6e" transform="translate(1608.351206 0) scale(0.996264)"/>
     <use xlink:href="#CMR17-65" transform="translate(1659.246575 0) scale(0.996264)"/>
     <use xlink:href="#CMR17-72" transform="translate(1699.732236 0) scale(0.996264)"/>
     <use xlink:href="#CMR17-61" transform="translate(1735.013004 0) scale(0.996264)"/>
     <use xlink:href="#CMR17-74" transform="translate(1780.703481 0) scale(0.996264)"/>
     <use xlink:href="#CMR17-69" transform="translate(1815.984249 0) scale(0.996264)"/>
     <use xlink:href="#CMR17-6f" transform="translate(1840.855307 0) scale(0.996264)"/>
     <use xlink:href="#CMR17-6e" transform="translate(1886.545784 0) scale(0.996264)"/>
    </g>
   </g>
  </g>
 </g>
 <defs>
  <clipPath id="p704b92f95b">
   <rect x="90" y="51.84" width="558" height="332.64"/>
  </clipPath>
 </defs>
</svg>
