<?xml version="1.0" encoding="utf-8" standalone="no"?>
<!DOCTYPE svg PUBLIC "-//W3C//DTD SVG 1.1//EN"
  "http://www.w3.org/Graphics/SVG/1.1/DTD/svg11.dtd">
<svg xmlns:xlink="http://www.w3.org/1999/xlink" width="720pt" height="432pt" viewBox="0 0 720 432" xmlns="http://www.w3.org/2000/svg" version="1.1">
 <metadata>
  <rdf:RDF xmlns:dc="http://purl.org/dc/elements/1.1/" xmlns:cc="http://creativecommons.org/ns#" xmlns:rdf="http://www.w3.org/1999/02/22-rdf-syntax-ns#">
   <cc:Work>
    <dc:type rdf:resource="http://purl.org/dc/dcmitype/StillImage"/>
    <dc:date>2025-05-11T18:07:38.015993</dc:date>
    <dc:format>image/svg+xml</dc:format>
    <dc:creator>
     <cc:Agent>
      <dc:title>Matplotlib v3.10.0, https://matplotlib.org/</dc:title>
     </cc:Agent>
    </dc:creator>
   </cc:Work>
  </rdf:RDF>
 </metadata>
 <defs>
  <style type="text/css">*{stroke-linejoin: round; stroke-linecap: butt}</style>
 </defs>
 <g id="figure_1">
  <g id="patch_1">
   <path d="M 0 432 
L 720 432 
L 720 0 
L 0 0 
z
" style="fill: #ffffff"/>
  </g>
  <g id="axes_1">
   <g id="patch_2">
    <path d="M 90 384.48 
L 648 384.48 
L 648 51.84 
L 90 51.84 
z
" style="fill: #ffffff"/>
   </g>
   <g id="matplotlib.axis_1">
    <g id="xtick_1">
     <g id="line2d_1">
      <path d="M 115.363636 384.48 
L 115.363636 51.84 
" clip-path="url(#p273be0294c)" style="fill: none; stroke: #cccccc; stroke-linecap: round"/>
     </g>
     <g id="text_1">
      <!-- $\mathdefault{0}$ -->
      <g style="fill: #262626" transform="translate(109.081196 413.005867) scale(0.275 -0.275)">
       <defs>
        <path id="CMR17-30" d="M 2688 2038 
C 2688 2430 2682 3099 2413 3613 
C 2176 4063 1798 4224 1466 4224 
C 1158 4224 768 4082 525 3620 
C 269 3137 243 2539 243 2038 
C 243 1671 250 1112 448 623 
C 723 -39 1216 -128 1466 -128 
C 1760 -128 2208 -7 2470 604 
C 2662 1048 2688 1568 2688 2038 
z
M 1466 -26 
C 1056 -26 813 328 723 816 
C 653 1196 653 1749 653 2109 
C 653 2604 653 3015 736 3407 
C 858 3954 1216 4121 1466 4121 
C 1728 4121 2067 3947 2189 3420 
C 2272 3054 2278 2623 2278 2109 
C 2278 1691 2278 1176 2202 797 
C 2067 96 1690 -26 1466 -26 
z
" transform="scale(0.015625)"/>
       </defs>
       <use xlink:href="#CMR17-30" transform="scale(0.996264)"/>
      </g>
     </g>
    </g>
    <g id="xtick_2">
     <g id="line2d_2">
      <path d="M 214.828877 384.48 
L 214.828877 51.84 
" clip-path="url(#p273be0294c)" style="fill: none; stroke: #cccccc; stroke-linecap: round"/>
     </g>
     <g id="text_2">
      <!-- $\mathdefault{50}$ -->
      <g style="fill: #262626" transform="translate(202.263996 413.005867) scale(0.275 -0.275)">
       <defs>
        <path id="CMR17-35" d="M 730 3750 
C 794 3724 1056 3641 1325 3641 
C 1920 3641 2246 3961 2432 4140 
C 2432 4191 2432 4224 2394 4224 
C 2387 4224 2374 4224 2323 4198 
C 2099 4102 1837 4032 1517 4032 
C 1325 4032 1037 4055 723 4191 
C 653 4224 640 4224 634 4224 
C 602 4224 595 4217 595 4090 
L 595 2231 
C 595 2113 595 2080 659 2080 
C 691 2080 704 2093 736 2139 
C 941 2435 1222 2560 1542 2560 
C 1766 2560 2246 2415 2246 1293 
C 2246 1087 2246 716 2054 422 
C 1894 159 1645 25 1370 25 
C 947 25 518 319 403 812 
C 429 806 480 793 506 793 
C 589 793 749 838 749 1036 
C 749 1209 627 1280 506 1280 
C 358 1280 262 1190 262 1011 
C 262 454 704 -128 1382 -128 
C 2042 -128 2669 441 2669 1267 
C 2669 2054 2170 2662 1549 2662 
C 1222 2662 947 2540 730 2304 
L 730 3750 
z
" transform="scale(0.015625)"/>
       </defs>
       <use xlink:href="#CMR17-35" transform="scale(0.996264)"/>
       <use xlink:href="#CMR17-30" transform="translate(45.690477 0) scale(0.996264)"/>
      </g>
     </g>
    </g>
    <g id="xtick_3">
     <g id="line2d_3">
      <path d="M 314.294118 384.48 
L 314.294118 51.84 
" clip-path="url(#p273be0294c)" style="fill: none; stroke: #cccccc; stroke-linecap: round"/>
     </g>
     <g id="text_3">
      <!-- $\mathdefault{100}$ -->
      <g style="fill: #262626" transform="translate(295.446796 413.005867) scale(0.275 -0.275)">
       <defs>
        <path id="CMR17-31" d="M 1702 4083 
C 1702 4217 1696 4224 1606 4224 
C 1357 3927 979 3833 621 3820 
C 602 3820 570 3820 563 3808 
C 557 3795 557 3782 557 3648 
C 755 3648 1088 3686 1344 3839 
L 1344 467 
C 1344 243 1331 166 781 166 
L 589 166 
L 589 0 
C 896 6 1216 12 1523 12 
C 1830 12 2150 6 2458 0 
L 2458 166 
L 2266 166 
C 1715 166 1702 236 1702 467 
L 1702 4083 
z
" transform="scale(0.015625)"/>
       </defs>
       <use xlink:href="#CMR17-31" transform="scale(0.996264)"/>
       <use xlink:href="#CMR17-30" transform="translate(45.690477 0) scale(0.996264)"/>
       <use xlink:href="#CMR17-30" transform="translate(91.380954 0) scale(0.996264)"/>
      </g>
     </g>
    </g>
    <g id="xtick_4">
     <g id="line2d_4">
      <path d="M 413.759358 384.48 
L 413.759358 51.84 
" clip-path="url(#p273be0294c)" style="fill: none; stroke: #cccccc; stroke-linecap: round"/>
     </g>
     <g id="text_4">
      <!-- $\mathdefault{150}$ -->
      <g style="fill: #262626" transform="translate(394.912036 413.005867) scale(0.275 -0.275)">
       <use xlink:href="#CMR17-31" transform="scale(0.996264)"/>
       <use xlink:href="#CMR17-35" transform="translate(45.690477 0) scale(0.996264)"/>
       <use xlink:href="#CMR17-30" transform="translate(91.380954 0) scale(0.996264)"/>
      </g>
     </g>
    </g>
    <g id="xtick_5">
     <g id="line2d_5">
      <path d="M 513.224599 384.48 
L 513.224599 51.84 
" clip-path="url(#p273be0294c)" style="fill: none; stroke: #cccccc; stroke-linecap: round"/>
     </g>
     <g id="text_5">
      <!-- $\mathdefault{200}$ -->
      <g style="fill: #262626" transform="translate(494.377277 413.005867) scale(0.275 -0.275)">
       <defs>
        <path id="CMR17-32" d="M 2669 990 
L 2554 990 
C 2490 537 2438 460 2413 422 
C 2381 371 1920 371 1830 371 
L 602 371 
C 832 620 1280 1073 1824 1596 
C 2214 1966 2669 2400 2669 3033 
C 2669 3788 2067 4224 1395 4224 
C 691 4224 262 3603 262 3027 
C 262 2777 448 2745 525 2745 
C 589 2745 781 2783 781 3007 
C 781 3206 614 3264 525 3264 
C 486 3264 448 3257 422 3244 
C 544 3788 915 4057 1306 4057 
C 1862 4057 2227 3616 2227 3033 
C 2227 2477 1901 1998 1536 1583 
L 262 147 
L 262 0 
L 2515 0 
L 2669 990 
z
" transform="scale(0.015625)"/>
       </defs>
       <use xlink:href="#CMR17-32" transform="scale(0.996264)"/>
       <use xlink:href="#CMR17-30" transform="translate(45.690477 0) scale(0.996264)"/>
       <use xlink:href="#CMR17-30" transform="translate(91.380954 0) scale(0.996264)"/>
      </g>
     </g>
    </g>
    <g id="xtick_6">
     <g id="line2d_6">
      <path d="M 612.68984 384.48 
L 612.68984 51.84 
" clip-path="url(#p273be0294c)" style="fill: none; stroke: #cccccc; stroke-linecap: round"/>
     </g>
     <g id="text_6">
      <!-- $\mathdefault{250}$ -->
      <g style="fill: #262626" transform="translate(593.842518 413.005867) scale(0.275 -0.275)">
       <use xlink:href="#CMR17-32" transform="scale(0.996264)"/>
       <use xlink:href="#CMR17-35" transform="translate(45.690477 0) scale(0.996264)"/>
       <use xlink:href="#CMR17-30" transform="translate(91.380954 0) scale(0.996264)"/>
      </g>
     </g>
    </g>
    <g id="text_7">
     <!-- Time -->
     <g style="fill: #262626" transform="translate(337.682086 443.090362) scale(0.3 -0.3)">
      <defs>
       <path id="CMR17-54" d="M 3981 4332 
L 288 4332 
L 179 2924 
L 294 2924 
C 378 3981 467 4166 1453 4166 
C 1568 4166 1754 4166 1805 4159 
C 1926 4140 1926 4064 1926 3917 
L 1926 465 
C 1926 236 1907 166 1376 166 
L 1197 166 
L 1197 0 
C 1504 6 1824 12 2138 12 
C 2451 12 2771 6 3078 0 
L 3078 166 
L 2899 166 
C 2368 166 2349 236 2349 465 
L 2349 3917 
C 2349 4057 2349 4134 2464 4159 
C 2515 4166 2701 4166 2816 4166 
C 3795 4166 3891 3981 3974 2924 
L 4090 2924 
L 3981 4332 
z
" transform="scale(0.015625)"/>
       <path id="CMR17-69" d="M 992 3961 
C 992 4102 877 4224 730 4224 
C 589 4224 467 4108 467 3961 
C 467 3820 582 3699 730 3699 
C 870 3699 992 3814 992 3961 
z
M 243 2745 
L 243 2579 
C 602 2579 653 2540 653 2231 
L 653 443 
C 653 198 627 166 218 166 
L 218 0 
C 371 12 646 12 806 12 
C 960 12 1222 12 1370 0 
L 1370 166 
C 992 166 979 205 979 436 
L 979 2816 
L 243 2745 
z
" transform="scale(0.015625)"/>
       <path id="CMR17-6d" d="M 4326 1954 
C 4326 2276 4269 2816 3507 2816 
C 3072 2816 2771 2520 2656 2173 
L 2650 2173 
C 2573 2700 2195 2816 1837 2816 
C 1331 2816 1069 2424 973 2166 
L 966 2166 
L 966 2816 
L 211 2745 
L 211 2578 
C 589 2578 646 2540 646 2231 
L 646 443 
C 646 198 621 166 211 166 
L 211 0 
C 365 12 646 12 813 12 
C 979 12 1267 12 1421 0 
L 1421 166 
C 1011 166 986 192 986 443 
L 986 1678 
C 986 2269 1344 2713 1792 2713 
C 2266 2713 2317 2289 2317 1980 
L 2317 443 
C 2317 198 2291 166 1882 166 
L 1882 0 
C 2035 12 2317 12 2483 12 
C 2650 12 2938 12 3091 0 
L 3091 166 
C 2682 166 2656 192 2656 443 
L 2656 1678 
C 2656 2269 3014 2713 3462 2713 
C 3936 2713 3987 2289 3987 1980 
L 3987 443 
C 3987 198 3962 166 3552 166 
L 3552 0 
C 3706 12 3987 12 4154 12 
C 4320 12 4608 12 4762 0 
L 4762 166 
C 4352 166 4326 192 4326 443 
L 4326 1954 
z
" transform="scale(0.015625)"/>
       <path id="CMR17-65" d="M 2438 1503 
C 2464 1529 2464 1542 2464 1606 
C 2464 2251 2118 2816 1389 2816 
C 710 2816 173 2175 173 1394 
C 173 554 781 -64 1459 -64 
C 2176 -64 2458 619 2458 755 
C 2458 800 2419 800 2406 800 
C 2362 800 2355 787 2330 709 
C 2189 270 1837 51 1504 51 
C 1229 51 954 206 781 490 
C 582 819 582 1200 582 1503 
L 2438 1503 
z
M 589 1600 
C 634 2511 1126 2713 1382 2713 
C 1818 2713 2112 2308 2118 1600 
L 589 1600 
z
" transform="scale(0.015625)"/>
      </defs>
      <use xlink:href="#CMR17-54" transform="scale(0.996264)"/>
      <use xlink:href="#CMR17-69" transform="translate(66.509881 0) scale(0.996264)"/>
      <use xlink:href="#CMR17-6d" transform="translate(91.380939 0) scale(0.996264)"/>
      <use xlink:href="#CMR17-65" transform="translate(168.300529 0) scale(0.996264)"/>
     </g>
    </g>
   </g>
   <g id="matplotlib.axis_2">
    <g id="ytick_1">
     <g id="line2d_7">
      <path d="M 90 325.420644 
L 648 325.420644 
" clip-path="url(#p273be0294c)" style="fill: none; stroke: #cccccc; stroke-linecap: round"/>
     </g>
     <g id="text_8">
      <!-- $\mathdefault{−2}$ -->
      <g style="fill: #262626" transform="translate(46.626066 334.933578) scale(0.275 -0.275)">
       <defs>
        <path id="CMSY10-0" d="M 4218 1472 
C 4326 1472 4442 1472 4442 1600 
C 4442 1728 4326 1728 4218 1728 
L 755 1728 
C 646 1728 531 1728 531 1600 
C 531 1472 646 1472 755 1472 
L 4218 1472 
z
" transform="scale(0.015625)"/>
       </defs>
       <use xlink:href="#CMSY10-0" transform="scale(0.996264)"/>
       <use xlink:href="#CMR17-32" transform="translate(77.487468 0) scale(0.996264)"/>
      </g>
     </g>
    </g>
    <g id="ytick_2">
     <g id="line2d_8">
      <path d="M 90 249.23723 
L 648 249.23723 
" clip-path="url(#p273be0294c)" style="fill: none; stroke: #cccccc; stroke-linecap: round"/>
     </g>
     <g id="text_9">
      <!-- $\mathdefault{0}$ -->
      <g style="fill: #262626" transform="translate(67.935119 258.750163) scale(0.275 -0.275)">
       <use xlink:href="#CMR17-30" transform="scale(0.996264)"/>
      </g>
     </g>
    </g>
    <g id="ytick_3">
     <g id="line2d_9">
      <path d="M 90 173.053816 
L 648 173.053816 
" clip-path="url(#p273be0294c)" style="fill: none; stroke: #cccccc; stroke-linecap: round"/>
     </g>
     <g id="text_10">
      <!-- $\mathdefault{2}$ -->
      <g style="fill: #262626" transform="translate(67.935119 182.566749) scale(0.275 -0.275)">
       <use xlink:href="#CMR17-32" transform="scale(0.996264)"/>
      </g>
     </g>
    </g>
    <g id="ytick_4">
     <g id="line2d_10">
      <path d="M 90 96.870401 
L 648 96.870401 
" clip-path="url(#p273be0294c)" style="fill: none; stroke: #cccccc; stroke-linecap: round"/>
     </g>
     <g id="text_11">
      <!-- $\mathdefault{4}$ -->
      <g style="fill: #262626" transform="translate(67.935119 106.383335) scale(0.275 -0.275)">
       <defs>
        <path id="CMR17-34" d="M 2150 4147 
C 2150 4281 2144 4288 2029 4288 
L 128 1254 
L 128 1088 
L 1779 1088 
L 1779 460 
C 1779 230 1766 166 1318 166 
L 1197 166 
L 1197 0 
C 1402 12 1747 12 1965 12 
C 2182 12 2528 12 2733 0 
L 2733 166 
L 2611 166 
C 2163 166 2150 230 2150 460 
L 2150 1088 
L 2803 1088 
L 2803 1254 
L 2150 1254 
L 2150 4147 
z
M 1798 3723 
L 1798 1254 
L 256 1254 
L 1798 3723 
z
" transform="scale(0.015625)"/>
       </defs>
       <use xlink:href="#CMR17-34" transform="scale(0.996264)"/>
      </g>
     </g>
    </g>
    <g id="text_12">
     <!-- Amplitude -->
     <g style="fill: #262626" transform="translate(36.812616 281.787972) rotate(-90) scale(0.3 -0.3)">
      <defs>
       <path id="CMR17-41" d="M 2323 4441 
C 2291 4524 2278 4544 2214 4544 
C 2150 4544 2138 4524 2106 4441 
L 749 580 
C 627 236 371 166 147 166 
L 147 0 
C 262 12 518 12 640 12 
C 800 12 1056 12 1210 0 
L 1210 166 
C 909 179 864 382 864 459 
C 864 516 877 548 890 586 
L 1229 1536 
L 2906 1536 
L 3290 453 
C 3322 376 3322 363 3322 338 
C 3322 166 3046 166 2925 166 
L 2925 0 
C 3110 12 3443 12 3642 12 
C 3808 12 4128 12 4282 0 
L 4282 166 
C 3942 166 3827 166 3744 402 
L 2323 4441 
z
M 2067 3924 
L 2848 1702 
L 1286 1702 
L 2067 3924 
z
" transform="scale(0.015625)"/>
       <path id="CMR17-70" d="M 1408 -1114 
C 998 -1114 973 -1088 973 -834 
L 973 380 
C 1158 109 1427 -64 1766 -64 
C 2406 -64 3053 503 3053 1382 
C 3053 2196 2496 2816 1837 2816 
C 1453 2816 1139 2603 960 2345 
L 960 2816 
L 198 2745 
L 198 2577 
C 576 2577 634 2539 634 2228 
L 634 -834 
C 634 -1081 608 -1114 198 -1114 
L 198 -1280 
C 352 -1268 634 -1268 800 -1268 
C 966 -1268 1254 -1268 1408 -1280 
L 1408 -1114 
z
M 973 2015 
C 973 2106 973 2241 1222 2481 
C 1254 2506 1472 2700 1792 2700 
C 2259 2700 2643 2112 2643 1376 
C 2643 639 2234 38 1728 38 
C 1498 38 1248 148 1056 451 
C 973 594 973 632 973 736 
L 973 2015 
z
" transform="scale(0.015625)"/>
       <path id="CMR17-6c" d="M 979 4416 
L 218 4345 
L 218 4179 
C 595 4179 653 4141 653 3835 
L 653 439 
C 653 198 627 166 218 166 
L 218 0 
C 371 12 653 12 813 12 
C 979 12 1261 12 1414 0 
L 1414 166 
C 1005 166 979 191 979 439 
L 979 4416 
z
" transform="scale(0.015625)"/>
       <path id="CMR17-74" d="M 966 2585 
L 1862 2585 
L 1862 2752 
L 966 2752 
L 966 3968 
L 851 3968 
C 838 3292 614 2700 70 2687 
L 70 2585 
L 627 2585 
L 627 778 
C 627 655 627 -64 1370 -64 
C 1747 -64 1965 308 1965 784 
L 1965 1151 
L 1850 1151 
L 1850 790 
C 1850 347 1677 51 1408 51 
C 1222 51 966 179 966 765 
L 966 2585 
z
" transform="scale(0.015625)"/>
       <path id="CMR17-75" d="M 1882 2745 
L 1882 2579 
C 2259 2579 2317 2540 2317 2229 
L 2317 1053 
C 2317 510 2029 38 1555 38 
C 1030 38 986 355 986 691 
L 986 2816 
L 211 2745 
L 211 2579 
C 467 2579 640 2579 646 2320 
L 646 1079 
C 646 646 646 368 813 187 
C 896 103 1056 -64 1517 -64 
C 2061 -64 2272 400 2323 536 
L 2330 536 
L 2330 -64 
L 3091 -13 
L 3091 154 
C 2714 154 2656 193 2656 503 
L 2656 2816 
L 1882 2745 
z
" transform="scale(0.015625)"/>
       <path id="CMR17-64" d="M 1869 4345 
L 1869 4179 
C 2246 4179 2304 4141 2304 3843 
L 2304 2371 
C 2278 2403 2016 2816 1498 2816 
C 845 2816 211 2228 211 1376 
C 211 529 806 -64 1434 -64 
C 1978 -64 2259 361 2291 406 
L 2291 -64 
L 3066 -13 
L 3066 154 
C 2688 154 2630 193 2630 503 
L 2630 4416 
L 1869 4345 
z
M 2291 762 
C 2291 568 2176 393 2029 264 
C 1811 70 1594 38 1472 38 
C 1286 38 621 135 621 1369 
C 621 2636 1363 2713 1530 2713 
C 1824 2713 2061 2545 2208 2313 
C 2291 2177 2291 2157 2291 2041 
L 2291 762 
z
" transform="scale(0.015625)"/>
      </defs>
      <use xlink:href="#CMR17-41" transform="scale(0.996264)"/>
      <use xlink:href="#CMR17-6d" transform="translate(69.07243 0) scale(0.996264)"/>
      <use xlink:href="#CMR17-70" transform="translate(145.99202 0) scale(0.996264)"/>
      <use xlink:href="#CMR17-6c" transform="translate(196.887389 0) scale(0.996264)"/>
      <use xlink:href="#CMR17-69" transform="translate(221.758448 0) scale(0.996264)"/>
      <use xlink:href="#CMR17-74" transform="translate(246.629506 0) scale(0.996264)"/>
      <use xlink:href="#CMR17-75" transform="translate(281.910274 0) scale(0.996264)"/>
      <use xlink:href="#CMR17-64" transform="translate(332.805644 0) scale(0.996264)"/>
      <use xlink:href="#CMR17-65" transform="translate(383.701014 0) scale(0.996264)"/>
     </g>
    </g>
   </g>
   <g id="line2d_11">
    <path d="M 115.363636 249.23723 
L 153.160428 249.23723 
L 155.149733 66.96 
L 228.754011 66.96 
L 230.743316 249.23723 
L 246.657754 249.23723 
L 248.647059 150.83586 
L 250.636364 151.891557 
L 252.625668 155.035995 
L 254.614973 160.201704 
L 256.604278 167.277845 
L 258.593583 176.112583 
L 260.582888 186.516354 
L 262.572193 198.265924 
L 264.561497 211.109182 
L 268.540107 238.956903 
L 274.508021 281.604845 
L 276.497326 294.832952 
L 278.486631 307.082713 
L 280.475936 318.091287 
L 282.465241 327.622463 
L 284.454545 335.47173 
L 286.44385 341.470668 
L 288.433155 345.490558 
L 290.42246 347.445145 
L 292.411765 347.292489 
L 294.40107 345.035866 
L 296.390374 340.723697 
L 298.379679 334.448507 
L 300.368984 326.344942 
L 302.358289 316.586882 
L 304.347594 249.23723 
L 342.144385 249.23723 
L 371.983957 161.405465 
L 373.973262 161.405465 
L 403.812834 249.23723 
L 433.652406 249.23723 
L 435.641711 263.042716 
L 511.235294 249.23723 
L 529.139037 249.23723 
L 535.106952 239.532948 
L 539.085561 233.391384 
L 543.064171 227.731288 
L 545.053476 225.136252 
L 547.042781 222.724639 
L 549.032086 220.514802 
L 551.02139 218.523561 
L 553.010695 216.76607 
L 555 215.255703 
L 556.989305 214.003957 
L 558.97861 213.020357 
L 560.967914 212.312389 
L 562.957219 211.885441 
L 564.946524 211.742764 
L 566.935829 211.885441 
L 568.925134 212.312389 
L 570.914439 213.020357 
L 572.903743 214.003957 
L 574.893048 215.255703 
L 576.882353 216.76607 
L 578.871658 218.523561 
L 580.860963 220.514802 
L 582.850267 222.724639 
L 584.839572 225.136252 
L 588.818182 230.489997 
L 592.796791 236.413367 
L 598.764706 245.969372 
L 600.754011 249.23723 
L 622.636364 249.23723 
L 622.636364 249.23723 
" clip-path="url(#p273be0294c)" style="fill: none; stroke: #4c72b0; stroke-width: 3; stroke-linecap: round"/>
   </g>
   <g id="line2d_12">
    <path d="M 115.363636 249.23723 
L 155.149733 249.23723 
L 186.97861 167.759918 
L 188.967914 167.759918 
L 220.796791 249.23723 
L 246.657754 249.23723 
L 248.647059 204.358438 
L 250.636364 204.704045 
L 252.625668 205.735545 
L 254.614973 207.43705 
L 256.604278 209.782353 
L 258.593583 212.735334 
L 260.582888 216.25051 
L 262.572193 220.273741 
L 264.561497 224.743063 
L 266.550802 229.58964 
L 270.529412 240.111312 
L 280.475936 267.37893 
L 282.465241 272.323699 
L 284.454545 276.912894 
L 286.44385 281.075834 
L 288.433155 284.748402 
L 290.42246 287.874033 
L 292.411765 290.404586 
L 294.40107 292.301088 
L 296.390374 293.534328 
L 298.379679 294.085312 
L 300.368984 293.945554 
L 302.358289 293.117206 
L 304.347594 291.613027 
L 306.336898 289.456184 
L 308.326203 286.679895 
L 310.315508 283.326921 
L 312.304813 279.448904 
L 314.294118 275.105573 
L 316.283422 249.23723 
L 340.15508 249.23723 
L 342.144385 192.354494 
L 399.834225 249.23723 
L 435.641711 249.23723 
L 441.609626 238.604087 
L 445.588235 231.895468 
L 449.566845 225.744227 
L 451.55615 222.940285 
L 453.545455 220.34807 
L 455.534759 217.988455 
L 457.524064 215.880435 
L 459.513369 214.040985 
L 461.502674 212.484915 
L 463.491979 211.224753 
L 465.481283 210.270644 
L 467.470588 209.630272 
L 469.459893 209.308792 
L 471.449198 209.308792 
L 473.438503 209.630272 
L 475.427807 210.270644 
L 477.417112 211.224753 
L 479.406417 212.484915 
L 481.395722 214.040985 
L 483.385027 215.880435 
L 485.374332 217.988455 
L 487.363636 220.34807 
L 489.352941 222.940285 
L 493.331551 228.737321 
L 497.31016 235.193241 
L 501.28877 242.100546 
L 505.26738 249.23723 
L 527.149733 249.23723 
L 529.139037 168.182832 
L 578.871658 168.182832 
L 580.860963 249.23723 
L 622.636364 249.23723 
L 622.636364 249.23723 
" clip-path="url(#p273be0294c)" style="fill: none; stroke: #dd8452; stroke-width: 3; stroke-linecap: round"/>
   </g>
   <g id="line2d_13">
    <path d="M 115.363636 249.23723 
L 153.160428 249.23723 
L 155.149733 183.041112 
L 212.839572 183.041112 
L 214.828877 249.23723 
L 246.657754 249.23723 
L 248.647059 116.062893 
L 310.315508 249.23723 
L 342.144385 249.23723 
L 389.887701 154.042207 
L 391.877005 249.23723 
L 435.641711 249.23723 
L 447.57754 247.196861 
L 453.545455 246.361873 
L 459.513369 245.734125 
L 465.481283 245.358861 
L 471.449198 245.263127 
L 477.417112 245.453824 
L 483.385027 245.917207 
L 489.352941 246.619878 
L 497.31016 247.839423 
L 505.26738 249.23723 
L 537.096257 249.142696 
L 564.946524 248.882727 
L 602.743316 249.23723 
L 622.636364 249.23723 
L 622.636364 249.23723 
" clip-path="url(#p273be0294c)" style="fill: none; stroke: #55a868; stroke-width: 3; stroke-linecap: round"/>
   </g>
   <g id="line2d_14">
    <path d="M 115.363636 249.23723 
L 155.149733 249.23723 
L 206.871658 223.180399 
L 208.860963 249.23723 
L 246.657754 249.23723 
L 248.647059 255.330111 
L 256.604278 255.215719 
L 264.561497 254.876838 
L 272.518717 254.326193 
L 282.465241 253.37229 
L 292.411765 252.176207 
L 302.358289 250.807996 
L 304.347594 249.23723 
L 340.15508 249.23723 
L 342.144385 168.736628 
L 399.834225 249.23723 
L 433.652406 249.23723 
L 435.641711 216.749404 
L 483.385027 216.749404 
L 485.374332 249.23723 
L 529.139037 249.23723 
L 572.903743 236.672428 
L 574.893048 236.672428 
L 618.657754 249.23723 
L 622.636364 249.23723 
L 622.636364 249.23723 
" clip-path="url(#p273be0294c)" style="fill: none; stroke: #c44e52; stroke-width: 3; stroke-linecap: round"/>
   </g>
   <g id="line2d_15">
    <path d="M 115.363636 249.23723 
L 155.149733 249.23723 
L 159.128342 234.326013 
L 163.106952 220.43097 
L 165.096257 214.16495 
L 167.085561 208.499026 
L 169.074866 203.530145 
L 171.064171 199.343324 
L 173.053476 196.010202 
L 175.042781 193.587809 
L 177.032086 192.117593 
L 179.02139 191.62471 
L 181.010695 192.117593 
L 183 193.587809 
L 184.989305 196.010202 
L 186.97861 199.343324 
L 188.967914 203.530145 
L 190.957219 208.499026 
L 192.946524 214.16495 
L 194.935829 220.43097 
L 198.914439 234.326013 
L 202.893048 249.23723 
L 246.657754 249.23723 
L 248.647059 138.091759 
L 282.465241 138.208872 
L 304.347594 138.409368 
L 306.336898 249.23723 
L 342.144385 249.23723 
L 368.005348 170.66416 
L 369.994652 170.66416 
L 395.855615 249.23723 
L 433.652406 249.23723 
L 435.641711 162.74583 
L 497.31016 249.23723 
L 529.139037 249.23723 
L 590.807487 168.70276 
L 592.796791 249.23723 
L 622.636364 249.23723 
L 622.636364 249.23723 
" clip-path="url(#p273be0294c)" style="fill: none; stroke: #8172b3; stroke-width: 3; stroke-linecap: round"/>
   </g>
   <g id="line2d_16">
    <path d="M 115.363636 249.23723 
L 153.160428 249.23723 
L 155.149733 214.561997 
L 163.106952 214.66897 
L 171.064171 214.98923 
L 179.02139 215.5208 
L 186.97861 216.260401 
L 194.935829 217.203469 
L 202.893048 218.344187 
L 210.850267 219.675514 
L 220.796791 221.595097 
L 230.743316 223.781091 
L 234.721925 224.725447 
L 236.71123 249.23723 
L 248.647059 249.23723 
L 338.165775 211.16406 
L 340.15508 249.23723 
L 342.144385 171.370319 
L 389.887701 249.23723 
L 435.641711 249.23723 
L 443.59893 232.962821 
L 447.57754 225.327778 
L 451.55615 218.281465 
L 455.534759 211.997386 
L 457.524064 209.190379 
L 459.513369 206.630275 
L 461.502674 204.332856 
L 463.491979 202.312289 
L 465.481283 200.581029 
L 467.470588 199.14975 
L 469.459893 198.027278 
L 471.449198 197.220532 
L 473.438503 196.734486 
L 475.427807 196.572137 
L 477.417112 196.734486 
L 479.406417 197.220532 
L 481.395722 198.027278 
L 483.385027 199.14975 
L 485.374332 200.581029 
L 487.363636 202.312289 
L 489.352941 204.332856 
L 491.342246 206.630275 
L 493.331551 209.190379 
L 495.320856 211.997386 
L 497.31016 215.033988 
L 501.28877 221.719795 
L 505.26738 229.083171 
L 509.245989 236.942808 
L 515.213904 249.23723 
L 529.139037 249.23723 
L 566.935829 173.164467 
L 568.925134 173.164467 
L 606.721925 249.23723 
L 622.636364 249.23723 
L 622.636364 249.23723 
" clip-path="url(#p273be0294c)" style="fill: none; stroke: #937860; stroke-width: 3; stroke-linecap: round"/>
   </g>
   <g id="line2d_17">
    <path d="M 115.363636 249.23723 
L 153.160428 249.23723 
L 155.149733 92.345485 
L 210.850267 249.23723 
L 246.657754 249.23723 
L 248.647059 85.645778 
L 318.272727 85.645778 
L 320.262032 249.23723 
L 342.144385 249.23723 
L 383.919786 188.078187 
L 385.909091 188.078187 
L 427.684492 249.23723 
L 435.641711 249.23723 
L 443.59893 223.95913 
L 447.57754 211.96464 
L 451.55615 200.728912 
L 455.534759 190.480673 
L 457.524064 185.792962 
L 459.513369 181.428548 
L 461.502674 177.409672 
L 463.491979 173.756813 
L 465.481283 170.488585 
L 467.470588 167.621641 
L 469.459893 165.170592 
L 471.449198 163.147928 
L 473.438503 161.563954 
L 475.427807 160.426744 
L 477.417112 159.742092 
L 479.406417 159.513486 
L 481.395722 159.742092 
L 483.385027 160.426744 
L 485.374332 161.563954 
L 487.363636 163.147928 
L 489.352941 165.170592 
L 491.342246 167.621641 
L 493.331551 170.488585 
L 495.320856 173.756813 
L 497.31016 177.409672 
L 499.299465 181.428548 
L 501.28877 185.792962 
L 503.278075 190.480673 
L 507.256684 200.728912 
L 511.235294 211.96464 
L 515.213904 223.95913 
L 521.181818 242.836411 
L 523.171123 249.23723 
L 527.149733 249.23723 
L 529.139037 183.084175 
L 531.128342 183.722855 
L 533.117647 185.626565 
L 535.106952 188.758545 
L 537.096257 193.05832 
L 539.085561 198.442863 
L 541.074866 204.808204 
L 543.064171 212.031433 
L 545.053476 219.973076 
L 549.032086 237.387305 
L 556.989305 273.539722 
L 558.97861 281.834117 
L 560.967914 289.499094 
L 562.957219 296.386646 
L 564.946524 302.363782 
L 566.935829 307.315088 
L 568.925134 311.144957 
L 570.914439 313.779439 
L 572.903743 315.167663 
L 574.893048 315.282824 
L 576.882353 314.122698 
L 578.871658 311.709687 
L 580.860963 308.090384 
L 582.850267 303.334675 
L 584.839572 297.534388 
L 586.828877 290.801522 
L 588.818182 283.266083 
L 590.807487 275.073575 
L 594.786096 257.359747 
L 596.775401 248.180465 
L 598.764706 249.23723 
L 622.636364 249.23723 
L 622.636364 249.23723 
" clip-path="url(#p273be0294c)" style="fill: none; stroke: #da8bc3; stroke-width: 3; stroke-linecap: round"/>
   </g>
   <g id="line2d_18">
    <path d="M 115.363636 249.23723 
L 153.160428 249.23723 
L 155.149733 243.125493 
L 159.128342 243.289085 
L 163.106952 243.771105 
L 167.085561 244.545748 
L 171.064171 245.571544 
L 177.032086 247.458059 
L 192.946524 252.848727 
L 196.925134 253.885201 
L 200.903743 254.672852 
L 204.882353 255.169512 
L 208.860963 255.348595 
L 212.839572 255.200512 
L 216.818182 254.733192 
L 220.796791 253.971652 
L 224.775401 252.956659 
L 228.754011 251.742551 
L 236.71123 248.984152 
L 238.700535 249.23723 
L 248.647059 249.23723 
L 290.42246 145.503561 
L 292.411765 145.503561 
L 334.187166 249.23723 
L 342.144385 249.23723 
L 423.705882 140.674024 
L 425.695187 249.23723 
L 435.641711 249.23723 
L 443.59893 235.323132 
L 447.57754 228.774718 
L 451.55615 222.705929 
L 455.534759 217.25901 
L 457.524064 214.809303 
L 459.513369 212.561634 
L 461.502674 210.529191 
L 463.491979 208.723902 
L 465.481283 207.156362 
L 467.470588 205.835769 
L 469.459893 204.769873 
L 471.449198 203.964929 
L 473.438503 203.425661 
L 475.427807 203.155234 
L 477.417112 203.155234 
L 479.406417 203.425661 
L 481.395722 203.964929 
L 483.385027 204.769873 
L 485.374332 205.835769 
L 487.363636 207.156362 
L 489.352941 208.723902 
L 491.342246 210.529191 
L 493.331551 212.561634 
L 495.320856 214.809303 
L 497.31016 217.25901 
L 501.28877 222.705929 
L 505.26738 228.774718 
L 509.245989 235.323132 
L 515.213904 245.707097 
L 517.203209 249.23723 
L 527.149733 249.23723 
L 529.139037 193.06675 
L 594.786096 249.23723 
L 622.636364 249.23723 
L 622.636364 249.23723 
" clip-path="url(#p273be0294c)" style="fill: none; stroke: #8c8c8c; stroke-width: 3; stroke-linecap: round"/>
   </g>
   <g id="line2d_19">
    <path d="M 115.363636 249.23723 
L 153.160428 249.23723 
L 155.149733 183.858661 
L 157.139037 184.404519 
L 159.128342 186.03298 
L 161.117647 188.716851 
L 163.106952 192.411315 
L 165.096257 197.05468 
L 167.085561 202.569411 
L 169.074866 208.863419 
L 171.064171 215.831605 
L 175.042781 231.315766 
L 186.97861 280.478136 
L 188.967914 287.623206 
L 190.957219 294.127292 
L 192.946524 299.881785 
L 194.935829 304.790596 
L 196.925134 308.771754 
L 198.914439 311.758782 
L 200.903743 313.701799 
L 202.893048 314.568362 
L 204.882353 314.344 
L 206.871658 313.032459 
L 208.860963 310.65564 
L 210.850267 307.253232 
L 212.839572 302.88205 
L 214.828877 297.615085 
L 216.818182 291.540288 
L 218.807487 284.759098 
L 220.796791 277.384749 
L 224.775401 261.356984 
L 232.73262 228.002731 
L 234.721925 220.206378 
L 236.71123 212.894793 
L 238.700535 206.190068 
L 240.68984 200.204162 
L 242.679144 195.03703 
L 244.668449 190.774954 
L 246.657754 249.23723 
L 248.647059 249.23723 
L 256.604278 233.098797 
L 260.582888 225.441089 
L 264.561497 218.267803 
L 268.540107 211.724965 
L 270.529412 208.732164 
L 272.518717 205.945768 
L 274.508021 203.379976 
L 276.497326 201.047861 
L 278.486631 198.961308 
L 280.475936 197.13095 
L 282.465241 195.566114 
L 284.454545 194.274773 
L 286.44385 193.263509 
L 288.433155 192.537473 
L 290.42246 192.100367 
L 292.411765 191.954417 
L 294.40107 192.100367 
L 296.390374 192.537473 
L 298.379679 193.263509 
L 300.368984 194.274773 
L 302.358289 195.566114 
L 304.347594 197.13095 
L 306.336898 198.961308 
L 308.326203 201.047861 
L 310.315508 203.379976 
L 312.304813 205.945768 
L 314.294118 208.732164 
L 318.272727 214.908919 
L 322.251337 221.7845 
L 326.229947 229.218939 
L 332.197861 241.085036 
L 336.176471 249.23723 
L 342.144385 249.23723 
L 385.909091 119.677522 
L 387.898396 119.677522 
L 431.663102 249.23723 
L 433.652406 249.23723 
L 435.641711 172.877811 
L 497.31016 172.877811 
L 499.299465 249.23723 
L 531.128342 249.136807 
L 602.743316 245.521589 
L 604.73262 249.23723 
L 622.636364 249.23723 
L 622.636364 249.23723 
" clip-path="url(#p273be0294c)" style="fill: none; stroke: #ccb974; stroke-width: 3; stroke-linecap: round"/>
   </g>
   <g id="line2d_20">
    <path d="M 115.363636 249.23723 
L 153.160428 249.23723 
L 155.149733 215.520838 
L 169.074866 215.628084 
L 183 215.949139 
L 196.925134 216.481961 
L 210.850267 217.223161 
L 222.786096 218.020787 
L 224.775401 249.23723 
L 248.647059 249.23723 
L 256.604278 215.87399 
L 260.582888 200.04309 
L 264.561497 185.213642 
L 268.540107 171.687528 
L 270.529412 165.500464 
L 272.518717 159.740103 
L 274.508021 154.4358 
L 276.497326 149.614582 
L 278.486631 145.301019 
L 280.475936 141.51709 
L 282.465241 138.282079 
L 284.454545 135.61247 
L 286.44385 133.521867 
L 288.433155 132.020922 
L 290.42246 131.117285 
L 292.411765 130.81556 
L 294.40107 131.117285 
L 296.390374 132.020922 
L 298.379679 133.521867 
L 300.368984 135.61247 
L 302.358289 138.282079 
L 304.347594 141.51709 
L 306.336898 145.301019 
L 308.326203 149.614582 
L 310.315508 154.4358 
L 312.304813 159.740103 
L 314.294118 165.500464 
L 316.283422 171.687528 
L 320.262032 185.213642 
L 324.240642 200.04309 
L 328.219251 215.87399 
L 334.187166 240.789125 
L 336.176471 249.23723 
L 340.15508 249.23723 
L 342.144385 149.188624 
L 395.855615 149.188624 
L 397.84492 249.23723 
L 435.641711 249.23723 
L 459.513369 212.937331 
L 461.502674 212.937331 
L 485.374332 249.23723 
L 529.139037 249.23723 
L 598.764706 213.078252 
L 600.754011 249.23723 
L 622.636364 249.23723 
L 622.636364 249.23723 
" clip-path="url(#p273be0294c)" style="fill: none; stroke: #64b5cd; stroke-width: 3; stroke-linecap: round"/>
   </g>
   <g id="line2d_21">
    <path d="M 115.363636 249.23723 
L 153.160428 249.23723 
L 155.149733 215.8809 
L 246.657754 249.23723 
L 248.647059 249.23723 
L 278.486631 203.379837 
L 280.475936 203.379837 
L 310.315508 249.23723 
L 340.15508 249.23723 
L 342.144385 93.363193 
L 344.13369 93.705582 
L 346.122995 94.731246 
L 348.112299 96.435677 
L 350.101604 98.811389 
L 352.090909 101.847945 
L 354.080214 105.532004 
L 356.069519 109.847382 
L 358.058824 114.775121 
L 360.048128 120.293573 
L 362.037433 126.378493 
L 364.026738 133.003151 
L 366.016043 140.138442 
L 368.005348 147.753021 
L 371.983957 164.284276 
L 375.962567 182.306735 
L 379.941176 201.504047 
L 385.909091 231.761535 
L 397.84492 293.123338 
L 401.823529 312.510798 
L 405.802139 330.787597 
L 409.780749 347.632918 
L 411.770053 355.425244 
L 413.759358 249.23723 
L 433.652406 249.23723 
L 435.641711 205.844213 
L 499.299465 205.844213 
L 501.28877 249.23723 
L 529.139037 249.23723 
L 588.818182 191.635841 
L 590.807487 249.23723 
L 622.636364 249.23723 
L 622.636364 249.23723 
" clip-path="url(#p273be0294c)" style="fill: none; stroke: #4c72b0; stroke-width: 3; stroke-linecap: round"/>
   </g>
   <g id="line2d_22">
    <path d="M 115.363636 249.23723 
L 153.160428 249.23723 
L 155.149733 149.112788 
L 230.743316 249.23723 
L 246.657754 249.23723 
L 248.647059 113.579719 
L 250.636364 113.67568 
L 252.625668 113.963428 
L 254.614973 114.442554 
L 256.604278 115.112382 
L 258.593583 115.971964 
L 260.582888 117.020084 
L 262.572193 118.255259 
L 264.561497 119.675741 
L 266.550802 121.27952 
L 268.540107 123.064329 
L 270.529412 125.027641 
L 272.518717 127.16668 
L 276.497326 131.959586 
L 280.475936 137.415933 
L 284.454545 143.504856 
L 288.433155 150.191909 
L 292.411765 157.439264 
L 296.390374 165.205921 
L 300.368984 173.447944 
L 304.347594 182.118709 
L 310.315508 195.820854 
L 312.304813 249.23723 
L 342.144385 249.23723 
L 421.716578 217.091964 
L 423.705882 249.23723 
L 433.652406 249.23723 
L 435.641711 122.520528 
L 487.363636 122.520528 
L 489.352941 249.23723 
L 529.139037 249.23723 
L 535.106952 235.07973 
L 539.085561 226.094375 
L 543.064171 217.774797 
L 545.053476 213.940409 
L 547.042781 210.360336 
L 549.032086 207.060372 
L 551.02139 204.064293 
L 553.010695 201.393686 
L 555 199.067793 
L 556.989305 197.103372 
L 558.97861 195.514576 
L 560.967914 194.312853 
L 562.957219 193.506862 
L 564.946524 193.102409 
L 566.935829 193.102409 
L 568.925134 193.506862 
L 570.914439 194.312853 
L 572.903743 195.514576 
L 574.893048 197.103372 
L 576.882353 199.067793 
L 578.871658 201.393686 
L 580.860963 204.064293 
L 582.850267 207.060372 
L 584.839572 210.360336 
L 586.828877 213.940409 
L 590.807487 221.835872 
L 594.786096 230.519622 
L 600.754011 244.472371 
L 602.743316 249.23723 
L 622.636364 249.23723 
L 622.636364 249.23723 
" clip-path="url(#p273be0294c)" style="fill: none; stroke: #dd8452; stroke-width: 3; stroke-linecap: round"/>
   </g>
   <g id="line2d_23">
    <path d="M 115.363636 249.23723 
L 155.149733 249.23723 
L 202.893048 164.334085 
L 204.882353 249.23723 
L 246.657754 249.23723 
L 248.647059 185.270224 
L 250.636364 186.166087 
L 252.625668 188.828581 
L 254.614973 193.183129 
L 256.604278 199.107761 
L 258.593583 206.436526 
L 260.582888 214.964145 
L 262.572193 224.451758 
L 266.550802 245.224522 
L 270.529412 266.443723 
L 272.518717 276.477666 
L 274.508021 285.748599 
L 276.497326 293.996845 
L 278.486631 300.991367 
L 280.475936 306.536249 
L 282.465241 310.476177 
L 284.454545 312.700794 
L 286.44385 313.147787 
L 288.433155 311.804637 
L 290.42246 308.708965 
L 292.411765 303.947482 
L 294.40107 297.653556 
L 296.390374 290.003483 
L 298.379679 281.211541 
L 300.368984 271.523994 
L 304.347594 250.56497 
L 306.336898 239.880557 
L 308.326203 249.23723 
L 342.144385 249.23723 
L 348.112299 233.277517 
L 352.090909 223.320062 
L 354.080214 218.692243 
L 356.069519 214.358589 
L 358.058824 210.360836 
L 360.048128 206.737483 
L 362.037433 203.523427 
L 364.026738 200.749619 
L 366.016043 198.442773 
L 368.005348 196.625106 
L 369.994652 195.314122 
L 371.983957 194.522447 
L 373.973262 194.257706 
L 375.962567 194.522447 
L 377.951872 195.314122 
L 379.941176 196.625106 
L 381.930481 198.442773 
L 383.919786 200.749619 
L 385.909091 203.523427 
L 387.898396 206.737483 
L 389.887701 210.360836 
L 391.877005 214.358589 
L 393.86631 218.692243 
L 397.84492 228.197477 
L 401.823529 238.511257 
L 405.802139 249.23723 
L 433.652406 249.23723 
L 435.641711 143.079931 
L 505.26738 143.079931 
L 507.256684 249.23723 
L 529.139037 249.23723 
L 568.925134 185.047502 
L 570.914439 185.047502 
L 610.700535 249.23723 
L 622.636364 249.23723 
L 622.636364 249.23723 
" clip-path="url(#p273be0294c)" style="fill: none; stroke: #55a868; stroke-width: 3; stroke-linecap: round"/>
   </g>
   <g id="line2d_24">
    <path d="M 115.363636 249.23723 
L 153.160428 249.23723 
L 155.149733 195.400508 
L 216.818182 249.23723 
L 248.647059 249.23723 
L 272.518717 195.386709 
L 274.508021 195.386709 
L 298.379679 249.23723 
L 340.15508 249.23723 
L 342.144385 216.424236 
L 395.855615 216.424236 
L 397.84492 249.23723 
L 433.652406 249.23723 
L 435.641711 121.485427 
L 439.620321 121.682478 
L 443.59893 122.273024 
L 447.57754 123.255243 
L 451.55615 124.626104 
L 455.534759 126.381379 
L 459.513369 128.515653 
L 463.491979 131.022341 
L 467.470588 133.893712 
L 471.449198 137.120907 
L 475.427807 140.69397 
L 479.406417 144.601878 
L 483.385027 148.832578 
L 487.363636 153.373016 
L 491.342246 158.209186 
L 493.331551 249.23723 
L 529.139037 249.23723 
L 537.096257 239.391385 
L 541.074866 234.772264 
L 545.053476 230.509319 
L 549.032086 226.707518 
L 551.02139 225.009308 
L 553.010695 223.460472 
L 555 222.070558 
L 556.989305 220.848136 
L 558.97861 219.800742 
L 560.967914 218.934834 
L 562.957219 218.25575 
L 564.946524 217.767677 
L 566.935829 217.473625 
L 568.925134 217.375405 
L 570.914439 217.473625 
L 572.903743 217.767677 
L 574.893048 218.25575 
L 576.882353 218.934834 
L 578.871658 219.800742 
L 580.860963 220.848136 
L 582.850267 222.070558 
L 584.839572 223.460472 
L 586.828877 225.009308 
L 590.807487 228.54463 
L 594.786096 232.589472 
L 598.764706 237.044237 
L 604.73262 244.252942 
L 608.71123 249.23723 
L 622.636364 249.23723 
L 622.636364 249.23723 
" clip-path="url(#p273be0294c)" style="fill: none; stroke: #c44e52; stroke-width: 3; stroke-linecap: round"/>
   </g>
   <g id="line2d_25">
    <path d="M 115.363636 249.23723 
L 155.149733 249.23723 
L 181.010695 135.292896 
L 183 135.292896 
L 208.860963 249.23723 
L 248.647059 249.23723 
L 310.315508 173.556068 
L 312.304813 249.23723 
L 340.15508 249.23723 
L 342.144385 208.70388 
L 393.86631 208.70388 
L 395.855615 249.23723 
L 433.652406 249.23723 
L 435.641711 128.909977 
L 437.631016 129.894291 
L 439.620321 132.83113 
L 441.609626 137.672445 
L 443.59893 144.339029 
L 445.588235 152.721813 
L 447.57754 162.683649 
L 449.566845 174.061555 
L 451.55615 186.669382 
L 453.545455 200.300858 
L 457.524064 229.72958 
L 465.481283 290.400371 
L 467.470588 304.496338 
L 469.459893 317.688232 
L 471.449198 329.760225 
L 473.438503 340.514812 
L 475.427807 349.776041 
L 477.417112 357.392393 
L 479.406417 363.239259 
L 481.395722 367.220981 
L 483.385027 369.272416 
L 485.374332 369.36 
L 487.363636 367.482301 
L 489.352941 363.67004 
L 491.342246 357.985587 
L 493.331551 350.521943 
L 495.320856 341.401218 
L 497.31016 330.772633 
L 499.299465 318.810079 
L 501.28877 305.709269 
L 505.26738 276.96535 
L 509.245989 246.414256 
L 511.235294 249.23723 
L 527.149733 249.23723 
L 529.139037 236.267271 
L 576.882353 249.23723 
L 622.636364 249.23723 
L 622.636364 249.23723 
" clip-path="url(#p273be0294c)" style="fill: none; stroke: #8172b3; stroke-width: 3; stroke-linecap: round"/>
   </g>
   <g id="line2d_26">
    <path d="M 115.363636 249.23723 
L 153.160428 249.23723 
L 155.149733 151.311352 
L 218.807487 249.23723 
L 248.647059 249.23723 
L 296.390374 211.209099 
L 298.379679 249.23723 
L 342.144385 249.23723 
L 350.101604 212.695626 
L 354.080214 195.356589 
L 358.058824 179.114406 
L 362.037433 164.299722 
L 364.026738 157.523244 
L 366.016043 151.21412 
L 368.005348 145.4045 
L 369.994652 140.123987 
L 371.983957 135.39949 
L 373.973262 131.255084 
L 375.962567 127.711888 
L 377.951872 124.787957 
L 379.941176 122.498192 
L 381.930481 120.854259 
L 383.919786 119.864537 
L 385.909091 119.534068 
L 387.898396 119.864537 
L 389.887701 120.854259 
L 391.877005 122.498192 
L 393.86631 124.787957 
L 395.855615 127.711888 
L 397.84492 131.255084 
L 399.834225 135.39949 
L 401.823529 140.123987 
L 403.812834 145.4045 
L 405.802139 151.21412 
L 407.791444 157.523244 
L 409.780749 164.299722 
L 413.759358 179.114406 
L 417.737968 195.356589 
L 421.716578 212.695626 
L 427.684492 239.984312 
L 429.673797 249.23723 
L 433.652406 249.23723 
L 435.641711 143.843542 
L 507.256684 143.843542 
L 509.245989 249.23723 
L 527.149733 249.23723 
L 529.139037 149.968503 
L 531.128342 151.002094 
L 533.117647 154.081344 
L 535.106952 159.142131 
L 537.096257 166.079067 
L 539.085561 174.747697 
L 541.074866 184.967505 
L 543.064171 196.525673 
L 545.053476 209.181512 
L 549.032086 236.714647 
L 555 279.218096 
L 556.989305 292.526429 
L 558.97861 304.933304 
L 560.967914 316.180358 
L 562.957219 326.033381 
L 564.946524 334.287193 
L 566.935829 340.769915 
L 568.925134 345.346551 
L 570.914439 347.921797 
L 572.903743 348.442024 
L 574.893048 346.896401 
L 576.882353 343.317113 
L 578.871658 337.778695 
L 580.860963 330.396481 
L 582.850267 321.324198 
L 584.839572 310.750768 
L 586.828877 298.896373 
L 588.818182 286.007872 
L 592.796791 258.218059 
L 594.786096 249.23723 
L 622.636364 249.23723 
L 622.636364 249.23723 
" clip-path="url(#p273be0294c)" style="fill: none; stroke: #937860; stroke-width: 3; stroke-linecap: round"/>
   </g>
   <g id="line2d_27">
    <path d="M 115.363636 249.23723 
L 153.160428 249.23723 
L 155.149733 130.834525 
L 157.139037 131.032109 
L 159.128342 131.624199 
L 161.117647 132.60882 
L 163.106952 133.982686 
L 165.096257 135.741211 
L 167.085561 137.878527 
L 169.074866 140.3875 
L 171.064171 143.259756 
L 173.053476 146.48571 
L 175.042781 150.054595 
L 177.032086 153.9545 
L 179.02139 158.172409 
L 181.010695 162.694245 
L 184.989305 172.588367 
L 188.967914 183.50489 
L 192.946524 195.298202 
L 196.925134 207.810995 
L 202.893048 227.562026 
L 204.882353 234.32003 
L 206.871658 249.23723 
L 248.647059 249.23723 
L 310.315508 75.345688 
L 312.304813 249.23723 
L 340.15508 249.23723 
L 342.144385 170.381434 
L 413.759358 249.23723 
L 435.641711 249.23723 
L 441.609626 222.58043 
L 445.588235 206.105622 
L 447.57754 198.532984 
L 449.566845 191.515872 
L 451.55615 185.131167 
L 453.545455 179.448822 
L 455.534759 174.531093 
L 457.524064 170.43186 
L 459.513369 167.196036 
L 461.502674 164.859072 
L 463.491979 163.446572 
L 465.481283 162.974014 
L 467.470588 163.446572 
L 469.459893 164.859072 
L 471.449198 167.196036 
L 473.438503 170.43186 
L 475.427807 174.531093 
L 477.417112 179.448822 
L 479.406417 185.131167 
L 481.395722 191.515872 
L 483.385027 198.532984 
L 485.374332 206.105622 
L 489.352941 222.58043 
L 495.320856 249.23723 
L 527.149733 249.23723 
L 529.139037 193.472984 
L 578.871658 193.472984 
L 580.860963 249.23723 
L 622.636364 249.23723 
L 622.636364 249.23723 
" clip-path="url(#p273be0294c)" style="fill: none; stroke: #da8bc3; stroke-width: 3; stroke-linecap: round"/>
   </g>
   <g id="line2d_28">
    <path d="M 115.363636 249.23723 
L 155.149733 249.23723 
L 234.721925 185.545517 
L 236.71123 249.23723 
L 248.647059 249.23723 
L 254.614973 201.991596 
L 256.604278 187.241461 
L 258.593583 173.329712 
L 260.582888 160.444482 
L 262.572193 148.760022 
L 264.561497 138.434344 
L 266.550802 129.607085 
L 268.540107 122.397618 
L 270.529412 116.903439 
L 272.518717 113.198848 
L 274.508021 111.333943 
L 276.497326 111.333943 
L 278.486631 113.198848 
L 280.475936 116.903439 
L 282.465241 122.397618 
L 284.454545 129.607085 
L 286.44385 138.434344 
L 288.433155 148.760022 
L 290.42246 160.444482 
L 292.411765 173.329712 
L 294.40107 187.241461 
L 298.379679 217.380647 
L 302.358289 249.23723 
L 340.15508 249.23723 
L 342.144385 155.616895 
L 411.770053 155.616895 
L 413.759358 249.23723 
L 435.641711 249.23723 
L 463.491979 146.493954 
L 465.481283 146.493954 
L 493.331551 249.23723 
L 527.149733 249.23723 
L 529.139037 232.454116 
L 533.117647 232.608763 
L 537.096257 233.069853 
L 541.074866 233.82889 
L 545.053476 234.871885 
L 549.032086 236.179616 
L 553.010695 237.727985 
L 556.989305 239.488455 
L 562.957219 242.45496 
L 568.925134 245.70215 
L 588.818182 256.794112 
L 592.796791 258.754119 
L 594.786096 249.23723 
L 622.636364 249.23723 
L 622.636364 249.23723 
" clip-path="url(#p273be0294c)" style="fill: none; stroke: #8c8c8c; stroke-width: 3; stroke-linecap: round"/>
   </g>
   <g id="line2d_29">
    <path d="M 115.363636 249.23723 
L 153.160428 249.23723 
L 155.149733 122.129573 
L 236.71123 249.23723 
L 248.647059 249.23723 
L 272.518717 242.536087 
L 274.508021 242.536087 
L 298.379679 249.23723 
L 340.15508 249.23723 
L 342.144385 153.184476 
L 421.716578 153.184476 
L 423.705882 249.23723 
L 433.652406 249.23723 
L 435.641711 233.817399 
L 437.631016 233.876116 
L 439.620321 234.051819 
L 441.609626 234.343171 
L 445.588235 235.26308 
L 449.566845 236.607873 
L 453.545455 238.336662 
L 457.524064 240.396883 
L 461.502674 242.725895 
L 467.470588 246.566782 
L 479.406417 254.520538 
L 483.385027 256.956611 
L 487.363636 259.157976 
L 491.342246 261.0577 
L 495.320856 262.598023 
L 499.299465 263.73211 
L 501.28877 264.135526 
L 503.278075 264.425481 
L 505.26738 264.599765 
L 507.256684 264.657052 
L 509.245989 264.596906 
L 511.235294 264.419784 
L 513.224599 264.127036 
L 517.203209 263.20444 
L 519.192513 249.23723 
L 529.139037 249.23723 
L 535.106952 211.739804 
L 539.085561 188.692758 
L 541.074866 178.168121 
L 543.064171 168.476704 
L 545.053476 159.732131 
L 547.042781 152.036923 
L 549.032086 145.481299 
L 551.02139 140.14212 
L 553.010695 136.08198 
L 555 133.348483 
L 556.989305 131.973675 
L 558.97861 131.973675 
L 560.967914 133.348483 
L 562.957219 136.08198 
L 564.946524 140.14212 
L 566.935829 145.481299 
L 568.925134 152.036923 
L 570.914439 159.732131 
L 572.903743 168.476704 
L 574.893048 178.168121 
L 576.882353 188.692758 
L 580.860963 211.739804 
L 584.839572 236.540188 
L 586.828877 249.23723 
L 622.636364 249.23723 
L 622.636364 249.23723 
" clip-path="url(#p273be0294c)" style="fill: none; stroke: #ccb974; stroke-width: 3; stroke-linecap: round"/>
   </g>
   <g id="line2d_30">
    <path d="M 115.363636 249.23723 
L 155.149733 249.23723 
L 159.128342 233.6735 
L 163.106952 219.170412 
L 165.096257 212.630192 
L 167.085561 206.716328 
L 169.074866 201.530009 
L 171.064171 197.159974 
L 173.053476 193.680995 
L 175.042781 191.152598 
L 177.032086 189.618046 
L 179.02139 189.103594 
L 181.010695 189.618046 
L 183 191.152598 
L 184.989305 193.680995 
L 186.97861 197.159974 
L 188.967914 201.530009 
L 190.957219 206.716328 
L 192.946524 212.630192 
L 194.935829 219.170412 
L 198.914439 233.6735 
L 202.893048 249.23723 
L 246.657754 249.23723 
L 248.647059 197.682711 
L 336.176471 249.23723 
L 340.15508 249.23723 
L 342.144385 251.056252 
L 360.048128 250.949021 
L 379.941176 250.594548 
L 403.812834 249.915668 
L 413.759358 249.581659 
L 415.748663 249.23723 
L 435.641711 249.23723 
L 477.417112 181.92635 
L 479.406417 181.92635 
L 521.181818 249.23723 
L 527.149733 249.23723 
L 529.139037 153.438641 
L 598.764706 153.438641 
L 600.754011 249.23723 
L 622.636364 249.23723 
L 622.636364 249.23723 
" clip-path="url(#p273be0294c)" style="fill: none; stroke: #64b5cd; stroke-width: 3; stroke-linecap: round"/>
   </g>
   <g id="patch_3">
    <path d="M 90 384.48 
L 90 51.84 
" style="fill: none; stroke: #ffffff; stroke-width: 1.25; stroke-linejoin: miter; stroke-linecap: square"/>
   </g>
   <g id="patch_4">
    <path d="M 648 384.48 
L 648 51.84 
" style="fill: none; stroke: #ffffff; stroke-width: 1.25; stroke-linejoin: miter; stroke-linecap: square"/>
   </g>
   <g id="patch_5">
    <path d="M 90 384.48 
L 648 384.48 
" style="fill: none; stroke: #ffffff; stroke-width: 1.25; stroke-linejoin: miter; stroke-linecap: square"/>
   </g>
   <g id="patch_6">
    <path d="M 90 51.84 
L 648 51.84 
" style="fill: none; stroke: #ffffff; stroke-width: 1.25; stroke-linejoin: miter; stroke-linecap: square"/>
   </g>
   <g id="text_13">
    <!-- Illustration of Stochasticity in Signal Generation -->
    <g style="fill: #262626" transform="translate(78.383939 45.84) scale(0.3 -0.3)">
     <defs>
      <path id="CMR17-49" d="M 1261 3898 
C 1261 4185 1338 4185 1798 4185 
L 1798 4352 
C 1594 4339 1267 4339 1050 4339 
C 832 4339 506 4339 301 4352 
L 301 4185 
C 762 4185 838 4185 838 3898 
L 838 453 
C 838 166 762 166 301 166 
L 301 0 
C 506 12 832 12 1050 12 
C 1267 12 1594 12 1798 0 
L 1798 166 
C 1338 166 1261 166 1261 453 
L 1261 3898 
z
" transform="scale(0.015625)"/>
      <path id="CMR17-73" d="M 1978 2688 
C 1978 2803 1971 2809 1933 2809 
C 1907 2809 1901 2803 1824 2707 
C 1805 2681 1747 2617 1728 2592 
C 1523 2809 1235 2816 1126 2816 
C 416 2816 160 2444 160 2073 
C 160 1497 813 1363 998 1324 
C 1402 1241 1542 1216 1677 1100 
C 1760 1024 1901 883 1901 652 
C 1901 384 1747 38 1158 38 
C 602 38 403 460 288 1024 
C 269 1113 269 1120 218 1120 
C 166 1120 160 1113 160 985 
L 160 64 
C 160 -52 166 -58 205 -58 
C 237 -58 243 -52 275 0 
C 314 57 410 211 448 275 
C 576 102 800 -64 1158 -64 
C 1792 -64 2131 281 2131 780 
C 2131 1107 1958 1280 1875 1356 
C 1683 1555 1459 1600 1190 1651 
C 838 1728 390 1817 390 2208 
C 390 2374 480 2726 1126 2726 
C 1811 2726 1850 2086 1862 1881 
C 1869 1849 1901 1843 1920 1843 
C 1978 1843 1978 1862 1978 1971 
L 1978 2688 
z
" transform="scale(0.015625)"/>
      <path id="CMR17-72" d="M 960 1517 
C 960 2134 1222 2713 1702 2713 
C 1747 2713 1792 2707 1837 2687 
C 1837 2687 1696 2642 1696 2475 
C 1696 2321 1818 2257 1914 2257 
C 1990 2257 2131 2302 2131 2482 
C 2131 2687 1926 2816 1709 2816 
C 1222 2816 1011 2340 947 2115 
L 941 2115 
L 941 2816 
L 198 2745 
L 198 2578 
C 576 2578 634 2540 634 2231 
L 634 443 
C 634 198 608 166 198 166 
L 198 0 
C 352 12 646 12 813 12 
C 998 12 1325 12 1498 0 
L 1498 166 
C 1037 166 960 166 960 455 
L 960 1517 
z
" transform="scale(0.015625)"/>
      <path id="CMR17-61" d="M 2304 1656 
C 2304 2048 2304 2275 2035 2534 
C 1798 2751 1523 2816 1306 2816 
C 800 2816 435 2408 435 1977 
C 435 1740 627 1728 666 1728 
C 749 1728 896 1779 896 1958 
C 896 2118 774 2188 666 2188 
C 640 2188 608 2182 589 2176 
C 723 2594 1069 2713 1293 2713 
C 1613 2713 1965 2421 1965 1875 
L 1965 1632 
C 1587 1619 1133 1568 774 1373 
C 371 1147 256 822 256 576 
C 256 77 832 -64 1171 -64 
C 1523 -64 1850 135 1990 505 
C 2003 219 2182 -39 2464 -39 
C 2598 -39 2938 51 2938 563 
L 2938 926 
L 2822 926 
L 2822 557 
C 2822 161 2650 109 2566 109 
C 2304 109 2304 446 2304 732 
L 2304 1656 
z
M 1965 887 
C 1965 323 1568 38 1216 38 
C 896 38 646 278 646 576 
C 646 771 730 1114 1101 1322 
C 1408 1497 1760 1523 1965 1536 
L 1965 887 
z
" transform="scale(0.015625)"/>
      <path id="CMR17-6f" d="M 2758 1356 
C 2758 2176 2163 2816 1466 2816 
C 768 2816 173 2176 173 1356 
C 173 550 768 -64 1466 -64 
C 2163 -64 2758 550 2758 1356 
z
M 1466 51 
C 1165 51 909 230 762 480 
C 602 768 582 1126 582 1408 
C 582 1676 595 2009 762 2297 
C 890 2508 1139 2713 1466 2713 
C 1754 2713 1997 2553 2150 2329 
C 2349 2028 2349 1606 2349 1408 
C 2349 1158 2336 774 2163 467 
C 1984 172 1709 51 1466 51 
z
" transform="scale(0.015625)"/>
      <path id="CMR17-6e" d="M 2656 1954 
C 2656 2282 2592 2816 1837 2816 
C 1331 2816 1069 2424 973 2166 
L 966 2166 
L 966 2816 
L 211 2745 
L 211 2578 
C 589 2578 646 2540 646 2231 
L 646 443 
C 646 198 621 166 211 166 
L 211 0 
C 365 12 646 12 813 12 
C 979 12 1267 12 1421 0 
L 1421 166 
C 1011 166 986 192 986 443 
L 986 1678 
C 986 2269 1344 2713 1792 2713 
C 2266 2713 2317 2289 2317 1980 
L 2317 443 
C 2317 198 2291 166 1882 166 
L 1882 0 
C 2035 12 2317 12 2483 12 
C 2650 12 2938 12 3091 0 
L 3091 166 
C 2682 166 2656 192 2656 443 
L 2656 1954 
z
" transform="scale(0.015625)"/>
      <path id="CMR17-66" d="M 979 2585 
L 1709 2585 
L 1709 2752 
L 966 2752 
L 966 3539 
C 966 4076 1235 4377 1510 4377 
C 1594 4377 1690 4363 1754 4339 
C 1702 4326 1568 4281 1568 4121 
C 1568 3955 1696 3904 1786 3904 
C 1875 3904 2003 3955 2003 4121 
C 2003 4353 1773 4480 1517 4480 
C 1152 4480 653 4211 653 3526 
L 653 2752 
L 141 2752 
L 141 2585 
L 653 2585 
L 653 441 
C 653 198 627 166 218 166 
L 218 0 
C 371 12 666 12 832 12 
C 1018 12 1344 12 1517 0 
L 1517 166 
C 1056 166 979 166 979 454 
L 979 2585 
z
" transform="scale(0.015625)"/>
      <path id="CMR17-53" d="M 2803 4351 
C 2803 4467 2797 4473 2758 4473 
C 2720 4473 2707 4447 2682 4390 
L 2490 3965 
C 2246 4320 1875 4480 1472 4480 
C 819 4480 294 3958 294 3301 
C 294 3101 339 2817 557 2546 
C 794 2250 1018 2198 1530 2063 
C 1722 2011 2042 1927 2106 1901 
C 2470 1747 2662 1360 2662 999 
C 2662 534 2336 38 1779 38 
C 1094 38 454 425 410 1328 
C 403 1431 397 1437 352 1437 
C 301 1437 294 1431 294 1302 
L 294 0 
C 294 -116 301 -122 339 -122 
C 384 -122 397 -90 486 109 
C 493 128 493 141 614 386 
C 934 -39 1472 -128 1779 -128 
C 2477 -128 2970 457 2970 1141 
C 2970 1476 2848 1734 2778 1850 
C 2509 2263 2221 2340 1914 2417 
C 1869 2437 1856 2437 1498 2527 
C 1152 2617 1005 2662 845 2836 
C 666 3036 602 3243 602 3449 
C 602 3868 934 4326 1478 4326 
C 2157 4326 2579 3842 2675 3036 
C 2694 2920 2701 2914 2746 2914 
C 2803 2914 2803 2933 2803 3043 
L 2803 4351 
z
" transform="scale(0.015625)"/>
      <path id="CMR17-63" d="M 2234 2240 
C 2112 2240 1933 2240 1933 2015 
C 1933 1836 2080 1785 2163 1785 
C 2208 1785 2394 1804 2394 2028 
C 2394 2476 1958 2816 1466 2816 
C 787 2816 211 2201 211 1379 
C 211 521 813 -64 1466 -64 
C 2259 -64 2458 676 2458 747 
C 2458 773 2451 792 2406 792 
C 2362 792 2355 786 2330 702 
C 2163 180 1798 51 1523 51 
C 1114 51 621 431 621 1385 
C 621 2358 1094 2700 1472 2700 
C 1722 2700 2093 2582 2234 2240 
z
" transform="scale(0.015625)"/>
      <path id="CMR17-68" d="M 2656 1954 
C 2656 2282 2592 2816 1837 2816 
C 1312 2816 1056 2392 979 2179 
L 973 2179 
L 973 4416 
L 211 4345 
L 211 4179 
C 589 4179 646 4141 646 3843 
L 646 443 
C 646 198 621 166 211 166 
L 211 0 
C 365 12 646 12 813 12 
C 979 12 1267 12 1421 0 
L 1421 166 
C 1011 166 986 192 986 443 
L 986 1678 
C 986 2269 1344 2713 1792 2713 
C 2266 2713 2317 2289 2317 1980 
L 2317 443 
C 2317 198 2291 166 1882 166 
L 1882 0 
C 2035 12 2317 12 2483 12 
C 2650 12 2938 12 3091 0 
L 3091 166 
C 2682 166 2656 192 2656 443 
L 2656 1954 
z
" transform="scale(0.015625)"/>
      <path id="CMR17-79" d="M 2496 2183 
C 2656 2579 2944 2585 3034 2585 
L 3034 2752 
C 2912 2745 2752 2739 2630 2739 
C 2496 2739 2285 2739 2157 2752 
L 2157 2585 
C 2400 2566 2406 2384 2406 2332 
C 2406 2268 2394 2235 2362 2158 
L 1664 409 
L 902 2300 
C 870 2378 870 2423 870 2430 
C 870 2572 1018 2585 1171 2585 
L 1171 2752 
C 1018 2739 742 2739 582 2739 
C 410 2739 205 2739 64 2752 
L 64 2585 
C 410 2585 448 2553 531 2345 
L 1485 -31 
C 1197 -795 1030 -1242 627 -1242 
C 557 -1242 397 -1223 282 -1106 
C 429 -1093 493 -1002 493 -892 
C 493 -782 416 -685 288 -685 
C 147 -685 77 -782 77 -899 
C 77 -1158 339 -1344 627 -1344 
C 998 -1344 1229 -983 1357 -659 
L 2496 2183 
z
" transform="scale(0.015625)"/>
      <path id="CMR17-67" d="M 710 1165 
C 832 1068 1043 960 1299 960 
C 1805 960 2240 1359 2240 1895 
C 2240 2063 2189 2321 1997 2521 
C 2176 2713 2438 2777 2586 2777 
C 2611 2777 2650 2777 2682 2758 
C 2656 2751 2598 2726 2598 2623 
C 2598 2540 2656 2483 2739 2483 
C 2835 2483 2886 2547 2886 2630 
C 2886 2751 2790 2880 2586 2880 
C 2330 2880 2106 2758 1926 2591 
C 1734 2764 1504 2828 1299 2828 
C 794 2828 358 2431 358 1895 
C 358 1527 570 1294 634 1230 
C 442 1004 442 742 442 710 
C 442 544 506 300 723 166 
C 390 82 128 -184 128 -517 
C 128 -996 736 -1344 1466 -1344 
C 2170 -1344 2803 -1009 2803 -510 
C 2803 384 1856 384 1363 384 
C 1216 384 954 384 922 390 
C 723 422 589 601 589 825 
C 589 883 589 1024 710 1165 
z
M 1299 1068 
C 736 1068 736 1766 736 1895 
C 736 2024 736 2719 1299 2719 
C 1862 2719 1862 2024 1862 1895 
C 1862 1766 1862 1068 1299 1068 
z
M 1466 -1236 
C 826 -1236 384 -883 384 -517 
C 384 -311 493 -118 634 -11 
C 794 102 858 102 1293 102 
C 1818 102 2547 102 2547 -517 
C 2547 -883 2106 -1236 1466 -1236 
z
" transform="scale(0.015625)"/>
      <path id="CMR17-47" d="M 3974 1258 
C 3974 1503 3994 1536 4390 1536 
L 4390 1702 
C 4237 1689 3891 1689 3718 1689 
C 3539 1689 3040 1696 2797 1702 
L 2797 1536 
L 2989 1536 
C 3539 1536 3552 1464 3552 1232 
L 3552 806 
C 3552 96 2720 38 2522 38 
C 1862 38 781 496 781 2179 
C 781 3862 1843 4313 2464 4313 
C 3187 4313 3712 3681 3834 2785 
C 3846 2708 3846 2695 3904 2695 
C 3974 2695 3974 2708 3974 2824 
L 3974 4351 
C 3974 4467 3968 4473 3930 4473 
C 3904 4473 3898 4467 3853 4390 
L 3571 3849 
C 3258 4249 2874 4480 2381 4480 
C 1286 4480 294 3507 294 2179 
C 294 858 1267 -128 2394 -128 
C 2912 -128 3418 57 3616 425 
C 3725 161 3904 -20 3936 -20 
C 3968 -20 3974 -13 3974 102 
L 3974 1258 
z
" transform="scale(0.015625)"/>
     </defs>
     <use xlink:href="#CMR17-49" transform="scale(0.996264)"/>
     <use xlink:href="#CMR17-6c" transform="translate(32.638409 0) scale(0.996264)"/>
     <use xlink:href="#CMR17-6c" transform="translate(57.509468 0) scale(0.996264)"/>
     <use xlink:href="#CMR17-75" transform="translate(82.380526 0) scale(0.996264)"/>
     <use xlink:href="#CMR17-73" transform="translate(133.275896 0) scale(0.996264)"/>
     <use xlink:href="#CMR17-74" transform="translate(169.077234 0) scale(0.996264)"/>
     <use xlink:href="#CMR17-72" transform="translate(204.358001 0) scale(0.996264)"/>
     <use xlink:href="#CMR17-61" transform="translate(239.638769 0) scale(0.996264)"/>
     <use xlink:href="#CMR17-74" transform="translate(285.329246 0) scale(0.996264)"/>
     <use xlink:href="#CMR17-69" transform="translate(320.610014 0) scale(0.996264)"/>
     <use xlink:href="#CMR17-6f" transform="translate(345.481073 0) scale(0.996264)"/>
     <use xlink:href="#CMR17-6e" transform="translate(391.17155 0) scale(0.996264)"/>
     <use xlink:href="#CMR17-6f" transform="translate(472.142886 0) scale(0.996264)"/>
     <use xlink:href="#CMR17-66" transform="translate(517.833363 0) scale(0.996264)"/>
     <use xlink:href="#CMR17-53" transform="translate(575.382842 0) scale(0.996264)"/>
     <use xlink:href="#CMR17-74" transform="translate(626.278211 0) scale(0.996264)"/>
     <use xlink:href="#CMR17-6f" transform="translate(661.558979 0) scale(0.996264)"/>
     <use xlink:href="#CMR17-63" transform="translate(709.851895 0) scale(0.996264)"/>
     <use xlink:href="#CMR17-68" transform="translate(747.735102 0) scale(0.996264)"/>
     <use xlink:href="#CMR17-61" transform="translate(798.630471 0) scale(0.996264)"/>
     <use xlink:href="#CMR17-73" transform="translate(844.320949 0) scale(0.996264)"/>
     <use xlink:href="#CMR17-74" transform="translate(880.122286 0) scale(0.996264)"/>
     <use xlink:href="#CMR17-69" transform="translate(915.403054 0) scale(0.996264)"/>
     <use xlink:href="#CMR17-63" transform="translate(940.274112 0) scale(0.996264)"/>
     <use xlink:href="#CMR17-69" transform="translate(980.759773 0) scale(0.996264)"/>
     <use xlink:href="#CMR17-74" transform="translate(1005.630831 0) scale(0.996264)"/>
     <use xlink:href="#CMR17-79" transform="translate(1038.309145 0) scale(0.996264)"/>
     <use xlink:href="#CMR17-69" transform="translate(1116.678027 0) scale(0.996264)"/>
     <use xlink:href="#CMR17-6e" transform="translate(1141.549086 0) scale(0.996264)"/>
     <use xlink:href="#CMR17-53" transform="translate(1222.520422 0) scale(0.996264)"/>
     <use xlink:href="#CMR17-69" transform="translate(1273.415792 0) scale(0.996264)"/>
     <use xlink:href="#CMR17-67" transform="translate(1298.28685 0) scale(0.996264)"/>
     <use xlink:href="#CMR17-6e" transform="translate(1343.977327 0) scale(0.996264)"/>
     <use xlink:href="#CMR17-61" transform="translate(1394.872697 0) scale(0.996264)"/>
     <use xlink:href="#CMR17-6c" transform="translate(1440.563174 0) scale(0.996264)"/>
     <use xlink:href="#CMR17-47" transform="translate(1495.510199 0) scale(0.996264)"/>
     <use xlink:href="#CMR17-65" transform="translate(1567.865545 0) scale(0.996264)"/>
     <use xlink:href="#CMR17-6e" transform="translate(1608.351206 0) scale(0.996264)"/>
     <use xlink:href="#CMR17-65" transform="translate(1659.246575 0) scale(0.996264)"/>
     <use xlink:href="#CMR17-72" transform="translate(1699.732236 0) scale(0.996264)"/>
     <use xlink:href="#CMR17-61" transform="translate(1735.013004 0) scale(0.996264)"/>
     <use xlink:href="#CMR17-74" transform="translate(1780.703481 0) scale(0.996264)"/>
     <use xlink:href="#CMR17-69" transform="translate(1815.984249 0) scale(0.996264)"/>
     <use xlink:href="#CMR17-6f" transform="translate(1840.855307 0) scale(0.996264)"/>
     <use xlink:href="#CMR17-6e" transform="translate(1886.545784 0) scale(0.996264)"/>
    </g>
   </g>
  </g>
 </g>
 <defs>
  <clipPath id="p273be0294c">
   <rect x="90" y="51.84" width="558" height="332.64"/>
  </clipPath>
 </defs>
</svg>
