<?xml version="1.0" encoding="utf-8" standalone="no"?>
<!DOCTYPE svg PUBLIC "-//W3C//DTD SVG 1.1//EN"
  "http://www.w3.org/Graphics/SVG/1.1/DTD/svg11.dtd">
<svg xmlns:xlink="http://www.w3.org/1999/xlink" width="720pt" height="432pt" viewBox="0 0 720 432" xmlns="http://www.w3.org/2000/svg" version="1.1">
 <metadata>
  <rdf:RDF xmlns:dc="http://purl.org/dc/elements/1.1/" xmlns:cc="http://creativecommons.org/ns#" xmlns:rdf="http://www.w3.org/1999/02/22-rdf-syntax-ns#">
   <cc:Work>
    <dc:type rdf:resource="http://purl.org/dc/dcmitype/StillImage"/>
    <dc:date>2025-07-04T18:04:40.205122</dc:date>
    <dc:format>image/svg+xml</dc:format>
    <dc:creator>
     <cc:Agent>
      <dc:title>Matplotlib v3.10.0, https://matplotlib.org/</dc:title>
     </cc:Agent>
    </dc:creator>
   </cc:Work>
  </rdf:RDF>
 </metadata>
 <defs>
  <style type="text/css">*{stroke-linejoin: round; stroke-linecap: butt}</style>
 </defs>
 <g id="figure_1">
  <g id="patch_1">
   <path d="M 0 432 
L 720 432 
L 720 0 
L 0 0 
z
" style="fill: #ffffff"/>
  </g>
  <g id="axes_1">
   <g id="patch_2">
    <path d="M 90 384.48 
L 648 384.48 
L 648 51.84 
L 90 51.84 
z
" style="fill: #ffffff"/>
   </g>
   <g id="matplotlib.axis_1">
    <g id="xtick_1">
     <g id="line2d_1">
      <path d="M 115.363636 384.48 
L 115.363636 51.84 
" clip-path="url(#p0df65cdc79)" style="fill: none; stroke: #cccccc; stroke-linecap: round"/>
     </g>
     <g id="text_1">
      <!-- $\mathdefault{0}$ -->
      <g style="fill: #262626" transform="translate(109.081196 413.005867) scale(0.275 -0.275)">
       <defs>
        <path id="CMR17-30" d="M 2688 2038 
C 2688 2430 2682 3099 2413 3613 
C 2176 4063 1798 4224 1466 4224 
C 1158 4224 768 4082 525 3620 
C 269 3137 243 2539 243 2038 
C 243 1671 250 1112 448 623 
C 723 -39 1216 -128 1466 -128 
C 1760 -128 2208 -7 2470 604 
C 2662 1048 2688 1568 2688 2038 
z
M 1466 -26 
C 1056 -26 813 328 723 816 
C 653 1196 653 1749 653 2109 
C 653 2604 653 3015 736 3407 
C 858 3954 1216 4121 1466 4121 
C 1728 4121 2067 3947 2189 3420 
C 2272 3054 2278 2623 2278 2109 
C 2278 1691 2278 1176 2202 797 
C 2067 96 1690 -26 1466 -26 
z
" transform="scale(0.015625)"/>
       </defs>
       <use xlink:href="#CMR17-30" transform="scale(0.996264)"/>
      </g>
     </g>
    </g>
    <g id="xtick_2">
     <g id="line2d_2">
      <path d="M 214.828877 384.48 
L 214.828877 51.84 
" clip-path="url(#p0df65cdc79)" style="fill: none; stroke: #cccccc; stroke-linecap: round"/>
     </g>
     <g id="text_2">
      <!-- $\mathdefault{50}$ -->
      <g style="fill: #262626" transform="translate(202.263996 413.005867) scale(0.275 -0.275)">
       <defs>
        <path id="CMR17-35" d="M 730 3750 
C 794 3724 1056 3641 1325 3641 
C 1920 3641 2246 3961 2432 4140 
C 2432 4191 2432 4224 2394 4224 
C 2387 4224 2374 4224 2323 4198 
C 2099 4102 1837 4032 1517 4032 
C 1325 4032 1037 4055 723 4191 
C 653 4224 640 4224 634 4224 
C 602 4224 595 4217 595 4090 
L 595 2231 
C 595 2113 595 2080 659 2080 
C 691 2080 704 2093 736 2139 
C 941 2435 1222 2560 1542 2560 
C 1766 2560 2246 2415 2246 1293 
C 2246 1087 2246 716 2054 422 
C 1894 159 1645 25 1370 25 
C 947 25 518 319 403 812 
C 429 806 480 793 506 793 
C 589 793 749 838 749 1036 
C 749 1209 627 1280 506 1280 
C 358 1280 262 1190 262 1011 
C 262 454 704 -128 1382 -128 
C 2042 -128 2669 441 2669 1267 
C 2669 2054 2170 2662 1549 2662 
C 1222 2662 947 2540 730 2304 
L 730 3750 
z
" transform="scale(0.015625)"/>
       </defs>
       <use xlink:href="#CMR17-35" transform="scale(0.996264)"/>
       <use xlink:href="#CMR17-30" transform="translate(45.690477 0) scale(0.996264)"/>
      </g>
     </g>
    </g>
    <g id="xtick_3">
     <g id="line2d_3">
      <path d="M 314.294118 384.48 
L 314.294118 51.84 
" clip-path="url(#p0df65cdc79)" style="fill: none; stroke: #cccccc; stroke-linecap: round"/>
     </g>
     <g id="text_3">
      <!-- $\mathdefault{100}$ -->
      <g style="fill: #262626" transform="translate(295.446796 413.005867) scale(0.275 -0.275)">
       <defs>
        <path id="CMR17-31" d="M 1702 4083 
C 1702 4217 1696 4224 1606 4224 
C 1357 3927 979 3833 621 3820 
C 602 3820 570 3820 563 3808 
C 557 3795 557 3782 557 3648 
C 755 3648 1088 3686 1344 3839 
L 1344 467 
C 1344 243 1331 166 781 166 
L 589 166 
L 589 0 
C 896 6 1216 12 1523 12 
C 1830 12 2150 6 2458 0 
L 2458 166 
L 2266 166 
C 1715 166 1702 236 1702 467 
L 1702 4083 
z
" transform="scale(0.015625)"/>
       </defs>
       <use xlink:href="#CMR17-31" transform="scale(0.996264)"/>
       <use xlink:href="#CMR17-30" transform="translate(45.690477 0) scale(0.996264)"/>
       <use xlink:href="#CMR17-30" transform="translate(91.380954 0) scale(0.996264)"/>
      </g>
     </g>
    </g>
    <g id="xtick_4">
     <g id="line2d_4">
      <path d="M 413.759358 384.48 
L 413.759358 51.84 
" clip-path="url(#p0df65cdc79)" style="fill: none; stroke: #cccccc; stroke-linecap: round"/>
     </g>
     <g id="text_4">
      <!-- $\mathdefault{150}$ -->
      <g style="fill: #262626" transform="translate(394.912036 413.005867) scale(0.275 -0.275)">
       <use xlink:href="#CMR17-31" transform="scale(0.996264)"/>
       <use xlink:href="#CMR17-35" transform="translate(45.690477 0) scale(0.996264)"/>
       <use xlink:href="#CMR17-30" transform="translate(91.380954 0) scale(0.996264)"/>
      </g>
     </g>
    </g>
    <g id="xtick_5">
     <g id="line2d_5">
      <path d="M 513.224599 384.48 
L 513.224599 51.84 
" clip-path="url(#p0df65cdc79)" style="fill: none; stroke: #cccccc; stroke-linecap: round"/>
     </g>
     <g id="text_5">
      <!-- $\mathdefault{200}$ -->
      <g style="fill: #262626" transform="translate(494.377277 413.005867) scale(0.275 -0.275)">
       <defs>
        <path id="CMR17-32" d="M 2669 990 
L 2554 990 
C 2490 537 2438 460 2413 422 
C 2381 371 1920 371 1830 371 
L 602 371 
C 832 620 1280 1073 1824 1596 
C 2214 1966 2669 2400 2669 3033 
C 2669 3788 2067 4224 1395 4224 
C 691 4224 262 3603 262 3027 
C 262 2777 448 2745 525 2745 
C 589 2745 781 2783 781 3007 
C 781 3206 614 3264 525 3264 
C 486 3264 448 3257 422 3244 
C 544 3788 915 4057 1306 4057 
C 1862 4057 2227 3616 2227 3033 
C 2227 2477 1901 1998 1536 1583 
L 262 147 
L 262 0 
L 2515 0 
L 2669 990 
z
" transform="scale(0.015625)"/>
       </defs>
       <use xlink:href="#CMR17-32" transform="scale(0.996264)"/>
       <use xlink:href="#CMR17-30" transform="translate(45.690477 0) scale(0.996264)"/>
       <use xlink:href="#CMR17-30" transform="translate(91.380954 0) scale(0.996264)"/>
      </g>
     </g>
    </g>
    <g id="xtick_6">
     <g id="line2d_6">
      <path d="M 612.68984 384.48 
L 612.68984 51.84 
" clip-path="url(#p0df65cdc79)" style="fill: none; stroke: #cccccc; stroke-linecap: round"/>
     </g>
     <g id="text_6">
      <!-- $\mathdefault{250}$ -->
      <g style="fill: #262626" transform="translate(593.842518 413.005867) scale(0.275 -0.275)">
       <use xlink:href="#CMR17-32" transform="scale(0.996264)"/>
       <use xlink:href="#CMR17-35" transform="translate(45.690477 0) scale(0.996264)"/>
       <use xlink:href="#CMR17-30" transform="translate(91.380954 0) scale(0.996264)"/>
      </g>
     </g>
    </g>
    <g id="text_7">
     <!-- Time -->
     <g style="fill: #262626" transform="translate(337.682086 443.090362) scale(0.3 -0.3)">
      <defs>
       <path id="CMR17-54" d="M 3981 4332 
L 288 4332 
L 179 2924 
L 294 2924 
C 378 3981 467 4166 1453 4166 
C 1568 4166 1754 4166 1805 4159 
C 1926 4140 1926 4064 1926 3917 
L 1926 465 
C 1926 236 1907 166 1376 166 
L 1197 166 
L 1197 0 
C 1504 6 1824 12 2138 12 
C 2451 12 2771 6 3078 0 
L 3078 166 
L 2899 166 
C 2368 166 2349 236 2349 465 
L 2349 3917 
C 2349 4057 2349 4134 2464 4159 
C 2515 4166 2701 4166 2816 4166 
C 3795 4166 3891 3981 3974 2924 
L 4090 2924 
L 3981 4332 
z
" transform="scale(0.015625)"/>
       <path id="CMR17-69" d="M 992 3961 
C 992 4102 877 4224 730 4224 
C 589 4224 467 4108 467 3961 
C 467 3820 582 3699 730 3699 
C 870 3699 992 3814 992 3961 
z
M 243 2745 
L 243 2579 
C 602 2579 653 2540 653 2231 
L 653 443 
C 653 198 627 166 218 166 
L 218 0 
C 371 12 646 12 806 12 
C 960 12 1222 12 1370 0 
L 1370 166 
C 992 166 979 205 979 436 
L 979 2816 
L 243 2745 
z
" transform="scale(0.015625)"/>
       <path id="CMR17-6d" d="M 4326 1954 
C 4326 2276 4269 2816 3507 2816 
C 3072 2816 2771 2520 2656 2173 
L 2650 2173 
C 2573 2700 2195 2816 1837 2816 
C 1331 2816 1069 2424 973 2166 
L 966 2166 
L 966 2816 
L 211 2745 
L 211 2578 
C 589 2578 646 2540 646 2231 
L 646 443 
C 646 198 621 166 211 166 
L 211 0 
C 365 12 646 12 813 12 
C 979 12 1267 12 1421 0 
L 1421 166 
C 1011 166 986 192 986 443 
L 986 1678 
C 986 2269 1344 2713 1792 2713 
C 2266 2713 2317 2289 2317 1980 
L 2317 443 
C 2317 198 2291 166 1882 166 
L 1882 0 
C 2035 12 2317 12 2483 12 
C 2650 12 2938 12 3091 0 
L 3091 166 
C 2682 166 2656 192 2656 443 
L 2656 1678 
C 2656 2269 3014 2713 3462 2713 
C 3936 2713 3987 2289 3987 1980 
L 3987 443 
C 3987 198 3962 166 3552 166 
L 3552 0 
C 3706 12 3987 12 4154 12 
C 4320 12 4608 12 4762 0 
L 4762 166 
C 4352 166 4326 192 4326 443 
L 4326 1954 
z
" transform="scale(0.015625)"/>
       <path id="CMR17-65" d="M 2438 1503 
C 2464 1529 2464 1542 2464 1606 
C 2464 2251 2118 2816 1389 2816 
C 710 2816 173 2175 173 1394 
C 173 554 781 -64 1459 -64 
C 2176 -64 2458 619 2458 755 
C 2458 800 2419 800 2406 800 
C 2362 800 2355 787 2330 709 
C 2189 270 1837 51 1504 51 
C 1229 51 954 206 781 490 
C 582 819 582 1200 582 1503 
L 2438 1503 
z
M 589 1600 
C 634 2511 1126 2713 1382 2713 
C 1818 2713 2112 2308 2118 1600 
L 589 1600 
z
" transform="scale(0.015625)"/>
      </defs>
      <use xlink:href="#CMR17-54" transform="scale(0.996264)"/>
      <use xlink:href="#CMR17-69" transform="translate(66.509881 0) scale(0.996264)"/>
      <use xlink:href="#CMR17-6d" transform="translate(91.380939 0) scale(0.996264)"/>
      <use xlink:href="#CMR17-65" transform="translate(168.300529 0) scale(0.996264)"/>
     </g>
    </g>
   </g>
   <g id="matplotlib.axis_2">
    <g id="ytick_1">
     <g id="line2d_7">
      <path d="M 90 331.118813 
L 648 331.118813 
" clip-path="url(#p0df65cdc79)" style="fill: none; stroke: #cccccc; stroke-linecap: round"/>
     </g>
     <g id="text_8">
      <!-- $\mathdefault{−1}$ -->
      <g style="fill: #262626" transform="translate(46.626066 340.631747) scale(0.275 -0.275)">
       <defs>
        <path id="CMSY10-0" d="M 4218 1472 
C 4326 1472 4442 1472 4442 1600 
C 4442 1728 4326 1728 4218 1728 
L 755 1728 
C 646 1728 531 1728 531 1600 
C 531 1472 646 1472 755 1472 
L 4218 1472 
z
" transform="scale(0.015625)"/>
       </defs>
       <use xlink:href="#CMSY10-0" transform="scale(0.996264)"/>
       <use xlink:href="#CMR17-31" transform="translate(77.487468 0) scale(0.996264)"/>
      </g>
     </g>
    </g>
    <g id="ytick_2">
     <g id="line2d_8">
      <path d="M 90 244.986756 
L 648 244.986756 
" clip-path="url(#p0df65cdc79)" style="fill: none; stroke: #cccccc; stroke-linecap: round"/>
     </g>
     <g id="text_9">
      <!-- $\mathdefault{0}$ -->
      <g style="fill: #262626" transform="translate(67.935119 254.499689) scale(0.275 -0.275)">
       <use xlink:href="#CMR17-30" transform="scale(0.996264)"/>
      </g>
     </g>
    </g>
    <g id="ytick_3">
     <g id="line2d_9">
      <path d="M 90 158.854698 
L 648 158.854698 
" clip-path="url(#p0df65cdc79)" style="fill: none; stroke: #cccccc; stroke-linecap: round"/>
     </g>
     <g id="text_10">
      <!-- $\mathdefault{1}$ -->
      <g style="fill: #262626" transform="translate(67.935119 168.367631) scale(0.275 -0.275)">
       <use xlink:href="#CMR17-31" transform="scale(0.996264)"/>
      </g>
     </g>
    </g>
    <g id="ytick_4">
     <g id="line2d_10">
      <path d="M 90 72.72264 
L 648 72.72264 
" clip-path="url(#p0df65cdc79)" style="fill: none; stroke: #cccccc; stroke-linecap: round"/>
     </g>
     <g id="text_11">
      <!-- $\mathdefault{2}$ -->
      <g style="fill: #262626" transform="translate(67.935119 82.235574) scale(0.275 -0.275)">
       <use xlink:href="#CMR17-32" transform="scale(0.996264)"/>
      </g>
     </g>
    </g>
    <g id="text_12">
     <!-- Amplitude -->
     <g style="fill: #262626" transform="translate(36.812616 281.787972) rotate(-90) scale(0.3 -0.3)">
      <defs>
       <path id="CMR17-41" d="M 2323 4441 
C 2291 4524 2278 4544 2214 4544 
C 2150 4544 2138 4524 2106 4441 
L 749 580 
C 627 236 371 166 147 166 
L 147 0 
C 262 12 518 12 640 12 
C 800 12 1056 12 1210 0 
L 1210 166 
C 909 179 864 382 864 459 
C 864 516 877 548 890 586 
L 1229 1536 
L 2906 1536 
L 3290 453 
C 3322 376 3322 363 3322 338 
C 3322 166 3046 166 2925 166 
L 2925 0 
C 3110 12 3443 12 3642 12 
C 3808 12 4128 12 4282 0 
L 4282 166 
C 3942 166 3827 166 3744 402 
L 2323 4441 
z
M 2067 3924 
L 2848 1702 
L 1286 1702 
L 2067 3924 
z
" transform="scale(0.015625)"/>
       <path id="CMR17-70" d="M 1408 -1114 
C 998 -1114 973 -1088 973 -834 
L 973 380 
C 1158 109 1427 -64 1766 -64 
C 2406 -64 3053 503 3053 1382 
C 3053 2196 2496 2816 1837 2816 
C 1453 2816 1139 2603 960 2345 
L 960 2816 
L 198 2745 
L 198 2577 
C 576 2577 634 2539 634 2228 
L 634 -834 
C 634 -1081 608 -1114 198 -1114 
L 198 -1280 
C 352 -1268 634 -1268 800 -1268 
C 966 -1268 1254 -1268 1408 -1280 
L 1408 -1114 
z
M 973 2015 
C 973 2106 973 2241 1222 2481 
C 1254 2506 1472 2700 1792 2700 
C 2259 2700 2643 2112 2643 1376 
C 2643 639 2234 38 1728 38 
C 1498 38 1248 148 1056 451 
C 973 594 973 632 973 736 
L 973 2015 
z
" transform="scale(0.015625)"/>
       <path id="CMR17-6c" d="M 979 4416 
L 218 4345 
L 218 4179 
C 595 4179 653 4141 653 3835 
L 653 439 
C 653 198 627 166 218 166 
L 218 0 
C 371 12 653 12 813 12 
C 979 12 1261 12 1414 0 
L 1414 166 
C 1005 166 979 191 979 439 
L 979 4416 
z
" transform="scale(0.015625)"/>
       <path id="CMR17-74" d="M 966 2585 
L 1862 2585 
L 1862 2752 
L 966 2752 
L 966 3968 
L 851 3968 
C 838 3292 614 2700 70 2687 
L 70 2585 
L 627 2585 
L 627 778 
C 627 655 627 -64 1370 -64 
C 1747 -64 1965 308 1965 784 
L 1965 1151 
L 1850 1151 
L 1850 790 
C 1850 347 1677 51 1408 51 
C 1222 51 966 179 966 765 
L 966 2585 
z
" transform="scale(0.015625)"/>
       <path id="CMR17-75" d="M 1882 2745 
L 1882 2579 
C 2259 2579 2317 2540 2317 2229 
L 2317 1053 
C 2317 510 2029 38 1555 38 
C 1030 38 986 355 986 691 
L 986 2816 
L 211 2745 
L 211 2579 
C 467 2579 640 2579 646 2320 
L 646 1079 
C 646 646 646 368 813 187 
C 896 103 1056 -64 1517 -64 
C 2061 -64 2272 400 2323 536 
L 2330 536 
L 2330 -64 
L 3091 -13 
L 3091 154 
C 2714 154 2656 193 2656 503 
L 2656 2816 
L 1882 2745 
z
" transform="scale(0.015625)"/>
       <path id="CMR17-64" d="M 1869 4345 
L 1869 4179 
C 2246 4179 2304 4141 2304 3843 
L 2304 2371 
C 2278 2403 2016 2816 1498 2816 
C 845 2816 211 2228 211 1376 
C 211 529 806 -64 1434 -64 
C 1978 -64 2259 361 2291 406 
L 2291 -64 
L 3066 -13 
L 3066 154 
C 2688 154 2630 193 2630 503 
L 2630 4416 
L 1869 4345 
z
M 2291 762 
C 2291 568 2176 393 2029 264 
C 1811 70 1594 38 1472 38 
C 1286 38 621 135 621 1369 
C 621 2636 1363 2713 1530 2713 
C 1824 2713 2061 2545 2208 2313 
C 2291 2177 2291 2157 2291 2041 
L 2291 762 
z
" transform="scale(0.015625)"/>
      </defs>
      <use xlink:href="#CMR17-41" transform="scale(0.996264)"/>
      <use xlink:href="#CMR17-6d" transform="translate(69.07243 0) scale(0.996264)"/>
      <use xlink:href="#CMR17-70" transform="translate(145.99202 0) scale(0.996264)"/>
      <use xlink:href="#CMR17-6c" transform="translate(196.887389 0) scale(0.996264)"/>
      <use xlink:href="#CMR17-69" transform="translate(221.758448 0) scale(0.996264)"/>
      <use xlink:href="#CMR17-74" transform="translate(246.629506 0) scale(0.996264)"/>
      <use xlink:href="#CMR17-75" transform="translate(281.910274 0) scale(0.996264)"/>
      <use xlink:href="#CMR17-64" transform="translate(332.805644 0) scale(0.996264)"/>
      <use xlink:href="#CMR17-65" transform="translate(383.701014 0) scale(0.996264)"/>
     </g>
    </g>
   </g>
   <g id="line2d_11">
    <path d="M 115.363636 239.322448 
L 123.320856 239.881593 
L 125.31016 135.307901 
L 173.053476 201.257198 
L 204.882353 245.016557 
L 224.775401 246.104163 
L 274.508021 172.378233 
L 286.44385 154.623897 
L 288.433155 249.150139 
L 324.240642 250.572635 
L 362.037433 159.785327 
L 364.026738 159.845933 
L 401.823529 252.936266 
L 421.716578 253.383965 
L 423.705882 160.413295 
L 425.695187 160.939967 
L 427.684492 162.433118 
L 429.673797 164.877558 
L 431.663102 168.248148 
L 433.652406 172.510059 
L 435.641711 177.619143 
L 437.631016 183.522385 
L 439.620321 190.158466 
L 441.609626 197.458399 
L 443.59893 205.346252 
L 447.57754 222.552083 
L 451.55615 241.061282 
L 459.513369 278.890845 
L 463.491979 296.638784 
L 465.481283 304.890348 
L 467.470588 312.610812 
L 469.459893 319.719761 
L 471.449198 326.143162 
L 473.438503 331.814145 
L 475.427807 336.673695 
L 477.417112 340.671273 
L 479.406417 343.765343 
L 481.395722 345.923805 
L 483.385027 347.124333 
L 485.374332 347.354607 
L 487.363636 346.612442 
L 489.352941 344.905808 
L 491.342246 342.252753 
L 493.331551 338.681208 
L 495.320856 334.2287 
L 497.31016 254.495729 
L 521.181818 254.652901 
L 523.171123 87.217471 
L 560.967914 87.263689 
L 598.764706 87.076568 
L 610.700535 86.969 
L 612.68984 254.393136 
L 622.636364 254.282489 
L 622.636364 254.282489 
" clip-path="url(#p0df65cdc79)" style="fill: none; stroke: #4c72b0; stroke-width: 3; stroke-linecap: round"/>
   </g>
   <g id="line2d_12">
    <path d="M 115.363636 224.800592 
L 125.31016 225.412202 
L 131.278075 209.450465 
L 135.256684 199.501653 
L 137.245989 194.884417 
L 139.235294 190.566867 
L 141.224599 186.591669 
L 143.213904 182.998183 
L 145.203209 179.822084 
L 147.192513 177.095015 
L 149.181818 174.844288 
L 151.171123 173.092613 
L 153.160428 171.857888 
L 155.149733 171.153019 
L 157.139037 170.985801 
L 159.128342 171.358841 
L 161.117647 172.269532 
L 163.106952 173.710079 
L 165.096257 175.667575 
L 167.085561 178.124124 
L 169.074866 181.057014 
L 171.064171 184.438936 
L 173.053476 188.238243 
L 175.042781 192.419263 
L 177.032086 196.942635 
L 181.010695 206.84287 
L 184.989305 217.56551 
L 188.967914 228.70535 
L 218.807487 229.879155 
L 222.786096 230.017825 
L 224.775401 139.562458 
L 254.614973 140.452967 
L 284.454545 141.107395 
L 314.294118 141.525743 
L 316.283422 141.545239 
L 318.272727 232.086814 
L 322.251337 232.12056 
L 324.240642 155.715664 
L 326.229947 156.128676 
L 328.219251 157.334003 
L 330.208556 159.319203 
L 332.197861 162.063686 
L 334.187166 165.538926 
L 336.176471 169.708759 
L 338.165775 174.529764 
L 340.15508 179.951711 
L 342.144385 185.918088 
L 344.13369 192.366691 
L 348.112299 206.437243 
L 352.090909 221.577804 
L 360.048128 252.529319 
L 364.026738 267.051264 
L 366.016043 273.802594 
L 368.005348 280.118863 
L 369.994652 285.934071 
L 371.983957 291.187439 
L 373.973262 295.82404 
L 375.962567 299.79537 
L 377.951872 303.059861 
L 379.941176 305.583308 
L 381.930481 307.339229 
L 383.919786 308.309141 
L 385.909091 308.482753 
L 387.898396 307.858075 
L 389.887701 306.441433 
L 391.877005 304.247411 
L 393.86631 301.298693 
L 395.855615 297.625829 
L 397.84492 293.266914 
L 399.834225 288.267192 
L 401.823529 282.678584 
L 403.812834 276.559147 
L 405.802139 269.972463 
L 409.780749 255.67531 
L 411.770053 231.77026 
L 421.716578 231.600183 
L 423.705882 118.322661 
L 461.502674 168.644983 
L 499.299465 218.588528 
L 507.256684 229.054693 
L 523.171123 228.367068 
L 558.97861 185.574404 
L 594.786096 142.441786 
L 610.700535 123.162611 
L 612.68984 223.247951 
L 622.636364 222.548004 
L 622.636364 222.548004 
" clip-path="url(#p0df65cdc79)" style="fill: none; stroke: #dd8452; stroke-width: 3; stroke-linecap: round"/>
   </g>
   <g id="line2d_13">
    <path d="M 115.363636 218.676482 
L 123.320856 219.307415 
L 125.31016 165.25677 
L 127.299465 165.481691 
L 129.28877 165.848194 
L 131.278075 166.355713 
L 133.26738 167.003307 
L 135.256684 167.789664 
L 137.245989 168.7131 
L 139.235294 169.771568 
L 141.224599 170.96266 
L 145.203209 173.73133 
L 149.181818 176.992929 
L 153.160428 180.716023 
L 157.139037 184.864259 
L 161.117647 189.396752 
L 165.096257 194.268508 
L 169.074866 199.430908 
L 175.042781 207.605566 
L 183 219.019497 
L 192.946524 233.464068 
L 194.935829 224.098354 
L 220.796791 225.435835 
L 222.786096 225.53009 
L 224.775401 153.443155 
L 254.614973 178.227525 
L 284.454545 202.734561 
L 314.294118 226.964266 
L 316.283422 228.569719 
L 322.251337 228.671293 
L 324.240642 197.875904 
L 350.101604 198.171848 
L 375.962567 198.259485 
L 397.84492 198.170937 
L 399.834225 228.982274 
L 423.705882 228.700788 
L 463.491979 139.595711 
L 465.481283 139.53959 
L 505.26738 226.399837 
L 523.171123 225.617418 
L 529.139037 207.07863 
L 533.117647 195.213154 
L 537.096257 184.079635 
L 541.074866 173.9473 
L 543.064171 169.334105 
L 545.053476 165.0606 
L 547.042781 161.152484 
L 549.032086 157.633194 
L 551.02139 154.523763 
L 553.010695 151.842687 
L 555 149.605817 
L 556.989305 147.826255 
L 558.97861 146.514278 
L 560.967914 145.677272 
L 562.957219 145.319685 
L 564.946524 145.443004 
L 566.935829 146.045743 
L 568.925134 147.123452 
L 570.914439 148.668746 
L 572.903743 150.671348 
L 574.893048 153.118156 
L 576.882353 155.99332 
L 578.871658 159.278342 
L 580.860963 162.95219 
L 582.850267 166.991427 
L 584.839572 171.370354 
L 588.818182 181.034154 
L 592.796791 191.699137 
L 596.775401 203.096078 
L 602.743316 220.932063 
L 622.636364 219.452577 
L 622.636364 219.452577 
" clip-path="url(#p0df65cdc79)" style="fill: none; stroke: #55a868; stroke-width: 3; stroke-linecap: round"/>
   </g>
   <g id="line2d_14">
    <path d="M 115.363636 276.951804 
L 125.31016 277.057405 
L 171.064171 208.957441 
L 175.042781 203.054537 
L 177.032086 277.910104 
L 210.850267 278.742965 
L 224.775401 279.149183 
L 272.518717 191.95721 
L 274.508021 192.036333 
L 322.251337 283.026224 
L 324.240642 177.631628 
L 328.219251 177.986344 
L 332.197861 178.6567 
L 336.176471 179.641302 
L 340.15508 180.937836 
L 344.13369 182.543068 
L 348.112299 184.452857 
L 352.090909 186.662168 
L 356.069519 189.165087 
L 360.048128 191.954836 
L 364.026738 195.023794 
L 368.005348 198.363522 
L 371.983957 201.964785 
L 375.962567 205.817583 
L 379.941176 209.911174 
L 383.919786 214.234116 
L 389.887701 221.121879 
L 395.855615 228.45473 
L 401.823529 236.186209 
L 407.791444 244.267236 
L 413.759358 252.646446 
L 415.748663 288.444434 
L 423.705882 288.982394 
L 429.673797 261.958033 
L 433.652406 244.984853 
L 437.631016 229.536445 
L 439.620321 222.553959 
L 441.609626 216.148459 
L 443.59893 210.375807 
L 445.588235 205.286477 
L 447.57754 200.925116 
L 449.566845 197.330167 
L 451.55615 194.533544 
L 453.545455 192.560351 
L 455.534759 191.428678 
L 457.524064 191.149439 
L 459.513369 191.726282 
L 461.502674 193.15556 
L 463.491979 195.426358 
L 465.481283 198.520586 
L 467.470588 202.413139 
L 469.459893 207.072105 
L 471.449198 212.45904 
L 473.438503 218.529296 
L 475.427807 225.232402 
L 477.417112 232.512492 
L 479.406417 240.308788 
L 483.385027 257.185437 
L 487.363636 275.298386 
L 491.342246 294.041674 
L 521.181818 296.550542 
L 523.171123 208.665962 
L 566.935829 268.019453 
L 592.796791 303.263343 
L 622.636364 306.348476 
L 622.636364 306.348476 
" clip-path="url(#p0df65cdc79)" style="fill: none; stroke: #c44e52; stroke-width: 3; stroke-linecap: round"/>
   </g>
   <g id="line2d_15">
    <path d="M 115.363636 244.657982 
L 125.31016 244.145235 
L 163.106952 111.621108 
L 165.096257 111.513548 
L 202.893048 239.950409 
L 224.775401 238.704626 
L 232.73262 214.455298 
L 236.71123 203.027927 
L 240.68984 192.419677 
L 244.668449 182.873754 
L 246.657754 178.568497 
L 248.647059 174.608443 
L 250.636364 171.016142 
L 252.625668 167.811989 
L 254.614973 165.014096 
L 256.604278 162.63819 
L 258.593583 160.697523 
L 260.582888 159.202787 
L 262.572193 158.162061 
L 264.561497 157.580754 
L 266.550802 157.46158 
L 268.540107 157.804539 
L 270.529412 158.606917 
L 272.518717 159.863305 
L 274.508021 161.565624 
L 276.497326 163.703182 
L 278.486631 166.262727 
L 280.475936 169.228533 
L 282.465241 172.582485 
L 284.454545 176.304191 
L 286.44385 180.3711 
L 288.433155 184.758633 
L 292.411765 194.387994 
L 296.390374 204.96085 
L 300.368984 216.22364 
L 306.336898 233.818492 
L 322.251337 232.820465 
L 324.240642 156.939808 
L 330.208556 156.654339 
L 336.176471 156.553054 
L 342.144385 156.635265 
L 348.112299 156.899827 
L 354.080214 157.345144 
L 360.048128 157.969164 
L 366.016043 158.769397 
L 371.983957 159.742909 
L 379.941176 161.304595 
L 387.898396 163.159167 
L 395.855615 165.296185 
L 401.823529 167.07732 
L 403.812834 227.476816 
L 421.716578 226.252581 
L 423.705882 123.807418 
L 479.406417 222.18234 
L 523.171123 218.966813 
L 592.796791 136.375527 
L 594.786096 213.46729 
L 622.636364 211.24888 
L 622.636364 211.24888 
" clip-path="url(#p0df65cdc79)" style="fill: none; stroke: #8172b3; stroke-width: 3; stroke-linecap: round"/>
   </g>
   <g id="line2d_16">
    <path d="M 115.363636 287.998529 
L 125.31016 288.77881 
L 131.278075 274.188666 
L 135.256684 264.898346 
L 139.235294 256.249098 
L 143.213904 248.473242 
L 145.203209 244.979418 
L 147.192513 241.78053 
L 149.181818 238.898378 
L 151.171123 236.352713 
L 153.160428 234.161107 
L 155.149733 232.338837 
L 157.139037 230.89879 
L 159.128342 229.851378 
L 161.117647 229.204467 
L 163.106952 228.963333 
L 165.096257 229.130619 
L 167.085561 229.706327 
L 169.074866 230.68781 
L 171.064171 232.069796 
L 173.053476 233.844415 
L 175.042781 236.001258 
L 177.032086 238.527437 
L 179.02139 241.407675 
L 181.010695 244.6244 
L 183 248.157861 
L 184.989305 251.986258 
L 188.967914 260.431259 
L 192.946524 269.749653 
L 196.925134 279.709119 
L 202.893048 295.302982 
L 222.786096 297.100911 
L 224.775401 203.021191 
L 276.497326 267.72408 
L 306.336898 305.209639 
L 324.240642 307.064375 
L 373.973262 252.87809 
L 401.823529 222.673127 
L 403.812834 315.807904 
L 421.716578 317.887755 
L 423.705882 281.982184 
L 465.481283 287.006687 
L 507.256684 292.256305 
L 509.245989 292.511902 
L 511.235294 328.907228 
L 523.171123 330.454592 
L 568.925134 233.508023 
L 570.914439 233.779444 
L 616.668449 343.211396 
L 622.636364 344.063945 
L 622.636364 344.063945 
" clip-path="url(#p0df65cdc79)" style="fill: none; stroke: #937860; stroke-width: 3; stroke-linecap: round"/>
   </g>
   <g id="line2d_17">
    <path d="M 115.363636 202.755594 
L 125.31016 202.136354 
L 161.117647 77.192635 
L 163.106952 77.074985 
L 198.914439 197.783293 
L 222.786096 196.458255 
L 224.775401 159.531056 
L 278.486631 156.713072 
L 318.272727 154.764384 
L 320.262032 191.488747 
L 322.251337 191.394707 
L 324.240642 95.502422 
L 385.909091 188.541237 
L 421.716578 187.068966 
L 423.705882 113.402583 
L 427.684492 113.322585 
L 431.663102 113.397796 
L 435.641711 113.627732 
L 439.620321 114.011586 
L 443.59893 114.548234 
L 447.57754 115.23623 
L 453.545455 116.548072 
L 459.513369 118.189178 
L 465.481283 120.150767 
L 471.449198 122.422559 
L 477.417112 124.992826 
L 483.385027 127.848444 
L 485.374332 128.861266 
L 487.363636 184.618147 
L 523.171123 183.416799 
L 592.796791 94.751554 
L 614.679144 66.96 
L 616.668449 180.730745 
L 622.636364 180.581429 
L 622.636364 180.581429 
" clip-path="url(#p0df65cdc79)" style="fill: none; stroke: #da8bc3; stroke-width: 3; stroke-linecap: round"/>
   </g>
   <g id="line2d_18">
    <path d="M 115.363636 280.612745 
L 125.31016 281.006085 
L 171.064171 193.884951 
L 173.053476 193.955452 
L 218.807487 284.319654 
L 222.786096 284.445266 
L 224.775401 195.972631 
L 226.764706 196.124739 
L 228.754011 196.456523 
L 230.743316 196.967435 
L 232.73262 197.656559 
L 234.721925 198.522617 
L 236.71123 199.563971 
L 238.700535 200.778623 
L 240.68984 202.164226 
L 242.679144 203.71808 
L 244.668449 205.437144 
L 246.657754 207.318041 
L 250.636364 211.550179 
L 254.614973 216.38101 
L 258.593583 221.772171 
L 262.572193 227.680728 
L 266.550802 234.059529 
L 270.529412 240.857584 
L 274.508021 248.020484 
L 280.475936 259.322678 
L 282.465241 263.208748 
L 284.454545 286.231593 
L 322.251337 287.177242 
L 324.240642 246.177948 
L 377.951872 288.364154 
L 421.716578 289.123973 
L 423.705882 242.382735 
L 477.417112 243.098984 
L 491.342246 243.247301 
L 493.331551 290.039396 
L 523.171123 290.30068 
L 529.139037 270.845259 
L 533.117647 258.435028 
L 537.096257 246.850694 
L 541.074866 236.392967 
L 543.064171 231.672764 
L 545.053476 227.333346 
L 547.042781 223.402933 
L 549.032086 219.907089 
L 551.02139 216.868559 
L 553.010695 214.307118 
L 555 212.239446 
L 556.989305 210.679019 
L 558.97861 209.636022 
L 560.967914 209.117281 
L 562.957219 209.126219 
L 564.946524 209.662837 
L 566.935829 210.723711 
L 568.925134 212.302014 
L 570.914439 214.387562 
L 572.903743 216.96688 
L 574.893048 220.023287 
L 576.882353 223.537007 
L 578.871658 227.485297 
L 580.860963 231.842591 
L 582.850267 236.58067 
L 584.839572 241.668845 
L 588.818182 252.761566 
L 592.796791 264.83372 
L 598.764706 284.089968 
L 600.754011 290.649273 
L 622.636364 290.661217 
L 622.636364 290.661217 
" clip-path="url(#p0df65cdc79)" style="fill: none; stroke: #8c8c8c; stroke-width: 3; stroke-linecap: round"/>
   </g>
   <g id="line2d_19">
    <path d="M 115.363636 221.442731 
L 125.31016 221.607044 
L 131.278075 199.64983 
L 135.256684 185.898153 
L 137.245989 179.478825 
L 139.235294 173.442722 
L 141.224599 167.844799 
L 143.213904 162.736044 
L 145.203209 158.163015 
L 147.192513 154.167416 
L 149.181818 150.785723 
L 151.171123 148.04885 
L 153.160428 145.981871 
L 155.149733 144.603795 
L 157.139037 143.92739 
L 159.128342 143.959068 
L 161.117647 144.69883 
L 163.106952 146.140262 
L 165.096257 148.270596 
L 167.085561 151.070825 
L 169.074866 154.515875 
L 171.064171 158.57483 
L 173.053476 163.211215 
L 175.042781 168.383326 
L 177.032086 174.044605 
L 179.02139 180.144064 
L 183 193.43423 
L 186.97861 207.775718 
L 190.957219 222.65242 
L 224.775401 223.164453 
L 268.540107 128.367881 
L 270.529412 128.396068 
L 314.294118 224.432874 
L 322.251337 224.539513 
L 324.240642 159.346308 
L 381.930481 160.087807 
L 383.919786 225.33215 
L 421.716578 225.788349 
L 423.705882 137.2962 
L 427.684492 137.529341 
L 431.663102 138.134553 
L 435.641711 139.109481 
L 439.620321 140.450209 
L 443.59893 142.151279 
L 447.57754 144.205714 
L 451.55615 146.605043 
L 455.534759 149.339345 
L 459.513369 152.397283 
L 463.491979 155.766154 
L 467.470588 159.431945 
L 471.449198 163.379391 
L 475.427807 167.592037 
L 479.406417 172.052309 
L 485.374332 179.166025 
L 491.342246 186.727958 
L 497.31016 194.667029 
L 505.26738 205.709643 
L 507.256684 208.532791 
L 509.245989 226.758409 
L 521.181818 226.881339 
L 523.171123 147.173669 
L 588.818182 227.535554 
L 622.636364 227.835637 
L 622.636364 227.835637 
" clip-path="url(#p0df65cdc79)" style="fill: none; stroke: #ccb974; stroke-width: 3; stroke-linecap: round"/>
   </g>
   <g id="line2d_20">
    <path d="M 115.363636 226.323076 
L 125.31016 225.650957 
L 131.278075 195.527719 
L 135.256684 177.107753 
L 137.245989 168.746453 
L 139.235294 161.091493 
L 141.224599 154.237518 
L 143.213904 148.269109 
L 145.203209 143.259715 
L 147.192513 139.270737 
L 149.181818 136.350749 
L 151.171123 134.53489 
L 153.160428 133.844421 
L 155.149733 134.286459 
L 157.139037 135.853888 
L 159.128342 138.525446 
L 161.117647 142.265994 
L 163.106952 147.026957 
L 165.096257 152.746936 
L 167.085561 159.352481 
L 169.074866 166.75901 
L 171.064171 174.871879 
L 175.042781 192.794985 
L 179.02139 212.21122 
L 181.010695 222.172932 
L 218.807487 220.089095 
L 222.786096 219.882737 
L 224.775401 88.30651 
L 262.572193 86.481291 
L 276.497326 85.865144 
L 278.486631 217.253574 
L 316.283422 215.74575 
L 324.240642 215.456774 
L 381.930481 92.101311 
L 383.919786 213.604992 
L 421.716578 212.720204 
L 423.705882 110.358964 
L 469.459893 161.898297 
L 513.224599 211.503047 
L 521.181818 211.459078 
L 523.171123 162.201788 
L 525.160428 162.901776 
L 527.149733 164.999609 
L 529.139037 168.434662 
L 531.128342 173.107837 
L 533.117647 178.884414 
L 535.106952 185.597927 
L 537.096257 193.054958 
L 541.074866 209.325165 
L 545.053476 225.834168 
L 547.042781 233.58332 
L 549.032086 240.694085 
L 551.02139 246.961735 
L 553.010695 252.20583 
L 555 256.27541 
L 556.989305 259.053343 
L 558.97861 260.459695 
L 560.967914 260.454033 
L 562.957219 259.036585 
L 564.946524 256.248239 
L 566.935829 252.16936 
L 568.925134 246.917481 
L 570.914439 240.64392 
L 572.903743 233.529419 
L 574.893048 225.778947 
L 576.882353 211.428472 
L 614.679144 211.683956 
L 622.636364 211.766202 
L 622.636364 211.766202 
" clip-path="url(#p0df65cdc79)" style="fill: none; stroke: #64b5cd; stroke-width: 3; stroke-linecap: round"/>
   </g>
   <g id="line2d_21">
    <path d="M 115.363636 249.058278 
L 123.320856 248.816257 
L 125.31016 137.736583 
L 179.02139 135.963049 
L 198.914439 135.248092 
L 200.903743 246.193252 
L 224.775401 245.290087 
L 270.529412 163.633362 
L 272.518717 163.548835 
L 318.272727 241.317313 
L 322.251337 241.132872 
L 324.240642 178.842685 
L 326.229947 179.044293 
L 328.219251 179.832022 
L 330.208556 181.197525 
L 332.197861 183.12698 
L 334.187166 185.601217 
L 336.176471 188.595905 
L 338.165775 192.081777 
L 340.15508 196.024911 
L 342.144385 200.387049 
L 344.13369 205.125963 
L 348.112299 215.547771 
L 352.090909 226.889067 
L 364.026738 261.994676 
L 368.005348 272.555864 
L 369.994652 277.382883 
L 371.983957 281.844279 
L 373.973262 285.896837 
L 375.962567 289.501214 
L 377.951872 292.622307 
L 379.941176 295.229592 
L 381.930481 297.297405 
L 383.919786 298.805195 
L 385.909091 299.737709 
L 387.898396 300.085142 
L 389.887701 299.843231 
L 391.877005 299.013291 
L 393.86631 297.602204 
L 395.855615 295.622356 
L 397.84492 293.091519 
L 399.834225 290.03268 
L 401.823529 286.473825 
L 403.812834 282.447676 
L 405.802139 277.991376 
L 407.791444 273.146142 
L 409.780749 267.956873 
L 411.770053 236.65089 
L 421.716578 236.113641 
L 423.705882 162.270076 
L 483.385027 208.029086 
L 513.224599 230.802612 
L 523.171123 230.18529 
L 584.839572 172.722631 
L 612.68984 146.67284 
L 614.679144 224.137593 
L 622.636364 223.580305 
L 622.636364 223.580305 
" clip-path="url(#p0df65cdc79)" style="fill: none; stroke: #4c72b0; stroke-width: 3; stroke-linecap: round"/>
   </g>
   <g id="line2d_22">
    <path d="M 115.363636 264.564585 
L 125.31016 264.604221 
L 202.893048 189.588535 
L 204.882353 264.861026 
L 222.786096 264.904039 
L 224.775401 181.52341 
L 286.44385 265.013037 
L 322.251337 265.044208 
L 324.240642 141.206753 
L 407.791444 141.192283 
L 409.780749 265.029049 
L 423.705882 265.014682 
L 429.673797 229.023202 
L 433.652406 206.77856 
L 435.641711 196.553514 
L 437.631016 187.078313 
L 439.620321 178.456738 
L 441.609626 170.783219 
L 443.59893 164.141798 
L 445.588235 158.605207 
L 447.57754 154.234073 
L 449.566845 151.076254 
L 451.55615 149.166314 
L 453.545455 148.525144 
L 455.534759 149.159731 
L 457.524064 151.063088 
L 459.513369 154.214324 
L 461.502674 158.578875 
L 463.491979 164.108883 
L 465.481283 170.743721 
L 467.470588 178.410657 
L 469.459893 187.025648 
L 471.449198 196.494267 
L 473.438503 206.71273 
L 477.417112 228.944205 
L 483.385027 264.915937 
L 523.171123 264.816618 
L 560.967914 192.579654 
L 562.957219 192.572713 
L 600.754011 264.54589 
L 622.636364 264.451112 
L 622.636364 264.451112 
" clip-path="url(#p0df65cdc79)" style="fill: none; stroke: #dd8452; stroke-width: 3; stroke-linecap: round"/>
   </g>
   <g id="line2d_23">
    <path d="M 115.363636 266.266644 
L 125.31016 266.907043 
L 167.085561 193.590756 
L 169.074866 193.742978 
L 210.850267 273.452602 
L 222.786096 274.513809 
L 224.775401 209.120463 
L 264.561497 265.39847 
L 274.508021 279.530843 
L 304.347594 282.734612 
L 322.251337 284.765515 
L 324.240642 200.861421 
L 336.176471 202.378027 
L 348.112299 204.153289 
L 360.048128 206.186323 
L 371.983957 208.475658 
L 383.919786 211.019242 
L 395.855615 213.814445 
L 403.812834 215.816144 
L 405.802139 295.320421 
L 423.705882 297.81305 
L 429.673797 274.09898 
L 433.652406 259.572806 
L 435.641711 252.965559 
L 437.631016 246.905126 
L 439.620321 241.465938 
L 441.609626 236.715153 
L 443.59893 232.711871 
L 445.588235 229.506437 
L 447.57754 227.139857 
L 449.566845 225.643312 
L 451.55615 225.037797 
L 453.545455 225.333868 
L 455.534759 226.531527 
L 457.524064 228.620215 
L 459.513369 231.578938 
L 461.502674 235.376515 
L 463.491979 239.971941 
L 465.481283 245.314869 
L 467.470588 251.3462 
L 469.459893 257.998776 
L 471.449198 265.198167 
L 475.427807 280.908626 
L 479.406417 297.77165 
L 481.395722 306.399126 
L 511.235294 311.172159 
L 523.171123 313.144747 
L 560.967914 266.065362 
L 598.764706 219.34912 
L 604.73262 212.006068 
L 606.721925 327.966846 
L 622.636364 330.991291 
L 622.636364 330.991291 
" clip-path="url(#p0df65cdc79)" style="fill: none; stroke: #55a868; stroke-width: 3; stroke-linecap: round"/>
   </g>
   <g id="line2d_24">
    <path d="M 115.363636 231.581268 
L 123.320856 231.655313 
L 125.31016 200.971405 
L 202.893048 201.818571 
L 212.839572 201.94288 
L 214.828877 232.670945 
L 224.775401 232.799535 
L 264.561497 170.498093 
L 266.550802 170.527093 
L 306.336898 233.988547 
L 322.251337 234.24852 
L 324.240642 139.310187 
L 397.84492 235.60812 
L 423.705882 236.120553 
L 503.278075 170.248616 
L 505.26738 237.894668 
L 523.171123 238.316218 
L 529.139037 215.212503 
L 533.117647 200.416646 
L 537.096257 186.515299 
L 541.074866 173.836565 
L 543.064171 168.050575 
L 545.053476 162.679902 
L 547.042781 157.756352 
L 549.032086 153.309105 
L 551.02139 149.36455 
L 553.010695 145.946125 
L 555 143.07418 
L 556.989305 140.765862 
L 558.97861 139.035008 
L 560.967914 137.89207 
L 562.957219 137.344049 
L 564.946524 137.394455 
L 566.935829 138.04329 
L 568.925134 139.287041 
L 570.914439 141.118707 
L 572.903743 143.527839 
L 574.893048 146.500596 
L 576.882353 150.019835 
L 578.871658 154.065203 
L 580.860963 158.613262 
L 582.850267 163.637625 
L 584.839572 169.109111 
L 586.828877 174.995914 
L 590.807487 187.876274 
L 594.786096 201.979247 
L 598.764706 216.976731 
L 604.73262 240.382884 
L 622.636364 240.868652 
L 622.636364 240.868652 
" clip-path="url(#p0df65cdc79)" style="fill: none; stroke: #c44e52; stroke-width: 3; stroke-linecap: round"/>
   </g>
   <g id="line2d_25">
    <path d="M 115.363636 225.137245 
L 125.31016 225.383447 
L 133.26738 193.625094 
L 137.245989 178.606175 
L 141.224599 164.595668 
L 145.203209 151.894727 
L 147.192513 146.12201 
L 149.181818 140.776683 
L 151.171123 135.88761 
L 153.160428 131.481227 
L 155.149733 127.581399 
L 157.139037 124.209296 
L 159.128342 121.383277 
L 161.117647 119.118793 
L 163.106952 117.428306 
L 165.096257 116.321221 
L 167.085561 115.803835 
L 169.074866 115.879305 
L 171.064171 116.547632 
L 173.053476 117.805658 
L 175.042781 119.647086 
L 177.032086 122.06251 
L 179.02139 125.03947 
L 181.010695 128.562514 
L 183 132.613283 
L 184.989305 137.170607 
L 186.97861 142.21062 
L 188.967914 147.706888 
L 190.957219 153.630545 
L 194.935829 166.633368 
L 198.914439 180.945756 
L 202.893048 196.266557 
L 208.860963 220.428789 
L 210.850267 228.628674 
L 224.775401 229.348226 
L 256.604278 156.202478 
L 258.593583 156.327129 
L 290.42246 233.461721 
L 318.272727 235.566408 
L 324.240642 236.045282 
L 360.048128 195.171618 
L 395.855615 154.652057 
L 401.823529 147.933224 
L 403.812834 243.370167 
L 421.716578 245.259253 
L 423.705882 156.273418 
L 463.491979 226.885151 
L 477.417112 251.702538 
L 505.26738 255.245496 
L 521.181818 257.36622 
L 523.171123 187.594 
L 525.160428 188.030192 
L 527.149733 188.796882 
L 529.139037 189.891739 
L 531.128342 191.310888 
L 533.117647 193.048934 
L 535.106952 195.098983 
L 537.096257 197.452673 
L 539.085561 200.100219 
L 541.074866 203.030453 
L 543.064171 206.230882 
L 545.053476 209.687743 
L 549.032086 217.309762 
L 553.010695 225.763644 
L 556.989305 234.900934 
L 560.967914 244.560393 
L 566.935829 259.65272 
L 572.903743 274.932523 
L 574.893048 265.040063 
L 602.743316 269.332759 
L 622.636364 272.530119 
L 622.636364 272.530119 
" clip-path="url(#p0df65cdc79)" style="fill: none; stroke: #8172b3; stroke-width: 3; stroke-linecap: round"/>
   </g>
   <g id="line2d_26">
    <path d="M 115.363636 284.24584 
L 125.31016 283.723097 
L 167.085561 187.931339 
L 171.064171 178.83661 
L 173.053476 178.764048 
L 214.828877 271.456535 
L 218.807487 280.312687 
L 224.775401 280.187271 
L 262.572193 211.202146 
L 272.518717 193.121982 
L 274.508021 279.572727 
L 300.368984 279.557039 
L 322.251337 279.706159 
L 324.240642 143.453115 
L 350.101604 143.837262 
L 375.962567 144.429323 
L 401.823529 145.229298 
L 419.727273 145.904923 
L 421.716578 282.260126 
L 423.705882 179.915518 
L 457.524064 226.153107 
L 493.331551 275.498087 
L 501.28877 286.517769 
L 523.171123 288.033709 
L 529.139037 263.54425 
L 533.117647 248.115315 
L 537.096257 233.998039 
L 539.085561 227.57818 
L 541.074866 221.655933 
L 543.064171 216.280229 
L 545.053476 211.495607 
L 547.042781 207.34186 
L 549.032086 203.853708 
L 551.02139 201.060525 
L 553.010695 198.986096 
L 555 197.648432 
L 556.989305 197.05962 
L 558.97861 197.225729 
L 560.967914 198.146758 
L 562.957219 199.81664 
L 564.946524 202.223286 
L 566.935829 205.348687 
L 568.925134 209.169056 
L 570.914439 213.655021 
L 572.903743 218.77186 
L 574.893048 224.479782 
L 576.882353 230.734246 
L 578.871658 237.486323 
L 582.850267 252.268033 
L 586.828877 268.361404 
L 592.796791 293.847516 
L 618.657754 296.390771 
L 622.636364 296.800495 
L 622.636364 296.800495 
" clip-path="url(#p0df65cdc79)" style="fill: none; stroke: #937860; stroke-width: 3; stroke-linecap: round"/>
   </g>
   <g id="line2d_27">
    <path d="M 115.363636 217.64279 
L 125.31016 217.169288 
L 169.074866 166.349903 
L 200.903743 129.613679 
L 202.893048 214.106289 
L 224.775401 213.444391 
L 258.593583 145.650635 
L 260.582888 145.607359 
L 294.40107 211.929731 
L 322.251337 211.575847 
L 324.240642 134.149257 
L 332.197861 134.177013 
L 340.15508 134.415229 
L 348.112299 134.863139 
L 356.069519 135.519468 
L 364.026738 136.382434 
L 371.983957 137.449756 
L 379.941176 138.718658 
L 387.898396 140.185874 
L 391.877005 140.992699 
L 393.86631 211.327029 
L 423.705882 211.504352 
L 429.673797 185.034104 
L 433.652406 168.339251 
L 437.631016 153.03778 
L 439.620321 146.065878 
L 441.609626 139.622889 
L 443.59893 133.760876 
L 445.588235 128.527235 
L 447.57754 123.964303 
L 449.566845 120.109028 
L 451.55615 116.992663 
L 453.545455 114.640518 
L 455.534759 113.071757 
L 457.524064 112.299241 
L 459.513369 112.329429 
L 461.502674 113.162319 
L 463.491979 114.791455 
L 465.481283 117.203975 
L 467.470588 120.380715 
L 469.459893 124.296365 
L 471.449198 128.919671 
L 473.438503 134.213687 
L 475.427807 140.136074 
L 477.417112 146.639439 
L 479.406417 153.671716 
L 483.385027 169.093937 
L 487.363636 185.909538 
L 493.331551 212.560911 
L 521.181818 213.235515 
L 523.171123 131.255119 
L 568.925134 200.078025 
L 578.871658 215.090951 
L 612.68984 216.465863 
L 622.636364 216.910653 
L 622.636364 216.910653 
" clip-path="url(#p0df65cdc79)" style="fill: none; stroke: #da8bc3; stroke-width: 3; stroke-linecap: round"/>
   </g>
   <g id="line2d_28">
    <path d="M 115.363636 239.341916 
L 125.31016 239.098561 
L 171.064171 168.029289 
L 173.053476 167.964719 
L 218.807487 236.063791 
L 222.786096 235.904689 
L 224.775401 133.542751 
L 226.764706 134.275208 
L 228.754011 136.621183 
L 230.743316 140.542059 
L 232.73262 145.974154 
L 234.721925 152.829735 
L 236.71123 160.998418 
L 238.700535 170.348917 
L 240.68984 180.73114 
L 242.679144 191.978569 
L 246.657754 216.336987 
L 254.614973 266.946342 
L 256.604278 278.809914 
L 258.593583 289.967263 
L 260.582888 300.239455 
L 262.572193 309.461626 
L 264.561497 317.485609 
L 266.550802 324.182283 
L 268.540107 329.443636 
L 270.529412 333.184477 
L 272.518717 335.343794 
L 274.508021 335.885723 
L 276.497326 334.800119 
L 278.486631 332.102721 
L 280.475936 327.834893 
L 282.465241 322.062977 
L 284.454545 233.125838 
L 322.251337 231.132216 
L 324.240642 231.021174 
L 371.983957 169.870168 
L 413.759358 116.074112 
L 415.748663 225.252217 
L 423.705882 224.68942 
L 431.663102 204.843406 
L 435.641711 195.366358 
L 439.620321 186.41703 
L 443.59893 178.156684 
L 447.57754 170.733702 
L 449.566845 167.378384 
L 451.55615 164.280822 
L 453.545455 161.454758 
L 455.534759 158.912665 
L 457.524064 156.66569 
L 459.513369 154.723601 
L 461.502674 153.09474 
L 463.491979 151.785989 
L 465.481283 150.802731 
L 467.470588 150.148831 
L 469.459893 149.826615 
L 471.449198 149.836858 
L 473.438503 150.178786 
L 475.427807 150.850071 
L 477.417112 151.84685 
L 479.406417 153.163738 
L 481.395722 154.793855 
L 483.385027 156.728857 
L 485.374332 158.958977 
L 487.363636 161.473069 
L 489.352941 164.258659 
L 491.342246 167.302004 
L 493.331551 170.588159 
L 497.31016 177.82351 
L 501.28877 185.823822 
L 505.26738 194.433913 
L 511.235294 208.125612 
L 515.213904 217.514052 
L 521.181818 217.001149 
L 523.171123 131.847017 
L 568.925134 176.582482 
L 602.743316 209.439921 
L 622.636364 207.439791 
L 622.636364 207.439791 
" clip-path="url(#p0df65cdc79)" style="fill: none; stroke: #8c8c8c; stroke-width: 3; stroke-linecap: round"/>
   </g>
   <g id="line2d_29">
    <path d="M 115.363636 278.378557 
L 123.320856 277.862525 
L 125.31016 150.046634 
L 165.096257 230.165837 
L 186.97861 274.440422 
L 212.839572 273.408783 
L 224.775401 273.002521 
L 258.593583 229.65973 
L 292.411765 186.671239 
L 308.326203 166.563955 
L 310.315508 271.382514 
L 324.240642 271.333333 
L 350.101604 191.332627 
L 352.090909 191.346442 
L 377.951872 271.706346 
L 403.812834 272.204691 
L 421.716578 272.671069 
L 423.705882 177.944713 
L 425.695187 178.749759 
L 427.684492 181.036033 
L 429.673797 184.768503 
L 431.663102 189.889398 
L 433.652406 196.319111 
L 435.641711 203.95746 
L 437.631016 212.685257 
L 439.620321 222.366189 
L 441.609626 232.848962 
L 445.588235 255.554428 
L 453.545455 302.860796 
L 457.524064 324.51402 
L 459.513369 334.229739 
L 461.502674 342.998486 
L 463.491979 350.683532 
L 465.481283 357.165228 
L 467.470588 362.34288 
L 469.459893 366.136336 
L 471.449198 368.487251 
L 473.438503 369.36 
L 475.427807 368.742242 
L 477.417112 366.645113 
L 479.406417 363.103051 
L 481.395722 358.173254 
L 483.385027 351.934781 
L 485.374332 344.487305 
L 487.363636 335.949546 
L 489.352941 275.329108 
L 515.213904 276.719944 
L 523.171123 277.189577 
L 531.128342 248.511476 
L 535.106952 234.779431 
L 539.085561 221.760835 
L 543.064171 209.67367 
L 547.042781 198.720705 
L 549.032086 193.727928 
L 551.02139 189.086167 
L 553.010695 184.815057 
L 555 180.932715 
L 556.989305 177.455664 
L 558.97861 174.398768 
L 560.967914 171.775169 
L 562.957219 169.596233 
L 564.946524 167.871506 
L 566.935829 166.60867 
L 568.925134 165.813516 
L 570.914439 165.489916 
L 572.903743 165.639812 
L 574.893048 166.263203 
L 576.882353 167.358148 
L 578.871658 168.920776 
L 580.860963 170.945294 
L 582.850267 173.424021 
L 584.839572 176.347411 
L 586.828877 179.704099 
L 588.818182 183.480941 
L 590.807487 187.663075 
L 592.796791 192.233976 
L 594.786096 197.175528 
L 596.775401 202.468097 
L 600.754011 214.020644 
L 604.73262 226.707392 
L 608.71123 240.325571 
L 612.68984 254.657198 
L 618.657754 276.98781 
L 620.647059 284.534464 
L 622.636364 284.715008 
L 622.636364 284.715008 
" clip-path="url(#p0df65cdc79)" style="fill: none; stroke: #ccb974; stroke-width: 3; stroke-linecap: round"/>
   </g>
   <g id="line2d_30">
    <path d="M 115.363636 208.075262 
L 123.320856 207.509172 
L 125.31016 127.299981 
L 159.128342 167.673072 
L 188.967914 203.592718 
L 214.828877 202.419049 
L 222.786096 202.099901 
L 224.775401 181.59229 
L 250.636364 180.707543 
L 276.497326 180.031462 
L 302.358289 179.564046 
L 312.304813 179.439832 
L 314.294118 199.849605 
L 324.240642 199.762432 
L 354.080214 95.954673 
L 356.069519 95.959463 
L 385.909091 199.910931 
L 411.770053 200.326331 
L 421.716578 200.541662 
L 423.705882 99.010512 
L 425.695187 99.152947 
L 427.684492 99.485304 
L 429.673797 100.007054 
L 431.663102 100.717323 
L 433.652406 101.614885 
L 435.641711 102.69817 
L 437.631016 103.965265 
L 439.620321 105.413917 
L 441.609626 107.041538 
L 443.59893 108.845208 
L 445.588235 110.821686 
L 447.57754 112.967407 
L 451.55615 117.750777 
L 455.534759 123.160703 
L 459.513369 129.15795 
L 463.491979 135.698952 
L 467.470588 142.736139 
L 471.449198 150.21829 
L 475.427807 158.090912 
L 481.395722 170.505825 
L 485.374332 179.098462 
L 487.363636 202.737008 
L 513.224599 203.971019 
L 523.171123 204.5012 
L 529.139037 183.413277 
L 533.117647 170.276679 
L 535.106952 164.181216 
L 537.096257 158.48181 
L 539.085561 153.234478 
L 541.074866 148.490896 
L 543.064171 144.297898 
L 545.053476 140.697029 
L 547.042781 137.724143 
L 549.032086 135.409059 
L 551.02139 133.775271 
L 553.010695 132.839726 
L 555 132.612655 
L 556.989305 133.097482 
L 558.97861 134.290785 
L 560.967914 136.182329 
L 562.957219 138.75517 
L 564.946524 141.985813 
L 566.935829 145.844438 
L 568.925134 150.295193 
L 570.914439 155.296532 
L 572.903743 160.80162 
L 574.893048 166.758783 
L 578.871658 179.801462 
L 582.850267 193.934296 
L 586.828877 208.625307 
L 612.68984 210.661878 
L 622.636364 211.500736 
L 622.636364 211.500736 
" clip-path="url(#p0df65cdc79)" style="fill: none; stroke: #64b5cd; stroke-width: 3; stroke-linecap: round"/>
   </g>
   <g id="patch_3">
    <path d="M 90 384.48 
L 90 51.84 
" style="fill: none; stroke: #ffffff; stroke-width: 1.25; stroke-linejoin: miter; stroke-linecap: square"/>
   </g>
   <g id="patch_4">
    <path d="M 648 384.48 
L 648 51.84 
" style="fill: none; stroke: #ffffff; stroke-width: 1.25; stroke-linejoin: miter; stroke-linecap: square"/>
   </g>
   <g id="patch_5">
    <path d="M 90 384.48 
L 648 384.48 
" style="fill: none; stroke: #ffffff; stroke-width: 1.25; stroke-linejoin: miter; stroke-linecap: square"/>
   </g>
   <g id="patch_6">
    <path d="M 90 51.84 
L 648 51.84 
" style="fill: none; stroke: #ffffff; stroke-width: 1.25; stroke-linejoin: miter; stroke-linecap: square"/>
   </g>
   <g id="text_13">
    <!-- Illustration of Stochasticity in Signal Generation -->
    <g style="fill: #262626" transform="translate(78.383939 45.84) scale(0.3 -0.3)">
     <defs>
      <path id="CMR17-49" d="M 1261 3898 
C 1261 4185 1338 4185 1798 4185 
L 1798 4352 
C 1594 4339 1267 4339 1050 4339 
C 832 4339 506 4339 301 4352 
L 301 4185 
C 762 4185 838 4185 838 3898 
L 838 453 
C 838 166 762 166 301 166 
L 301 0 
C 506 12 832 12 1050 12 
C 1267 12 1594 12 1798 0 
L 1798 166 
C 1338 166 1261 166 1261 453 
L 1261 3898 
z
" transform="scale(0.015625)"/>
      <path id="CMR17-73" d="M 1978 2688 
C 1978 2803 1971 2809 1933 2809 
C 1907 2809 1901 2803 1824 2707 
C 1805 2681 1747 2617 1728 2592 
C 1523 2809 1235 2816 1126 2816 
C 416 2816 160 2444 160 2073 
C 160 1497 813 1363 998 1324 
C 1402 1241 1542 1216 1677 1100 
C 1760 1024 1901 883 1901 652 
C 1901 384 1747 38 1158 38 
C 602 38 403 460 288 1024 
C 269 1113 269 1120 218 1120 
C 166 1120 160 1113 160 985 
L 160 64 
C 160 -52 166 -58 205 -58 
C 237 -58 243 -52 275 0 
C 314 57 410 211 448 275 
C 576 102 800 -64 1158 -64 
C 1792 -64 2131 281 2131 780 
C 2131 1107 1958 1280 1875 1356 
C 1683 1555 1459 1600 1190 1651 
C 838 1728 390 1817 390 2208 
C 390 2374 480 2726 1126 2726 
C 1811 2726 1850 2086 1862 1881 
C 1869 1849 1901 1843 1920 1843 
C 1978 1843 1978 1862 1978 1971 
L 1978 2688 
z
" transform="scale(0.015625)"/>
      <path id="CMR17-72" d="M 960 1517 
C 960 2134 1222 2713 1702 2713 
C 1747 2713 1792 2707 1837 2687 
C 1837 2687 1696 2642 1696 2475 
C 1696 2321 1818 2257 1914 2257 
C 1990 2257 2131 2302 2131 2482 
C 2131 2687 1926 2816 1709 2816 
C 1222 2816 1011 2340 947 2115 
L 941 2115 
L 941 2816 
L 198 2745 
L 198 2578 
C 576 2578 634 2540 634 2231 
L 634 443 
C 634 198 608 166 198 166 
L 198 0 
C 352 12 646 12 813 12 
C 998 12 1325 12 1498 0 
L 1498 166 
C 1037 166 960 166 960 455 
L 960 1517 
z
" transform="scale(0.015625)"/>
      <path id="CMR17-61" d="M 2304 1656 
C 2304 2048 2304 2275 2035 2534 
C 1798 2751 1523 2816 1306 2816 
C 800 2816 435 2408 435 1977 
C 435 1740 627 1728 666 1728 
C 749 1728 896 1779 896 1958 
C 896 2118 774 2188 666 2188 
C 640 2188 608 2182 589 2176 
C 723 2594 1069 2713 1293 2713 
C 1613 2713 1965 2421 1965 1875 
L 1965 1632 
C 1587 1619 1133 1568 774 1373 
C 371 1147 256 822 256 576 
C 256 77 832 -64 1171 -64 
C 1523 -64 1850 135 1990 505 
C 2003 219 2182 -39 2464 -39 
C 2598 -39 2938 51 2938 563 
L 2938 926 
L 2822 926 
L 2822 557 
C 2822 161 2650 109 2566 109 
C 2304 109 2304 446 2304 732 
L 2304 1656 
z
M 1965 887 
C 1965 323 1568 38 1216 38 
C 896 38 646 278 646 576 
C 646 771 730 1114 1101 1322 
C 1408 1497 1760 1523 1965 1536 
L 1965 887 
z
" transform="scale(0.015625)"/>
      <path id="CMR17-6f" d="M 2758 1356 
C 2758 2176 2163 2816 1466 2816 
C 768 2816 173 2176 173 1356 
C 173 550 768 -64 1466 -64 
C 2163 -64 2758 550 2758 1356 
z
M 1466 51 
C 1165 51 909 230 762 480 
C 602 768 582 1126 582 1408 
C 582 1676 595 2009 762 2297 
C 890 2508 1139 2713 1466 2713 
C 1754 2713 1997 2553 2150 2329 
C 2349 2028 2349 1606 2349 1408 
C 2349 1158 2336 774 2163 467 
C 1984 172 1709 51 1466 51 
z
" transform="scale(0.015625)"/>
      <path id="CMR17-6e" d="M 2656 1954 
C 2656 2282 2592 2816 1837 2816 
C 1331 2816 1069 2424 973 2166 
L 966 2166 
L 966 2816 
L 211 2745 
L 211 2578 
C 589 2578 646 2540 646 2231 
L 646 443 
C 646 198 621 166 211 166 
L 211 0 
C 365 12 646 12 813 12 
C 979 12 1267 12 1421 0 
L 1421 166 
C 1011 166 986 192 986 443 
L 986 1678 
C 986 2269 1344 2713 1792 2713 
C 2266 2713 2317 2289 2317 1980 
L 2317 443 
C 2317 198 2291 166 1882 166 
L 1882 0 
C 2035 12 2317 12 2483 12 
C 2650 12 2938 12 3091 0 
L 3091 166 
C 2682 166 2656 192 2656 443 
L 2656 1954 
z
" transform="scale(0.015625)"/>
      <path id="CMR17-66" d="M 979 2585 
L 1709 2585 
L 1709 2752 
L 966 2752 
L 966 3539 
C 966 4076 1235 4377 1510 4377 
C 1594 4377 1690 4363 1754 4339 
C 1702 4326 1568 4281 1568 4121 
C 1568 3955 1696 3904 1786 3904 
C 1875 3904 2003 3955 2003 4121 
C 2003 4353 1773 4480 1517 4480 
C 1152 4480 653 4211 653 3526 
L 653 2752 
L 141 2752 
L 141 2585 
L 653 2585 
L 653 441 
C 653 198 627 166 218 166 
L 218 0 
C 371 12 666 12 832 12 
C 1018 12 1344 12 1517 0 
L 1517 166 
C 1056 166 979 166 979 454 
L 979 2585 
z
" transform="scale(0.015625)"/>
      <path id="CMR17-53" d="M 2803 4351 
C 2803 4467 2797 4473 2758 4473 
C 2720 4473 2707 4447 2682 4390 
L 2490 3965 
C 2246 4320 1875 4480 1472 4480 
C 819 4480 294 3958 294 3301 
C 294 3101 339 2817 557 2546 
C 794 2250 1018 2198 1530 2063 
C 1722 2011 2042 1927 2106 1901 
C 2470 1747 2662 1360 2662 999 
C 2662 534 2336 38 1779 38 
C 1094 38 454 425 410 1328 
C 403 1431 397 1437 352 1437 
C 301 1437 294 1431 294 1302 
L 294 0 
C 294 -116 301 -122 339 -122 
C 384 -122 397 -90 486 109 
C 493 128 493 141 614 386 
C 934 -39 1472 -128 1779 -128 
C 2477 -128 2970 457 2970 1141 
C 2970 1476 2848 1734 2778 1850 
C 2509 2263 2221 2340 1914 2417 
C 1869 2437 1856 2437 1498 2527 
C 1152 2617 1005 2662 845 2836 
C 666 3036 602 3243 602 3449 
C 602 3868 934 4326 1478 4326 
C 2157 4326 2579 3842 2675 3036 
C 2694 2920 2701 2914 2746 2914 
C 2803 2914 2803 2933 2803 3043 
L 2803 4351 
z
" transform="scale(0.015625)"/>
      <path id="CMR17-63" d="M 2234 2240 
C 2112 2240 1933 2240 1933 2015 
C 1933 1836 2080 1785 2163 1785 
C 2208 1785 2394 1804 2394 2028 
C 2394 2476 1958 2816 1466 2816 
C 787 2816 211 2201 211 1379 
C 211 521 813 -64 1466 -64 
C 2259 -64 2458 676 2458 747 
C 2458 773 2451 792 2406 792 
C 2362 792 2355 786 2330 702 
C 2163 180 1798 51 1523 51 
C 1114 51 621 431 621 1385 
C 621 2358 1094 2700 1472 2700 
C 1722 2700 2093 2582 2234 2240 
z
" transform="scale(0.015625)"/>
      <path id="CMR17-68" d="M 2656 1954 
C 2656 2282 2592 2816 1837 2816 
C 1312 2816 1056 2392 979 2179 
L 973 2179 
L 973 4416 
L 211 4345 
L 211 4179 
C 589 4179 646 4141 646 3843 
L 646 443 
C 646 198 621 166 211 166 
L 211 0 
C 365 12 646 12 813 12 
C 979 12 1267 12 1421 0 
L 1421 166 
C 1011 166 986 192 986 443 
L 986 1678 
C 986 2269 1344 2713 1792 2713 
C 2266 2713 2317 2289 2317 1980 
L 2317 443 
C 2317 198 2291 166 1882 166 
L 1882 0 
C 2035 12 2317 12 2483 12 
C 2650 12 2938 12 3091 0 
L 3091 166 
C 2682 166 2656 192 2656 443 
L 2656 1954 
z
" transform="scale(0.015625)"/>
      <path id="CMR17-79" d="M 2496 2183 
C 2656 2579 2944 2585 3034 2585 
L 3034 2752 
C 2912 2745 2752 2739 2630 2739 
C 2496 2739 2285 2739 2157 2752 
L 2157 2585 
C 2400 2566 2406 2384 2406 2332 
C 2406 2268 2394 2235 2362 2158 
L 1664 409 
L 902 2300 
C 870 2378 870 2423 870 2430 
C 870 2572 1018 2585 1171 2585 
L 1171 2752 
C 1018 2739 742 2739 582 2739 
C 410 2739 205 2739 64 2752 
L 64 2585 
C 410 2585 448 2553 531 2345 
L 1485 -31 
C 1197 -795 1030 -1242 627 -1242 
C 557 -1242 397 -1223 282 -1106 
C 429 -1093 493 -1002 493 -892 
C 493 -782 416 -685 288 -685 
C 147 -685 77 -782 77 -899 
C 77 -1158 339 -1344 627 -1344 
C 998 -1344 1229 -983 1357 -659 
L 2496 2183 
z
" transform="scale(0.015625)"/>
      <path id="CMR17-67" d="M 710 1165 
C 832 1068 1043 960 1299 960 
C 1805 960 2240 1359 2240 1895 
C 2240 2063 2189 2321 1997 2521 
C 2176 2713 2438 2777 2586 2777 
C 2611 2777 2650 2777 2682 2758 
C 2656 2751 2598 2726 2598 2623 
C 2598 2540 2656 2483 2739 2483 
C 2835 2483 2886 2547 2886 2630 
C 2886 2751 2790 2880 2586 2880 
C 2330 2880 2106 2758 1926 2591 
C 1734 2764 1504 2828 1299 2828 
C 794 2828 358 2431 358 1895 
C 358 1527 570 1294 634 1230 
C 442 1004 442 742 442 710 
C 442 544 506 300 723 166 
C 390 82 128 -184 128 -517 
C 128 -996 736 -1344 1466 -1344 
C 2170 -1344 2803 -1009 2803 -510 
C 2803 384 1856 384 1363 384 
C 1216 384 954 384 922 390 
C 723 422 589 601 589 825 
C 589 883 589 1024 710 1165 
z
M 1299 1068 
C 736 1068 736 1766 736 1895 
C 736 2024 736 2719 1299 2719 
C 1862 2719 1862 2024 1862 1895 
C 1862 1766 1862 1068 1299 1068 
z
M 1466 -1236 
C 826 -1236 384 -883 384 -517 
C 384 -311 493 -118 634 -11 
C 794 102 858 102 1293 102 
C 1818 102 2547 102 2547 -517 
C 2547 -883 2106 -1236 1466 -1236 
z
" transform="scale(0.015625)"/>
      <path id="CMR17-47" d="M 3974 1258 
C 3974 1503 3994 1536 4390 1536 
L 4390 1702 
C 4237 1689 3891 1689 3718 1689 
C 3539 1689 3040 1696 2797 1702 
L 2797 1536 
L 2989 1536 
C 3539 1536 3552 1464 3552 1232 
L 3552 806 
C 3552 96 2720 38 2522 38 
C 1862 38 781 496 781 2179 
C 781 3862 1843 4313 2464 4313 
C 3187 4313 3712 3681 3834 2785 
C 3846 2708 3846 2695 3904 2695 
C 3974 2695 3974 2708 3974 2824 
L 3974 4351 
C 3974 4467 3968 4473 3930 4473 
C 3904 4473 3898 4467 3853 4390 
L 3571 3849 
C 3258 4249 2874 4480 2381 4480 
C 1286 4480 294 3507 294 2179 
C 294 858 1267 -128 2394 -128 
C 2912 -128 3418 57 3616 425 
C 3725 161 3904 -20 3936 -20 
C 3968 -20 3974 -13 3974 102 
L 3974 1258 
z
" transform="scale(0.015625)"/>
     </defs>
     <use xlink:href="#CMR17-49" transform="scale(0.996264)"/>
     <use xlink:href="#CMR17-6c" transform="translate(32.638409 0) scale(0.996264)"/>
     <use xlink:href="#CMR17-6c" transform="translate(57.509468 0) scale(0.996264)"/>
     <use xlink:href="#CMR17-75" transform="translate(82.380526 0) scale(0.996264)"/>
     <use xlink:href="#CMR17-73" transform="translate(133.275896 0) scale(0.996264)"/>
     <use xlink:href="#CMR17-74" transform="translate(169.077234 0) scale(0.996264)"/>
     <use xlink:href="#CMR17-72" transform="translate(204.358001 0) scale(0.996264)"/>
     <use xlink:href="#CMR17-61" transform="translate(239.638769 0) scale(0.996264)"/>
     <use xlink:href="#CMR17-74" transform="translate(285.329246 0) scale(0.996264)"/>
     <use xlink:href="#CMR17-69" transform="translate(320.610014 0) scale(0.996264)"/>
     <use xlink:href="#CMR17-6f" transform="translate(345.481073 0) scale(0.996264)"/>
     <use xlink:href="#CMR17-6e" transform="translate(391.17155 0) scale(0.996264)"/>
     <use xlink:href="#CMR17-6f" transform="translate(472.142886 0) scale(0.996264)"/>
     <use xlink:href="#CMR17-66" transform="translate(517.833363 0) scale(0.996264)"/>
     <use xlink:href="#CMR17-53" transform="translate(575.382842 0) scale(0.996264)"/>
     <use xlink:href="#CMR17-74" transform="translate(626.278211 0) scale(0.996264)"/>
     <use xlink:href="#CMR17-6f" transform="translate(661.558979 0) scale(0.996264)"/>
     <use xlink:href="#CMR17-63" transform="translate(709.851895 0) scale(0.996264)"/>
     <use xlink:href="#CMR17-68" transform="translate(747.735102 0) scale(0.996264)"/>
     <use xlink:href="#CMR17-61" transform="translate(798.630471 0) scale(0.996264)"/>
     <use xlink:href="#CMR17-73" transform="translate(844.320949 0) scale(0.996264)"/>
     <use xlink:href="#CMR17-74" transform="translate(880.122286 0) scale(0.996264)"/>
     <use xlink:href="#CMR17-69" transform="translate(915.403054 0) scale(0.996264)"/>
     <use xlink:href="#CMR17-63" transform="translate(940.274112 0) scale(0.996264)"/>
     <use xlink:href="#CMR17-69" transform="translate(980.759773 0) scale(0.996264)"/>
     <use xlink:href="#CMR17-74" transform="translate(1005.630831 0) scale(0.996264)"/>
     <use xlink:href="#CMR17-79" transform="translate(1038.309145 0) scale(0.996264)"/>
     <use xlink:href="#CMR17-69" transform="translate(1116.678027 0) scale(0.996264)"/>
     <use xlink:href="#CMR17-6e" transform="translate(1141.549086 0) scale(0.996264)"/>
     <use xlink:href="#CMR17-53" transform="translate(1222.520422 0) scale(0.996264)"/>
     <use xlink:href="#CMR17-69" transform="translate(1273.415792 0) scale(0.996264)"/>
     <use xlink:href="#CMR17-67" transform="translate(1298.28685 0) scale(0.996264)"/>
     <use xlink:href="#CMR17-6e" transform="translate(1343.977327 0) scale(0.996264)"/>
     <use xlink:href="#CMR17-61" transform="translate(1394.872697 0) scale(0.996264)"/>
     <use xlink:href="#CMR17-6c" transform="translate(1440.563174 0) scale(0.996264)"/>
     <use xlink:href="#CMR17-47" transform="translate(1495.510199 0) scale(0.996264)"/>
     <use xlink:href="#CMR17-65" transform="translate(1567.865545 0) scale(0.996264)"/>
     <use xlink:href="#CMR17-6e" transform="translate(1608.351206 0) scale(0.996264)"/>
     <use xlink:href="#CMR17-65" transform="translate(1659.246575 0) scale(0.996264)"/>
     <use xlink:href="#CMR17-72" transform="translate(1699.732236 0) scale(0.996264)"/>
     <use xlink:href="#CMR17-61" transform="translate(1735.013004 0) scale(0.996264)"/>
     <use xlink:href="#CMR17-74" transform="translate(1780.703481 0) scale(0.996264)"/>
     <use xlink:href="#CMR17-69" transform="translate(1815.984249 0) scale(0.996264)"/>
     <use xlink:href="#CMR17-6f" transform="translate(1840.855307 0) scale(0.996264)"/>
     <use xlink:href="#CMR17-6e" transform="translate(1886.545784 0) scale(0.996264)"/>
    </g>
   </g>
  </g>
 </g>
 <defs>
  <clipPath id="p0df65cdc79">
   <rect x="90" y="51.84" width="558" height="332.64"/>
  </clipPath>
 </defs>
</svg>
