<?xml version="1.0" encoding="utf-8" standalone="no"?>
<!DOCTYPE svg PUBLIC "-//W3C//DTD SVG 1.1//EN"
  "http://www.w3.org/Graphics/SVG/1.1/DTD/svg11.dtd">
<svg xmlns:xlink="http://www.w3.org/1999/xlink" width="720pt" height="432pt" viewBox="0 0 720 432" xmlns="http://www.w3.org/2000/svg" version="1.1">
 <metadata>
  <rdf:RDF xmlns:dc="http://purl.org/dc/elements/1.1/" xmlns:cc="http://creativecommons.org/ns#" xmlns:rdf="http://www.w3.org/1999/02/22-rdf-syntax-ns#">
   <cc:Work>
    <dc:type rdf:resource="http://purl.org/dc/dcmitype/StillImage"/>
    <dc:date>2025-06-16T22:44:06.596624</dc:date>
    <dc:format>image/svg+xml</dc:format>
    <dc:creator>
     <cc:Agent>
      <dc:title>Matplotlib v3.10.0, https://matplotlib.org/</dc:title>
     </cc:Agent>
    </dc:creator>
   </cc:Work>
  </rdf:RDF>
 </metadata>
 <defs>
  <style type="text/css">*{stroke-linejoin: round; stroke-linecap: butt}</style>
 </defs>
 <g id="figure_1">
  <g id="patch_1">
   <path d="M 0 432 
L 720 432 
L 720 0 
L 0 0 
z
" style="fill: #ffffff"/>
  </g>
  <g id="axes_1">
   <g id="patch_2">
    <path d="M 90 384.48 
L 648 384.48 
L 648 51.84 
L 90 51.84 
z
" style="fill: #ffffff"/>
   </g>
   <g id="matplotlib.axis_1">
    <g id="xtick_1">
     <g id="line2d_1">
      <path d="M 115.363636 384.48 
L 115.363636 51.84 
" clip-path="url(#p3919c4343e)" style="fill: none; stroke: #cccccc; stroke-linecap: round"/>
     </g>
     <g id="text_1">
      <!-- $\mathdefault{0}$ -->
      <g style="fill: #262626" transform="translate(109.081196 413.005867) scale(0.275 -0.275)">
       <defs>
        <path id="CMR17-30" d="M 2688 2038 
C 2688 2430 2682 3099 2413 3613 
C 2176 4063 1798 4224 1466 4224 
C 1158 4224 768 4082 525 3620 
C 269 3137 243 2539 243 2038 
C 243 1671 250 1112 448 623 
C 723 -39 1216 -128 1466 -128 
C 1760 -128 2208 -7 2470 604 
C 2662 1048 2688 1568 2688 2038 
z
M 1466 -26 
C 1056 -26 813 328 723 816 
C 653 1196 653 1749 653 2109 
C 653 2604 653 3015 736 3407 
C 858 3954 1216 4121 1466 4121 
C 1728 4121 2067 3947 2189 3420 
C 2272 3054 2278 2623 2278 2109 
C 2278 1691 2278 1176 2202 797 
C 2067 96 1690 -26 1466 -26 
z
" transform="scale(0.015625)"/>
       </defs>
       <use xlink:href="#CMR17-30" transform="scale(0.996264)"/>
      </g>
     </g>
    </g>
    <g id="xtick_2">
     <g id="line2d_2">
      <path d="M 214.828877 384.48 
L 214.828877 51.84 
" clip-path="url(#p3919c4343e)" style="fill: none; stroke: #cccccc; stroke-linecap: round"/>
     </g>
     <g id="text_2">
      <!-- $\mathdefault{50}$ -->
      <g style="fill: #262626" transform="translate(202.263996 413.005867) scale(0.275 -0.275)">
       <defs>
        <path id="CMR17-35" d="M 730 3750 
C 794 3724 1056 3641 1325 3641 
C 1920 3641 2246 3961 2432 4140 
C 2432 4191 2432 4224 2394 4224 
C 2387 4224 2374 4224 2323 4198 
C 2099 4102 1837 4032 1517 4032 
C 1325 4032 1037 4055 723 4191 
C 653 4224 640 4224 634 4224 
C 602 4224 595 4217 595 4090 
L 595 2231 
C 595 2113 595 2080 659 2080 
C 691 2080 704 2093 736 2139 
C 941 2435 1222 2560 1542 2560 
C 1766 2560 2246 2415 2246 1293 
C 2246 1087 2246 716 2054 422 
C 1894 159 1645 25 1370 25 
C 947 25 518 319 403 812 
C 429 806 480 793 506 793 
C 589 793 749 838 749 1036 
C 749 1209 627 1280 506 1280 
C 358 1280 262 1190 262 1011 
C 262 454 704 -128 1382 -128 
C 2042 -128 2669 441 2669 1267 
C 2669 2054 2170 2662 1549 2662 
C 1222 2662 947 2540 730 2304 
L 730 3750 
z
" transform="scale(0.015625)"/>
       </defs>
       <use xlink:href="#CMR17-35" transform="scale(0.996264)"/>
       <use xlink:href="#CMR17-30" transform="translate(45.690477 0) scale(0.996264)"/>
      </g>
     </g>
    </g>
    <g id="xtick_3">
     <g id="line2d_3">
      <path d="M 314.294118 384.48 
L 314.294118 51.84 
" clip-path="url(#p3919c4343e)" style="fill: none; stroke: #cccccc; stroke-linecap: round"/>
     </g>
     <g id="text_3">
      <!-- $\mathdefault{100}$ -->
      <g style="fill: #262626" transform="translate(295.446796 413.005867) scale(0.275 -0.275)">
       <defs>
        <path id="CMR17-31" d="M 1702 4083 
C 1702 4217 1696 4224 1606 4224 
C 1357 3927 979 3833 621 3820 
C 602 3820 570 3820 563 3808 
C 557 3795 557 3782 557 3648 
C 755 3648 1088 3686 1344 3839 
L 1344 467 
C 1344 243 1331 166 781 166 
L 589 166 
L 589 0 
C 896 6 1216 12 1523 12 
C 1830 12 2150 6 2458 0 
L 2458 166 
L 2266 166 
C 1715 166 1702 236 1702 467 
L 1702 4083 
z
" transform="scale(0.015625)"/>
       </defs>
       <use xlink:href="#CMR17-31" transform="scale(0.996264)"/>
       <use xlink:href="#CMR17-30" transform="translate(45.690477 0) scale(0.996264)"/>
       <use xlink:href="#CMR17-30" transform="translate(91.380954 0) scale(0.996264)"/>
      </g>
     </g>
    </g>
    <g id="xtick_4">
     <g id="line2d_4">
      <path d="M 413.759358 384.48 
L 413.759358 51.84 
" clip-path="url(#p3919c4343e)" style="fill: none; stroke: #cccccc; stroke-linecap: round"/>
     </g>
     <g id="text_4">
      <!-- $\mathdefault{150}$ -->
      <g style="fill: #262626" transform="translate(394.912036 413.005867) scale(0.275 -0.275)">
       <use xlink:href="#CMR17-31" transform="scale(0.996264)"/>
       <use xlink:href="#CMR17-35" transform="translate(45.690477 0) scale(0.996264)"/>
       <use xlink:href="#CMR17-30" transform="translate(91.380954 0) scale(0.996264)"/>
      </g>
     </g>
    </g>
    <g id="xtick_5">
     <g id="line2d_5">
      <path d="M 513.224599 384.48 
L 513.224599 51.84 
" clip-path="url(#p3919c4343e)" style="fill: none; stroke: #cccccc; stroke-linecap: round"/>
     </g>
     <g id="text_5">
      <!-- $\mathdefault{200}$ -->
      <g style="fill: #262626" transform="translate(494.377277 413.005867) scale(0.275 -0.275)">
       <defs>
        <path id="CMR17-32" d="M 2669 990 
L 2554 990 
C 2490 537 2438 460 2413 422 
C 2381 371 1920 371 1830 371 
L 602 371 
C 832 620 1280 1073 1824 1596 
C 2214 1966 2669 2400 2669 3033 
C 2669 3788 2067 4224 1395 4224 
C 691 4224 262 3603 262 3027 
C 262 2777 448 2745 525 2745 
C 589 2745 781 2783 781 3007 
C 781 3206 614 3264 525 3264 
C 486 3264 448 3257 422 3244 
C 544 3788 915 4057 1306 4057 
C 1862 4057 2227 3616 2227 3033 
C 2227 2477 1901 1998 1536 1583 
L 262 147 
L 262 0 
L 2515 0 
L 2669 990 
z
" transform="scale(0.015625)"/>
       </defs>
       <use xlink:href="#CMR17-32" transform="scale(0.996264)"/>
       <use xlink:href="#CMR17-30" transform="translate(45.690477 0) scale(0.996264)"/>
       <use xlink:href="#CMR17-30" transform="translate(91.380954 0) scale(0.996264)"/>
      </g>
     </g>
    </g>
    <g id="xtick_6">
     <g id="line2d_6">
      <path d="M 612.68984 384.48 
L 612.68984 51.84 
" clip-path="url(#p3919c4343e)" style="fill: none; stroke: #cccccc; stroke-linecap: round"/>
     </g>
     <g id="text_6">
      <!-- $\mathdefault{250}$ -->
      <g style="fill: #262626" transform="translate(593.842518 413.005867) scale(0.275 -0.275)">
       <use xlink:href="#CMR17-32" transform="scale(0.996264)"/>
       <use xlink:href="#CMR17-35" transform="translate(45.690477 0) scale(0.996264)"/>
       <use xlink:href="#CMR17-30" transform="translate(91.380954 0) scale(0.996264)"/>
      </g>
     </g>
    </g>
    <g id="text_7">
     <!-- Time -->
     <g style="fill: #262626" transform="translate(337.682086 443.090362) scale(0.3 -0.3)">
      <defs>
       <path id="CMR17-54" d="M 3981 4332 
L 288 4332 
L 179 2924 
L 294 2924 
C 378 3981 467 4166 1453 4166 
C 1568 4166 1754 4166 1805 4159 
C 1926 4140 1926 4064 1926 3917 
L 1926 465 
C 1926 236 1907 166 1376 166 
L 1197 166 
L 1197 0 
C 1504 6 1824 12 2138 12 
C 2451 12 2771 6 3078 0 
L 3078 166 
L 2899 166 
C 2368 166 2349 236 2349 465 
L 2349 3917 
C 2349 4057 2349 4134 2464 4159 
C 2515 4166 2701 4166 2816 4166 
C 3795 4166 3891 3981 3974 2924 
L 4090 2924 
L 3981 4332 
z
" transform="scale(0.015625)"/>
       <path id="CMR17-69" d="M 992 3961 
C 992 4102 877 4224 730 4224 
C 589 4224 467 4108 467 3961 
C 467 3820 582 3699 730 3699 
C 870 3699 992 3814 992 3961 
z
M 243 2745 
L 243 2579 
C 602 2579 653 2540 653 2231 
L 653 443 
C 653 198 627 166 218 166 
L 218 0 
C 371 12 646 12 806 12 
C 960 12 1222 12 1370 0 
L 1370 166 
C 992 166 979 205 979 436 
L 979 2816 
L 243 2745 
z
" transform="scale(0.015625)"/>
       <path id="CMR17-6d" d="M 4326 1954 
C 4326 2276 4269 2816 3507 2816 
C 3072 2816 2771 2520 2656 2173 
L 2650 2173 
C 2573 2700 2195 2816 1837 2816 
C 1331 2816 1069 2424 973 2166 
L 966 2166 
L 966 2816 
L 211 2745 
L 211 2578 
C 589 2578 646 2540 646 2231 
L 646 443 
C 646 198 621 166 211 166 
L 211 0 
C 365 12 646 12 813 12 
C 979 12 1267 12 1421 0 
L 1421 166 
C 1011 166 986 192 986 443 
L 986 1678 
C 986 2269 1344 2713 1792 2713 
C 2266 2713 2317 2289 2317 1980 
L 2317 443 
C 2317 198 2291 166 1882 166 
L 1882 0 
C 2035 12 2317 12 2483 12 
C 2650 12 2938 12 3091 0 
L 3091 166 
C 2682 166 2656 192 2656 443 
L 2656 1678 
C 2656 2269 3014 2713 3462 2713 
C 3936 2713 3987 2289 3987 1980 
L 3987 443 
C 3987 198 3962 166 3552 166 
L 3552 0 
C 3706 12 3987 12 4154 12 
C 4320 12 4608 12 4762 0 
L 4762 166 
C 4352 166 4326 192 4326 443 
L 4326 1954 
z
" transform="scale(0.015625)"/>
       <path id="CMR17-65" d="M 2438 1503 
C 2464 1529 2464 1542 2464 1606 
C 2464 2251 2118 2816 1389 2816 
C 710 2816 173 2175 173 1394 
C 173 554 781 -64 1459 -64 
C 2176 -64 2458 619 2458 755 
C 2458 800 2419 800 2406 800 
C 2362 800 2355 787 2330 709 
C 2189 270 1837 51 1504 51 
C 1229 51 954 206 781 490 
C 582 819 582 1200 582 1503 
L 2438 1503 
z
M 589 1600 
C 634 2511 1126 2713 1382 2713 
C 1818 2713 2112 2308 2118 1600 
L 589 1600 
z
" transform="scale(0.015625)"/>
      </defs>
      <use xlink:href="#CMR17-54" transform="scale(0.996264)"/>
      <use xlink:href="#CMR17-69" transform="translate(66.509881 0) scale(0.996264)"/>
      <use xlink:href="#CMR17-6d" transform="translate(91.380939 0) scale(0.996264)"/>
      <use xlink:href="#CMR17-65" transform="translate(168.300529 0) scale(0.996264)"/>
     </g>
    </g>
   </g>
   <g id="matplotlib.axis_2">
    <g id="ytick_1">
     <g id="line2d_7">
      <path d="M 90 330.387155 
L 648 330.387155 
" clip-path="url(#p3919c4343e)" style="fill: none; stroke: #cccccc; stroke-linecap: round"/>
     </g>
     <g id="text_8">
      <!-- $\mathdefault{−1}$ -->
      <g style="fill: #262626" transform="translate(46.626066 339.900089) scale(0.275 -0.275)">
       <defs>
        <path id="CMSY10-0" d="M 4218 1472 
C 4326 1472 4442 1472 4442 1600 
C 4442 1728 4326 1728 4218 1728 
L 755 1728 
C 646 1728 531 1728 531 1600 
C 531 1472 646 1472 755 1472 
L 4218 1472 
z
" transform="scale(0.015625)"/>
       </defs>
       <use xlink:href="#CMSY10-0" transform="scale(0.996264)"/>
       <use xlink:href="#CMR17-31" transform="translate(77.487468 0) scale(0.996264)"/>
      </g>
     </g>
    </g>
    <g id="ytick_2">
     <g id="line2d_8">
      <path d="M 90 234.776891 
L 648 234.776891 
" clip-path="url(#p3919c4343e)" style="fill: none; stroke: #cccccc; stroke-linecap: round"/>
     </g>
     <g id="text_9">
      <!-- $\mathdefault{0}$ -->
      <g style="fill: #262626" transform="translate(67.935119 244.289824) scale(0.275 -0.275)">
       <use xlink:href="#CMR17-30" transform="scale(0.996264)"/>
      </g>
     </g>
    </g>
    <g id="ytick_3">
     <g id="line2d_9">
      <path d="M 90 139.166626 
L 648 139.166626 
" clip-path="url(#p3919c4343e)" style="fill: none; stroke: #cccccc; stroke-linecap: round"/>
     </g>
     <g id="text_10">
      <!-- $\mathdefault{1}$ -->
      <g style="fill: #262626" transform="translate(67.935119 148.67956) scale(0.275 -0.275)">
       <use xlink:href="#CMR17-31" transform="scale(0.996264)"/>
      </g>
     </g>
    </g>
    <g id="text_11">
     <!-- Amplitude -->
     <g style="fill: #262626" transform="translate(36.812616 281.787972) rotate(-90) scale(0.3 -0.3)">
      <defs>
       <path id="CMR17-41" d="M 2323 4441 
C 2291 4524 2278 4544 2214 4544 
C 2150 4544 2138 4524 2106 4441 
L 749 580 
C 627 236 371 166 147 166 
L 147 0 
C 262 12 518 12 640 12 
C 800 12 1056 12 1210 0 
L 1210 166 
C 909 179 864 382 864 459 
C 864 516 877 548 890 586 
L 1229 1536 
L 2906 1536 
L 3290 453 
C 3322 376 3322 363 3322 338 
C 3322 166 3046 166 2925 166 
L 2925 0 
C 3110 12 3443 12 3642 12 
C 3808 12 4128 12 4282 0 
L 4282 166 
C 3942 166 3827 166 3744 402 
L 2323 4441 
z
M 2067 3924 
L 2848 1702 
L 1286 1702 
L 2067 3924 
z
" transform="scale(0.015625)"/>
       <path id="CMR17-70" d="M 1408 -1114 
C 998 -1114 973 -1088 973 -834 
L 973 380 
C 1158 109 1427 -64 1766 -64 
C 2406 -64 3053 503 3053 1382 
C 3053 2196 2496 2816 1837 2816 
C 1453 2816 1139 2603 960 2345 
L 960 2816 
L 198 2745 
L 198 2577 
C 576 2577 634 2539 634 2228 
L 634 -834 
C 634 -1081 608 -1114 198 -1114 
L 198 -1280 
C 352 -1268 634 -1268 800 -1268 
C 966 -1268 1254 -1268 1408 -1280 
L 1408 -1114 
z
M 973 2015 
C 973 2106 973 2241 1222 2481 
C 1254 2506 1472 2700 1792 2700 
C 2259 2700 2643 2112 2643 1376 
C 2643 639 2234 38 1728 38 
C 1498 38 1248 148 1056 451 
C 973 594 973 632 973 736 
L 973 2015 
z
" transform="scale(0.015625)"/>
       <path id="CMR17-6c" d="M 979 4416 
L 218 4345 
L 218 4179 
C 595 4179 653 4141 653 3835 
L 653 439 
C 653 198 627 166 218 166 
L 218 0 
C 371 12 653 12 813 12 
C 979 12 1261 12 1414 0 
L 1414 166 
C 1005 166 979 191 979 439 
L 979 4416 
z
" transform="scale(0.015625)"/>
       <path id="CMR17-74" d="M 966 2585 
L 1862 2585 
L 1862 2752 
L 966 2752 
L 966 3968 
L 851 3968 
C 838 3292 614 2700 70 2687 
L 70 2585 
L 627 2585 
L 627 778 
C 627 655 627 -64 1370 -64 
C 1747 -64 1965 308 1965 784 
L 1965 1151 
L 1850 1151 
L 1850 790 
C 1850 347 1677 51 1408 51 
C 1222 51 966 179 966 765 
L 966 2585 
z
" transform="scale(0.015625)"/>
       <path id="CMR17-75" d="M 1882 2745 
L 1882 2579 
C 2259 2579 2317 2540 2317 2229 
L 2317 1053 
C 2317 510 2029 38 1555 38 
C 1030 38 986 355 986 691 
L 986 2816 
L 211 2745 
L 211 2579 
C 467 2579 640 2579 646 2320 
L 646 1079 
C 646 646 646 368 813 187 
C 896 103 1056 -64 1517 -64 
C 2061 -64 2272 400 2323 536 
L 2330 536 
L 2330 -64 
L 3091 -13 
L 3091 154 
C 2714 154 2656 193 2656 503 
L 2656 2816 
L 1882 2745 
z
" transform="scale(0.015625)"/>
       <path id="CMR17-64" d="M 1869 4345 
L 1869 4179 
C 2246 4179 2304 4141 2304 3843 
L 2304 2371 
C 2278 2403 2016 2816 1498 2816 
C 845 2816 211 2228 211 1376 
C 211 529 806 -64 1434 -64 
C 1978 -64 2259 361 2291 406 
L 2291 -64 
L 3066 -13 
L 3066 154 
C 2688 154 2630 193 2630 503 
L 2630 4416 
L 1869 4345 
z
M 2291 762 
C 2291 568 2176 393 2029 264 
C 1811 70 1594 38 1472 38 
C 1286 38 621 135 621 1369 
C 621 2636 1363 2713 1530 2713 
C 1824 2713 2061 2545 2208 2313 
C 2291 2177 2291 2157 2291 2041 
L 2291 762 
z
" transform="scale(0.015625)"/>
      </defs>
      <use xlink:href="#CMR17-41" transform="scale(0.996264)"/>
      <use xlink:href="#CMR17-6d" transform="translate(69.07243 0) scale(0.996264)"/>
      <use xlink:href="#CMR17-70" transform="translate(145.99202 0) scale(0.996264)"/>
      <use xlink:href="#CMR17-6c" transform="translate(196.887389 0) scale(0.996264)"/>
      <use xlink:href="#CMR17-69" transform="translate(221.758448 0) scale(0.996264)"/>
      <use xlink:href="#CMR17-74" transform="translate(246.629506 0) scale(0.996264)"/>
      <use xlink:href="#CMR17-75" transform="translate(281.910274 0) scale(0.996264)"/>
      <use xlink:href="#CMR17-64" transform="translate(332.805644 0) scale(0.996264)"/>
      <use xlink:href="#CMR17-65" transform="translate(383.701014 0) scale(0.996264)"/>
     </g>
    </g>
   </g>
   <g id="line2d_10">
    <path d="M 115.363636 234.776891 
L 137.245989 234.776891 
L 139.235294 161.825135 
L 234.721925 234.776891 
L 236.71123 234.776891 
L 300.368984 166.931069 
L 302.358289 234.776891 
L 334.187166 234.776891 
L 340.15508 211.775935 
L 344.13369 197.219283 
L 348.112299 183.803801 
L 350.101604 177.653082 
L 352.090909 171.93711 
L 354.080214 166.699387 
L 356.069519 161.979774 
L 358.058824 157.814192 
L 360.048128 154.234342 
L 362.037433 151.267469 
L 364.026738 148.936154 
L 366.016043 147.258138 
L 368.005348 146.246193 
L 369.994652 145.908021 
L 371.983957 146.246193 
L 373.973262 147.258138 
L 375.962567 148.936154 
L 377.951872 151.267469 
L 379.941176 154.234342 
L 381.930481 157.814192 
L 383.919786 161.979774 
L 385.909091 166.699387 
L 387.898396 171.93711 
L 389.887701 177.653082 
L 391.877005 183.803801 
L 395.855615 197.219283 
L 399.834225 211.775935 
L 405.802139 234.776891 
L 429.673797 234.776891 
L 431.663102 66.96 
L 479.406417 66.96 
L 481.395722 234.776891 
L 527.149733 234.776891 
L 529.139037 100.190688 
L 531.128342 100.931148 
L 533.117647 103.144381 
L 535.106952 106.806033 
L 537.096257 111.875814 
L 539.085561 118.297937 
L 541.074866 126.001737 
L 543.064171 134.902446 
L 545.053476 144.902124 
L 547.042781 155.890739 
L 549.032086 167.747379 
L 553.010695 193.534758 
L 558.97861 235.233144 
L 564.946524 276.886677 
L 568.925134 302.596139 
L 570.914439 314.400547 
L 572.903743 325.328815 
L 574.893048 335.260694 
L 576.882353 344.086899 
L 578.871658 351.71031 
L 580.860963 358.047044 
L 582.850267 363.027374 
L 584.839572 366.596498 
L 586.828877 368.715144 
L 588.818182 369.36 
L 590.807487 368.523969 
L 592.796791 366.216252 
L 594.786096 362.46224 
L 596.775401 357.303242 
L 598.764706 350.796024 
L 600.754011 343.012189 
L 602.743316 334.037386 
L 604.73262 323.970369 
L 606.721925 312.921911 
L 608.71123 234.776891 
L 622.636364 234.776891 
L 622.636364 234.776891 
" clip-path="url(#p3919c4343e)" style="fill: none; stroke: #4c72b0; stroke-width: 3; stroke-linecap: round"/>
   </g>
   <g id="line2d_11">
    <path d="M 115.363636 234.776891 
L 119.342246 234.776891 
L 157.139037 130.307867 
L 159.128342 130.307867 
L 196.925134 234.776891 
L 220.796791 234.776891 
L 314.294118 111.113823 
L 316.283422 234.776891 
L 322.251337 234.776891 
L 330.208556 204.713822 
L 334.187166 190.326381 
L 338.165775 176.699501 
L 342.144385 164.066341 
L 346.122995 152.643059 
L 348.112299 147.447104 
L 350.101604 142.625109 
L 352.090909 138.197722 
L 354.080214 134.183901 
L 356.069519 130.600836 
L 358.058824 127.463868 
L 360.048128 124.786431 
L 362.037433 122.57999 
L 364.026738 120.853993 
L 366.016043 119.615832 
L 368.005348 118.870808 
L 369.994652 118.622112 
L 371.983957 118.870808 
L 373.973262 119.615832 
L 375.962567 120.853993 
L 377.951872 122.57999 
L 379.941176 124.786431 
L 381.930481 127.463868 
L 383.919786 130.600836 
L 385.909091 134.183901 
L 387.898396 138.197722 
L 389.887701 142.625109 
L 391.877005 147.447104 
L 393.86631 152.643059 
L 397.84492 164.066341 
L 401.823529 176.699501 
L 405.802139 190.326381 
L 409.780749 204.713822 
L 415.748663 227.180005 
L 417.737968 234.776891 
L 421.716578 234.776891 
L 423.705882 166.266653 
L 495.320856 166.266653 
L 497.31016 234.776891 
L 523.171123 234.776891 
L 525.160428 97.114862 
L 527.149733 97.237478 
L 529.139037 97.605108 
L 531.128342 98.217097 
L 533.117647 99.072355 
L 535.106952 100.169357 
L 537.096257 101.506151 
L 539.085561 103.080354 
L 541.074866 104.889163 
L 543.064171 106.929354 
L 545.053476 109.197295 
L 547.042781 111.688943 
L 549.032086 114.399862 
L 551.02139 117.325221 
L 555 123.798044 
L 558.97861 131.061309 
L 562.957219 139.063283 
L 566.935829 147.746974 
L 570.914439 157.050532 
L 574.893048 166.907693 
L 578.871658 177.248249 
L 584.839572 193.503528 
L 590.807487 210.419743 
L 596.775401 227.726005 
L 598.764706 234.776891 
L 622.636364 234.776891 
L 622.636364 234.776891 
" clip-path="url(#p3919c4343e)" style="fill: none; stroke: #dd8452; stroke-width: 3; stroke-linecap: round"/>
   </g>
   <g id="line2d_12">
    <path d="M 115.363636 234.776891 
L 157.139037 234.776891 
L 159.128342 143.802342 
L 218.807487 234.776891 
L 250.636364 234.776891 
L 252.625668 185.421739 
L 324.240642 185.421739 
L 326.229947 234.776891 
L 344.13369 234.776891 
L 346.122995 124.03143 
L 348.112299 124.20054 
L 350.101604 124.707353 
L 352.090909 125.550321 
L 354.080214 126.72687 
L 356.069519 128.233407 
L 358.058824 130.06533 
L 360.048128 132.217045 
L 362.037433 134.681981 
L 364.026738 137.452609 
L 366.016043 140.520468 
L 368.005348 143.876189 
L 369.994652 147.509523 
L 371.983957 151.409374 
L 375.962567 159.960207 
L 379.941176 169.424311 
L 383.919786 179.68616 
L 387.898396 190.620489 
L 393.86631 207.989066 
L 397.84492 220.006725 
L 399.834225 234.776891 
L 439.620321 234.776891 
L 445.588235 208.645848 
L 449.566845 192.108255 
L 453.545455 176.867126 
L 455.534759 169.879386 
L 457.524064 163.385556 
L 459.513369 157.435056 
L 461.502674 152.073175 
L 463.491979 147.340719 
L 465.481283 143.273705 
L 467.470588 139.903086 
L 469.459893 137.254513 
L 471.449198 135.348145 
L 473.438503 134.198489 
L 475.427807 133.814296 
L 477.417112 134.198489 
L 479.406417 135.348145 
L 481.395722 137.254513 
L 483.385027 139.903086 
L 485.374332 143.273705 
L 487.363636 147.340719 
L 489.352941 152.073175 
L 491.342246 157.435056 
L 493.331551 163.385556 
L 495.320856 169.879386 
L 497.31016 176.867126 
L 501.28877 192.108255 
L 505.26738 208.645848 
L 511.235294 234.776891 
L 533.117647 234.776891 
L 576.882353 116.557321 
L 578.871658 116.557321 
L 622.636364 234.776891 
L 622.636364 234.776891 
" clip-path="url(#p3919c4343e)" style="fill: none; stroke: #55a868; stroke-width: 3; stroke-linecap: round"/>
   </g>
   <g id="line2d_13">
    <path d="M 115.363636 234.776891 
L 145.203209 234.776891 
L 147.192513 132.539769 
L 234.721925 234.776891 
L 242.679144 234.776891 
L 264.561497 168.87993 
L 266.550802 168.87993 
L 288.433155 234.776891 
L 336.176471 234.776891 
L 338.165775 93.583945 
L 421.716578 93.583945 
L 423.705882 234.776891 
L 433.652406 234.776891 
L 439.620321 206.7735 
L 443.59893 189.561774 
L 445.588235 181.701887 
L 447.57754 174.464256 
L 449.566845 167.933735 
L 451.55615 162.18689 
L 453.545455 157.291095 
L 455.534759 153.303751 
L 457.524064 150.271605 
L 459.513369 148.230206 
L 461.502674 147.203488 
L 463.491979 147.203488 
L 465.481283 148.230206 
L 467.470588 150.271605 
L 469.459893 153.303751 
L 471.449198 157.291095 
L 473.438503 162.18689 
L 475.427807 167.933735 
L 477.417112 174.464256 
L 479.406417 181.701887 
L 481.395722 189.561774 
L 485.374332 206.7735 
L 489.352941 225.294634 
L 491.342246 234.776891 
L 527.149733 234.776891 
L 529.139037 167.642165 
L 531.128342 168.407277 
L 533.117647 170.685174 
L 535.106952 174.423934 
L 537.096257 179.538339 
L 539.085561 185.911814 
L 541.074866 193.399088 
L 543.064171 201.829499 
L 545.053476 211.010891 
L 549.032086 230.777172 
L 553.010695 250.906043 
L 555 260.532926 
L 556.989305 269.572745 
L 558.97861 277.819449 
L 560.967914 285.085071 
L 562.957219 291.204002 
L 564.946524 296.03677 
L 566.935829 299.473223 
L 568.925134 301.43503 
L 570.914439 301.877476 
L 572.903743 300.790477 
L 574.893048 298.198808 
L 576.882353 294.161543 
L 578.871658 288.770703 
L 580.860963 282.149165 
L 582.850267 274.447855 
L 584.839572 265.842312 
L 588.818182 246.71926 
L 594.786096 216.577893 
L 596.775401 207.057015 
L 598.764706 198.167965 
L 600.754011 190.113354 
L 602.743316 183.076774 
L 604.73262 177.218611 
L 606.721925 234.776891 
L 622.636364 234.776891 
L 622.636364 234.776891 
" clip-path="url(#p3919c4343e)" style="fill: none; stroke: #c44e52; stroke-width: 3; stroke-linecap: round"/>
   </g>
   <g id="line2d_14">
    <path d="M 115.363636 234.776891 
L 147.192513 234.776891 
L 149.181818 132.871136 
L 202.893048 132.871136 
L 204.882353 234.776891 
L 244.668449 234.776891 
L 272.518717 124.359908 
L 274.508021 124.359908 
L 302.358289 234.776891 
L 340.15508 234.776891 
L 385.909091 160.536366 
L 387.898396 234.776891 
L 433.652406 234.776891 
L 435.641711 127.541349 
L 437.631016 129.46905 
L 439.620321 135.182848 
L 441.609626 144.477315 
L 443.59893 157.018292 
L 445.588235 172.354897 
L 447.57754 189.935738 
L 451.55615 229.243856 
L 455.534759 269.340532 
L 457.524064 287.880506 
L 459.513369 304.511265 
L 461.502674 318.634888 
L 463.491979 329.743594 
L 465.481283 337.437995 
L 467.470588 341.441456 
L 469.459893 341.610044 
L 471.449198 337.937696 
L 473.438503 330.556443 
L 475.427807 319.731662 
L 477.417112 305.852531 
L 479.406417 289.418042 
L 481.395722 271.019059 
L 489.352941 191.557155 
L 491.342246 173.809343 
L 493.331551 158.253476 
L 495.320856 234.776891 
L 529.139037 234.776891 
L 531.128342 150.773732 
L 610.700535 234.776891 
L 622.636364 234.776891 
L 622.636364 234.776891 
" clip-path="url(#p3919c4343e)" style="fill: none; stroke: #8172b3; stroke-width: 3; stroke-linecap: round"/>
   </g>
   <g id="line2d_15">
    <path d="M 115.363636 234.776891 
L 129.28877 234.776891 
L 135.256684 204.031986 
L 139.235294 185.25127 
L 141.224599 176.737685 
L 143.213904 168.953976 
L 145.203209 161.998028 
L 147.192513 155.957317 
L 149.181818 150.907808 
L 151.171123 146.913001 
L 153.160428 144.023134 
L 155.149733 142.274547 
L 157.139037 141.689232 
L 159.128342 142.274547 
L 161.117647 144.023134 
L 163.106952 146.913001 
L 165.096257 150.907808 
L 167.085561 155.957317 
L 169.074866 161.998028 
L 171.064171 168.953976 
L 173.053476 176.737685 
L 175.042781 185.25127 
L 179.02139 204.031986 
L 183 224.35438 
L 184.989305 234.776891 
L 228.754011 234.776891 
L 268.540107 139.280743 
L 270.529412 139.280743 
L 310.315508 234.776891 
L 328.219251 234.776891 
L 377.951872 172.436078 
L 379.941176 234.776891 
L 425.695187 234.776891 
L 427.684492 127.999119 
L 477.417112 234.776891 
L 525.160428 234.776891 
L 527.149733 143.444676 
L 529.139037 144.226019 
L 531.128342 146.556679 
L 533.117647 150.396779 
L 535.106952 155.680616 
L 537.096257 162.317782 
L 539.085561 170.194717 
L 541.074866 179.176648 
L 543.064171 189.109893 
L 547.042781 211.137133 
L 556.989305 269.726436 
L 558.97861 280.441218 
L 560.967914 290.374688 
L 562.957219 299.356884 
L 564.946524 307.234123 
L 566.935829 313.871625 
L 568.925134 319.155822 
L 570.914439 322.996304 
L 572.903743 325.32736 
L 574.893048 326.109106 
L 576.882353 325.328165 
L 578.871658 322.9979 
L 580.860963 319.158182 
L 582.850267 313.874707 
L 584.839572 307.237876 
L 586.828877 299.361244 
L 588.818182 290.379579 
L 590.807487 280.446558 
L 594.786096 258.419626 
L 596.775401 234.776891 
L 622.636364 234.776891 
L 622.636364 234.776891 
" clip-path="url(#p3919c4343e)" style="fill: none; stroke: #937860; stroke-width: 3; stroke-linecap: round"/>
   </g>
   <g id="line2d_16">
    <path d="M 115.363636 234.776891 
L 129.28877 234.776891 
L 131.278075 128.523731 
L 204.882353 234.776891 
L 228.754011 234.776891 
L 284.454545 129.269043 
L 286.44385 234.776891 
L 326.229947 234.776891 
L 350.101604 147.043047 
L 352.090909 147.043047 
L 375.962567 234.776891 
L 423.705882 234.776891 
L 427.684492 211.188897 
L 429.673797 199.945182 
L 431.663102 189.350316 
L 433.652406 179.601662 
L 435.641711 170.880817 
L 437.631016 163.350236 
L 439.620321 157.150197 
L 441.609626 152.396198 
L 443.59893 149.176794 
L 445.588235 147.551959 
L 447.57754 147.551959 
L 449.566845 149.176794 
L 451.55615 152.396198 
L 453.545455 157.150197 
L 455.534759 163.350236 
L 457.524064 170.880817 
L 459.513369 179.601662 
L 461.502674 189.350316 
L 463.491979 199.945182 
L 467.470588 222.872011 
L 469.459893 234.776891 
L 519.192513 234.776891 
L 521.181818 155.150076 
L 523.171123 155.267604 
L 525.160428 155.619842 
L 527.149733 156.20575 
L 529.139037 157.023598 
L 531.128342 158.070972 
L 533.117647 159.344781 
L 535.106952 160.841263 
L 537.096257 162.556002 
L 539.085561 164.483935 
L 541.074866 166.619371 
L 543.064171 168.956007 
L 545.053476 171.486945 
L 549.032086 177.10129 
L 553.010695 183.39616 
L 556.989305 190.297282 
L 560.967914 197.723227 
L 564.946524 205.586376 
L 570.914439 217.996761 
L 580.860963 239.501362 
L 588.818182 256.531297 
L 594.786096 268.674297 
L 598.764706 276.289278 
L 602.743316 283.414445 
L 604.73262 234.776891 
L 622.636364 234.776891 
L 622.636364 234.776891 
" clip-path="url(#p3919c4343e)" style="fill: none; stroke: #da8bc3; stroke-width: 3; stroke-linecap: round"/>
   </g>
   <g id="line2d_17">
    <path d="M 115.363636 234.776891 
L 169.074866 234.776891 
L 256.604278 160.364319 
L 258.593583 234.776891 
L 260.582888 104.123998 
L 310.315508 234.776891 
L 352.090909 234.776891 
L 389.887701 136.236556 
L 391.877005 136.236556 
L 429.673797 234.776891 
L 443.59893 234.776891 
L 449.566845 211.266862 
L 453.545455 196.538788 
L 455.534759 189.661477 
L 457.524064 183.192738 
L 459.513369 177.191153 
L 461.502674 171.711074 
L 463.491979 166.802128 
L 465.481283 162.508772 
L 467.470588 158.869888 
L 469.459893 155.918429 
L 471.449198 153.681125 
L 473.438503 152.178236 
L 475.427807 151.423374 
L 477.417112 151.423374 
L 479.406417 152.178236 
L 481.395722 153.681125 
L 483.385027 155.918429 
L 485.374332 158.869888 
L 487.363636 162.508772 
L 489.352941 166.802128 
L 491.342246 171.711074 
L 493.331551 177.191153 
L 495.320856 183.192738 
L 497.31016 189.661477 
L 501.28877 203.762389 
L 505.26738 218.984246 
L 509.245989 234.776891 
L 533.117647 234.776891 
L 535.106952 94.772384 
L 606.721925 94.772384 
L 608.71123 234.776891 
L 622.636364 234.776891 
L 622.636364 234.776891 
" clip-path="url(#p3919c4343e)" style="fill: none; stroke: #8c8c8c; stroke-width: 3; stroke-linecap: round"/>
   </g>
   <g id="line2d_18">
    <path d="M 115.363636 234.776891 
L 161.117647 234.776891 
L 163.106952 222.428958 
L 218.807487 222.428958 
L 220.796791 234.776891 
L 254.614973 234.776891 
L 342.144385 190.167736 
L 344.13369 234.776891 
L 346.122995 120.00117 
L 348.112299 120.10538 
L 350.101604 120.417818 
L 352.090909 120.937919 
L 354.080214 121.664737 
L 356.069519 122.596952 
L 358.058824 123.732873 
L 360.048128 125.070436 
L 362.037433 126.607212 
L 364.026738 128.340411 
L 366.016043 130.266885 
L 368.005348 132.383137 
L 369.994652 134.685323 
L 373.973262 139.830446 
L 377.951872 145.6649 
L 381.930481 152.146326 
L 385.909091 159.227666 
L 389.887701 166.85751 
L 393.86631 174.980463 
L 397.84492 183.53755 
L 403.812834 197.050531 
L 409.780749 211.179323 
L 411.770053 215.986124 
L 413.759358 234.776891 
L 437.631016 234.776891 
L 443.59893 201.715061 
L 447.57754 181.179872 
L 449.566845 171.685712 
L 451.55615 162.838952 
L 453.545455 154.730373 
L 455.534759 147.443179 
L 457.524064 141.052147 
L 459.513369 135.622859 
L 461.502674 131.211024 
L 463.491979 127.861916 
L 465.481283 125.6099 
L 467.470588 124.478085 
L 469.459893 124.478085 
L 471.449198 125.6099 
L 473.438503 127.861916 
L 475.427807 131.211024 
L 477.417112 135.622859 
L 479.406417 141.052147 
L 481.395722 147.443179 
L 483.385027 154.730373 
L 485.374332 162.838952 
L 487.363636 171.685712 
L 489.352941 181.179872 
L 493.331551 201.715061 
L 499.299465 234.776891 
L 527.149733 234.776891 
L 529.139037 135.593571 
L 610.700535 234.776891 
L 622.636364 234.776891 
L 622.636364 234.776891 
" clip-path="url(#p3919c4343e)" style="fill: none; stroke: #ccb974; stroke-width: 3; stroke-linecap: round"/>
   </g>
   <g id="line2d_19">
    <path d="M 115.363636 234.776891 
L 171.064171 234.776891 
L 192.946524 175.881605 
L 194.935829 175.881605 
L 216.818182 234.776891 
L 258.593583 234.776891 
L 260.582888 192.821698 
L 334.187166 192.821698 
L 336.176471 234.776891 
L 348.112299 234.776891 
L 350.101604 134.363263 
L 354.080214 134.480739 
L 358.058824 134.832892 
L 362.037433 135.418898 
L 366.016043 136.237386 
L 369.994652 137.286441 
L 373.973262 138.563608 
L 377.951872 140.065899 
L 381.930481 141.789798 
L 385.909091 143.731272 
L 389.887701 145.885779 
L 393.86631 148.248277 
L 397.84492 150.813238 
L 401.823529 153.57466 
L 405.802139 156.526083 
L 411.770053 161.294244 
L 417.737968 166.44917 
L 421.716578 170.087339 
L 423.705882 234.776891 
L 439.620321 234.776891 
L 443.59893 206.194554 
L 445.588235 192.703291 
L 447.57754 180.151883 
L 449.566845 168.820707 
L 451.55615 158.962884 
L 453.545455 150.79862 
L 455.534759 144.510292 
L 457.524064 140.23837 
L 459.513369 138.078283 
L 461.502674 138.078283 
L 463.491979 140.23837 
L 465.481283 144.510292 
L 467.470588 150.79862 
L 469.459893 158.962884 
L 471.449198 168.820707 
L 473.438503 180.151883 
L 475.427807 192.703291 
L 479.406417 220.324299 
L 481.395722 234.776891 
L 529.139037 234.776891 
L 610.700535 139.237469 
L 612.68984 234.776891 
L 622.636364 234.776891 
L 622.636364 234.776891 
" clip-path="url(#p3919c4343e)" style="fill: none; stroke: #64b5cd; stroke-width: 3; stroke-linecap: round"/>
   </g>
   <g id="line2d_20">
    <path d="M 115.363636 234.776891 
L 167.085561 234.776891 
L 169.074866 204.032738 
L 256.604278 204.032738 
L 258.593583 234.776891 
L 260.582888 234.776891 
L 336.176471 128.933077 
L 338.165775 234.776891 
L 350.101604 234.776891 
L 352.090909 136.391878 
L 354.080214 136.467492 
L 356.069519 136.694219 
L 358.058824 137.071709 
L 360.048128 137.599382 
L 362.037433 138.276427 
L 364.026738 139.101805 
L 366.016043 140.074245 
L 368.005348 141.192253 
L 369.994652 142.454111 
L 371.983957 143.857879 
L 375.962567 147.082299 
L 379.941176 150.845696 
L 383.919786 155.12494 
L 387.898396 159.89373 
L 391.877005 165.122757 
L 395.855615 170.779883 
L 399.834225 176.830339 
L 403.812834 183.236938 
L 407.791444 189.960306 
L 413.759358 200.548435 
L 419.727273 211.609594 
L 427.684492 226.828744 
L 431.663102 234.535126 
L 433.652406 234.776891 
L 443.59893 234.776891 
L 449.566845 214.806334 
L 453.545455 202.131599 
L 457.524064 190.39601 
L 459.513369 184.987226 
L 461.502674 179.937178 
L 463.491979 175.282251 
L 465.481283 171.055985 
L 467.470588 167.288829 
L 469.459893 164.007926 
L 471.449198 161.236915 
L 473.438503 158.995761 
L 475.427807 157.300612 
L 477.417112 156.163682 
L 479.406417 155.593161 
L 481.395722 155.593161 
L 483.385027 156.163682 
L 485.374332 157.300612 
L 487.363636 158.995761 
L 489.352941 161.236915 
L 491.342246 164.007926 
L 493.331551 167.288829 
L 495.320856 171.055985 
L 497.31016 175.282251 
L 499.299465 179.937178 
L 501.28877 184.987226 
L 505.26738 196.124559 
L 509.245989 208.373849 
L 513.224599 221.382707 
L 517.203209 234.776891 
L 535.106952 234.776891 
L 562.957219 133.625039 
L 564.946524 133.625039 
L 592.796791 234.776891 
L 622.636364 234.776891 
L 622.636364 234.776891 
" clip-path="url(#p3919c4343e)" style="fill: none; stroke: #4c72b0; stroke-width: 3; stroke-linecap: round"/>
   </g>
   <g id="line2d_21">
    <path d="M 115.363636 234.776891 
L 151.171123 234.776891 
L 153.160428 178.490935 
L 236.71123 178.490935 
L 238.700535 234.776891 
L 246.657754 234.776891 
L 270.529412 123.704424 
L 272.518717 123.704424 
L 296.390374 234.776891 
L 338.165775 234.776891 
L 340.15508 137.47412 
L 415.748663 234.776891 
L 431.663102 234.776891 
L 433.652406 177.104087 
L 435.641711 177.207787 
L 437.631016 177.518516 
L 439.620321 178.035154 
L 441.609626 178.755846 
L 443.59893 179.677998 
L 445.588235 180.798294 
L 447.57754 182.112707 
L 449.566845 183.616508 
L 451.55615 185.304291 
L 453.545455 187.169985 
L 455.534759 189.206881 
L 459.513369 193.76439 
L 463.491979 198.91132 
L 467.470588 204.5737 
L 471.449198 210.670151 
L 475.427807 217.113058 
L 481.395722 227.223434 
L 493.331551 247.841524 
L 495.320856 234.776891 
L 527.149733 234.776891 
L 616.668449 110.284242 
L 618.657754 234.776891 
L 622.636364 234.776891 
L 622.636364 234.776891 
" clip-path="url(#p3919c4343e)" style="fill: none; stroke: #dd8452; stroke-width: 3; stroke-linecap: round"/>
   </g>
   <g id="line2d_22">
    <path d="M 115.363636 234.776891 
L 167.085561 234.776891 
L 194.935829 135.641181 
L 196.925134 135.641181 
L 224.775401 234.776891 
L 256.604278 234.776891 
L 258.593583 96.322054 
L 330.208556 96.322054 
L 332.197861 234.776891 
L 350.101604 234.776891 
L 417.737968 143.094106 
L 419.727273 234.776891 
L 439.620321 234.776891 
L 441.609626 163.577618 
L 443.59893 164.504777 
L 445.588235 167.262105 
L 447.57754 171.777792 
L 449.566845 177.93423 
L 451.55615 185.571081 
L 453.545455 194.48945 
L 455.534759 204.457067 
L 459.513369 226.481091 
L 465.481283 260.383622 
L 467.470588 270.736629 
L 469.459893 280.153098 
L 471.449198 288.387788 
L 473.438503 295.226233 
L 475.427807 300.490333 
L 477.417112 304.042989 
L 479.406417 305.791676 
L 481.395722 305.69085 
L 483.385027 303.743138 
L 485.374332 299.999266 
L 487.363636 294.55674 
L 489.352941 287.557304 
L 491.342246 279.183254 
L 493.331551 234.776891 
L 531.128342 234.776891 
L 533.117647 137.24113 
L 592.796791 234.776891 
L 622.636364 234.776891 
L 622.636364 234.776891 
" clip-path="url(#p3919c4343e)" style="fill: none; stroke: #55a868; stroke-width: 3; stroke-linecap: round"/>
   </g>
   <g id="line2d_23">
    <path d="M 115.363636 234.776891 
L 163.106952 234.776891 
L 230.743316 121.451401 
L 232.73262 234.776891 
L 252.625668 234.776891 
L 254.614973 137.143383 
L 256.604278 137.385346 
L 258.593583 138.110034 
L 260.582888 139.313857 
L 262.572193 140.990847 
L 264.561497 143.132692 
L 266.550802 145.728776 
L 268.540107 148.766231 
L 270.529412 152.230002 
L 272.518717 156.102921 
L 274.508021 160.365792 
L 276.497326 164.997485 
L 278.486631 169.975042 
L 282.465241 180.867475 
L 286.44385 192.827402 
L 290.42246 205.617997 
L 296.390374 225.804086 
L 306.336898 259.88164 
L 310.315508 272.877044 
L 314.294118 285.118003 
L 318.272727 296.362126 
L 320.262032 301.539901 
L 322.251337 306.386762 
L 324.240642 234.776891 
L 346.122995 234.776891 
L 352.090909 210.501625 
L 356.069519 195.294161 
L 358.058824 188.192997 
L 360.048128 181.513705 
L 362.037433 175.316772 
L 364.026738 169.65832 
L 366.016043 164.589591 
L 368.005348 160.156489 
L 369.994652 156.399161 
L 371.983957 153.351634 
L 373.973262 151.041507 
L 375.962567 149.4897 
L 377.951872 148.710267 
L 379.941176 148.710267 
L 381.930481 149.4897 
L 383.919786 151.041507 
L 385.909091 153.351634 
L 387.898396 156.399161 
L 389.887701 160.156489 
L 391.877005 164.589591 
L 393.86631 169.65832 
L 395.855615 175.316772 
L 397.84492 181.513705 
L 399.834225 188.192997 
L 403.812834 202.752886 
L 407.791444 218.470205 
L 411.770053 234.776891 
L 435.641711 234.776891 
L 437.631016 108.194355 
L 523.171123 234.776891 
L 527.149733 234.776891 
L 529.139037 185.261497 
L 600.754011 185.261497 
L 602.743316 234.776891 
L 622.636364 234.776891 
L 622.636364 234.776891 
" clip-path="url(#p3919c4343e)" style="fill: none; stroke: #c44e52; stroke-width: 3; stroke-linecap: round"/>
   </g>
   <g id="line2d_24">
    <path d="M 115.363636 234.776891 
L 163.106952 234.776891 
L 167.085561 210.587457 
L 171.064171 187.917934 
L 173.053476 177.604511 
L 175.042781 168.192731 
L 177.032086 159.831023 
L 179.02139 152.651256 
L 181.010695 146.76666 
L 183 142.270037 
L 184.989305 139.232303 
L 186.97861 137.701364 
L 188.967914 137.701364 
L 190.957219 139.232303 
L 192.946524 142.270037 
L 194.935829 146.76666 
L 196.925134 152.651256 
L 198.914439 159.831023 
L 200.903743 168.192731 
L 202.893048 177.604511 
L 204.882353 187.917934 
L 208.860963 210.587457 
L 212.839572 234.776891 
L 252.625668 234.776891 
L 254.614973 135.103359 
L 256.604278 135.563457 
L 258.593583 136.939504 
L 260.582888 139.218796 
L 262.572193 142.380291 
L 264.561497 146.394801 
L 266.550802 151.225264 
L 268.540107 156.827084 
L 270.529412 163.148546 
L 272.518717 170.131287 
L 274.508021 177.710844 
L 278.486631 194.375638 
L 282.465241 212.528942 
L 294.40107 269.106422 
L 298.379679 286.352451 
L 300.368984 294.300124 
L 302.358289 301.698272 
L 304.347594 308.478595 
L 306.336898 314.578496 
L 308.326203 319.941661 
L 310.315508 234.776891 
L 344.13369 234.776891 
L 346.122995 188.958763 
L 431.663102 188.958763 
L 433.652406 234.776891 
L 437.631016 234.776891 
L 503.278075 99.643226 
L 505.26738 234.776891 
L 529.139037 234.776891 
L 555 146.863562 
L 556.989305 146.863562 
L 582.850267 234.776891 
L 622.636364 234.776891 
L 622.636364 234.776891 
" clip-path="url(#p3919c4343e)" style="fill: none; stroke: #8172b3; stroke-width: 3; stroke-linecap: round"/>
   </g>
   <g id="line2d_25">
    <path d="M 115.363636 234.776891 
L 131.278075 234.776891 
L 133.26738 145.651959 
L 206.871658 234.776891 
L 230.743316 234.776891 
L 280.475936 174.39467 
L 282.465241 234.776891 
L 326.229947 234.776891 
L 328.219251 122.187523 
L 332.197861 122.362341 
L 336.176471 122.88625 
L 340.15508 123.757624 
L 344.13369 124.973758 
L 348.112299 126.530874 
L 352.090909 128.424136 
L 356.069519 130.647667 
L 360.048128 133.19456 
L 364.026738 136.056907 
L 368.005348 139.225818 
L 371.983957 142.691454 
L 375.962567 146.443052 
L 379.941176 150.468961 
L 381.930481 152.580908 
L 383.919786 234.776891 
L 425.695187 234.776891 
L 469.459893 136.339876 
L 471.449198 136.339876 
L 515.213904 234.776891 
L 523.171123 234.776891 
L 529.139037 197.974894 
L 533.117647 175.355279 
L 535.106952 165.025832 
L 537.096257 155.514153 
L 539.085561 146.931756 
L 541.074866 139.379264 
L 543.064171 132.945221 
L 545.053476 127.705062 
L 547.042781 123.720222 
L 549.032086 121.03742 
L 551.02139 119.68811 
L 553.010695 119.68811 
L 555 121.03742 
L 556.989305 123.720222 
L 558.97861 127.705062 
L 560.967914 132.945221 
L 562.957219 139.379264 
L 564.946524 146.931756 
L 566.935829 155.514153 
L 568.925134 165.025832 
L 570.914439 175.355279 
L 574.893048 197.974894 
L 578.871658 222.315329 
L 580.860963 234.776891 
L 622.636364 234.776891 
L 622.636364 234.776891 
" clip-path="url(#p3919c4343e)" style="fill: none; stroke: #937860; stroke-width: 3; stroke-linecap: round"/>
   </g>
   <g id="line2d_26">
    <path d="M 115.363636 234.776891 
L 135.256684 234.776891 
L 137.245989 91.378109 
L 214.828877 91.378109 
L 216.818182 234.776891 
L 232.73262 234.776891 
L 234.721925 157.573574 
L 236.71123 158.178399 
L 238.700535 159.983394 
L 240.68984 162.96028 
L 242.679144 167.062414 
L 244.668449 172.225521 
L 246.657754 178.368704 
L 248.647059 185.395711 
L 250.636364 193.196439 
L 252.625668 201.648664 
L 256.604278 219.969741 
L 264.561497 258.183581 
L 268.540107 275.690733 
L 270.529412 283.549319 
L 272.518717 290.643721 
L 274.508021 296.862783 
L 276.497326 302.109061 
L 278.486631 306.300356 
L 280.475936 309.370996 
L 282.465241 311.272871 
L 284.454545 311.97618 
L 286.44385 311.469903 
L 288.433155 309.761975 
L 290.42246 306.879154 
L 292.411765 302.86661 
L 294.40107 297.787213 
L 296.390374 291.720548 
L 298.379679 284.76167 
L 300.368984 277.019614 
L 302.358289 268.615684 
L 306.336898 250.357214 
L 314.294118 212.122891 
L 318.272727 194.533927 
L 320.262032 186.618304 
L 322.251337 179.457246 
L 324.240642 173.162955 
L 326.229947 234.776891 
L 330.208556 234.776891 
L 332.197861 76.232705 
L 397.84492 234.776891 
L 429.673797 234.776891 
L 485.374332 146.009835 
L 487.363636 234.776891 
L 527.149733 234.776891 
L 533.117647 208.357221 
L 537.096257 191.68863 
L 541.074866 176.404931 
L 543.064171 169.438108 
L 545.053476 162.997354 
L 547.042781 157.134528 
L 549.032086 151.896831 
L 551.02139 147.326437 
L 553.010695 143.460142 
L 555 140.329075 
L 556.989305 137.958447 
L 558.97861 136.367345 
L 560.967914 135.568578 
L 562.957219 135.568578 
L 564.946524 136.367345 
L 566.935829 137.958447 
L 568.925134 140.329075 
L 570.914439 143.460142 
L 572.903743 147.326437 
L 574.893048 151.896831 
L 576.882353 157.134528 
L 578.871658 162.997354 
L 580.860963 169.438108 
L 582.850267 176.404931 
L 586.828877 191.68863 
L 590.807487 208.357221 
L 596.775401 234.776891 
L 622.636364 234.776891 
L 622.636364 234.776891 
" clip-path="url(#p3919c4343e)" style="fill: none; stroke: #da8bc3; stroke-width: 3; stroke-linecap: round"/>
   </g>
   <g id="line2d_27">
    <path d="M 115.363636 234.776891 
L 129.28877 234.776891 
L 167.085561 150.208968 
L 169.074866 150.208968 
L 206.871658 234.776891 
L 228.754011 234.776891 
L 314.294118 140.081646 
L 316.283422 234.776891 
L 326.229947 234.776891 
L 328.219251 176.840362 
L 330.208556 177.70827 
L 332.197861 180.285993 
L 334.187166 184.496298 
L 336.176471 190.213044 
L 338.165775 197.264952 
L 340.15508 205.440742 
L 342.144385 214.495463 
L 346.122995 234.138349 
L 350.101604 253.857187 
L 352.090909 263.004715 
L 354.080214 271.306518 
L 356.069519 278.51387 
L 358.058824 284.410833 
L 360.048128 288.82073 
L 362.037433 291.611437 
L 364.026738 292.699344 
L 366.016043 292.051856 
L 368.005348 289.688372 
L 369.994652 285.679703 
L 371.983957 280.145953 
L 373.973262 273.252915 
L 375.962567 265.20711 
L 377.951872 256.249596 
L 379.941176 246.648745 
L 381.930481 234.776891 
L 425.695187 234.776891 
L 427.684492 119.316887 
L 523.171123 119.316887 
L 525.160428 234.776891 
L 527.149733 234.776891 
L 533.117647 209.521277 
L 537.096257 193.834644 
L 539.085561 186.582145 
L 541.074866 179.824191 
L 543.064171 173.630125 
L 545.053476 168.063508 
L 547.042781 163.18146 
L 549.032086 159.034078 
L 551.02139 155.663921 
L 553.010695 153.105569 
L 555 151.385276 
L 556.989305 150.520693 
L 558.97861 150.520693 
L 560.967914 151.385276 
L 562.957219 153.105569 
L 564.946524 155.663921 
L 566.935829 159.034078 
L 568.925134 163.18146 
L 570.914439 168.063508 
L 572.903743 173.630125 
L 574.893048 179.824191 
L 576.882353 186.582145 
L 578.871658 193.834644 
L 582.850267 209.521277 
L 588.818182 234.776891 
L 622.636364 234.776891 
L 622.636364 234.776891 
" clip-path="url(#p3919c4343e)" style="fill: none; stroke: #8c8c8c; stroke-width: 3; stroke-linecap: round"/>
   </g>
   <g id="line2d_28">
    <path d="M 115.363636 234.776891 
L 159.128342 234.776891 
L 161.117647 101.972241 
L 238.700535 101.972241 
L 240.68984 234.776891 
L 252.625668 234.776891 
L 258.593583 207.904906 
L 262.572193 191.070702 
L 264.561497 183.209929 
L 266.550802 175.816154 
L 268.540107 168.956337 
L 270.529412 162.692601 
L 272.518717 157.081671 
L 274.508021 152.174362 
L 276.497326 148.015113 
L 278.486631 144.641593 
L 280.475936 142.084352 
L 282.465241 140.366549 
L 284.454545 139.50374 
L 286.44385 139.50374 
L 288.433155 140.366549 
L 290.42246 142.084352 
L 292.411765 144.641593 
L 294.40107 148.015113 
L 296.390374 152.174362 
L 298.379679 157.081671 
L 300.368984 162.692601 
L 302.358289 168.956337 
L 304.347594 175.816154 
L 306.336898 183.209929 
L 310.315508 199.327285 
L 314.294118 216.725883 
L 318.272727 234.776891 
L 344.13369 234.776891 
L 368.005348 148.385376 
L 369.994652 148.385376 
L 393.86631 234.776891 
L 435.641711 234.776891 
L 499.299465 106.674947 
L 501.28877 234.776891 
L 525.160428 234.776891 
L 527.149733 148.361187 
L 594.786096 234.776891 
L 622.636364 234.776891 
L 622.636364 234.776891 
" clip-path="url(#p3919c4343e)" style="fill: none; stroke: #ccb974; stroke-width: 3; stroke-linecap: round"/>
   </g>
   <g id="line2d_29">
    <path d="M 115.363636 234.776891 
L 133.26738 234.776891 
L 179.02139 182.608462 
L 181.010695 182.608462 
L 226.764706 234.776891 
L 228.754011 234.776891 
L 230.743316 176.377372 
L 314.294118 176.377372 
L 316.283422 234.776891 
L 328.219251 234.776891 
L 336.176471 210.301826 
L 340.15508 198.688376 
L 344.13369 187.809585 
L 348.112299 177.886913 
L 350.101604 173.348121 
L 352.090909 169.122356 
L 354.080214 165.231152 
L 356.069519 161.694337 
L 358.058824 158.529933 
L 360.048128 155.754067 
L 362.037433 153.380883 
L 364.026738 151.422474 
L 366.016043 149.888821 
L 368.005348 148.787737 
L 369.994652 148.124835 
L 371.983957 147.903491 
L 373.973262 148.124835 
L 375.962567 148.787737 
L 377.951872 149.888821 
L 379.941176 151.422474 
L 381.930481 153.380883 
L 383.919786 155.754067 
L 385.909091 158.529933 
L 387.898396 161.694337 
L 389.887701 165.231152 
L 391.877005 169.122356 
L 393.86631 173.348121 
L 395.855615 177.886913 
L 399.834225 187.809585 
L 403.812834 198.688376 
L 407.791444 210.301826 
L 413.759358 228.579413 
L 415.748663 234.776891 
L 423.705882 234.776891 
L 425.695187 154.104918 
L 427.684492 154.18639 
L 429.673797 154.430641 
L 431.663102 154.837177 
L 433.652406 155.405178 
L 435.641711 156.133496 
L 437.631016 157.02066 
L 439.620321 158.064878 
L 441.609626 159.264042 
L 443.59893 160.615728 
L 445.588235 162.117207 
L 449.566845 165.557117 
L 453.545455 169.555992 
L 457.524064 174.081541 
L 461.502674 179.09722 
L 465.481283 184.562524 
L 469.459893 190.433321 
L 473.438503 196.662203 
L 479.406417 206.566213 
L 485.374332 216.982359 
L 487.363636 234.776891 
L 521.181818 234.776891 
L 523.171123 147.826734 
L 578.871658 234.776891 
L 622.636364 234.776891 
L 622.636364 234.776891 
" clip-path="url(#p3919c4343e)" style="fill: none; stroke: #64b5cd; stroke-width: 3; stroke-linecap: round"/>
   </g>
   <g id="patch_3">
    <path d="M 90 384.48 
L 90 51.84 
" style="fill: none; stroke: #ffffff; stroke-width: 1.25; stroke-linejoin: miter; stroke-linecap: square"/>
   </g>
   <g id="patch_4">
    <path d="M 648 384.48 
L 648 51.84 
" style="fill: none; stroke: #ffffff; stroke-width: 1.25; stroke-linejoin: miter; stroke-linecap: square"/>
   </g>
   <g id="patch_5">
    <path d="M 90 384.48 
L 648 384.48 
" style="fill: none; stroke: #ffffff; stroke-width: 1.25; stroke-linejoin: miter; stroke-linecap: square"/>
   </g>
   <g id="patch_6">
    <path d="M 90 51.84 
L 648 51.84 
" style="fill: none; stroke: #ffffff; stroke-width: 1.25; stroke-linejoin: miter; stroke-linecap: square"/>
   </g>
   <g id="text_12">
    <!-- Illustration of Stochasticity in Signal Generation -->
    <g style="fill: #262626" transform="translate(78.383939 45.84) scale(0.3 -0.3)">
     <defs>
      <path id="CMR17-49" d="M 1261 3898 
C 1261 4185 1338 4185 1798 4185 
L 1798 4352 
C 1594 4339 1267 4339 1050 4339 
C 832 4339 506 4339 301 4352 
L 301 4185 
C 762 4185 838 4185 838 3898 
L 838 453 
C 838 166 762 166 301 166 
L 301 0 
C 506 12 832 12 1050 12 
C 1267 12 1594 12 1798 0 
L 1798 166 
C 1338 166 1261 166 1261 453 
L 1261 3898 
z
" transform="scale(0.015625)"/>
      <path id="CMR17-73" d="M 1978 2688 
C 1978 2803 1971 2809 1933 2809 
C 1907 2809 1901 2803 1824 2707 
C 1805 2681 1747 2617 1728 2592 
C 1523 2809 1235 2816 1126 2816 
C 416 2816 160 2444 160 2073 
C 160 1497 813 1363 998 1324 
C 1402 1241 1542 1216 1677 1100 
C 1760 1024 1901 883 1901 652 
C 1901 384 1747 38 1158 38 
C 602 38 403 460 288 1024 
C 269 1113 269 1120 218 1120 
C 166 1120 160 1113 160 985 
L 160 64 
C 160 -52 166 -58 205 -58 
C 237 -58 243 -52 275 0 
C 314 57 410 211 448 275 
C 576 102 800 -64 1158 -64 
C 1792 -64 2131 281 2131 780 
C 2131 1107 1958 1280 1875 1356 
C 1683 1555 1459 1600 1190 1651 
C 838 1728 390 1817 390 2208 
C 390 2374 480 2726 1126 2726 
C 1811 2726 1850 2086 1862 1881 
C 1869 1849 1901 1843 1920 1843 
C 1978 1843 1978 1862 1978 1971 
L 1978 2688 
z
" transform="scale(0.015625)"/>
      <path id="CMR17-72" d="M 960 1517 
C 960 2134 1222 2713 1702 2713 
C 1747 2713 1792 2707 1837 2687 
C 1837 2687 1696 2642 1696 2475 
C 1696 2321 1818 2257 1914 2257 
C 1990 2257 2131 2302 2131 2482 
C 2131 2687 1926 2816 1709 2816 
C 1222 2816 1011 2340 947 2115 
L 941 2115 
L 941 2816 
L 198 2745 
L 198 2578 
C 576 2578 634 2540 634 2231 
L 634 443 
C 634 198 608 166 198 166 
L 198 0 
C 352 12 646 12 813 12 
C 998 12 1325 12 1498 0 
L 1498 166 
C 1037 166 960 166 960 455 
L 960 1517 
z
" transform="scale(0.015625)"/>
      <path id="CMR17-61" d="M 2304 1656 
C 2304 2048 2304 2275 2035 2534 
C 1798 2751 1523 2816 1306 2816 
C 800 2816 435 2408 435 1977 
C 435 1740 627 1728 666 1728 
C 749 1728 896 1779 896 1958 
C 896 2118 774 2188 666 2188 
C 640 2188 608 2182 589 2176 
C 723 2594 1069 2713 1293 2713 
C 1613 2713 1965 2421 1965 1875 
L 1965 1632 
C 1587 1619 1133 1568 774 1373 
C 371 1147 256 822 256 576 
C 256 77 832 -64 1171 -64 
C 1523 -64 1850 135 1990 505 
C 2003 219 2182 -39 2464 -39 
C 2598 -39 2938 51 2938 563 
L 2938 926 
L 2822 926 
L 2822 557 
C 2822 161 2650 109 2566 109 
C 2304 109 2304 446 2304 732 
L 2304 1656 
z
M 1965 887 
C 1965 323 1568 38 1216 38 
C 896 38 646 278 646 576 
C 646 771 730 1114 1101 1322 
C 1408 1497 1760 1523 1965 1536 
L 1965 887 
z
" transform="scale(0.015625)"/>
      <path id="CMR17-6f" d="M 2758 1356 
C 2758 2176 2163 2816 1466 2816 
C 768 2816 173 2176 173 1356 
C 173 550 768 -64 1466 -64 
C 2163 -64 2758 550 2758 1356 
z
M 1466 51 
C 1165 51 909 230 762 480 
C 602 768 582 1126 582 1408 
C 582 1676 595 2009 762 2297 
C 890 2508 1139 2713 1466 2713 
C 1754 2713 1997 2553 2150 2329 
C 2349 2028 2349 1606 2349 1408 
C 2349 1158 2336 774 2163 467 
C 1984 172 1709 51 1466 51 
z
" transform="scale(0.015625)"/>
      <path id="CMR17-6e" d="M 2656 1954 
C 2656 2282 2592 2816 1837 2816 
C 1331 2816 1069 2424 973 2166 
L 966 2166 
L 966 2816 
L 211 2745 
L 211 2578 
C 589 2578 646 2540 646 2231 
L 646 443 
C 646 198 621 166 211 166 
L 211 0 
C 365 12 646 12 813 12 
C 979 12 1267 12 1421 0 
L 1421 166 
C 1011 166 986 192 986 443 
L 986 1678 
C 986 2269 1344 2713 1792 2713 
C 2266 2713 2317 2289 2317 1980 
L 2317 443 
C 2317 198 2291 166 1882 166 
L 1882 0 
C 2035 12 2317 12 2483 12 
C 2650 12 2938 12 3091 0 
L 3091 166 
C 2682 166 2656 192 2656 443 
L 2656 1954 
z
" transform="scale(0.015625)"/>
      <path id="CMR17-66" d="M 979 2585 
L 1709 2585 
L 1709 2752 
L 966 2752 
L 966 3539 
C 966 4076 1235 4377 1510 4377 
C 1594 4377 1690 4363 1754 4339 
C 1702 4326 1568 4281 1568 4121 
C 1568 3955 1696 3904 1786 3904 
C 1875 3904 2003 3955 2003 4121 
C 2003 4353 1773 4480 1517 4480 
C 1152 4480 653 4211 653 3526 
L 653 2752 
L 141 2752 
L 141 2585 
L 653 2585 
L 653 441 
C 653 198 627 166 218 166 
L 218 0 
C 371 12 666 12 832 12 
C 1018 12 1344 12 1517 0 
L 1517 166 
C 1056 166 979 166 979 454 
L 979 2585 
z
" transform="scale(0.015625)"/>
      <path id="CMR17-53" d="M 2803 4351 
C 2803 4467 2797 4473 2758 4473 
C 2720 4473 2707 4447 2682 4390 
L 2490 3965 
C 2246 4320 1875 4480 1472 4480 
C 819 4480 294 3958 294 3301 
C 294 3101 339 2817 557 2546 
C 794 2250 1018 2198 1530 2063 
C 1722 2011 2042 1927 2106 1901 
C 2470 1747 2662 1360 2662 999 
C 2662 534 2336 38 1779 38 
C 1094 38 454 425 410 1328 
C 403 1431 397 1437 352 1437 
C 301 1437 294 1431 294 1302 
L 294 0 
C 294 -116 301 -122 339 -122 
C 384 -122 397 -90 486 109 
C 493 128 493 141 614 386 
C 934 -39 1472 -128 1779 -128 
C 2477 -128 2970 457 2970 1141 
C 2970 1476 2848 1734 2778 1850 
C 2509 2263 2221 2340 1914 2417 
C 1869 2437 1856 2437 1498 2527 
C 1152 2617 1005 2662 845 2836 
C 666 3036 602 3243 602 3449 
C 602 3868 934 4326 1478 4326 
C 2157 4326 2579 3842 2675 3036 
C 2694 2920 2701 2914 2746 2914 
C 2803 2914 2803 2933 2803 3043 
L 2803 4351 
z
" transform="scale(0.015625)"/>
      <path id="CMR17-63" d="M 2234 2240 
C 2112 2240 1933 2240 1933 2015 
C 1933 1836 2080 1785 2163 1785 
C 2208 1785 2394 1804 2394 2028 
C 2394 2476 1958 2816 1466 2816 
C 787 2816 211 2201 211 1379 
C 211 521 813 -64 1466 -64 
C 2259 -64 2458 676 2458 747 
C 2458 773 2451 792 2406 792 
C 2362 792 2355 786 2330 702 
C 2163 180 1798 51 1523 51 
C 1114 51 621 431 621 1385 
C 621 2358 1094 2700 1472 2700 
C 1722 2700 2093 2582 2234 2240 
z
" transform="scale(0.015625)"/>
      <path id="CMR17-68" d="M 2656 1954 
C 2656 2282 2592 2816 1837 2816 
C 1312 2816 1056 2392 979 2179 
L 973 2179 
L 973 4416 
L 211 4345 
L 211 4179 
C 589 4179 646 4141 646 3843 
L 646 443 
C 646 198 621 166 211 166 
L 211 0 
C 365 12 646 12 813 12 
C 979 12 1267 12 1421 0 
L 1421 166 
C 1011 166 986 192 986 443 
L 986 1678 
C 986 2269 1344 2713 1792 2713 
C 2266 2713 2317 2289 2317 1980 
L 2317 443 
C 2317 198 2291 166 1882 166 
L 1882 0 
C 2035 12 2317 12 2483 12 
C 2650 12 2938 12 3091 0 
L 3091 166 
C 2682 166 2656 192 2656 443 
L 2656 1954 
z
" transform="scale(0.015625)"/>
      <path id="CMR17-79" d="M 2496 2183 
C 2656 2579 2944 2585 3034 2585 
L 3034 2752 
C 2912 2745 2752 2739 2630 2739 
C 2496 2739 2285 2739 2157 2752 
L 2157 2585 
C 2400 2566 2406 2384 2406 2332 
C 2406 2268 2394 2235 2362 2158 
L 1664 409 
L 902 2300 
C 870 2378 870 2423 870 2430 
C 870 2572 1018 2585 1171 2585 
L 1171 2752 
C 1018 2739 742 2739 582 2739 
C 410 2739 205 2739 64 2752 
L 64 2585 
C 410 2585 448 2553 531 2345 
L 1485 -31 
C 1197 -795 1030 -1242 627 -1242 
C 557 -1242 397 -1223 282 -1106 
C 429 -1093 493 -1002 493 -892 
C 493 -782 416 -685 288 -685 
C 147 -685 77 -782 77 -899 
C 77 -1158 339 -1344 627 -1344 
C 998 -1344 1229 -983 1357 -659 
L 2496 2183 
z
" transform="scale(0.015625)"/>
      <path id="CMR17-67" d="M 710 1165 
C 832 1068 1043 960 1299 960 
C 1805 960 2240 1359 2240 1895 
C 2240 2063 2189 2321 1997 2521 
C 2176 2713 2438 2777 2586 2777 
C 2611 2777 2650 2777 2682 2758 
C 2656 2751 2598 2726 2598 2623 
C 2598 2540 2656 2483 2739 2483 
C 2835 2483 2886 2547 2886 2630 
C 2886 2751 2790 2880 2586 2880 
C 2330 2880 2106 2758 1926 2591 
C 1734 2764 1504 2828 1299 2828 
C 794 2828 358 2431 358 1895 
C 358 1527 570 1294 634 1230 
C 442 1004 442 742 442 710 
C 442 544 506 300 723 166 
C 390 82 128 -184 128 -517 
C 128 -996 736 -1344 1466 -1344 
C 2170 -1344 2803 -1009 2803 -510 
C 2803 384 1856 384 1363 384 
C 1216 384 954 384 922 390 
C 723 422 589 601 589 825 
C 589 883 589 1024 710 1165 
z
M 1299 1068 
C 736 1068 736 1766 736 1895 
C 736 2024 736 2719 1299 2719 
C 1862 2719 1862 2024 1862 1895 
C 1862 1766 1862 1068 1299 1068 
z
M 1466 -1236 
C 826 -1236 384 -883 384 -517 
C 384 -311 493 -118 634 -11 
C 794 102 858 102 1293 102 
C 1818 102 2547 102 2547 -517 
C 2547 -883 2106 -1236 1466 -1236 
z
" transform="scale(0.015625)"/>
      <path id="CMR17-47" d="M 3974 1258 
C 3974 1503 3994 1536 4390 1536 
L 4390 1702 
C 4237 1689 3891 1689 3718 1689 
C 3539 1689 3040 1696 2797 1702 
L 2797 1536 
L 2989 1536 
C 3539 1536 3552 1464 3552 1232 
L 3552 806 
C 3552 96 2720 38 2522 38 
C 1862 38 781 496 781 2179 
C 781 3862 1843 4313 2464 4313 
C 3187 4313 3712 3681 3834 2785 
C 3846 2708 3846 2695 3904 2695 
C 3974 2695 3974 2708 3974 2824 
L 3974 4351 
C 3974 4467 3968 4473 3930 4473 
C 3904 4473 3898 4467 3853 4390 
L 3571 3849 
C 3258 4249 2874 4480 2381 4480 
C 1286 4480 294 3507 294 2179 
C 294 858 1267 -128 2394 -128 
C 2912 -128 3418 57 3616 425 
C 3725 161 3904 -20 3936 -20 
C 3968 -20 3974 -13 3974 102 
L 3974 1258 
z
" transform="scale(0.015625)"/>
     </defs>
     <use xlink:href="#CMR17-49" transform="scale(0.996264)"/>
     <use xlink:href="#CMR17-6c" transform="translate(32.638409 0) scale(0.996264)"/>
     <use xlink:href="#CMR17-6c" transform="translate(57.509468 0) scale(0.996264)"/>
     <use xlink:href="#CMR17-75" transform="translate(82.380526 0) scale(0.996264)"/>
     <use xlink:href="#CMR17-73" transform="translate(133.275896 0) scale(0.996264)"/>
     <use xlink:href="#CMR17-74" transform="translate(169.077234 0) scale(0.996264)"/>
     <use xlink:href="#CMR17-72" transform="translate(204.358001 0) scale(0.996264)"/>
     <use xlink:href="#CMR17-61" transform="translate(239.638769 0) scale(0.996264)"/>
     <use xlink:href="#CMR17-74" transform="translate(285.329246 0) scale(0.996264)"/>
     <use xlink:href="#CMR17-69" transform="translate(320.610014 0) scale(0.996264)"/>
     <use xlink:href="#CMR17-6f" transform="translate(345.481073 0) scale(0.996264)"/>
     <use xlink:href="#CMR17-6e" transform="translate(391.17155 0) scale(0.996264)"/>
     <use xlink:href="#CMR17-6f" transform="translate(472.142886 0) scale(0.996264)"/>
     <use xlink:href="#CMR17-66" transform="translate(517.833363 0) scale(0.996264)"/>
     <use xlink:href="#CMR17-53" transform="translate(575.382842 0) scale(0.996264)"/>
     <use xlink:href="#CMR17-74" transform="translate(626.278211 0) scale(0.996264)"/>
     <use xlink:href="#CMR17-6f" transform="translate(661.558979 0) scale(0.996264)"/>
     <use xlink:href="#CMR17-63" transform="translate(709.851895 0) scale(0.996264)"/>
     <use xlink:href="#CMR17-68" transform="translate(747.735102 0) scale(0.996264)"/>
     <use xlink:href="#CMR17-61" transform="translate(798.630471 0) scale(0.996264)"/>
     <use xlink:href="#CMR17-73" transform="translate(844.320949 0) scale(0.996264)"/>
     <use xlink:href="#CMR17-74" transform="translate(880.122286 0) scale(0.996264)"/>
     <use xlink:href="#CMR17-69" transform="translate(915.403054 0) scale(0.996264)"/>
     <use xlink:href="#CMR17-63" transform="translate(940.274112 0) scale(0.996264)"/>
     <use xlink:href="#CMR17-69" transform="translate(980.759773 0) scale(0.996264)"/>
     <use xlink:href="#CMR17-74" transform="translate(1005.630831 0) scale(0.996264)"/>
     <use xlink:href="#CMR17-79" transform="translate(1038.309145 0) scale(0.996264)"/>
     <use xlink:href="#CMR17-69" transform="translate(1116.678027 0) scale(0.996264)"/>
     <use xlink:href="#CMR17-6e" transform="translate(1141.549086 0) scale(0.996264)"/>
     <use xlink:href="#CMR17-53" transform="translate(1222.520422 0) scale(0.996264)"/>
     <use xlink:href="#CMR17-69" transform="translate(1273.415792 0) scale(0.996264)"/>
     <use xlink:href="#CMR17-67" transform="translate(1298.28685 0) scale(0.996264)"/>
     <use xlink:href="#CMR17-6e" transform="translate(1343.977327 0) scale(0.996264)"/>
     <use xlink:href="#CMR17-61" transform="translate(1394.872697 0) scale(0.996264)"/>
     <use xlink:href="#CMR17-6c" transform="translate(1440.563174 0) scale(0.996264)"/>
     <use xlink:href="#CMR17-47" transform="translate(1495.510199 0) scale(0.996264)"/>
     <use xlink:href="#CMR17-65" transform="translate(1567.865545 0) scale(0.996264)"/>
     <use xlink:href="#CMR17-6e" transform="translate(1608.351206 0) scale(0.996264)"/>
     <use xlink:href="#CMR17-65" transform="translate(1659.246575 0) scale(0.996264)"/>
     <use xlink:href="#CMR17-72" transform="translate(1699.732236 0) scale(0.996264)"/>
     <use xlink:href="#CMR17-61" transform="translate(1735.013004 0) scale(0.996264)"/>
     <use xlink:href="#CMR17-74" transform="translate(1780.703481 0) scale(0.996264)"/>
     <use xlink:href="#CMR17-69" transform="translate(1815.984249 0) scale(0.996264)"/>
     <use xlink:href="#CMR17-6f" transform="translate(1840.855307 0) scale(0.996264)"/>
     <use xlink:href="#CMR17-6e" transform="translate(1886.545784 0) scale(0.996264)"/>
    </g>
   </g>
  </g>
 </g>
 <defs>
  <clipPath id="p3919c4343e">
   <rect x="90" y="51.84" width="558" height="332.64"/>
  </clipPath>
 </defs>
</svg>
