<?xml version="1.0" encoding="utf-8" standalone="no"?>
<!DOCTYPE svg PUBLIC "-//W3C//DTD SVG 1.1//EN"
  "http://www.w3.org/Graphics/SVG/1.1/DTD/svg11.dtd">
<svg xmlns:xlink="http://www.w3.org/1999/xlink" width="720pt" height="432pt" viewBox="0 0 720 432" xmlns="http://www.w3.org/2000/svg" version="1.1">
 <metadata>
  <rdf:RDF xmlns:dc="http://purl.org/dc/elements/1.1/" xmlns:cc="http://creativecommons.org/ns#" xmlns:rdf="http://www.w3.org/1999/02/22-rdf-syntax-ns#">
   <cc:Work>
    <dc:type rdf:resource="http://purl.org/dc/dcmitype/StillImage"/>
    <dc:date>2025-06-12T13:53:59.663337</dc:date>
    <dc:format>image/svg+xml</dc:format>
    <dc:creator>
     <cc:Agent>
      <dc:title>Matplotlib v3.5.1, https://matplotlib.org/</dc:title>
     </cc:Agent>
    </dc:creator>
   </cc:Work>
  </rdf:RDF>
 </metadata>
 <defs>
  <style type="text/css">*{stroke-linejoin: round; stroke-linecap: butt}</style>
 </defs>
 <g id="figure_1">
  <g id="patch_1">
   <path d="M 0 432 
L 720 432 
L 720 0 
L 0 0 
z
" style="fill: #ffffff"/>
  </g>
  <g id="axes_1">
   <g id="patch_2">
    <path d="M 90 378 
L 648 378 
L 648 51.84 
L 90 51.84 
z
" style="fill: #ffffff"/>
   </g>
   <g id="matplotlib.axis_1">
    <g id="xtick_1">
     <g id="line2d_1">
      <path d="M 115.363636 378 
L 115.363636 51.84 
" clip-path="url(#p2e10d6ec9a)" style="fill: none; stroke: #cccccc; stroke-linecap: round"/>
     </g>
     <g id="text_1">
      <!-- $\mathdefault{0}$ -->
      <g style="fill: #262626" transform="translate(109.081196 406.525867)scale(0.275 -0.275)">
       <defs>
        <path id="CMR17-30" d="M 2688 2038 
C 2688 2430 2682 3099 2413 3613 
C 2176 4063 1798 4224 1466 4224 
C 1158 4224 768 4082 525 3620 
C 269 3137 243 2539 243 2038 
C 243 1671 250 1112 448 623 
C 723 -39 1216 -128 1466 -128 
C 1760 -128 2208 -7 2470 604 
C 2662 1048 2688 1568 2688 2038 
z
M 1466 -26 
C 1056 -26 813 328 723 816 
C 653 1196 653 1749 653 2109 
C 653 2604 653 3015 736 3407 
C 858 3954 1216 4121 1466 4121 
C 1728 4121 2067 3947 2189 3420 
C 2272 3054 2278 2623 2278 2109 
C 2278 1691 2278 1176 2202 797 
C 2067 96 1690 -26 1466 -26 
z
" transform="scale(0.015625)"/>
       </defs>
       <use xlink:href="#CMR17-30" transform="scale(0.996264)"/>
      </g>
     </g>
    </g>
    <g id="xtick_2">
     <g id="line2d_2">
      <path d="M 214.828877 378 
L 214.828877 51.84 
" clip-path="url(#p2e10d6ec9a)" style="fill: none; stroke: #cccccc; stroke-linecap: round"/>
     </g>
     <g id="text_2">
      <!-- $\mathdefault{50}$ -->
      <g style="fill: #262626" transform="translate(202.263996 406.525867)scale(0.275 -0.275)">
       <defs>
        <path id="CMR17-35" d="M 730 3750 
C 794 3724 1056 3641 1325 3641 
C 1920 3641 2246 3961 2432 4140 
C 2432 4191 2432 4224 2394 4224 
C 2387 4224 2374 4224 2323 4198 
C 2099 4102 1837 4032 1517 4032 
C 1325 4032 1037 4055 723 4191 
C 653 4224 640 4224 634 4224 
C 602 4224 595 4217 595 4090 
L 595 2231 
C 595 2113 595 2080 659 2080 
C 691 2080 704 2093 736 2139 
C 941 2435 1222 2560 1542 2560 
C 1766 2560 2246 2415 2246 1293 
C 2246 1087 2246 716 2054 422 
C 1894 159 1645 25 1370 25 
C 947 25 518 319 403 812 
C 429 806 480 793 506 793 
C 589 793 749 838 749 1036 
C 749 1209 627 1280 506 1280 
C 358 1280 262 1190 262 1011 
C 262 454 704 -128 1382 -128 
C 2042 -128 2669 441 2669 1267 
C 2669 2054 2170 2662 1549 2662 
C 1222 2662 947 2540 730 2304 
L 730 3750 
z
" transform="scale(0.015625)"/>
       </defs>
       <use xlink:href="#CMR17-35" transform="scale(0.996264)"/>
       <use xlink:href="#CMR17-30" transform="translate(45.690477 0)scale(0.996264)"/>
      </g>
     </g>
    </g>
    <g id="xtick_3">
     <g id="line2d_3">
      <path d="M 314.294118 378 
L 314.294118 51.84 
" clip-path="url(#p2e10d6ec9a)" style="fill: none; stroke: #cccccc; stroke-linecap: round"/>
     </g>
     <g id="text_3">
      <!-- $\mathdefault{100}$ -->
      <g style="fill: #262626" transform="translate(295.446796 406.525867)scale(0.275 -0.275)">
       <defs>
        <path id="CMR17-31" d="M 1702 4083 
C 1702 4217 1696 4224 1606 4224 
C 1357 3927 979 3833 621 3820 
C 602 3820 570 3820 563 3808 
C 557 3795 557 3782 557 3648 
C 755 3648 1088 3686 1344 3839 
L 1344 467 
C 1344 243 1331 166 781 166 
L 589 166 
L 589 0 
C 896 6 1216 12 1523 12 
C 1830 12 2150 6 2458 0 
L 2458 166 
L 2266 166 
C 1715 166 1702 236 1702 467 
L 1702 4083 
z
" transform="scale(0.015625)"/>
       </defs>
       <use xlink:href="#CMR17-31" transform="scale(0.996264)"/>
       <use xlink:href="#CMR17-30" transform="translate(45.690477 0)scale(0.996264)"/>
       <use xlink:href="#CMR17-30" transform="translate(91.380954 0)scale(0.996264)"/>
      </g>
     </g>
    </g>
    <g id="xtick_4">
     <g id="line2d_4">
      <path d="M 413.759358 378 
L 413.759358 51.84 
" clip-path="url(#p2e10d6ec9a)" style="fill: none; stroke: #cccccc; stroke-linecap: round"/>
     </g>
     <g id="text_4">
      <!-- $\mathdefault{150}$ -->
      <g style="fill: #262626" transform="translate(394.912036 406.525867)scale(0.275 -0.275)">
       <use xlink:href="#CMR17-31" transform="scale(0.996264)"/>
       <use xlink:href="#CMR17-35" transform="translate(45.690477 0)scale(0.996264)"/>
       <use xlink:href="#CMR17-30" transform="translate(91.380954 0)scale(0.996264)"/>
      </g>
     </g>
    </g>
    <g id="xtick_5">
     <g id="line2d_5">
      <path d="M 513.224599 378 
L 513.224599 51.84 
" clip-path="url(#p2e10d6ec9a)" style="fill: none; stroke: #cccccc; stroke-linecap: round"/>
     </g>
     <g id="text_5">
      <!-- $\mathdefault{200}$ -->
      <g style="fill: #262626" transform="translate(494.377277 406.525867)scale(0.275 -0.275)">
       <defs>
        <path id="CMR17-32" d="M 2669 990 
L 2554 990 
C 2490 537 2438 460 2413 422 
C 2381 371 1920 371 1830 371 
L 602 371 
C 832 620 1280 1073 1824 1596 
C 2214 1966 2669 2400 2669 3033 
C 2669 3788 2067 4224 1395 4224 
C 691 4224 262 3603 262 3027 
C 262 2777 448 2745 525 2745 
C 589 2745 781 2783 781 3007 
C 781 3206 614 3264 525 3264 
C 486 3264 448 3257 422 3244 
C 544 3788 915 4057 1306 4057 
C 1862 4057 2227 3616 2227 3033 
C 2227 2477 1901 1998 1536 1583 
L 262 147 
L 262 0 
L 2515 0 
L 2669 990 
z
" transform="scale(0.015625)"/>
       </defs>
       <use xlink:href="#CMR17-32" transform="scale(0.996264)"/>
       <use xlink:href="#CMR17-30" transform="translate(45.690477 0)scale(0.996264)"/>
       <use xlink:href="#CMR17-30" transform="translate(91.380954 0)scale(0.996264)"/>
      </g>
     </g>
    </g>
    <g id="xtick_6">
     <g id="line2d_6">
      <path d="M 612.68984 378 
L 612.68984 51.84 
" clip-path="url(#p2e10d6ec9a)" style="fill: none; stroke: #cccccc; stroke-linecap: round"/>
     </g>
     <g id="text_6">
      <!-- $\mathdefault{250}$ -->
      <g style="fill: #262626" transform="translate(593.842518 406.525867)scale(0.275 -0.275)">
       <use xlink:href="#CMR17-32" transform="scale(0.996264)"/>
       <use xlink:href="#CMR17-35" transform="translate(45.690477 0)scale(0.996264)"/>
       <use xlink:href="#CMR17-30" transform="translate(91.380954 0)scale(0.996264)"/>
      </g>
     </g>
    </g>
    <g id="text_7">
     <!-- Time -->
     <g style="fill: #262626" transform="translate(337.682086 436.610362)scale(0.3 -0.3)">
      <defs>
       <path id="CMR17-54" d="M 3981 4332 
L 288 4332 
L 179 2924 
L 294 2924 
C 378 3981 467 4166 1453 4166 
C 1568 4166 1754 4166 1805 4159 
C 1926 4140 1926 4064 1926 3917 
L 1926 465 
C 1926 236 1907 166 1376 166 
L 1197 166 
L 1197 0 
C 1504 6 1824 12 2138 12 
C 2451 12 2771 6 3078 0 
L 3078 166 
L 2899 166 
C 2368 166 2349 236 2349 465 
L 2349 3917 
C 2349 4057 2349 4134 2464 4159 
C 2515 4166 2701 4166 2816 4166 
C 3795 4166 3891 3981 3974 2924 
L 4090 2924 
L 3981 4332 
z
" transform="scale(0.015625)"/>
       <path id="CMR17-69" d="M 992 3961 
C 992 4102 877 4224 730 4224 
C 589 4224 467 4108 467 3961 
C 467 3820 582 3699 730 3699 
C 870 3699 992 3814 992 3961 
z
M 243 2745 
L 243 2579 
C 602 2579 653 2540 653 2231 
L 653 443 
C 653 198 627 166 218 166 
L 218 0 
C 371 12 646 12 806 12 
C 960 12 1222 12 1370 0 
L 1370 166 
C 992 166 979 205 979 436 
L 979 2816 
L 243 2745 
z
" transform="scale(0.015625)"/>
       <path id="CMR17-6d" d="M 4326 1954 
C 4326 2276 4269 2816 3507 2816 
C 3072 2816 2771 2520 2656 2173 
L 2650 2173 
C 2573 2700 2195 2816 1837 2816 
C 1331 2816 1069 2424 973 2166 
L 966 2166 
L 966 2816 
L 211 2745 
L 211 2578 
C 589 2578 646 2540 646 2231 
L 646 443 
C 646 198 621 166 211 166 
L 211 0 
C 365 12 646 12 813 12 
C 979 12 1267 12 1421 0 
L 1421 166 
C 1011 166 986 192 986 443 
L 986 1678 
C 986 2269 1344 2713 1792 2713 
C 2266 2713 2317 2289 2317 1980 
L 2317 443 
C 2317 198 2291 166 1882 166 
L 1882 0 
C 2035 12 2317 12 2483 12 
C 2650 12 2938 12 3091 0 
L 3091 166 
C 2682 166 2656 192 2656 443 
L 2656 1678 
C 2656 2269 3014 2713 3462 2713 
C 3936 2713 3987 2289 3987 1980 
L 3987 443 
C 3987 198 3962 166 3552 166 
L 3552 0 
C 3706 12 3987 12 4154 12 
C 4320 12 4608 12 4762 0 
L 4762 166 
C 4352 166 4326 192 4326 443 
L 4326 1954 
z
" transform="scale(0.015625)"/>
       <path id="CMR17-65" d="M 2438 1503 
C 2464 1529 2464 1542 2464 1606 
C 2464 2251 2118 2816 1389 2816 
C 710 2816 173 2175 173 1394 
C 173 554 781 -64 1459 -64 
C 2176 -64 2458 619 2458 755 
C 2458 800 2419 800 2406 800 
C 2362 800 2355 787 2330 709 
C 2189 270 1837 51 1504 51 
C 1229 51 954 206 781 490 
C 582 819 582 1200 582 1503 
L 2438 1503 
z
M 589 1600 
C 634 2511 1126 2713 1382 2713 
C 1818 2713 2112 2308 2118 1600 
L 589 1600 
z
" transform="scale(0.015625)"/>
      </defs>
      <use xlink:href="#CMR17-54" transform="scale(0.996264)"/>
      <use xlink:href="#CMR17-69" transform="translate(66.509881 0)scale(0.996264)"/>
      <use xlink:href="#CMR17-6d" transform="translate(91.380939 0)scale(0.996264)"/>
      <use xlink:href="#CMR17-65" transform="translate(168.300529 0)scale(0.996264)"/>
     </g>
    </g>
   </g>
   <g id="matplotlib.axis_2">
    <g id="ytick_1">
     <g id="line2d_7">
      <path d="M 90 318.046298 
L 648 318.046298 
" clip-path="url(#p2e10d6ec9a)" style="fill: none; stroke: #cccccc; stroke-linecap: round"/>
     </g>
     <g id="text_8">
      <!-- $\mathdefault{−1}$ -->
      <g style="fill: #262626" transform="translate(46.626066 327.559231)scale(0.275 -0.275)">
       <defs>
        <path id="CMSY10-0" d="M 4218 1472 
C 4326 1472 4442 1472 4442 1600 
C 4442 1728 4326 1728 4218 1728 
L 755 1728 
C 646 1728 531 1728 531 1600 
C 531 1472 646 1472 755 1472 
L 4218 1472 
z
" transform="scale(0.015625)"/>
       </defs>
       <use xlink:href="#CMSY10-0" transform="scale(0.996264)"/>
       <use xlink:href="#CMR17-31" transform="translate(77.487468 0)scale(0.996264)"/>
      </g>
     </g>
    </g>
    <g id="ytick_2">
     <g id="line2d_8">
      <path d="M 90 225.919552 
L 648 225.919552 
" clip-path="url(#p2e10d6ec9a)" style="fill: none; stroke: #cccccc; stroke-linecap: round"/>
     </g>
     <g id="text_9">
      <!-- $\mathdefault{0}$ -->
      <g style="fill: #262626" transform="translate(67.935119 235.432485)scale(0.275 -0.275)">
       <use xlink:href="#CMR17-30" transform="scale(0.996264)"/>
      </g>
     </g>
    </g>
    <g id="ytick_3">
     <g id="line2d_9">
      <path d="M 90 133.792805 
L 648 133.792805 
" clip-path="url(#p2e10d6ec9a)" style="fill: none; stroke: #cccccc; stroke-linecap: round"/>
     </g>
     <g id="text_10">
      <!-- $\mathdefault{1}$ -->
      <g style="fill: #262626" transform="translate(67.935119 143.305738)scale(0.275 -0.275)">
       <use xlink:href="#CMR17-31" transform="scale(0.996264)"/>
      </g>
     </g>
    </g>
    <g id="text_11">
     <!-- Amplitude -->
     <g style="fill: #262626" transform="translate(36.812616 278.547972)rotate(-90)scale(0.3 -0.3)">
      <defs>
       <path id="CMR17-41" d="M 2323 4441 
C 2291 4524 2278 4544 2214 4544 
C 2150 4544 2138 4524 2106 4441 
L 749 580 
C 627 236 371 166 147 166 
L 147 0 
C 262 12 518 12 640 12 
C 800 12 1056 12 1210 0 
L 1210 166 
C 909 179 864 382 864 459 
C 864 516 877 548 890 586 
L 1229 1536 
L 2906 1536 
L 3290 453 
C 3322 376 3322 363 3322 338 
C 3322 166 3046 166 2925 166 
L 2925 0 
C 3110 12 3443 12 3642 12 
C 3808 12 4128 12 4282 0 
L 4282 166 
C 3942 166 3827 166 3744 402 
L 2323 4441 
z
M 2067 3924 
L 2848 1702 
L 1286 1702 
L 2067 3924 
z
" transform="scale(0.015625)"/>
       <path id="CMR17-70" d="M 1408 -1114 
C 998 -1114 973 -1088 973 -834 
L 973 380 
C 1158 109 1427 -64 1766 -64 
C 2406 -64 3053 503 3053 1382 
C 3053 2196 2496 2816 1837 2816 
C 1453 2816 1139 2603 960 2345 
L 960 2816 
L 198 2745 
L 198 2577 
C 576 2577 634 2539 634 2228 
L 634 -834 
C 634 -1081 608 -1114 198 -1114 
L 198 -1280 
C 352 -1268 634 -1268 800 -1268 
C 966 -1268 1254 -1268 1408 -1280 
L 1408 -1114 
z
M 973 2015 
C 973 2106 973 2241 1222 2481 
C 1254 2506 1472 2700 1792 2700 
C 2259 2700 2643 2112 2643 1376 
C 2643 639 2234 38 1728 38 
C 1498 38 1248 148 1056 451 
C 973 594 973 632 973 736 
L 973 2015 
z
" transform="scale(0.015625)"/>
       <path id="CMR17-6c" d="M 979 4416 
L 218 4345 
L 218 4179 
C 595 4179 653 4141 653 3835 
L 653 439 
C 653 198 627 166 218 166 
L 218 0 
C 371 12 653 12 813 12 
C 979 12 1261 12 1414 0 
L 1414 166 
C 1005 166 979 191 979 439 
L 979 4416 
z
" transform="scale(0.015625)"/>
       <path id="CMR17-74" d="M 966 2585 
L 1862 2585 
L 1862 2752 
L 966 2752 
L 966 3968 
L 851 3968 
C 838 3292 614 2700 70 2687 
L 70 2585 
L 627 2585 
L 627 778 
C 627 655 627 -64 1370 -64 
C 1747 -64 1965 308 1965 784 
L 1965 1151 
L 1850 1151 
L 1850 790 
C 1850 347 1677 51 1408 51 
C 1222 51 966 179 966 765 
L 966 2585 
z
" transform="scale(0.015625)"/>
       <path id="CMR17-75" d="M 1882 2745 
L 1882 2579 
C 2259 2579 2317 2540 2317 2229 
L 2317 1053 
C 2317 510 2029 38 1555 38 
C 1030 38 986 355 986 691 
L 986 2816 
L 211 2745 
L 211 2579 
C 467 2579 640 2579 646 2320 
L 646 1079 
C 646 646 646 368 813 187 
C 896 103 1056 -64 1517 -64 
C 2061 -64 2272 400 2323 536 
L 2330 536 
L 2330 -64 
L 3091 -13 
L 3091 154 
C 2714 154 2656 193 2656 503 
L 2656 2816 
L 1882 2745 
z
" transform="scale(0.015625)"/>
       <path id="CMR17-64" d="M 1869 4345 
L 1869 4179 
C 2246 4179 2304 4141 2304 3843 
L 2304 2371 
C 2278 2403 2016 2816 1498 2816 
C 845 2816 211 2228 211 1376 
C 211 529 806 -64 1434 -64 
C 1978 -64 2259 361 2291 406 
L 2291 -64 
L 3066 -13 
L 3066 154 
C 2688 154 2630 193 2630 503 
L 2630 4416 
L 1869 4345 
z
M 2291 762 
C 2291 568 2176 393 2029 264 
C 1811 70 1594 38 1472 38 
C 1286 38 621 135 621 1369 
C 621 2636 1363 2713 1530 2713 
C 1824 2713 2061 2545 2208 2313 
C 2291 2177 2291 2157 2291 2041 
L 2291 762 
z
" transform="scale(0.015625)"/>
      </defs>
      <use xlink:href="#CMR17-41" transform="scale(0.996264)"/>
      <use xlink:href="#CMR17-6d" transform="translate(69.07243 0)scale(0.996264)"/>
      <use xlink:href="#CMR17-70" transform="translate(145.99202 0)scale(0.996264)"/>
      <use xlink:href="#CMR17-6c" transform="translate(196.887389 0)scale(0.996264)"/>
      <use xlink:href="#CMR17-69" transform="translate(221.758448 0)scale(0.996264)"/>
      <use xlink:href="#CMR17-74" transform="translate(246.629506 0)scale(0.996264)"/>
      <use xlink:href="#CMR17-75" transform="translate(281.910274 0)scale(0.996264)"/>
      <use xlink:href="#CMR17-64" transform="translate(332.805644 0)scale(0.996264)"/>
      <use xlink:href="#CMR17-65" transform="translate(383.701014 0)scale(0.996264)"/>
     </g>
    </g>
   </g>
   <g id="line2d_10">
    <path d="M 115.363636 225.919552 
L 123.320856 225.919552 
L 125.31016 106.123229 
L 240.68984 225.919552 
L 246.657754 225.919552 
L 248.647059 83.837259 
L 342.144385 83.837259 
L 344.13369 225.919552 
L 369.994652 225.919552 
L 371.983957 136.382955 
L 373.973262 137.31258 
L 375.962567 140.082153 
L 377.951872 144.634162 
L 379.941176 150.874083 
L 381.930481 158.672344 
L 383.919786 167.867011 
L 385.909091 178.267154 
L 387.898396 189.656811 
L 391.877005 214.442997 
L 397.84492 252.734074 
L 399.834225 264.733849 
L 401.823529 275.927635 
L 403.812834 286.08299 
L 405.802139 294.989035 
L 407.791444 302.460834 
L 409.780749 308.343233 
L 411.770053 312.514082 
L 413.759358 314.886773 
L 415.748663 315.412037 
L 417.737968 314.078965 
L 419.727273 310.91524 
L 421.716578 305.986556 
L 423.705882 299.395261 
L 425.695187 291.278222 
L 427.684492 281.803994 
L 429.673797 271.169311 
L 431.663102 259.595004 
L 435.641711 234.603416 
L 441.609626 196.437005 
L 443.59893 184.591942 
L 445.588235 173.605058 
L 447.57754 163.704498 
L 449.566845 155.09585 
L 451.55615 225.919552 
L 495.320856 225.919552 
L 584.839572 122.353117 
L 586.828877 225.919552 
L 622.636364 225.919552 
L 622.636364 225.919552 
" clip-path="url(#p2e10d6ec9a)" style="fill: none; stroke: #4c72b0; stroke-width: 3; stroke-linecap: round"/>
   </g>
   <g id="line2d_11">
    <path d="M 115.363636 225.919552 
L 123.320856 225.919552 
L 125.31016 127.521728 
L 218.807487 225.919552 
L 248.647059 225.919552 
L 294.40107 96.165029 
L 296.390374 96.165029 
L 342.144385 225.919552 
L 369.994652 225.919552 
L 371.983957 131.473791 
L 373.973262 131.549481 
L 375.962567 131.776431 
L 377.951872 132.154276 
L 379.941176 132.682411 
L 381.930481 133.359989 
L 383.919786 134.185925 
L 385.909091 135.158894 
L 387.898396 136.277337 
L 389.887701 137.539461 
L 391.877005 138.943244 
L 395.855615 142.166561 
L 399.834225 145.926631 
L 403.812834 150.199355 
L 407.791444 154.957352 
L 411.770053 160.170128 
L 415.748663 165.804276 
L 419.727273 171.823688 
L 423.705882 178.189787 
L 429.673797 188.299183 
L 435.641711 198.950691 
L 443.59893 213.729848 
L 463.491979 251.198009 
L 469.459893 261.92 
L 475.427807 272.123222 
L 477.417112 225.919552 
L 493.331551 225.919552 
L 495.320856 158.621885 
L 596.775401 158.621885 
L 598.764706 225.919552 
L 622.636364 225.919552 
L 622.636364 225.919552 
" clip-path="url(#p2e10d6ec9a)" style="fill: none; stroke: #dd8452; stroke-width: 3; stroke-linecap: round"/>
   </g>
   <g id="line2d_12">
    <path d="M 115.363636 225.919552 
L 123.320856 225.919552 
L 125.31016 182.571789 
L 218.807487 182.571789 
L 220.796791 225.919552 
L 248.647059 225.919552 
L 296.390374 145.763905 
L 298.379679 145.763905 
L 346.122995 225.919552 
L 369.994652 225.919552 
L 371.983957 129.64238 
L 375.962567 129.759125 
L 379.941176 130.109075 
L 383.919786 130.691382 
L 387.898396 131.504634 
L 391.877005 132.546859 
L 395.855615 133.815529 
L 399.834225 135.307567 
L 403.812834 137.019355 
L 407.791444 138.946741 
L 411.770053 141.085052 
L 415.748663 143.429101 
L 419.727273 145.973203 
L 423.705882 148.71119 
L 429.673797 153.167052 
L 435.641711 158.019798 
L 441.609626 163.242955 
L 447.57754 168.808029 
L 453.545455 174.684662 
L 457.524064 178.759739 
L 459.513369 225.919552 
L 495.320856 225.919552 
L 501.28877 205.359206 
L 505.26738 192.588873 
L 507.256684 186.684686 
L 509.245989 181.183101 
L 511.235294 176.140574 
L 513.224599 171.608846 
L 515.213904 167.634419 
L 517.203209 164.258076 
L 519.192513 161.514464 
L 521.181818 159.431735 
L 523.171123 158.031262 
L 525.160428 157.327413 
L 527.149733 157.327413 
L 529.139037 158.031262 
L 531.128342 159.431735 
L 533.117647 161.514464 
L 535.106952 164.258076 
L 537.096257 167.634419 
L 539.085561 171.608846 
L 541.074866 176.140574 
L 543.064171 181.183101 
L 545.053476 186.684686 
L 549.032086 198.835078 
L 553.010695 212.094311 
L 556.989305 225.919552 
L 622.636364 225.919552 
L 622.636364 225.919552 
" clip-path="url(#p2e10d6ec9a)" style="fill: none; stroke: #55a868; stroke-width: 3; stroke-linecap: round"/>
   </g>
   <g id="line2d_13">
    <path d="M 115.363636 225.919552 
L 123.320856 225.919552 
L 125.31016 204.412171 
L 242.679144 204.412171 
L 244.668449 225.919552 
L 248.647059 225.919552 
L 256.604278 202.852138 
L 262.572193 186.274595 
L 266.550802 175.839338 
L 270.529412 166.056952 
L 274.508021 157.054967 
L 278.486631 148.950737 
L 280.475936 145.268792 
L 282.465241 141.849913 
L 284.454545 138.705252 
L 286.44385 135.845065 
L 288.433155 133.278683 
L 290.42246 131.014477 
L 292.411765 129.05983 
L 294.40107 127.421121 
L 296.390374 126.103692 
L 298.379679 125.111842 
L 300.368984 124.448806 
L 302.358289 124.116747 
L 304.347594 124.116747 
L 306.336898 124.448806 
L 308.326203 125.111842 
L 310.315508 126.103692 
L 312.304813 127.421121 
L 314.294118 129.05983 
L 316.283422 131.014477 
L 318.272727 133.278683 
L 320.262032 135.845065 
L 322.251337 138.705252 
L 324.240642 141.849913 
L 326.229947 145.268792 
L 328.219251 148.950737 
L 332.197861 157.054967 
L 336.176471 166.056952 
L 340.15508 175.839338 
L 344.13369 186.274595 
L 350.101604 202.852138 
L 358.058824 225.919552 
L 371.983957 225.919552 
L 489.352941 122.407534 
L 491.342246 225.919552 
L 495.320856 225.919552 
L 549.032086 139.278812 
L 551.02139 139.278812 
L 604.73262 225.919552 
L 622.636364 225.919552 
L 622.636364 225.919552 
" clip-path="url(#p2e10d6ec9a)" style="fill: none; stroke: #c44e52; stroke-width: 3; stroke-linecap: round"/>
   </g>
   <g id="line2d_14">
    <path d="M 115.363636 225.919552 
L 125.31016 225.919552 
L 186.97861 153.75239 
L 188.967914 225.919552 
L 246.657754 225.919552 
L 248.647059 196.834294 
L 326.229947 196.834294 
L 328.219251 225.919552 
L 371.983957 225.919552 
L 381.930481 204.453726 
L 387.898396 192.206689 
L 391.877005 184.500474 
L 395.855615 177.263554 
L 399.834225 170.577926 
L 403.812834 164.519341 
L 407.791444 159.156444 
L 409.780749 156.755196 
L 411.770053 154.550001 
L 413.759358 152.547111 
L 415.748663 150.752203 
L 417.737968 149.170365 
L 419.727273 147.806081 
L 421.716578 146.663218 
L 423.705882 145.745015 
L 425.695187 145.054077 
L 427.684492 144.59236 
L 429.673797 144.361174 
L 431.663102 144.361174 
L 433.652406 144.59236 
L 435.641711 145.054077 
L 437.631016 145.745015 
L 439.620321 146.663218 
L 441.609626 147.806081 
L 443.59893 149.170365 
L 445.588235 150.752203 
L 447.57754 152.547111 
L 449.566845 154.550001 
L 451.55615 156.755196 
L 453.545455 159.156444 
L 457.524064 164.519341 
L 461.502674 170.577926 
L 465.481283 177.263554 
L 469.459893 184.500474 
L 473.438503 192.206689 
L 479.406417 204.453726 
L 487.363636 221.577298 
L 489.352941 225.919552 
L 495.320856 225.919552 
L 547.042781 108.506093 
L 549.032086 108.506093 
L 600.754011 225.919552 
L 622.636364 225.919552 
L 622.636364 225.919552 
" clip-path="url(#p2e10d6ec9a)" style="fill: none; stroke: #8172b3; stroke-width: 3; stroke-linecap: round"/>
   </g>
   <g id="line2d_15">
    <path d="M 115.363636 225.919552 
L 125.31016 225.919552 
L 133.26738 206.182136 
L 139.235294 192.071003 
L 143.213904 183.252427 
L 147.192513 175.056034 
L 151.171123 167.601346 
L 153.160428 164.186579 
L 155.149733 160.997069 
L 157.139037 158.044453 
L 159.128342 155.339507 
L 161.117647 152.8921 
L 163.106952 150.711161 
L 165.096257 148.804651 
L 167.085561 147.179524 
L 169.074866 145.84171 
L 171.064171 144.796093 
L 173.053476 144.046486 
L 175.042781 143.595624 
L 177.032086 143.445154 
L 179.02139 143.595624 
L 181.010695 144.046486 
L 183 144.796093 
L 184.989305 145.84171 
L 186.97861 147.179524 
L 188.967914 148.804651 
L 190.957219 150.711161 
L 192.946524 152.8921 
L 194.935829 155.339507 
L 196.925134 158.044453 
L 198.914439 160.997069 
L 200.903743 164.186579 
L 204.882353 171.22891 
L 208.860963 179.068754 
L 212.839572 187.591788 
L 216.818182 196.673727 
L 222.786096 211.053126 
L 228.754011 225.919552 
L 246.657754 225.919552 
L 248.647059 136.585965 
L 344.13369 225.919552 
L 371.983957 225.919552 
L 431.663102 127.071979 
L 433.652406 127.071979 
L 493.331551 225.919552 
L 495.320856 193.490757 
L 562.957219 193.490757 
L 564.946524 225.919552 
L 622.636364 225.919552 
L 622.636364 225.919552 
" clip-path="url(#p2e10d6ec9a)" style="fill: none; stroke: #937860; stroke-width: 3; stroke-linecap: round"/>
   </g>
   <g id="line2d_16">
    <path d="M 115.363636 225.919552 
L 125.31016 225.919552 
L 224.775401 130.115431 
L 226.764706 225.919552 
L 248.647059 225.919552 
L 258.593583 194.938534 
L 264.561497 177.294454 
L 268.540107 166.216033 
L 272.518717 155.837581 
L 276.497326 146.280777 
L 280.475936 137.657664 
L 282.465241 133.728296 
L 284.454545 130.069341 
L 286.44385 126.691531 
L 288.433155 123.604775 
L 290.42246 120.818125 
L 292.411765 118.339755 
L 294.40107 116.176936 
L 296.390374 114.33601 
L 298.379679 112.822379 
L 300.368984 111.640481 
L 302.358289 110.793783 
L 304.347594 110.284769 
L 306.336898 110.114931 
L 308.326203 110.284769 
L 310.315508 110.793783 
L 312.304813 111.640481 
L 314.294118 112.822379 
L 316.283422 114.33601 
L 318.272727 116.176936 
L 320.262032 118.339755 
L 322.251337 120.818125 
L 324.240642 123.604775 
L 326.229947 126.691531 
L 328.219251 130.069341 
L 330.208556 133.728296 
L 332.197861 137.657664 
L 336.176471 146.280777 
L 340.15508 155.837581 
L 344.13369 166.216033 
L 348.112299 177.294454 
L 352.090909 188.942959 
L 358.058824 207.184449 
L 364.026738 225.919552 
L 371.983957 225.919552 
L 415.748663 125.917613 
L 417.737968 125.917613 
L 461.502674 225.919552 
L 493.331551 225.919552 
L 495.320856 117.32657 
L 497.31016 118.010331 
L 499.299465 120.053003 
L 501.28877 123.428863 
L 503.278075 128.095398 
L 505.26738 133.993842 
L 507.256684 141.049915 
L 509.245989 149.17476 
L 511.235294 158.266059 
L 513.224599 168.209325 
L 517.203209 190.141741 
L 521.181818 213.870696 
L 529.139037 261.921761 
L 533.117647 283.831045 
L 535.106952 293.758862 
L 537.096257 302.832372 
L 539.085561 310.937312 
L 541.074866 317.971615 
L 543.064171 323.846698 
L 545.053476 328.488574 
L 547.042781 331.838789 
L 549.032086 333.855153 
L 551.02139 334.512273 
L 553.010695 333.801874 
L 555 331.732904 
L 556.989305 328.331415 
L 558.97861 323.640244 
L 560.967914 317.718467 
L 562.957219 310.640657 
L 564.946524 302.495947 
L 566.935829 293.386902 
L 568.925134 283.428234 
L 572.903743 261.472793 
L 576.882353 237.732088 
L 584.839572 189.693116 
L 586.828877 178.451206 
L 588.818182 225.919552 
L 622.636364 225.919552 
L 622.636364 225.919552 
" clip-path="url(#p2e10d6ec9a)" style="fill: none; stroke: #da8bc3; stroke-width: 3; stroke-linecap: round"/>
   </g>
   <g id="line2d_17">
    <path d="M 115.363636 225.919552 
L 123.320856 225.919552 
L 125.31016 123.160717 
L 127.299465 123.249884 
L 129.28877 123.517231 
L 131.278075 123.962293 
L 133.26738 124.584298 
L 135.256684 125.382167 
L 137.245989 126.354515 
L 139.235294 127.499655 
L 141.224599 128.815599 
L 143.213904 130.300063 
L 145.203209 131.950471 
L 147.192513 133.76396 
L 151.171123 137.86731 
L 155.149733 142.581641 
L 159.128342 147.87424 
L 163.106952 153.708384 
L 167.085561 160.04359 
L 171.064171 166.835899 
L 175.042781 174.03818 
L 179.02139 181.600458 
L 184.989305 193.50349 
L 190.957219 205.912248 
L 200.903743 227.18925 
L 210.850267 248.411355 
L 216.818182 260.735265 
L 222.786096 272.516012 
L 226.764706 279.976887 
L 230.743316 287.062667 
L 234.721925 293.724184 
L 236.71123 296.881276 
L 238.700535 225.919552 
L 248.647059 225.919552 
L 330.208556 103.652882 
L 332.197861 225.919552 
L 371.983957 225.919552 
L 423.705882 167.316029 
L 425.695187 167.316029 
L 477.417112 225.919552 
L 495.320856 225.919552 
L 503.278075 203.21965 
L 509.245989 186.932765 
L 513.224599 176.703725 
L 517.203209 167.140244 
L 521.181818 158.371653 
L 525.160428 150.516531 
L 527.149733 146.96524 
L 529.139037 143.681105 
L 531.128342 140.675239 
L 533.117647 137.957814 
L 535.106952 135.538022 
L 537.096257 133.424054 
L 539.085561 131.62306 
L 541.074866 130.141136 
L 543.064171 128.983297 
L 545.053476 128.153458 
L 547.042781 127.654429 
L 549.032086 127.487899 
L 551.02139 127.654429 
L 553.010695 128.153458 
L 555 128.983297 
L 556.989305 130.141136 
L 558.97861 131.62306 
L 560.967914 133.424054 
L 562.957219 135.538022 
L 564.946524 137.957814 
L 566.935829 140.675239 
L 568.925134 143.681105 
L 570.914439 146.96524 
L 572.903743 150.516531 
L 574.893048 154.322962 
L 578.871658 162.648905 
L 582.850267 171.830474 
L 586.828877 181.743506 
L 590.807487 192.253943 
L 596.775401 208.827074 
L 602.743316 225.919552 
L 622.636364 225.919552 
L 622.636364 225.919552 
" clip-path="url(#p2e10d6ec9a)" style="fill: none; stroke: #8c8c8c; stroke-width: 3; stroke-linecap: round"/>
   </g>
   <g id="line2d_18">
    <path d="M 115.363636 225.919552 
L 123.320856 225.919552 
L 125.31016 66.665455 
L 214.828877 66.665455 
L 216.818182 225.919552 
L 246.657754 225.919552 
L 248.647059 104.575617 
L 250.636364 105.013626 
L 252.625668 106.324491 
L 254.614973 108.498749 
L 256.604278 111.520703 
L 258.593583 115.368537 
L 260.582888 120.014471 
L 262.572193 125.424966 
L 264.561497 131.560961 
L 266.550802 138.37816 
L 268.540107 145.827346 
L 270.529412 153.854741 
L 274.508021 171.408597 
L 278.486631 190.533735 
L 284.454545 220.953171 
L 292.411765 261.666511 
L 296.390374 280.767715 
L 300.368984 298.287916 
L 302.358289 306.295132 
L 304.347594 313.722093 
L 306.336898 320.515181 
L 308.326203 326.625355 
L 310.315508 332.008503 
L 312.304813 336.625764 
L 314.294118 340.443803 
L 316.283422 343.435057 
L 318.272727 345.577932 
L 320.262032 346.856957 
L 322.251337 347.262898 
L 324.240642 346.792826 
L 326.229947 345.450133 
L 328.219251 343.244513 
L 330.208556 340.191888 
L 332.197861 336.314298 
L 334.187166 331.639735 
L 336.176471 326.201946 
L 338.165775 320.040188 
L 340.15508 313.198946 
L 342.144385 305.727607 
L 344.13369 297.68011 
L 348.112299 280.09277 
L 352.090909 260.943883 
L 354.080214 225.919552 
L 371.983957 225.919552 
L 439.620321 111.627294 
L 441.609626 225.919552 
L 495.320856 225.919552 
L 505.26738 206.48063 
L 511.235294 195.371097 
L 515.213904 188.366438 
L 519.192513 181.773219 
L 523.171123 175.663677 
L 527.149733 170.104748 
L 531.128342 165.157338 
L 533.117647 162.93017 
L 535.106952 160.875652 
L 537.096257 158.999414 
L 539.085561 157.3066 
L 541.074866 155.801849 
L 543.064171 154.489286 
L 545.053476 153.372508 
L 547.042781 152.454576 
L 549.032086 151.738007 
L 551.02139 151.224765 
L 553.010695 150.916256 
L 555 150.813325 
L 556.989305 150.916256 
L 558.97861 151.224765 
L 560.967914 151.738007 
L 562.957219 152.454576 
L 564.946524 153.372508 
L 566.935829 154.489286 
L 568.925134 155.801849 
L 570.914439 157.3066 
L 572.903743 158.999414 
L 574.893048 160.875652 
L 576.882353 162.93017 
L 580.860963 167.551051 
L 584.839572 172.81143 
L 588.818182 178.653672 
L 592.796791 185.013769 
L 596.775401 191.822038 
L 600.754011 199.003887 
L 606.721925 210.304089 
L 614.679144 225.919552 
L 622.636364 225.919552 
L 622.636364 225.919552 
" clip-path="url(#p2e10d6ec9a)" style="fill: none; stroke: #ccb974; stroke-width: 3; stroke-linecap: round"/>
   </g>
   <g id="line2d_19">
    <path d="M 115.363636 225.919552 
L 125.31016 225.919552 
L 175.042781 105.834815 
L 177.032086 105.834815 
L 226.764706 225.919552 
L 246.657754 225.919552 
L 248.647059 195.079684 
L 350.101604 195.079684 
L 352.090909 225.919552 
L 369.994652 225.919552 
L 371.983957 118.360614 
L 437.631016 225.919552 
L 493.331551 225.919552 
L 495.320856 132.78548 
L 533.117647 132.894809 
L 570.914439 133.222539 
L 572.903743 225.919552 
L 622.636364 225.919552 
L 622.636364 225.919552 
" clip-path="url(#p2e10d6ec9a)" style="fill: none; stroke: #64b5cd; stroke-width: 3; stroke-linecap: round"/>
   </g>
   <g id="line2d_20">
    <path d="M 115.363636 225.919552 
L 125.31016 225.919552 
L 188.967914 136.977872 
L 190.957219 225.919552 
L 246.657754 225.919552 
L 248.647059 104.260192 
L 350.101604 104.260192 
L 352.090909 225.919552 
L 369.994652 225.919552 
L 371.983957 100.15051 
L 373.973262 100.988068 
L 375.962567 103.489588 
L 377.951872 107.621752 
L 379.941176 113.329524 
L 381.930481 120.536881 
L 383.919786 129.147829 
L 385.909091 139.047679 
L 387.898396 150.104575 
L 389.887701 162.17125 
L 393.86631 188.679765 
L 399.834225 231.679375 
L 403.812834 260.284372 
L 407.791444 287.064647 
L 409.780749 299.320237 
L 411.770053 310.598204 
L 413.759358 320.748336 
L 415.748663 329.635445 
L 417.737968 337.141162 
L 419.727273 343.16552 
L 421.716578 347.628279 
L 423.705882 350.470001 
L 425.695187 351.652836 
L 427.684492 351.16103 
L 429.673797 349.001134 
L 431.663102 345.201915 
L 433.652406 339.813976 
L 435.641711 332.909077 
L 437.631016 324.579185 
L 439.620321 314.935247 
L 441.609626 304.105709 
L 443.59893 292.23481 
L 447.57754 266.013128 
L 451.55615 237.662534 
L 457.524064 194.449237 
L 461.502674 167.412431 
L 463.491979 225.919552 
L 493.331551 225.919552 
L 495.320856 159.730301 
L 594.786096 225.919552 
L 622.636364 225.919552 
L 622.636364 225.919552 
" clip-path="url(#p2e10d6ec9a)" style="fill: none; stroke: #4c72b0; stroke-width: 3; stroke-linecap: round"/>
   </g>
   <g id="line2d_21">
    <path d="M 115.363636 225.919552 
L 125.31016 225.919552 
L 167.085561 133.490926 
L 169.074866 133.490926 
L 210.850267 225.919552 
L 246.657754 225.919552 
L 248.647059 163.469439 
L 332.197861 225.919552 
L 371.983957 225.919552 
L 379.941176 209.023454 
L 385.909091 196.921605 
L 389.887701 189.339296 
L 393.86631 182.270493 
L 397.84492 175.814428 
L 401.823529 170.061728 
L 403.812834 167.474795 
L 405.802139 165.09315 
L 407.791444 162.925161 
L 409.780749 160.978442 
L 411.770053 159.25983 
L 413.759358 157.775364 
L 415.748663 156.530256 
L 417.737968 155.528881 
L 419.727273 154.774755 
L 421.716578 154.270529 
L 423.705882 154.017972 
L 425.695187 154.017972 
L 427.684492 154.270529 
L 429.673797 154.774755 
L 431.663102 155.528881 
L 433.652406 156.530256 
L 435.641711 157.775364 
L 437.631016 159.25983 
L 439.620321 160.978442 
L 441.609626 162.925161 
L 443.59893 165.09315 
L 445.588235 167.474795 
L 447.57754 170.061728 
L 451.55615 175.814428 
L 455.534759 182.270493 
L 459.513369 189.339296 
L 463.491979 196.921605 
L 467.470588 204.910982 
L 473.438503 217.411787 
L 477.417112 225.919552 
L 495.320856 225.919552 
L 590.807487 119.722564 
L 592.796791 225.919552 
L 622.636364 225.919552 
L 622.636364 225.919552 
" clip-path="url(#p2e10d6ec9a)" style="fill: none; stroke: #dd8452; stroke-width: 3; stroke-linecap: round"/>
   </g>
   <g id="line2d_22">
    <path d="M 115.363636 225.919552 
L 123.320856 225.919552 
L 125.31016 88.647664 
L 127.299465 89.075062 
L 129.28877 90.354596 
L 131.278075 92.478296 
L 133.26738 95.43294 
L 135.256684 99.200128 
L 137.245989 103.756402 
L 139.235294 109.07339 
L 141.224599 115.117983 
L 143.213904 121.85254 
L 145.203209 129.235126 
L 147.192513 137.21977 
L 149.181818 145.75675 
L 153.160428 164.27197 
L 157.139037 184.320325 
L 163.106952 216.169434 
L 171.064171 259.16784 
L 175.042781 279.692243 
L 179.02139 298.879355 
L 183 316.252003 
L 184.989305 324.120824 
L 186.97861 331.378142 
L 188.967914 337.978766 
L 190.957219 343.881593 
L 192.946524 349.049868 
L 194.935829 353.451406 
L 196.925134 357.058798 
L 198.914439 359.849583 
L 200.903743 361.806381 
L 202.893048 362.917007 
L 204.882353 363.174545 
L 206.871658 362.577393 
L 208.860963 361.129267 
L 210.850267 358.839186 
L 212.839572 355.721411 
L 214.828877 351.795355 
L 216.818182 347.085466 
L 218.807487 341.621073 
L 220.796791 335.436203 
L 222.786096 225.919552 
L 248.647059 225.919552 
L 330.208556 132.200132 
L 332.197861 225.919552 
L 369.994652 225.919552 
L 371.983957 71.59 
L 485.374332 71.59 
L 487.363636 225.919552 
L 493.331551 225.919552 
L 495.320856 116.457888 
L 568.925134 225.919552 
L 622.636364 225.919552 
L 622.636364 225.919552 
" clip-path="url(#p2e10d6ec9a)" style="fill: none; stroke: #55a868; stroke-width: 3; stroke-linecap: round"/>
   </g>
   <g id="line2d_23">
    <path d="M 115.363636 225.919552 
L 125.31016 225.919552 
L 159.128342 73.791301 
L 161.117647 73.791301 
L 194.935829 225.919552 
L 246.657754 225.919552 
L 248.647059 138.206029 
L 254.614973 138.325843 
L 260.582888 138.684958 
L 266.550802 139.282394 
L 272.518717 140.116517 
L 278.486631 141.185049 
L 284.454545 142.485072 
L 290.42246 144.013032 
L 296.390374 145.764757 
L 302.358289 147.73546 
L 308.326203 149.919758 
L 314.294118 152.311683 
L 320.262032 154.9047 
L 326.229947 157.691727 
L 334.187166 161.696319 
L 342.144385 166.012775 
L 350.101604 170.620133 
L 358.058824 175.496022 
L 364.026738 179.314965 
L 366.016043 225.919552 
L 369.994652 225.919552 
L 371.983957 135.962992 
L 483.385027 225.919552 
L 495.320856 225.919552 
L 503.278075 200.212685 
L 507.256684 188.045599 
L 511.235294 176.68573 
L 515.213904 166.375195 
L 517.203209 161.683105 
L 519.192513 157.333744 
L 521.181818 153.350319 
L 523.171123 149.754081 
L 525.160428 146.564219 
L 527.149733 143.797753 
L 529.139037 141.469441 
L 531.128342 139.591708 
L 533.117647 138.174571 
L 535.106952 137.225591 
L 537.096257 136.749832 
L 539.085561 136.749832 
L 541.074866 137.225591 
L 543.064171 138.174571 
L 545.053476 139.591708 
L 547.042781 141.469441 
L 549.032086 143.797753 
L 551.02139 146.564219 
L 553.010695 149.754081 
L 555 153.350319 
L 556.989305 157.333744 
L 558.97861 161.683105 
L 560.967914 166.375195 
L 564.946524 176.68573 
L 568.925134 188.045599 
L 572.903743 200.212685 
L 578.871658 219.406234 
L 580.860963 225.919552 
L 622.636364 225.919552 
L 622.636364 225.919552 
" clip-path="url(#p2e10d6ec9a)" style="fill: none; stroke: #c44e52; stroke-width: 3; stroke-linecap: round"/>
   </g>
   <g id="line2d_24">
    <path d="M 115.363636 225.919552 
L 125.31016 225.919552 
L 171.064171 135.522155 
L 173.053476 135.522155 
L 218.807487 225.919552 
L 246.657754 225.919552 
L 248.647059 148.836365 
L 332.197861 225.919552 
L 369.994652 225.919552 
L 371.983957 91.80374 
L 485.374332 91.80374 
L 487.363636 225.919552 
L 495.320856 225.919552 
L 560.967914 169.327202 
L 562.957219 225.919552 
L 622.636364 225.919552 
L 622.636364 225.919552 
" clip-path="url(#p2e10d6ec9a)" style="fill: none; stroke: #8172b3; stroke-width: 3; stroke-linecap: round"/>
   </g>
   <g id="line2d_25">
    <path d="M 115.363636 225.919552 
L 125.31016 225.919552 
L 131.278075 202.720468 
L 135.256684 187.958181 
L 139.235294 174.231381 
L 141.224599 167.874687 
L 143.213904 161.914499 
L 145.203209 156.39153 
L 147.192513 151.343508 
L 149.181818 146.804916 
L 151.171123 142.806758 
L 153.160428 139.376344 
L 155.149733 136.537107 
L 157.139037 134.308444 
L 159.128342 132.705577 
L 161.117647 131.739456 
L 163.106952 131.416681 
L 165.096257 131.739456 
L 167.085561 132.705577 
L 169.074866 134.308444 
L 171.064171 136.537107 
L 173.053476 139.376344 
L 175.042781 142.806758 
L 177.032086 146.804916 
L 179.02139 151.343508 
L 181.010695 156.39153 
L 183 161.914499 
L 184.989305 167.874687 
L 188.967914 180.941157 
L 192.946524 195.23452 
L 198.914439 218.115566 
L 200.903743 225.919552 
L 246.657754 225.919552 
L 248.647059 144.565494 
L 364.026738 225.919552 
L 371.983957 225.919552 
L 403.812834 109.014973 
L 405.802139 109.014973 
L 437.631016 225.919552 
L 493.331551 225.919552 
L 495.320856 133.240197 
L 499.299465 133.390486 
L 503.278075 133.840864 
L 507.256684 134.589872 
L 511.235294 135.63508 
L 515.213904 136.973098 
L 519.192513 138.599587 
L 523.171123 140.509272 
L 527.149733 142.695959 
L 531.128342 145.152557 
L 535.106952 147.871098 
L 539.085561 150.842765 
L 543.064171 154.057921 
L 547.042781 157.506138 
L 551.02139 161.176234 
L 556.989305 167.071174 
L 562.957219 173.395397 
L 568.925134 180.102769 
L 574.893048 187.144362 
L 582.850267 196.963966 
L 590.807487 207.1589 
L 594.786096 212.355962 
L 596.775401 225.919552 
L 622.636364 225.919552 
L 622.636364 225.919552 
" clip-path="url(#p2e10d6ec9a)" style="fill: none; stroke: #937860; stroke-width: 3; stroke-linecap: round"/>
   </g>
   <g id="line2d_26">
    <path d="M 115.363636 225.919552 
L 123.320856 225.919552 
L 125.31016 152.44273 
L 127.299465 152.673316 
L 129.28877 153.363627 
L 131.278075 154.509332 
L 133.26738 156.103238 
L 135.256684 158.135341 
L 137.245989 160.592888 
L 139.235294 163.460454 
L 141.224599 166.72004 
L 143.213904 170.351188 
L 145.203209 174.331107 
L 147.192513 178.634818 
L 151.171123 188.103704 
L 155.149733 198.520495 
L 159.128342 209.624081 
L 175.042781 255.229733 
L 179.02139 265.496387 
L 183 274.770993 
L 184.989305 278.962494 
L 186.97861 282.821073 
L 188.967914 286.322514 
L 190.957219 289.444839 
L 192.946524 292.168452 
L 194.935829 294.476258 
L 196.925134 296.353772 
L 198.914439 297.78921 
L 200.903743 298.773563 
L 202.893048 299.300652 
L 204.882353 299.36717 
L 206.871658 298.972698 
L 208.860963 298.119713 
L 210.850267 296.813568 
L 212.839572 295.062461 
L 214.828877 292.877383 
L 216.818182 290.272049 
L 218.807487 287.26281 
L 220.796791 283.868555 
L 222.786096 280.110586 
L 224.775401 276.01249 
L 226.764706 225.919552 
L 248.647059 225.919552 
L 254.614973 203.06938 
L 258.593583 188.754679 
L 260.582888 182.070394 
L 262.572193 175.783213 
L 264.561497 169.950075 
L 266.550802 164.623805 
L 268.540107 159.852639 
L 270.529412 155.679785 
L 272.518717 152.143034 
L 274.508021 149.274414 
L 276.497326 147.099904 
L 278.486631 145.639197 
L 280.475936 144.905521 
L 282.465241 144.905521 
L 284.454545 145.639197 
L 286.44385 147.099904 
L 288.433155 149.274414 
L 290.42246 152.143034 
L 292.411765 155.679785 
L 294.40107 159.852639 
L 296.390374 164.623805 
L 298.379679 169.950075 
L 300.368984 175.783213 
L 302.358289 182.070394 
L 306.336898 195.775535 
L 310.315508 210.57016 
L 314.294118 225.919552 
L 371.983957 225.919552 
L 401.823529 150.80631 
L 403.812834 150.80631 
L 433.652406 225.919552 
L 495.320856 225.919552 
L 590.807487 116.033752 
L 592.796791 225.919552 
L 622.636364 225.919552 
L 622.636364 225.919552 
" clip-path="url(#p2e10d6ec9a)" style="fill: none; stroke: #da8bc3; stroke-width: 3; stroke-linecap: round"/>
   </g>
   <g id="line2d_27">
    <path d="M 115.363636 225.919552 
L 125.31016 225.919552 
L 133.26738 195.981909 
L 137.245989 181.850923 
L 141.224599 168.704357 
L 145.203209 156.835884 
L 147.192513 151.465066 
L 149.181818 146.510627 
L 151.171123 142.000274 
L 153.160428 137.959233 
L 155.149733 134.410101 
L 157.139037 131.372727 
L 159.128342 128.864098 
L 161.117647 126.898242 
L 163.106952 125.486153 
L 165.096257 124.635728 
L 167.085561 124.351724 
L 169.074866 124.635728 
L 171.064171 125.486153 
L 173.053476 126.898242 
L 175.042781 128.864098 
L 177.032086 131.372727 
L 179.02139 134.410101 
L 181.010695 137.959233 
L 183 142.000274 
L 184.989305 146.510627 
L 186.97861 151.465066 
L 188.967914 156.835884 
L 190.957219 162.593047 
L 194.935829 175.135638 
L 198.914439 188.812657 
L 202.893048 203.318584 
L 208.860963 225.919552 
L 248.647059 225.919552 
L 292.411765 149.220383 
L 294.40107 149.220383 
L 338.165775 225.919552 
L 369.994652 225.919552 
L 371.983957 167.631294 
L 463.491979 225.919552 
L 493.331551 225.919552 
L 495.320856 168.253388 
L 582.850267 168.253388 
L 584.839572 225.919552 
L 622.636364 225.919552 
L 622.636364 225.919552 
" clip-path="url(#p2e10d6ec9a)" style="fill: none; stroke: #8c8c8c; stroke-width: 3; stroke-linecap: round"/>
   </g>
   <g id="line2d_28">
    <path d="M 115.363636 225.919552 
L 125.31016 225.919552 
L 133.26738 190.630816 
L 137.245989 173.846705 
L 141.224599 158.076133 
L 145.203209 143.626055 
L 147.192513 136.985252 
L 149.181818 130.777727 
L 151.171123 125.033724 
L 153.160428 119.781226 
L 155.149733 115.045824 
L 157.139037 110.850587 
L 159.128342 107.215955 
L 161.117647 104.159635 
L 163.106952 101.696517 
L 165.096257 99.838601 
L 167.085561 98.594938 
L 169.074866 97.971589 
L 171.064171 97.971589 
L 173.053476 98.594938 
L 175.042781 99.838601 
L 177.032086 101.696517 
L 179.02139 104.159635 
L 181.010695 107.215955 
L 183 110.850587 
L 184.989305 115.045824 
L 186.97861 119.781226 
L 188.967914 125.033724 
L 190.957219 130.777727 
L 192.946524 136.985252 
L 194.935829 143.626055 
L 198.914439 158.076133 
L 202.893048 173.846705 
L 206.871658 190.630816 
L 212.839572 216.988913 
L 214.828877 225.919552 
L 246.657754 225.919552 
L 248.647059 123.176502 
L 362.037433 225.919552 
L 369.994652 225.919552 
L 371.983957 190.637562 
L 439.620321 190.637562 
L 441.609626 225.919552 
L 495.320856 225.919552 
L 527.149733 132.988268 
L 529.139037 132.988268 
L 560.967914 225.919552 
L 622.636364 225.919552 
L 622.636364 225.919552 
" clip-path="url(#p2e10d6ec9a)" style="fill: none; stroke: #ccb974; stroke-width: 3; stroke-linecap: round"/>
   </g>
   <g id="line2d_29">
    <path d="M 115.363636 225.919552 
L 125.31016 225.919552 
L 177.032086 121.855825 
L 179.02139 121.855825 
L 230.743316 225.919552 
L 248.647059 225.919552 
L 366.016043 127.571511 
L 368.005348 225.919552 
L 369.994652 225.919552 
L 371.983957 168.583459 
L 377.951872 168.71647 
L 383.919786 169.114884 
L 389.887701 169.776854 
L 395.855615 170.699308 
L 401.823529 171.877966 
L 407.791444 173.30736 
L 413.759358 174.980857 
L 419.727273 176.890694 
L 425.695187 179.028008 
L 431.663102 181.382885 
L 437.631016 183.944397 
L 443.59893 186.700661 
L 451.55615 190.656399 
L 459.513369 194.902912 
L 467.470588 199.405182 
L 477.417112 205.335947 
L 487.363636 211.531811 
L 489.352941 212.795822 
L 491.342246 225.919552 
L 495.320856 225.919552 
L 501.28877 205.174266 
L 505.26738 191.884781 
L 509.245989 179.393042 
L 513.224599 167.991845 
L 515.213904 162.784885 
L 517.203209 157.948424 
L 519.192513 153.510845 
L 521.181818 149.49819 
L 523.171123 145.934004 
L 525.160428 142.839206 
L 527.149733 140.231957 
L 529.139037 138.127556 
L 531.128342 136.538354 
L 533.117647 135.473676 
L 535.106952 134.939771 
L 537.096257 134.939771 
L 539.085561 135.473676 
L 541.074866 136.538354 
L 543.064171 138.127556 
L 545.053476 140.231957 
L 547.042781 142.839206 
L 549.032086 145.934004 
L 551.02139 149.49819 
L 553.010695 153.510845 
L 555 157.948424 
L 556.989305 162.784885 
L 558.97861 167.991845 
L 562.957219 179.393042 
L 566.935829 191.884781 
L 570.914439 205.174266 
L 576.882353 225.919552 
L 622.636364 225.919552 
L 622.636364 225.919552 
" clip-path="url(#p2e10d6ec9a)" style="fill: none; stroke: #64b5cd; stroke-width: 3; stroke-linecap: round"/>
   </g>
   <g id="patch_3">
    <path d="M 90 378 
L 90 51.84 
" style="fill: none; stroke: #ffffff; stroke-width: 1.25; stroke-linejoin: miter; stroke-linecap: square"/>
   </g>
   <g id="patch_4">
    <path d="M 648 378 
L 648 51.84 
" style="fill: none; stroke: #ffffff; stroke-width: 1.25; stroke-linejoin: miter; stroke-linecap: square"/>
   </g>
   <g id="patch_5">
    <path d="M 90 378 
L 648 378 
" style="fill: none; stroke: #ffffff; stroke-width: 1.25; stroke-linejoin: miter; stroke-linecap: square"/>
   </g>
   <g id="patch_6">
    <path d="M 90 51.84 
L 648 51.84 
" style="fill: none; stroke: #ffffff; stroke-width: 1.25; stroke-linejoin: miter; stroke-linecap: square"/>
   </g>
   <g id="text_12">
    <!-- Illustration of Stochasticity in Signal Generation -->
    <g style="fill: #262626" transform="translate(78.383939 45.84)scale(0.3 -0.3)">
     <defs>
      <path id="CMR17-49" d="M 1261 3898 
C 1261 4185 1338 4185 1798 4185 
L 1798 4352 
C 1594 4339 1267 4339 1050 4339 
C 832 4339 506 4339 301 4352 
L 301 4185 
C 762 4185 838 4185 838 3898 
L 838 453 
C 838 166 762 166 301 166 
L 301 0 
C 506 12 832 12 1050 12 
C 1267 12 1594 12 1798 0 
L 1798 166 
C 1338 166 1261 166 1261 453 
L 1261 3898 
z
" transform="scale(0.015625)"/>
      <path id="CMR17-73" d="M 1978 2688 
C 1978 2803 1971 2809 1933 2809 
C 1907 2809 1901 2803 1824 2707 
C 1805 2681 1747 2617 1728 2592 
C 1523 2809 1235 2816 1126 2816 
C 416 2816 160 2444 160 2073 
C 160 1497 813 1363 998 1324 
C 1402 1241 1542 1216 1677 1100 
C 1760 1024 1901 883 1901 652 
C 1901 384 1747 38 1158 38 
C 602 38 403 460 288 1024 
C 269 1113 269 1120 218 1120 
C 166 1120 160 1113 160 985 
L 160 64 
C 160 -52 166 -58 205 -58 
C 237 -58 243 -52 275 0 
C 314 57 410 211 448 275 
C 576 102 800 -64 1158 -64 
C 1792 -64 2131 281 2131 780 
C 2131 1107 1958 1280 1875 1356 
C 1683 1555 1459 1600 1190 1651 
C 838 1728 390 1817 390 2208 
C 390 2374 480 2726 1126 2726 
C 1811 2726 1850 2086 1862 1881 
C 1869 1849 1901 1843 1920 1843 
C 1978 1843 1978 1862 1978 1971 
L 1978 2688 
z
" transform="scale(0.015625)"/>
      <path id="CMR17-72" d="M 960 1517 
C 960 2134 1222 2713 1702 2713 
C 1747 2713 1792 2707 1837 2687 
C 1837 2687 1696 2642 1696 2475 
C 1696 2321 1818 2257 1914 2257 
C 1990 2257 2131 2302 2131 2482 
C 2131 2687 1926 2816 1709 2816 
C 1222 2816 1011 2340 947 2115 
L 941 2115 
L 941 2816 
L 198 2745 
L 198 2578 
C 576 2578 634 2540 634 2231 
L 634 443 
C 634 198 608 166 198 166 
L 198 0 
C 352 12 646 12 813 12 
C 998 12 1325 12 1498 0 
L 1498 166 
C 1037 166 960 166 960 455 
L 960 1517 
z
" transform="scale(0.015625)"/>
      <path id="CMR17-61" d="M 2304 1656 
C 2304 2048 2304 2275 2035 2534 
C 1798 2751 1523 2816 1306 2816 
C 800 2816 435 2408 435 1977 
C 435 1740 627 1728 666 1728 
C 749 1728 896 1779 896 1958 
C 896 2118 774 2188 666 2188 
C 640 2188 608 2182 589 2176 
C 723 2594 1069 2713 1293 2713 
C 1613 2713 1965 2421 1965 1875 
L 1965 1632 
C 1587 1619 1133 1568 774 1373 
C 371 1147 256 822 256 576 
C 256 77 832 -64 1171 -64 
C 1523 -64 1850 135 1990 505 
C 2003 219 2182 -39 2464 -39 
C 2598 -39 2938 51 2938 563 
L 2938 926 
L 2822 926 
L 2822 557 
C 2822 161 2650 109 2566 109 
C 2304 109 2304 446 2304 732 
L 2304 1656 
z
M 1965 887 
C 1965 323 1568 38 1216 38 
C 896 38 646 278 646 576 
C 646 771 730 1114 1101 1322 
C 1408 1497 1760 1523 1965 1536 
L 1965 887 
z
" transform="scale(0.015625)"/>
      <path id="CMR17-6f" d="M 2758 1356 
C 2758 2176 2163 2816 1466 2816 
C 768 2816 173 2176 173 1356 
C 173 550 768 -64 1466 -64 
C 2163 -64 2758 550 2758 1356 
z
M 1466 51 
C 1165 51 909 230 762 480 
C 602 768 582 1126 582 1408 
C 582 1676 595 2009 762 2297 
C 890 2508 1139 2713 1466 2713 
C 1754 2713 1997 2553 2150 2329 
C 2349 2028 2349 1606 2349 1408 
C 2349 1158 2336 774 2163 467 
C 1984 172 1709 51 1466 51 
z
" transform="scale(0.015625)"/>
      <path id="CMR17-6e" d="M 2656 1954 
C 2656 2282 2592 2816 1837 2816 
C 1331 2816 1069 2424 973 2166 
L 966 2166 
L 966 2816 
L 211 2745 
L 211 2578 
C 589 2578 646 2540 646 2231 
L 646 443 
C 646 198 621 166 211 166 
L 211 0 
C 365 12 646 12 813 12 
C 979 12 1267 12 1421 0 
L 1421 166 
C 1011 166 986 192 986 443 
L 986 1678 
C 986 2269 1344 2713 1792 2713 
C 2266 2713 2317 2289 2317 1980 
L 2317 443 
C 2317 198 2291 166 1882 166 
L 1882 0 
C 2035 12 2317 12 2483 12 
C 2650 12 2938 12 3091 0 
L 3091 166 
C 2682 166 2656 192 2656 443 
L 2656 1954 
z
" transform="scale(0.015625)"/>
      <path id="CMR17-66" d="M 979 2585 
L 1709 2585 
L 1709 2752 
L 966 2752 
L 966 3539 
C 966 4076 1235 4377 1510 4377 
C 1594 4377 1690 4363 1754 4339 
C 1702 4326 1568 4281 1568 4121 
C 1568 3955 1696 3904 1786 3904 
C 1875 3904 2003 3955 2003 4121 
C 2003 4353 1773 4480 1517 4480 
C 1152 4480 653 4211 653 3526 
L 653 2752 
L 141 2752 
L 141 2585 
L 653 2585 
L 653 441 
C 653 198 627 166 218 166 
L 218 0 
C 371 12 666 12 832 12 
C 1018 12 1344 12 1517 0 
L 1517 166 
C 1056 166 979 166 979 454 
L 979 2585 
z
" transform="scale(0.015625)"/>
      <path id="CMR17-53" d="M 2803 4351 
C 2803 4467 2797 4473 2758 4473 
C 2720 4473 2707 4447 2682 4390 
L 2490 3965 
C 2246 4320 1875 4480 1472 4480 
C 819 4480 294 3958 294 3301 
C 294 3101 339 2817 557 2546 
C 794 2250 1018 2198 1530 2063 
C 1722 2011 2042 1927 2106 1901 
C 2470 1747 2662 1360 2662 999 
C 2662 534 2336 38 1779 38 
C 1094 38 454 425 410 1328 
C 403 1431 397 1437 352 1437 
C 301 1437 294 1431 294 1302 
L 294 0 
C 294 -116 301 -122 339 -122 
C 384 -122 397 -90 486 109 
C 493 128 493 141 614 386 
C 934 -39 1472 -128 1779 -128 
C 2477 -128 2970 457 2970 1141 
C 2970 1476 2848 1734 2778 1850 
C 2509 2263 2221 2340 1914 2417 
C 1869 2437 1856 2437 1498 2527 
C 1152 2617 1005 2662 845 2836 
C 666 3036 602 3243 602 3449 
C 602 3868 934 4326 1478 4326 
C 2157 4326 2579 3842 2675 3036 
C 2694 2920 2701 2914 2746 2914 
C 2803 2914 2803 2933 2803 3043 
L 2803 4351 
z
" transform="scale(0.015625)"/>
      <path id="CMR17-63" d="M 2234 2240 
C 2112 2240 1933 2240 1933 2015 
C 1933 1836 2080 1785 2163 1785 
C 2208 1785 2394 1804 2394 2028 
C 2394 2476 1958 2816 1466 2816 
C 787 2816 211 2201 211 1379 
C 211 521 813 -64 1466 -64 
C 2259 -64 2458 676 2458 747 
C 2458 773 2451 792 2406 792 
C 2362 792 2355 786 2330 702 
C 2163 180 1798 51 1523 51 
C 1114 51 621 431 621 1385 
C 621 2358 1094 2700 1472 2700 
C 1722 2700 2093 2582 2234 2240 
z
" transform="scale(0.015625)"/>
      <path id="CMR17-68" d="M 2656 1954 
C 2656 2282 2592 2816 1837 2816 
C 1312 2816 1056 2392 979 2179 
L 973 2179 
L 973 4416 
L 211 4345 
L 211 4179 
C 589 4179 646 4141 646 3843 
L 646 443 
C 646 198 621 166 211 166 
L 211 0 
C 365 12 646 12 813 12 
C 979 12 1267 12 1421 0 
L 1421 166 
C 1011 166 986 192 986 443 
L 986 1678 
C 986 2269 1344 2713 1792 2713 
C 2266 2713 2317 2289 2317 1980 
L 2317 443 
C 2317 198 2291 166 1882 166 
L 1882 0 
C 2035 12 2317 12 2483 12 
C 2650 12 2938 12 3091 0 
L 3091 166 
C 2682 166 2656 192 2656 443 
L 2656 1954 
z
" transform="scale(0.015625)"/>
      <path id="CMR17-79" d="M 2496 2183 
C 2656 2579 2944 2585 3034 2585 
L 3034 2752 
C 2912 2745 2752 2739 2630 2739 
C 2496 2739 2285 2739 2157 2752 
L 2157 2585 
C 2400 2566 2406 2384 2406 2332 
C 2406 2268 2394 2235 2362 2158 
L 1664 409 
L 902 2300 
C 870 2378 870 2423 870 2430 
C 870 2572 1018 2585 1171 2585 
L 1171 2752 
C 1018 2739 742 2739 582 2739 
C 410 2739 205 2739 64 2752 
L 64 2585 
C 410 2585 448 2553 531 2345 
L 1485 -31 
C 1197 -795 1030 -1242 627 -1242 
C 557 -1242 397 -1223 282 -1106 
C 429 -1093 493 -1002 493 -892 
C 493 -782 416 -685 288 -685 
C 147 -685 77 -782 77 -899 
C 77 -1158 339 -1344 627 -1344 
C 998 -1344 1229 -983 1357 -659 
L 2496 2183 
z
" transform="scale(0.015625)"/>
      <path id="CMR17-67" d="M 710 1165 
C 832 1068 1043 960 1299 960 
C 1805 960 2240 1359 2240 1895 
C 2240 2063 2189 2321 1997 2521 
C 2176 2713 2438 2777 2586 2777 
C 2611 2777 2650 2777 2682 2758 
C 2656 2751 2598 2726 2598 2623 
C 2598 2540 2656 2483 2739 2483 
C 2835 2483 2886 2547 2886 2630 
C 2886 2751 2790 2880 2586 2880 
C 2330 2880 2106 2758 1926 2591 
C 1734 2764 1504 2828 1299 2828 
C 794 2828 358 2431 358 1895 
C 358 1527 570 1294 634 1230 
C 442 1004 442 742 442 710 
C 442 544 506 300 723 166 
C 390 82 128 -184 128 -517 
C 128 -996 736 -1344 1466 -1344 
C 2170 -1344 2803 -1009 2803 -510 
C 2803 384 1856 384 1363 384 
C 1216 384 954 384 922 390 
C 723 422 589 601 589 825 
C 589 883 589 1024 710 1165 
z
M 1299 1068 
C 736 1068 736 1766 736 1895 
C 736 2024 736 2719 1299 2719 
C 1862 2719 1862 2024 1862 1895 
C 1862 1766 1862 1068 1299 1068 
z
M 1466 -1236 
C 826 -1236 384 -883 384 -517 
C 384 -311 493 -118 634 -11 
C 794 102 858 102 1293 102 
C 1818 102 2547 102 2547 -517 
C 2547 -883 2106 -1236 1466 -1236 
z
" transform="scale(0.015625)"/>
      <path id="CMR17-47" d="M 3974 1258 
C 3974 1503 3994 1536 4390 1536 
L 4390 1702 
C 4237 1689 3891 1689 3718 1689 
C 3539 1689 3040 1696 2797 1702 
L 2797 1536 
L 2989 1536 
C 3539 1536 3552 1464 3552 1232 
L 3552 806 
C 3552 96 2720 38 2522 38 
C 1862 38 781 496 781 2179 
C 781 3862 1843 4313 2464 4313 
C 3187 4313 3712 3681 3834 2785 
C 3846 2708 3846 2695 3904 2695 
C 3974 2695 3974 2708 3974 2824 
L 3974 4351 
C 3974 4467 3968 4473 3930 4473 
C 3904 4473 3898 4467 3853 4390 
L 3571 3849 
C 3258 4249 2874 4480 2381 4480 
C 1286 4480 294 3507 294 2179 
C 294 858 1267 -128 2394 -128 
C 2912 -128 3418 57 3616 425 
C 3725 161 3904 -20 3936 -20 
C 3968 -20 3974 -13 3974 102 
L 3974 1258 
z
" transform="scale(0.015625)"/>
     </defs>
     <use xlink:href="#CMR17-49" transform="scale(0.996264)"/>
     <use xlink:href="#CMR17-6c" transform="translate(32.638409 0)scale(0.996264)"/>
     <use xlink:href="#CMR17-6c" transform="translate(57.509468 0)scale(0.996264)"/>
     <use xlink:href="#CMR17-75" transform="translate(82.380526 0)scale(0.996264)"/>
     <use xlink:href="#CMR17-73" transform="translate(133.275896 0)scale(0.996264)"/>
     <use xlink:href="#CMR17-74" transform="translate(169.077234 0)scale(0.996264)"/>
     <use xlink:href="#CMR17-72" transform="translate(204.358001 0)scale(0.996264)"/>
     <use xlink:href="#CMR17-61" transform="translate(239.638769 0)scale(0.996264)"/>
     <use xlink:href="#CMR17-74" transform="translate(285.329246 0)scale(0.996264)"/>
     <use xlink:href="#CMR17-69" transform="translate(320.610014 0)scale(0.996264)"/>
     <use xlink:href="#CMR17-6f" transform="translate(345.481073 0)scale(0.996264)"/>
     <use xlink:href="#CMR17-6e" transform="translate(391.17155 0)scale(0.996264)"/>
     <use xlink:href="#CMR17-6f" transform="translate(472.142886 0)scale(0.996264)"/>
     <use xlink:href="#CMR17-66" transform="translate(517.833363 0)scale(0.996264)"/>
     <use xlink:href="#CMR17-53" transform="translate(575.382842 0)scale(0.996264)"/>
     <use xlink:href="#CMR17-74" transform="translate(626.278211 0)scale(0.996264)"/>
     <use xlink:href="#CMR17-6f" transform="translate(661.558979 0)scale(0.996264)"/>
     <use xlink:href="#CMR17-63" transform="translate(709.851895 0)scale(0.996264)"/>
     <use xlink:href="#CMR17-68" transform="translate(747.735102 0)scale(0.996264)"/>
     <use xlink:href="#CMR17-61" transform="translate(798.630471 0)scale(0.996264)"/>
     <use xlink:href="#CMR17-73" transform="translate(844.320949 0)scale(0.996264)"/>
     <use xlink:href="#CMR17-74" transform="translate(880.122286 0)scale(0.996264)"/>
     <use xlink:href="#CMR17-69" transform="translate(915.403054 0)scale(0.996264)"/>
     <use xlink:href="#CMR17-63" transform="translate(940.274112 0)scale(0.996264)"/>
     <use xlink:href="#CMR17-69" transform="translate(980.759773 0)scale(0.996264)"/>
     <use xlink:href="#CMR17-74" transform="translate(1005.630831 0)scale(0.996264)"/>
     <use xlink:href="#CMR17-79" transform="translate(1038.309145 0)scale(0.996264)"/>
     <use xlink:href="#CMR17-69" transform="translate(1116.678027 0)scale(0.996264)"/>
     <use xlink:href="#CMR17-6e" transform="translate(1141.549086 0)scale(0.996264)"/>
     <use xlink:href="#CMR17-53" transform="translate(1222.520422 0)scale(0.996264)"/>
     <use xlink:href="#CMR17-69" transform="translate(1273.415792 0)scale(0.996264)"/>
     <use xlink:href="#CMR17-67" transform="translate(1298.28685 0)scale(0.996264)"/>
     <use xlink:href="#CMR17-6e" transform="translate(1343.977327 0)scale(0.996264)"/>
     <use xlink:href="#CMR17-61" transform="translate(1394.872697 0)scale(0.996264)"/>
     <use xlink:href="#CMR17-6c" transform="translate(1440.563174 0)scale(0.996264)"/>
     <use xlink:href="#CMR17-47" transform="translate(1495.510199 0)scale(0.996264)"/>
     <use xlink:href="#CMR17-65" transform="translate(1567.865545 0)scale(0.996264)"/>
     <use xlink:href="#CMR17-6e" transform="translate(1608.351206 0)scale(0.996264)"/>
     <use xlink:href="#CMR17-65" transform="translate(1659.246575 0)scale(0.996264)"/>
     <use xlink:href="#CMR17-72" transform="translate(1699.732236 0)scale(0.996264)"/>
     <use xlink:href="#CMR17-61" transform="translate(1735.013004 0)scale(0.996264)"/>
     <use xlink:href="#CMR17-74" transform="translate(1780.703481 0)scale(0.996264)"/>
     <use xlink:href="#CMR17-69" transform="translate(1815.984249 0)scale(0.996264)"/>
     <use xlink:href="#CMR17-6f" transform="translate(1840.855307 0)scale(0.996264)"/>
     <use xlink:href="#CMR17-6e" transform="translate(1886.545784 0)scale(0.996264)"/>
    </g>
   </g>
  </g>
 </g>
 <defs>
  <clipPath id="p2e10d6ec9a">
   <rect x="90" y="51.84" width="558" height="326.16"/>
  </clipPath>
 </defs>
</svg>
