<?xml version="1.0" encoding="utf-8" standalone="no"?>
<!DOCTYPE svg PUBLIC "-//W3C//DTD SVG 1.1//EN"
  "http://www.w3.org/Graphics/SVG/1.1/DTD/svg11.dtd">
<svg xmlns:xlink="http://www.w3.org/1999/xlink" width="720pt" height="432pt" viewBox="0 0 720 432" xmlns="http://www.w3.org/2000/svg" version="1.1">
 <metadata>
  <rdf:RDF xmlns:dc="http://purl.org/dc/elements/1.1/" xmlns:cc="http://creativecommons.org/ns#" xmlns:rdf="http://www.w3.org/1999/02/22-rdf-syntax-ns#">
   <cc:Work>
    <dc:type rdf:resource="http://purl.org/dc/dcmitype/StillImage"/>
    <dc:date>2025-06-07T18:36:19.303980</dc:date>
    <dc:format>image/svg+xml</dc:format>
    <dc:creator>
     <cc:Agent>
      <dc:title>Matplotlib v3.10.0, https://matplotlib.org/</dc:title>
     </cc:Agent>
    </dc:creator>
   </cc:Work>
  </rdf:RDF>
 </metadata>
 <defs>
  <style type="text/css">*{stroke-linejoin: round; stroke-linecap: butt}</style>
 </defs>
 <g id="figure_1">
  <g id="patch_1">
   <path d="M 0 432 
L 720 432 
L 720 0 
L 0 0 
z
" style="fill: #ffffff"/>
  </g>
  <g id="axes_1">
   <g id="patch_2">
    <path d="M 90 384.48 
L 648 384.48 
L 648 51.84 
L 90 51.84 
z
" style="fill: #ffffff"/>
   </g>
   <g id="matplotlib.axis_1">
    <g id="xtick_1">
     <g id="line2d_1">
      <path d="M 115.363636 384.48 
L 115.363636 51.84 
" clip-path="url(#p2f5423cef4)" style="fill: none; stroke: #cccccc; stroke-linecap: round"/>
     </g>
     <g id="text_1">
      <!-- $\mathdefault{0}$ -->
      <g style="fill: #262626" transform="translate(109.081196 413.005867) scale(0.275 -0.275)">
       <defs>
        <path id="CMR17-30" d="M 2688 2038 
C 2688 2430 2682 3099 2413 3613 
C 2176 4063 1798 4224 1466 4224 
C 1158 4224 768 4082 525 3620 
C 269 3137 243 2539 243 2038 
C 243 1671 250 1112 448 623 
C 723 -39 1216 -128 1466 -128 
C 1760 -128 2208 -7 2470 604 
C 2662 1048 2688 1568 2688 2038 
z
M 1466 -26 
C 1056 -26 813 328 723 816 
C 653 1196 653 1749 653 2109 
C 653 2604 653 3015 736 3407 
C 858 3954 1216 4121 1466 4121 
C 1728 4121 2067 3947 2189 3420 
C 2272 3054 2278 2623 2278 2109 
C 2278 1691 2278 1176 2202 797 
C 2067 96 1690 -26 1466 -26 
z
" transform="scale(0.015625)"/>
       </defs>
       <use xlink:href="#CMR17-30" transform="scale(0.996264)"/>
      </g>
     </g>
    </g>
    <g id="xtick_2">
     <g id="line2d_2">
      <path d="M 214.828877 384.48 
L 214.828877 51.84 
" clip-path="url(#p2f5423cef4)" style="fill: none; stroke: #cccccc; stroke-linecap: round"/>
     </g>
     <g id="text_2">
      <!-- $\mathdefault{50}$ -->
      <g style="fill: #262626" transform="translate(202.263996 413.005867) scale(0.275 -0.275)">
       <defs>
        <path id="CMR17-35" d="M 730 3750 
C 794 3724 1056 3641 1325 3641 
C 1920 3641 2246 3961 2432 4140 
C 2432 4191 2432 4224 2394 4224 
C 2387 4224 2374 4224 2323 4198 
C 2099 4102 1837 4032 1517 4032 
C 1325 4032 1037 4055 723 4191 
C 653 4224 640 4224 634 4224 
C 602 4224 595 4217 595 4090 
L 595 2231 
C 595 2113 595 2080 659 2080 
C 691 2080 704 2093 736 2139 
C 941 2435 1222 2560 1542 2560 
C 1766 2560 2246 2415 2246 1293 
C 2246 1087 2246 716 2054 422 
C 1894 159 1645 25 1370 25 
C 947 25 518 319 403 812 
C 429 806 480 793 506 793 
C 589 793 749 838 749 1036 
C 749 1209 627 1280 506 1280 
C 358 1280 262 1190 262 1011 
C 262 454 704 -128 1382 -128 
C 2042 -128 2669 441 2669 1267 
C 2669 2054 2170 2662 1549 2662 
C 1222 2662 947 2540 730 2304 
L 730 3750 
z
" transform="scale(0.015625)"/>
       </defs>
       <use xlink:href="#CMR17-35" transform="scale(0.996264)"/>
       <use xlink:href="#CMR17-30" transform="translate(45.690477 0) scale(0.996264)"/>
      </g>
     </g>
    </g>
    <g id="xtick_3">
     <g id="line2d_3">
      <path d="M 314.294118 384.48 
L 314.294118 51.84 
" clip-path="url(#p2f5423cef4)" style="fill: none; stroke: #cccccc; stroke-linecap: round"/>
     </g>
     <g id="text_3">
      <!-- $\mathdefault{100}$ -->
      <g style="fill: #262626" transform="translate(295.446796 413.005867) scale(0.275 -0.275)">
       <defs>
        <path id="CMR17-31" d="M 1702 4083 
C 1702 4217 1696 4224 1606 4224 
C 1357 3927 979 3833 621 3820 
C 602 3820 570 3820 563 3808 
C 557 3795 557 3782 557 3648 
C 755 3648 1088 3686 1344 3839 
L 1344 467 
C 1344 243 1331 166 781 166 
L 589 166 
L 589 0 
C 896 6 1216 12 1523 12 
C 1830 12 2150 6 2458 0 
L 2458 166 
L 2266 166 
C 1715 166 1702 236 1702 467 
L 1702 4083 
z
" transform="scale(0.015625)"/>
       </defs>
       <use xlink:href="#CMR17-31" transform="scale(0.996264)"/>
       <use xlink:href="#CMR17-30" transform="translate(45.690477 0) scale(0.996264)"/>
       <use xlink:href="#CMR17-30" transform="translate(91.380954 0) scale(0.996264)"/>
      </g>
     </g>
    </g>
    <g id="xtick_4">
     <g id="line2d_4">
      <path d="M 413.759358 384.48 
L 413.759358 51.84 
" clip-path="url(#p2f5423cef4)" style="fill: none; stroke: #cccccc; stroke-linecap: round"/>
     </g>
     <g id="text_4">
      <!-- $\mathdefault{150}$ -->
      <g style="fill: #262626" transform="translate(394.912036 413.005867) scale(0.275 -0.275)">
       <use xlink:href="#CMR17-31" transform="scale(0.996264)"/>
       <use xlink:href="#CMR17-35" transform="translate(45.690477 0) scale(0.996264)"/>
       <use xlink:href="#CMR17-30" transform="translate(91.380954 0) scale(0.996264)"/>
      </g>
     </g>
    </g>
    <g id="xtick_5">
     <g id="line2d_5">
      <path d="M 513.224599 384.48 
L 513.224599 51.84 
" clip-path="url(#p2f5423cef4)" style="fill: none; stroke: #cccccc; stroke-linecap: round"/>
     </g>
     <g id="text_5">
      <!-- $\mathdefault{200}$ -->
      <g style="fill: #262626" transform="translate(494.377277 413.005867) scale(0.275 -0.275)">
       <defs>
        <path id="CMR17-32" d="M 2669 990 
L 2554 990 
C 2490 537 2438 460 2413 422 
C 2381 371 1920 371 1830 371 
L 602 371 
C 832 620 1280 1073 1824 1596 
C 2214 1966 2669 2400 2669 3033 
C 2669 3788 2067 4224 1395 4224 
C 691 4224 262 3603 262 3027 
C 262 2777 448 2745 525 2745 
C 589 2745 781 2783 781 3007 
C 781 3206 614 3264 525 3264 
C 486 3264 448 3257 422 3244 
C 544 3788 915 4057 1306 4057 
C 1862 4057 2227 3616 2227 3033 
C 2227 2477 1901 1998 1536 1583 
L 262 147 
L 262 0 
L 2515 0 
L 2669 990 
z
" transform="scale(0.015625)"/>
       </defs>
       <use xlink:href="#CMR17-32" transform="scale(0.996264)"/>
       <use xlink:href="#CMR17-30" transform="translate(45.690477 0) scale(0.996264)"/>
       <use xlink:href="#CMR17-30" transform="translate(91.380954 0) scale(0.996264)"/>
      </g>
     </g>
    </g>
    <g id="xtick_6">
     <g id="line2d_6">
      <path d="M 612.68984 384.48 
L 612.68984 51.84 
" clip-path="url(#p2f5423cef4)" style="fill: none; stroke: #cccccc; stroke-linecap: round"/>
     </g>
     <g id="text_6">
      <!-- $\mathdefault{250}$ -->
      <g style="fill: #262626" transform="translate(593.842518 413.005867) scale(0.275 -0.275)">
       <use xlink:href="#CMR17-32" transform="scale(0.996264)"/>
       <use xlink:href="#CMR17-35" transform="translate(45.690477 0) scale(0.996264)"/>
       <use xlink:href="#CMR17-30" transform="translate(91.380954 0) scale(0.996264)"/>
      </g>
     </g>
    </g>
    <g id="text_7">
     <!-- Time -->
     <g style="fill: #262626" transform="translate(337.682086 443.090362) scale(0.3 -0.3)">
      <defs>
       <path id="CMR17-54" d="M 3981 4332 
L 288 4332 
L 179 2924 
L 294 2924 
C 378 3981 467 4166 1453 4166 
C 1568 4166 1754 4166 1805 4159 
C 1926 4140 1926 4064 1926 3917 
L 1926 465 
C 1926 236 1907 166 1376 166 
L 1197 166 
L 1197 0 
C 1504 6 1824 12 2138 12 
C 2451 12 2771 6 3078 0 
L 3078 166 
L 2899 166 
C 2368 166 2349 236 2349 465 
L 2349 3917 
C 2349 4057 2349 4134 2464 4159 
C 2515 4166 2701 4166 2816 4166 
C 3795 4166 3891 3981 3974 2924 
L 4090 2924 
L 3981 4332 
z
" transform="scale(0.015625)"/>
       <path id="CMR17-69" d="M 992 3961 
C 992 4102 877 4224 730 4224 
C 589 4224 467 4108 467 3961 
C 467 3820 582 3699 730 3699 
C 870 3699 992 3814 992 3961 
z
M 243 2745 
L 243 2579 
C 602 2579 653 2540 653 2231 
L 653 443 
C 653 198 627 166 218 166 
L 218 0 
C 371 12 646 12 806 12 
C 960 12 1222 12 1370 0 
L 1370 166 
C 992 166 979 205 979 436 
L 979 2816 
L 243 2745 
z
" transform="scale(0.015625)"/>
       <path id="CMR17-6d" d="M 4326 1954 
C 4326 2276 4269 2816 3507 2816 
C 3072 2816 2771 2520 2656 2173 
L 2650 2173 
C 2573 2700 2195 2816 1837 2816 
C 1331 2816 1069 2424 973 2166 
L 966 2166 
L 966 2816 
L 211 2745 
L 211 2578 
C 589 2578 646 2540 646 2231 
L 646 443 
C 646 198 621 166 211 166 
L 211 0 
C 365 12 646 12 813 12 
C 979 12 1267 12 1421 0 
L 1421 166 
C 1011 166 986 192 986 443 
L 986 1678 
C 986 2269 1344 2713 1792 2713 
C 2266 2713 2317 2289 2317 1980 
L 2317 443 
C 2317 198 2291 166 1882 166 
L 1882 0 
C 2035 12 2317 12 2483 12 
C 2650 12 2938 12 3091 0 
L 3091 166 
C 2682 166 2656 192 2656 443 
L 2656 1678 
C 2656 2269 3014 2713 3462 2713 
C 3936 2713 3987 2289 3987 1980 
L 3987 443 
C 3987 198 3962 166 3552 166 
L 3552 0 
C 3706 12 3987 12 4154 12 
C 4320 12 4608 12 4762 0 
L 4762 166 
C 4352 166 4326 192 4326 443 
L 4326 1954 
z
" transform="scale(0.015625)"/>
       <path id="CMR17-65" d="M 2438 1503 
C 2464 1529 2464 1542 2464 1606 
C 2464 2251 2118 2816 1389 2816 
C 710 2816 173 2175 173 1394 
C 173 554 781 -64 1459 -64 
C 2176 -64 2458 619 2458 755 
C 2458 800 2419 800 2406 800 
C 2362 800 2355 787 2330 709 
C 2189 270 1837 51 1504 51 
C 1229 51 954 206 781 490 
C 582 819 582 1200 582 1503 
L 2438 1503 
z
M 589 1600 
C 634 2511 1126 2713 1382 2713 
C 1818 2713 2112 2308 2118 1600 
L 589 1600 
z
" transform="scale(0.015625)"/>
      </defs>
      <use xlink:href="#CMR17-54" transform="scale(0.996264)"/>
      <use xlink:href="#CMR17-69" transform="translate(66.509881 0) scale(0.996264)"/>
      <use xlink:href="#CMR17-6d" transform="translate(91.380939 0) scale(0.996264)"/>
      <use xlink:href="#CMR17-65" transform="translate(168.300529 0) scale(0.996264)"/>
     </g>
    </g>
   </g>
   <g id="matplotlib.axis_2">
    <g id="ytick_1">
     <g id="line2d_7">
      <path d="M 90 378.261626 
L 648 378.261626 
" clip-path="url(#p2f5423cef4)" style="fill: none; stroke: #cccccc; stroke-linecap: round"/>
     </g>
     <g id="text_8">
      <!-- $\mathdefault{−4}$ -->
      <g style="fill: #262626" transform="translate(46.626066 387.774559) scale(0.275 -0.275)">
       <defs>
        <path id="CMSY10-0" d="M 4218 1472 
C 4326 1472 4442 1472 4442 1600 
C 4442 1728 4326 1728 4218 1728 
L 755 1728 
C 646 1728 531 1728 531 1600 
C 531 1472 646 1472 755 1472 
L 4218 1472 
z
" transform="scale(0.015625)"/>
        <path id="CMR17-34" d="M 2150 4147 
C 2150 4281 2144 4288 2029 4288 
L 128 1254 
L 128 1088 
L 1779 1088 
L 1779 460 
C 1779 230 1766 166 1318 166 
L 1197 166 
L 1197 0 
C 1402 12 1747 12 1965 12 
C 2182 12 2528 12 2733 0 
L 2733 166 
L 2611 166 
C 2163 166 2150 230 2150 460 
L 2150 1088 
L 2803 1088 
L 2803 1254 
L 2150 1254 
L 2150 4147 
z
M 1798 3723 
L 1798 1254 
L 256 1254 
L 1798 3723 
z
" transform="scale(0.015625)"/>
       </defs>
       <use xlink:href="#CMSY10-0" transform="scale(0.996264)"/>
       <use xlink:href="#CMR17-34" transform="translate(77.487468 0) scale(0.996264)"/>
      </g>
     </g>
    </g>
    <g id="ytick_2">
     <g id="line2d_8">
      <path d="M 90 307.957671 
L 648 307.957671 
" clip-path="url(#p2f5423cef4)" style="fill: none; stroke: #cccccc; stroke-linecap: round"/>
     </g>
     <g id="text_9">
      <!-- $\mathdefault{−2}$ -->
      <g style="fill: #262626" transform="translate(46.626066 317.470604) scale(0.275 -0.275)">
       <use xlink:href="#CMSY10-0" transform="scale(0.996264)"/>
       <use xlink:href="#CMR17-32" transform="translate(77.487468 0) scale(0.996264)"/>
      </g>
     </g>
    </g>
    <g id="ytick_3">
     <g id="line2d_9">
      <path d="M 90 237.653715 
L 648 237.653715 
" clip-path="url(#p2f5423cef4)" style="fill: none; stroke: #cccccc; stroke-linecap: round"/>
     </g>
     <g id="text_10">
      <!-- $\mathdefault{0}$ -->
      <g style="fill: #262626" transform="translate(67.935119 247.166649) scale(0.275 -0.275)">
       <use xlink:href="#CMR17-30" transform="scale(0.996264)"/>
      </g>
     </g>
    </g>
    <g id="ytick_4">
     <g id="line2d_10">
      <path d="M 90 167.34976 
L 648 167.34976 
" clip-path="url(#p2f5423cef4)" style="fill: none; stroke: #cccccc; stroke-linecap: round"/>
     </g>
     <g id="text_11">
      <!-- $\mathdefault{2}$ -->
      <g style="fill: #262626" transform="translate(67.935119 176.862693) scale(0.275 -0.275)">
       <use xlink:href="#CMR17-32" transform="scale(0.996264)"/>
      </g>
     </g>
    </g>
    <g id="ytick_5">
     <g id="line2d_11">
      <path d="M 90 97.045804 
L 648 97.045804 
" clip-path="url(#p2f5423cef4)" style="fill: none; stroke: #cccccc; stroke-linecap: round"/>
     </g>
     <g id="text_12">
      <!-- $\mathdefault{4}$ -->
      <g style="fill: #262626" transform="translate(67.935119 106.558738) scale(0.275 -0.275)">
       <use xlink:href="#CMR17-34" transform="scale(0.996264)"/>
      </g>
     </g>
    </g>
    <g id="text_13">
     <!-- Amplitude -->
     <g style="fill: #262626" transform="translate(36.812616 281.787972) rotate(-90) scale(0.3 -0.3)">
      <defs>
       <path id="CMR17-41" d="M 2323 4441 
C 2291 4524 2278 4544 2214 4544 
C 2150 4544 2138 4524 2106 4441 
L 749 580 
C 627 236 371 166 147 166 
L 147 0 
C 262 12 518 12 640 12 
C 800 12 1056 12 1210 0 
L 1210 166 
C 909 179 864 382 864 459 
C 864 516 877 548 890 586 
L 1229 1536 
L 2906 1536 
L 3290 453 
C 3322 376 3322 363 3322 338 
C 3322 166 3046 166 2925 166 
L 2925 0 
C 3110 12 3443 12 3642 12 
C 3808 12 4128 12 4282 0 
L 4282 166 
C 3942 166 3827 166 3744 402 
L 2323 4441 
z
M 2067 3924 
L 2848 1702 
L 1286 1702 
L 2067 3924 
z
" transform="scale(0.015625)"/>
       <path id="CMR17-70" d="M 1408 -1114 
C 998 -1114 973 -1088 973 -834 
L 973 380 
C 1158 109 1427 -64 1766 -64 
C 2406 -64 3053 503 3053 1382 
C 3053 2196 2496 2816 1837 2816 
C 1453 2816 1139 2603 960 2345 
L 960 2816 
L 198 2745 
L 198 2577 
C 576 2577 634 2539 634 2228 
L 634 -834 
C 634 -1081 608 -1114 198 -1114 
L 198 -1280 
C 352 -1268 634 -1268 800 -1268 
C 966 -1268 1254 -1268 1408 -1280 
L 1408 -1114 
z
M 973 2015 
C 973 2106 973 2241 1222 2481 
C 1254 2506 1472 2700 1792 2700 
C 2259 2700 2643 2112 2643 1376 
C 2643 639 2234 38 1728 38 
C 1498 38 1248 148 1056 451 
C 973 594 973 632 973 736 
L 973 2015 
z
" transform="scale(0.015625)"/>
       <path id="CMR17-6c" d="M 979 4416 
L 218 4345 
L 218 4179 
C 595 4179 653 4141 653 3835 
L 653 439 
C 653 198 627 166 218 166 
L 218 0 
C 371 12 653 12 813 12 
C 979 12 1261 12 1414 0 
L 1414 166 
C 1005 166 979 191 979 439 
L 979 4416 
z
" transform="scale(0.015625)"/>
       <path id="CMR17-74" d="M 966 2585 
L 1862 2585 
L 1862 2752 
L 966 2752 
L 966 3968 
L 851 3968 
C 838 3292 614 2700 70 2687 
L 70 2585 
L 627 2585 
L 627 778 
C 627 655 627 -64 1370 -64 
C 1747 -64 1965 308 1965 784 
L 1965 1151 
L 1850 1151 
L 1850 790 
C 1850 347 1677 51 1408 51 
C 1222 51 966 179 966 765 
L 966 2585 
z
" transform="scale(0.015625)"/>
       <path id="CMR17-75" d="M 1882 2745 
L 1882 2579 
C 2259 2579 2317 2540 2317 2229 
L 2317 1053 
C 2317 510 2029 38 1555 38 
C 1030 38 986 355 986 691 
L 986 2816 
L 211 2745 
L 211 2579 
C 467 2579 640 2579 646 2320 
L 646 1079 
C 646 646 646 368 813 187 
C 896 103 1056 -64 1517 -64 
C 2061 -64 2272 400 2323 536 
L 2330 536 
L 2330 -64 
L 3091 -13 
L 3091 154 
C 2714 154 2656 193 2656 503 
L 2656 2816 
L 1882 2745 
z
" transform="scale(0.015625)"/>
       <path id="CMR17-64" d="M 1869 4345 
L 1869 4179 
C 2246 4179 2304 4141 2304 3843 
L 2304 2371 
C 2278 2403 2016 2816 1498 2816 
C 845 2816 211 2228 211 1376 
C 211 529 806 -64 1434 -64 
C 1978 -64 2259 361 2291 406 
L 2291 -64 
L 3066 -13 
L 3066 154 
C 2688 154 2630 193 2630 503 
L 2630 4416 
L 1869 4345 
z
M 2291 762 
C 2291 568 2176 393 2029 264 
C 1811 70 1594 38 1472 38 
C 1286 38 621 135 621 1369 
C 621 2636 1363 2713 1530 2713 
C 1824 2713 2061 2545 2208 2313 
C 2291 2177 2291 2157 2291 2041 
L 2291 762 
z
" transform="scale(0.015625)"/>
      </defs>
      <use xlink:href="#CMR17-41" transform="scale(0.996264)"/>
      <use xlink:href="#CMR17-6d" transform="translate(69.07243 0) scale(0.996264)"/>
      <use xlink:href="#CMR17-70" transform="translate(145.99202 0) scale(0.996264)"/>
      <use xlink:href="#CMR17-6c" transform="translate(196.887389 0) scale(0.996264)"/>
      <use xlink:href="#CMR17-69" transform="translate(221.758448 0) scale(0.996264)"/>
      <use xlink:href="#CMR17-74" transform="translate(246.629506 0) scale(0.996264)"/>
      <use xlink:href="#CMR17-75" transform="translate(281.910274 0) scale(0.996264)"/>
      <use xlink:href="#CMR17-64" transform="translate(332.805644 0) scale(0.996264)"/>
      <use xlink:href="#CMR17-65" transform="translate(383.701014 0) scale(0.996264)"/>
     </g>
    </g>
   </g>
   <g id="line2d_12">
    <path d="M 115.363636 237.653715 
L 153.160428 237.653715 
L 155.149733 200.159338 
L 157.139037 201.086186 
L 159.128342 203.820909 
L 161.117647 208.228304 
L 163.106952 214.090471 
L 165.096257 221.117589 
L 169.074866 237.236597 
L 173.053476 253.437074 
L 175.042781 260.562255 
L 177.032086 266.554853 
L 179.02139 271.118599 
L 181.010695 274.027862 
L 183 275.138812 
L 184.989305 274.396524 
L 186.97861 271.837695 
L 188.967914 267.588833 
L 190.957219 261.859999 
L 192.946524 254.934422 
L 194.935829 247.154499 
L 200.903743 222.630938 
L 202.893048 215.411221 
L 204.882353 237.653715 
L 246.657754 237.653715 
L 248.647059 149.783957 
L 304.347594 149.783957 
L 306.336898 237.653715 
L 340.15508 237.653715 
L 342.144385 121.453654 
L 433.652406 237.653715 
L 435.641711 237.653715 
L 521.181818 130.19831 
L 523.171123 237.653715 
L 529.139037 237.653715 
L 537.096257 219.748598 
L 541.074866 211.297132 
L 545.053476 203.434428 
L 549.032086 196.336127 
L 551.02139 193.123946 
L 553.010695 190.160793 
L 555 187.46324 
L 556.989305 185.046372 
L 558.97861 182.923706 
L 560.967914 181.107112 
L 562.957219 179.60675 
L 564.946524 178.43101 
L 566.935829 177.586467 
L 568.925134 177.077845 
L 570.914439 176.907988 
L 572.903743 177.077845 
L 574.893048 177.586467 
L 576.882353 178.43101 
L 578.871658 179.60675 
L 580.860963 181.107112 
L 582.850267 182.923706 
L 584.839572 185.046372 
L 586.828877 187.46324 
L 588.818182 190.160793 
L 590.807487 193.123946 
L 592.796791 196.336127 
L 596.775401 203.434428 
L 600.754011 211.297132 
L 604.73262 219.748598 
L 610.700535 233.114181 
L 612.68984 237.653715 
L 622.636364 237.653715 
L 622.636364 237.653715 
" clip-path="url(#p2f5423cef4)" style="fill: none; stroke: #4c72b0; stroke-width: 3; stroke-linecap: round"/>
   </g>
   <g id="line2d_13">
    <path d="M 115.363636 237.653715 
L 155.149733 237.653715 
L 161.117647 203.020033 
L 165.096257 181.733129 
L 167.085561 172.012277 
L 169.074866 163.06101 
L 171.064171 154.984275 
L 173.053476 147.876764 
L 175.042781 141.821805 
L 177.032086 136.890387 
L 179.02139 133.140328 
L 181.010695 130.615592 
L 183 129.34578 
L 184.989305 129.34578 
L 186.97861 130.615592 
L 188.967914 133.140328 
L 190.957219 136.890387 
L 192.946524 141.821805 
L 194.935829 147.876764 
L 196.925134 154.984275 
L 198.914439 163.06101 
L 200.903743 172.012277 
L 202.893048 181.733129 
L 206.871658 203.020033 
L 210.850267 225.926368 
L 212.839572 237.653715 
L 246.657754 237.653715 
L 248.647059 208.322697 
L 308.326203 208.322697 
L 310.315508 237.653715 
L 340.15508 237.653715 
L 342.144385 140.828944 
L 433.652406 237.653715 
L 435.641711 237.653715 
L 457.524064 185.162113 
L 459.513369 185.162113 
L 481.395722 237.653715 
L 529.139037 237.653715 
L 612.68984 115.988086 
L 614.679144 237.653715 
L 622.636364 237.653715 
L 622.636364 237.653715 
" clip-path="url(#p2f5423cef4)" style="fill: none; stroke: #dd8452; stroke-width: 3; stroke-linecap: round"/>
   </g>
   <g id="line2d_14">
    <path d="M 115.363636 237.653715 
L 155.149733 237.653715 
L 163.106952 229.386371 
L 167.085561 225.521051 
L 171.064171 221.96996 
L 175.042781 218.825071 
L 179.02139 216.167834 
L 181.010695 215.044136 
L 183 214.067069 
L 184.989305 213.242972 
L 186.97861 212.577187 
L 188.967914 212.074033 
L 190.957219 211.736773 
L 192.946524 211.567595 
L 194.935829 211.567595 
L 196.925134 211.736773 
L 198.914439 212.074033 
L 200.903743 212.577187 
L 202.893048 213.242972 
L 204.882353 214.067069 
L 206.871658 215.044136 
L 208.860963 216.167834 
L 212.839572 218.825071 
L 216.818182 221.96996 
L 220.796791 225.521051 
L 224.775401 229.386371 
L 230.743316 235.552951 
L 232.73262 237.653715 
L 246.657754 237.653715 
L 248.647059 124.32269 
L 306.336898 124.32269 
L 308.326203 237.653715 
L 342.144385 237.653715 
L 377.951872 180.284584 
L 379.941176 180.284584 
L 415.748663 237.653715 
L 435.641711 237.653715 
L 507.256684 199.956022 
L 509.245989 237.653715 
L 527.149733 237.653715 
L 529.139037 173.647615 
L 600.754011 237.653715 
L 622.636364 237.653715 
L 622.636364 237.653715 
" clip-path="url(#p2f5423cef4)" style="fill: none; stroke: #55a868; stroke-width: 3; stroke-linecap: round"/>
   </g>
   <g id="line2d_15">
    <path d="M 115.363636 237.653715 
L 153.160428 237.653715 
L 155.149733 199.231976 
L 157.139037 199.592366 
L 159.128342 200.666774 
L 161.117647 202.435046 
L 163.106952 204.864009 
L 165.096257 207.908097 
L 167.085561 211.510202 
L 169.074866 215.602752 
L 171.064171 220.108971 
L 175.042781 230.0181 
L 183 250.764525 
L 184.989305 255.576543 
L 186.97861 260.052336 
L 188.967914 264.107937 
L 190.957219 267.667265 
L 192.946524 270.663549 
L 194.935829 273.040578 
L 196.925134 274.753762 
L 198.914439 275.77096 
L 200.903743 276.073091 
L 202.893048 275.654486 
L 204.882353 274.522999 
L 206.871658 272.699857 
L 208.860963 270.219259 
L 210.850267 267.127743 
L 212.839572 263.483303 
L 214.828877 259.354308 
L 216.818182 254.818217 
L 220.796791 244.871169 
L 226.764706 229.184648 
L 228.754011 237.653715 
L 246.657754 237.653715 
L 248.647059 166.294276 
L 324.240642 166.294276 
L 326.229947 237.653715 
L 342.144385 237.653715 
L 346.122995 213.24921 
L 350.101604 190.507831 
L 352.090909 180.252523 
L 354.080214 170.979366 
L 356.069519 162.847025 
L 358.058824 155.994648 
L 360.048128 150.53948 
L 362.037433 146.57486 
L 364.026738 144.168625 
L 366.016043 143.361946 
L 368.005348 144.168625 
L 369.994652 146.57486 
L 371.983957 150.53948 
L 373.973262 155.994648 
L 375.962567 162.847025 
L 377.951872 170.979366 
L 379.941176 180.252523 
L 381.930481 190.507831 
L 385.909091 213.24921 
L 389.887701 237.653715 
L 433.652406 237.653715 
L 435.641711 66.96 
L 509.245989 237.653715 
L 529.139037 237.653715 
L 553.010695 174.45702 
L 555 174.45702 
L 578.871658 237.653715 
L 622.636364 237.653715 
L 622.636364 237.653715 
" clip-path="url(#p2f5423cef4)" style="fill: none; stroke: #c44e52; stroke-width: 3; stroke-linecap: round"/>
   </g>
   <g id="line2d_16">
    <path d="M 115.363636 237.653715 
L 153.160428 237.653715 
L 155.149733 152.606954 
L 157.139037 152.899516 
L 159.128342 153.775189 
L 161.117647 155.227948 
L 163.106952 157.247799 
L 165.096257 159.820844 
L 167.085561 162.929382 
L 169.074866 166.552024 
L 171.064171 170.663849 
L 173.053476 175.236565 
L 175.042781 180.238712 
L 177.032086 185.635877 
L 181.010695 197.464263 
L 184.989305 210.396764 
L 190.957219 231.082628 
L 198.914439 259.068295 
L 202.893048 272.369442 
L 206.871658 284.716853 
L 208.860963 290.425617 
L 210.850267 295.77131 
L 212.839572 300.717151 
L 214.828877 305.229115 
L 216.818182 237.653715 
L 246.657754 237.653715 
L 248.647059 173.213389 
L 338.165775 237.653715 
L 342.144385 237.653715 
L 433.652406 204.774195 
L 435.641711 175.367168 
L 507.256684 175.367168 
L 509.245989 237.653715 
L 529.139037 237.653715 
L 535.106952 214.339663 
L 539.085561 199.584862 
L 543.064171 185.986764 
L 545.053476 179.752319 
L 547.042781 173.95854 
L 549.032086 168.649519 
L 551.02139 163.865661 
L 553.010695 159.643376 
L 555 156.014796 
L 556.989305 153.007537 
L 558.97861 150.644487 
L 560.967914 148.94363 
L 562.957219 147.91791 
L 564.946524 147.575134 
L 566.935829 147.91791 
L 568.925134 148.94363 
L 570.914439 150.644487 
L 572.903743 153.007537 
L 574.893048 156.014796 
L 576.882353 159.643376 
L 578.871658 163.865661 
L 580.860963 168.649519 
L 582.850267 173.95854 
L 584.839572 179.752319 
L 586.828877 185.986764 
L 590.807487 199.584862 
L 594.786096 214.339663 
L 600.754011 237.653715 
L 622.636364 237.653715 
L 622.636364 237.653715 
" clip-path="url(#p2f5423cef4)" style="fill: none; stroke: #8172b3; stroke-width: 3; stroke-linecap: round"/>
   </g>
   <g id="line2d_17">
    <path d="M 115.363636 237.653715 
L 153.160428 237.653715 
L 155.149733 149.925242 
L 157.139037 151.207776 
L 159.128342 155.017879 
L 161.117647 161.244147 
L 163.106952 169.704534 
L 165.096257 180.151668 
L 167.085561 192.280088 
L 169.074866 205.735175 
L 173.053476 235.024423 
L 177.032086 264.618933 
L 179.02139 278.447232 
L 181.010695 291.082781 
L 183 302.156132 
L 184.989305 311.343516 
L 186.97861 318.376304 
L 188.967914 323.048867 
L 190.957219 325.224585 
L 192.946524 324.839842 
L 194.935829 321.90589 
L 196.925134 316.508511 
L 198.914439 308.805519 
L 200.903743 299.02214 
L 202.893048 287.444426 
L 204.882353 237.653715 
L 246.657754 237.653715 
L 248.647059 193.813458 
L 332.197861 193.813458 
L 334.187166 237.653715 
L 342.144385 237.653715 
L 411.770053 180.134804 
L 413.759358 237.653715 
L 435.641711 237.653715 
L 475.427807 123.29755 
L 477.417112 123.29755 
L 517.203209 237.653715 
L 529.139037 237.653715 
L 537.096257 198.358113 
L 541.074866 179.810039 
L 545.053476 162.554098 
L 547.042781 154.532504 
L 549.032086 146.975757 
L 551.02139 139.926119 
L 553.010695 133.423013 
L 555 127.502807 
L 556.989305 122.19861 
L 558.97861 117.540084 
L 560.967914 113.553283 
L 562.957219 110.260502 
L 564.946524 107.680155 
L 566.935829 105.826673 
L 568.925134 104.710422 
L 570.914439 104.337643 
L 572.903743 104.710422 
L 574.893048 105.826673 
L 576.882353 107.680155 
L 578.871658 110.260502 
L 580.860963 113.553283 
L 582.850267 117.540084 
L 584.839572 122.19861 
L 586.828877 127.502807 
L 588.818182 133.423013 
L 590.807487 139.926119 
L 592.796791 146.975757 
L 594.786096 154.532504 
L 598.764706 170.995679 
L 602.743316 188.947885 
L 606.721925 207.988098 
L 612.68984 237.653715 
L 622.636364 237.653715 
L 622.636364 237.653715 
" clip-path="url(#p2f5423cef4)" style="fill: none; stroke: #937860; stroke-width: 3; stroke-linecap: round"/>
   </g>
   <g id="line2d_18">
    <path d="M 115.363636 237.653715 
L 155.149733 237.653715 
L 161.117647 222.165197 
L 165.096257 212.263622 
L 169.074866 202.987236 
L 173.053476 194.564454 
L 175.042781 190.738941 
L 177.032086 187.202673 
L 179.02139 183.977452 
L 181.010695 181.083163 
L 183 178.537651 
L 184.989305 176.356609 
L 186.97861 174.553483 
L 188.967914 173.139392 
L 190.957219 172.123053 
L 192.946524 171.510732 
L 194.935829 171.306205 
L 196.925134 171.510732 
L 198.914439 172.123053 
L 200.903743 173.139392 
L 202.893048 174.553483 
L 204.882353 176.356609 
L 206.871658 178.537651 
L 208.860963 181.083163 
L 210.850267 183.977452 
L 212.839572 187.202673 
L 214.828877 190.738941 
L 216.818182 194.564454 
L 220.796791 202.987236 
L 224.775401 212.263622 
L 228.754011 222.165197 
L 234.721925 237.653715 
L 248.647059 237.653715 
L 290.42246 137.173208 
L 292.411765 137.173208 
L 334.187166 237.653715 
L 340.15508 237.653715 
L 342.144385 123.934236 
L 393.86631 237.653715 
L 435.641711 237.653715 
L 481.395722 149.945416 
L 483.385027 237.653715 
L 527.149733 237.653715 
L 529.139037 152.961956 
L 578.871658 152.961956 
L 580.860963 237.653715 
L 622.636364 237.653715 
L 622.636364 237.653715 
" clip-path="url(#p2f5423cef4)" style="fill: none; stroke: #da8bc3; stroke-width: 3; stroke-linecap: round"/>
   </g>
   <g id="line2d_19">
    <path d="M 115.363636 237.653715 
L 155.149733 237.653715 
L 186.97861 190.89563 
L 188.967914 190.89563 
L 220.796791 237.653715 
L 248.647059 237.653715 
L 254.614973 219.23685 
L 258.593583 207.463229 
L 262.572193 196.432997 
L 266.550802 186.417756 
L 268.540107 181.86897 
L 270.529412 177.664115 
L 272.518717 173.829116 
L 274.508021 170.387617 
L 276.497326 167.360835 
L 278.486631 164.767433 
L 280.475936 162.623399 
L 282.465241 160.941951 
L 284.454545 159.733457 
L 286.44385 159.005368 
L 288.433155 158.762172 
L 290.42246 159.005368 
L 292.411765 159.733457 
L 294.40107 160.941951 
L 296.390374 162.623399 
L 298.379679 164.767433 
L 300.368984 167.360835 
L 302.358289 170.387617 
L 304.347594 173.829116 
L 306.336898 177.664115 
L 308.326203 181.86897 
L 310.315508 186.417756 
L 314.294118 196.432997 
L 318.272727 207.463229 
L 322.251337 219.23685 
L 328.219251 237.653715 
L 340.15508 237.653715 
L 342.144385 144.566814 
L 356.069519 144.673666 
L 369.994652 144.993975 
L 383.919786 145.527006 
L 397.84492 146.271536 
L 409.780749 147.076757 
L 411.770053 237.653715 
L 433.652406 237.653715 
L 435.641711 196.534447 
L 493.331551 196.534447 
L 495.320856 237.653715 
L 527.149733 237.653715 
L 529.139037 141.173265 
L 606.721925 237.653715 
L 622.636364 237.653715 
L 622.636364 237.653715 
" clip-path="url(#p2f5423cef4)" style="fill: none; stroke: #8c8c8c; stroke-width: 3; stroke-linecap: round"/>
   </g>
   <g id="line2d_20">
    <path d="M 115.363636 237.653715 
L 155.149733 237.653715 
L 230.743316 97.088011 
L 232.73262 237.653715 
L 246.657754 237.653715 
L 248.647059 123.839407 
L 336.176471 123.839407 
L 338.165775 237.653715 
L 342.144385 237.653715 
L 369.994652 158.051025 
L 371.983957 158.051025 
L 399.834225 237.653715 
L 433.652406 237.653715 
L 435.641711 180.296754 
L 437.631016 180.76331 
L 439.620321 182.155387 
L 441.609626 184.450338 
L 443.59893 187.610828 
L 445.588235 191.585441 
L 447.57754 196.309515 
L 449.566845 201.706196 
L 451.55615 207.68769 
L 453.545455 214.156686 
L 457.524064 228.130002 
L 465.481283 256.982707 
L 467.470588 263.699301 
L 469.459893 269.992172 
L 471.449198 275.758946 
L 473.438503 280.905804 
L 475.427807 285.349016 
L 477.417112 289.016298 
L 479.406417 291.847987 
L 481.395722 293.798017 
L 483.385027 294.834665 
L 485.374332 294.941064 
L 487.363636 294.115484 
L 489.352941 292.371356 
L 491.342246 289.737055 
L 493.331551 286.255436 
L 495.320856 281.98314 
L 497.31016 276.989671 
L 499.299465 271.356266 
L 501.28877 265.17457 
L 505.26738 251.575862 
L 515.213904 215.688421 
L 517.203209 209.122794 
L 519.192513 237.653715 
L 529.139037 237.653715 
L 535.106952 223.335859 
L 539.085561 214.274495 
L 543.064171 205.923497 
L 545.053476 202.094738 
L 547.042781 198.536605 
L 549.032086 195.276177 
L 551.02139 192.338267 
L 553.010695 189.745235 
L 555 187.516816 
L 556.989305 185.669969 
L 558.97861 184.218749 
L 560.967914 183.174202 
L 562.957219 182.544277 
L 564.946524 182.333768 
L 566.935829 182.544277 
L 568.925134 183.174202 
L 570.914439 184.218749 
L 572.903743 185.669969 
L 574.893048 187.516816 
L 576.882353 189.745235 
L 578.871658 192.338267 
L 580.860963 195.276177 
L 582.850267 198.536605 
L 584.839572 202.094738 
L 586.828877 205.923497 
L 590.807487 214.274495 
L 594.786096 223.335859 
L 600.754011 237.653715 
L 622.636364 237.653715 
L 622.636364 237.653715 
" clip-path="url(#p2f5423cef4)" style="fill: none; stroke: #ccb974; stroke-width: 3; stroke-linecap: round"/>
   </g>
   <g id="line2d_21">
    <path d="M 115.363636 237.653715 
L 153.160428 237.653715 
L 155.149733 165.328618 
L 242.679144 237.653715 
L 246.657754 237.653715 
L 248.647059 188.459873 
L 250.636364 188.821296 
L 252.625668 189.900255 
L 254.614973 191.680894 
L 256.604278 194.137051 
L 258.593583 197.232634 
L 260.582888 200.922157 
L 262.572193 205.151408 
L 264.561497 209.858242 
L 266.550802 214.973499 
L 270.529412 226.12373 
L 280.475936 255.437597 
L 282.465241 260.856612 
L 284.454545 265.934687 
L 286.44385 270.597206 
L 288.433155 274.775659 
L 290.42246 278.408649 
L 292.411765 281.442793 
L 294.40107 283.833507 
L 296.390374 285.545663 
L 298.379679 286.554103 
L 300.368984 286.844009 
L 302.358289 237.653715 
L 342.144385 237.653715 
L 391.877005 162.506347 
L 393.86631 237.653715 
L 435.641711 237.653715 
L 441.609626 225.550805 
L 445.588235 217.940668 
L 449.566845 211.001835 
L 451.55615 207.85912 
L 453.545455 204.970601 
L 455.534759 202.360923 
L 457.524064 200.05235 
L 459.513369 198.064579 
L 461.502674 196.414569 
L 463.491979 195.116397 
L 465.481283 194.181138 
L 467.470588 193.616772 
L 469.459893 193.428113 
L 471.449198 193.616772 
L 473.438503 194.181138 
L 475.427807 195.116397 
L 477.417112 196.414569 
L 479.406417 198.064579 
L 481.395722 200.05235 
L 483.385027 202.360923 
L 485.374332 204.970601 
L 487.363636 207.85912 
L 489.352941 211.001835 
L 493.331551 217.940668 
L 497.31016 225.550805 
L 503.278075 237.653715 
L 527.149733 237.653715 
L 529.139037 117.737512 
L 584.839572 117.737512 
L 586.828877 237.653715 
L 622.636364 237.653715 
L 622.636364 237.653715 
" clip-path="url(#p2f5423cef4)" style="fill: none; stroke: #64b5cd; stroke-width: 3; stroke-linecap: round"/>
   </g>
   <g id="line2d_22">
    <path d="M 115.363636 237.653715 
L 155.149733 237.653715 
L 181.010695 120.077967 
L 183 120.077967 
L 208.860963 237.653715 
L 246.657754 237.653715 
L 248.647059 139.188264 
L 316.283422 139.188264 
L 318.272727 237.653715 
L 340.15508 237.653715 
L 342.144385 173.310924 
L 346.122995 173.500545 
L 350.101604 174.06829 
L 354.080214 175.010813 
L 358.058824 176.322559 
L 362.037433 177.995796 
L 366.016043 180.020661 
L 369.994652 182.385221 
L 373.973262 185.075538 
L 377.951872 188.075755 
L 381.930481 191.368188 
L 385.909091 194.933433 
L 389.887701 198.750474 
L 393.86631 202.796815 
L 399.834225 209.243756 
L 405.802139 216.067229 
L 413.759358 225.594033 
L 423.705882 237.874783 
L 425.695187 237.653715 
L 435.641711 237.653715 
L 489.352941 140.824065 
L 491.342246 237.653715 
L 529.139037 237.653715 
L 539.085561 231.669116 
L 545.053476 228.41009 
L 549.032086 226.474292 
L 553.010695 224.776764 
L 556.989305 223.353686 
L 560.967914 222.235388 
L 564.946524 221.445706 
L 568.925134 221.001468 
L 572.903743 220.912145 
L 576.882353 221.179639 
L 580.860963 221.798249 
L 584.839572 222.754791 
L 588.818182 224.028878 
L 592.796791 225.593354 
L 596.775401 227.414877 
L 600.754011 229.454622 
L 606.721925 232.827264 
L 614.679144 237.653715 
L 622.636364 237.653715 
L 622.636364 237.653715 
" clip-path="url(#p2f5423cef4)" style="fill: none; stroke: #4c72b0; stroke-width: 3; stroke-linecap: round"/>
   </g>
   <g id="line2d_23">
    <path d="M 115.363636 237.653715 
L 153.160428 237.653715 
L 155.149733 189.044127 
L 202.893048 237.653715 
L 248.647059 237.653715 
L 318.272727 158.539228 
L 320.262032 237.653715 
L 342.144385 237.653715 
L 348.112299 215.996363 
L 352.090909 202.215127 
L 356.069519 189.400562 
L 358.058824 183.466313 
L 360.048128 177.902218 
L 362.037433 172.746287 
L 364.026738 168.033739 
L 366.016043 163.796766 
L 368.005348 160.064311 
L 369.994652 156.861871 
L 371.983957 154.21132 
L 373.973262 152.130766 
L 375.962567 150.634421 
L 377.951872 149.732505 
L 379.941176 149.43118 
L 381.930481 149.732505 
L 383.919786 150.634421 
L 385.909091 152.130766 
L 387.898396 154.21132 
L 389.887701 156.861871 
L 391.877005 160.064311 
L 393.86631 163.796766 
L 395.855615 168.033739 
L 397.84492 172.746287 
L 399.834225 177.902218 
L 401.823529 183.466313 
L 405.802139 195.66443 
L 409.780749 209.007905 
L 415.748663 230.368356 
L 417.737968 237.653715 
L 433.652406 237.653715 
L 435.641711 178.612014 
L 493.331551 178.612014 
L 495.320856 237.653715 
L 529.139037 237.653715 
L 564.946524 132.119674 
L 566.935829 132.119674 
L 602.743316 237.653715 
L 622.636364 237.653715 
L 622.636364 237.653715 
" clip-path="url(#p2f5423cef4)" style="fill: none; stroke: #dd8452; stroke-width: 3; stroke-linecap: round"/>
   </g>
   <g id="line2d_24">
    <path d="M 115.363636 237.653715 
L 155.149733 237.653715 
L 208.860963 191.119925 
L 210.850267 237.653715 
L 248.647059 237.653715 
L 280.475936 86.526693 
L 282.465241 86.526693 
L 314.294118 237.653715 
L 342.144385 237.653715 
L 346.122995 211.188697 
L 350.101604 186.386574 
L 352.090909 175.102932 
L 354.080214 164.805754 
L 356.069519 155.657431 
L 358.058824 147.802239 
L 360.048128 141.364058 
L 362.037433 136.444422 
L 364.026738 133.120918 
L 366.016043 131.445958 
L 368.005348 131.445958 
L 369.994652 133.120918 
L 371.983957 136.444422 
L 373.973262 141.364058 
L 375.962567 147.802239 
L 377.951872 155.657431 
L 379.941176 164.805754 
L 381.930481 175.102932 
L 383.919786 186.386574 
L 387.898396 211.188697 
L 391.877005 237.653715 
L 433.652406 237.653715 
L 435.641711 169.442007 
L 437.631016 169.64678 
L 439.620321 170.259869 
L 441.609626 171.277592 
L 443.59893 172.69384 
L 445.588235 174.500109 
L 447.57754 176.685554 
L 449.566845 179.237054 
L 451.55615 182.13929 
L 453.545455 185.374836 
L 455.534759 188.924267 
L 457.524064 192.76627 
L 461.502674 201.234108 
L 465.481283 210.575292 
L 469.459893 220.565818 
L 477.417112 241.526779 
L 483.385027 257.114937 
L 487.363636 266.975097 
L 491.342246 276.132129 
L 495.320856 284.366445 
L 497.31016 288.07488 
L 499.299465 291.480586 
L 501.28877 294.563113 
L 503.278075 237.653715 
L 527.149733 237.653715 
L 529.139037 119.274937 
L 600.754011 237.653715 
L 622.636364 237.653715 
L 622.636364 237.653715 
" clip-path="url(#p2f5423cef4)" style="fill: none; stroke: #55a868; stroke-width: 3; stroke-linecap: round"/>
   </g>
   <g id="line2d_25">
    <path d="M 115.363636 237.653715 
L 155.149733 237.653715 
L 240.68984 159.059694 
L 242.679144 237.653715 
L 246.657754 237.653715 
L 248.647059 157.892184 
L 338.165775 237.653715 
L 340.15508 237.653715 
L 342.144385 166.261978 
L 344.13369 166.794073 
L 346.122995 168.382426 
L 348.112299 171.00336 
L 350.101604 174.617808 
L 352.090909 179.17189 
L 354.080214 184.597722 
L 356.069519 190.814425 
L 358.058824 197.729331 
L 360.048128 205.239363 
L 364.026738 221.589817 
L 373.973262 264.391645 
L 375.962567 272.259217 
L 377.951872 279.610948 
L 379.941176 286.33725 
L 381.930481 292.337858 
L 383.919786 297.523326 
L 385.909091 301.816357 
L 387.898396 305.152958 
L 389.887701 307.483392 
L 391.877005 237.653715 
L 435.641711 237.653715 
L 439.620321 214.184694 
L 443.59893 192.079606 
L 445.588235 181.945186 
L 447.57754 172.623121 
L 449.566845 164.249348 
L 451.55615 156.945977 
L 453.545455 150.819506 
L 455.534759 145.959273 
L 457.524064 142.436152 
L 459.513369 140.301517 
L 461.502674 139.586497 
L 463.491979 140.301517 
L 465.481283 142.436152 
L 467.470588 145.959273 
L 469.459893 150.819506 
L 471.449198 156.945977 
L 473.438503 164.249348 
L 475.427807 172.623121 
L 477.417112 181.945186 
L 479.406417 192.079606 
L 483.385027 214.184694 
L 487.363636 237.653715 
L 527.149733 237.653715 
L 529.139037 122.16767 
L 608.71123 122.16767 
L 610.700535 237.653715 
L 622.636364 237.653715 
L 622.636364 237.653715 
" clip-path="url(#p2f5423cef4)" style="fill: none; stroke: #c44e52; stroke-width: 3; stroke-linecap: round"/>
   </g>
   <g id="line2d_26">
    <path d="M 115.363636 237.653715 
L 155.149733 237.653715 
L 190.957219 120.510042 
L 192.946524 120.510042 
L 228.754011 237.653715 
L 246.657754 237.653715 
L 248.647059 151.353454 
L 330.208556 237.653715 
L 342.144385 237.653715 
L 389.887701 161.304319 
L 391.877005 237.653715 
L 433.652406 237.653715 
L 435.641711 165.277878 
L 503.278075 165.277878 
L 505.26738 237.653715 
L 527.149733 237.653715 
L 529.139037 228.365448 
L 535.106952 228.458977 
L 541.074866 228.737682 
L 547.042781 229.195949 
L 555 230.069842 
L 562.957219 231.214905 
L 570.914439 232.590197 
L 580.860963 234.557511 
L 594.786096 237.57531 
L 610.700535 241.015192 
L 612.68984 237.653715 
L 622.636364 237.653715 
L 622.636364 237.653715 
" clip-path="url(#p2f5423cef4)" style="fill: none; stroke: #8172b3; stroke-width: 3; stroke-linecap: round"/>
   </g>
   <g id="line2d_27">
    <path d="M 115.363636 237.653715 
L 155.149733 237.653715 
L 161.117647 230.059675 
L 165.096257 225.284652 
L 169.074866 220.930842 
L 171.064171 218.958927 
L 173.053476 217.146509 
L 175.042781 215.509052 
L 177.032086 214.060525 
L 179.02139 212.813287 
L 181.010695 211.777979 
L 183 210.963433 
L 184.989305 210.376599 
L 186.97861 210.022485 
L 188.967914 209.90411 
L 190.957219 210.022485 
L 192.946524 210.376599 
L 194.935829 210.963433 
L 196.925134 211.777979 
L 198.914439 212.813287 
L 200.903743 214.060525 
L 202.893048 215.509052 
L 204.882353 217.146509 
L 206.871658 218.958927 
L 210.850267 223.04543 
L 214.828877 227.629401 
L 220.796791 235.093305 
L 222.786096 237.653715 
L 248.647059 237.653715 
L 310.315508 89.199571 
L 312.304813 237.653715 
L 340.15508 237.653715 
L 342.144385 175.638622 
L 413.759358 175.638622 
L 415.748663 237.653715 
L 433.652406 237.653715 
L 435.641711 152.355203 
L 517.203209 237.653715 
L 527.149733 237.653715 
L 529.139037 193.743721 
L 531.128342 193.92346 
L 533.117647 194.461207 
L 535.106952 195.352558 
L 537.096257 196.590217 
L 539.085561 198.164051 
L 541.074866 200.061175 
L 543.064171 202.26606 
L 545.053476 204.760652 
L 547.042781 207.524531 
L 549.032086 210.535069 
L 553.010695 217.195719 
L 556.989305 224.524933 
L 562.957219 236.244309 
L 568.925134 248.066964 
L 572.903743 255.576662 
L 576.882353 262.500642 
L 578.871658 265.671321 
L 580.860963 268.612628 
L 582.850267 271.300483 
L 584.839572 273.712881 
L 586.828877 275.830074 
L 588.818182 277.634727 
L 590.807487 279.112067 
L 592.796791 280.25 
L 594.786096 281.039208 
L 596.775401 281.473232 
L 598.764706 281.548518 
L 600.754011 281.26445 
L 602.743316 280.623353 
L 604.73262 279.630476 
L 606.721925 237.653715 
L 622.636364 237.653715 
L 622.636364 237.653715 
" clip-path="url(#p2f5423cef4)" style="fill: none; stroke: #937860; stroke-width: 3; stroke-linecap: round"/>
   </g>
   <g id="line2d_28">
    <path d="M 115.363636 237.653715 
L 153.160428 237.653715 
L 155.149733 245.560644 
L 157.139037 245.443949 
L 159.128342 245.097311 
L 161.117647 244.530961 
L 163.106952 243.761615 
L 165.096257 242.811983 
L 169.074866 240.488473 
L 181.010695 232.772032 
L 183 231.779397 
L 184.989305 230.960155 
L 186.97861 230.338485 
L 188.967914 229.93274 
L 190.957219 229.754893 
L 192.946524 229.810196 
L 194.935829 230.097016 
L 196.925134 230.606887 
L 198.914439 231.324758 
L 200.903743 232.229441 
L 202.893048 233.294232 
L 204.882353 234.487702 
L 206.871658 237.653715 
L 248.647059 237.653715 
L 254.614973 218.365763 
L 258.593583 206.092248 
L 262.572193 194.679648 
L 264.561497 189.394629 
L 266.550802 184.439268 
L 268.540107 179.847416 
L 270.529412 175.65044 
L 272.518717 171.877009 
L 274.508021 168.552899 
L 276.497326 165.700818 
L 278.486631 163.340249 
L 280.475936 161.487315 
L 282.465241 160.154676 
L 284.454545 159.351433 
L 286.44385 159.083075 
L 288.433155 159.351433 
L 290.42246 160.154676 
L 292.411765 161.487315 
L 294.40107 163.340249 
L 296.390374 165.700818 
L 298.379679 168.552899 
L 300.368984 171.877009 
L 302.358289 175.65044 
L 304.347594 179.847416 
L 306.336898 184.439268 
L 308.326203 189.394629 
L 312.304813 200.258224 
L 316.283422 212.14187 
L 322.251337 231.165403 
L 324.240642 237.653715 
L 342.144385 237.653715 
L 387.898396 165.911084 
L 389.887701 165.911084 
L 435.641711 237.653715 
L 511.235294 188.027862 
L 513.224599 237.653715 
L 527.149733 237.653715 
L 529.139037 189.060654 
L 596.775401 189.060654 
L 598.764706 237.653715 
L 622.636364 237.653715 
L 622.636364 237.653715 
" clip-path="url(#p2f5423cef4)" style="fill: none; stroke: #da8bc3; stroke-width: 3; stroke-linecap: round"/>
   </g>
   <g id="line2d_29">
    <path d="M 115.363636 237.653715 
L 155.149733 237.653715 
L 214.828877 173.371017 
L 216.818182 237.653715 
L 246.657754 237.653715 
L 248.647059 105.940588 
L 250.636364 107.159435 
L 252.625668 110.79342 
L 254.614973 116.775285 
L 256.604278 124.99432 
L 258.593583 135.298412 
L 260.582888 147.496856 
L 262.572193 161.363887 
L 264.561497 176.64286 
L 268.540107 210.284627 
L 276.497326 280.99087 
L 278.486631 297.471553 
L 280.475936 312.845151 
L 282.465241 326.827135 
L 284.454545 339.158733 
L 286.44385 349.611716 
L 288.433155 357.992624 
L 290.42246 364.146346 
L 292.411765 367.958993 
L 294.40107 369.36 
L 296.390374 368.323439 
L 298.379679 364.868494 
L 300.368984 359.059108 
L 302.358289 351.002799 
L 304.347594 340.848669 
L 306.336898 328.784647 
L 308.326203 315.03401 
L 310.315508 299.851248 
L 314.294118 266.334644 
L 316.283422 237.653715 
L 340.15508 237.653715 
L 342.144385 106.421193 
L 415.748663 106.421193 
L 417.737968 237.653715 
L 435.641711 237.653715 
L 473.438503 116.807764 
L 475.427807 116.807764 
L 513.224599 237.653715 
L 527.149733 237.653715 
L 529.139037 180.279553 
L 586.828877 237.653715 
L 622.636364 237.653715 
L 622.636364 237.653715 
" clip-path="url(#p2f5423cef4)" style="fill: none; stroke: #8c8c8c; stroke-width: 3; stroke-linecap: round"/>
   </g>
   <g id="line2d_30">
    <path d="M 115.363636 237.653715 
L 155.149733 237.653715 
L 228.754011 142.367597 
L 230.743316 237.653715 
L 246.657754 237.653715 
L 248.647059 159.392742 
L 306.336898 159.392742 
L 308.326203 237.653715 
L 340.15508 237.653715 
L 342.144385 152.803806 
L 344.13369 154.233787 
L 346.122995 158.475531 
L 348.112299 165.386064 
L 350.101604 174.73246 
L 352.090909 186.199687 
L 354.080214 199.401231 
L 358.058824 229.183916 
L 362.037433 260.098914 
L 364.026738 274.68009 
L 366.016043 288.01325 
L 368.005348 299.648985 
L 369.994652 309.1951 
L 371.983957 316.329832 
L 373.973262 320.812697 
L 375.962567 322.492595 
L 377.951872 321.312902 
L 379.941176 317.313383 
L 381.930481 310.628845 
L 383.919786 301.484598 
L 385.909091 290.188859 
L 387.898396 277.122364 
L 389.887701 262.725534 
L 393.86631 231.910397 
L 395.855615 237.653715 
L 435.641711 237.653715 
L 459.513369 171.184373 
L 461.502674 171.184373 
L 485.374332 237.653715 
L 529.139037 237.653715 
L 535.106952 209.444325 
L 539.085561 192.009963 
L 541.074866 183.996267 
L 543.064171 176.570453 
L 545.053476 169.813879 
L 547.042781 163.800573 
L 549.032086 158.596418 
L 551.02139 154.258431 
L 553.010695 150.83414 
L 555 148.361063 
L 556.989305 146.866294 
L 558.97861 146.366212 
L 560.967914 146.866294 
L 562.957219 148.361063 
L 564.946524 150.83414 
L 566.935829 154.258431 
L 568.925134 158.596418 
L 570.914439 163.800573 
L 572.903743 169.813879 
L 574.893048 176.570453 
L 576.882353 183.996267 
L 578.871658 192.009963 
L 582.850267 209.444325 
L 588.818182 237.653715 
L 622.636364 237.653715 
L 622.636364 237.653715 
" clip-path="url(#p2f5423cef4)" style="fill: none; stroke: #ccb974; stroke-width: 3; stroke-linecap: round"/>
   </g>
   <g id="line2d_31">
    <path d="M 115.363636 237.653715 
L 155.149733 237.653715 
L 161.117647 221.782565 
L 165.096257 211.658924 
L 169.074866 202.208533 
L 173.053476 193.676155 
L 175.042781 189.824367 
L 177.032086 186.282772 
L 179.02139 183.074336 
L 181.010695 180.219869 
L 183 177.737882 
L 184.989305 175.644473 
L 186.97861 173.953217 
L 188.967914 172.675084 
L 190.957219 171.818362 
L 192.946524 171.388607 
L 194.935829 171.388607 
L 196.925134 171.818362 
L 198.914439 172.675084 
L 200.903743 173.953217 
L 202.893048 175.644473 
L 204.882353 177.737882 
L 206.871658 180.219869 
L 208.860963 183.074336 
L 210.850267 186.282772 
L 212.839572 189.824367 
L 214.828877 193.676155 
L 216.818182 197.813153 
L 220.796791 206.833789 
L 224.775401 216.652644 
L 230.743316 232.317261 
L 232.73262 237.653715 
L 248.647059 237.653715 
L 284.454545 171.116928 
L 286.44385 171.116928 
L 322.251337 237.653715 
L 340.15508 237.653715 
L 342.144385 219.440133 
L 348.112299 219.587461 
L 354.080214 220.027062 
L 360.048128 220.751824 
L 366.016043 221.750021 
L 371.983957 223.005506 
L 377.951872 224.497967 
L 383.919786 226.203259 
L 391.877005 228.75993 
L 393.86631 229.442071 
L 395.855615 237.653715 
L 435.641711 237.653715 
L 503.278075 221.793353 
L 505.26738 237.653715 
L 527.149733 237.653715 
L 529.139037 145.144167 
L 586.828877 237.653715 
L 622.636364 237.653715 
L 622.636364 237.653715 
" clip-path="url(#p2f5423cef4)" style="fill: none; stroke: #64b5cd; stroke-width: 3; stroke-linecap: round"/>
   </g>
   <g id="patch_3">
    <path d="M 90 384.48 
L 90 51.84 
" style="fill: none; stroke: #ffffff; stroke-width: 1.25; stroke-linejoin: miter; stroke-linecap: square"/>
   </g>
   <g id="patch_4">
    <path d="M 648 384.48 
L 648 51.84 
" style="fill: none; stroke: #ffffff; stroke-width: 1.25; stroke-linejoin: miter; stroke-linecap: square"/>
   </g>
   <g id="patch_5">
    <path d="M 90 384.48 
L 648 384.48 
" style="fill: none; stroke: #ffffff; stroke-width: 1.25; stroke-linejoin: miter; stroke-linecap: square"/>
   </g>
   <g id="patch_6">
    <path d="M 90 51.84 
L 648 51.84 
" style="fill: none; stroke: #ffffff; stroke-width: 1.25; stroke-linejoin: miter; stroke-linecap: square"/>
   </g>
   <g id="text_14">
    <!-- Illustration of Stochasticity in Signal Generation -->
    <g style="fill: #262626" transform="translate(78.383939 45.84) scale(0.3 -0.3)">
     <defs>
      <path id="CMR17-49" d="M 1261 3898 
C 1261 4185 1338 4185 1798 4185 
L 1798 4352 
C 1594 4339 1267 4339 1050 4339 
C 832 4339 506 4339 301 4352 
L 301 4185 
C 762 4185 838 4185 838 3898 
L 838 453 
C 838 166 762 166 301 166 
L 301 0 
C 506 12 832 12 1050 12 
C 1267 12 1594 12 1798 0 
L 1798 166 
C 1338 166 1261 166 1261 453 
L 1261 3898 
z
" transform="scale(0.015625)"/>
      <path id="CMR17-73" d="M 1978 2688 
C 1978 2803 1971 2809 1933 2809 
C 1907 2809 1901 2803 1824 2707 
C 1805 2681 1747 2617 1728 2592 
C 1523 2809 1235 2816 1126 2816 
C 416 2816 160 2444 160 2073 
C 160 1497 813 1363 998 1324 
C 1402 1241 1542 1216 1677 1100 
C 1760 1024 1901 883 1901 652 
C 1901 384 1747 38 1158 38 
C 602 38 403 460 288 1024 
C 269 1113 269 1120 218 1120 
C 166 1120 160 1113 160 985 
L 160 64 
C 160 -52 166 -58 205 -58 
C 237 -58 243 -52 275 0 
C 314 57 410 211 448 275 
C 576 102 800 -64 1158 -64 
C 1792 -64 2131 281 2131 780 
C 2131 1107 1958 1280 1875 1356 
C 1683 1555 1459 1600 1190 1651 
C 838 1728 390 1817 390 2208 
C 390 2374 480 2726 1126 2726 
C 1811 2726 1850 2086 1862 1881 
C 1869 1849 1901 1843 1920 1843 
C 1978 1843 1978 1862 1978 1971 
L 1978 2688 
z
" transform="scale(0.015625)"/>
      <path id="CMR17-72" d="M 960 1517 
C 960 2134 1222 2713 1702 2713 
C 1747 2713 1792 2707 1837 2687 
C 1837 2687 1696 2642 1696 2475 
C 1696 2321 1818 2257 1914 2257 
C 1990 2257 2131 2302 2131 2482 
C 2131 2687 1926 2816 1709 2816 
C 1222 2816 1011 2340 947 2115 
L 941 2115 
L 941 2816 
L 198 2745 
L 198 2578 
C 576 2578 634 2540 634 2231 
L 634 443 
C 634 198 608 166 198 166 
L 198 0 
C 352 12 646 12 813 12 
C 998 12 1325 12 1498 0 
L 1498 166 
C 1037 166 960 166 960 455 
L 960 1517 
z
" transform="scale(0.015625)"/>
      <path id="CMR17-61" d="M 2304 1656 
C 2304 2048 2304 2275 2035 2534 
C 1798 2751 1523 2816 1306 2816 
C 800 2816 435 2408 435 1977 
C 435 1740 627 1728 666 1728 
C 749 1728 896 1779 896 1958 
C 896 2118 774 2188 666 2188 
C 640 2188 608 2182 589 2176 
C 723 2594 1069 2713 1293 2713 
C 1613 2713 1965 2421 1965 1875 
L 1965 1632 
C 1587 1619 1133 1568 774 1373 
C 371 1147 256 822 256 576 
C 256 77 832 -64 1171 -64 
C 1523 -64 1850 135 1990 505 
C 2003 219 2182 -39 2464 -39 
C 2598 -39 2938 51 2938 563 
L 2938 926 
L 2822 926 
L 2822 557 
C 2822 161 2650 109 2566 109 
C 2304 109 2304 446 2304 732 
L 2304 1656 
z
M 1965 887 
C 1965 323 1568 38 1216 38 
C 896 38 646 278 646 576 
C 646 771 730 1114 1101 1322 
C 1408 1497 1760 1523 1965 1536 
L 1965 887 
z
" transform="scale(0.015625)"/>
      <path id="CMR17-6f" d="M 2758 1356 
C 2758 2176 2163 2816 1466 2816 
C 768 2816 173 2176 173 1356 
C 173 550 768 -64 1466 -64 
C 2163 -64 2758 550 2758 1356 
z
M 1466 51 
C 1165 51 909 230 762 480 
C 602 768 582 1126 582 1408 
C 582 1676 595 2009 762 2297 
C 890 2508 1139 2713 1466 2713 
C 1754 2713 1997 2553 2150 2329 
C 2349 2028 2349 1606 2349 1408 
C 2349 1158 2336 774 2163 467 
C 1984 172 1709 51 1466 51 
z
" transform="scale(0.015625)"/>
      <path id="CMR17-6e" d="M 2656 1954 
C 2656 2282 2592 2816 1837 2816 
C 1331 2816 1069 2424 973 2166 
L 966 2166 
L 966 2816 
L 211 2745 
L 211 2578 
C 589 2578 646 2540 646 2231 
L 646 443 
C 646 198 621 166 211 166 
L 211 0 
C 365 12 646 12 813 12 
C 979 12 1267 12 1421 0 
L 1421 166 
C 1011 166 986 192 986 443 
L 986 1678 
C 986 2269 1344 2713 1792 2713 
C 2266 2713 2317 2289 2317 1980 
L 2317 443 
C 2317 198 2291 166 1882 166 
L 1882 0 
C 2035 12 2317 12 2483 12 
C 2650 12 2938 12 3091 0 
L 3091 166 
C 2682 166 2656 192 2656 443 
L 2656 1954 
z
" transform="scale(0.015625)"/>
      <path id="CMR17-66" d="M 979 2585 
L 1709 2585 
L 1709 2752 
L 966 2752 
L 966 3539 
C 966 4076 1235 4377 1510 4377 
C 1594 4377 1690 4363 1754 4339 
C 1702 4326 1568 4281 1568 4121 
C 1568 3955 1696 3904 1786 3904 
C 1875 3904 2003 3955 2003 4121 
C 2003 4353 1773 4480 1517 4480 
C 1152 4480 653 4211 653 3526 
L 653 2752 
L 141 2752 
L 141 2585 
L 653 2585 
L 653 441 
C 653 198 627 166 218 166 
L 218 0 
C 371 12 666 12 832 12 
C 1018 12 1344 12 1517 0 
L 1517 166 
C 1056 166 979 166 979 454 
L 979 2585 
z
" transform="scale(0.015625)"/>
      <path id="CMR17-53" d="M 2803 4351 
C 2803 4467 2797 4473 2758 4473 
C 2720 4473 2707 4447 2682 4390 
L 2490 3965 
C 2246 4320 1875 4480 1472 4480 
C 819 4480 294 3958 294 3301 
C 294 3101 339 2817 557 2546 
C 794 2250 1018 2198 1530 2063 
C 1722 2011 2042 1927 2106 1901 
C 2470 1747 2662 1360 2662 999 
C 2662 534 2336 38 1779 38 
C 1094 38 454 425 410 1328 
C 403 1431 397 1437 352 1437 
C 301 1437 294 1431 294 1302 
L 294 0 
C 294 -116 301 -122 339 -122 
C 384 -122 397 -90 486 109 
C 493 128 493 141 614 386 
C 934 -39 1472 -128 1779 -128 
C 2477 -128 2970 457 2970 1141 
C 2970 1476 2848 1734 2778 1850 
C 2509 2263 2221 2340 1914 2417 
C 1869 2437 1856 2437 1498 2527 
C 1152 2617 1005 2662 845 2836 
C 666 3036 602 3243 602 3449 
C 602 3868 934 4326 1478 4326 
C 2157 4326 2579 3842 2675 3036 
C 2694 2920 2701 2914 2746 2914 
C 2803 2914 2803 2933 2803 3043 
L 2803 4351 
z
" transform="scale(0.015625)"/>
      <path id="CMR17-63" d="M 2234 2240 
C 2112 2240 1933 2240 1933 2015 
C 1933 1836 2080 1785 2163 1785 
C 2208 1785 2394 1804 2394 2028 
C 2394 2476 1958 2816 1466 2816 
C 787 2816 211 2201 211 1379 
C 211 521 813 -64 1466 -64 
C 2259 -64 2458 676 2458 747 
C 2458 773 2451 792 2406 792 
C 2362 792 2355 786 2330 702 
C 2163 180 1798 51 1523 51 
C 1114 51 621 431 621 1385 
C 621 2358 1094 2700 1472 2700 
C 1722 2700 2093 2582 2234 2240 
z
" transform="scale(0.015625)"/>
      <path id="CMR17-68" d="M 2656 1954 
C 2656 2282 2592 2816 1837 2816 
C 1312 2816 1056 2392 979 2179 
L 973 2179 
L 973 4416 
L 211 4345 
L 211 4179 
C 589 4179 646 4141 646 3843 
L 646 443 
C 646 198 621 166 211 166 
L 211 0 
C 365 12 646 12 813 12 
C 979 12 1267 12 1421 0 
L 1421 166 
C 1011 166 986 192 986 443 
L 986 1678 
C 986 2269 1344 2713 1792 2713 
C 2266 2713 2317 2289 2317 1980 
L 2317 443 
C 2317 198 2291 166 1882 166 
L 1882 0 
C 2035 12 2317 12 2483 12 
C 2650 12 2938 12 3091 0 
L 3091 166 
C 2682 166 2656 192 2656 443 
L 2656 1954 
z
" transform="scale(0.015625)"/>
      <path id="CMR17-79" d="M 2496 2183 
C 2656 2579 2944 2585 3034 2585 
L 3034 2752 
C 2912 2745 2752 2739 2630 2739 
C 2496 2739 2285 2739 2157 2752 
L 2157 2585 
C 2400 2566 2406 2384 2406 2332 
C 2406 2268 2394 2235 2362 2158 
L 1664 409 
L 902 2300 
C 870 2378 870 2423 870 2430 
C 870 2572 1018 2585 1171 2585 
L 1171 2752 
C 1018 2739 742 2739 582 2739 
C 410 2739 205 2739 64 2752 
L 64 2585 
C 410 2585 448 2553 531 2345 
L 1485 -31 
C 1197 -795 1030 -1242 627 -1242 
C 557 -1242 397 -1223 282 -1106 
C 429 -1093 493 -1002 493 -892 
C 493 -782 416 -685 288 -685 
C 147 -685 77 -782 77 -899 
C 77 -1158 339 -1344 627 -1344 
C 998 -1344 1229 -983 1357 -659 
L 2496 2183 
z
" transform="scale(0.015625)"/>
      <path id="CMR17-67" d="M 710 1165 
C 832 1068 1043 960 1299 960 
C 1805 960 2240 1359 2240 1895 
C 2240 2063 2189 2321 1997 2521 
C 2176 2713 2438 2777 2586 2777 
C 2611 2777 2650 2777 2682 2758 
C 2656 2751 2598 2726 2598 2623 
C 2598 2540 2656 2483 2739 2483 
C 2835 2483 2886 2547 2886 2630 
C 2886 2751 2790 2880 2586 2880 
C 2330 2880 2106 2758 1926 2591 
C 1734 2764 1504 2828 1299 2828 
C 794 2828 358 2431 358 1895 
C 358 1527 570 1294 634 1230 
C 442 1004 442 742 442 710 
C 442 544 506 300 723 166 
C 390 82 128 -184 128 -517 
C 128 -996 736 -1344 1466 -1344 
C 2170 -1344 2803 -1009 2803 -510 
C 2803 384 1856 384 1363 384 
C 1216 384 954 384 922 390 
C 723 422 589 601 589 825 
C 589 883 589 1024 710 1165 
z
M 1299 1068 
C 736 1068 736 1766 736 1895 
C 736 2024 736 2719 1299 2719 
C 1862 2719 1862 2024 1862 1895 
C 1862 1766 1862 1068 1299 1068 
z
M 1466 -1236 
C 826 -1236 384 -883 384 -517 
C 384 -311 493 -118 634 -11 
C 794 102 858 102 1293 102 
C 1818 102 2547 102 2547 -517 
C 2547 -883 2106 -1236 1466 -1236 
z
" transform="scale(0.015625)"/>
      <path id="CMR17-47" d="M 3974 1258 
C 3974 1503 3994 1536 4390 1536 
L 4390 1702 
C 4237 1689 3891 1689 3718 1689 
C 3539 1689 3040 1696 2797 1702 
L 2797 1536 
L 2989 1536 
C 3539 1536 3552 1464 3552 1232 
L 3552 806 
C 3552 96 2720 38 2522 38 
C 1862 38 781 496 781 2179 
C 781 3862 1843 4313 2464 4313 
C 3187 4313 3712 3681 3834 2785 
C 3846 2708 3846 2695 3904 2695 
C 3974 2695 3974 2708 3974 2824 
L 3974 4351 
C 3974 4467 3968 4473 3930 4473 
C 3904 4473 3898 4467 3853 4390 
L 3571 3849 
C 3258 4249 2874 4480 2381 4480 
C 1286 4480 294 3507 294 2179 
C 294 858 1267 -128 2394 -128 
C 2912 -128 3418 57 3616 425 
C 3725 161 3904 -20 3936 -20 
C 3968 -20 3974 -13 3974 102 
L 3974 1258 
z
" transform="scale(0.015625)"/>
     </defs>
     <use xlink:href="#CMR17-49" transform="scale(0.996264)"/>
     <use xlink:href="#CMR17-6c" transform="translate(32.638409 0) scale(0.996264)"/>
     <use xlink:href="#CMR17-6c" transform="translate(57.509468 0) scale(0.996264)"/>
     <use xlink:href="#CMR17-75" transform="translate(82.380526 0) scale(0.996264)"/>
     <use xlink:href="#CMR17-73" transform="translate(133.275896 0) scale(0.996264)"/>
     <use xlink:href="#CMR17-74" transform="translate(169.077234 0) scale(0.996264)"/>
     <use xlink:href="#CMR17-72" transform="translate(204.358001 0) scale(0.996264)"/>
     <use xlink:href="#CMR17-61" transform="translate(239.638769 0) scale(0.996264)"/>
     <use xlink:href="#CMR17-74" transform="translate(285.329246 0) scale(0.996264)"/>
     <use xlink:href="#CMR17-69" transform="translate(320.610014 0) scale(0.996264)"/>
     <use xlink:href="#CMR17-6f" transform="translate(345.481073 0) scale(0.996264)"/>
     <use xlink:href="#CMR17-6e" transform="translate(391.17155 0) scale(0.996264)"/>
     <use xlink:href="#CMR17-6f" transform="translate(472.142886 0) scale(0.996264)"/>
     <use xlink:href="#CMR17-66" transform="translate(517.833363 0) scale(0.996264)"/>
     <use xlink:href="#CMR17-53" transform="translate(575.382842 0) scale(0.996264)"/>
     <use xlink:href="#CMR17-74" transform="translate(626.278211 0) scale(0.996264)"/>
     <use xlink:href="#CMR17-6f" transform="translate(661.558979 0) scale(0.996264)"/>
     <use xlink:href="#CMR17-63" transform="translate(709.851895 0) scale(0.996264)"/>
     <use xlink:href="#CMR17-68" transform="translate(747.735102 0) scale(0.996264)"/>
     <use xlink:href="#CMR17-61" transform="translate(798.630471 0) scale(0.996264)"/>
     <use xlink:href="#CMR17-73" transform="translate(844.320949 0) scale(0.996264)"/>
     <use xlink:href="#CMR17-74" transform="translate(880.122286 0) scale(0.996264)"/>
     <use xlink:href="#CMR17-69" transform="translate(915.403054 0) scale(0.996264)"/>
     <use xlink:href="#CMR17-63" transform="translate(940.274112 0) scale(0.996264)"/>
     <use xlink:href="#CMR17-69" transform="translate(980.759773 0) scale(0.996264)"/>
     <use xlink:href="#CMR17-74" transform="translate(1005.630831 0) scale(0.996264)"/>
     <use xlink:href="#CMR17-79" transform="translate(1038.309145 0) scale(0.996264)"/>
     <use xlink:href="#CMR17-69" transform="translate(1116.678027 0) scale(0.996264)"/>
     <use xlink:href="#CMR17-6e" transform="translate(1141.549086 0) scale(0.996264)"/>
     <use xlink:href="#CMR17-53" transform="translate(1222.520422 0) scale(0.996264)"/>
     <use xlink:href="#CMR17-69" transform="translate(1273.415792 0) scale(0.996264)"/>
     <use xlink:href="#CMR17-67" transform="translate(1298.28685 0) scale(0.996264)"/>
     <use xlink:href="#CMR17-6e" transform="translate(1343.977327 0) scale(0.996264)"/>
     <use xlink:href="#CMR17-61" transform="translate(1394.872697 0) scale(0.996264)"/>
     <use xlink:href="#CMR17-6c" transform="translate(1440.563174 0) scale(0.996264)"/>
     <use xlink:href="#CMR17-47" transform="translate(1495.510199 0) scale(0.996264)"/>
     <use xlink:href="#CMR17-65" transform="translate(1567.865545 0) scale(0.996264)"/>
     <use xlink:href="#CMR17-6e" transform="translate(1608.351206 0) scale(0.996264)"/>
     <use xlink:href="#CMR17-65" transform="translate(1659.246575 0) scale(0.996264)"/>
     <use xlink:href="#CMR17-72" transform="translate(1699.732236 0) scale(0.996264)"/>
     <use xlink:href="#CMR17-61" transform="translate(1735.013004 0) scale(0.996264)"/>
     <use xlink:href="#CMR17-74" transform="translate(1780.703481 0) scale(0.996264)"/>
     <use xlink:href="#CMR17-69" transform="translate(1815.984249 0) scale(0.996264)"/>
     <use xlink:href="#CMR17-6f" transform="translate(1840.855307 0) scale(0.996264)"/>
     <use xlink:href="#CMR17-6e" transform="translate(1886.545784 0) scale(0.996264)"/>
    </g>
   </g>
  </g>
 </g>
 <defs>
  <clipPath id="p2f5423cef4">
   <rect x="90" y="51.84" width="558" height="332.64"/>
  </clipPath>
 </defs>
</svg>
