<?xml version="1.0" encoding="utf-8" standalone="no"?>
<!DOCTYPE svg PUBLIC "-//W3C//DTD SVG 1.1//EN"
  "http://www.w3.org/Graphics/SVG/1.1/DTD/svg11.dtd">
<svg xmlns:xlink="http://www.w3.org/1999/xlink" width="720pt" height="432pt" viewBox="0 0 720 432" xmlns="http://www.w3.org/2000/svg" version="1.1">
 <metadata>
  <rdf:RDF xmlns:dc="http://purl.org/dc/elements/1.1/" xmlns:cc="http://creativecommons.org/ns#" xmlns:rdf="http://www.w3.org/1999/02/22-rdf-syntax-ns#">
   <cc:Work>
    <dc:type rdf:resource="http://purl.org/dc/dcmitype/StillImage"/>
    <dc:date>2025-05-27T18:28:21.788718</dc:date>
    <dc:format>image/svg+xml</dc:format>
    <dc:creator>
     <cc:Agent>
      <dc:title>Matplotlib v3.10.0, https://matplotlib.org/</dc:title>
     </cc:Agent>
    </dc:creator>
   </cc:Work>
  </rdf:RDF>
 </metadata>
 <defs>
  <style type="text/css">*{stroke-linejoin: round; stroke-linecap: butt}</style>
 </defs>
 <g id="figure_1">
  <g id="patch_1">
   <path d="M 0 432 
L 720 432 
L 720 0 
L 0 0 
z
" style="fill: #ffffff"/>
  </g>
  <g id="axes_1">
   <g id="patch_2">
    <path d="M 90 384.48 
L 648 384.48 
L 648 51.84 
L 90 51.84 
z
" style="fill: #ffffff"/>
   </g>
   <g id="matplotlib.axis_1">
    <g id="xtick_1">
     <g id="line2d_1">
      <path d="M 115.363636 384.48 
L 115.363636 51.84 
" clip-path="url(#pa44013eae5)" style="fill: none; stroke: #cccccc; stroke-linecap: round"/>
     </g>
     <g id="text_1">
      <!-- $\mathdefault{0}$ -->
      <g style="fill: #262626" transform="translate(109.081196 413.005867) scale(0.275 -0.275)">
       <defs>
        <path id="CMR17-30" d="M 2688 2038 
C 2688 2430 2682 3099 2413 3613 
C 2176 4063 1798 4224 1466 4224 
C 1158 4224 768 4082 525 3620 
C 269 3137 243 2539 243 2038 
C 243 1671 250 1112 448 623 
C 723 -39 1216 -128 1466 -128 
C 1760 -128 2208 -7 2470 604 
C 2662 1048 2688 1568 2688 2038 
z
M 1466 -26 
C 1056 -26 813 328 723 816 
C 653 1196 653 1749 653 2109 
C 653 2604 653 3015 736 3407 
C 858 3954 1216 4121 1466 4121 
C 1728 4121 2067 3947 2189 3420 
C 2272 3054 2278 2623 2278 2109 
C 2278 1691 2278 1176 2202 797 
C 2067 96 1690 -26 1466 -26 
z
" transform="scale(0.015625)"/>
       </defs>
       <use xlink:href="#CMR17-30" transform="scale(0.996264)"/>
      </g>
     </g>
    </g>
    <g id="xtick_2">
     <g id="line2d_2">
      <path d="M 214.828877 384.48 
L 214.828877 51.84 
" clip-path="url(#pa44013eae5)" style="fill: none; stroke: #cccccc; stroke-linecap: round"/>
     </g>
     <g id="text_2">
      <!-- $\mathdefault{50}$ -->
      <g style="fill: #262626" transform="translate(202.263996 413.005867) scale(0.275 -0.275)">
       <defs>
        <path id="CMR17-35" d="M 730 3750 
C 794 3724 1056 3641 1325 3641 
C 1920 3641 2246 3961 2432 4140 
C 2432 4191 2432 4224 2394 4224 
C 2387 4224 2374 4224 2323 4198 
C 2099 4102 1837 4032 1517 4032 
C 1325 4032 1037 4055 723 4191 
C 653 4224 640 4224 634 4224 
C 602 4224 595 4217 595 4090 
L 595 2231 
C 595 2113 595 2080 659 2080 
C 691 2080 704 2093 736 2139 
C 941 2435 1222 2560 1542 2560 
C 1766 2560 2246 2415 2246 1293 
C 2246 1087 2246 716 2054 422 
C 1894 159 1645 25 1370 25 
C 947 25 518 319 403 812 
C 429 806 480 793 506 793 
C 589 793 749 838 749 1036 
C 749 1209 627 1280 506 1280 
C 358 1280 262 1190 262 1011 
C 262 454 704 -128 1382 -128 
C 2042 -128 2669 441 2669 1267 
C 2669 2054 2170 2662 1549 2662 
C 1222 2662 947 2540 730 2304 
L 730 3750 
z
" transform="scale(0.015625)"/>
       </defs>
       <use xlink:href="#CMR17-35" transform="scale(0.996264)"/>
       <use xlink:href="#CMR17-30" transform="translate(45.690477 0) scale(0.996264)"/>
      </g>
     </g>
    </g>
    <g id="xtick_3">
     <g id="line2d_3">
      <path d="M 314.294118 384.48 
L 314.294118 51.84 
" clip-path="url(#pa44013eae5)" style="fill: none; stroke: #cccccc; stroke-linecap: round"/>
     </g>
     <g id="text_3">
      <!-- $\mathdefault{100}$ -->
      <g style="fill: #262626" transform="translate(295.446796 413.005867) scale(0.275 -0.275)">
       <defs>
        <path id="CMR17-31" d="M 1702 4083 
C 1702 4217 1696 4224 1606 4224 
C 1357 3927 979 3833 621 3820 
C 602 3820 570 3820 563 3808 
C 557 3795 557 3782 557 3648 
C 755 3648 1088 3686 1344 3839 
L 1344 467 
C 1344 243 1331 166 781 166 
L 589 166 
L 589 0 
C 896 6 1216 12 1523 12 
C 1830 12 2150 6 2458 0 
L 2458 166 
L 2266 166 
C 1715 166 1702 236 1702 467 
L 1702 4083 
z
" transform="scale(0.015625)"/>
       </defs>
       <use xlink:href="#CMR17-31" transform="scale(0.996264)"/>
       <use xlink:href="#CMR17-30" transform="translate(45.690477 0) scale(0.996264)"/>
       <use xlink:href="#CMR17-30" transform="translate(91.380954 0) scale(0.996264)"/>
      </g>
     </g>
    </g>
    <g id="xtick_4">
     <g id="line2d_4">
      <path d="M 413.759358 384.48 
L 413.759358 51.84 
" clip-path="url(#pa44013eae5)" style="fill: none; stroke: #cccccc; stroke-linecap: round"/>
     </g>
     <g id="text_4">
      <!-- $\mathdefault{150}$ -->
      <g style="fill: #262626" transform="translate(394.912036 413.005867) scale(0.275 -0.275)">
       <use xlink:href="#CMR17-31" transform="scale(0.996264)"/>
       <use xlink:href="#CMR17-35" transform="translate(45.690477 0) scale(0.996264)"/>
       <use xlink:href="#CMR17-30" transform="translate(91.380954 0) scale(0.996264)"/>
      </g>
     </g>
    </g>
    <g id="xtick_5">
     <g id="line2d_5">
      <path d="M 513.224599 384.48 
L 513.224599 51.84 
" clip-path="url(#pa44013eae5)" style="fill: none; stroke: #cccccc; stroke-linecap: round"/>
     </g>
     <g id="text_5">
      <!-- $\mathdefault{200}$ -->
      <g style="fill: #262626" transform="translate(494.377277 413.005867) scale(0.275 -0.275)">
       <defs>
        <path id="CMR17-32" d="M 2669 990 
L 2554 990 
C 2490 537 2438 460 2413 422 
C 2381 371 1920 371 1830 371 
L 602 371 
C 832 620 1280 1073 1824 1596 
C 2214 1966 2669 2400 2669 3033 
C 2669 3788 2067 4224 1395 4224 
C 691 4224 262 3603 262 3027 
C 262 2777 448 2745 525 2745 
C 589 2745 781 2783 781 3007 
C 781 3206 614 3264 525 3264 
C 486 3264 448 3257 422 3244 
C 544 3788 915 4057 1306 4057 
C 1862 4057 2227 3616 2227 3033 
C 2227 2477 1901 1998 1536 1583 
L 262 147 
L 262 0 
L 2515 0 
L 2669 990 
z
" transform="scale(0.015625)"/>
       </defs>
       <use xlink:href="#CMR17-32" transform="scale(0.996264)"/>
       <use xlink:href="#CMR17-30" transform="translate(45.690477 0) scale(0.996264)"/>
       <use xlink:href="#CMR17-30" transform="translate(91.380954 0) scale(0.996264)"/>
      </g>
     </g>
    </g>
    <g id="xtick_6">
     <g id="line2d_6">
      <path d="M 612.68984 384.48 
L 612.68984 51.84 
" clip-path="url(#pa44013eae5)" style="fill: none; stroke: #cccccc; stroke-linecap: round"/>
     </g>
     <g id="text_6">
      <!-- $\mathdefault{250}$ -->
      <g style="fill: #262626" transform="translate(593.842518 413.005867) scale(0.275 -0.275)">
       <use xlink:href="#CMR17-32" transform="scale(0.996264)"/>
       <use xlink:href="#CMR17-35" transform="translate(45.690477 0) scale(0.996264)"/>
       <use xlink:href="#CMR17-30" transform="translate(91.380954 0) scale(0.996264)"/>
      </g>
     </g>
    </g>
    <g id="text_7">
     <!-- Time -->
     <g style="fill: #262626" transform="translate(337.682086 443.090362) scale(0.3 -0.3)">
      <defs>
       <path id="CMR17-54" d="M 3981 4332 
L 288 4332 
L 179 2924 
L 294 2924 
C 378 3981 467 4166 1453 4166 
C 1568 4166 1754 4166 1805 4159 
C 1926 4140 1926 4064 1926 3917 
L 1926 465 
C 1926 236 1907 166 1376 166 
L 1197 166 
L 1197 0 
C 1504 6 1824 12 2138 12 
C 2451 12 2771 6 3078 0 
L 3078 166 
L 2899 166 
C 2368 166 2349 236 2349 465 
L 2349 3917 
C 2349 4057 2349 4134 2464 4159 
C 2515 4166 2701 4166 2816 4166 
C 3795 4166 3891 3981 3974 2924 
L 4090 2924 
L 3981 4332 
z
" transform="scale(0.015625)"/>
       <path id="CMR17-69" d="M 992 3961 
C 992 4102 877 4224 730 4224 
C 589 4224 467 4108 467 3961 
C 467 3820 582 3699 730 3699 
C 870 3699 992 3814 992 3961 
z
M 243 2745 
L 243 2579 
C 602 2579 653 2540 653 2231 
L 653 443 
C 653 198 627 166 218 166 
L 218 0 
C 371 12 646 12 806 12 
C 960 12 1222 12 1370 0 
L 1370 166 
C 992 166 979 205 979 436 
L 979 2816 
L 243 2745 
z
" transform="scale(0.015625)"/>
       <path id="CMR17-6d" d="M 4326 1954 
C 4326 2276 4269 2816 3507 2816 
C 3072 2816 2771 2520 2656 2173 
L 2650 2173 
C 2573 2700 2195 2816 1837 2816 
C 1331 2816 1069 2424 973 2166 
L 966 2166 
L 966 2816 
L 211 2745 
L 211 2578 
C 589 2578 646 2540 646 2231 
L 646 443 
C 646 198 621 166 211 166 
L 211 0 
C 365 12 646 12 813 12 
C 979 12 1267 12 1421 0 
L 1421 166 
C 1011 166 986 192 986 443 
L 986 1678 
C 986 2269 1344 2713 1792 2713 
C 2266 2713 2317 2289 2317 1980 
L 2317 443 
C 2317 198 2291 166 1882 166 
L 1882 0 
C 2035 12 2317 12 2483 12 
C 2650 12 2938 12 3091 0 
L 3091 166 
C 2682 166 2656 192 2656 443 
L 2656 1678 
C 2656 2269 3014 2713 3462 2713 
C 3936 2713 3987 2289 3987 1980 
L 3987 443 
C 3987 198 3962 166 3552 166 
L 3552 0 
C 3706 12 3987 12 4154 12 
C 4320 12 4608 12 4762 0 
L 4762 166 
C 4352 166 4326 192 4326 443 
L 4326 1954 
z
" transform="scale(0.015625)"/>
       <path id="CMR17-65" d="M 2438 1503 
C 2464 1529 2464 1542 2464 1606 
C 2464 2251 2118 2816 1389 2816 
C 710 2816 173 2175 173 1394 
C 173 554 781 -64 1459 -64 
C 2176 -64 2458 619 2458 755 
C 2458 800 2419 800 2406 800 
C 2362 800 2355 787 2330 709 
C 2189 270 1837 51 1504 51 
C 1229 51 954 206 781 490 
C 582 819 582 1200 582 1503 
L 2438 1503 
z
M 589 1600 
C 634 2511 1126 2713 1382 2713 
C 1818 2713 2112 2308 2118 1600 
L 589 1600 
z
" transform="scale(0.015625)"/>
      </defs>
      <use xlink:href="#CMR17-54" transform="scale(0.996264)"/>
      <use xlink:href="#CMR17-69" transform="translate(66.509881 0) scale(0.996264)"/>
      <use xlink:href="#CMR17-6d" transform="translate(91.380939 0) scale(0.996264)"/>
      <use xlink:href="#CMR17-65" transform="translate(168.300529 0) scale(0.996264)"/>
     </g>
    </g>
   </g>
   <g id="matplotlib.axis_2">
    <g id="ytick_1">
     <g id="line2d_7">
      <path d="M 90 364.10278 
L 648 364.10278 
" clip-path="url(#pa44013eae5)" style="fill: none; stroke: #cccccc; stroke-linecap: round"/>
     </g>
     <g id="text_8">
      <!-- $\mathdefault{−4}$ -->
      <g style="fill: #262626" transform="translate(46.626066 373.615713) scale(0.275 -0.275)">
       <defs>
        <path id="CMSY10-0" d="M 4218 1472 
C 4326 1472 4442 1472 4442 1600 
C 4442 1728 4326 1728 4218 1728 
L 755 1728 
C 646 1728 531 1728 531 1600 
C 531 1472 646 1472 755 1472 
L 4218 1472 
z
" transform="scale(0.015625)"/>
        <path id="CMR17-34" d="M 2150 4147 
C 2150 4281 2144 4288 2029 4288 
L 128 1254 
L 128 1088 
L 1779 1088 
L 1779 460 
C 1779 230 1766 166 1318 166 
L 1197 166 
L 1197 0 
C 1402 12 1747 12 1965 12 
C 2182 12 2528 12 2733 0 
L 2733 166 
L 2611 166 
C 2163 166 2150 230 2150 460 
L 2150 1088 
L 2803 1088 
L 2803 1254 
L 2150 1254 
L 2150 4147 
z
M 1798 3723 
L 1798 1254 
L 256 1254 
L 1798 3723 
z
" transform="scale(0.015625)"/>
       </defs>
       <use xlink:href="#CMSY10-0" transform="scale(0.996264)"/>
       <use xlink:href="#CMR17-34" transform="translate(77.487468 0) scale(0.996264)"/>
      </g>
     </g>
    </g>
    <g id="ytick_2">
     <g id="line2d_8">
      <path d="M 90 299.690676 
L 648 299.690676 
" clip-path="url(#pa44013eae5)" style="fill: none; stroke: #cccccc; stroke-linecap: round"/>
     </g>
     <g id="text_9">
      <!-- $\mathdefault{−2}$ -->
      <g style="fill: #262626" transform="translate(46.626066 309.203609) scale(0.275 -0.275)">
       <use xlink:href="#CMSY10-0" transform="scale(0.996264)"/>
       <use xlink:href="#CMR17-32" transform="translate(77.487468 0) scale(0.996264)"/>
      </g>
     </g>
    </g>
    <g id="ytick_3">
     <g id="line2d_9">
      <path d="M 90 235.278572 
L 648 235.278572 
" clip-path="url(#pa44013eae5)" style="fill: none; stroke: #cccccc; stroke-linecap: round"/>
     </g>
     <g id="text_10">
      <!-- $\mathdefault{0}$ -->
      <g style="fill: #262626" transform="translate(67.935119 244.791505) scale(0.275 -0.275)">
       <use xlink:href="#CMR17-30" transform="scale(0.996264)"/>
      </g>
     </g>
    </g>
    <g id="ytick_4">
     <g id="line2d_10">
      <path d="M 90 170.866468 
L 648 170.866468 
" clip-path="url(#pa44013eae5)" style="fill: none; stroke: #cccccc; stroke-linecap: round"/>
     </g>
     <g id="text_11">
      <!-- $\mathdefault{2}$ -->
      <g style="fill: #262626" transform="translate(67.935119 180.379402) scale(0.275 -0.275)">
       <use xlink:href="#CMR17-32" transform="scale(0.996264)"/>
      </g>
     </g>
    </g>
    <g id="ytick_5">
     <g id="line2d_11">
      <path d="M 90 106.454365 
L 648 106.454365 
" clip-path="url(#pa44013eae5)" style="fill: none; stroke: #cccccc; stroke-linecap: round"/>
     </g>
     <g id="text_12">
      <!-- $\mathdefault{4}$ -->
      <g style="fill: #262626" transform="translate(67.935119 115.967298) scale(0.275 -0.275)">
       <use xlink:href="#CMR17-34" transform="scale(0.996264)"/>
      </g>
     </g>
    </g>
    <g id="text_13">
     <!-- Amplitude -->
     <g style="fill: #262626" transform="translate(36.812616 281.787972) rotate(-90) scale(0.3 -0.3)">
      <defs>
       <path id="CMR17-41" d="M 2323 4441 
C 2291 4524 2278 4544 2214 4544 
C 2150 4544 2138 4524 2106 4441 
L 749 580 
C 627 236 371 166 147 166 
L 147 0 
C 262 12 518 12 640 12 
C 800 12 1056 12 1210 0 
L 1210 166 
C 909 179 864 382 864 459 
C 864 516 877 548 890 586 
L 1229 1536 
L 2906 1536 
L 3290 453 
C 3322 376 3322 363 3322 338 
C 3322 166 3046 166 2925 166 
L 2925 0 
C 3110 12 3443 12 3642 12 
C 3808 12 4128 12 4282 0 
L 4282 166 
C 3942 166 3827 166 3744 402 
L 2323 4441 
z
M 2067 3924 
L 2848 1702 
L 1286 1702 
L 2067 3924 
z
" transform="scale(0.015625)"/>
       <path id="CMR17-70" d="M 1408 -1114 
C 998 -1114 973 -1088 973 -834 
L 973 380 
C 1158 109 1427 -64 1766 -64 
C 2406 -64 3053 503 3053 1382 
C 3053 2196 2496 2816 1837 2816 
C 1453 2816 1139 2603 960 2345 
L 960 2816 
L 198 2745 
L 198 2577 
C 576 2577 634 2539 634 2228 
L 634 -834 
C 634 -1081 608 -1114 198 -1114 
L 198 -1280 
C 352 -1268 634 -1268 800 -1268 
C 966 -1268 1254 -1268 1408 -1280 
L 1408 -1114 
z
M 973 2015 
C 973 2106 973 2241 1222 2481 
C 1254 2506 1472 2700 1792 2700 
C 2259 2700 2643 2112 2643 1376 
C 2643 639 2234 38 1728 38 
C 1498 38 1248 148 1056 451 
C 973 594 973 632 973 736 
L 973 2015 
z
" transform="scale(0.015625)"/>
       <path id="CMR17-6c" d="M 979 4416 
L 218 4345 
L 218 4179 
C 595 4179 653 4141 653 3835 
L 653 439 
C 653 198 627 166 218 166 
L 218 0 
C 371 12 653 12 813 12 
C 979 12 1261 12 1414 0 
L 1414 166 
C 1005 166 979 191 979 439 
L 979 4416 
z
" transform="scale(0.015625)"/>
       <path id="CMR17-74" d="M 966 2585 
L 1862 2585 
L 1862 2752 
L 966 2752 
L 966 3968 
L 851 3968 
C 838 3292 614 2700 70 2687 
L 70 2585 
L 627 2585 
L 627 778 
C 627 655 627 -64 1370 -64 
C 1747 -64 1965 308 1965 784 
L 1965 1151 
L 1850 1151 
L 1850 790 
C 1850 347 1677 51 1408 51 
C 1222 51 966 179 966 765 
L 966 2585 
z
" transform="scale(0.015625)"/>
       <path id="CMR17-75" d="M 1882 2745 
L 1882 2579 
C 2259 2579 2317 2540 2317 2229 
L 2317 1053 
C 2317 510 2029 38 1555 38 
C 1030 38 986 355 986 691 
L 986 2816 
L 211 2745 
L 211 2579 
C 467 2579 640 2579 646 2320 
L 646 1079 
C 646 646 646 368 813 187 
C 896 103 1056 -64 1517 -64 
C 2061 -64 2272 400 2323 536 
L 2330 536 
L 2330 -64 
L 3091 -13 
L 3091 154 
C 2714 154 2656 193 2656 503 
L 2656 2816 
L 1882 2745 
z
" transform="scale(0.015625)"/>
       <path id="CMR17-64" d="M 1869 4345 
L 1869 4179 
C 2246 4179 2304 4141 2304 3843 
L 2304 2371 
C 2278 2403 2016 2816 1498 2816 
C 845 2816 211 2228 211 1376 
C 211 529 806 -64 1434 -64 
C 1978 -64 2259 361 2291 406 
L 2291 -64 
L 3066 -13 
L 3066 154 
C 2688 154 2630 193 2630 503 
L 2630 4416 
L 1869 4345 
z
M 2291 762 
C 2291 568 2176 393 2029 264 
C 1811 70 1594 38 1472 38 
C 1286 38 621 135 621 1369 
C 621 2636 1363 2713 1530 2713 
C 1824 2713 2061 2545 2208 2313 
C 2291 2177 2291 2157 2291 2041 
L 2291 762 
z
" transform="scale(0.015625)"/>
      </defs>
      <use xlink:href="#CMR17-41" transform="scale(0.996264)"/>
      <use xlink:href="#CMR17-6d" transform="translate(69.07243 0) scale(0.996264)"/>
      <use xlink:href="#CMR17-70" transform="translate(145.99202 0) scale(0.996264)"/>
      <use xlink:href="#CMR17-6c" transform="translate(196.887389 0) scale(0.996264)"/>
      <use xlink:href="#CMR17-69" transform="translate(221.758448 0) scale(0.996264)"/>
      <use xlink:href="#CMR17-74" transform="translate(246.629506 0) scale(0.996264)"/>
      <use xlink:href="#CMR17-75" transform="translate(281.910274 0) scale(0.996264)"/>
      <use xlink:href="#CMR17-64" transform="translate(332.805644 0) scale(0.996264)"/>
      <use xlink:href="#CMR17-65" transform="translate(383.701014 0) scale(0.996264)"/>
     </g>
    </g>
   </g>
   <g id="line2d_12">
    <path d="M 115.363636 235.278572 
L 155.149733 235.278572 
L 188.967914 143.92832 
L 190.957219 143.92832 
L 224.775401 235.278572 
L 248.647059 235.278572 
L 328.219251 149.017999 
L 330.208556 235.278572 
L 340.15508 235.278572 
L 342.144385 203.531528 
L 344.13369 203.636143 
L 346.122995 203.949301 
L 348.112299 204.468937 
L 350.101604 205.191627 
L 352.090909 206.112607 
L 354.080214 207.225808 
L 356.069519 208.523893 
L 358.058824 209.998308 
L 360.048128 211.639333 
L 364.026738 215.376932 
L 368.005348 219.63832 
L 371.983957 224.311343 
L 377.951872 231.821483 
L 387.898396 244.566777 
L 391.877005 249.353319 
L 393.86631 251.615208 
L 395.855615 235.278572 
L 435.641711 235.278572 
L 443.59893 225.497918 
L 447.57754 220.942001 
L 451.55615 216.777149 
L 455.534759 213.116967 
L 457.524064 211.507943 
L 459.513369 210.061296 
L 461.502674 208.786909 
L 463.491979 207.693487 
L 465.481283 206.788499 
L 467.470588 206.078127 
L 469.459893 205.567223 
L 471.449198 205.259279 
L 473.438503 205.156396 
L 475.427807 205.259279 
L 477.417112 205.567223 
L 479.406417 206.078127 
L 481.395722 206.788499 
L 483.385027 207.693487 
L 485.374332 208.786909 
L 487.363636 210.061296 
L 489.352941 211.507943 
L 491.342246 213.116967 
L 495.320856 216.777149 
L 499.299465 220.942001 
L 503.278075 225.497918 
L 509.245989 232.791103 
L 511.235294 235.278572 
L 527.149733 235.278572 
L 529.139037 208.252916 
L 600.754011 208.252916 
L 602.743316 235.278572 
L 622.636364 235.278572 
L 622.636364 235.278572 
" clip-path="url(#pa44013eae5)" style="fill: none; stroke: #4c72b0; stroke-width: 3; stroke-linecap: round"/>
   </g>
   <g id="line2d_13">
    <path d="M 115.363636 235.278572 
L 153.160428 235.278572 
L 155.149733 202.625451 
L 236.71123 235.278572 
L 246.657754 235.278572 
L 248.647059 277.466652 
L 300.368984 277.466652 
L 302.358289 235.278572 
L 340.15508 235.278572 
L 342.144385 229.116617 
L 348.112299 229.232524 
L 354.080214 229.575883 
L 360.048128 230.133778 
L 366.016043 230.885221 
L 373.973262 232.138438 
L 383.919786 233.988349 
L 405.802139 238.240101 
L 409.780749 238.913164 
L 411.770053 235.278572 
L 435.641711 235.278572 
L 505.26738 141.990427 
L 507.256684 235.278572 
L 529.139037 235.278572 
L 535.106952 222.56148 
L 539.085561 214.565155 
L 543.064171 207.274201 
L 545.053476 203.972003 
L 547.042781 200.936902 
L 549.032086 198.194792 
L 551.02139 195.769067 
L 553.010695 193.680424 
L 555 191.946681 
L 556.989305 190.582631 
L 558.97861 189.599911 
L 560.967914 189.006905 
L 562.957219 188.808672 
L 564.946524 189.006905 
L 566.935829 189.599911 
L 568.925134 190.582631 
L 570.914439 191.946681 
L 572.903743 193.680424 
L 574.893048 195.769067 
L 576.882353 198.194792 
L 578.871658 200.936902 
L 580.860963 203.972003 
L 582.850267 207.274201 
L 586.828877 214.565155 
L 590.807487 222.56148 
L 596.775401 235.278572 
L 622.636364 235.278572 
L 622.636364 235.278572 
" clip-path="url(#pa44013eae5)" style="fill: none; stroke: #dd8452; stroke-width: 3; stroke-linecap: round"/>
   </g>
   <g id="line2d_14">
    <path d="M 115.363636 235.278572 
L 155.149733 235.278572 
L 218.807487 180.294201 
L 220.796791 235.278572 
L 248.647059 235.278572 
L 254.614973 229.43662 
L 258.593583 225.791756 
L 262.572193 222.511466 
L 266.550802 219.721808 
L 268.540107 218.545323 
L 270.529412 217.529988 
L 272.518717 216.685582 
L 274.508021 216.020236 
L 276.497326 215.540359 
L 278.486631 215.250571 
L 280.475936 215.153664 
L 282.465241 215.250571 
L 284.454545 215.540359 
L 286.44385 216.020236 
L 288.433155 216.685582 
L 290.42246 217.529988 
L 292.411765 218.545323 
L 294.40107 219.721808 
L 296.390374 221.048113 
L 300.368984 224.097772 
L 304.347594 227.577103 
L 310.315508 233.305986 
L 312.304813 235.278572 
L 340.15508 235.278572 
L 342.144385 199.452332 
L 389.887701 199.452332 
L 391.877005 235.278572 
L 435.641711 235.278572 
L 477.417112 121.495375 
L 479.406417 121.495375 
L 521.181818 235.278572 
L 527.149733 235.278572 
L 529.139037 115.662306 
L 606.721925 235.278572 
L 622.636364 235.278572 
L 622.636364 235.278572 
" clip-path="url(#pa44013eae5)" style="fill: none; stroke: #55a868; stroke-width: 3; stroke-linecap: round"/>
   </g>
   <g id="line2d_15">
    <path d="M 115.363636 235.278572 
L 153.160428 235.278572 
L 155.149733 165.367568 
L 224.775401 235.278572 
L 248.647059 235.278572 
L 302.358289 195.141222 
L 304.347594 235.278572 
L 342.144385 235.278572 
L 381.930481 202.346627 
L 383.919786 202.346627 
L 423.705882 235.278572 
L 433.652406 235.278572 
L 435.641711 148.908707 
L 517.203209 148.908707 
L 519.192513 235.278572 
L 529.139037 235.278572 
L 535.106952 215.786432 
L 539.085561 203.450411 
L 543.064171 192.081473 
L 545.053476 186.869052 
L 547.042781 182.025056 
L 549.032086 177.586352 
L 551.02139 173.586721 
L 553.010695 170.056602 
L 555 167.022861 
L 556.989305 164.508588 
L 558.97861 162.532917 
L 560.967914 161.110884 
L 562.957219 160.253312 
L 564.946524 159.966728 
L 566.935829 160.253312 
L 568.925134 161.110884 
L 570.914439 162.532917 
L 572.903743 164.508588 
L 574.893048 167.022861 
L 576.882353 170.056602 
L 578.871658 173.586721 
L 580.860963 177.586352 
L 582.850267 182.025056 
L 584.839572 186.869052 
L 586.828877 192.081473 
L 590.807487 203.450411 
L 594.786096 215.786432 
L 600.754011 235.278572 
L 622.636364 235.278572 
L 622.636364 235.278572 
" clip-path="url(#pa44013eae5)" style="fill: none; stroke: #c44e52; stroke-width: 3; stroke-linecap: round"/>
   </g>
   <g id="line2d_16">
    <path d="M 115.363636 235.278572 
L 153.160428 235.278572 
L 155.149733 211.852156 
L 159.128342 211.959887 
L 163.106952 212.282088 
L 167.085561 212.815796 
L 171.064171 213.556103 
L 175.042781 214.4962 
L 179.02139 215.627439 
L 183 216.939418 
L 186.97861 218.420068 
L 192.946524 220.927121 
L 198.914439 223.730879 
L 204.882353 226.773376 
L 206.871658 235.278572 
L 248.647059 235.278572 
L 300.368984 188.72475 
L 302.358289 235.278572 
L 342.144385 235.278572 
L 348.112299 209.730154 
L 352.090909 193.861655 
L 354.080214 186.525074 
L 356.069519 179.68877 
L 358.058824 173.422893 
L 360.048128 167.791738 
L 362.037433 162.85309 
L 364.026738 158.657625 
L 366.016043 155.248395 
L 368.005348 152.660382 
L 369.994652 150.920145 
L 371.983957 150.045538 
L 373.973262 150.045538 
L 375.962567 150.920145 
L 377.951872 152.660382 
L 379.941176 155.248395 
L 381.930481 158.657625 
L 383.919786 162.85309 
L 385.909091 167.791738 
L 387.898396 173.422893 
L 389.887701 179.68877 
L 391.877005 186.525074 
L 393.86631 193.861655 
L 397.84492 209.730154 
L 403.812834 235.278572 
L 433.652406 235.278572 
L 435.641711 154.041529 
L 483.385027 235.278572 
L 529.139037 235.278572 
L 562.957219 209.397433 
L 564.946524 209.397433 
L 598.764706 235.278572 
L 622.636364 235.278572 
L 622.636364 235.278572 
" clip-path="url(#pa44013eae5)" style="fill: none; stroke: #8172b3; stroke-width: 3; stroke-linecap: round"/>
   </g>
   <g id="line2d_17">
    <path d="M 115.363636 235.278572 
L 153.160428 235.278572 
L 155.149733 163.380104 
L 232.73262 235.278572 
L 248.647059 235.278572 
L 256.604278 209.260131 
L 260.582888 196.945576 
L 264.561497 185.448022 
L 268.540107 175.01252 
L 270.529412 170.263561 
L 272.518717 165.861484 
L 274.508021 161.829778 
L 276.497326 158.189953 
L 278.486631 154.961429 
L 280.475936 152.161432 
L 282.465241 149.804901 
L 284.454545 147.904409 
L 286.44385 146.470095 
L 288.433155 145.509614 
L 290.42246 145.028088 
L 292.411765 145.028088 
L 294.40107 145.509614 
L 296.390374 146.470095 
L 298.379679 147.904409 
L 300.368984 149.804901 
L 302.358289 152.161432 
L 304.347594 154.961429 
L 306.336898 158.189953 
L 308.326203 161.829778 
L 310.315508 165.861484 
L 312.304813 170.263561 
L 314.294118 175.01252 
L 318.272727 185.448022 
L 322.251337 196.945576 
L 326.229947 209.260131 
L 332.197861 228.686312 
L 334.187166 235.278572 
L 340.15508 235.278572 
L 342.144385 194.340283 
L 411.770053 194.340283 
L 413.759358 235.278572 
L 435.641711 235.278572 
L 481.395722 175.093778 
L 483.385027 175.093778 
L 527.149733 232.661842 
L 529.139037 177.755922 
L 531.128342 177.896609 
L 533.117647 178.317982 
L 535.106952 179.017981 
L 537.096257 179.993181 
L 539.085561 181.238812 
L 541.074866 182.74878 
L 543.064171 184.515701 
L 545.053476 186.53093 
L 547.042781 188.78461 
L 549.032086 191.265718 
L 551.02139 193.962116 
L 555 199.947038 
L 558.97861 206.622417 
L 562.957219 213.857803 
L 566.935829 221.511798 
L 574.893048 237.472055 
L 580.860963 249.398587 
L 584.839572 257.036823 
L 588.818182 264.249854 
L 592.796791 270.896721 
L 594.786096 273.966748 
L 596.775401 235.278572 
L 622.636364 235.278572 
L 622.636364 235.278572 
" clip-path="url(#pa44013eae5)" style="fill: none; stroke: #937860; stroke-width: 3; stroke-linecap: round"/>
   </g>
   <g id="line2d_18">
    <path d="M 115.363636 235.278572 
L 153.160428 235.278572 
L 155.149733 207.839598 
L 206.871658 207.839598 
L 208.860963 235.278572 
L 246.657754 235.278572 
L 248.647059 140.167528 
L 250.636364 140.242237 
L 252.625668 140.466249 
L 254.614973 140.839212 
L 256.604278 141.360538 
L 258.593583 142.02941 
L 260.582888 142.844776 
L 262.572193 143.805356 
L 264.561497 144.909641 
L 266.550802 146.155895 
L 268.540107 147.542161 
L 272.518717 150.7258 
L 276.497326 154.440561 
L 280.475936 158.663109 
L 284.454545 163.366919 
L 288.433155 168.522445 
L 292.411765 174.097302 
L 296.390374 180.056471 
L 300.368984 186.36252 
L 306.336898 196.384808 
L 312.304813 206.956438 
L 318.272727 217.928097 
L 320.262032 235.278572 
L 342.144385 235.278572 
L 423.705882 199.46401 
L 425.695187 235.278572 
L 435.641711 235.278572 
L 459.513369 200.159353 
L 461.502674 200.159353 
L 485.374332 235.278572 
L 529.139037 235.278572 
L 535.106952 193.881608 
L 537.096257 180.957434 
L 539.085561 168.76786 
L 541.074866 157.47773 
L 543.064171 147.239722 
L 545.053476 138.192288 
L 547.042781 130.45778 
L 549.032086 124.140794 
L 551.02139 119.326755 
L 553.010695 116.080766 
L 555 114.446722 
L 556.989305 114.446722 
L 558.97861 116.080766 
L 560.967914 119.326755 
L 562.957219 124.140794 
L 564.946524 130.45778 
L 566.935829 138.192288 
L 568.925134 147.239722 
L 570.914439 157.47773 
L 572.903743 168.76786 
L 574.893048 180.957434 
L 578.871658 207.365606 
L 582.850267 235.278572 
L 622.636364 235.278572 
L 622.636364 235.278572 
" clip-path="url(#pa44013eae5)" style="fill: none; stroke: #da8bc3; stroke-width: 3; stroke-linecap: round"/>
   </g>
   <g id="line2d_19">
    <path d="M 115.363636 235.278572 
L 155.149733 235.278572 
L 206.871658 183.98932 
L 208.860963 235.278572 
L 246.657754 235.278572 
L 248.647059 141.337712 
L 322.251337 235.278572 
L 340.15508 235.278572 
L 342.144385 245.758878 
L 385.909091 245.645418 
L 417.737968 245.421587 
L 419.727273 235.278572 
L 435.641711 235.278572 
L 473.438503 203.553898 
L 475.427807 203.553898 
L 513.224599 235.278572 
L 527.149733 235.278572 
L 529.139037 169.429997 
L 602.743316 169.429997 
L 604.73262 235.278572 
L 622.636364 235.278572 
L 622.636364 235.278572 
" clip-path="url(#pa44013eae5)" style="fill: none; stroke: #8c8c8c; stroke-width: 3; stroke-linecap: round"/>
   </g>
   <g id="line2d_20">
    <path d="M 115.363636 235.278572 
L 153.160428 235.278572 
L 155.149733 147.806105 
L 228.754011 147.806105 
L 230.743316 235.278572 
L 248.647059 235.278572 
L 252.625668 222.092617 
L 256.604278 209.735184 
L 258.593583 204.113212 
L 260.582888 198.982736 
L 262.572193 194.424667 
L 264.561497 190.510888 
L 266.550802 187.303123 
L 268.540107 184.851959 
L 270.529412 183.196054 
L 272.518717 182.36152 
L 274.508021 182.36152 
L 276.497326 183.196054 
L 278.486631 184.851959 
L 280.475936 187.303123 
L 282.465241 190.510888 
L 284.454545 194.424667 
L 286.44385 198.982736 
L 288.433155 204.113212 
L 290.42246 209.735184 
L 294.40107 222.092617 
L 298.379679 235.278572 
L 340.15508 235.278572 
L 342.144385 184.518405 
L 344.13369 184.953113 
L 346.122995 186.249789 
L 348.112299 188.386225 
L 350.101604 191.325828 
L 352.090909 195.018249 
L 354.080214 199.400244 
L 356.069519 204.396759 
L 358.058824 209.922215 
L 362.037433 222.173951 
L 371.983957 254.751088 
L 373.973262 260.706085 
L 375.962567 266.225563 
L 377.951872 271.214985 
L 379.941176 275.588891 
L 381.930481 279.272366 
L 383.919786 282.202321 
L 385.909091 284.328571 
L 387.898396 285.614697 
L 389.887701 286.038672 
L 391.877005 235.278572 
L 435.641711 235.278572 
L 477.417112 209.61149 
L 479.406417 209.61149 
L 521.181818 235.278572 
L 529.139037 235.278572 
L 580.860963 96.915231 
L 582.850267 235.278572 
L 622.636364 235.278572 
L 622.636364 235.278572 
" clip-path="url(#pa44013eae5)" style="fill: none; stroke: #ccb974; stroke-width: 3; stroke-linecap: round"/>
   </g>
   <g id="line2d_21">
    <path d="M 115.363636 235.278572 
L 153.160428 235.278572 
L 155.149733 186.30965 
L 157.139037 186.419867 
L 159.128342 186.750024 
L 161.117647 187.298633 
L 163.106952 188.063225 
L 165.096257 189.040358 
L 167.085561 190.225635 
L 169.074866 191.613718 
L 171.064171 193.19836 
L 173.053476 194.972427 
L 175.042781 196.927934 
L 177.032086 199.056077 
L 181.010695 203.791219 
L 184.989305 209.092689 
L 188.967914 214.865133 
L 192.946524 221.004731 
L 198.914439 230.659665 
L 204.882353 240.501166 
L 206.871658 235.278572 
L 246.657754 235.278572 
L 248.647059 151.089147 
L 306.336898 235.278572 
L 340.15508 235.278572 
L 342.144385 212.140839 
L 407.791444 212.140839 
L 409.780749 235.278572 
L 435.641711 235.278572 
L 459.513369 200.89716 
L 461.502674 200.89716 
L 485.374332 235.278572 
L 529.139037 235.278572 
L 578.871658 175.424286 
L 580.860963 235.278572 
L 622.636364 235.278572 
L 622.636364 235.278572 
" clip-path="url(#pa44013eae5)" style="fill: none; stroke: #64b5cd; stroke-width: 3; stroke-linecap: round"/>
   </g>
   <g id="line2d_22">
    <path d="M 115.363636 235.278572 
L 155.149733 235.278572 
L 167.085561 233.525135 
L 173.053476 232.851384 
L 179.02139 232.400258 
L 184.989305 232.213136 
L 190.957219 232.30718 
L 196.925134 232.673764 
L 202.893048 233.279265 
L 210.850267 234.359714 
L 216.818182 235.278572 
L 246.657754 235.278572 
L 248.647059 137.728403 
L 300.368984 235.278572 
L 342.144385 235.278572 
L 407.791444 112.810659 
L 409.780749 235.278572 
L 433.652406 235.278572 
L 435.641711 120.445124 
L 517.203209 120.445124 
L 519.192513 235.278572 
L 527.149733 235.278572 
L 529.139037 273.339174 
L 531.128342 272.539365 
L 533.117647 270.173551 
L 535.106952 266.341164 
L 537.096257 261.203272 
L 539.085561 254.975812 
L 541.074866 247.920512 
L 549.032086 217.605522 
L 551.02139 211.10277 
L 553.010695 205.616084 
L 555 201.376059 
L 556.989305 198.560895 
L 558.97861 197.28891 
L 560.967914 197.613562 
L 562.957219 199.521207 
L 564.946524 202.931669 
L 566.935829 207.701614 
L 568.925134 213.630569 
L 570.914439 220.469351 
L 574.893048 235.700549 
L 578.871658 250.861552 
L 580.860963 257.615355 
L 582.850267 263.430382 
L 584.839572 268.06224 
L 586.828877 271.316259 
L 588.818182 235.278572 
L 622.636364 235.278572 
L 622.636364 235.278572 
" clip-path="url(#pa44013eae5)" style="fill: none; stroke: #4c72b0; stroke-width: 3; stroke-linecap: round"/>
   </g>
   <g id="line2d_23">
    <path d="M 115.363636 235.278572 
L 155.149733 235.278572 
L 194.935829 187.846432 
L 196.925134 187.846432 
L 236.71123 235.278572 
L 248.647059 235.278572 
L 254.614973 218.525024 
L 258.593583 207.864228 
L 262.572193 197.951224 
L 264.561497 193.360647 
L 266.550802 189.056413 
L 268.540107 185.067922 
L 270.529412 181.422421 
L 272.518717 178.144812 
L 274.508021 175.257485 
L 276.497326 172.780163 
L 278.486631 170.729768 
L 280.475936 169.120307 
L 282.465241 167.962774 
L 284.454545 167.265076 
L 286.44385 167.031979 
L 288.433155 167.265076 
L 290.42246 167.962774 
L 292.411765 169.120307 
L 294.40107 170.729768 
L 296.390374 172.780163 
L 298.379679 175.257485 
L 300.368984 178.144812 
L 302.358289 181.422421 
L 304.347594 185.067922 
L 306.336898 189.056413 
L 308.326203 193.360647 
L 312.304813 202.796784 
L 316.283422 213.11894 
L 322.251337 229.642813 
L 324.240642 235.278572 
L 340.15508 235.278572 
L 342.144385 157.889746 
L 425.695187 157.889746 
L 427.684492 235.278572 
L 435.641711 235.278572 
L 503.278075 198.571132 
L 505.26738 235.278572 
L 527.149733 235.278572 
L 529.139037 99.815534 
L 578.871658 235.278572 
L 622.636364 235.278572 
L 622.636364 235.278572 
" clip-path="url(#pa44013eae5)" style="fill: none; stroke: #dd8452; stroke-width: 3; stroke-linecap: round"/>
   </g>
   <g id="line2d_24">
    <path d="M 115.363636 235.278572 
L 153.160428 235.278572 
L 155.149733 160.882693 
L 238.700535 160.882693 
L 240.68984 235.278572 
L 246.657754 235.278572 
L 248.647059 101.197135 
L 250.636364 102.561566 
L 252.625668 106.62709 
L 254.614973 113.310964 
L 256.604278 122.477156 
L 258.593583 133.939113 
L 260.582888 147.463559 
L 262.572193 162.775239 
L 264.561497 179.562528 
L 268.540107 216.174211 
L 274.508021 273.025219 
L 276.497326 290.948958 
L 278.486631 307.739678 
L 280.475936 323.055649 
L 282.465241 336.585158 
L 284.454545 348.052847 
L 286.44385 357.225323 
L 288.433155 363.915906 
L 290.42246 367.988427 
L 292.411765 369.36 
L 294.40107 368.002711 
L 296.390374 363.944185 
L 298.379679 357.267021 
L 300.368984 348.107114 
L 302.358289 336.650891 
L 304.347594 323.13151 
L 306.336898 307.824122 
L 308.326203 291.040267 
L 310.315508 235.278572 
L 342.144385 235.278572 
L 348.112299 222.26481 
L 352.090909 214.112219 
L 356.069519 206.724634 
L 358.058824 203.402512 
L 360.048128 200.369064 
L 362.037433 197.651762 
L 364.026738 195.275214 
L 366.016043 193.260943 
L 368.005348 191.627189 
L 369.994652 190.38875 
L 371.983957 189.55684 
L 373.973262 189.138993 
L 375.962567 189.138993 
L 377.951872 189.55684 
L 379.941176 190.38875 
L 381.930481 191.627189 
L 383.919786 193.260943 
L 385.909091 195.275214 
L 387.898396 197.651762 
L 389.887701 200.369064 
L 391.877005 203.402512 
L 393.86631 206.724634 
L 397.84492 214.112219 
L 401.823529 222.26481 
L 407.791444 235.278572 
L 433.652406 235.278572 
L 435.641711 179.657037 
L 485.374332 235.278572 
L 529.139037 235.278572 
L 608.71123 196.655887 
L 610.700535 235.278572 
L 622.636364 235.278572 
L 622.636364 235.278572 
" clip-path="url(#pa44013eae5)" style="fill: none; stroke: #55a868; stroke-width: 3; stroke-linecap: round"/>
   </g>
   <g id="line2d_25">
    <path d="M 115.363636 235.278572 
L 153.160428 235.278572 
L 155.149733 201.000774 
L 224.775401 235.278572 
L 248.647059 235.278572 
L 276.497326 186.937354 
L 278.486631 186.937354 
L 306.336898 235.278572 
L 342.144385 235.278572 
L 350.101604 208.741322 
L 354.080214 196.215369 
L 358.058824 184.562024 
L 362.037433 174.041602 
L 364.026738 169.280814 
L 366.016043 164.889113 
L 368.005348 160.891058 
L 369.994652 157.309008 
L 371.983957 154.162996 
L 373.973262 151.470615 
L 375.962567 149.246922 
L 377.951872 147.504352 
L 379.941176 146.252652 
L 381.930481 145.498821 
L 383.919786 145.247075 
L 385.909091 145.498821 
L 387.898396 146.252652 
L 389.887701 147.504352 
L 391.877005 149.246922 
L 393.86631 151.470615 
L 395.855615 154.162996 
L 397.84492 157.309008 
L 399.834225 160.891058 
L 401.823529 164.889113 
L 403.812834 169.280814 
L 405.802139 174.041602 
L 407.791444 179.144852 
L 411.770053 190.262823 
L 415.748663 202.386373 
L 419.727273 215.244679 
L 425.695187 235.278572 
L 435.641711 235.278572 
L 517.203209 225.78441 
L 519.192513 235.278572 
L 527.149733 235.278572 
L 529.139037 121.816047 
L 574.893048 121.816047 
L 576.882353 235.278572 
L 622.636364 235.278572 
L 622.636364 235.278572 
" clip-path="url(#pa44013eae5)" style="fill: none; stroke: #c44e52; stroke-width: 3; stroke-linecap: round"/>
   </g>
   <g id="line2d_26">
    <path d="M 115.363636 235.278572 
L 153.160428 235.278572 
L 155.149733 221.415295 
L 216.818182 221.415295 
L 218.807487 235.278572 
L 248.647059 235.278572 
L 292.411765 66.96 
L 294.40107 66.96 
L 338.165775 235.278572 
L 340.15508 235.278572 
L 342.144385 187.222595 
L 344.13369 187.313022 
L 346.122995 187.583964 
L 348.112299 188.034401 
L 350.101604 188.662637 
L 352.090909 189.466309 
L 354.080214 190.442391 
L 356.069519 191.587211 
L 358.058824 192.89646 
L 360.048128 194.36521 
L 362.037433 195.987934 
L 366.016043 199.670321 
L 369.994652 203.888239 
L 373.973262 208.578252 
L 377.951872 213.669825 
L 381.930481 219.086383 
L 387.898396 227.641332 
L 389.887701 230.564942 
L 391.877005 235.278572 
L 435.641711 235.278572 
L 487.363636 140.885714 
L 489.352941 235.278572 
L 527.149733 235.278572 
L 529.139037 245.236789 
L 620.647059 235.278572 
L 622.636364 235.278572 
L 622.636364 235.278572 
" clip-path="url(#pa44013eae5)" style="fill: none; stroke: #8172b3; stroke-width: 3; stroke-linecap: round"/>
   </g>
   <g id="line2d_27">
    <path d="M 115.363636 235.278572 
L 153.160428 235.278572 
L 155.149733 110.461045 
L 214.828877 235.278572 
L 246.657754 235.278572 
L 248.647059 222.17524 
L 252.625668 222.312969 
L 256.604278 222.723261 
L 260.582888 223.397491 
L 264.561497 224.321485 
L 268.540107 225.475819 
L 272.518717 226.836226 
L 278.486631 229.199628 
L 284.454545 231.84993 
L 306.336898 241.94114 
L 310.315508 243.502733 
L 314.294118 244.891437 
L 318.272727 246.07806 
L 322.251337 247.037655 
L 326.229947 247.750052 
L 328.219251 235.278572 
L 340.15508 235.278572 
L 342.144385 130.477318 
L 427.684492 130.477318 
L 429.673797 235.278572 
L 435.641711 235.278572 
L 495.320856 111.088878 
L 497.31016 235.278572 
L 529.139037 235.278572 
L 553.010695 122.482232 
L 555 122.482232 
L 578.871658 235.278572 
L 622.636364 235.278572 
L 622.636364 235.278572 
" clip-path="url(#pa44013eae5)" style="fill: none; stroke: #937860; stroke-width: 3; stroke-linecap: round"/>
   </g>
   <g id="line2d_28">
    <path d="M 115.363636 235.278572 
L 155.149733 235.278572 
L 186.97861 198.883574 
L 188.967914 198.883574 
L 220.796791 235.278572 
L 246.657754 235.278572 
L 248.647059 136.854297 
L 250.636364 137.962672 
L 252.625668 141.262835 
L 254.614973 146.680457 
L 256.604278 154.093522 
L 258.593583 163.335068 
L 260.582888 174.196955 
L 262.572193 186.434546 
L 264.561497 199.772221 
L 268.540107 228.52823 
L 272.518717 257.888949 
L 274.508021 271.969751 
L 276.497326 285.224179 
L 278.486631 297.353712 
L 280.475936 308.085164 
L 282.465241 317.176838 
L 284.454545 324.423966 
L 286.44385 329.663326 
L 288.433155 332.776915 
L 290.42246 333.694608 
L 292.411765 332.395735 
L 294.40107 328.909551 
L 296.390374 323.314574 
L 298.379679 315.736814 
L 300.368984 306.346942 
L 302.358289 295.35644 
L 304.347594 283.01284 
L 306.336898 269.59415 
L 310.315508 240.757791 
L 314.294118 211.43059 
L 316.283422 197.408709 
L 318.272727 184.239748 
L 320.262032 172.220303 
L 322.251337 161.621082 
L 324.240642 152.680804 
L 326.229947 145.600826 
L 328.219251 140.540606 
L 330.208556 137.614111 
L 332.197861 136.887255 
L 334.187166 138.376407 
L 336.176471 235.278572 
L 340.15508 235.278572 
L 342.144385 162.198265 
L 407.791444 162.198265 
L 409.780749 235.278572 
L 433.652406 235.278572 
L 435.641711 130.525417 
L 483.385027 235.278572 
L 529.139037 235.278572 
L 535.106952 227.780101 
L 539.085561 223.101716 
L 543.064171 218.89128 
L 545.053476 217.012986 
L 547.042781 215.310599 
L 549.032086 213.800515 
L 551.02139 212.497276 
L 553.010695 211.413433 
L 555 210.559425 
L 556.989305 209.943476 
L 558.97861 209.571518 
L 560.967914 209.447132 
L 562.957219 209.571518 
L 564.946524 209.943476 
L 566.935829 210.559425 
L 568.925134 211.413433 
L 570.914439 212.497276 
L 572.903743 213.800515 
L 574.893048 215.310599 
L 576.882353 217.012986 
L 578.871658 218.89128 
L 582.850267 223.101716 
L 586.828877 227.780101 
L 592.796791 235.278572 
L 622.636364 235.278572 
L 622.636364 235.278572 
" clip-path="url(#pa44013eae5)" style="fill: none; stroke: #da8bc3; stroke-width: 3; stroke-linecap: round"/>
   </g>
   <g id="line2d_29">
    <path d="M 115.363636 235.278572 
L 155.149733 235.278572 
L 161.117647 218.691423 
L 165.096257 208.55906 
L 167.085561 203.965904 
L 169.074866 199.766524 
L 171.064171 196.013729 
L 173.053476 192.754712 
L 175.042781 190.030456 
L 177.032086 187.875223 
L 179.02139 186.316113 
L 181.010695 185.372736 
L 183 185.056953 
L 184.989305 185.372736 
L 186.97861 186.316113 
L 188.967914 187.875223 
L 190.957219 190.030456 
L 192.946524 192.754712 
L 194.935829 196.013729 
L 196.925134 199.766524 
L 198.914439 203.965904 
L 200.903743 208.55906 
L 204.882353 218.691423 
L 208.860963 229.655535 
L 210.850267 235.278572 
L 246.657754 235.278572 
L 248.647059 148.118164 
L 296.390374 235.278572 
L 342.144385 235.278572 
L 431.663102 164.266109 
L 433.652406 235.278572 
L 435.641711 235.278572 
L 479.406417 185.13028 
L 481.395722 185.13028 
L 525.160428 235.278572 
L 527.149733 235.278572 
L 529.139037 112.535603 
L 531.128342 112.945034 
L 533.117647 114.170595 
L 535.106952 116.204109 
L 537.096257 119.032012 
L 539.085561 122.635435 
L 541.074866 126.990341 
L 543.064171 132.067676 
L 545.053476 137.833566 
L 547.042781 144.249547 
L 549.032086 151.272814 
L 551.02139 158.856513 
L 555 175.499432 
L 558.97861 193.73492 
L 562.957219 213.077169 
L 574.893048 272.52689 
L 578.871658 291.05644 
L 582.850267 308.100018 
L 584.839572 315.920789 
L 586.828877 323.203567 
L 588.818182 329.899767 
L 590.807487 335.964716 
L 592.796791 341.357952 
L 594.786096 346.043495 
L 596.775401 349.990086 
L 598.764706 353.171397 
L 600.754011 355.566203 
L 602.743316 235.278572 
L 622.636364 235.278572 
L 622.636364 235.278572 
" clip-path="url(#pa44013eae5)" style="fill: none; stroke: #8c8c8c; stroke-width: 3; stroke-linecap: round"/>
   </g>
   <g id="line2d_30">
    <path d="M 115.363636 235.278572 
L 153.160428 235.278572 
L 155.149733 126.436226 
L 204.882353 126.436226 
L 206.871658 235.278572 
L 246.657754 235.278572 
L 248.647059 182.947215 
L 250.636364 183.692813 
L 252.625668 185.908361 
L 254.614973 189.530725 
L 256.604278 194.456686 
L 258.593583 200.545878 
L 260.582888 207.624787 
L 262.572193 215.491698 
L 266.550802 232.676779 
L 270.529412 250.156303 
L 272.518717 258.383405 
L 274.508021 265.952128 
L 276.497326 272.646801 
L 278.486631 278.276656 
L 280.475936 282.681269 
L 282.465241 285.73513 
L 284.454545 287.351219 
L 286.44385 287.483484 
L 288.433155 286.128156 
L 290.42246 283.323856 
L 292.411765 279.150493 
L 294.40107 273.726988 
L 296.390374 267.207886 
L 298.379679 259.77895 
L 302.358289 243.058226 
L 308.326203 216.951138 
L 310.315508 235.278572 
L 340.15508 235.278572 
L 342.144385 226.259305 
L 429.673797 235.278572 
L 435.641711 235.278572 
L 441.609626 217.650202 
L 445.588235 206.43273 
L 449.566845 196.002098 
L 451.55615 191.171814 
L 453.545455 186.642825 
L 455.534759 182.446067 
L 457.524064 178.610209 
L 459.513369 175.161453 
L 461.502674 172.123358 
L 463.491979 169.516677 
L 465.481283 167.359216 
L 467.470588 165.665714 
L 469.459893 164.447738 
L 471.449198 163.713608 
L 473.438503 163.46834 
L 475.427807 163.713608 
L 477.417112 164.447738 
L 479.406417 165.665714 
L 481.395722 167.359216 
L 483.385027 169.516677 
L 485.374332 172.123358 
L 487.363636 175.161453 
L 489.352941 178.610209 
L 491.342246 182.446067 
L 493.331551 186.642825 
L 495.320856 191.171814 
L 499.299465 201.100679 
L 503.278075 211.961828 
L 509.245989 229.34853 
L 511.235294 235.278572 
L 529.139037 235.278572 
L 582.850267 177.726305 
L 584.839572 235.278572 
L 622.636364 235.278572 
L 622.636364 235.278572 
" clip-path="url(#pa44013eae5)" style="fill: none; stroke: #ccb974; stroke-width: 3; stroke-linecap: round"/>
   </g>
   <g id="line2d_31">
    <path d="M 115.363636 235.278572 
L 153.160428 235.278572 
L 155.149733 147.624096 
L 240.68984 147.624096 
L 242.679144 235.278572 
L 246.657754 235.278572 
L 248.647059 157.018819 
L 250.636364 158.403575 
L 252.625668 162.508838 
L 254.614973 169.189328 
L 256.604278 178.208631 
L 258.593583 189.247566 
L 260.582888 201.915479 
L 264.561497 230.303251 
L 268.540107 259.389074 
L 270.529412 272.906403 
L 272.518717 285.092133 
L 274.508021 295.515024 
L 276.497326 303.806225 
L 278.486631 309.672321 
L 280.475936 312.905718 
L 282.465241 313.391991 
L 284.454545 311.11393 
L 286.44385 306.152153 
L 288.433155 298.682252 
L 290.42246 288.968577 
L 292.411765 277.354881 
L 294.40107 264.252159 
L 298.379679 235.470675 
L 302.358289 206.662239 
L 304.347594 235.278572 
L 340.15508 235.278572 
L 342.144385 198.961973 
L 419.727273 235.278572 
L 435.641711 235.278572 
L 467.470588 169.032859 
L 469.459893 169.032859 
L 501.28877 235.278572 
L 529.139037 235.278572 
L 535.106952 220.136784 
L 539.085561 210.501601 
L 543.064171 201.542268 
L 545.053476 197.393324 
L 547.042781 193.503174 
L 549.032086 189.898393 
L 551.02139 186.603604 
L 553.010695 183.641315 
L 555 181.03176 
L 556.989305 178.792767 
L 558.97861 176.939628 
L 560.967914 175.485004 
L 562.957219 174.43883 
L 564.946524 173.808254 
L 566.935829 173.597582 
L 568.925134 173.808254 
L 570.914439 174.43883 
L 572.903743 175.485004 
L 574.893048 176.939628 
L 576.882353 178.792767 
L 578.871658 181.03176 
L 580.860963 183.641315 
L 582.850267 186.603604 
L 584.839572 189.898393 
L 586.828877 193.503174 
L 588.818182 197.393324 
L 592.796791 205.921666 
L 596.775401 215.250787 
L 602.743316 230.184996 
L 604.73262 235.278572 
L 622.636364 235.278572 
L 622.636364 235.278572 
" clip-path="url(#pa44013eae5)" style="fill: none; stroke: #64b5cd; stroke-width: 3; stroke-linecap: round"/>
   </g>
   <g id="patch_3">
    <path d="M 90 384.48 
L 90 51.84 
" style="fill: none; stroke: #ffffff; stroke-width: 1.25; stroke-linejoin: miter; stroke-linecap: square"/>
   </g>
   <g id="patch_4">
    <path d="M 648 384.48 
L 648 51.84 
" style="fill: none; stroke: #ffffff; stroke-width: 1.25; stroke-linejoin: miter; stroke-linecap: square"/>
   </g>
   <g id="patch_5">
    <path d="M 90 384.48 
L 648 384.48 
" style="fill: none; stroke: #ffffff; stroke-width: 1.25; stroke-linejoin: miter; stroke-linecap: square"/>
   </g>
   <g id="patch_6">
    <path d="M 90 51.84 
L 648 51.84 
" style="fill: none; stroke: #ffffff; stroke-width: 1.25; stroke-linejoin: miter; stroke-linecap: square"/>
   </g>
   <g id="text_14">
    <!-- Illustration of Stochasticity in Signal Generation -->
    <g style="fill: #262626" transform="translate(78.383939 45.84) scale(0.3 -0.3)">
     <defs>
      <path id="CMR17-49" d="M 1261 3898 
C 1261 4185 1338 4185 1798 4185 
L 1798 4352 
C 1594 4339 1267 4339 1050 4339 
C 832 4339 506 4339 301 4352 
L 301 4185 
C 762 4185 838 4185 838 3898 
L 838 453 
C 838 166 762 166 301 166 
L 301 0 
C 506 12 832 12 1050 12 
C 1267 12 1594 12 1798 0 
L 1798 166 
C 1338 166 1261 166 1261 453 
L 1261 3898 
z
" transform="scale(0.015625)"/>
      <path id="CMR17-73" d="M 1978 2688 
C 1978 2803 1971 2809 1933 2809 
C 1907 2809 1901 2803 1824 2707 
C 1805 2681 1747 2617 1728 2592 
C 1523 2809 1235 2816 1126 2816 
C 416 2816 160 2444 160 2073 
C 160 1497 813 1363 998 1324 
C 1402 1241 1542 1216 1677 1100 
C 1760 1024 1901 883 1901 652 
C 1901 384 1747 38 1158 38 
C 602 38 403 460 288 1024 
C 269 1113 269 1120 218 1120 
C 166 1120 160 1113 160 985 
L 160 64 
C 160 -52 166 -58 205 -58 
C 237 -58 243 -52 275 0 
C 314 57 410 211 448 275 
C 576 102 800 -64 1158 -64 
C 1792 -64 2131 281 2131 780 
C 2131 1107 1958 1280 1875 1356 
C 1683 1555 1459 1600 1190 1651 
C 838 1728 390 1817 390 2208 
C 390 2374 480 2726 1126 2726 
C 1811 2726 1850 2086 1862 1881 
C 1869 1849 1901 1843 1920 1843 
C 1978 1843 1978 1862 1978 1971 
L 1978 2688 
z
" transform="scale(0.015625)"/>
      <path id="CMR17-72" d="M 960 1517 
C 960 2134 1222 2713 1702 2713 
C 1747 2713 1792 2707 1837 2687 
C 1837 2687 1696 2642 1696 2475 
C 1696 2321 1818 2257 1914 2257 
C 1990 2257 2131 2302 2131 2482 
C 2131 2687 1926 2816 1709 2816 
C 1222 2816 1011 2340 947 2115 
L 941 2115 
L 941 2816 
L 198 2745 
L 198 2578 
C 576 2578 634 2540 634 2231 
L 634 443 
C 634 198 608 166 198 166 
L 198 0 
C 352 12 646 12 813 12 
C 998 12 1325 12 1498 0 
L 1498 166 
C 1037 166 960 166 960 455 
L 960 1517 
z
" transform="scale(0.015625)"/>
      <path id="CMR17-61" d="M 2304 1656 
C 2304 2048 2304 2275 2035 2534 
C 1798 2751 1523 2816 1306 2816 
C 800 2816 435 2408 435 1977 
C 435 1740 627 1728 666 1728 
C 749 1728 896 1779 896 1958 
C 896 2118 774 2188 666 2188 
C 640 2188 608 2182 589 2176 
C 723 2594 1069 2713 1293 2713 
C 1613 2713 1965 2421 1965 1875 
L 1965 1632 
C 1587 1619 1133 1568 774 1373 
C 371 1147 256 822 256 576 
C 256 77 832 -64 1171 -64 
C 1523 -64 1850 135 1990 505 
C 2003 219 2182 -39 2464 -39 
C 2598 -39 2938 51 2938 563 
L 2938 926 
L 2822 926 
L 2822 557 
C 2822 161 2650 109 2566 109 
C 2304 109 2304 446 2304 732 
L 2304 1656 
z
M 1965 887 
C 1965 323 1568 38 1216 38 
C 896 38 646 278 646 576 
C 646 771 730 1114 1101 1322 
C 1408 1497 1760 1523 1965 1536 
L 1965 887 
z
" transform="scale(0.015625)"/>
      <path id="CMR17-6f" d="M 2758 1356 
C 2758 2176 2163 2816 1466 2816 
C 768 2816 173 2176 173 1356 
C 173 550 768 -64 1466 -64 
C 2163 -64 2758 550 2758 1356 
z
M 1466 51 
C 1165 51 909 230 762 480 
C 602 768 582 1126 582 1408 
C 582 1676 595 2009 762 2297 
C 890 2508 1139 2713 1466 2713 
C 1754 2713 1997 2553 2150 2329 
C 2349 2028 2349 1606 2349 1408 
C 2349 1158 2336 774 2163 467 
C 1984 172 1709 51 1466 51 
z
" transform="scale(0.015625)"/>
      <path id="CMR17-6e" d="M 2656 1954 
C 2656 2282 2592 2816 1837 2816 
C 1331 2816 1069 2424 973 2166 
L 966 2166 
L 966 2816 
L 211 2745 
L 211 2578 
C 589 2578 646 2540 646 2231 
L 646 443 
C 646 198 621 166 211 166 
L 211 0 
C 365 12 646 12 813 12 
C 979 12 1267 12 1421 0 
L 1421 166 
C 1011 166 986 192 986 443 
L 986 1678 
C 986 2269 1344 2713 1792 2713 
C 2266 2713 2317 2289 2317 1980 
L 2317 443 
C 2317 198 2291 166 1882 166 
L 1882 0 
C 2035 12 2317 12 2483 12 
C 2650 12 2938 12 3091 0 
L 3091 166 
C 2682 166 2656 192 2656 443 
L 2656 1954 
z
" transform="scale(0.015625)"/>
      <path id="CMR17-66" d="M 979 2585 
L 1709 2585 
L 1709 2752 
L 966 2752 
L 966 3539 
C 966 4076 1235 4377 1510 4377 
C 1594 4377 1690 4363 1754 4339 
C 1702 4326 1568 4281 1568 4121 
C 1568 3955 1696 3904 1786 3904 
C 1875 3904 2003 3955 2003 4121 
C 2003 4353 1773 4480 1517 4480 
C 1152 4480 653 4211 653 3526 
L 653 2752 
L 141 2752 
L 141 2585 
L 653 2585 
L 653 441 
C 653 198 627 166 218 166 
L 218 0 
C 371 12 666 12 832 12 
C 1018 12 1344 12 1517 0 
L 1517 166 
C 1056 166 979 166 979 454 
L 979 2585 
z
" transform="scale(0.015625)"/>
      <path id="CMR17-53" d="M 2803 4351 
C 2803 4467 2797 4473 2758 4473 
C 2720 4473 2707 4447 2682 4390 
L 2490 3965 
C 2246 4320 1875 4480 1472 4480 
C 819 4480 294 3958 294 3301 
C 294 3101 339 2817 557 2546 
C 794 2250 1018 2198 1530 2063 
C 1722 2011 2042 1927 2106 1901 
C 2470 1747 2662 1360 2662 999 
C 2662 534 2336 38 1779 38 
C 1094 38 454 425 410 1328 
C 403 1431 397 1437 352 1437 
C 301 1437 294 1431 294 1302 
L 294 0 
C 294 -116 301 -122 339 -122 
C 384 -122 397 -90 486 109 
C 493 128 493 141 614 386 
C 934 -39 1472 -128 1779 -128 
C 2477 -128 2970 457 2970 1141 
C 2970 1476 2848 1734 2778 1850 
C 2509 2263 2221 2340 1914 2417 
C 1869 2437 1856 2437 1498 2527 
C 1152 2617 1005 2662 845 2836 
C 666 3036 602 3243 602 3449 
C 602 3868 934 4326 1478 4326 
C 2157 4326 2579 3842 2675 3036 
C 2694 2920 2701 2914 2746 2914 
C 2803 2914 2803 2933 2803 3043 
L 2803 4351 
z
" transform="scale(0.015625)"/>
      <path id="CMR17-63" d="M 2234 2240 
C 2112 2240 1933 2240 1933 2015 
C 1933 1836 2080 1785 2163 1785 
C 2208 1785 2394 1804 2394 2028 
C 2394 2476 1958 2816 1466 2816 
C 787 2816 211 2201 211 1379 
C 211 521 813 -64 1466 -64 
C 2259 -64 2458 676 2458 747 
C 2458 773 2451 792 2406 792 
C 2362 792 2355 786 2330 702 
C 2163 180 1798 51 1523 51 
C 1114 51 621 431 621 1385 
C 621 2358 1094 2700 1472 2700 
C 1722 2700 2093 2582 2234 2240 
z
" transform="scale(0.015625)"/>
      <path id="CMR17-68" d="M 2656 1954 
C 2656 2282 2592 2816 1837 2816 
C 1312 2816 1056 2392 979 2179 
L 973 2179 
L 973 4416 
L 211 4345 
L 211 4179 
C 589 4179 646 4141 646 3843 
L 646 443 
C 646 198 621 166 211 166 
L 211 0 
C 365 12 646 12 813 12 
C 979 12 1267 12 1421 0 
L 1421 166 
C 1011 166 986 192 986 443 
L 986 1678 
C 986 2269 1344 2713 1792 2713 
C 2266 2713 2317 2289 2317 1980 
L 2317 443 
C 2317 198 2291 166 1882 166 
L 1882 0 
C 2035 12 2317 12 2483 12 
C 2650 12 2938 12 3091 0 
L 3091 166 
C 2682 166 2656 192 2656 443 
L 2656 1954 
z
" transform="scale(0.015625)"/>
      <path id="CMR17-79" d="M 2496 2183 
C 2656 2579 2944 2585 3034 2585 
L 3034 2752 
C 2912 2745 2752 2739 2630 2739 
C 2496 2739 2285 2739 2157 2752 
L 2157 2585 
C 2400 2566 2406 2384 2406 2332 
C 2406 2268 2394 2235 2362 2158 
L 1664 409 
L 902 2300 
C 870 2378 870 2423 870 2430 
C 870 2572 1018 2585 1171 2585 
L 1171 2752 
C 1018 2739 742 2739 582 2739 
C 410 2739 205 2739 64 2752 
L 64 2585 
C 410 2585 448 2553 531 2345 
L 1485 -31 
C 1197 -795 1030 -1242 627 -1242 
C 557 -1242 397 -1223 282 -1106 
C 429 -1093 493 -1002 493 -892 
C 493 -782 416 -685 288 -685 
C 147 -685 77 -782 77 -899 
C 77 -1158 339 -1344 627 -1344 
C 998 -1344 1229 -983 1357 -659 
L 2496 2183 
z
" transform="scale(0.015625)"/>
      <path id="CMR17-67" d="M 710 1165 
C 832 1068 1043 960 1299 960 
C 1805 960 2240 1359 2240 1895 
C 2240 2063 2189 2321 1997 2521 
C 2176 2713 2438 2777 2586 2777 
C 2611 2777 2650 2777 2682 2758 
C 2656 2751 2598 2726 2598 2623 
C 2598 2540 2656 2483 2739 2483 
C 2835 2483 2886 2547 2886 2630 
C 2886 2751 2790 2880 2586 2880 
C 2330 2880 2106 2758 1926 2591 
C 1734 2764 1504 2828 1299 2828 
C 794 2828 358 2431 358 1895 
C 358 1527 570 1294 634 1230 
C 442 1004 442 742 442 710 
C 442 544 506 300 723 166 
C 390 82 128 -184 128 -517 
C 128 -996 736 -1344 1466 -1344 
C 2170 -1344 2803 -1009 2803 -510 
C 2803 384 1856 384 1363 384 
C 1216 384 954 384 922 390 
C 723 422 589 601 589 825 
C 589 883 589 1024 710 1165 
z
M 1299 1068 
C 736 1068 736 1766 736 1895 
C 736 2024 736 2719 1299 2719 
C 1862 2719 1862 2024 1862 1895 
C 1862 1766 1862 1068 1299 1068 
z
M 1466 -1236 
C 826 -1236 384 -883 384 -517 
C 384 -311 493 -118 634 -11 
C 794 102 858 102 1293 102 
C 1818 102 2547 102 2547 -517 
C 2547 -883 2106 -1236 1466 -1236 
z
" transform="scale(0.015625)"/>
      <path id="CMR17-47" d="M 3974 1258 
C 3974 1503 3994 1536 4390 1536 
L 4390 1702 
C 4237 1689 3891 1689 3718 1689 
C 3539 1689 3040 1696 2797 1702 
L 2797 1536 
L 2989 1536 
C 3539 1536 3552 1464 3552 1232 
L 3552 806 
C 3552 96 2720 38 2522 38 
C 1862 38 781 496 781 2179 
C 781 3862 1843 4313 2464 4313 
C 3187 4313 3712 3681 3834 2785 
C 3846 2708 3846 2695 3904 2695 
C 3974 2695 3974 2708 3974 2824 
L 3974 4351 
C 3974 4467 3968 4473 3930 4473 
C 3904 4473 3898 4467 3853 4390 
L 3571 3849 
C 3258 4249 2874 4480 2381 4480 
C 1286 4480 294 3507 294 2179 
C 294 858 1267 -128 2394 -128 
C 2912 -128 3418 57 3616 425 
C 3725 161 3904 -20 3936 -20 
C 3968 -20 3974 -13 3974 102 
L 3974 1258 
z
" transform="scale(0.015625)"/>
     </defs>
     <use xlink:href="#CMR17-49" transform="scale(0.996264)"/>
     <use xlink:href="#CMR17-6c" transform="translate(32.638409 0) scale(0.996264)"/>
     <use xlink:href="#CMR17-6c" transform="translate(57.509468 0) scale(0.996264)"/>
     <use xlink:href="#CMR17-75" transform="translate(82.380526 0) scale(0.996264)"/>
     <use xlink:href="#CMR17-73" transform="translate(133.275896 0) scale(0.996264)"/>
     <use xlink:href="#CMR17-74" transform="translate(169.077234 0) scale(0.996264)"/>
     <use xlink:href="#CMR17-72" transform="translate(204.358001 0) scale(0.996264)"/>
     <use xlink:href="#CMR17-61" transform="translate(239.638769 0) scale(0.996264)"/>
     <use xlink:href="#CMR17-74" transform="translate(285.329246 0) scale(0.996264)"/>
     <use xlink:href="#CMR17-69" transform="translate(320.610014 0) scale(0.996264)"/>
     <use xlink:href="#CMR17-6f" transform="translate(345.481073 0) scale(0.996264)"/>
     <use xlink:href="#CMR17-6e" transform="translate(391.17155 0) scale(0.996264)"/>
     <use xlink:href="#CMR17-6f" transform="translate(472.142886 0) scale(0.996264)"/>
     <use xlink:href="#CMR17-66" transform="translate(517.833363 0) scale(0.996264)"/>
     <use xlink:href="#CMR17-53" transform="translate(575.382842 0) scale(0.996264)"/>
     <use xlink:href="#CMR17-74" transform="translate(626.278211 0) scale(0.996264)"/>
     <use xlink:href="#CMR17-6f" transform="translate(661.558979 0) scale(0.996264)"/>
     <use xlink:href="#CMR17-63" transform="translate(709.851895 0) scale(0.996264)"/>
     <use xlink:href="#CMR17-68" transform="translate(747.735102 0) scale(0.996264)"/>
     <use xlink:href="#CMR17-61" transform="translate(798.630471 0) scale(0.996264)"/>
     <use xlink:href="#CMR17-73" transform="translate(844.320949 0) scale(0.996264)"/>
     <use xlink:href="#CMR17-74" transform="translate(880.122286 0) scale(0.996264)"/>
     <use xlink:href="#CMR17-69" transform="translate(915.403054 0) scale(0.996264)"/>
     <use xlink:href="#CMR17-63" transform="translate(940.274112 0) scale(0.996264)"/>
     <use xlink:href="#CMR17-69" transform="translate(980.759773 0) scale(0.996264)"/>
     <use xlink:href="#CMR17-74" transform="translate(1005.630831 0) scale(0.996264)"/>
     <use xlink:href="#CMR17-79" transform="translate(1038.309145 0) scale(0.996264)"/>
     <use xlink:href="#CMR17-69" transform="translate(1116.678027 0) scale(0.996264)"/>
     <use xlink:href="#CMR17-6e" transform="translate(1141.549086 0) scale(0.996264)"/>
     <use xlink:href="#CMR17-53" transform="translate(1222.520422 0) scale(0.996264)"/>
     <use xlink:href="#CMR17-69" transform="translate(1273.415792 0) scale(0.996264)"/>
     <use xlink:href="#CMR17-67" transform="translate(1298.28685 0) scale(0.996264)"/>
     <use xlink:href="#CMR17-6e" transform="translate(1343.977327 0) scale(0.996264)"/>
     <use xlink:href="#CMR17-61" transform="translate(1394.872697 0) scale(0.996264)"/>
     <use xlink:href="#CMR17-6c" transform="translate(1440.563174 0) scale(0.996264)"/>
     <use xlink:href="#CMR17-47" transform="translate(1495.510199 0) scale(0.996264)"/>
     <use xlink:href="#CMR17-65" transform="translate(1567.865545 0) scale(0.996264)"/>
     <use xlink:href="#CMR17-6e" transform="translate(1608.351206 0) scale(0.996264)"/>
     <use xlink:href="#CMR17-65" transform="translate(1659.246575 0) scale(0.996264)"/>
     <use xlink:href="#CMR17-72" transform="translate(1699.732236 0) scale(0.996264)"/>
     <use xlink:href="#CMR17-61" transform="translate(1735.013004 0) scale(0.996264)"/>
     <use xlink:href="#CMR17-74" transform="translate(1780.703481 0) scale(0.996264)"/>
     <use xlink:href="#CMR17-69" transform="translate(1815.984249 0) scale(0.996264)"/>
     <use xlink:href="#CMR17-6f" transform="translate(1840.855307 0) scale(0.996264)"/>
     <use xlink:href="#CMR17-6e" transform="translate(1886.545784 0) scale(0.996264)"/>
    </g>
   </g>
  </g>
 </g>
 <defs>
  <clipPath id="pa44013eae5">
   <rect x="90" y="51.84" width="558" height="332.64"/>
  </clipPath>
 </defs>
</svg>
