<?xml version="1.0" encoding="utf-8" standalone="no"?>
<!DOCTYPE svg PUBLIC "-//W3C//DTD SVG 1.1//EN"
  "http://www.w3.org/Graphics/SVG/1.1/DTD/svg11.dtd">
<svg xmlns:xlink="http://www.w3.org/1999/xlink" width="720pt" height="432pt" viewBox="0 0 720 432" xmlns="http://www.w3.org/2000/svg" version="1.1">
 <metadata>
  <rdf:RDF xmlns:dc="http://purl.org/dc/elements/1.1/" xmlns:cc="http://creativecommons.org/ns#" xmlns:rdf="http://www.w3.org/1999/02/22-rdf-syntax-ns#">
   <cc:Work>
    <dc:type rdf:resource="http://purl.org/dc/dcmitype/StillImage"/>
    <dc:date>2025-06-16T22:44:06.519109</dc:date>
    <dc:format>image/svg+xml</dc:format>
    <dc:creator>
     <cc:Agent>
      <dc:title>Matplotlib v3.10.0, https://matplotlib.org/</dc:title>
     </cc:Agent>
    </dc:creator>
   </cc:Work>
  </rdf:RDF>
 </metadata>
 <defs>
  <style type="text/css">*{stroke-linejoin: round; stroke-linecap: butt}</style>
 </defs>
 <g id="figure_1">
  <g id="patch_1">
   <path d="M 0 432 
L 720 432 
L 720 0 
L 0 0 
z
" style="fill: #ffffff"/>
  </g>
  <g id="axes_1">
   <g id="patch_2">
    <path d="M 90 384.48 
L 648 384.48 
L 648 51.84 
L 90 51.84 
z
" style="fill: #ffffff"/>
   </g>
   <g id="matplotlib.axis_1">
    <g id="xtick_1">
     <g id="line2d_1">
      <path d="M 115.363636 384.48 
L 115.363636 51.84 
" clip-path="url(#p4199a8d47d)" style="fill: none; stroke: #cccccc; stroke-linecap: round"/>
     </g>
     <g id="text_1">
      <!-- $\mathdefault{0}$ -->
      <g style="fill: #262626" transform="translate(109.081196 413.005867) scale(0.275 -0.275)">
       <defs>
        <path id="CMR17-30" d="M 2688 2038 
C 2688 2430 2682 3099 2413 3613 
C 2176 4063 1798 4224 1466 4224 
C 1158 4224 768 4082 525 3620 
C 269 3137 243 2539 243 2038 
C 243 1671 250 1112 448 623 
C 723 -39 1216 -128 1466 -128 
C 1760 -128 2208 -7 2470 604 
C 2662 1048 2688 1568 2688 2038 
z
M 1466 -26 
C 1056 -26 813 328 723 816 
C 653 1196 653 1749 653 2109 
C 653 2604 653 3015 736 3407 
C 858 3954 1216 4121 1466 4121 
C 1728 4121 2067 3947 2189 3420 
C 2272 3054 2278 2623 2278 2109 
C 2278 1691 2278 1176 2202 797 
C 2067 96 1690 -26 1466 -26 
z
" transform="scale(0.015625)"/>
       </defs>
       <use xlink:href="#CMR17-30" transform="scale(0.996264)"/>
      </g>
     </g>
    </g>
    <g id="xtick_2">
     <g id="line2d_2">
      <path d="M 214.828877 384.48 
L 214.828877 51.84 
" clip-path="url(#p4199a8d47d)" style="fill: none; stroke: #cccccc; stroke-linecap: round"/>
     </g>
     <g id="text_2">
      <!-- $\mathdefault{50}$ -->
      <g style="fill: #262626" transform="translate(202.263996 413.005867) scale(0.275 -0.275)">
       <defs>
        <path id="CMR17-35" d="M 730 3750 
C 794 3724 1056 3641 1325 3641 
C 1920 3641 2246 3961 2432 4140 
C 2432 4191 2432 4224 2394 4224 
C 2387 4224 2374 4224 2323 4198 
C 2099 4102 1837 4032 1517 4032 
C 1325 4032 1037 4055 723 4191 
C 653 4224 640 4224 634 4224 
C 602 4224 595 4217 595 4090 
L 595 2231 
C 595 2113 595 2080 659 2080 
C 691 2080 704 2093 736 2139 
C 941 2435 1222 2560 1542 2560 
C 1766 2560 2246 2415 2246 1293 
C 2246 1087 2246 716 2054 422 
C 1894 159 1645 25 1370 25 
C 947 25 518 319 403 812 
C 429 806 480 793 506 793 
C 589 793 749 838 749 1036 
C 749 1209 627 1280 506 1280 
C 358 1280 262 1190 262 1011 
C 262 454 704 -128 1382 -128 
C 2042 -128 2669 441 2669 1267 
C 2669 2054 2170 2662 1549 2662 
C 1222 2662 947 2540 730 2304 
L 730 3750 
z
" transform="scale(0.015625)"/>
       </defs>
       <use xlink:href="#CMR17-35" transform="scale(0.996264)"/>
       <use xlink:href="#CMR17-30" transform="translate(45.690477 0) scale(0.996264)"/>
      </g>
     </g>
    </g>
    <g id="xtick_3">
     <g id="line2d_3">
      <path d="M 314.294118 384.48 
L 314.294118 51.84 
" clip-path="url(#p4199a8d47d)" style="fill: none; stroke: #cccccc; stroke-linecap: round"/>
     </g>
     <g id="text_3">
      <!-- $\mathdefault{100}$ -->
      <g style="fill: #262626" transform="translate(295.446796 413.005867) scale(0.275 -0.275)">
       <defs>
        <path id="CMR17-31" d="M 1702 4083 
C 1702 4217 1696 4224 1606 4224 
C 1357 3927 979 3833 621 3820 
C 602 3820 570 3820 563 3808 
C 557 3795 557 3782 557 3648 
C 755 3648 1088 3686 1344 3839 
L 1344 467 
C 1344 243 1331 166 781 166 
L 589 166 
L 589 0 
C 896 6 1216 12 1523 12 
C 1830 12 2150 6 2458 0 
L 2458 166 
L 2266 166 
C 1715 166 1702 236 1702 467 
L 1702 4083 
z
" transform="scale(0.015625)"/>
       </defs>
       <use xlink:href="#CMR17-31" transform="scale(0.996264)"/>
       <use xlink:href="#CMR17-30" transform="translate(45.690477 0) scale(0.996264)"/>
       <use xlink:href="#CMR17-30" transform="translate(91.380954 0) scale(0.996264)"/>
      </g>
     </g>
    </g>
    <g id="xtick_4">
     <g id="line2d_4">
      <path d="M 413.759358 384.48 
L 413.759358 51.84 
" clip-path="url(#p4199a8d47d)" style="fill: none; stroke: #cccccc; stroke-linecap: round"/>
     </g>
     <g id="text_4">
      <!-- $\mathdefault{150}$ -->
      <g style="fill: #262626" transform="translate(394.912036 413.005867) scale(0.275 -0.275)">
       <use xlink:href="#CMR17-31" transform="scale(0.996264)"/>
       <use xlink:href="#CMR17-35" transform="translate(45.690477 0) scale(0.996264)"/>
       <use xlink:href="#CMR17-30" transform="translate(91.380954 0) scale(0.996264)"/>
      </g>
     </g>
    </g>
    <g id="xtick_5">
     <g id="line2d_5">
      <path d="M 513.224599 384.48 
L 513.224599 51.84 
" clip-path="url(#p4199a8d47d)" style="fill: none; stroke: #cccccc; stroke-linecap: round"/>
     </g>
     <g id="text_5">
      <!-- $\mathdefault{200}$ -->
      <g style="fill: #262626" transform="translate(494.377277 413.005867) scale(0.275 -0.275)">
       <defs>
        <path id="CMR17-32" d="M 2669 990 
L 2554 990 
C 2490 537 2438 460 2413 422 
C 2381 371 1920 371 1830 371 
L 602 371 
C 832 620 1280 1073 1824 1596 
C 2214 1966 2669 2400 2669 3033 
C 2669 3788 2067 4224 1395 4224 
C 691 4224 262 3603 262 3027 
C 262 2777 448 2745 525 2745 
C 589 2745 781 2783 781 3007 
C 781 3206 614 3264 525 3264 
C 486 3264 448 3257 422 3244 
C 544 3788 915 4057 1306 4057 
C 1862 4057 2227 3616 2227 3033 
C 2227 2477 1901 1998 1536 1583 
L 262 147 
L 262 0 
L 2515 0 
L 2669 990 
z
" transform="scale(0.015625)"/>
       </defs>
       <use xlink:href="#CMR17-32" transform="scale(0.996264)"/>
       <use xlink:href="#CMR17-30" transform="translate(45.690477 0) scale(0.996264)"/>
       <use xlink:href="#CMR17-30" transform="translate(91.380954 0) scale(0.996264)"/>
      </g>
     </g>
    </g>
    <g id="xtick_6">
     <g id="line2d_6">
      <path d="M 612.68984 384.48 
L 612.68984 51.84 
" clip-path="url(#p4199a8d47d)" style="fill: none; stroke: #cccccc; stroke-linecap: round"/>
     </g>
     <g id="text_6">
      <!-- $\mathdefault{250}$ -->
      <g style="fill: #262626" transform="translate(593.842518 413.005867) scale(0.275 -0.275)">
       <use xlink:href="#CMR17-32" transform="scale(0.996264)"/>
       <use xlink:href="#CMR17-35" transform="translate(45.690477 0) scale(0.996264)"/>
       <use xlink:href="#CMR17-30" transform="translate(91.380954 0) scale(0.996264)"/>
      </g>
     </g>
    </g>
    <g id="text_7">
     <!-- Time -->
     <g style="fill: #262626" transform="translate(337.682086 443.090362) scale(0.3 -0.3)">
      <defs>
       <path id="CMR17-54" d="M 3981 4332 
L 288 4332 
L 179 2924 
L 294 2924 
C 378 3981 467 4166 1453 4166 
C 1568 4166 1754 4166 1805 4159 
C 1926 4140 1926 4064 1926 3917 
L 1926 465 
C 1926 236 1907 166 1376 166 
L 1197 166 
L 1197 0 
C 1504 6 1824 12 2138 12 
C 2451 12 2771 6 3078 0 
L 3078 166 
L 2899 166 
C 2368 166 2349 236 2349 465 
L 2349 3917 
C 2349 4057 2349 4134 2464 4159 
C 2515 4166 2701 4166 2816 4166 
C 3795 4166 3891 3981 3974 2924 
L 4090 2924 
L 3981 4332 
z
" transform="scale(0.015625)"/>
       <path id="CMR17-69" d="M 992 3961 
C 992 4102 877 4224 730 4224 
C 589 4224 467 4108 467 3961 
C 467 3820 582 3699 730 3699 
C 870 3699 992 3814 992 3961 
z
M 243 2745 
L 243 2579 
C 602 2579 653 2540 653 2231 
L 653 443 
C 653 198 627 166 218 166 
L 218 0 
C 371 12 646 12 806 12 
C 960 12 1222 12 1370 0 
L 1370 166 
C 992 166 979 205 979 436 
L 979 2816 
L 243 2745 
z
" transform="scale(0.015625)"/>
       <path id="CMR17-6d" d="M 4326 1954 
C 4326 2276 4269 2816 3507 2816 
C 3072 2816 2771 2520 2656 2173 
L 2650 2173 
C 2573 2700 2195 2816 1837 2816 
C 1331 2816 1069 2424 973 2166 
L 966 2166 
L 966 2816 
L 211 2745 
L 211 2578 
C 589 2578 646 2540 646 2231 
L 646 443 
C 646 198 621 166 211 166 
L 211 0 
C 365 12 646 12 813 12 
C 979 12 1267 12 1421 0 
L 1421 166 
C 1011 166 986 192 986 443 
L 986 1678 
C 986 2269 1344 2713 1792 2713 
C 2266 2713 2317 2289 2317 1980 
L 2317 443 
C 2317 198 2291 166 1882 166 
L 1882 0 
C 2035 12 2317 12 2483 12 
C 2650 12 2938 12 3091 0 
L 3091 166 
C 2682 166 2656 192 2656 443 
L 2656 1678 
C 2656 2269 3014 2713 3462 2713 
C 3936 2713 3987 2289 3987 1980 
L 3987 443 
C 3987 198 3962 166 3552 166 
L 3552 0 
C 3706 12 3987 12 4154 12 
C 4320 12 4608 12 4762 0 
L 4762 166 
C 4352 166 4326 192 4326 443 
L 4326 1954 
z
" transform="scale(0.015625)"/>
       <path id="CMR17-65" d="M 2438 1503 
C 2464 1529 2464 1542 2464 1606 
C 2464 2251 2118 2816 1389 2816 
C 710 2816 173 2175 173 1394 
C 173 554 781 -64 1459 -64 
C 2176 -64 2458 619 2458 755 
C 2458 800 2419 800 2406 800 
C 2362 800 2355 787 2330 709 
C 2189 270 1837 51 1504 51 
C 1229 51 954 206 781 490 
C 582 819 582 1200 582 1503 
L 2438 1503 
z
M 589 1600 
C 634 2511 1126 2713 1382 2713 
C 1818 2713 2112 2308 2118 1600 
L 589 1600 
z
" transform="scale(0.015625)"/>
      </defs>
      <use xlink:href="#CMR17-54" transform="scale(0.996264)"/>
      <use xlink:href="#CMR17-69" transform="translate(66.509881 0) scale(0.996264)"/>
      <use xlink:href="#CMR17-6d" transform="translate(91.380939 0) scale(0.996264)"/>
      <use xlink:href="#CMR17-65" transform="translate(168.300529 0) scale(0.996264)"/>
     </g>
    </g>
   </g>
   <g id="matplotlib.axis_2">
    <g id="ytick_1">
     <g id="line2d_7">
      <path d="M 90 353.495678 
L 648 353.495678 
" clip-path="url(#p4199a8d47d)" style="fill: none; stroke: #cccccc; stroke-linecap: round"/>
     </g>
     <g id="text_8">
      <!-- $\mathdefault{−1}$ -->
      <g style="fill: #262626" transform="translate(46.626066 363.008611) scale(0.275 -0.275)">
       <defs>
        <path id="CMSY10-0" d="M 4218 1472 
C 4326 1472 4442 1472 4442 1600 
C 4442 1728 4326 1728 4218 1728 
L 755 1728 
C 646 1728 531 1728 531 1600 
C 531 1472 646 1472 755 1472 
L 4218 1472 
z
" transform="scale(0.015625)"/>
       </defs>
       <use xlink:href="#CMSY10-0" transform="scale(0.996264)"/>
       <use xlink:href="#CMR17-31" transform="translate(77.487468 0) scale(0.996264)"/>
      </g>
     </g>
    </g>
    <g id="ytick_2">
     <g id="line2d_8">
      <path d="M 90 246.475403 
L 648 246.475403 
" clip-path="url(#p4199a8d47d)" style="fill: none; stroke: #cccccc; stroke-linecap: round"/>
     </g>
     <g id="text_9">
      <!-- $\mathdefault{0}$ -->
      <g style="fill: #262626" transform="translate(67.935119 255.988337) scale(0.275 -0.275)">
       <use xlink:href="#CMR17-30" transform="scale(0.996264)"/>
      </g>
     </g>
    </g>
    <g id="ytick_3">
     <g id="line2d_9">
      <path d="M 90 139.455129 
L 648 139.455129 
" clip-path="url(#p4199a8d47d)" style="fill: none; stroke: #cccccc; stroke-linecap: round"/>
     </g>
     <g id="text_10">
      <!-- $\mathdefault{1}$ -->
      <g style="fill: #262626" transform="translate(67.935119 148.968062) scale(0.275 -0.275)">
       <use xlink:href="#CMR17-31" transform="scale(0.996264)"/>
      </g>
     </g>
    </g>
    <g id="text_11">
     <!-- Amplitude -->
     <g style="fill: #262626" transform="translate(36.812616 281.787972) rotate(-90) scale(0.3 -0.3)">
      <defs>
       <path id="CMR17-41" d="M 2323 4441 
C 2291 4524 2278 4544 2214 4544 
C 2150 4544 2138 4524 2106 4441 
L 749 580 
C 627 236 371 166 147 166 
L 147 0 
C 262 12 518 12 640 12 
C 800 12 1056 12 1210 0 
L 1210 166 
C 909 179 864 382 864 459 
C 864 516 877 548 890 586 
L 1229 1536 
L 2906 1536 
L 3290 453 
C 3322 376 3322 363 3322 338 
C 3322 166 3046 166 2925 166 
L 2925 0 
C 3110 12 3443 12 3642 12 
C 3808 12 4128 12 4282 0 
L 4282 166 
C 3942 166 3827 166 3744 402 
L 2323 4441 
z
M 2067 3924 
L 2848 1702 
L 1286 1702 
L 2067 3924 
z
" transform="scale(0.015625)"/>
       <path id="CMR17-70" d="M 1408 -1114 
C 998 -1114 973 -1088 973 -834 
L 973 380 
C 1158 109 1427 -64 1766 -64 
C 2406 -64 3053 503 3053 1382 
C 3053 2196 2496 2816 1837 2816 
C 1453 2816 1139 2603 960 2345 
L 960 2816 
L 198 2745 
L 198 2577 
C 576 2577 634 2539 634 2228 
L 634 -834 
C 634 -1081 608 -1114 198 -1114 
L 198 -1280 
C 352 -1268 634 -1268 800 -1268 
C 966 -1268 1254 -1268 1408 -1280 
L 1408 -1114 
z
M 973 2015 
C 973 2106 973 2241 1222 2481 
C 1254 2506 1472 2700 1792 2700 
C 2259 2700 2643 2112 2643 1376 
C 2643 639 2234 38 1728 38 
C 1498 38 1248 148 1056 451 
C 973 594 973 632 973 736 
L 973 2015 
z
" transform="scale(0.015625)"/>
       <path id="CMR17-6c" d="M 979 4416 
L 218 4345 
L 218 4179 
C 595 4179 653 4141 653 3835 
L 653 439 
C 653 198 627 166 218 166 
L 218 0 
C 371 12 653 12 813 12 
C 979 12 1261 12 1414 0 
L 1414 166 
C 1005 166 979 191 979 439 
L 979 4416 
z
" transform="scale(0.015625)"/>
       <path id="CMR17-74" d="M 966 2585 
L 1862 2585 
L 1862 2752 
L 966 2752 
L 966 3968 
L 851 3968 
C 838 3292 614 2700 70 2687 
L 70 2585 
L 627 2585 
L 627 778 
C 627 655 627 -64 1370 -64 
C 1747 -64 1965 308 1965 784 
L 1965 1151 
L 1850 1151 
L 1850 790 
C 1850 347 1677 51 1408 51 
C 1222 51 966 179 966 765 
L 966 2585 
z
" transform="scale(0.015625)"/>
       <path id="CMR17-75" d="M 1882 2745 
L 1882 2579 
C 2259 2579 2317 2540 2317 2229 
L 2317 1053 
C 2317 510 2029 38 1555 38 
C 1030 38 986 355 986 691 
L 986 2816 
L 211 2745 
L 211 2579 
C 467 2579 640 2579 646 2320 
L 646 1079 
C 646 646 646 368 813 187 
C 896 103 1056 -64 1517 -64 
C 2061 -64 2272 400 2323 536 
L 2330 536 
L 2330 -64 
L 3091 -13 
L 3091 154 
C 2714 154 2656 193 2656 503 
L 2656 2816 
L 1882 2745 
z
" transform="scale(0.015625)"/>
       <path id="CMR17-64" d="M 1869 4345 
L 1869 4179 
C 2246 4179 2304 4141 2304 3843 
L 2304 2371 
C 2278 2403 2016 2816 1498 2816 
C 845 2816 211 2228 211 1376 
C 211 529 806 -64 1434 -64 
C 1978 -64 2259 361 2291 406 
L 2291 -64 
L 3066 -13 
L 3066 154 
C 2688 154 2630 193 2630 503 
L 2630 4416 
L 1869 4345 
z
M 2291 762 
C 2291 568 2176 393 2029 264 
C 1811 70 1594 38 1472 38 
C 1286 38 621 135 621 1369 
C 621 2636 1363 2713 1530 2713 
C 1824 2713 2061 2545 2208 2313 
C 2291 2177 2291 2157 2291 2041 
L 2291 762 
z
" transform="scale(0.015625)"/>
      </defs>
      <use xlink:href="#CMR17-41" transform="scale(0.996264)"/>
      <use xlink:href="#CMR17-6d" transform="translate(69.07243 0) scale(0.996264)"/>
      <use xlink:href="#CMR17-70" transform="translate(145.99202 0) scale(0.996264)"/>
      <use xlink:href="#CMR17-6c" transform="translate(196.887389 0) scale(0.996264)"/>
      <use xlink:href="#CMR17-69" transform="translate(221.758448 0) scale(0.996264)"/>
      <use xlink:href="#CMR17-74" transform="translate(246.629506 0) scale(0.996264)"/>
      <use xlink:href="#CMR17-75" transform="translate(281.910274 0) scale(0.996264)"/>
      <use xlink:href="#CMR17-64" transform="translate(332.805644 0) scale(0.996264)"/>
      <use xlink:href="#CMR17-65" transform="translate(383.701014 0) scale(0.996264)"/>
     </g>
    </g>
   </g>
   <g id="line2d_10">
    <path d="M 115.363636 246.475403 
L 123.320856 246.475403 
L 125.31016 133.904814 
L 127.299465 134.058043 
L 129.28877 134.517313 
L 131.278075 135.281374 
L 133.26738 136.348145 
L 135.256684 137.714722 
L 137.245989 139.377386 
L 139.235294 141.331609 
L 141.224599 143.572072 
L 143.213904 146.092675 
L 145.203209 148.886557 
L 147.192513 151.94611 
L 149.181818 155.263007 
L 151.171123 158.828217 
L 155.149733 166.664104 
L 159.128342 175.368501 
L 163.106952 184.846687 
L 167.085561 194.995518 
L 171.064171 205.704556 
L 175.042781 216.857264 
L 177.032086 246.475403 
L 224.775401 246.475403 
L 310.315508 118.631468 
L 312.304813 246.475403 
L 324.240642 246.475403 
L 330.208556 223.353297 
L 334.187166 208.92714 
L 336.176471 202.222451 
L 338.165775 195.943942 
L 340.15508 190.152079 
L 342.144385 184.902639 
L 344.13369 180.24618 
L 346.122995 176.227544 
L 348.112299 172.885433 
L 350.101604 170.252034 
L 352.090909 168.352708 
L 354.080214 167.205746 
L 356.069519 166.822194 
L 358.058824 167.205746 
L 360.048128 168.352708 
L 362.037433 170.252034 
L 364.026738 172.885433 
L 366.016043 176.227544 
L 368.005348 180.24618 
L 369.994652 184.902639 
L 371.983957 190.152079 
L 373.973262 195.943942 
L 375.962567 202.222451 
L 379.941176 215.99344 
L 383.919786 230.935833 
L 387.898396 246.475403 
L 421.716578 246.475403 
L 423.705882 195.800991 
L 505.26738 195.800991 
L 507.256684 246.475403 
L 521.181818 246.475403 
L 523.171123 149.476728 
L 576.882353 246.475403 
L 622.636364 246.475403 
L 622.636364 246.475403 
" clip-path="url(#p4199a8d47d)" style="fill: none; stroke: #4c72b0; stroke-width: 3; stroke-linecap: round"/>
   </g>
   <g id="line2d_11">
    <path d="M 115.363636 246.475403 
L 125.31016 246.475403 
L 179.02139 146.667348 
L 181.010695 246.475403 
L 224.775401 246.475403 
L 232.73262 217.300402 
L 236.71123 203.337968 
L 240.68984 190.113628 
L 244.668449 177.853654 
L 248.647059 166.767817 
L 250.636364 161.725351 
L 252.625668 157.045799 
L 254.614973 152.749197 
L 256.604278 148.853946 
L 258.593583 145.376724 
L 260.582888 142.332423 
L 262.572193 139.734078 
L 264.561497 137.592815 
L 266.550802 135.917805 
L 268.540107 134.716219 
L 270.529412 133.993203 
L 272.518717 133.751854 
L 274.508021 133.993203 
L 276.497326 134.716219 
L 278.486631 135.917805 
L 280.475936 137.592815 
L 282.465241 139.734078 
L 284.454545 142.332423 
L 286.44385 145.376724 
L 288.433155 148.853946 
L 290.42246 152.749197 
L 292.411765 157.045799 
L 294.40107 161.725351 
L 296.390374 166.767817 
L 300.368984 177.853654 
L 304.347594 190.113628 
L 308.326203 203.337968 
L 312.304813 217.300402 
L 318.272727 239.10293 
L 320.262032 246.475403 
L 322.251337 246.475403 
L 324.240642 143.552837 
L 326.229947 143.894685 
L 328.219251 144.917959 
L 330.208556 146.615861 
L 332.197861 148.977112 
L 334.187166 151.986026 
L 336.176471 155.622617 
L 338.165775 159.862727 
L 340.15508 164.67819 
L 342.144385 170.037017 
L 344.13369 175.90361 
L 346.122995 182.239 
L 350.101604 196.144992 
L 354.080214 211.386108 
L 358.058824 227.558043 
L 371.983957 285.208052 
L 375.962567 300.173579 
L 379.941176 313.714646 
L 381.930481 319.837011 
L 383.919786 325.472047 
L 385.909091 330.582323 
L 387.898396 335.133891 
L 389.887701 339.096517 
L 391.877005 342.443877 
L 393.86631 345.153735 
L 395.855615 347.208091 
L 397.84492 348.593298 
L 399.834225 349.300153 
L 401.823529 349.323962 
L 403.812834 348.664566 
L 405.802139 347.326346 
L 407.791444 345.318191 
L 409.780749 342.653441 
L 411.770053 339.349797 
L 413.759358 335.429205 
L 415.748663 330.917708 
L 417.737968 325.845277 
L 419.727273 246.475403 
L 421.716578 246.475403 
L 423.705882 156.263569 
L 475.427807 246.475403 
L 523.171123 246.475403 
L 555 148.282444 
L 556.989305 148.282444 
L 588.818182 246.475403 
L 622.636364 246.475403 
L 622.636364 246.475403 
" clip-path="url(#p4199a8d47d)" style="fill: none; stroke: #dd8452; stroke-width: 3; stroke-linecap: round"/>
   </g>
   <g id="line2d_12">
    <path d="M 115.363636 246.475403 
L 125.31016 246.475403 
L 131.278075 206.282054 
L 135.256684 181.317374 
L 137.245989 169.775299 
L 139.235294 159.020271 
L 141.224599 149.162651 
L 143.213904 140.303592 
L 145.203209 132.533999 
L 147.192513 125.933599 
L 149.181818 120.570121 
L 151.171123 116.498601 
L 153.160428 113.76082 
L 155.149733 112.38487 
L 157.139037 112.38487 
L 159.128342 113.76082 
L 161.117647 116.498601 
L 163.106952 120.570121 
L 165.096257 125.933599 
L 167.085561 132.533999 
L 169.074866 140.303592 
L 171.064171 149.162651 
L 173.053476 159.020271 
L 175.042781 169.775299 
L 177.032086 181.317374 
L 181.010695 206.282054 
L 186.97861 246.475403 
L 224.775401 246.475403 
L 270.529412 150.081696 
L 272.518717 150.081696 
L 318.272727 246.475403 
L 322.251337 246.475403 
L 324.240642 123.297684 
L 326.229947 124.495837 
L 328.219251 128.066985 
L 330.208556 133.941655 
L 332.197861 142.005562 
L 334.187166 152.101829 
L 336.176471 164.034044 
L 338.165775 177.570077 
L 340.15508 192.446597 
L 344.13369 225.043017 
L 352.090909 292.562168 
L 354.080214 308.007796 
L 356.069519 322.25637 
L 358.058824 335.030699 
L 360.048128 346.082268 
L 362.037433 355.196082 
L 364.026738 362.194839 
L 366.016043 366.942385 
L 368.005348 369.346361 
L 369.994652 369.36 
L 371.983957 366.983037 
L 373.973262 362.261714 
L 375.962567 355.287878 
L 377.951872 346.1972 
L 379.941176 335.16653 
L 381.930481 322.410459 
L 383.919786 308.177144 
L 385.909091 292.743481 
L 389.887701 259.493609 
L 391.877005 242.324245 
L 393.86631 246.475403 
L 421.716578 246.475403 
L 423.705882 143.511189 
L 515.213904 143.511189 
L 517.203209 246.475403 
L 523.171123 246.475403 
L 598.764706 135.488002 
L 600.754011 246.475403 
L 622.636364 246.475403 
L 622.636364 246.475403 
" clip-path="url(#p4199a8d47d)" style="fill: none; stroke: #55a868; stroke-width: 3; stroke-linecap: round"/>
   </g>
   <g id="line2d_13">
    <path d="M 115.363636 246.475403 
L 123.320856 246.475403 
L 125.31016 136.35532 
L 208.860963 136.465566 
L 212.839572 136.476314 
L 214.828877 246.475403 
L 224.775401 246.475403 
L 276.497326 150.378709 
L 278.486631 246.475403 
L 322.251337 246.475403 
L 324.240642 180.939686 
L 373.973262 180.939686 
L 375.962567 246.475403 
L 421.716578 246.475403 
L 423.705882 154.694582 
L 493.331551 246.475403 
L 523.171123 246.475403 
L 531.128342 219.177707 
L 535.106952 206.292812 
L 539.085561 194.30553 
L 543.064171 183.483637 
L 545.053476 178.586425 
L 547.042781 174.068876 
L 549.032086 169.956253 
L 551.02139 166.271557 
L 553.010695 163.035393 
L 555 160.265859 
L 556.989305 157.978444 
L 558.97861 156.18594 
L 560.967914 154.898372 
L 562.957219 154.122939 
L 564.946524 153.863979 
L 566.935829 154.122939 
L 568.925134 154.898372 
L 570.914439 156.18594 
L 572.903743 157.978444 
L 574.893048 160.265859 
L 576.882353 163.035393 
L 578.871658 166.271557 
L 580.860963 169.956253 
L 582.850267 174.068876 
L 584.839572 178.586425 
L 586.828877 183.483637 
L 588.818182 188.733124 
L 592.796791 200.169691 
L 596.775401 212.64065 
L 600.754011 225.867423 
L 606.721925 246.475403 
L 622.636364 246.475403 
L 622.636364 246.475403 
" clip-path="url(#p4199a8d47d)" style="fill: none; stroke: #c44e52; stroke-width: 3; stroke-linecap: round"/>
   </g>
   <g id="line2d_14">
    <path d="M 115.363636 246.475403 
L 123.320856 246.475403 
L 125.31016 86.549789 
L 190.957219 86.549789 
L 192.946524 246.475403 
L 222.786096 246.475403 
L 224.775401 141.716285 
L 278.486631 246.475403 
L 322.251337 246.475403 
L 324.240642 138.24016 
L 326.229947 138.681337 
L 328.219251 140.001272 
L 330.208556 142.189204 
L 332.197861 145.227298 
L 334.187166 149.090786 
L 336.176471 153.748171 
L 338.165775 159.161487 
L 340.15508 165.286602 
L 342.144385 172.073584 
L 344.13369 179.467104 
L 346.122995 187.406889 
L 350.101604 204.662419 
L 354.080214 223.27864 
L 368.005348 290.238313 
L 371.983957 307.311334 
L 373.973262 315.137849 
L 375.962567 322.404614 
L 377.951872 329.05239 
L 379.941176 335.026983 
L 381.930481 340.279686 
L 383.919786 344.767678 
L 385.909091 348.454373 
L 387.898396 351.309716 
L 389.887701 353.31043 
L 391.877005 354.440204 
L 393.86631 354.689828 
L 395.855615 246.475403 
L 423.705882 246.475403 
L 451.55615 161.098303 
L 453.545455 161.098303 
L 481.395722 246.475403 
L 523.171123 246.475403 
L 580.860963 177.188373 
L 582.850267 246.475403 
L 622.636364 246.475403 
L 622.636364 246.475403 
" clip-path="url(#p4199a8d47d)" style="fill: none; stroke: #8172b3; stroke-width: 3; stroke-linecap: round"/>
   </g>
   <g id="line2d_15">
    <path d="M 115.363636 246.475403 
L 125.31016 246.475403 
L 151.171123 152.41062 
L 153.160428 152.41062 
L 179.02139 246.475403 
L 224.775401 246.475403 
L 232.73262 223.451232 
L 236.71123 212.476276 
L 240.68984 202.134659 
L 244.668449 192.619026 
L 246.657754 188.227041 
L 248.647059 184.106636 
L 250.636364 180.277023 
L 252.625668 176.756058 
L 254.614973 173.560156 
L 256.604278 170.704219 
L 258.593583 168.201562 
L 260.582888 166.063854 
L 262.572193 164.301061 
L 264.561497 162.921404 
L 266.550802 161.931313 
L 268.540107 161.335407 
L 270.529412 161.136462 
L 272.518717 161.335407 
L 274.508021 161.931313 
L 276.497326 162.921404 
L 278.486631 164.301061 
L 280.475936 166.063854 
L 282.465241 168.201562 
L 284.454545 170.704219 
L 286.44385 173.560156 
L 288.433155 176.756058 
L 290.42246 180.277023 
L 292.411765 184.106636 
L 294.40107 188.227041 
L 298.379679 197.262115 
L 302.358289 207.21394 
L 306.336898 217.897132 
L 312.304813 234.855086 
L 316.283422 246.475403 
L 322.251337 246.475403 
L 324.240642 145.212648 
L 397.84492 246.475403 
L 423.705882 246.475403 
L 503.278075 133.639911 
L 505.26738 246.475403 
L 521.181818 246.475403 
L 523.171123 153.123655 
L 584.839572 153.13844 
L 586.828877 246.475403 
L 622.636364 246.475403 
L 622.636364 246.475403 
" clip-path="url(#p4199a8d47d)" style="fill: none; stroke: #937860; stroke-width: 3; stroke-linecap: round"/>
   </g>
   <g id="line2d_16">
    <path d="M 115.363636 246.475403 
L 123.320856 246.475403 
L 125.31016 158.852253 
L 127.299465 160.377561 
L 129.28877 164.900381 
L 131.278075 172.26325 
L 133.26738 182.209829 
L 135.256684 194.393825 
L 137.245989 208.391051 
L 141.224599 239.829765 
L 145.203209 272.185901 
L 147.192513 287.299977 
L 149.181818 300.992738 
L 151.171123 312.787468 
L 153.160428 322.273531 
L 155.149733 329.120669 
L 157.139037 333.090498 
L 159.128342 334.044805 
L 161.117647 331.950369 
L 163.106952 326.880106 
L 165.096257 319.010538 
L 167.085561 308.615647 
L 169.074866 296.057332 
L 171.064171 281.772813 
L 175.042781 250.05722 
L 179.02139 217.847162 
L 181.010695 202.960692 
L 183 189.589194 
L 184.989305 178.198199 
L 186.97861 169.184288 
L 188.967914 162.861282 
L 190.957219 246.475403 
L 224.775401 246.475403 
L 256.604278 97.085625 
L 258.593583 97.085625 
L 290.42246 246.475403 
L 324.240642 246.475403 
L 330.208556 223.282895 
L 334.187166 208.753735 
L 336.176471 201.969307 
L 338.165775 195.587933 
L 340.15508 189.667404 
L 342.144385 184.261337 
L 344.13369 179.418691 
L 346.122995 175.18332 
L 348.112299 171.593581 
L 350.101604 168.681984 
L 352.090909 166.474896 
L 354.080214 164.992306 
L 356.069519 164.247638 
L 358.058824 164.247638 
L 360.048128 164.992306 
L 362.037433 166.474896 
L 364.026738 168.681984 
L 366.016043 171.593581 
L 368.005348 175.18332 
L 369.994652 179.418691 
L 371.983957 184.261337 
L 373.973262 189.667404 
L 375.962567 195.587933 
L 377.951872 201.969307 
L 381.930481 215.879776 
L 385.909091 230.89605 
L 389.887701 246.475403 
L 421.716578 246.475403 
L 423.705882 127.117218 
L 501.28877 246.475403 
L 523.171123 246.475403 
L 606.721925 113.653408 
L 608.71123 246.475403 
L 622.636364 246.475403 
L 622.636364 246.475403 
" clip-path="url(#p4199a8d47d)" style="fill: none; stroke: #da8bc3; stroke-width: 3; stroke-linecap: round"/>
   </g>
   <g id="line2d_17">
    <path d="M 115.363636 246.475403 
L 125.31016 246.475403 
L 208.860963 133.34812 
L 210.850267 246.475403 
L 222.786096 246.475403 
L 224.775401 125.292346 
L 280.475936 246.475403 
L 322.251337 246.475403 
L 324.240642 126.411217 
L 326.229947 126.956057 
L 328.219251 128.585632 
L 330.208556 131.285152 
L 332.197861 135.030118 
L 334.187166 139.78654 
L 336.176471 145.51125 
L 338.165775 152.152291 
L 340.15508 159.649392 
L 342.144385 167.934509 
L 344.13369 176.932448 
L 348.112299 196.734411 
L 352.090909 218.338037 
L 366.016043 296.588763 
L 369.994652 316.351725 
L 371.983957 325.325529 
L 373.973262 333.583705 
L 375.962567 341.051303 
L 377.951872 347.660547 
L 379.941176 353.351454 
L 381.930481 358.072374 
L 383.919786 361.780461 
L 385.909091 364.44206 
L 387.898396 366.033017 
L 389.887701 366.538891 
L 391.877005 365.955092 
L 393.86631 364.286918 
L 395.855615 361.549508 
L 397.84492 357.767708 
L 399.834225 352.975839 
L 401.823529 347.217393 
L 403.812834 340.544631 
L 405.802139 333.018114 
L 407.791444 324.706153 
L 409.780749 315.684183 
L 413.759358 295.84345 
L 417.737968 274.214562 
L 421.716578 251.580938 
L 423.705882 246.475403 
L 429.673797 212.181654 
L 431.663102 201.47511 
L 433.652406 191.377119 
L 435.641711 182.024237 
L 437.631016 173.542946 
L 439.620321 166.047942 
L 441.609626 159.640581 
L 443.59893 154.407513 
L 445.588235 150.419504 
L 447.57754 147.730487 
L 449.566845 146.376826 
L 451.55615 146.376826 
L 453.545455 147.730487 
L 455.534759 150.419504 
L 457.524064 154.407513 
L 459.513369 159.640581 
L 461.502674 166.047942 
L 463.491979 173.542946 
L 465.481283 182.024237 
L 467.470588 191.377119 
L 469.459893 201.47511 
L 473.438503 223.351961 
L 477.417112 246.475403 
L 523.171123 246.475403 
L 549.032086 152.769535 
L 551.02139 152.769535 
L 576.882353 246.475403 
L 622.636364 246.475403 
L 622.636364 246.475403 
" clip-path="url(#p4199a8d47d)" style="fill: none; stroke: #8c8c8c; stroke-width: 3; stroke-linecap: round"/>
   </g>
   <g id="line2d_18">
    <path d="M 115.363636 246.475403 
L 125.31016 246.475403 
L 163.106952 101.620768 
L 165.096257 101.620768 
L 202.893048 246.475403 
L 222.786096 246.475403 
L 224.775401 160.246571 
L 290.42246 246.475403 
L 324.240642 246.475403 
L 330.208556 221.581168 
L 334.187166 205.740203 
L 338.165775 191.010389 
L 340.15508 184.189213 
L 342.144385 177.793515 
L 344.13369 171.866984 
L 346.122995 166.450104 
L 348.112299 161.579879 
L 350.101604 157.289575 
L 352.090909 153.608501 
L 354.080214 150.561803 
L 356.069519 148.170291 
L 358.058824 146.450304 
L 360.048128 145.413589 
L 362.037433 145.067228 
L 364.026738 145.413589 
L 366.016043 146.450304 
L 368.005348 148.170291 
L 369.994652 150.561803 
L 371.983957 153.608501 
L 373.973262 157.289575 
L 375.962567 161.579879 
L 377.951872 166.450104 
L 379.941176 171.866984 
L 381.930481 177.793515 
L 383.919786 184.189213 
L 387.898396 198.210447 
L 391.877005 213.548223 
L 397.84492 238.101183 
L 399.834225 246.475403 
L 423.705882 246.475403 
L 477.417112 142.79121 
L 479.406417 246.475403 
L 521.181818 246.475403 
L 523.171123 66.96 
L 572.903743 66.96 
L 574.893048 246.475403 
L 622.636364 246.475403 
L 622.636364 246.475403 
" clip-path="url(#p4199a8d47d)" style="fill: none; stroke: #ccb974; stroke-width: 3; stroke-linecap: round"/>
   </g>
   <g id="line2d_19">
    <path d="M 115.363636 246.475403 
L 123.320856 246.475403 
L 125.31016 184.700652 
L 179.02139 246.475403 
L 222.786096 246.475403 
L 224.775401 71.776416 
L 314.294118 71.776416 
L 316.283422 246.475403 
L 324.240642 246.475403 
L 330.208556 213.795106 
L 334.187166 193.597572 
L 336.176471 184.313785 
L 338.165775 175.711053 
L 340.15508 167.88363 
L 342.144385 160.917275 
L 344.13369 154.888313 
L 346.122995 149.862799 
L 348.112299 145.895792 
L 350.101604 143.030756 
L 352.090909 141.299082 
L 354.080214 140.719741 
L 356.069519 141.299082 
L 358.058824 143.030756 
L 360.048128 145.895792 
L 362.037433 149.862799 
L 364.026738 154.888313 
L 366.016043 160.917275 
L 368.005348 167.88363 
L 369.994652 175.711053 
L 371.983957 184.313785 
L 373.973262 193.597572 
L 377.951872 213.795106 
L 383.919786 246.475403 
L 423.705882 246.475403 
L 485.374332 109.888682 
L 487.363636 246.475403 
L 523.171123 246.475403 
L 549.032086 115.799078 
L 551.02139 115.799078 
L 576.882353 246.475403 
L 622.636364 246.475403 
L 622.636364 246.475403 
" clip-path="url(#p4199a8d47d)" style="fill: none; stroke: #64b5cd; stroke-width: 3; stroke-linecap: round"/>
   </g>
   <g id="line2d_20">
    <path d="M 115.363636 246.475403 
L 125.31016 246.475403 
L 169.074866 115.795379 
L 171.064171 115.795379 
L 214.828877 246.475403 
L 224.775401 246.475403 
L 228.754011 212.218189 
L 232.73262 179.95188 
L 234.721925 165.15889 
L 236.71123 151.551677 
L 238.700535 139.328665 
L 240.68984 128.668095 
L 242.679144 119.72542 
L 244.668449 112.631046 
L 246.657754 107.488423 
L 248.647059 104.372544 
L 250.636364 103.328844 
L 252.625668 104.372544 
L 254.614973 107.488423 
L 256.604278 112.631046 
L 258.593583 119.72542 
L 260.582888 128.668095 
L 262.572193 139.328665 
L 264.561497 151.551677 
L 266.550802 165.15889 
L 268.540107 179.95188 
L 272.518717 212.218189 
L 276.497326 246.475403 
L 322.251337 246.475403 
L 324.240642 140.100422 
L 415.748663 246.475403 
L 423.705882 246.475403 
L 515.213904 127.823221 
L 517.203209 246.475403 
L 521.181818 246.475403 
L 523.171123 109.706804 
L 527.149733 109.926141 
L 531.128342 110.583449 
L 535.106952 111.676619 
L 539.085561 113.202146 
L 543.064171 115.155136 
L 547.042781 117.529325 
L 551.02139 120.317098 
L 555 123.509514 
L 558.97861 127.096333 
L 562.957219 131.066051 
L 566.935829 135.405935 
L 570.914439 140.102065 
L 574.893048 145.139379 
L 578.871658 150.501721 
L 582.850267 156.17189 
L 584.839572 246.475403 
L 622.636364 246.475403 
L 622.636364 246.475403 
" clip-path="url(#p4199a8d47d)" style="fill: none; stroke: #4c72b0; stroke-width: 3; stroke-linecap: round"/>
   </g>
   <g id="line2d_21">
    <path d="M 115.363636 246.475403 
L 123.320856 246.475403 
L 125.31016 183.268439 
L 127.299465 183.345172 
L 129.28877 183.575186 
L 131.278075 183.957923 
L 133.26738 184.492453 
L 135.256684 185.177478 
L 137.245989 186.011335 
L 139.235294 186.991999 
L 141.224599 188.117089 
L 143.213904 189.383874 
L 147.192513 192.329888 
L 151.171123 195.801446 
L 155.149733 199.764853 
L 159.128342 204.181639 
L 163.106952 209.008934 
L 167.085561 214.199884 
L 171.064171 219.704105 
L 177.032086 228.430248 
L 184.989305 240.643282 
L 198.914439 262.269607 
L 204.882353 271.112439 
L 208.860963 276.720521 
L 210.850267 279.417772 
L 212.839572 246.475403 
L 224.775401 246.475403 
L 252.625668 131.985341 
L 254.614973 131.985341 
L 282.465241 246.475403 
L 322.251337 246.475403 
L 324.240642 153.763348 
L 409.780749 246.475403 
L 423.705882 246.475403 
L 431.663102 221.280681 
L 435.641711 209.271085 
L 439.620321 197.954535 
L 443.59893 187.541838 
L 445.588235 182.735808 
L 447.57754 178.226961 
L 449.566845 174.03632 
L 451.55615 170.183423 
L 453.545455 166.686235 
L 455.534759 163.561061 
L 457.524064 160.822472 
L 459.513369 158.483236 
L 461.502674 156.554261 
L 463.491979 155.044539 
L 465.481283 153.96111 
L 467.470588 153.309025 
L 469.459893 153.091326 
L 471.449198 153.309025 
L 473.438503 153.96111 
L 475.427807 155.044539 
L 477.417112 156.554261 
L 479.406417 158.483236 
L 481.395722 160.822472 
L 483.385027 163.561061 
L 485.374332 166.686235 
L 487.363636 170.183423 
L 489.352941 174.03632 
L 491.342246 178.226961 
L 493.331551 182.735808 
L 497.31016 192.622643 
L 501.28877 203.512654 
L 505.26738 215.20298 
L 511.235294 233.759606 
L 515.213904 246.475403 
L 523.171123 246.475403 
L 618.657754 168.000841 
L 620.647059 246.475403 
L 622.636364 246.475403 
L 622.636364 246.475403 
" clip-path="url(#p4199a8d47d)" style="fill: none; stroke: #dd8452; stroke-width: 3; stroke-linecap: round"/>
   </g>
   <g id="line2d_22">
    <path d="M 115.363636 246.475403 
L 123.320856 246.475403 
L 125.31016 102.464272 
L 127.299465 102.690457 
L 129.28877 103.368301 
L 131.278075 104.495676 
L 133.26738 106.069039 
L 135.256684 108.08345 
L 137.245989 110.532579 
L 139.235294 113.408734 
L 141.224599 116.70288 
L 143.213904 120.40467 
L 145.203209 124.502474 
L 147.192513 128.983422 
L 149.181818 133.833438 
L 151.171123 139.037287 
L 155.149733 150.440036 
L 159.128342 163.048508 
L 163.106952 176.704405 
L 167.085561 191.236277 
L 173.053476 214.274986 
L 181.010695 246.289985 
L 188.967914 278.314267 
L 194.935829 301.371876 
L 196.925134 308.74462 
L 198.914439 246.475403 
L 224.775401 246.475403 
L 278.486631 126.845308 
L 280.475936 246.475403 
L 324.240642 246.475403 
L 350.101604 162.686032 
L 352.090909 162.686032 
L 377.951872 246.475403 
L 421.716578 246.475403 
L 423.705882 151.486778 
L 505.26738 246.475403 
L 523.171123 246.475403 
L 529.139037 214.259683 
L 533.117647 194.0029 
L 537.096257 175.533005 
L 539.085561 167.167673 
L 541.074866 159.478968 
L 543.064171 152.532485 
L 545.053476 146.38749 
L 547.042781 141.09641 
L 549.032086 136.704387 
L 551.02139 133.248891 
L 553.010695 130.759403 
L 555 129.257164 
L 556.989305 128.75499 
L 558.97861 129.257164 
L 560.967914 130.759403 
L 562.957219 133.248891 
L 564.946524 136.704387 
L 566.935829 141.09641 
L 568.925134 146.38749 
L 570.914439 152.532485 
L 572.903743 159.478968 
L 574.893048 167.167673 
L 576.882353 175.533005 
L 578.871658 184.503591 
L 582.850267 203.949885 
L 586.828877 224.844334 
L 590.807487 246.475403 
L 622.636364 246.475403 
L 622.636364 246.475403 
" clip-path="url(#p4199a8d47d)" style="fill: none; stroke: #55a868; stroke-width: 3; stroke-linecap: round"/>
   </g>
   <g id="line2d_23">
    <path d="M 115.363636 246.475403 
L 123.320856 246.475403 
L 125.31016 108.427535 
L 198.914439 108.427535 
L 200.903743 246.475403 
L 224.775401 246.475403 
L 262.572193 165.100563 
L 264.561497 165.100563 
L 302.358289 246.475403 
L 324.240642 246.475403 
L 330.208556 219.314115 
L 334.187166 202.44384 
L 336.176471 194.644101 
L 338.165775 187.376222 
L 340.15508 180.71478 
L 342.144385 174.728131 
L 344.13369 169.477707 
L 346.122995 165.017383 
L 348.112299 161.392928 
L 350.101604 158.641535 
L 352.090909 156.791436 
L 354.080214 155.861616 
L 356.069519 155.861616 
L 358.058824 156.791436 
L 360.048128 158.641535 
L 362.037433 161.392928 
L 364.026738 165.017383 
L 366.016043 169.477707 
L 368.005348 174.728131 
L 369.994652 180.71478 
L 371.983957 187.376222 
L 373.973262 194.644101 
L 375.962567 202.44384 
L 379.941176 219.314115 
L 385.909091 246.475403 
L 421.716578 246.475403 
L 423.705882 117.829252 
L 493.331551 246.475403 
L 521.181818 246.475403 
L 523.171123 159.671745 
L 525.160428 160.305125 
L 527.149733 162.196022 
L 529.139037 165.316843 
L 531.128342 169.622042 
L 533.117647 175.048793 
L 535.106952 181.517902 
L 537.096257 188.934961 
L 539.085561 197.191731 
L 541.074866 206.167717 
L 545.053476 225.744793 
L 555 277.316435 
L 556.989305 286.875472 
L 558.97861 295.844935 
L 560.967914 304.093929 
L 562.957219 311.502072 
L 564.946524 317.961255 
L 566.935829 323.377217 
L 568.925134 327.67092 
L 570.914439 330.779704 
L 572.903743 332.658201 
L 574.893048 333.278999 
L 576.882353 332.633037 
L 578.871658 330.729743 
L 580.860963 327.596891 
L 582.850267 323.280201 
L 584.839572 317.842668 
L 586.828877 311.363643 
L 588.818182 303.937679 
L 590.807487 295.673145 
L 592.796791 286.690648 
L 596.775401 267.104674 
L 600.754011 246.475403 
L 622.636364 246.475403 
L 622.636364 246.475403 
" clip-path="url(#p4199a8d47d)" style="fill: none; stroke: #c44e52; stroke-width: 3; stroke-linecap: round"/>
   </g>
   <g id="line2d_24">
    <path d="M 115.363636 246.475403 
L 123.320856 246.475403 
L 125.31016 153.530044 
L 200.903743 153.530044 
L 202.893048 246.475403 
L 222.786096 246.475403 
L 224.775401 154.737234 
L 308.326203 246.475403 
L 324.240642 246.475403 
L 332.197861 218.011225 
L 336.176471 204.388974 
L 340.15508 191.486834 
L 344.13369 179.525563 
L 348.112299 168.709822 
L 350.101604 163.790212 
L 352.090909 159.224673 
L 354.080214 155.032754 
L 356.069519 151.232407 
L 358.058824 147.839905 
L 360.048128 144.869775 
L 362.037433 142.334737 
L 364.026738 140.245644 
L 366.016043 138.611444 
L 368.005348 137.439134 
L 369.994652 136.733734 
L 371.983957 136.498264 
L 373.973262 136.733734 
L 375.962567 137.439134 
L 377.951872 138.611444 
L 379.941176 140.245644 
L 381.930481 142.334737 
L 383.919786 144.869775 
L 385.909091 147.839905 
L 387.898396 151.232407 
L 389.887701 155.032754 
L 391.877005 159.224673 
L 393.86631 163.790212 
L 395.855615 168.709822 
L 399.834225 179.525563 
L 403.812834 191.486834 
L 407.791444 204.388974 
L 411.770053 218.011225 
L 417.737968 239.282554 
L 419.727273 246.475403 
L 423.705882 246.475403 
L 505.26738 120.669154 
L 507.256684 246.475403 
L 521.181818 246.475403 
L 523.171123 117.742287 
L 525.160428 117.840333 
L 527.149733 118.134323 
L 529.139037 118.623809 
L 531.128342 119.308045 
L 533.117647 120.185989 
L 535.106952 121.256303 
L 537.096257 122.517358 
L 539.085561 123.967232 
L 541.074866 125.603717 
L 543.064171 127.42432 
L 545.053476 129.426268 
L 547.042781 131.60651 
L 551.02139 136.488332 
L 555 142.040049 
L 558.97861 148.22785 
L 562.957219 155.014046 
L 566.935829 162.357305 
L 570.914439 170.2129 
L 574.893048 178.532987 
L 578.871658 187.266889 
L 584.839572 201.026673 
L 590.807487 215.408893 
L 594.786096 225.245839 
L 596.775401 246.475403 
L 622.636364 246.475403 
L 622.636364 246.475403 
" clip-path="url(#p4199a8d47d)" style="fill: none; stroke: #8172b3; stroke-width: 3; stroke-linecap: round"/>
   </g>
   <g id="line2d_25">
    <path d="M 115.363636 246.475403 
L 125.31016 246.475403 
L 202.893048 112.974299 
L 204.882353 246.475403 
L 222.786096 246.475403 
L 224.775401 160.7059 
L 288.433155 246.475403 
L 324.240642 246.475403 
L 330.208556 220.945717 
L 334.187166 204.838631 
L 338.165775 190.069784 
L 340.15508 183.337649 
L 342.144385 177.113861 
L 344.13369 171.448532 
L 346.122995 166.387275 
L 348.112299 161.97084 
L 350.101604 158.234787 
L 352.090909 155.209195 
L 354.080214 152.918425 
L 356.069519 151.38092 
L 358.058824 150.609061 
L 360.048128 150.609061 
L 362.037433 151.38092 
L 364.026738 152.918425 
L 366.016043 155.209195 
L 368.005348 158.234787 
L 369.994652 161.97084 
L 371.983957 166.387275 
L 373.973262 171.448532 
L 375.962567 177.113861 
L 377.951872 183.337649 
L 379.941176 190.069784 
L 383.919786 204.838631 
L 387.898396 220.945717 
L 393.86631 246.475403 
L 421.716578 246.475403 
L 423.705882 171.583697 
L 499.299465 171.583697 
L 501.28877 246.475403 
L 521.181818 246.475403 
L 523.171123 132.596423 
L 525.160428 132.873041 
L 527.149733 133.701554 
L 529.139037 135.077935 
L 531.128342 136.995497 
L 533.117647 139.444926 
L 535.106952 142.414322 
L 537.096257 145.889259 
L 539.085561 149.852854 
L 541.074866 154.285854 
L 543.064171 159.166721 
L 545.053476 164.471744 
L 547.042781 170.17515 
L 551.02139 182.664481 
L 555 196.392309 
L 558.97861 211.092194 
L 564.946524 234.336713 
L 574.893048 273.74112 
L 578.871658 288.842788 
L 580.860963 246.475403 
L 622.636364 246.475403 
L 622.636364 246.475403 
" clip-path="url(#p4199a8d47d)" style="fill: none; stroke: #937860; stroke-width: 3; stroke-linecap: round"/>
   </g>
   <g id="line2d_26">
    <path d="M 115.363636 246.475403 
L 123.320856 246.475403 
L 125.31016 152.55262 
L 127.299465 152.932724 
L 129.28877 154.06996 
L 131.278075 155.955122 
L 133.26738 158.572952 
L 135.256684 161.902262 
L 137.245989 165.916105 
L 139.235294 170.581992 
L 141.224599 175.862157 
L 143.213904 181.713864 
L 145.203209 188.089749 
L 147.192513 194.938206 
L 151.171123 209.827733 
L 155.149733 225.901359 
L 169.074866 283.839327 
L 173.053476 298.662315 
L 175.042781 305.469468 
L 177.032086 311.799124 
L 179.02139 317.600053 
L 181.010695 322.825301 
L 183 327.432575 
L 184.989305 331.384584 
L 186.97861 334.649342 
L 188.967914 337.200422 
L 190.957219 339.017177 
L 192.946524 340.084901 
L 194.935829 340.394953 
L 196.925134 339.944824 
L 198.914439 338.738156 
L 200.903743 336.784716 
L 202.893048 334.100316 
L 204.882353 330.706682 
L 206.871658 246.475403 
L 224.775401 246.475403 
L 312.304813 179.204952 
L 314.294118 246.475403 
L 322.251337 246.475403 
L 324.240642 136.28878 
L 421.716578 246.475403 
L 423.705882 246.475403 
L 455.534759 129.722553 
L 457.524064 129.722553 
L 489.352941 246.475403 
L 521.181818 246.475403 
L 523.171123 139.852954 
L 580.860963 139.852954 
L 582.850267 246.475403 
L 622.636364 246.475403 
L 622.636364 246.475403 
" clip-path="url(#p4199a8d47d)" style="fill: none; stroke: #da8bc3; stroke-width: 3; stroke-linecap: round"/>
   </g>
   <g id="line2d_27">
    <path d="M 115.363636 246.475403 
L 125.31016 246.475403 
L 194.935829 130.885181 
L 196.925134 246.475403 
L 222.786096 246.475403 
L 224.775401 204.425872 
L 290.42246 204.425872 
L 292.411765 246.475403 
L 322.251337 246.475403 
L 324.240642 172.454465 
L 326.229947 172.62658 
L 328.219251 173.142126 
L 330.208556 173.998704 
L 332.197861 175.192332 
L 334.187166 176.717458 
L 336.176471 178.566989 
L 338.165775 180.732326 
L 340.15508 183.203397 
L 342.144385 185.968712 
L 344.13369 189.01541 
L 346.122995 192.329322 
L 348.112299 195.895039 
L 352.090909 203.71446 
L 356.069519 212.328386 
L 360.048128 221.576771 
L 366.016043 236.260621 
L 377.951872 266.276481 
L 381.930481 275.79194 
L 383.919786 246.475403 
L 421.716578 246.475403 
L 423.705882 128.016264 
L 481.395722 246.475403 
L 523.171123 246.475403 
L 531.128342 210.805633 
L 535.106952 193.923094 
L 539.085561 178.160616 
L 543.064171 163.854149 
L 545.053476 157.343602 
L 547.042781 151.308611 
L 549.032086 145.781377 
L 551.02139 140.791388 
L 553.010695 136.36527 
L 555 132.526636 
L 556.989305 129.295969 
L 558.97861 126.690505 
L 560.967914 124.724145 
L 562.957219 123.40738 
L 564.946524 122.747237 
L 566.935829 122.747237 
L 568.925134 123.40738 
L 570.914439 124.724145 
L 572.903743 126.690505 
L 574.893048 129.295969 
L 576.882353 132.526636 
L 578.871658 136.36527 
L 580.860963 140.791388 
L 582.850267 145.781377 
L 584.839572 151.308611 
L 586.828877 157.343602 
L 588.818182 163.854149 
L 592.796791 178.160616 
L 596.775401 193.923094 
L 600.754011 210.805633 
L 606.721925 237.437797 
L 608.71123 246.475403 
L 622.636364 246.475403 
L 622.636364 246.475403 
" clip-path="url(#p4199a8d47d)" style="fill: none; stroke: #8c8c8c; stroke-width: 3; stroke-linecap: round"/>
   </g>
   <g id="line2d_28">
    <path d="M 115.363636 246.475403 
L 125.31016 246.475403 
L 173.053476 120.012979 
L 175.042781 120.012979 
L 222.786096 246.475403 
L 224.775401 174.558229 
L 226.764706 174.759606 
L 228.754011 175.362609 
L 230.743316 176.363863 
L 232.73262 177.757758 
L 234.721925 179.53649 
L 236.71123 181.690096 
L 238.700535 184.206517 
L 240.68984 187.071659 
L 242.679144 190.269477 
L 244.668449 193.782062 
L 246.657754 197.589743 
L 250.636364 206.003565 
L 254.614973 215.322727 
L 258.593583 225.338763 
L 264.561497 241.176302 
L 274.508021 267.763507 
L 278.486631 277.770876 
L 280.475936 246.475403 
L 322.251337 246.475403 
L 324.240642 205.391939 
L 389.887701 205.391939 
L 391.877005 246.475403 
L 421.716578 246.475403 
L 423.705882 150.794235 
L 477.417112 246.475403 
L 523.171123 246.475403 
L 572.903743 133.430291 
L 574.893048 246.475403 
L 622.636364 246.475403 
L 622.636364 246.475403 
" clip-path="url(#p4199a8d47d)" style="fill: none; stroke: #ccb974; stroke-width: 3; stroke-linecap: round"/>
   </g>
   <g id="line2d_29">
    <path d="M 115.363636 246.475403 
L 123.320856 246.475403 
L 125.31016 126.107147 
L 127.299465 126.260833 
L 129.28877 126.7215 
L 131.278075 127.48797 
L 133.26738 128.558286 
L 135.256684 129.929716 
L 137.245989 131.598758 
L 139.235294 133.561148 
L 141.224599 135.811876 
L 143.213904 138.345195 
L 145.203209 141.154635 
L 147.192513 144.233023 
L 149.181818 147.572497 
L 151.171123 151.164529 
L 155.149733 159.068958 
L 159.128342 167.865622 
L 163.106952 177.464725 
L 167.085561 187.768282 
L 171.064171 198.671114 
L 177.032086 215.904152 
L 184.989305 239.901775 
L 196.925134 276.090686 
L 202.893048 293.371973 
L 206.871658 304.318629 
L 208.860963 246.475403 
L 224.775401 246.475403 
L 274.508021 147.206536 
L 276.497326 246.475403 
L 324.240642 246.475403 
L 330.208556 216.141631 
L 334.187166 196.944248 
L 338.165775 179.251845 
L 340.15508 171.140247 
L 342.144385 163.601995 
L 344.13369 156.69446 
L 346.122995 150.470212 
L 348.112299 144.976622 
L 350.101604 140.255499 
L 352.090909 136.342773 
L 354.080214 133.268223 
L 356.069519 131.055248 
L 358.058824 129.72069 
L 360.048128 129.274706 
L 362.037433 129.72069 
L 364.026738 131.055248 
L 366.016043 133.268223 
L 368.005348 136.342773 
L 369.994652 140.255499 
L 371.983957 144.976622 
L 373.973262 150.470212 
L 375.962567 156.69446 
L 377.951872 163.601995 
L 379.941176 171.140247 
L 381.930481 179.251845 
L 385.909091 196.944248 
L 389.887701 216.141631 
L 395.855615 246.475403 
L 421.716578 246.475403 
L 423.705882 138.167469 
L 521.181818 246.475403 
L 523.171123 179.484097 
L 612.68984 179.484097 
L 614.679144 246.475403 
L 622.636364 246.475403 
L 622.636364 246.475403 
" clip-path="url(#p4199a8d47d)" style="fill: none; stroke: #64b5cd; stroke-width: 3; stroke-linecap: round"/>
   </g>
   <g id="patch_3">
    <path d="M 90 384.48 
L 90 51.84 
" style="fill: none; stroke: #ffffff; stroke-width: 1.25; stroke-linejoin: miter; stroke-linecap: square"/>
   </g>
   <g id="patch_4">
    <path d="M 648 384.48 
L 648 51.84 
" style="fill: none; stroke: #ffffff; stroke-width: 1.25; stroke-linejoin: miter; stroke-linecap: square"/>
   </g>
   <g id="patch_5">
    <path d="M 90 384.48 
L 648 384.48 
" style="fill: none; stroke: #ffffff; stroke-width: 1.25; stroke-linejoin: miter; stroke-linecap: square"/>
   </g>
   <g id="patch_6">
    <path d="M 90 51.84 
L 648 51.84 
" style="fill: none; stroke: #ffffff; stroke-width: 1.25; stroke-linejoin: miter; stroke-linecap: square"/>
   </g>
   <g id="text_12">
    <!-- Illustration of Stochasticity in Signal Generation -->
    <g style="fill: #262626" transform="translate(78.383939 45.84) scale(0.3 -0.3)">
     <defs>
      <path id="CMR17-49" d="M 1261 3898 
C 1261 4185 1338 4185 1798 4185 
L 1798 4352 
C 1594 4339 1267 4339 1050 4339 
C 832 4339 506 4339 301 4352 
L 301 4185 
C 762 4185 838 4185 838 3898 
L 838 453 
C 838 166 762 166 301 166 
L 301 0 
C 506 12 832 12 1050 12 
C 1267 12 1594 12 1798 0 
L 1798 166 
C 1338 166 1261 166 1261 453 
L 1261 3898 
z
" transform="scale(0.015625)"/>
      <path id="CMR17-73" d="M 1978 2688 
C 1978 2803 1971 2809 1933 2809 
C 1907 2809 1901 2803 1824 2707 
C 1805 2681 1747 2617 1728 2592 
C 1523 2809 1235 2816 1126 2816 
C 416 2816 160 2444 160 2073 
C 160 1497 813 1363 998 1324 
C 1402 1241 1542 1216 1677 1100 
C 1760 1024 1901 883 1901 652 
C 1901 384 1747 38 1158 38 
C 602 38 403 460 288 1024 
C 269 1113 269 1120 218 1120 
C 166 1120 160 1113 160 985 
L 160 64 
C 160 -52 166 -58 205 -58 
C 237 -58 243 -52 275 0 
C 314 57 410 211 448 275 
C 576 102 800 -64 1158 -64 
C 1792 -64 2131 281 2131 780 
C 2131 1107 1958 1280 1875 1356 
C 1683 1555 1459 1600 1190 1651 
C 838 1728 390 1817 390 2208 
C 390 2374 480 2726 1126 2726 
C 1811 2726 1850 2086 1862 1881 
C 1869 1849 1901 1843 1920 1843 
C 1978 1843 1978 1862 1978 1971 
L 1978 2688 
z
" transform="scale(0.015625)"/>
      <path id="CMR17-72" d="M 960 1517 
C 960 2134 1222 2713 1702 2713 
C 1747 2713 1792 2707 1837 2687 
C 1837 2687 1696 2642 1696 2475 
C 1696 2321 1818 2257 1914 2257 
C 1990 2257 2131 2302 2131 2482 
C 2131 2687 1926 2816 1709 2816 
C 1222 2816 1011 2340 947 2115 
L 941 2115 
L 941 2816 
L 198 2745 
L 198 2578 
C 576 2578 634 2540 634 2231 
L 634 443 
C 634 198 608 166 198 166 
L 198 0 
C 352 12 646 12 813 12 
C 998 12 1325 12 1498 0 
L 1498 166 
C 1037 166 960 166 960 455 
L 960 1517 
z
" transform="scale(0.015625)"/>
      <path id="CMR17-61" d="M 2304 1656 
C 2304 2048 2304 2275 2035 2534 
C 1798 2751 1523 2816 1306 2816 
C 800 2816 435 2408 435 1977 
C 435 1740 627 1728 666 1728 
C 749 1728 896 1779 896 1958 
C 896 2118 774 2188 666 2188 
C 640 2188 608 2182 589 2176 
C 723 2594 1069 2713 1293 2713 
C 1613 2713 1965 2421 1965 1875 
L 1965 1632 
C 1587 1619 1133 1568 774 1373 
C 371 1147 256 822 256 576 
C 256 77 832 -64 1171 -64 
C 1523 -64 1850 135 1990 505 
C 2003 219 2182 -39 2464 -39 
C 2598 -39 2938 51 2938 563 
L 2938 926 
L 2822 926 
L 2822 557 
C 2822 161 2650 109 2566 109 
C 2304 109 2304 446 2304 732 
L 2304 1656 
z
M 1965 887 
C 1965 323 1568 38 1216 38 
C 896 38 646 278 646 576 
C 646 771 730 1114 1101 1322 
C 1408 1497 1760 1523 1965 1536 
L 1965 887 
z
" transform="scale(0.015625)"/>
      <path id="CMR17-6f" d="M 2758 1356 
C 2758 2176 2163 2816 1466 2816 
C 768 2816 173 2176 173 1356 
C 173 550 768 -64 1466 -64 
C 2163 -64 2758 550 2758 1356 
z
M 1466 51 
C 1165 51 909 230 762 480 
C 602 768 582 1126 582 1408 
C 582 1676 595 2009 762 2297 
C 890 2508 1139 2713 1466 2713 
C 1754 2713 1997 2553 2150 2329 
C 2349 2028 2349 1606 2349 1408 
C 2349 1158 2336 774 2163 467 
C 1984 172 1709 51 1466 51 
z
" transform="scale(0.015625)"/>
      <path id="CMR17-6e" d="M 2656 1954 
C 2656 2282 2592 2816 1837 2816 
C 1331 2816 1069 2424 973 2166 
L 966 2166 
L 966 2816 
L 211 2745 
L 211 2578 
C 589 2578 646 2540 646 2231 
L 646 443 
C 646 198 621 166 211 166 
L 211 0 
C 365 12 646 12 813 12 
C 979 12 1267 12 1421 0 
L 1421 166 
C 1011 166 986 192 986 443 
L 986 1678 
C 986 2269 1344 2713 1792 2713 
C 2266 2713 2317 2289 2317 1980 
L 2317 443 
C 2317 198 2291 166 1882 166 
L 1882 0 
C 2035 12 2317 12 2483 12 
C 2650 12 2938 12 3091 0 
L 3091 166 
C 2682 166 2656 192 2656 443 
L 2656 1954 
z
" transform="scale(0.015625)"/>
      <path id="CMR17-66" d="M 979 2585 
L 1709 2585 
L 1709 2752 
L 966 2752 
L 966 3539 
C 966 4076 1235 4377 1510 4377 
C 1594 4377 1690 4363 1754 4339 
C 1702 4326 1568 4281 1568 4121 
C 1568 3955 1696 3904 1786 3904 
C 1875 3904 2003 3955 2003 4121 
C 2003 4353 1773 4480 1517 4480 
C 1152 4480 653 4211 653 3526 
L 653 2752 
L 141 2752 
L 141 2585 
L 653 2585 
L 653 441 
C 653 198 627 166 218 166 
L 218 0 
C 371 12 666 12 832 12 
C 1018 12 1344 12 1517 0 
L 1517 166 
C 1056 166 979 166 979 454 
L 979 2585 
z
" transform="scale(0.015625)"/>
      <path id="CMR17-53" d="M 2803 4351 
C 2803 4467 2797 4473 2758 4473 
C 2720 4473 2707 4447 2682 4390 
L 2490 3965 
C 2246 4320 1875 4480 1472 4480 
C 819 4480 294 3958 294 3301 
C 294 3101 339 2817 557 2546 
C 794 2250 1018 2198 1530 2063 
C 1722 2011 2042 1927 2106 1901 
C 2470 1747 2662 1360 2662 999 
C 2662 534 2336 38 1779 38 
C 1094 38 454 425 410 1328 
C 403 1431 397 1437 352 1437 
C 301 1437 294 1431 294 1302 
L 294 0 
C 294 -116 301 -122 339 -122 
C 384 -122 397 -90 486 109 
C 493 128 493 141 614 386 
C 934 -39 1472 -128 1779 -128 
C 2477 -128 2970 457 2970 1141 
C 2970 1476 2848 1734 2778 1850 
C 2509 2263 2221 2340 1914 2417 
C 1869 2437 1856 2437 1498 2527 
C 1152 2617 1005 2662 845 2836 
C 666 3036 602 3243 602 3449 
C 602 3868 934 4326 1478 4326 
C 2157 4326 2579 3842 2675 3036 
C 2694 2920 2701 2914 2746 2914 
C 2803 2914 2803 2933 2803 3043 
L 2803 4351 
z
" transform="scale(0.015625)"/>
      <path id="CMR17-63" d="M 2234 2240 
C 2112 2240 1933 2240 1933 2015 
C 1933 1836 2080 1785 2163 1785 
C 2208 1785 2394 1804 2394 2028 
C 2394 2476 1958 2816 1466 2816 
C 787 2816 211 2201 211 1379 
C 211 521 813 -64 1466 -64 
C 2259 -64 2458 676 2458 747 
C 2458 773 2451 792 2406 792 
C 2362 792 2355 786 2330 702 
C 2163 180 1798 51 1523 51 
C 1114 51 621 431 621 1385 
C 621 2358 1094 2700 1472 2700 
C 1722 2700 2093 2582 2234 2240 
z
" transform="scale(0.015625)"/>
      <path id="CMR17-68" d="M 2656 1954 
C 2656 2282 2592 2816 1837 2816 
C 1312 2816 1056 2392 979 2179 
L 973 2179 
L 973 4416 
L 211 4345 
L 211 4179 
C 589 4179 646 4141 646 3843 
L 646 443 
C 646 198 621 166 211 166 
L 211 0 
C 365 12 646 12 813 12 
C 979 12 1267 12 1421 0 
L 1421 166 
C 1011 166 986 192 986 443 
L 986 1678 
C 986 2269 1344 2713 1792 2713 
C 2266 2713 2317 2289 2317 1980 
L 2317 443 
C 2317 198 2291 166 1882 166 
L 1882 0 
C 2035 12 2317 12 2483 12 
C 2650 12 2938 12 3091 0 
L 3091 166 
C 2682 166 2656 192 2656 443 
L 2656 1954 
z
" transform="scale(0.015625)"/>
      <path id="CMR17-79" d="M 2496 2183 
C 2656 2579 2944 2585 3034 2585 
L 3034 2752 
C 2912 2745 2752 2739 2630 2739 
C 2496 2739 2285 2739 2157 2752 
L 2157 2585 
C 2400 2566 2406 2384 2406 2332 
C 2406 2268 2394 2235 2362 2158 
L 1664 409 
L 902 2300 
C 870 2378 870 2423 870 2430 
C 870 2572 1018 2585 1171 2585 
L 1171 2752 
C 1018 2739 742 2739 582 2739 
C 410 2739 205 2739 64 2752 
L 64 2585 
C 410 2585 448 2553 531 2345 
L 1485 -31 
C 1197 -795 1030 -1242 627 -1242 
C 557 -1242 397 -1223 282 -1106 
C 429 -1093 493 -1002 493 -892 
C 493 -782 416 -685 288 -685 
C 147 -685 77 -782 77 -899 
C 77 -1158 339 -1344 627 -1344 
C 998 -1344 1229 -983 1357 -659 
L 2496 2183 
z
" transform="scale(0.015625)"/>
      <path id="CMR17-67" d="M 710 1165 
C 832 1068 1043 960 1299 960 
C 1805 960 2240 1359 2240 1895 
C 2240 2063 2189 2321 1997 2521 
C 2176 2713 2438 2777 2586 2777 
C 2611 2777 2650 2777 2682 2758 
C 2656 2751 2598 2726 2598 2623 
C 2598 2540 2656 2483 2739 2483 
C 2835 2483 2886 2547 2886 2630 
C 2886 2751 2790 2880 2586 2880 
C 2330 2880 2106 2758 1926 2591 
C 1734 2764 1504 2828 1299 2828 
C 794 2828 358 2431 358 1895 
C 358 1527 570 1294 634 1230 
C 442 1004 442 742 442 710 
C 442 544 506 300 723 166 
C 390 82 128 -184 128 -517 
C 128 -996 736 -1344 1466 -1344 
C 2170 -1344 2803 -1009 2803 -510 
C 2803 384 1856 384 1363 384 
C 1216 384 954 384 922 390 
C 723 422 589 601 589 825 
C 589 883 589 1024 710 1165 
z
M 1299 1068 
C 736 1068 736 1766 736 1895 
C 736 2024 736 2719 1299 2719 
C 1862 2719 1862 2024 1862 1895 
C 1862 1766 1862 1068 1299 1068 
z
M 1466 -1236 
C 826 -1236 384 -883 384 -517 
C 384 -311 493 -118 634 -11 
C 794 102 858 102 1293 102 
C 1818 102 2547 102 2547 -517 
C 2547 -883 2106 -1236 1466 -1236 
z
" transform="scale(0.015625)"/>
      <path id="CMR17-47" d="M 3974 1258 
C 3974 1503 3994 1536 4390 1536 
L 4390 1702 
C 4237 1689 3891 1689 3718 1689 
C 3539 1689 3040 1696 2797 1702 
L 2797 1536 
L 2989 1536 
C 3539 1536 3552 1464 3552 1232 
L 3552 806 
C 3552 96 2720 38 2522 38 
C 1862 38 781 496 781 2179 
C 781 3862 1843 4313 2464 4313 
C 3187 4313 3712 3681 3834 2785 
C 3846 2708 3846 2695 3904 2695 
C 3974 2695 3974 2708 3974 2824 
L 3974 4351 
C 3974 4467 3968 4473 3930 4473 
C 3904 4473 3898 4467 3853 4390 
L 3571 3849 
C 3258 4249 2874 4480 2381 4480 
C 1286 4480 294 3507 294 2179 
C 294 858 1267 -128 2394 -128 
C 2912 -128 3418 57 3616 425 
C 3725 161 3904 -20 3936 -20 
C 3968 -20 3974 -13 3974 102 
L 3974 1258 
z
" transform="scale(0.015625)"/>
     </defs>
     <use xlink:href="#CMR17-49" transform="scale(0.996264)"/>
     <use xlink:href="#CMR17-6c" transform="translate(32.638409 0) scale(0.996264)"/>
     <use xlink:href="#CMR17-6c" transform="translate(57.509468 0) scale(0.996264)"/>
     <use xlink:href="#CMR17-75" transform="translate(82.380526 0) scale(0.996264)"/>
     <use xlink:href="#CMR17-73" transform="translate(133.275896 0) scale(0.996264)"/>
     <use xlink:href="#CMR17-74" transform="translate(169.077234 0) scale(0.996264)"/>
     <use xlink:href="#CMR17-72" transform="translate(204.358001 0) scale(0.996264)"/>
     <use xlink:href="#CMR17-61" transform="translate(239.638769 0) scale(0.996264)"/>
     <use xlink:href="#CMR17-74" transform="translate(285.329246 0) scale(0.996264)"/>
     <use xlink:href="#CMR17-69" transform="translate(320.610014 0) scale(0.996264)"/>
     <use xlink:href="#CMR17-6f" transform="translate(345.481073 0) scale(0.996264)"/>
     <use xlink:href="#CMR17-6e" transform="translate(391.17155 0) scale(0.996264)"/>
     <use xlink:href="#CMR17-6f" transform="translate(472.142886 0) scale(0.996264)"/>
     <use xlink:href="#CMR17-66" transform="translate(517.833363 0) scale(0.996264)"/>
     <use xlink:href="#CMR17-53" transform="translate(575.382842 0) scale(0.996264)"/>
     <use xlink:href="#CMR17-74" transform="translate(626.278211 0) scale(0.996264)"/>
     <use xlink:href="#CMR17-6f" transform="translate(661.558979 0) scale(0.996264)"/>
     <use xlink:href="#CMR17-63" transform="translate(709.851895 0) scale(0.996264)"/>
     <use xlink:href="#CMR17-68" transform="translate(747.735102 0) scale(0.996264)"/>
     <use xlink:href="#CMR17-61" transform="translate(798.630471 0) scale(0.996264)"/>
     <use xlink:href="#CMR17-73" transform="translate(844.320949 0) scale(0.996264)"/>
     <use xlink:href="#CMR17-74" transform="translate(880.122286 0) scale(0.996264)"/>
     <use xlink:href="#CMR17-69" transform="translate(915.403054 0) scale(0.996264)"/>
     <use xlink:href="#CMR17-63" transform="translate(940.274112 0) scale(0.996264)"/>
     <use xlink:href="#CMR17-69" transform="translate(980.759773 0) scale(0.996264)"/>
     <use xlink:href="#CMR17-74" transform="translate(1005.630831 0) scale(0.996264)"/>
     <use xlink:href="#CMR17-79" transform="translate(1038.309145 0) scale(0.996264)"/>
     <use xlink:href="#CMR17-69" transform="translate(1116.678027 0) scale(0.996264)"/>
     <use xlink:href="#CMR17-6e" transform="translate(1141.549086 0) scale(0.996264)"/>
     <use xlink:href="#CMR17-53" transform="translate(1222.520422 0) scale(0.996264)"/>
     <use xlink:href="#CMR17-69" transform="translate(1273.415792 0) scale(0.996264)"/>
     <use xlink:href="#CMR17-67" transform="translate(1298.28685 0) scale(0.996264)"/>
     <use xlink:href="#CMR17-6e" transform="translate(1343.977327 0) scale(0.996264)"/>
     <use xlink:href="#CMR17-61" transform="translate(1394.872697 0) scale(0.996264)"/>
     <use xlink:href="#CMR17-6c" transform="translate(1440.563174 0) scale(0.996264)"/>
     <use xlink:href="#CMR17-47" transform="translate(1495.510199 0) scale(0.996264)"/>
     <use xlink:href="#CMR17-65" transform="translate(1567.865545 0) scale(0.996264)"/>
     <use xlink:href="#CMR17-6e" transform="translate(1608.351206 0) scale(0.996264)"/>
     <use xlink:href="#CMR17-65" transform="translate(1659.246575 0) scale(0.996264)"/>
     <use xlink:href="#CMR17-72" transform="translate(1699.732236 0) scale(0.996264)"/>
     <use xlink:href="#CMR17-61" transform="translate(1735.013004 0) scale(0.996264)"/>
     <use xlink:href="#CMR17-74" transform="translate(1780.703481 0) scale(0.996264)"/>
     <use xlink:href="#CMR17-69" transform="translate(1815.984249 0) scale(0.996264)"/>
     <use xlink:href="#CMR17-6f" transform="translate(1840.855307 0) scale(0.996264)"/>
     <use xlink:href="#CMR17-6e" transform="translate(1886.545784 0) scale(0.996264)"/>
    </g>
   </g>
  </g>
 </g>
 <defs>
  <clipPath id="p4199a8d47d">
   <rect x="90" y="51.84" width="558" height="332.64"/>
  </clipPath>
 </defs>
</svg>
