<?xml version="1.0" encoding="utf-8" standalone="no"?>
<!DOCTYPE svg PUBLIC "-//W3C//DTD SVG 1.1//EN"
  "http://www.w3.org/Graphics/SVG/1.1/DTD/svg11.dtd">
<svg xmlns:xlink="http://www.w3.org/1999/xlink" width="720pt" height="432pt" viewBox="0 0 720 432" xmlns="http://www.w3.org/2000/svg" version="1.1">
 <metadata>
  <rdf:RDF xmlns:dc="http://purl.org/dc/elements/1.1/" xmlns:cc="http://creativecommons.org/ns#" xmlns:rdf="http://www.w3.org/1999/02/22-rdf-syntax-ns#">
   <cc:Work>
    <dc:type rdf:resource="http://purl.org/dc/dcmitype/StillImage"/>
    <dc:date>2025-05-27T19:58:13.543516</dc:date>
    <dc:format>image/svg+xml</dc:format>
    <dc:creator>
     <cc:Agent>
      <dc:title>Matplotlib v3.10.0, https://matplotlib.org/</dc:title>
     </cc:Agent>
    </dc:creator>
   </cc:Work>
  </rdf:RDF>
 </metadata>
 <defs>
  <style type="text/css">*{stroke-linejoin: round; stroke-linecap: butt}</style>
 </defs>
 <g id="figure_1">
  <g id="patch_1">
   <path d="M 0 432 
L 720 432 
L 720 0 
L 0 0 
z
" style="fill: #ffffff"/>
  </g>
  <g id="axes_1">
   <g id="patch_2">
    <path d="M 90 384.48 
L 648 384.48 
L 648 51.84 
L 90 51.84 
z
" style="fill: #ffffff"/>
   </g>
   <g id="matplotlib.axis_1">
    <g id="xtick_1">
     <g id="line2d_1">
      <path d="M 115.363636 384.48 
L 115.363636 51.84 
" clip-path="url(#p6f96f3bf6c)" style="fill: none; stroke: #cccccc; stroke-linecap: round"/>
     </g>
     <g id="text_1">
      <!-- $\mathdefault{0}$ -->
      <g style="fill: #262626" transform="translate(109.081196 413.005867) scale(0.275 -0.275)">
       <defs>
        <path id="CMR17-30" d="M 2688 2038 
C 2688 2430 2682 3099 2413 3613 
C 2176 4063 1798 4224 1466 4224 
C 1158 4224 768 4082 525 3620 
C 269 3137 243 2539 243 2038 
C 243 1671 250 1112 448 623 
C 723 -39 1216 -128 1466 -128 
C 1760 -128 2208 -7 2470 604 
C 2662 1048 2688 1568 2688 2038 
z
M 1466 -26 
C 1056 -26 813 328 723 816 
C 653 1196 653 1749 653 2109 
C 653 2604 653 3015 736 3407 
C 858 3954 1216 4121 1466 4121 
C 1728 4121 2067 3947 2189 3420 
C 2272 3054 2278 2623 2278 2109 
C 2278 1691 2278 1176 2202 797 
C 2067 96 1690 -26 1466 -26 
z
" transform="scale(0.015625)"/>
       </defs>
       <use xlink:href="#CMR17-30" transform="scale(0.996264)"/>
      </g>
     </g>
    </g>
    <g id="xtick_2">
     <g id="line2d_2">
      <path d="M 214.828877 384.48 
L 214.828877 51.84 
" clip-path="url(#p6f96f3bf6c)" style="fill: none; stroke: #cccccc; stroke-linecap: round"/>
     </g>
     <g id="text_2">
      <!-- $\mathdefault{50}$ -->
      <g style="fill: #262626" transform="translate(202.263996 413.005867) scale(0.275 -0.275)">
       <defs>
        <path id="CMR17-35" d="M 730 3750 
C 794 3724 1056 3641 1325 3641 
C 1920 3641 2246 3961 2432 4140 
C 2432 4191 2432 4224 2394 4224 
C 2387 4224 2374 4224 2323 4198 
C 2099 4102 1837 4032 1517 4032 
C 1325 4032 1037 4055 723 4191 
C 653 4224 640 4224 634 4224 
C 602 4224 595 4217 595 4090 
L 595 2231 
C 595 2113 595 2080 659 2080 
C 691 2080 704 2093 736 2139 
C 941 2435 1222 2560 1542 2560 
C 1766 2560 2246 2415 2246 1293 
C 2246 1087 2246 716 2054 422 
C 1894 159 1645 25 1370 25 
C 947 25 518 319 403 812 
C 429 806 480 793 506 793 
C 589 793 749 838 749 1036 
C 749 1209 627 1280 506 1280 
C 358 1280 262 1190 262 1011 
C 262 454 704 -128 1382 -128 
C 2042 -128 2669 441 2669 1267 
C 2669 2054 2170 2662 1549 2662 
C 1222 2662 947 2540 730 2304 
L 730 3750 
z
" transform="scale(0.015625)"/>
       </defs>
       <use xlink:href="#CMR17-35" transform="scale(0.996264)"/>
       <use xlink:href="#CMR17-30" transform="translate(45.690477 0) scale(0.996264)"/>
      </g>
     </g>
    </g>
    <g id="xtick_3">
     <g id="line2d_3">
      <path d="M 314.294118 384.48 
L 314.294118 51.84 
" clip-path="url(#p6f96f3bf6c)" style="fill: none; stroke: #cccccc; stroke-linecap: round"/>
     </g>
     <g id="text_3">
      <!-- $\mathdefault{100}$ -->
      <g style="fill: #262626" transform="translate(295.446796 413.005867) scale(0.275 -0.275)">
       <defs>
        <path id="CMR17-31" d="M 1702 4083 
C 1702 4217 1696 4224 1606 4224 
C 1357 3927 979 3833 621 3820 
C 602 3820 570 3820 563 3808 
C 557 3795 557 3782 557 3648 
C 755 3648 1088 3686 1344 3839 
L 1344 467 
C 1344 243 1331 166 781 166 
L 589 166 
L 589 0 
C 896 6 1216 12 1523 12 
C 1830 12 2150 6 2458 0 
L 2458 166 
L 2266 166 
C 1715 166 1702 236 1702 467 
L 1702 4083 
z
" transform="scale(0.015625)"/>
       </defs>
       <use xlink:href="#CMR17-31" transform="scale(0.996264)"/>
       <use xlink:href="#CMR17-30" transform="translate(45.690477 0) scale(0.996264)"/>
       <use xlink:href="#CMR17-30" transform="translate(91.380954 0) scale(0.996264)"/>
      </g>
     </g>
    </g>
    <g id="xtick_4">
     <g id="line2d_4">
      <path d="M 413.759358 384.48 
L 413.759358 51.84 
" clip-path="url(#p6f96f3bf6c)" style="fill: none; stroke: #cccccc; stroke-linecap: round"/>
     </g>
     <g id="text_4">
      <!-- $\mathdefault{150}$ -->
      <g style="fill: #262626" transform="translate(394.912036 413.005867) scale(0.275 -0.275)">
       <use xlink:href="#CMR17-31" transform="scale(0.996264)"/>
       <use xlink:href="#CMR17-35" transform="translate(45.690477 0) scale(0.996264)"/>
       <use xlink:href="#CMR17-30" transform="translate(91.380954 0) scale(0.996264)"/>
      </g>
     </g>
    </g>
    <g id="xtick_5">
     <g id="line2d_5">
      <path d="M 513.224599 384.48 
L 513.224599 51.84 
" clip-path="url(#p6f96f3bf6c)" style="fill: none; stroke: #cccccc; stroke-linecap: round"/>
     </g>
     <g id="text_5">
      <!-- $\mathdefault{200}$ -->
      <g style="fill: #262626" transform="translate(494.377277 413.005867) scale(0.275 -0.275)">
       <defs>
        <path id="CMR17-32" d="M 2669 990 
L 2554 990 
C 2490 537 2438 460 2413 422 
C 2381 371 1920 371 1830 371 
L 602 371 
C 832 620 1280 1073 1824 1596 
C 2214 1966 2669 2400 2669 3033 
C 2669 3788 2067 4224 1395 4224 
C 691 4224 262 3603 262 3027 
C 262 2777 448 2745 525 2745 
C 589 2745 781 2783 781 3007 
C 781 3206 614 3264 525 3264 
C 486 3264 448 3257 422 3244 
C 544 3788 915 4057 1306 4057 
C 1862 4057 2227 3616 2227 3033 
C 2227 2477 1901 1998 1536 1583 
L 262 147 
L 262 0 
L 2515 0 
L 2669 990 
z
" transform="scale(0.015625)"/>
       </defs>
       <use xlink:href="#CMR17-32" transform="scale(0.996264)"/>
       <use xlink:href="#CMR17-30" transform="translate(45.690477 0) scale(0.996264)"/>
       <use xlink:href="#CMR17-30" transform="translate(91.380954 0) scale(0.996264)"/>
      </g>
     </g>
    </g>
    <g id="xtick_6">
     <g id="line2d_6">
      <path d="M 612.68984 384.48 
L 612.68984 51.84 
" clip-path="url(#p6f96f3bf6c)" style="fill: none; stroke: #cccccc; stroke-linecap: round"/>
     </g>
     <g id="text_6">
      <!-- $\mathdefault{250}$ -->
      <g style="fill: #262626" transform="translate(593.842518 413.005867) scale(0.275 -0.275)">
       <use xlink:href="#CMR17-32" transform="scale(0.996264)"/>
       <use xlink:href="#CMR17-35" transform="translate(45.690477 0) scale(0.996264)"/>
       <use xlink:href="#CMR17-30" transform="translate(91.380954 0) scale(0.996264)"/>
      </g>
     </g>
    </g>
    <g id="text_7">
     <!-- Time -->
     <g style="fill: #262626" transform="translate(337.682086 443.090362) scale(0.3 -0.3)">
      <defs>
       <path id="CMR17-54" d="M 3981 4332 
L 288 4332 
L 179 2924 
L 294 2924 
C 378 3981 467 4166 1453 4166 
C 1568 4166 1754 4166 1805 4159 
C 1926 4140 1926 4064 1926 3917 
L 1926 465 
C 1926 236 1907 166 1376 166 
L 1197 166 
L 1197 0 
C 1504 6 1824 12 2138 12 
C 2451 12 2771 6 3078 0 
L 3078 166 
L 2899 166 
C 2368 166 2349 236 2349 465 
L 2349 3917 
C 2349 4057 2349 4134 2464 4159 
C 2515 4166 2701 4166 2816 4166 
C 3795 4166 3891 3981 3974 2924 
L 4090 2924 
L 3981 4332 
z
" transform="scale(0.015625)"/>
       <path id="CMR17-69" d="M 992 3961 
C 992 4102 877 4224 730 4224 
C 589 4224 467 4108 467 3961 
C 467 3820 582 3699 730 3699 
C 870 3699 992 3814 992 3961 
z
M 243 2745 
L 243 2579 
C 602 2579 653 2540 653 2231 
L 653 443 
C 653 198 627 166 218 166 
L 218 0 
C 371 12 646 12 806 12 
C 960 12 1222 12 1370 0 
L 1370 166 
C 992 166 979 205 979 436 
L 979 2816 
L 243 2745 
z
" transform="scale(0.015625)"/>
       <path id="CMR17-6d" d="M 4326 1954 
C 4326 2276 4269 2816 3507 2816 
C 3072 2816 2771 2520 2656 2173 
L 2650 2173 
C 2573 2700 2195 2816 1837 2816 
C 1331 2816 1069 2424 973 2166 
L 966 2166 
L 966 2816 
L 211 2745 
L 211 2578 
C 589 2578 646 2540 646 2231 
L 646 443 
C 646 198 621 166 211 166 
L 211 0 
C 365 12 646 12 813 12 
C 979 12 1267 12 1421 0 
L 1421 166 
C 1011 166 986 192 986 443 
L 986 1678 
C 986 2269 1344 2713 1792 2713 
C 2266 2713 2317 2289 2317 1980 
L 2317 443 
C 2317 198 2291 166 1882 166 
L 1882 0 
C 2035 12 2317 12 2483 12 
C 2650 12 2938 12 3091 0 
L 3091 166 
C 2682 166 2656 192 2656 443 
L 2656 1678 
C 2656 2269 3014 2713 3462 2713 
C 3936 2713 3987 2289 3987 1980 
L 3987 443 
C 3987 198 3962 166 3552 166 
L 3552 0 
C 3706 12 3987 12 4154 12 
C 4320 12 4608 12 4762 0 
L 4762 166 
C 4352 166 4326 192 4326 443 
L 4326 1954 
z
" transform="scale(0.015625)"/>
       <path id="CMR17-65" d="M 2438 1503 
C 2464 1529 2464 1542 2464 1606 
C 2464 2251 2118 2816 1389 2816 
C 710 2816 173 2175 173 1394 
C 173 554 781 -64 1459 -64 
C 2176 -64 2458 619 2458 755 
C 2458 800 2419 800 2406 800 
C 2362 800 2355 787 2330 709 
C 2189 270 1837 51 1504 51 
C 1229 51 954 206 781 490 
C 582 819 582 1200 582 1503 
L 2438 1503 
z
M 589 1600 
C 634 2511 1126 2713 1382 2713 
C 1818 2713 2112 2308 2118 1600 
L 589 1600 
z
" transform="scale(0.015625)"/>
      </defs>
      <use xlink:href="#CMR17-54" transform="scale(0.996264)"/>
      <use xlink:href="#CMR17-69" transform="translate(66.509881 0) scale(0.996264)"/>
      <use xlink:href="#CMR17-6d" transform="translate(91.380939 0) scale(0.996264)"/>
      <use xlink:href="#CMR17-65" transform="translate(168.300529 0) scale(0.996264)"/>
     </g>
    </g>
   </g>
   <g id="matplotlib.axis_2">
    <g id="ytick_1">
     <g id="line2d_7">
      <path d="M 90 323.029997 
L 648 323.029997 
" clip-path="url(#p6f96f3bf6c)" style="fill: none; stroke: #cccccc; stroke-linecap: round"/>
     </g>
     <g id="text_8">
      <!-- $\mathdefault{−2}$ -->
      <g style="fill: #262626" transform="translate(46.626066 332.54293) scale(0.275 -0.275)">
       <defs>
        <path id="CMSY10-0" d="M 4218 1472 
C 4326 1472 4442 1472 4442 1600 
C 4442 1728 4326 1728 4218 1728 
L 755 1728 
C 646 1728 531 1728 531 1600 
C 531 1472 646 1472 755 1472 
L 4218 1472 
z
" transform="scale(0.015625)"/>
       </defs>
       <use xlink:href="#CMSY10-0" transform="scale(0.996264)"/>
       <use xlink:href="#CMR17-32" transform="translate(77.487468 0) scale(0.996264)"/>
      </g>
     </g>
    </g>
    <g id="ytick_2">
     <g id="line2d_8">
      <path d="M 90 243.600929 
L 648 243.600929 
" clip-path="url(#p6f96f3bf6c)" style="fill: none; stroke: #cccccc; stroke-linecap: round"/>
     </g>
     <g id="text_9">
      <!-- $\mathdefault{0}$ -->
      <g style="fill: #262626" transform="translate(67.935119 253.113862) scale(0.275 -0.275)">
       <use xlink:href="#CMR17-30" transform="scale(0.996264)"/>
      </g>
     </g>
    </g>
    <g id="ytick_3">
     <g id="line2d_9">
      <path d="M 90 164.17186 
L 648 164.17186 
" clip-path="url(#p6f96f3bf6c)" style="fill: none; stroke: #cccccc; stroke-linecap: round"/>
     </g>
     <g id="text_10">
      <!-- $\mathdefault{2}$ -->
      <g style="fill: #262626" transform="translate(67.935119 173.684793) scale(0.275 -0.275)">
       <use xlink:href="#CMR17-32" transform="scale(0.996264)"/>
      </g>
     </g>
    </g>
    <g id="ytick_4">
     <g id="line2d_10">
      <path d="M 90 84.742791 
L 648 84.742791 
" clip-path="url(#p6f96f3bf6c)" style="fill: none; stroke: #cccccc; stroke-linecap: round"/>
     </g>
     <g id="text_11">
      <!-- $\mathdefault{4}$ -->
      <g style="fill: #262626" transform="translate(67.935119 94.255725) scale(0.275 -0.275)">
       <defs>
        <path id="CMR17-34" d="M 2150 4147 
C 2150 4281 2144 4288 2029 4288 
L 128 1254 
L 128 1088 
L 1779 1088 
L 1779 460 
C 1779 230 1766 166 1318 166 
L 1197 166 
L 1197 0 
C 1402 12 1747 12 1965 12 
C 2182 12 2528 12 2733 0 
L 2733 166 
L 2611 166 
C 2163 166 2150 230 2150 460 
L 2150 1088 
L 2803 1088 
L 2803 1254 
L 2150 1254 
L 2150 4147 
z
M 1798 3723 
L 1798 1254 
L 256 1254 
L 1798 3723 
z
" transform="scale(0.015625)"/>
       </defs>
       <use xlink:href="#CMR17-34" transform="scale(0.996264)"/>
      </g>
     </g>
    </g>
    <g id="text_12">
     <!-- Amplitude -->
     <g style="fill: #262626" transform="translate(36.812616 281.787972) rotate(-90) scale(0.3 -0.3)">
      <defs>
       <path id="CMR17-41" d="M 2323 4441 
C 2291 4524 2278 4544 2214 4544 
C 2150 4544 2138 4524 2106 4441 
L 749 580 
C 627 236 371 166 147 166 
L 147 0 
C 262 12 518 12 640 12 
C 800 12 1056 12 1210 0 
L 1210 166 
C 909 179 864 382 864 459 
C 864 516 877 548 890 586 
L 1229 1536 
L 2906 1536 
L 3290 453 
C 3322 376 3322 363 3322 338 
C 3322 166 3046 166 2925 166 
L 2925 0 
C 3110 12 3443 12 3642 12 
C 3808 12 4128 12 4282 0 
L 4282 166 
C 3942 166 3827 166 3744 402 
L 2323 4441 
z
M 2067 3924 
L 2848 1702 
L 1286 1702 
L 2067 3924 
z
" transform="scale(0.015625)"/>
       <path id="CMR17-70" d="M 1408 -1114 
C 998 -1114 973 -1088 973 -834 
L 973 380 
C 1158 109 1427 -64 1766 -64 
C 2406 -64 3053 503 3053 1382 
C 3053 2196 2496 2816 1837 2816 
C 1453 2816 1139 2603 960 2345 
L 960 2816 
L 198 2745 
L 198 2577 
C 576 2577 634 2539 634 2228 
L 634 -834 
C 634 -1081 608 -1114 198 -1114 
L 198 -1280 
C 352 -1268 634 -1268 800 -1268 
C 966 -1268 1254 -1268 1408 -1280 
L 1408 -1114 
z
M 973 2015 
C 973 2106 973 2241 1222 2481 
C 1254 2506 1472 2700 1792 2700 
C 2259 2700 2643 2112 2643 1376 
C 2643 639 2234 38 1728 38 
C 1498 38 1248 148 1056 451 
C 973 594 973 632 973 736 
L 973 2015 
z
" transform="scale(0.015625)"/>
       <path id="CMR17-6c" d="M 979 4416 
L 218 4345 
L 218 4179 
C 595 4179 653 4141 653 3835 
L 653 439 
C 653 198 627 166 218 166 
L 218 0 
C 371 12 653 12 813 12 
C 979 12 1261 12 1414 0 
L 1414 166 
C 1005 166 979 191 979 439 
L 979 4416 
z
" transform="scale(0.015625)"/>
       <path id="CMR17-74" d="M 966 2585 
L 1862 2585 
L 1862 2752 
L 966 2752 
L 966 3968 
L 851 3968 
C 838 3292 614 2700 70 2687 
L 70 2585 
L 627 2585 
L 627 778 
C 627 655 627 -64 1370 -64 
C 1747 -64 1965 308 1965 784 
L 1965 1151 
L 1850 1151 
L 1850 790 
C 1850 347 1677 51 1408 51 
C 1222 51 966 179 966 765 
L 966 2585 
z
" transform="scale(0.015625)"/>
       <path id="CMR17-75" d="M 1882 2745 
L 1882 2579 
C 2259 2579 2317 2540 2317 2229 
L 2317 1053 
C 2317 510 2029 38 1555 38 
C 1030 38 986 355 986 691 
L 986 2816 
L 211 2745 
L 211 2579 
C 467 2579 640 2579 646 2320 
L 646 1079 
C 646 646 646 368 813 187 
C 896 103 1056 -64 1517 -64 
C 2061 -64 2272 400 2323 536 
L 2330 536 
L 2330 -64 
L 3091 -13 
L 3091 154 
C 2714 154 2656 193 2656 503 
L 2656 2816 
L 1882 2745 
z
" transform="scale(0.015625)"/>
       <path id="CMR17-64" d="M 1869 4345 
L 1869 4179 
C 2246 4179 2304 4141 2304 3843 
L 2304 2371 
C 2278 2403 2016 2816 1498 2816 
C 845 2816 211 2228 211 1376 
C 211 529 806 -64 1434 -64 
C 1978 -64 2259 361 2291 406 
L 2291 -64 
L 3066 -13 
L 3066 154 
C 2688 154 2630 193 2630 503 
L 2630 4416 
L 1869 4345 
z
M 2291 762 
C 2291 568 2176 393 2029 264 
C 1811 70 1594 38 1472 38 
C 1286 38 621 135 621 1369 
C 621 2636 1363 2713 1530 2713 
C 1824 2713 2061 2545 2208 2313 
C 2291 2177 2291 2157 2291 2041 
L 2291 762 
z
" transform="scale(0.015625)"/>
      </defs>
      <use xlink:href="#CMR17-41" transform="scale(0.996264)"/>
      <use xlink:href="#CMR17-6d" transform="translate(69.07243 0) scale(0.996264)"/>
      <use xlink:href="#CMR17-70" transform="translate(145.99202 0) scale(0.996264)"/>
      <use xlink:href="#CMR17-6c" transform="translate(196.887389 0) scale(0.996264)"/>
      <use xlink:href="#CMR17-69" transform="translate(221.758448 0) scale(0.996264)"/>
      <use xlink:href="#CMR17-74" transform="translate(246.629506 0) scale(0.996264)"/>
      <use xlink:href="#CMR17-75" transform="translate(281.910274 0) scale(0.996264)"/>
      <use xlink:href="#CMR17-64" transform="translate(332.805644 0) scale(0.996264)"/>
      <use xlink:href="#CMR17-65" transform="translate(383.701014 0) scale(0.996264)"/>
     </g>
    </g>
   </g>
   <g id="line2d_11">
    <path d="M 115.363636 243.600929 
L 123.320856 243.600929 
L 157.139037 131.261918 
L 159.128342 131.261918 
L 192.946524 243.600929 
L 220.796791 243.600929 
L 222.786096 196.116797 
L 224.775401 196.172682 
L 228.754011 196.618973 
L 232.73262 197.507355 
L 236.71123 198.82947 
L 240.68984 200.572875 
L 244.668449 202.721167 
L 248.647059 205.254129 
L 252.625668 208.147928 
L 256.604278 211.375333 
L 260.582888 214.905975 
L 264.561497 218.706631 
L 270.529412 224.835046 
L 276.497326 231.360385 
L 284.454545 240.438874 
L 298.379679 256.403985 
L 300.368984 258.606701 
L 302.358289 243.600929 
L 322.251337 243.600929 
L 399.834225 128.775205 
L 401.823529 243.600929 
L 421.716578 243.600929 
L 425.695187 228.745451 
L 429.673797 214.823397 
L 431.663102 208.489606 
L 433.652406 202.709542 
L 435.641711 197.574359 
L 437.631016 193.165043 
L 439.620321 189.551131 
L 441.609626 186.789616 
L 443.59893 184.92405 
L 445.588235 183.983853 
L 447.57754 183.983853 
L 449.566845 184.92405 
L 451.55615 186.789616 
L 453.545455 189.551131 
L 455.534759 193.165043 
L 457.524064 197.574359 
L 459.513369 202.709542 
L 461.502674 208.489606 
L 463.491979 214.823397 
L 467.470588 228.745451 
L 471.449198 243.600929 
L 519.192513 243.600929 
L 521.181818 110.44675 
L 570.914439 110.44675 
L 572.903743 243.600929 
L 622.636364 243.600929 
L 622.636364 243.600929 
" clip-path="url(#p6f96f3bf6c)" style="fill: none; stroke: #4c72b0; stroke-width: 3; stroke-linecap: round"/>
   </g>
   <g id="line2d_12">
    <path d="M 115.363636 243.600929 
L 155.149733 243.600929 
L 183 226.831808 
L 184.989305 226.831808 
L 212.839572 243.600929 
L 246.657754 243.600929 
L 248.647059 145.962285 
L 250.636364 148.313886 
L 252.625668 155.255413 
L 254.614973 166.452497 
L 256.604278 181.36578 
L 258.593583 199.276897 
L 260.582888 219.32308 
L 266.550802 282.383445 
L 268.540107 300.996905 
L 270.529412 316.845631 
L 272.518717 329.166198 
L 274.508021 337.365132 
L 276.497326 341.047493 
L 278.486631 340.035905 
L 280.475936 334.379096 
L 282.465241 324.34955 
L 284.454545 310.430386 
L 286.44385 293.292082 
L 288.433155 273.760182 
L 294.40107 210.512516 
L 296.390374 191.269948 
L 298.379679 174.548136 
L 300.368984 161.15256 
L 302.358289 151.728479 
L 304.347594 146.729845 
L 306.336898 146.397439 
L 308.326203 243.600929 
L 342.144385 243.600929 
L 350.101604 219.241662 
L 354.080214 207.743747 
L 358.058824 197.046823 
L 362.037433 187.389841 
L 364.026738 183.019784 
L 366.016043 178.988521 
L 368.005348 175.318597 
L 369.994652 172.030536 
L 371.983957 169.142725 
L 373.973262 166.671315 
L 375.962567 164.630126 
L 377.951872 163.030574 
L 379.941176 161.881604 
L 381.930481 161.189642 
L 383.919786 160.958557 
L 385.909091 161.189642 
L 387.898396 161.881604 
L 389.887701 163.030574 
L 391.877005 164.630126 
L 393.86631 166.671315 
L 395.855615 169.142725 
L 397.84492 172.030536 
L 399.834225 175.318597 
L 401.823529 178.988521 
L 403.812834 183.019784 
L 405.802139 187.389841 
L 407.791444 192.074253 
L 411.770053 202.279743 
L 415.748663 213.40828 
L 419.727273 225.211271 
L 425.695187 243.600929 
L 435.641711 243.600929 
L 497.31016 221.370906 
L 499.299465 243.600929 
L 527.149733 243.600929 
L 529.139037 177.88635 
L 608.71123 243.600929 
L 622.636364 243.600929 
L 622.636364 243.600929 
" clip-path="url(#p6f96f3bf6c)" style="fill: none; stroke: #dd8452; stroke-width: 3; stroke-linecap: round"/>
   </g>
   <g id="line2d_13">
    <path d="M 115.363636 243.600929 
L 169.074866 243.600929 
L 204.882353 160.57897 
L 206.871658 160.57897 
L 242.679144 243.600929 
L 260.582888 243.600929 
L 306.336898 180.527581 
L 308.326203 243.600929 
L 350.101604 243.600929 
L 352.090909 174.491338 
L 354.080214 175.012628 
L 356.069519 176.568636 
L 358.058824 179.135886 
L 360.048128 182.675649 
L 362.037433 187.134526 
L 364.026738 192.445249 
L 366.016043 198.527703 
L 368.005348 205.290127 
L 369.994652 212.630504 
L 373.973262 228.595124 
L 383.919786 270.235443 
L 385.909091 277.852408 
L 387.898396 284.952658 
L 389.887701 291.429079 
L 391.877005 297.18397 
L 393.86631 302.130511 
L 395.855615 306.194081 
L 397.84492 309.313377 
L 399.834225 311.44134 
L 401.823529 312.54587 
L 403.812834 312.610302 
L 405.802139 311.633666 
L 407.791444 309.630694 
L 409.780749 306.631603 
L 411.770053 302.681637 
L 413.759358 297.840386 
L 415.748663 292.180883 
L 417.737968 285.788507 
L 419.727273 278.759693 
L 423.705882 263.224898 
L 429.673797 238.02361 
L 433.652406 221.429234 
L 435.641711 213.571976 
L 437.631016 206.167732 
L 439.620321 199.328201 
L 441.609626 243.600929 
L 443.59893 243.600929 
L 451.55615 233.670214 
L 455.534759 228.969996 
L 459.513369 224.581612 
L 463.491979 220.598591 
L 467.470588 217.105825 
L 469.459893 215.567004 
L 471.449198 214.177756 
L 473.438503 212.945493 
L 475.427807 211.876791 
L 477.417112 210.97735 
L 479.406417 210.251971 
L 481.395722 209.704522 
L 483.385027 209.337926 
L 485.374332 209.154137 
L 487.363636 209.154137 
L 489.352941 209.337926 
L 491.342246 209.704522 
L 493.331551 210.251971 
L 495.320856 210.97735 
L 497.31016 211.876791 
L 499.299465 212.945493 
L 501.28877 214.177756 
L 503.278075 215.567004 
L 505.26738 217.105825 
L 509.245989 220.598591 
L 513.224599 224.581612 
L 517.203209 228.969996 
L 521.181818 233.670214 
L 527.149733 241.084796 
L 529.139037 243.600929 
L 533.117647 243.600929 
L 535.106952 156.167324 
L 616.668449 243.600929 
L 622.636364 243.600929 
L 622.636364 243.600929 
" clip-path="url(#p6f96f3bf6c)" style="fill: none; stroke: #55a868; stroke-width: 3; stroke-linecap: round"/>
   </g>
   <g id="line2d_14">
    <path d="M 115.363636 243.600929 
L 167.085561 243.600929 
L 169.074866 117.702596 
L 171.064171 118.665873 
L 173.053476 121.540965 
L 175.042781 126.283875 
L 177.032086 132.822024 
L 179.02139 141.055364 
L 181.010695 150.857904 
L 183 162.07964 
L 184.989305 174.548854 
L 186.97861 188.074733 
L 190.957219 217.455575 
L 200.903743 293.752602 
L 202.893048 307.626536 
L 204.882353 320.52072 
L 206.871658 332.237842 
L 208.860963 342.598601 
L 210.850267 351.444451 
L 212.839572 358.64003 
L 214.828877 364.075227 
L 216.818182 367.666871 
L 218.807487 369.36 
L 220.796791 369.128705 
L 222.786096 366.976526 
L 224.775401 362.936397 
L 226.764706 357.07014 
L 228.754011 349.467526 
L 230.743316 340.244891 
L 232.73262 329.543365 
L 234.721925 317.526709 
L 236.71123 304.378806 
L 240.68984 275.508273 
L 242.679144 260.227434 
L 244.668449 243.600929 
L 258.593583 243.600929 
L 260.582888 228.734094 
L 338.165775 243.600929 
L 352.090909 243.600929 
L 375.962567 127.223138 
L 377.951872 127.223138 
L 401.823529 243.600929 
L 443.59893 243.600929 
L 511.235294 225.528901 
L 513.224599 243.600929 
L 533.117647 243.600929 
L 535.106952 198.961629 
L 608.71123 198.961629 
L 610.700535 243.600929 
L 622.636364 243.600929 
L 622.636364 243.600929 
" clip-path="url(#p6f96f3bf6c)" style="fill: none; stroke: #c44e52; stroke-width: 3; stroke-linecap: round"/>
   </g>
   <g id="line2d_15">
    <path d="M 115.363636 243.600929 
L 121.331551 243.600929 
L 123.320856 112.425802 
L 125.31016 112.481451 
L 129.28877 112.92636 
L 133.26738 113.81467 
L 137.245989 115.143365 
L 141.224599 116.907937 
L 145.203209 119.102398 
L 149.181818 121.719304 
L 153.160428 124.749773 
L 157.139037 128.183523 
L 161.117647 132.008903 
L 165.096257 136.212933 
L 169.074866 140.781348 
L 173.053476 145.698646 
L 177.032086 150.948142 
L 181.010695 156.512024 
L 184.989305 162.371412 
L 190.957219 171.670821 
L 196.925134 181.519194 
L 202.893048 191.841369 
L 208.860963 202.558569 
L 216.818182 217.320924 
L 218.807487 221.075146 
L 220.796791 243.600929 
L 222.786096 243.600929 
L 250.636364 192.580543 
L 252.625668 192.580543 
L 280.475936 243.600929 
L 320.262032 243.600929 
L 322.251337 140.601586 
L 379.941176 140.601586 
L 381.930481 243.600929 
L 421.716578 243.600929 
L 503.278075 141.862837 
L 505.26738 243.600929 
L 519.192513 243.600929 
L 521.181818 197.268259 
L 610.700535 243.600929 
L 622.636364 243.600929 
L 622.636364 243.600929 
" clip-path="url(#p6f96f3bf6c)" style="fill: none; stroke: #8172b3; stroke-width: 3; stroke-linecap: round"/>
   </g>
   <g id="line2d_16">
    <path d="M 115.363636 243.600929 
L 137.245989 243.600929 
L 139.235294 93.996397 
L 208.860963 243.600929 
L 234.721925 243.600929 
L 236.71123 210.137268 
L 304.347594 210.137268 
L 306.336898 243.600929 
L 334.187166 243.600929 
L 342.144385 208.01519 
L 346.122995 191.129712 
L 350.101604 175.312397 
L 354.080214 160.885239 
L 356.069519 154.286022 
L 358.058824 148.141934 
L 360.048128 142.484283 
L 362.037433 137.341899 
L 364.026738 132.740987 
L 366.016043 128.704991 
L 368.005348 125.254479 
L 369.994652 122.407034 
L 371.983957 120.177164 
L 373.973262 118.576234 
L 375.962567 117.612401 
L 377.951872 117.290577 
L 379.941176 117.612401 
L 381.930481 118.576234 
L 383.919786 120.177164 
L 385.909091 122.407034 
L 387.898396 125.254479 
L 389.887701 128.704991 
L 391.877005 132.740987 
L 393.86631 137.341899 
L 395.855615 142.484283 
L 397.84492 148.141934 
L 399.834225 154.286022 
L 401.823529 160.885239 
L 405.802139 175.312397 
L 409.780749 191.129712 
L 413.759358 208.01519 
L 419.727273 234.590051 
L 421.716578 243.600929 
L 429.673797 243.600929 
L 431.663102 229.795103 
L 435.641711 229.985584 
L 439.620321 230.551769 
L 443.59893 231.478037 
L 447.57754 232.738826 
L 451.55615 234.299347 
L 455.534759 236.116538 
L 459.513369 238.140254 
L 465.481283 241.439728 
L 479.406417 249.291903 
L 483.385027 251.29561 
L 487.363636 253.086989 
L 491.342246 254.616607 
L 495.320856 255.842255 
L 499.299465 256.730114 
L 503.278075 257.255683 
L 507.256684 257.404459 
L 511.235294 257.172337 
L 513.224599 256.915033 
L 515.213904 243.600929 
L 529.139037 243.600929 
L 560.967914 179.183706 
L 562.957219 179.183706 
L 594.786096 243.600929 
L 622.636364 243.600929 
L 622.636364 243.600929 
" clip-path="url(#p6f96f3bf6c)" style="fill: none; stroke: #937860; stroke-width: 3; stroke-linecap: round"/>
   </g>
   <g id="line2d_17">
    <path d="M 115.363636 243.600929 
L 121.331551 243.600929 
L 123.320856 162.98812 
L 200.903743 162.98812 
L 202.893048 243.600929 
L 220.796791 243.600929 
L 222.786096 143.179367 
L 226.764706 143.328853 
L 230.743316 143.776868 
L 234.721925 144.522076 
L 238.700535 145.562261 
L 242.679144 146.894323 
L 246.657754 148.514299 
L 250.636364 150.417365 
L 254.614973 152.597855 
L 258.593583 155.049278 
L 262.572193 157.764334 
L 266.550802 160.734942 
L 270.529412 163.952257 
L 274.508021 167.4067 
L 278.486631 171.087986 
L 282.465241 174.985157 
L 288.433155 181.210148 
L 294.40107 187.852944 
L 300.368984 194.86906 
L 302.358289 197.282671 
L 304.347594 243.600929 
L 320.262032 243.600929 
L 322.251337 152.49345 
L 407.791444 243.600929 
L 421.716578 243.600929 
L 465.481283 174.320348 
L 467.470588 174.320348 
L 511.235294 243.600929 
L 521.181818 243.600929 
L 529.139037 217.845815 
L 533.117647 205.624982 
L 537.096257 194.177229 
L 541.074866 183.735599 
L 543.064171 178.959428 
L 545.053476 174.512656 
L 547.042781 170.417941 
L 549.032086 166.69615 
L 551.02139 163.366248 
L 553.010695 160.445204 
L 555 157.947902 
L 556.989305 155.887069 
L 558.97861 154.273205 
L 560.967914 153.114535 
L 562.957219 152.416962 
L 564.946524 152.184042 
L 566.935829 152.416962 
L 568.925134 153.114535 
L 570.914439 154.273205 
L 572.903743 155.887069 
L 574.893048 157.947902 
L 576.882353 160.445204 
L 578.871658 163.366248 
L 580.860963 166.69615 
L 582.850267 170.417941 
L 584.839572 174.512656 
L 586.828877 178.959428 
L 588.818182 183.735599 
L 592.796791 194.177229 
L 596.775401 205.624982 
L 600.754011 217.845815 
L 606.721925 237.079323 
L 608.71123 243.600929 
L 622.636364 243.600929 
L 622.636364 243.600929 
" clip-path="url(#p6f96f3bf6c)" style="fill: none; stroke: #da8bc3; stroke-width: 3; stroke-linecap: round"/>
   </g>
   <g id="line2d_18">
    <path d="M 115.363636 243.600929 
L 137.245989 243.600929 
L 139.235294 118.000893 
L 204.882353 243.600929 
L 236.71123 243.600929 
L 292.411765 189.576185 
L 294.40107 243.600929 
L 334.187166 243.600929 
L 338.165775 224.286586 
L 342.144385 206.288484 
L 344.13369 198.172175 
L 346.122995 190.833164 
L 348.112299 184.397024 
L 350.101604 178.973879 
L 352.090909 174.656521 
L 354.080214 171.518821 
L 356.069519 169.614466 
L 358.058824 168.97604 
L 360.048128 169.614466 
L 362.037433 171.518821 
L 364.026738 174.656521 
L 366.016043 178.973879 
L 368.005348 184.397024 
L 369.994652 190.833164 
L 371.983957 198.172175 
L 373.973262 206.288484 
L 377.951872 224.286586 
L 381.930481 243.600929 
L 429.673797 243.600929 
L 431.663102 184.545004 
L 433.652406 184.973701 
L 435.641711 186.253568 
L 437.631016 188.366024 
L 439.620321 191.280399 
L 441.609626 194.954381 
L 443.59893 199.33463 
L 445.588235 204.357553 
L 447.57754 209.950224 
L 449.566845 216.031448 
L 453.545455 229.300584 
L 463.491979 264.307782 
L 465.481283 270.809379 
L 467.470588 276.915954 
L 469.459893 282.538851 
L 471.449198 287.596433 
L 473.438503 292.015274 
L 475.427807 295.731219 
L 477.417112 298.690318 
L 479.406417 300.849611 
L 481.395722 302.177748 
L 483.385027 302.655447 
L 485.374332 302.275772 
L 487.363636 301.044236 
L 489.352941 298.978718 
L 491.342246 296.109206 
L 493.331551 292.477362 
L 495.320856 288.135913 
L 497.31016 283.147889 
L 499.299465 277.58571 
L 501.28877 271.530127 
L 505.26738 258.29631 
L 515.213904 223.276202 
L 517.203209 243.600929 
L 527.149733 243.600929 
L 529.139037 88.865225 
L 586.828877 88.865225 
L 588.818182 243.600929 
L 622.636364 243.600929 
L 622.636364 243.600929 
" clip-path="url(#p6f96f3bf6c)" style="fill: none; stroke: #8c8c8c; stroke-width: 3; stroke-linecap: round"/>
   </g>
   <g id="line2d_19">
    <path d="M 115.363636 243.600929 
L 157.139037 243.600929 
L 163.106952 229.217246 
L 167.085561 220.142351 
L 171.064171 211.821434 
L 173.053476 208.028481 
L 175.042781 204.521936 
L 177.032086 201.330032 
L 179.02139 198.478469 
L 181.010695 195.990205 
L 183 193.885275 
L 184.989305 192.180626 
L 186.97861 190.889983 
L 188.967914 190.023738 
L 190.957219 189.588865 
L 192.946524 189.588865 
L 194.935829 190.023738 
L 196.925134 190.889983 
L 198.914439 192.180626 
L 200.903743 193.885275 
L 202.893048 195.990205 
L 204.882353 198.478469 
L 206.871658 201.330032 
L 208.860963 204.521936 
L 210.850267 208.028481 
L 212.839572 211.821434 
L 216.818182 220.142351 
L 220.796791 229.217246 
L 226.764706 243.600929 
L 248.647059 243.600929 
L 250.636364 144.825005 
L 320.262032 243.600929 
L 344.13369 243.600929 
L 401.823529 202.401297 
L 403.812834 243.600929 
L 437.631016 243.600929 
L 479.406417 276.678061 
L 481.395722 276.678061 
L 523.171123 243.600929 
L 529.139037 243.600929 
L 531.128342 144.9803 
L 608.71123 144.9803 
L 610.700535 243.600929 
L 622.636364 243.600929 
L 622.636364 243.600929 
" clip-path="url(#p6f96f3bf6c)" style="fill: none; stroke: #ccb974; stroke-width: 3; stroke-linecap: round"/>
   </g>
   <g id="line2d_20">
    <path d="M 115.363636 243.600929 
L 137.245989 243.600929 
L 184.989305 121.30623 
L 186.97861 243.600929 
L 232.73262 243.600929 
L 234.721925 186.590712 
L 288.433155 243.600929 
L 330.208556 243.600929 
L 332.197861 190.081647 
L 334.187166 190.41163 
L 336.176471 191.397512 
L 338.165775 193.027135 
L 340.15508 195.280403 
L 342.144385 198.129531 
L 344.13369 201.539384 
L 346.122995 205.467915 
L 348.112299 209.866679 
L 350.101604 214.681433 
L 354.080214 225.317024 
L 358.058824 236.851699 
L 366.016043 260.333179 
L 369.994652 271.125317 
L 371.983957 276.044689 
L 373.973262 280.563984 
L 375.962567 284.627473 
L 377.951872 288.185048 
L 379.941176 291.192838 
L 381.930481 293.613754 
L 383.919786 295.417942 
L 385.909091 296.583154 
L 387.898396 297.095021 
L 389.887701 296.947231 
L 391.877005 296.141608 
L 393.86631 243.600929 
L 427.684492 243.600929 
L 429.673797 173.096063 
L 521.181818 173.096063 
L 523.171123 243.600929 
L 527.149733 243.600929 
L 533.117647 223.925001 
L 537.096257 211.511145 
L 541.074866 200.128681 
L 543.064171 194.940171 
L 545.053476 190.14345 
L 547.042781 185.777137 
L 549.032086 181.876387 
L 551.02139 178.472606 
L 553.010695 175.593201 
L 555 173.261354 
L 556.989305 171.495839 
L 558.97861 170.310873 
L 560.967914 169.715995 
L 562.957219 169.715995 
L 564.946524 170.310873 
L 566.935829 171.495839 
L 568.925134 173.261354 
L 570.914439 175.593201 
L 572.903743 178.472606 
L 574.893048 181.876387 
L 576.882353 185.777137 
L 578.871658 190.14345 
L 580.860963 194.940171 
L 582.850267 200.128681 
L 586.828877 211.511145 
L 590.807487 223.925001 
L 596.775401 243.600929 
L 622.636364 243.600929 
L 622.636364 243.600929 
" clip-path="url(#p6f96f3bf6c)" style="fill: none; stroke: #64b5cd; stroke-width: 3; stroke-linecap: round"/>
   </g>
   <g id="line2d_21">
    <path d="M 115.363636 243.600929 
L 163.106952 243.600929 
L 165.096257 68.059463 
L 240.68984 68.059463 
L 242.679144 243.600929 
L 254.614973 243.600929 
L 256.604278 195.44151 
L 308.326203 243.600929 
L 348.112299 243.600929 
L 425.695187 66.96 
L 427.684492 243.600929 
L 439.620321 243.600929 
L 479.406417 260.537676 
L 481.395722 260.537676 
L 521.181818 243.600929 
L 529.139037 243.600929 
L 531.128342 123.796281 
L 533.117647 125.525675 
L 535.106952 130.66393 
L 537.096257 139.062702 
L 539.085561 150.479518 
L 541.074866 164.584771 
L 543.064171 180.971239 
L 545.053476 199.165841 
L 549.032086 238.84128 
L 553.010695 279.062402 
L 555 297.924343 
L 556.989305 315.217955 
L 558.97861 330.443966 
L 560.967914 343.162799 
L 562.957219 353.007257 
L 564.946524 359.693128 
L 566.935829 363.02739 
L 568.925134 362.913782 
L 570.914439 359.355583 
L 572.903743 352.455521 
L 574.893048 342.4128 
L 576.882353 329.517358 
L 578.871658 314.141488 
L 580.860963 296.729095 
L 584.839572 257.849824 
L 588.818182 217.336952 
L 590.807487 243.600929 
L 622.636364 243.600929 
L 622.636364 243.600929 
" clip-path="url(#p6f96f3bf6c)" style="fill: none; stroke: #4c72b0; stroke-width: 3; stroke-linecap: round"/>
   </g>
   <g id="line2d_22">
    <path d="M 115.363636 243.600929 
L 117.352941 155.569539 
L 210.850267 155.569539 
L 212.839572 243.600929 
L 218.807487 243.600929 
L 268.540107 93.579496 
L 270.529412 243.600929 
L 318.272727 243.600929 
L 320.262032 161.525871 
L 322.251337 162.298023 
L 324.240642 164.599953 
L 326.229947 168.388346 
L 328.219251 173.591923 
L 330.208556 180.112772 
L 332.197861 187.8282 
L 334.187166 196.593035 
L 336.176471 206.24236 
L 340.15508 227.455014 
L 348.112299 271.829127 
L 350.101604 282.110136 
L 352.090909 291.666564 
L 354.080214 300.3186 
L 356.069519 307.903449 
L 358.058824 314.278398 
L 360.048128 319.323495 
L 362.037433 322.943813 
L 364.026738 325.071235 
L 366.016043 325.66573 
L 368.005348 324.716112 
L 369.994652 322.24025 
L 371.983957 318.284728 
L 373.973262 312.923974 
L 375.962567 306.258852 
L 377.951872 298.414774 
L 379.941176 289.539331 
L 381.930481 279.799522 
L 385.909091 258.472667 
L 391.877005 224.919086 
L 393.86631 243.600929 
L 421.716578 243.600929 
L 429.673797 233.793463 
L 435.641711 226.809672 
L 439.620321 222.469781 
L 443.59893 218.46314 
L 447.57754 214.852938 
L 451.55615 211.696108 
L 455.534759 209.042437 
L 457.524064 207.917692 
L 459.513369 206.933773 
L 461.502674 206.094563 
L 463.491979 205.403373 
L 465.481283 204.862931 
L 467.470588 204.475371 
L 469.459893 204.242221 
L 471.449198 204.164402 
L 473.438503 204.242221 
L 475.427807 204.475371 
L 477.417112 204.862931 
L 479.406417 205.403373 
L 481.395722 206.094563 
L 483.385027 206.933773 
L 485.374332 207.917692 
L 487.363636 209.042437 
L 491.342246 211.696108 
L 495.320856 214.852938 
L 499.299465 218.46314 
L 503.278075 222.469781 
L 507.256684 226.809672 
L 513.224599 233.793463 
L 521.181818 243.600929 
L 523.171123 243.600929 
L 564.946524 174.052362 
L 566.935829 174.052362 
L 608.71123 243.600929 
L 622.636364 243.600929 
L 622.636364 243.600929 
" clip-path="url(#p6f96f3bf6c)" style="fill: none; stroke: #dd8452; stroke-width: 3; stroke-linecap: round"/>
   </g>
   <g id="line2d_23">
    <path d="M 115.363636 243.600929 
L 159.128342 243.600929 
L 161.117647 120.811998 
L 242.679144 243.600929 
L 252.625668 243.600929 
L 258.593583 216.384667 
L 262.572193 199.111292 
L 266.550802 183.117804 
L 268.540107 175.746608 
L 270.529412 168.864305 
L 272.518717 162.52048 
L 274.508021 156.760842 
L 276.497326 151.626889 
L 278.486631 147.155611 
L 280.475936 143.379224 
L 282.465241 140.324936 
L 284.454545 138.014754 
L 286.44385 136.465323 
L 288.433155 135.687807 
L 290.42246 135.687807 
L 292.411765 136.465323 
L 294.40107 138.014754 
L 296.390374 140.324936 
L 298.379679 143.379224 
L 300.368984 147.155611 
L 302.358289 151.626889 
L 304.347594 156.760842 
L 306.336898 162.52048 
L 308.326203 168.864305 
L 310.315508 175.746608 
L 312.304813 183.117804 
L 316.283422 199.111292 
L 320.262032 216.384667 
L 326.229947 243.600929 
L 342.144385 243.600929 
L 344.13369 224.218487 
L 346.122995 224.349685 
L 348.112299 224.741504 
L 350.101604 225.388639 
L 352.090909 226.282329 
L 354.080214 227.410477 
L 356.069519 228.757808 
L 358.058824 230.306083 
L 360.048128 232.034342 
L 364.026738 235.935103 
L 368.005348 240.249575 
L 377.951872 251.296899 
L 381.930481 255.193845 
L 383.919786 256.919647 
L 385.909091 258.465142 
L 387.898396 259.809408 
L 389.887701 260.934246 
L 391.877005 261.824427 
L 393.86631 262.467902 
L 395.855615 262.855958 
L 397.84492 262.983343 
L 399.834225 262.848331 
L 401.823529 262.45275 
L 403.812834 261.801956 
L 405.802139 260.90476 
L 407.791444 259.773307 
L 409.780749 258.422914 
L 411.770053 256.871863 
L 413.759358 255.141153 
L 417.737968 251.236587 
L 421.716578 246.919939 
L 423.705882 244.679354 
L 425.695187 243.600929 
L 435.641711 243.600929 
L 503.278075 133.056562 
L 505.26738 243.600929 
L 525.160428 243.600929 
L 527.149733 190.934011 
L 590.807487 190.934011 
L 592.796791 243.600929 
L 622.636364 243.600929 
L 622.636364 243.600929 
" clip-path="url(#p6f96f3bf6c)" style="fill: none; stroke: #55a868; stroke-width: 3; stroke-linecap: round"/>
   </g>
   <g id="line2d_24">
    <path d="M 115.363636 243.600929 
L 141.224599 243.600929 
L 173.053476 195.755507 
L 175.042781 195.755507 
L 206.871658 243.600929 
L 236.71123 243.600929 
L 300.368984 146.512697 
L 302.358289 243.600929 
L 330.208556 243.600929 
L 332.197861 161.214752 
L 334.187166 164.61371 
L 336.176471 174.530124 
L 338.165775 190.145766 
L 340.15508 210.172142 
L 346.122995 279.208511 
L 348.112299 298.859162 
L 350.101604 313.950302 
L 352.090909 323.236716 
L 354.080214 325.952159 
L 356.069519 321.872569 
L 358.058824 311.334567 
L 360.048128 295.207672 
L 362.037433 274.822559 
L 368.005348 205.844758 
L 369.994652 186.586503 
L 371.983957 172.032668 
L 373.973262 163.384131 
L 375.962567 161.354508 
L 377.951872 166.111268 
L 379.941176 243.600929 
L 425.695187 243.600929 
L 427.684492 184.028883 
L 499.299465 243.600929 
L 521.181818 243.600929 
L 523.171123 244.294194 
L 606.721925 244.294194 
L 608.71123 243.600929 
L 622.636364 243.600929 
L 622.636364 243.600929 
" clip-path="url(#p6f96f3bf6c)" style="fill: none; stroke: #c44e52; stroke-width: 3; stroke-linecap: round"/>
   </g>
   <g id="line2d_25">
    <path d="M 115.363636 243.600929 
L 165.096257 243.600929 
L 248.647059 202.287822 
L 250.636364 243.600929 
L 256.604278 243.600929 
L 262.572193 219.259637 
L 266.550802 204.298747 
L 268.540107 197.466725 
L 270.529412 191.175583 
L 272.518717 185.499082 
L 274.508021 180.503771 
L 276.497326 176.248216 
L 278.486631 172.782311 
L 280.475936 170.146689 
L 282.465241 168.372251 
L 284.454545 167.4798 
L 286.44385 167.4798 
L 288.433155 168.372251 
L 290.42246 170.146689 
L 292.411765 172.782311 
L 294.40107 176.248216 
L 296.390374 180.503771 
L 298.379679 185.499082 
L 300.368984 191.175583 
L 302.358289 197.466725 
L 304.347594 204.298747 
L 308.326203 219.259637 
L 312.304813 235.358699 
L 314.294118 243.600929 
L 346.122995 243.600929 
L 348.112299 185.171809 
L 350.101604 185.815438 
L 352.090909 187.732142 
L 354.080214 190.879697 
L 356.069519 195.188757 
L 358.058824 200.564389 
L 360.048128 206.888163 
L 362.037433 214.020758 
L 364.026738 221.805037 
L 368.005348 238.63208 
L 373.973262 264.214206 
L 375.962567 272.079692 
L 377.951872 279.31776 
L 379.941176 285.768947 
L 381.930481 291.291128 
L 383.919786 295.762642 
L 385.909091 299.084978 
L 387.898396 301.18494 
L 389.887701 302.016264 
L 391.877005 301.560635 
L 393.86631 299.828092 
L 395.855615 296.856804 
L 397.84492 292.712231 
L 399.834225 287.485683 
L 401.823529 281.292307 
L 403.812834 274.268549 
L 405.802139 266.569151 
L 409.780749 249.833084 
L 415.748663 224.179991 
L 417.737968 216.237009 
L 419.727273 208.896884 
L 421.716578 202.321326 
L 423.705882 196.655202 
L 425.695187 192.023343 
L 427.684492 188.527794 
L 429.673797 186.245566 
L 431.663102 185.226938 
L 433.652406 243.600929 
L 437.631016 243.600929 
L 439.620321 178.174465 
L 501.28877 178.174465 
L 503.278075 243.600929 
L 529.139037 243.600929 
L 531.128342 257.129306 
L 610.700535 243.600929 
L 622.636364 243.600929 
L 622.636364 243.600929 
" clip-path="url(#p6f96f3bf6c)" style="fill: none; stroke: #8172b3; stroke-width: 3; stroke-linecap: round"/>
   </g>
   <g id="line2d_26">
    <path d="M 115.363636 243.600929 
L 141.224599 243.600929 
L 143.213904 102.188005 
L 194.935829 102.188005 
L 196.925134 243.600929 
L 236.71123 243.600929 
L 238.700535 176.447463 
L 310.315508 243.600929 
L 334.187166 243.600929 
L 340.15508 202.918095 
L 344.13369 178.066734 
L 346.122995 166.801232 
L 348.112299 156.501531 
L 350.101604 147.297155 
L 352.090909 139.303855 
L 354.080214 132.622151 
L 356.069519 127.33607 
L 358.058824 123.512087 
L 360.048128 121.198291 
L 362.037433 120.423779 
L 364.026738 121.198291 
L 366.016043 123.512087 
L 368.005348 127.33607 
L 369.994652 132.622151 
L 371.983957 139.303855 
L 373.973262 147.297155 
L 375.962567 156.501531 
L 377.951872 166.801232 
L 379.941176 178.066734 
L 383.919786 202.918095 
L 387.898396 229.809463 
L 389.887701 243.600929 
L 429.673797 243.600929 
L 501.28877 208.879344 
L 503.278075 243.600929 
L 523.171123 243.600929 
L 525.160428 158.039127 
L 527.149733 159.086784 
L 529.139037 162.204096 
L 531.128342 167.314726 
L 533.117647 174.293519 
L 535.106952 182.969573 
L 537.096257 193.130421 
L 539.085561 204.527234 
L 543.064171 229.888946 
L 549.032086 269.620454 
L 551.02139 282.018119 
L 553.010695 293.474991 
L 555 303.710503 
L 556.989305 312.473999 
L 558.97861 319.550871 
L 560.967914 324.767814 
L 562.957219 327.997071 
L 564.946524 329.159561 
L 566.935829 328.226817 
L 568.925134 325.221679 
L 570.914439 320.217741 
L 572.903743 313.337544 
L 574.893048 304.749575 
L 576.882353 294.664144 
L 578.871658 283.328232 
L 580.860963 243.600929 
L 622.636364 243.600929 
L 622.636364 243.600929 
" clip-path="url(#p6f96f3bf6c)" style="fill: none; stroke: #937860; stroke-width: 3; stroke-linecap: round"/>
   </g>
   <g id="line2d_27">
    <path d="M 115.363636 243.600929 
L 151.171123 243.600929 
L 188.967914 172.951523 
L 190.957219 172.951523 
L 228.754011 243.600929 
L 242.679144 243.600929 
L 244.668449 110.160845 
L 304.347594 243.600929 
L 338.165775 243.600929 
L 342.144385 206.190427 
L 346.122995 170.954087 
L 348.112299 154.79944 
L 350.101604 139.939718 
L 352.090909 126.591611 
L 354.080214 114.949762 
L 356.069519 105.183937 
L 358.058824 97.436544 
L 360.048128 91.820556 
L 362.037433 88.417869 
L 364.026738 87.278099 
L 366.016043 88.417869 
L 368.005348 91.820556 
L 369.994652 97.436544 
L 371.983957 105.183937 
L 373.973262 114.949762 
L 375.962567 126.591611 
L 377.951872 139.939718 
L 379.941176 154.79944 
L 381.930481 170.954087 
L 385.909091 206.190427 
L 389.887701 243.600929 
L 429.673797 243.600929 
L 431.663102 166.074649 
L 433.652406 166.149202 
L 435.641711 166.37272 
L 437.631016 166.744771 
L 439.620321 167.264641 
L 441.609626 167.93133 
L 443.59893 168.743555 
L 445.588235 169.699754 
L 447.57754 170.798088 
L 449.566845 172.036444 
L 453.545455 174.923434 
L 457.524064 178.338523 
L 461.502674 182.25545 
L 465.481283 186.644097 
L 469.459893 191.470716 
L 473.438503 196.698193 
L 477.417112 202.286331 
L 481.395722 208.19216 
L 487.363636 217.54665 
L 493.331551 227.351556 
L 503.278075 244.231323 
L 513.224599 261.080896 
L 517.203209 267.630549 
L 519.192513 243.600929 
L 525.160428 243.600929 
L 602.743316 144.649039 
L 604.73262 243.600929 
L 622.636364 243.600929 
L 622.636364 243.600929 
" clip-path="url(#p6f96f3bf6c)" style="fill: none; stroke: #da8bc3; stroke-width: 3; stroke-linecap: round"/>
   </g>
   <g id="line2d_28">
    <path d="M 115.363636 243.600929 
L 133.26738 243.600929 
L 157.139037 147.197326 
L 159.128342 147.197326 
L 183 243.600929 
L 230.743316 243.600929 
L 236.71123 224.881639 
L 240.68984 213.001047 
L 244.668449 202.000758 
L 246.657754 196.930865 
L 248.647059 192.197231 
L 250.636364 187.833961 
L 252.625668 183.872494 
L 254.614973 180.341371 
L 256.604278 177.266035 
L 258.593583 174.668644 
L 260.582888 172.567911 
L 262.572193 170.978972 
L 264.561497 169.913277 
L 266.550802 169.378503 
L 268.540107 169.378503 
L 270.529412 169.913277 
L 272.518717 170.978972 
L 274.508021 172.567911 
L 276.497326 174.668644 
L 278.486631 177.266035 
L 280.475936 180.341371 
L 282.465241 183.872494 
L 284.454545 187.833961 
L 286.44385 192.197231 
L 288.433155 196.930865 
L 292.411765 207.370382 
L 296.390374 218.852185 
L 300.368984 231.045965 
L 304.347594 243.600929 
L 326.229947 243.600929 
L 328.219251 223.453905 
L 364.026738 223.571146 
L 399.834225 223.921504 
L 407.791444 224.030662 
L 409.780749 243.600929 
L 431.663102 243.505908 
L 499.299465 242.429004 
L 501.28877 243.600929 
L 521.181818 243.600929 
L 523.171123 152.359917 
L 586.828877 152.359917 
L 588.818182 243.600929 
L 622.636364 243.600929 
L 622.636364 243.600929 
" clip-path="url(#p6f96f3bf6c)" style="fill: none; stroke: #8c8c8c; stroke-width: 3; stroke-linecap: round"/>
   </g>
   <g id="line2d_29">
    <path d="M 115.363636 243.600929 
L 119.342246 243.600929 
L 163.106952 193.282551 
L 165.096257 193.282551 
L 208.860963 243.600929 
L 218.807487 243.600929 
L 220.796791 136.744535 
L 224.775401 136.923028 
L 228.754011 137.457912 
L 232.73262 138.3474 
L 236.71123 139.58852 
L 240.68984 141.177126 
L 244.668449 143.107909 
L 248.647059 145.374422 
L 252.625668 147.96909 
L 256.604278 150.883246 
L 260.582888 154.107154 
L 264.561497 157.630044 
L 268.540107 161.440146 
L 272.518717 165.524732 
L 274.508021 243.600929 
L 320.262032 243.600929 
L 322.251337 199.911079 
L 383.919786 199.911079 
L 385.909091 243.600929 
L 423.705882 243.600929 
L 517.203209 191.501293 
L 519.192513 243.600929 
L 523.171123 243.600929 
L 525.160428 164.424509 
L 618.657754 243.600929 
L 622.636364 243.600929 
L 622.636364 243.600929 
" clip-path="url(#p6f96f3bf6c)" style="fill: none; stroke: #ccb974; stroke-width: 3; stroke-linecap: round"/>
   </g>
   <g id="line2d_30">
    <path d="M 115.363636 243.600929 
L 147.192513 243.600929 
L 153.160428 225.450435 
L 157.139037 213.90072 
L 161.117647 203.161149 
L 163.106952 198.187801 
L 165.096257 193.52467 
L 167.085561 189.203611 
L 169.074866 185.254141 
L 171.064171 181.703238 
L 173.053476 178.57516 
L 175.042781 175.891273 
L 177.032086 173.669912 
L 179.02139 171.926251 
L 181.010695 170.672201 
L 183 169.916327 
L 184.989305 169.663794 
L 186.97861 169.916327 
L 188.967914 170.672201 
L 190.957219 171.926251 
L 192.946524 173.669912 
L 194.935829 175.891273 
L 196.925134 178.57516 
L 198.914439 181.703238 
L 200.903743 185.254141 
L 202.893048 189.203611 
L 204.882353 193.52467 
L 206.871658 198.187801 
L 210.850267 208.410742 
L 214.828877 219.59358 
L 220.796791 237.495248 
L 222.786096 243.600929 
L 242.679144 243.600929 
L 318.272727 202.428041 
L 320.262032 243.600929 
L 336.176471 243.600929 
L 338.165775 176.76196 
L 342.144385 176.918106 
L 346.122995 177.385811 
L 350.101604 178.162892 
L 354.080214 179.245718 
L 358.058824 180.629229 
L 362.037433 182.306961 
L 366.016043 184.271075 
L 369.994652 186.512395 
L 373.973262 189.020448 
L 377.951872 191.783517 
L 381.930481 194.788691 
L 385.909091 198.021929 
L 389.887701 201.468124 
L 395.855615 207.001238 
L 401.823529 212.918922 
L 407.791444 219.158998 
L 415.748663 227.866868 
L 425.695187 239.145122 
L 427.684492 243.600929 
L 437.631016 243.517278 
L 463.491979 243.015376 
L 495.320856 243.600929 
L 527.149733 243.600929 
L 529.139037 161.779751 
L 588.818182 243.600929 
L 622.636364 243.600929 
L 622.636364 243.600929 
" clip-path="url(#p6f96f3bf6c)" style="fill: none; stroke: #64b5cd; stroke-width: 3; stroke-linecap: round"/>
   </g>
   <g id="patch_3">
    <path d="M 90 384.48 
L 90 51.84 
" style="fill: none; stroke: #ffffff; stroke-width: 1.25; stroke-linejoin: miter; stroke-linecap: square"/>
   </g>
   <g id="patch_4">
    <path d="M 648 384.48 
L 648 51.84 
" style="fill: none; stroke: #ffffff; stroke-width: 1.25; stroke-linejoin: miter; stroke-linecap: square"/>
   </g>
   <g id="patch_5">
    <path d="M 90 384.48 
L 648 384.48 
" style="fill: none; stroke: #ffffff; stroke-width: 1.25; stroke-linejoin: miter; stroke-linecap: square"/>
   </g>
   <g id="patch_6">
    <path d="M 90 51.84 
L 648 51.84 
" style="fill: none; stroke: #ffffff; stroke-width: 1.25; stroke-linejoin: miter; stroke-linecap: square"/>
   </g>
   <g id="text_13">
    <!-- Illustration of Stochasticity in Signal Generation -->
    <g style="fill: #262626" transform="translate(78.383939 45.84) scale(0.3 -0.3)">
     <defs>
      <path id="CMR17-49" d="M 1261 3898 
C 1261 4185 1338 4185 1798 4185 
L 1798 4352 
C 1594 4339 1267 4339 1050 4339 
C 832 4339 506 4339 301 4352 
L 301 4185 
C 762 4185 838 4185 838 3898 
L 838 453 
C 838 166 762 166 301 166 
L 301 0 
C 506 12 832 12 1050 12 
C 1267 12 1594 12 1798 0 
L 1798 166 
C 1338 166 1261 166 1261 453 
L 1261 3898 
z
" transform="scale(0.015625)"/>
      <path id="CMR17-73" d="M 1978 2688 
C 1978 2803 1971 2809 1933 2809 
C 1907 2809 1901 2803 1824 2707 
C 1805 2681 1747 2617 1728 2592 
C 1523 2809 1235 2816 1126 2816 
C 416 2816 160 2444 160 2073 
C 160 1497 813 1363 998 1324 
C 1402 1241 1542 1216 1677 1100 
C 1760 1024 1901 883 1901 652 
C 1901 384 1747 38 1158 38 
C 602 38 403 460 288 1024 
C 269 1113 269 1120 218 1120 
C 166 1120 160 1113 160 985 
L 160 64 
C 160 -52 166 -58 205 -58 
C 237 -58 243 -52 275 0 
C 314 57 410 211 448 275 
C 576 102 800 -64 1158 -64 
C 1792 -64 2131 281 2131 780 
C 2131 1107 1958 1280 1875 1356 
C 1683 1555 1459 1600 1190 1651 
C 838 1728 390 1817 390 2208 
C 390 2374 480 2726 1126 2726 
C 1811 2726 1850 2086 1862 1881 
C 1869 1849 1901 1843 1920 1843 
C 1978 1843 1978 1862 1978 1971 
L 1978 2688 
z
" transform="scale(0.015625)"/>
      <path id="CMR17-72" d="M 960 1517 
C 960 2134 1222 2713 1702 2713 
C 1747 2713 1792 2707 1837 2687 
C 1837 2687 1696 2642 1696 2475 
C 1696 2321 1818 2257 1914 2257 
C 1990 2257 2131 2302 2131 2482 
C 2131 2687 1926 2816 1709 2816 
C 1222 2816 1011 2340 947 2115 
L 941 2115 
L 941 2816 
L 198 2745 
L 198 2578 
C 576 2578 634 2540 634 2231 
L 634 443 
C 634 198 608 166 198 166 
L 198 0 
C 352 12 646 12 813 12 
C 998 12 1325 12 1498 0 
L 1498 166 
C 1037 166 960 166 960 455 
L 960 1517 
z
" transform="scale(0.015625)"/>
      <path id="CMR17-61" d="M 2304 1656 
C 2304 2048 2304 2275 2035 2534 
C 1798 2751 1523 2816 1306 2816 
C 800 2816 435 2408 435 1977 
C 435 1740 627 1728 666 1728 
C 749 1728 896 1779 896 1958 
C 896 2118 774 2188 666 2188 
C 640 2188 608 2182 589 2176 
C 723 2594 1069 2713 1293 2713 
C 1613 2713 1965 2421 1965 1875 
L 1965 1632 
C 1587 1619 1133 1568 774 1373 
C 371 1147 256 822 256 576 
C 256 77 832 -64 1171 -64 
C 1523 -64 1850 135 1990 505 
C 2003 219 2182 -39 2464 -39 
C 2598 -39 2938 51 2938 563 
L 2938 926 
L 2822 926 
L 2822 557 
C 2822 161 2650 109 2566 109 
C 2304 109 2304 446 2304 732 
L 2304 1656 
z
M 1965 887 
C 1965 323 1568 38 1216 38 
C 896 38 646 278 646 576 
C 646 771 730 1114 1101 1322 
C 1408 1497 1760 1523 1965 1536 
L 1965 887 
z
" transform="scale(0.015625)"/>
      <path id="CMR17-6f" d="M 2758 1356 
C 2758 2176 2163 2816 1466 2816 
C 768 2816 173 2176 173 1356 
C 173 550 768 -64 1466 -64 
C 2163 -64 2758 550 2758 1356 
z
M 1466 51 
C 1165 51 909 230 762 480 
C 602 768 582 1126 582 1408 
C 582 1676 595 2009 762 2297 
C 890 2508 1139 2713 1466 2713 
C 1754 2713 1997 2553 2150 2329 
C 2349 2028 2349 1606 2349 1408 
C 2349 1158 2336 774 2163 467 
C 1984 172 1709 51 1466 51 
z
" transform="scale(0.015625)"/>
      <path id="CMR17-6e" d="M 2656 1954 
C 2656 2282 2592 2816 1837 2816 
C 1331 2816 1069 2424 973 2166 
L 966 2166 
L 966 2816 
L 211 2745 
L 211 2578 
C 589 2578 646 2540 646 2231 
L 646 443 
C 646 198 621 166 211 166 
L 211 0 
C 365 12 646 12 813 12 
C 979 12 1267 12 1421 0 
L 1421 166 
C 1011 166 986 192 986 443 
L 986 1678 
C 986 2269 1344 2713 1792 2713 
C 2266 2713 2317 2289 2317 1980 
L 2317 443 
C 2317 198 2291 166 1882 166 
L 1882 0 
C 2035 12 2317 12 2483 12 
C 2650 12 2938 12 3091 0 
L 3091 166 
C 2682 166 2656 192 2656 443 
L 2656 1954 
z
" transform="scale(0.015625)"/>
      <path id="CMR17-66" d="M 979 2585 
L 1709 2585 
L 1709 2752 
L 966 2752 
L 966 3539 
C 966 4076 1235 4377 1510 4377 
C 1594 4377 1690 4363 1754 4339 
C 1702 4326 1568 4281 1568 4121 
C 1568 3955 1696 3904 1786 3904 
C 1875 3904 2003 3955 2003 4121 
C 2003 4353 1773 4480 1517 4480 
C 1152 4480 653 4211 653 3526 
L 653 2752 
L 141 2752 
L 141 2585 
L 653 2585 
L 653 441 
C 653 198 627 166 218 166 
L 218 0 
C 371 12 666 12 832 12 
C 1018 12 1344 12 1517 0 
L 1517 166 
C 1056 166 979 166 979 454 
L 979 2585 
z
" transform="scale(0.015625)"/>
      <path id="CMR17-53" d="M 2803 4351 
C 2803 4467 2797 4473 2758 4473 
C 2720 4473 2707 4447 2682 4390 
L 2490 3965 
C 2246 4320 1875 4480 1472 4480 
C 819 4480 294 3958 294 3301 
C 294 3101 339 2817 557 2546 
C 794 2250 1018 2198 1530 2063 
C 1722 2011 2042 1927 2106 1901 
C 2470 1747 2662 1360 2662 999 
C 2662 534 2336 38 1779 38 
C 1094 38 454 425 410 1328 
C 403 1431 397 1437 352 1437 
C 301 1437 294 1431 294 1302 
L 294 0 
C 294 -116 301 -122 339 -122 
C 384 -122 397 -90 486 109 
C 493 128 493 141 614 386 
C 934 -39 1472 -128 1779 -128 
C 2477 -128 2970 457 2970 1141 
C 2970 1476 2848 1734 2778 1850 
C 2509 2263 2221 2340 1914 2417 
C 1869 2437 1856 2437 1498 2527 
C 1152 2617 1005 2662 845 2836 
C 666 3036 602 3243 602 3449 
C 602 3868 934 4326 1478 4326 
C 2157 4326 2579 3842 2675 3036 
C 2694 2920 2701 2914 2746 2914 
C 2803 2914 2803 2933 2803 3043 
L 2803 4351 
z
" transform="scale(0.015625)"/>
      <path id="CMR17-63" d="M 2234 2240 
C 2112 2240 1933 2240 1933 2015 
C 1933 1836 2080 1785 2163 1785 
C 2208 1785 2394 1804 2394 2028 
C 2394 2476 1958 2816 1466 2816 
C 787 2816 211 2201 211 1379 
C 211 521 813 -64 1466 -64 
C 2259 -64 2458 676 2458 747 
C 2458 773 2451 792 2406 792 
C 2362 792 2355 786 2330 702 
C 2163 180 1798 51 1523 51 
C 1114 51 621 431 621 1385 
C 621 2358 1094 2700 1472 2700 
C 1722 2700 2093 2582 2234 2240 
z
" transform="scale(0.015625)"/>
      <path id="CMR17-68" d="M 2656 1954 
C 2656 2282 2592 2816 1837 2816 
C 1312 2816 1056 2392 979 2179 
L 973 2179 
L 973 4416 
L 211 4345 
L 211 4179 
C 589 4179 646 4141 646 3843 
L 646 443 
C 646 198 621 166 211 166 
L 211 0 
C 365 12 646 12 813 12 
C 979 12 1267 12 1421 0 
L 1421 166 
C 1011 166 986 192 986 443 
L 986 1678 
C 986 2269 1344 2713 1792 2713 
C 2266 2713 2317 2289 2317 1980 
L 2317 443 
C 2317 198 2291 166 1882 166 
L 1882 0 
C 2035 12 2317 12 2483 12 
C 2650 12 2938 12 3091 0 
L 3091 166 
C 2682 166 2656 192 2656 443 
L 2656 1954 
z
" transform="scale(0.015625)"/>
      <path id="CMR17-79" d="M 2496 2183 
C 2656 2579 2944 2585 3034 2585 
L 3034 2752 
C 2912 2745 2752 2739 2630 2739 
C 2496 2739 2285 2739 2157 2752 
L 2157 2585 
C 2400 2566 2406 2384 2406 2332 
C 2406 2268 2394 2235 2362 2158 
L 1664 409 
L 902 2300 
C 870 2378 870 2423 870 2430 
C 870 2572 1018 2585 1171 2585 
L 1171 2752 
C 1018 2739 742 2739 582 2739 
C 410 2739 205 2739 64 2752 
L 64 2585 
C 410 2585 448 2553 531 2345 
L 1485 -31 
C 1197 -795 1030 -1242 627 -1242 
C 557 -1242 397 -1223 282 -1106 
C 429 -1093 493 -1002 493 -892 
C 493 -782 416 -685 288 -685 
C 147 -685 77 -782 77 -899 
C 77 -1158 339 -1344 627 -1344 
C 998 -1344 1229 -983 1357 -659 
L 2496 2183 
z
" transform="scale(0.015625)"/>
      <path id="CMR17-67" d="M 710 1165 
C 832 1068 1043 960 1299 960 
C 1805 960 2240 1359 2240 1895 
C 2240 2063 2189 2321 1997 2521 
C 2176 2713 2438 2777 2586 2777 
C 2611 2777 2650 2777 2682 2758 
C 2656 2751 2598 2726 2598 2623 
C 2598 2540 2656 2483 2739 2483 
C 2835 2483 2886 2547 2886 2630 
C 2886 2751 2790 2880 2586 2880 
C 2330 2880 2106 2758 1926 2591 
C 1734 2764 1504 2828 1299 2828 
C 794 2828 358 2431 358 1895 
C 358 1527 570 1294 634 1230 
C 442 1004 442 742 442 710 
C 442 544 506 300 723 166 
C 390 82 128 -184 128 -517 
C 128 -996 736 -1344 1466 -1344 
C 2170 -1344 2803 -1009 2803 -510 
C 2803 384 1856 384 1363 384 
C 1216 384 954 384 922 390 
C 723 422 589 601 589 825 
C 589 883 589 1024 710 1165 
z
M 1299 1068 
C 736 1068 736 1766 736 1895 
C 736 2024 736 2719 1299 2719 
C 1862 2719 1862 2024 1862 1895 
C 1862 1766 1862 1068 1299 1068 
z
M 1466 -1236 
C 826 -1236 384 -883 384 -517 
C 384 -311 493 -118 634 -11 
C 794 102 858 102 1293 102 
C 1818 102 2547 102 2547 -517 
C 2547 -883 2106 -1236 1466 -1236 
z
" transform="scale(0.015625)"/>
      <path id="CMR17-47" d="M 3974 1258 
C 3974 1503 3994 1536 4390 1536 
L 4390 1702 
C 4237 1689 3891 1689 3718 1689 
C 3539 1689 3040 1696 2797 1702 
L 2797 1536 
L 2989 1536 
C 3539 1536 3552 1464 3552 1232 
L 3552 806 
C 3552 96 2720 38 2522 38 
C 1862 38 781 496 781 2179 
C 781 3862 1843 4313 2464 4313 
C 3187 4313 3712 3681 3834 2785 
C 3846 2708 3846 2695 3904 2695 
C 3974 2695 3974 2708 3974 2824 
L 3974 4351 
C 3974 4467 3968 4473 3930 4473 
C 3904 4473 3898 4467 3853 4390 
L 3571 3849 
C 3258 4249 2874 4480 2381 4480 
C 1286 4480 294 3507 294 2179 
C 294 858 1267 -128 2394 -128 
C 2912 -128 3418 57 3616 425 
C 3725 161 3904 -20 3936 -20 
C 3968 -20 3974 -13 3974 102 
L 3974 1258 
z
" transform="scale(0.015625)"/>
     </defs>
     <use xlink:href="#CMR17-49" transform="scale(0.996264)"/>
     <use xlink:href="#CMR17-6c" transform="translate(32.638409 0) scale(0.996264)"/>
     <use xlink:href="#CMR17-6c" transform="translate(57.509468 0) scale(0.996264)"/>
     <use xlink:href="#CMR17-75" transform="translate(82.380526 0) scale(0.996264)"/>
     <use xlink:href="#CMR17-73" transform="translate(133.275896 0) scale(0.996264)"/>
     <use xlink:href="#CMR17-74" transform="translate(169.077234 0) scale(0.996264)"/>
     <use xlink:href="#CMR17-72" transform="translate(204.358001 0) scale(0.996264)"/>
     <use xlink:href="#CMR17-61" transform="translate(239.638769 0) scale(0.996264)"/>
     <use xlink:href="#CMR17-74" transform="translate(285.329246 0) scale(0.996264)"/>
     <use xlink:href="#CMR17-69" transform="translate(320.610014 0) scale(0.996264)"/>
     <use xlink:href="#CMR17-6f" transform="translate(345.481073 0) scale(0.996264)"/>
     <use xlink:href="#CMR17-6e" transform="translate(391.17155 0) scale(0.996264)"/>
     <use xlink:href="#CMR17-6f" transform="translate(472.142886 0) scale(0.996264)"/>
     <use xlink:href="#CMR17-66" transform="translate(517.833363 0) scale(0.996264)"/>
     <use xlink:href="#CMR17-53" transform="translate(575.382842 0) scale(0.996264)"/>
     <use xlink:href="#CMR17-74" transform="translate(626.278211 0) scale(0.996264)"/>
     <use xlink:href="#CMR17-6f" transform="translate(661.558979 0) scale(0.996264)"/>
     <use xlink:href="#CMR17-63" transform="translate(709.851895 0) scale(0.996264)"/>
     <use xlink:href="#CMR17-68" transform="translate(747.735102 0) scale(0.996264)"/>
     <use xlink:href="#CMR17-61" transform="translate(798.630471 0) scale(0.996264)"/>
     <use xlink:href="#CMR17-73" transform="translate(844.320949 0) scale(0.996264)"/>
     <use xlink:href="#CMR17-74" transform="translate(880.122286 0) scale(0.996264)"/>
     <use xlink:href="#CMR17-69" transform="translate(915.403054 0) scale(0.996264)"/>
     <use xlink:href="#CMR17-63" transform="translate(940.274112 0) scale(0.996264)"/>
     <use xlink:href="#CMR17-69" transform="translate(980.759773 0) scale(0.996264)"/>
     <use xlink:href="#CMR17-74" transform="translate(1005.630831 0) scale(0.996264)"/>
     <use xlink:href="#CMR17-79" transform="translate(1038.309145 0) scale(0.996264)"/>
     <use xlink:href="#CMR17-69" transform="translate(1116.678027 0) scale(0.996264)"/>
     <use xlink:href="#CMR17-6e" transform="translate(1141.549086 0) scale(0.996264)"/>
     <use xlink:href="#CMR17-53" transform="translate(1222.520422 0) scale(0.996264)"/>
     <use xlink:href="#CMR17-69" transform="translate(1273.415792 0) scale(0.996264)"/>
     <use xlink:href="#CMR17-67" transform="translate(1298.28685 0) scale(0.996264)"/>
     <use xlink:href="#CMR17-6e" transform="translate(1343.977327 0) scale(0.996264)"/>
     <use xlink:href="#CMR17-61" transform="translate(1394.872697 0) scale(0.996264)"/>
     <use xlink:href="#CMR17-6c" transform="translate(1440.563174 0) scale(0.996264)"/>
     <use xlink:href="#CMR17-47" transform="translate(1495.510199 0) scale(0.996264)"/>
     <use xlink:href="#CMR17-65" transform="translate(1567.865545 0) scale(0.996264)"/>
     <use xlink:href="#CMR17-6e" transform="translate(1608.351206 0) scale(0.996264)"/>
     <use xlink:href="#CMR17-65" transform="translate(1659.246575 0) scale(0.996264)"/>
     <use xlink:href="#CMR17-72" transform="translate(1699.732236 0) scale(0.996264)"/>
     <use xlink:href="#CMR17-61" transform="translate(1735.013004 0) scale(0.996264)"/>
     <use xlink:href="#CMR17-74" transform="translate(1780.703481 0) scale(0.996264)"/>
     <use xlink:href="#CMR17-69" transform="translate(1815.984249 0) scale(0.996264)"/>
     <use xlink:href="#CMR17-6f" transform="translate(1840.855307 0) scale(0.996264)"/>
     <use xlink:href="#CMR17-6e" transform="translate(1886.545784 0) scale(0.996264)"/>
    </g>
   </g>
  </g>
 </g>
 <defs>
  <clipPath id="p6f96f3bf6c">
   <rect x="90" y="51.84" width="558" height="332.64"/>
  </clipPath>
 </defs>
</svg>
