<?xml version="1.0" encoding="utf-8" standalone="no"?>
<!DOCTYPE svg PUBLIC "-//W3C//DTD SVG 1.1//EN"
  "http://www.w3.org/Graphics/SVG/1.1/DTD/svg11.dtd">
<svg xmlns:xlink="http://www.w3.org/1999/xlink" width="720pt" height="432pt" viewBox="0 0 720 432" xmlns="http://www.w3.org/2000/svg" version="1.1">
 <metadata>
  <rdf:RDF xmlns:dc="http://purl.org/dc/elements/1.1/" xmlns:cc="http://creativecommons.org/ns#" xmlns:rdf="http://www.w3.org/1999/02/22-rdf-syntax-ns#">
   <cc:Work>
    <dc:type rdf:resource="http://purl.org/dc/dcmitype/StillImage"/>
    <dc:date>2025-06-07T18:36:19.382375</dc:date>
    <dc:format>image/svg+xml</dc:format>
    <dc:creator>
     <cc:Agent>
      <dc:title>Matplotlib v3.10.0, https://matplotlib.org/</dc:title>
     </cc:Agent>
    </dc:creator>
   </cc:Work>
  </rdf:RDF>
 </metadata>
 <defs>
  <style type="text/css">*{stroke-linejoin: round; stroke-linecap: butt}</style>
 </defs>
 <g id="figure_1">
  <g id="patch_1">
   <path d="M 0 432 
L 720 432 
L 720 0 
L 0 0 
z
" style="fill: #ffffff"/>
  </g>
  <g id="axes_1">
   <g id="patch_2">
    <path d="M 90 384.48 
L 648 384.48 
L 648 51.84 
L 90 51.84 
z
" style="fill: #ffffff"/>
   </g>
   <g id="matplotlib.axis_1">
    <g id="xtick_1">
     <g id="line2d_1">
      <path d="M 115.363636 384.48 
L 115.363636 51.84 
" clip-path="url(#p9344d5ca88)" style="fill: none; stroke: #cccccc; stroke-linecap: round"/>
     </g>
     <g id="text_1">
      <!-- $\mathdefault{0}$ -->
      <g style="fill: #262626" transform="translate(109.081196 413.005867) scale(0.275 -0.275)">
       <defs>
        <path id="CMR17-30" d="M 2688 2038 
C 2688 2430 2682 3099 2413 3613 
C 2176 4063 1798 4224 1466 4224 
C 1158 4224 768 4082 525 3620 
C 269 3137 243 2539 243 2038 
C 243 1671 250 1112 448 623 
C 723 -39 1216 -128 1466 -128 
C 1760 -128 2208 -7 2470 604 
C 2662 1048 2688 1568 2688 2038 
z
M 1466 -26 
C 1056 -26 813 328 723 816 
C 653 1196 653 1749 653 2109 
C 653 2604 653 3015 736 3407 
C 858 3954 1216 4121 1466 4121 
C 1728 4121 2067 3947 2189 3420 
C 2272 3054 2278 2623 2278 2109 
C 2278 1691 2278 1176 2202 797 
C 2067 96 1690 -26 1466 -26 
z
" transform="scale(0.015625)"/>
       </defs>
       <use xlink:href="#CMR17-30" transform="scale(0.996264)"/>
      </g>
     </g>
    </g>
    <g id="xtick_2">
     <g id="line2d_2">
      <path d="M 214.828877 384.48 
L 214.828877 51.84 
" clip-path="url(#p9344d5ca88)" style="fill: none; stroke: #cccccc; stroke-linecap: round"/>
     </g>
     <g id="text_2">
      <!-- $\mathdefault{50}$ -->
      <g style="fill: #262626" transform="translate(202.263996 413.005867) scale(0.275 -0.275)">
       <defs>
        <path id="CMR17-35" d="M 730 3750 
C 794 3724 1056 3641 1325 3641 
C 1920 3641 2246 3961 2432 4140 
C 2432 4191 2432 4224 2394 4224 
C 2387 4224 2374 4224 2323 4198 
C 2099 4102 1837 4032 1517 4032 
C 1325 4032 1037 4055 723 4191 
C 653 4224 640 4224 634 4224 
C 602 4224 595 4217 595 4090 
L 595 2231 
C 595 2113 595 2080 659 2080 
C 691 2080 704 2093 736 2139 
C 941 2435 1222 2560 1542 2560 
C 1766 2560 2246 2415 2246 1293 
C 2246 1087 2246 716 2054 422 
C 1894 159 1645 25 1370 25 
C 947 25 518 319 403 812 
C 429 806 480 793 506 793 
C 589 793 749 838 749 1036 
C 749 1209 627 1280 506 1280 
C 358 1280 262 1190 262 1011 
C 262 454 704 -128 1382 -128 
C 2042 -128 2669 441 2669 1267 
C 2669 2054 2170 2662 1549 2662 
C 1222 2662 947 2540 730 2304 
L 730 3750 
z
" transform="scale(0.015625)"/>
       </defs>
       <use xlink:href="#CMR17-35" transform="scale(0.996264)"/>
       <use xlink:href="#CMR17-30" transform="translate(45.690477 0) scale(0.996264)"/>
      </g>
     </g>
    </g>
    <g id="xtick_3">
     <g id="line2d_3">
      <path d="M 314.294118 384.48 
L 314.294118 51.84 
" clip-path="url(#p9344d5ca88)" style="fill: none; stroke: #cccccc; stroke-linecap: round"/>
     </g>
     <g id="text_3">
      <!-- $\mathdefault{100}$ -->
      <g style="fill: #262626" transform="translate(295.446796 413.005867) scale(0.275 -0.275)">
       <defs>
        <path id="CMR17-31" d="M 1702 4083 
C 1702 4217 1696 4224 1606 4224 
C 1357 3927 979 3833 621 3820 
C 602 3820 570 3820 563 3808 
C 557 3795 557 3782 557 3648 
C 755 3648 1088 3686 1344 3839 
L 1344 467 
C 1344 243 1331 166 781 166 
L 589 166 
L 589 0 
C 896 6 1216 12 1523 12 
C 1830 12 2150 6 2458 0 
L 2458 166 
L 2266 166 
C 1715 166 1702 236 1702 467 
L 1702 4083 
z
" transform="scale(0.015625)"/>
       </defs>
       <use xlink:href="#CMR17-31" transform="scale(0.996264)"/>
       <use xlink:href="#CMR17-30" transform="translate(45.690477 0) scale(0.996264)"/>
       <use xlink:href="#CMR17-30" transform="translate(91.380954 0) scale(0.996264)"/>
      </g>
     </g>
    </g>
    <g id="xtick_4">
     <g id="line2d_4">
      <path d="M 413.759358 384.48 
L 413.759358 51.84 
" clip-path="url(#p9344d5ca88)" style="fill: none; stroke: #cccccc; stroke-linecap: round"/>
     </g>
     <g id="text_4">
      <!-- $\mathdefault{150}$ -->
      <g style="fill: #262626" transform="translate(394.912036 413.005867) scale(0.275 -0.275)">
       <use xlink:href="#CMR17-31" transform="scale(0.996264)"/>
       <use xlink:href="#CMR17-35" transform="translate(45.690477 0) scale(0.996264)"/>
       <use xlink:href="#CMR17-30" transform="translate(91.380954 0) scale(0.996264)"/>
      </g>
     </g>
    </g>
    <g id="xtick_5">
     <g id="line2d_5">
      <path d="M 513.224599 384.48 
L 513.224599 51.84 
" clip-path="url(#p9344d5ca88)" style="fill: none; stroke: #cccccc; stroke-linecap: round"/>
     </g>
     <g id="text_5">
      <!-- $\mathdefault{200}$ -->
      <g style="fill: #262626" transform="translate(494.377277 413.005867) scale(0.275 -0.275)">
       <defs>
        <path id="CMR17-32" d="M 2669 990 
L 2554 990 
C 2490 537 2438 460 2413 422 
C 2381 371 1920 371 1830 371 
L 602 371 
C 832 620 1280 1073 1824 1596 
C 2214 1966 2669 2400 2669 3033 
C 2669 3788 2067 4224 1395 4224 
C 691 4224 262 3603 262 3027 
C 262 2777 448 2745 525 2745 
C 589 2745 781 2783 781 3007 
C 781 3206 614 3264 525 3264 
C 486 3264 448 3257 422 3244 
C 544 3788 915 4057 1306 4057 
C 1862 4057 2227 3616 2227 3033 
C 2227 2477 1901 1998 1536 1583 
L 262 147 
L 262 0 
L 2515 0 
L 2669 990 
z
" transform="scale(0.015625)"/>
       </defs>
       <use xlink:href="#CMR17-32" transform="scale(0.996264)"/>
       <use xlink:href="#CMR17-30" transform="translate(45.690477 0) scale(0.996264)"/>
       <use xlink:href="#CMR17-30" transform="translate(91.380954 0) scale(0.996264)"/>
      </g>
     </g>
    </g>
    <g id="xtick_6">
     <g id="line2d_6">
      <path d="M 612.68984 384.48 
L 612.68984 51.84 
" clip-path="url(#p9344d5ca88)" style="fill: none; stroke: #cccccc; stroke-linecap: round"/>
     </g>
     <g id="text_6">
      <!-- $\mathdefault{250}$ -->
      <g style="fill: #262626" transform="translate(593.842518 413.005867) scale(0.275 -0.275)">
       <use xlink:href="#CMR17-32" transform="scale(0.996264)"/>
       <use xlink:href="#CMR17-35" transform="translate(45.690477 0) scale(0.996264)"/>
       <use xlink:href="#CMR17-30" transform="translate(91.380954 0) scale(0.996264)"/>
      </g>
     </g>
    </g>
    <g id="text_7">
     <!-- Time -->
     <g style="fill: #262626" transform="translate(337.682086 443.090362) scale(0.3 -0.3)">
      <defs>
       <path id="CMR17-54" d="M 3981 4332 
L 288 4332 
L 179 2924 
L 294 2924 
C 378 3981 467 4166 1453 4166 
C 1568 4166 1754 4166 1805 4159 
C 1926 4140 1926 4064 1926 3917 
L 1926 465 
C 1926 236 1907 166 1376 166 
L 1197 166 
L 1197 0 
C 1504 6 1824 12 2138 12 
C 2451 12 2771 6 3078 0 
L 3078 166 
L 2899 166 
C 2368 166 2349 236 2349 465 
L 2349 3917 
C 2349 4057 2349 4134 2464 4159 
C 2515 4166 2701 4166 2816 4166 
C 3795 4166 3891 3981 3974 2924 
L 4090 2924 
L 3981 4332 
z
" transform="scale(0.015625)"/>
       <path id="CMR17-69" d="M 992 3961 
C 992 4102 877 4224 730 4224 
C 589 4224 467 4108 467 3961 
C 467 3820 582 3699 730 3699 
C 870 3699 992 3814 992 3961 
z
M 243 2745 
L 243 2579 
C 602 2579 653 2540 653 2231 
L 653 443 
C 653 198 627 166 218 166 
L 218 0 
C 371 12 646 12 806 12 
C 960 12 1222 12 1370 0 
L 1370 166 
C 992 166 979 205 979 436 
L 979 2816 
L 243 2745 
z
" transform="scale(0.015625)"/>
       <path id="CMR17-6d" d="M 4326 1954 
C 4326 2276 4269 2816 3507 2816 
C 3072 2816 2771 2520 2656 2173 
L 2650 2173 
C 2573 2700 2195 2816 1837 2816 
C 1331 2816 1069 2424 973 2166 
L 966 2166 
L 966 2816 
L 211 2745 
L 211 2578 
C 589 2578 646 2540 646 2231 
L 646 443 
C 646 198 621 166 211 166 
L 211 0 
C 365 12 646 12 813 12 
C 979 12 1267 12 1421 0 
L 1421 166 
C 1011 166 986 192 986 443 
L 986 1678 
C 986 2269 1344 2713 1792 2713 
C 2266 2713 2317 2289 2317 1980 
L 2317 443 
C 2317 198 2291 166 1882 166 
L 1882 0 
C 2035 12 2317 12 2483 12 
C 2650 12 2938 12 3091 0 
L 3091 166 
C 2682 166 2656 192 2656 443 
L 2656 1678 
C 2656 2269 3014 2713 3462 2713 
C 3936 2713 3987 2289 3987 1980 
L 3987 443 
C 3987 198 3962 166 3552 166 
L 3552 0 
C 3706 12 3987 12 4154 12 
C 4320 12 4608 12 4762 0 
L 4762 166 
C 4352 166 4326 192 4326 443 
L 4326 1954 
z
" transform="scale(0.015625)"/>
       <path id="CMR17-65" d="M 2438 1503 
C 2464 1529 2464 1542 2464 1606 
C 2464 2251 2118 2816 1389 2816 
C 710 2816 173 2175 173 1394 
C 173 554 781 -64 1459 -64 
C 2176 -64 2458 619 2458 755 
C 2458 800 2419 800 2406 800 
C 2362 800 2355 787 2330 709 
C 2189 270 1837 51 1504 51 
C 1229 51 954 206 781 490 
C 582 819 582 1200 582 1503 
L 2438 1503 
z
M 589 1600 
C 634 2511 1126 2713 1382 2713 
C 1818 2713 2112 2308 2118 1600 
L 589 1600 
z
" transform="scale(0.015625)"/>
      </defs>
      <use xlink:href="#CMR17-54" transform="scale(0.996264)"/>
      <use xlink:href="#CMR17-69" transform="translate(66.509881 0) scale(0.996264)"/>
      <use xlink:href="#CMR17-6d" transform="translate(91.380939 0) scale(0.996264)"/>
      <use xlink:href="#CMR17-65" transform="translate(168.300529 0) scale(0.996264)"/>
     </g>
    </g>
   </g>
   <g id="matplotlib.axis_2">
    <g id="ytick_1">
     <g id="line2d_7">
      <path d="M 90 375.050873 
L 648 375.050873 
" clip-path="url(#p9344d5ca88)" style="fill: none; stroke: #cccccc; stroke-linecap: round"/>
     </g>
     <g id="text_8">
      <!-- $\mathdefault{−4}$ -->
      <g style="fill: #262626" transform="translate(46.626066 384.563806) scale(0.275 -0.275)">
       <defs>
        <path id="CMSY10-0" d="M 4218 1472 
C 4326 1472 4442 1472 4442 1600 
C 4442 1728 4326 1728 4218 1728 
L 755 1728 
C 646 1728 531 1728 531 1600 
C 531 1472 646 1472 755 1472 
L 4218 1472 
z
" transform="scale(0.015625)"/>
        <path id="CMR17-34" d="M 2150 4147 
C 2150 4281 2144 4288 2029 4288 
L 128 1254 
L 128 1088 
L 1779 1088 
L 1779 460 
C 1779 230 1766 166 1318 166 
L 1197 166 
L 1197 0 
C 1402 12 1747 12 1965 12 
C 2182 12 2528 12 2733 0 
L 2733 166 
L 2611 166 
C 2163 166 2150 230 2150 460 
L 2150 1088 
L 2803 1088 
L 2803 1254 
L 2150 1254 
L 2150 4147 
z
M 1798 3723 
L 1798 1254 
L 256 1254 
L 1798 3723 
z
" transform="scale(0.015625)"/>
       </defs>
       <use xlink:href="#CMSY10-0" transform="scale(0.996264)"/>
       <use xlink:href="#CMR17-34" transform="translate(77.487468 0) scale(0.996264)"/>
      </g>
     </g>
    </g>
    <g id="ytick_2">
     <g id="line2d_8">
      <path d="M 90 298.542654 
L 648 298.542654 
" clip-path="url(#p9344d5ca88)" style="fill: none; stroke: #cccccc; stroke-linecap: round"/>
     </g>
     <g id="text_9">
      <!-- $\mathdefault{−2}$ -->
      <g style="fill: #262626" transform="translate(46.626066 308.055587) scale(0.275 -0.275)">
       <use xlink:href="#CMSY10-0" transform="scale(0.996264)"/>
       <use xlink:href="#CMR17-32" transform="translate(77.487468 0) scale(0.996264)"/>
      </g>
     </g>
    </g>
    <g id="ytick_3">
     <g id="line2d_9">
      <path d="M 90 222.034434 
L 648 222.034434 
" clip-path="url(#p9344d5ca88)" style="fill: none; stroke: #cccccc; stroke-linecap: round"/>
     </g>
     <g id="text_10">
      <!-- $\mathdefault{0}$ -->
      <g style="fill: #262626" transform="translate(67.935119 231.547368) scale(0.275 -0.275)">
       <use xlink:href="#CMR17-30" transform="scale(0.996264)"/>
      </g>
     </g>
    </g>
    <g id="ytick_4">
     <g id="line2d_10">
      <path d="M 90 145.526215 
L 648 145.526215 
" clip-path="url(#p9344d5ca88)" style="fill: none; stroke: #cccccc; stroke-linecap: round"/>
     </g>
     <g id="text_11">
      <!-- $\mathdefault{2}$ -->
      <g style="fill: #262626" transform="translate(67.935119 155.039148) scale(0.275 -0.275)">
       <use xlink:href="#CMR17-32" transform="scale(0.996264)"/>
      </g>
     </g>
    </g>
    <g id="ytick_5">
     <g id="line2d_11">
      <path d="M 90 69.017996 
L 648 69.017996 
" clip-path="url(#p9344d5ca88)" style="fill: none; stroke: #cccccc; stroke-linecap: round"/>
     </g>
     <g id="text_12">
      <!-- $\mathdefault{4}$ -->
      <g style="fill: #262626" transform="translate(67.935119 78.530929) scale(0.275 -0.275)">
       <use xlink:href="#CMR17-34" transform="scale(0.996264)"/>
      </g>
     </g>
    </g>
    <g id="text_13">
     <!-- Amplitude -->
     <g style="fill: #262626" transform="translate(36.812616 281.787972) rotate(-90) scale(0.3 -0.3)">
      <defs>
       <path id="CMR17-41" d="M 2323 4441 
C 2291 4524 2278 4544 2214 4544 
C 2150 4544 2138 4524 2106 4441 
L 749 580 
C 627 236 371 166 147 166 
L 147 0 
C 262 12 518 12 640 12 
C 800 12 1056 12 1210 0 
L 1210 166 
C 909 179 864 382 864 459 
C 864 516 877 548 890 586 
L 1229 1536 
L 2906 1536 
L 3290 453 
C 3322 376 3322 363 3322 338 
C 3322 166 3046 166 2925 166 
L 2925 0 
C 3110 12 3443 12 3642 12 
C 3808 12 4128 12 4282 0 
L 4282 166 
C 3942 166 3827 166 3744 402 
L 2323 4441 
z
M 2067 3924 
L 2848 1702 
L 1286 1702 
L 2067 3924 
z
" transform="scale(0.015625)"/>
       <path id="CMR17-70" d="M 1408 -1114 
C 998 -1114 973 -1088 973 -834 
L 973 380 
C 1158 109 1427 -64 1766 -64 
C 2406 -64 3053 503 3053 1382 
C 3053 2196 2496 2816 1837 2816 
C 1453 2816 1139 2603 960 2345 
L 960 2816 
L 198 2745 
L 198 2577 
C 576 2577 634 2539 634 2228 
L 634 -834 
C 634 -1081 608 -1114 198 -1114 
L 198 -1280 
C 352 -1268 634 -1268 800 -1268 
C 966 -1268 1254 -1268 1408 -1280 
L 1408 -1114 
z
M 973 2015 
C 973 2106 973 2241 1222 2481 
C 1254 2506 1472 2700 1792 2700 
C 2259 2700 2643 2112 2643 1376 
C 2643 639 2234 38 1728 38 
C 1498 38 1248 148 1056 451 
C 973 594 973 632 973 736 
L 973 2015 
z
" transform="scale(0.015625)"/>
       <path id="CMR17-6c" d="M 979 4416 
L 218 4345 
L 218 4179 
C 595 4179 653 4141 653 3835 
L 653 439 
C 653 198 627 166 218 166 
L 218 0 
C 371 12 653 12 813 12 
C 979 12 1261 12 1414 0 
L 1414 166 
C 1005 166 979 191 979 439 
L 979 4416 
z
" transform="scale(0.015625)"/>
       <path id="CMR17-74" d="M 966 2585 
L 1862 2585 
L 1862 2752 
L 966 2752 
L 966 3968 
L 851 3968 
C 838 3292 614 2700 70 2687 
L 70 2585 
L 627 2585 
L 627 778 
C 627 655 627 -64 1370 -64 
C 1747 -64 1965 308 1965 784 
L 1965 1151 
L 1850 1151 
L 1850 790 
C 1850 347 1677 51 1408 51 
C 1222 51 966 179 966 765 
L 966 2585 
z
" transform="scale(0.015625)"/>
       <path id="CMR17-75" d="M 1882 2745 
L 1882 2579 
C 2259 2579 2317 2540 2317 2229 
L 2317 1053 
C 2317 510 2029 38 1555 38 
C 1030 38 986 355 986 691 
L 986 2816 
L 211 2745 
L 211 2579 
C 467 2579 640 2579 646 2320 
L 646 1079 
C 646 646 646 368 813 187 
C 896 103 1056 -64 1517 -64 
C 2061 -64 2272 400 2323 536 
L 2330 536 
L 2330 -64 
L 3091 -13 
L 3091 154 
C 2714 154 2656 193 2656 503 
L 2656 2816 
L 1882 2745 
z
" transform="scale(0.015625)"/>
       <path id="CMR17-64" d="M 1869 4345 
L 1869 4179 
C 2246 4179 2304 4141 2304 3843 
L 2304 2371 
C 2278 2403 2016 2816 1498 2816 
C 845 2816 211 2228 211 1376 
C 211 529 806 -64 1434 -64 
C 1978 -64 2259 361 2291 406 
L 2291 -64 
L 3066 -13 
L 3066 154 
C 2688 154 2630 193 2630 503 
L 2630 4416 
L 1869 4345 
z
M 2291 762 
C 2291 568 2176 393 2029 264 
C 1811 70 1594 38 1472 38 
C 1286 38 621 135 621 1369 
C 621 2636 1363 2713 1530 2713 
C 1824 2713 2061 2545 2208 2313 
C 2291 2177 2291 2157 2291 2041 
L 2291 762 
z
" transform="scale(0.015625)"/>
      </defs>
      <use xlink:href="#CMR17-41" transform="scale(0.996264)"/>
      <use xlink:href="#CMR17-6d" transform="translate(69.07243 0) scale(0.996264)"/>
      <use xlink:href="#CMR17-70" transform="translate(145.99202 0) scale(0.996264)"/>
      <use xlink:href="#CMR17-6c" transform="translate(196.887389 0) scale(0.996264)"/>
      <use xlink:href="#CMR17-69" transform="translate(221.758448 0) scale(0.996264)"/>
      <use xlink:href="#CMR17-74" transform="translate(246.629506 0) scale(0.996264)"/>
      <use xlink:href="#CMR17-75" transform="translate(281.910274 0) scale(0.996264)"/>
      <use xlink:href="#CMR17-64" transform="translate(332.805644 0) scale(0.996264)"/>
      <use xlink:href="#CMR17-65" transform="translate(383.701014 0) scale(0.996264)"/>
     </g>
    </g>
   </g>
   <g id="line2d_12">
    <path d="M 115.363636 222.034434 
L 123.320856 222.034434 
L 125.31016 208.352826 
L 198.914439 222.034434 
L 224.775401 222.034434 
L 296.390374 146.585163 
L 298.379679 222.034434 
L 322.251337 222.034434 
L 324.240642 99.704267 
L 326.229947 101.978598 
L 328.219251 108.717023 
L 330.208556 119.668983 
L 332.197861 134.427248 
L 334.187166 152.443053 
L 336.176471 173.046508 
L 340.15508 218.884203 
L 344.13369 265.186089 
L 346.122995 286.35361 
L 348.112299 305.129521 
L 350.101604 320.815668 
L 352.090909 332.828784 
L 354.080214 340.72218 
L 356.069519 344.202353 
L 358.058824 343.139897 
L 360.048128 337.574318 
L 362.037433 327.712565 
L 364.026738 313.92133 
L 366.016043 296.713421 
L 368.005348 276.728686 
L 371.983957 231.476773 
L 375.962567 184.833518 
L 377.951872 222.034434 
L 423.705882 222.034434 
L 429.673797 200.652056 
L 433.652406 187.207122 
L 437.631016 174.948191 
L 439.620321 169.395912 
L 441.609626 164.292726 
L 443.59893 159.682172 
L 445.588235 155.603585 
L 447.57754 152.091763 
L 449.566845 149.176667 
L 451.55615 146.883168 
L 453.545455 145.230833 
L 455.534759 144.233759 
L 457.524064 143.900454 
L 459.513369 144.233759 
L 461.502674 145.230833 
L 463.491979 146.883168 
L 465.481283 149.176667 
L 467.470588 152.091763 
L 469.459893 155.603585 
L 471.449198 159.682172 
L 473.438503 164.292726 
L 475.427807 169.395912 
L 477.417112 174.948191 
L 479.406417 180.902194 
L 483.385027 193.809185 
L 487.363636 207.677353 
L 491.342246 222.034434 
L 523.171123 222.034434 
L 564.946524 115.112837 
L 566.935829 115.112837 
L 608.71123 222.034434 
L 622.636364 222.034434 
L 622.636364 222.034434 
" clip-path="url(#p9344d5ca88)" style="fill: none; stroke: #4c72b0; stroke-width: 3; stroke-linecap: round"/>
   </g>
   <g id="line2d_13">
    <path d="M 115.363636 222.034434 
L 117.352941 74.883497 
L 184.989305 222.034434 
L 218.807487 222.034434 
L 248.647059 131.78804 
L 250.636364 131.78804 
L 280.475936 222.034434 
L 318.272727 222.034434 
L 320.262032 182.348821 
L 375.962567 182.348821 
L 377.951872 222.034434 
L 421.716578 222.034434 
L 495.320856 99.018013 
L 497.31016 222.034434 
L 521.181818 222.034434 
L 523.171123 149.211131 
L 525.160428 149.899249 
L 527.149733 151.950596 
L 529.139037 155.326407 
L 531.128342 159.962885 
L 533.117647 165.772408 
L 535.106952 172.645186 
L 537.096257 180.451335 
L 539.085561 189.043333 
L 543.064171 207.923597 
L 551.02139 247.368704 
L 553.010695 256.492883 
L 555 264.965856 
L 556.989305 272.6275 
L 558.97861 279.333023 
L 560.967914 284.955701 
L 562.957219 289.389276 
L 564.946524 292.54996 
L 566.935829 294.378023 
L 568.925134 294.838918 
L 570.914439 293.923933 
L 572.903743 291.650361 
L 574.893048 288.061168 
L 576.882353 283.224184 
L 578.871658 277.230819 
L 580.860963 270.194338 
L 582.850267 262.247718 
L 584.839572 253.541137 
L 588.818182 234.517499 
L 590.807487 222.034434 
L 622.636364 222.034434 
L 622.636364 222.034434 
" clip-path="url(#p9344d5ca88)" style="fill: none; stroke: #dd8452; stroke-width: 3; stroke-linecap: round"/>
   </g>
   <g id="line2d_14">
    <path d="M 115.363636 222.034434 
L 159.128342 222.034434 
L 161.117647 181.640299 
L 204.882353 181.640299 
L 206.871658 222.034434 
L 252.625668 222.034434 
L 260.582888 215.54297 
L 266.550802 211.006845 
L 270.529412 208.263435 
L 274.508021 205.813531 
L 278.486631 203.709346 
L 282.465241 201.995729 
L 286.44385 200.709203 
L 288.433155 200.23504 
L 290.42246 199.877186 
L 292.411765 199.637551 
L 294.40107 199.517413 
L 296.390374 199.517413 
L 298.379679 199.637551 
L 300.368984 199.877186 
L 302.358289 200.23504 
L 306.336898 201.297145 
L 310.315508 202.801229 
L 314.294118 204.715236 
L 318.272727 206.998371 
L 322.251337 209.601974 
L 326.229947 212.470553 
L 332.197861 217.135286 
L 338.165775 222.034434 
L 342.144385 222.034434 
L 344.13369 111.048884 
L 346.122995 113.61016 
L 348.112299 121.175773 
L 350.101604 133.396532 
L 352.090909 149.708384 
L 354.080214 169.358455 
L 356.069519 191.439793 
L 362.037433 261.803906 
L 364.026738 283.017822 
L 366.016043 301.417042 
L 368.005348 316.152347 
L 369.994652 326.543626 
L 371.983957 332.111271 
L 373.973262 332.598304 
L 375.962567 327.982247 
L 377.951872 318.476154 
L 379.941176 304.518781 
L 381.930481 286.754333 
L 383.919786 266.002728 
L 387.898396 219.46289 
L 391.877005 173.392334 
L 393.86631 153.207042 
L 395.855615 136.198487 
L 397.84492 123.151701 
L 399.834225 222.034434 
L 433.652406 222.034434 
L 435.641711 196.1157 
L 481.395722 222.034434 
L 527.149733 222.034434 
L 608.71123 104.394755 
L 610.700535 222.034434 
L 622.636364 222.034434 
L 622.636364 222.034434 
" clip-path="url(#p9344d5ca88)" style="fill: none; stroke: #55a868; stroke-width: 3; stroke-linecap: round"/>
   </g>
   <g id="line2d_15">
    <path d="M 115.363636 222.034434 
L 145.203209 222.034434 
L 147.192513 189.763936 
L 208.860963 189.763936 
L 210.850267 222.034434 
L 242.679144 222.034434 
L 282.465241 166.046514 
L 284.454545 166.046514 
L 324.240642 222.034434 
L 338.165775 222.034434 
L 344.13369 184.725777 
L 348.112299 161.552822 
L 350.101604 150.839126 
L 352.090909 140.85599 
L 354.080214 131.705856 
L 356.069519 123.482614 
L 358.058824 116.270648 
L 360.048128 110.143961 
L 362.037433 105.165422 
L 364.026738 101.386117 
L 366.016043 98.844827 
L 368.005348 97.567629 
L 369.994652 97.567629 
L 371.983957 98.844827 
L 373.973262 101.386117 
L 375.962567 105.165422 
L 377.951872 110.143961 
L 379.941176 116.270648 
L 381.930481 123.482614 
L 383.919786 131.705856 
L 385.909091 140.85599 
L 387.898396 150.839126 
L 389.887701 161.552822 
L 393.86631 184.725777 
L 399.834225 222.034434 
L 431.663102 222.034434 
L 433.652406 141.586913 
L 437.631016 141.754277 
L 441.609626 142.255672 
L 445.588235 143.089013 
L 449.566845 144.250832 
L 453.545455 145.736294 
L 457.524064 147.539219 
L 461.502674 149.652106 
L 465.481283 152.066163 
L 469.459893 154.771345 
L 473.438503 157.756397 
L 477.417112 161.008899 
L 481.395722 164.515317 
L 485.374332 168.261062 
L 489.352941 172.230548 
L 495.320856 178.567926 
L 501.28877 185.312054 
L 503.278075 222.034434 
L 529.139037 222.034434 
L 592.796791 129.694306 
L 594.786096 222.034434 
L 622.636364 222.034434 
L 622.636364 222.034434 
" clip-path="url(#p9344d5ca88)" style="fill: none; stroke: #c44e52; stroke-width: 3; stroke-linecap: round"/>
   </g>
   <g id="line2d_16">
    <path d="M 115.363636 222.034434 
L 119.342246 222.034434 
L 121.331551 122.826303 
L 175.042781 122.826303 
L 177.032086 222.034434 
L 218.807487 222.034434 
L 220.796791 93.69417 
L 278.486631 222.034434 
L 318.272727 222.034434 
L 320.262032 130.370809 
L 322.251337 131.225668 
L 324.240642 133.774303 
L 326.229947 137.969175 
L 328.219251 143.732041 
L 330.208556 150.955412 
L 332.197861 159.504556 
L 334.187166 169.220014 
L 336.176471 179.920572 
L 340.15508 203.463986 
L 348.112299 252.837212 
L 350.101604 264.313171 
L 352.090909 275.000542 
L 354.080214 284.699984 
L 356.069519 293.230582 
L 358.058824 300.433221 
L 360.048128 306.173558 
L 362.037433 310.344523 
L 364.026738 312.868319 
L 366.016043 313.697872 
L 368.005348 312.817708 
L 369.994652 310.244246 
L 371.983957 306.025484 
L 373.973262 300.240113 
L 375.962567 292.996041 
L 377.951872 284.428385 
L 379.941176 274.696951 
L 381.930481 263.98325 
L 385.909091 240.422974 
L 387.898396 222.034434 
L 419.727273 222.034434 
L 497.31016 142.08499 
L 499.299465 222.034434 
L 519.192513 222.034434 
L 547.042781 125.646047 
L 549.032086 125.646047 
L 576.882353 222.034434 
L 622.636364 222.034434 
L 622.636364 222.034434 
" clip-path="url(#p9344d5ca88)" style="fill: none; stroke: #8172b3; stroke-width: 3; stroke-linecap: round"/>
   </g>
   <g id="line2d_17">
    <path d="M 115.363636 222.034434 
L 117.352941 222.034434 
L 159.128342 128.818281 
L 161.117647 128.818281 
L 202.893048 222.034434 
L 216.818182 222.034434 
L 218.807487 90.694288 
L 296.390374 222.034434 
L 318.272727 222.034434 
L 320.262032 107.014579 
L 322.251337 108.302592 
L 324.240642 112.137784 
L 326.229947 118.434262 
L 328.219251 127.051006 
L 330.208556 137.795034 
L 332.197861 150.425717 
L 334.187166 164.660176 
L 336.176471 180.179609 
L 340.15508 213.662089 
L 344.13369 247.89041 
L 346.122995 264.326489 
L 348.112299 279.815381 
L 350.101604 294.01019 
L 352.090909 306.593003 
L 354.080214 317.282012 
L 356.069519 325.837823 
L 358.058824 332.068815 
L 360.048128 335.835437 
L 362.037433 337.053331 
L 364.026738 335.69522 
L 366.016043 331.791521 
L 368.005348 325.429663 
L 369.994652 316.752128 
L 371.983957 305.953261 
L 373.973262 293.274918 
L 375.962567 279.001048 
L 377.951872 263.451332 
L 381.930481 229.93817 
L 385.909091 195.720912 
L 387.898396 179.305855 
L 389.887701 163.847764 
L 391.877005 149.692842 
L 393.86631 222.034434 
L 421.716578 222.034434 
L 427.684492 208.130977 
L 431.663102 199.585494 
L 433.652406 195.683123 
L 435.641711 192.089698 
L 437.631016 188.847347 
L 439.620321 185.994085 
L 441.609626 183.563362 
L 443.59893 181.583678 
L 445.588235 180.078242 
L 447.57754 179.064704 
L 449.566845 178.554947 
L 451.55615 178.554947 
L 453.545455 179.064704 
L 455.534759 180.078242 
L 457.524064 181.583678 
L 459.513369 183.563362 
L 461.502674 185.994085 
L 463.491979 188.847347 
L 465.481283 192.089698 
L 467.470588 195.683123 
L 469.459893 199.585494 
L 473.438503 208.130977 
L 479.406417 222.034434 
L 523.171123 222.034434 
L 596.775401 130.95897 
L 598.764706 222.034434 
L 622.636364 222.034434 
L 622.636364 222.034434 
" clip-path="url(#p9344d5ca88)" style="fill: none; stroke: #937860; stroke-width: 3; stroke-linecap: round"/>
   </g>
   <g id="line2d_18">
    <path d="M 115.363636 222.034434 
L 157.139037 222.034434 
L 190.957219 149.38824 
L 192.946524 149.38824 
L 226.764706 222.034434 
L 250.636364 222.034434 
L 332.197861 119.897064 
L 334.187166 222.034434 
L 344.13369 222.034434 
L 352.090909 198.597339 
L 356.069519 187.567102 
L 360.048128 177.34475 
L 362.037433 172.612304 
L 364.026738 168.169887 
L 366.016043 164.043568 
L 368.005348 160.257563 
L 369.994652 156.834088 
L 371.983957 153.793236 
L 373.973262 151.15285 
L 375.962567 148.928425 
L 377.951872 147.133015 
L 379.941176 145.777157 
L 381.930481 144.868807 
L 383.919786 144.413295 
L 385.909091 144.413295 
L 387.898396 144.868807 
L 389.887701 145.777157 
L 391.877005 147.133015 
L 393.86631 148.928425 
L 395.855615 151.15285 
L 397.84492 153.793236 
L 399.834225 156.834088 
L 401.823529 160.257563 
L 403.812834 164.043568 
L 405.802139 168.169887 
L 407.791444 172.612304 
L 411.770053 182.339453 
L 415.748663 192.997019 
L 419.727273 204.335197 
L 425.695187 222.034434 
L 435.641711 222.034434 
L 437.631016 158.062903 
L 507.256684 158.062903 
L 509.245989 222.034434 
L 529.139037 222.034434 
L 531.128342 172.044171 
L 533.117647 172.23199 
L 535.106952 172.794036 
L 537.096257 173.726085 
L 539.085561 175.021133 
L 541.074866 176.66945 
L 543.064171 178.65865 
L 545.053476 180.973784 
L 547.042781 183.597458 
L 549.032086 186.509955 
L 551.02139 189.689392 
L 555 196.751691 
L 558.97861 204.572483 
L 562.957219 212.917141 
L 574.893048 238.557605 
L 578.871658 246.451032 
L 580.860963 222.034434 
L 622.636364 222.034434 
L 622.636364 222.034434 
" clip-path="url(#p9344d5ca88)" style="fill: none; stroke: #da8bc3; stroke-width: 3; stroke-linecap: round"/>
   </g>
   <g id="line2d_19">
    <path d="M 115.363636 222.034434 
L 173.053476 222.034434 
L 175.042781 165.537137 
L 246.657754 165.537137 
L 248.647059 222.034434 
L 264.561497 222.034434 
L 270.529412 202.69109 
L 274.508021 190.299692 
L 278.486631 178.65213 
L 282.465241 168.021412 
L 284.454545 163.166332 
L 286.44385 158.656714 
L 288.433155 154.519021 
L 290.42246 150.777536 
L 292.411765 147.454214 
L 294.40107 144.568559 
L 296.390374 142.137504 
L 298.379679 140.175316 
L 300.368984 138.69351 
L 302.358289 137.700782 
L 304.347594 137.202957 
L 306.336898 137.202957 
L 308.326203 137.700782 
L 310.315508 138.69351 
L 312.304813 140.175316 
L 314.294118 142.137504 
L 316.283422 144.568559 
L 318.272727 147.454214 
L 320.262032 150.777536 
L 322.251337 154.519021 
L 324.240642 158.656714 
L 326.229947 163.166332 
L 328.219251 168.021412 
L 332.197861 178.65213 
L 336.176471 190.299692 
L 340.15508 202.69109 
L 346.122995 222.034434 
L 352.090909 222.034434 
L 354.080214 147.312371 
L 356.069519 147.418723 
L 358.058824 147.737475 
L 360.048128 148.267721 
L 362.037433 149.007951 
L 364.026738 149.956057 
L 366.016043 151.109342 
L 368.005348 152.464522 
L 369.994652 154.017739 
L 371.983957 155.764572 
L 373.973262 157.700048 
L 375.962567 159.818659 
L 377.951872 162.114372 
L 381.930481 167.210484 
L 385.909091 172.930397 
L 389.887701 179.20903 
L 393.86631 185.974942 
L 397.84492 193.151149 
L 403.812834 204.505098 
L 411.770053 220.288978 
L 421.716578 240.045468 
L 425.695187 247.667509 
L 427.684492 222.034434 
L 443.59893 222.034434 
L 519.192513 126.523088 
L 521.181818 222.034434 
L 533.117647 222.034434 
L 566.935829 135.47909 
L 568.925134 135.47909 
L 602.743316 222.034434 
L 622.636364 222.034434 
L 622.636364 222.034434 
" clip-path="url(#p9344d5ca88)" style="fill: none; stroke: #8c8c8c; stroke-width: 3; stroke-linecap: round"/>
   </g>
   <g id="line2d_20">
    <path d="M 115.363636 222.034434 
L 143.213904 222.034434 
L 145.203209 88.166351 
L 210.850267 88.166351 
L 212.839572 222.034434 
L 238.700535 222.034434 
L 240.68984 259.063279 
L 312.304813 222.034434 
L 334.187166 222.034434 
L 336.176471 147.422225 
L 338.165775 149.176503 
L 340.15508 154.356843 
L 342.144385 162.719646 
L 344.13369 173.871661 
L 346.122995 187.288477 
L 348.112299 202.339181 
L 354.080214 250.034783 
L 356.069519 264.285142 
L 358.058824 276.548708 
L 360.048128 286.248802 
L 362.037433 292.929287 
L 364.026738 296.276021 
L 366.016043 296.131627 
L 368.005348 292.502896 
L 369.994652 285.560465 
L 371.983957 275.630793 
L 373.973262 263.180813 
L 375.962567 248.79597 
L 383.919786 186.115539 
L 385.909091 172.862255 
L 387.898396 161.921238 
L 389.887701 222.034434 
L 431.663102 222.034434 
L 437.631016 197.073209 
L 441.609626 181.731289 
L 443.59893 174.725265 
L 445.588235 168.273899 
L 447.57754 162.452825 
L 449.566845 157.330292 
L 451.55615 152.966355 
L 453.545455 149.412178 
L 455.534759 146.709431 
L 457.524064 144.889801 
L 459.513369 143.974621 
L 461.502674 143.974621 
L 463.491979 144.889801 
L 465.481283 146.709431 
L 467.470588 149.412178 
L 469.459893 152.966355 
L 471.449198 157.330292 
L 473.438503 162.452825 
L 475.427807 168.273899 
L 477.417112 174.725265 
L 479.406417 181.731289 
L 483.385027 197.073209 
L 487.363636 213.582288 
L 489.352941 222.034434 
L 527.149733 222.034434 
L 551.02139 155.665227 
L 553.010695 155.665227 
L 576.882353 222.034434 
L 622.636364 222.034434 
L 622.636364 222.034434 
" clip-path="url(#p9344d5ca88)" style="fill: none; stroke: #ccb974; stroke-width: 3; stroke-linecap: round"/>
   </g>
   <g id="line2d_21">
    <path d="M 115.363636 222.034434 
L 163.106952 222.034434 
L 169.074866 194.20266 
L 173.053476 176.643149 
L 177.032086 160.542551 
L 179.02139 153.203359 
L 181.010695 146.418353 
L 183 140.242164 
L 184.989305 134.724518 
L 186.97861 129.909841 
L 188.967914 125.836896 
L 190.957219 122.538477 
L 192.946524 120.041142 
L 194.935829 118.364996 
L 196.925134 117.523536 
L 198.914439 117.523536 
L 200.903743 118.364996 
L 202.893048 120.041142 
L 204.882353 122.538477 
L 206.871658 125.836896 
L 208.860963 129.909841 
L 210.850267 134.724518 
L 212.839572 140.242164 
L 214.828877 146.418353 
L 216.818182 153.203359 
L 218.807487 160.542551 
L 222.786096 176.643149 
L 226.764706 194.20266 
L 232.73262 222.034434 
L 254.614973 222.034434 
L 286.44385 192.340227 
L 288.433155 192.340227 
L 320.262032 222.034434 
L 344.13369 222.034434 
L 346.122995 174.467984 
L 348.112299 174.633874 
L 350.101604 175.130386 
L 352.090909 175.954059 
L 354.080214 177.099145 
L 356.069519 178.557659 
L 358.058824 180.319428 
L 360.048128 182.372161 
L 362.037433 184.701543 
L 364.026738 187.291324 
L 366.016043 190.123441 
L 369.994652 196.434115 
L 373.973262 203.4578 
L 377.951872 210.998875 
L 393.86631 242.04464 
L 397.84492 248.942549 
L 399.834225 252.121716 
L 401.823529 222.034434 
L 435.641711 222.034434 
L 437.631016 129.043885 
L 497.31016 222.034434 
L 529.139037 222.034434 
L 590.807487 164.847989 
L 592.796791 222.034434 
L 622.636364 222.034434 
L 622.636364 222.034434 
" clip-path="url(#p9344d5ca88)" style="fill: none; stroke: #64b5cd; stroke-width: 3; stroke-linecap: round"/>
   </g>
   <g id="line2d_22">
    <path d="M 115.363636 222.034434 
L 175.042781 222.034434 
L 258.593583 183.976066 
L 260.582888 222.034434 
L 264.561497 222.034434 
L 268.540107 198.89827 
L 272.518717 177.215836 
L 274.508021 167.351486 
L 276.497326 158.349519 
L 278.486631 150.351901 
L 280.475936 143.484759 
L 282.465241 137.856393 
L 284.454545 133.555565 
L 286.44385 130.650101 
L 288.433155 129.185823 
L 290.42246 129.185823 
L 292.411765 130.650101 
L 294.40107 133.555565 
L 296.390374 137.856393 
L 298.379679 143.484759 
L 300.368984 150.351901 
L 302.358289 158.349519 
L 304.347594 167.351486 
L 306.336898 177.215836 
L 310.315508 198.89827 
L 314.294118 222.034434 
L 352.090909 222.034434 
L 354.080214 106.267793 
L 433.652406 222.034434 
L 441.609626 222.034434 
L 443.59893 119.339989 
L 445.588235 119.494706 
L 447.57754 119.958391 
L 449.566845 120.729647 
L 451.55615 121.806149 
L 453.545455 123.184655 
L 455.534759 124.86101 
L 457.524064 126.830163 
L 459.513369 129.086181 
L 461.502674 131.622267 
L 463.491979 134.430779 
L 465.481283 137.503253 
L 467.470588 140.830433 
L 469.459893 144.402293 
L 473.438503 152.236298 
L 477.417112 160.910919 
L 481.395722 170.321684 
L 485.374332 180.355252 
L 489.352941 190.890785 
L 495.320856 207.356429 
L 499.299465 218.582301 
L 501.28877 222.034434 
L 531.128342 222.034434 
L 533.117647 110.778703 
L 612.68984 110.778703 
L 614.679144 222.034434 
L 622.636364 222.034434 
L 622.636364 222.034434 
" clip-path="url(#p9344d5ca88)" style="fill: none; stroke: #4c72b0; stroke-width: 3; stroke-linecap: round"/>
   </g>
   <g id="line2d_23">
    <path d="M 115.363636 222.034434 
L 169.074866 222.034434 
L 238.700535 200.1244 
L 240.68984 222.034434 
L 260.582888 222.034434 
L 266.550802 197.206658 
L 270.529412 181.716313 
L 272.518717 174.517032 
L 274.508021 167.77537 
L 276.497326 161.556253 
L 278.486631 155.919574 
L 280.475936 150.919616 
L 282.465241 146.604534 
L 284.454545 143.015882 
L 286.44385 140.188223 
L 288.433155 138.148787 
L 290.42246 136.917216 
L 292.411765 136.50537 
L 294.40107 136.917216 
L 296.390374 138.148787 
L 298.379679 140.188223 
L 300.368984 143.015882 
L 302.358289 146.604534 
L 304.347594 150.919616 
L 306.336898 155.919574 
L 308.326203 161.556253 
L 310.315508 167.77537 
L 312.304813 174.517032 
L 316.283422 189.303879 
L 320.262032 205.348542 
L 324.240642 222.034434 
L 352.090909 222.034434 
L 389.887701 176.164633 
L 391.877005 176.164633 
L 429.673797 222.034434 
L 441.609626 222.034434 
L 443.59893 176.54182 
L 495.320856 176.54182 
L 497.31016 222.034434 
L 533.117647 222.034434 
L 535.106952 147.189232 
L 537.096257 147.32354 
L 539.085561 147.72598 
L 541.074866 148.395109 
L 543.064171 149.328525 
L 545.053476 150.522878 
L 547.042781 151.973882 
L 549.032086 153.676329 
L 551.02139 155.62411 
L 553.010695 157.810233 
L 555 160.226852 
L 556.989305 162.865296 
L 558.97861 165.716094 
L 562.957219 172.013102 
L 566.935829 179.027561 
L 570.914439 186.658862 
L 574.893048 194.797551 
L 580.860963 207.700004 
L 598.764706 247.455195 
L 602.743316 255.688506 
L 606.721925 263.43912 
L 610.700535 270.595872 
L 612.68984 222.034434 
L 622.636364 222.034434 
L 622.636364 222.034434 
" clip-path="url(#p9344d5ca88)" style="fill: none; stroke: #dd8452; stroke-width: 3; stroke-linecap: round"/>
   </g>
   <g id="line2d_24">
    <path d="M 115.363636 222.034434 
L 127.299465 222.034434 
L 129.28877 114.669249 
L 133.26738 114.75397 
L 137.245989 115.008001 
L 141.224599 115.430939 
L 145.203209 116.022118 
L 149.181818 116.780605 
L 153.160428 117.705202 
L 157.139037 118.79445 
L 161.117647 120.046631 
L 165.096257 121.459768 
L 171.064171 123.876319 
L 177.032086 126.641365 
L 183 129.745089 
L 188.967914 133.176473 
L 194.935829 136.923332 
L 200.903743 140.972365 
L 206.871658 145.309197 
L 210.850267 148.352743 
L 212.839572 222.034434 
L 226.764706 222.034434 
L 228.754011 121.877991 
L 296.390374 222.034434 
L 328.219251 222.034434 
L 336.176471 201.714322 
L 340.15508 191.972026 
L 344.13369 182.723354 
L 348.112299 174.120169 
L 352.090909 166.303734 
L 354.080214 162.731221 
L 356.069519 159.402397 
L 358.058824 156.330941 
L 360.048128 153.529475 
L 362.037433 151.009511 
L 364.026738 148.781403 
L 366.016043 146.854308 
L 368.005348 145.236144 
L 369.994652 143.933561 
L 371.983957 142.951911 
L 373.973262 142.295228 
L 375.962567 141.96621 
L 377.951872 141.96621 
L 379.941176 142.295228 
L 381.930481 142.951911 
L 383.919786 143.933561 
L 385.909091 145.236144 
L 387.898396 146.854308 
L 389.887701 148.781403 
L 391.877005 151.009511 
L 393.86631 153.529475 
L 395.855615 156.330941 
L 397.84492 159.402397 
L 399.834225 162.731221 
L 401.823529 166.303734 
L 405.802139 174.120169 
L 409.780749 182.723354 
L 413.759358 191.972026 
L 419.727273 206.720835 
L 425.695187 222.034434 
L 427.684492 222.034434 
L 457.524064 171.533708 
L 459.513369 171.533708 
L 489.352941 222.034434 
L 527.149733 222.034434 
L 584.839572 191.531115 
L 586.828877 222.034434 
L 622.636364 222.034434 
L 622.636364 222.034434 
" clip-path="url(#p9344d5ca88)" style="fill: none; stroke: #55a868; stroke-width: 3; stroke-linecap: round"/>
   </g>
   <g id="line2d_25">
    <path d="M 115.363636 222.034434 
L 171.064171 222.034434 
L 228.754011 195.373903 
L 230.743316 222.034434 
L 260.582888 222.034434 
L 298.379679 68.6592 
L 300.368984 68.6592 
L 338.165775 222.034434 
L 348.112299 222.034434 
L 350.101604 101.91932 
L 352.090909 102.91465 
L 354.080214 105.884145 
L 356.069519 110.778591 
L 358.058824 117.516874 
L 360.048128 125.987319 
L 362.037433 136.049547 
L 364.026738 147.536798 
L 366.016043 160.258693 
L 368.005348 174.004394 
L 371.983957 203.642793 
L 379.941176 264.525283 
L 381.930481 278.606469 
L 383.919786 291.750089 
L 385.909091 303.738317 
L 387.898396 314.372471 
L 389.887701 323.476313 
L 391.877005 330.898964 
L 393.86631 336.517411 
L 395.855615 340.238538 
L 397.84492 342.000677 
L 399.834225 341.774622 
L 401.823529 339.56412 
L 403.812834 335.405807 
L 405.802139 329.368596 
L 407.791444 321.552544 
L 409.780749 312.087184 
L 411.770053 301.129385 
L 413.759358 288.860751 
L 415.748663 275.484608 
L 419.727273 246.311206 
L 425.695187 200.180522 
L 427.684492 222.034434 
L 439.620321 222.034434 
L 445.588235 187.320741 
L 447.57754 176.483091 
L 449.566845 166.261444 
L 451.55615 156.794032 
L 453.545455 148.208884 
L 455.534759 140.6221 
L 457.524064 134.136278 
L 459.513369 128.839128 
L 461.502674 124.802284 
L 463.491979 122.080339 
L 465.481283 120.710101 
L 467.470588 120.710101 
L 469.459893 122.080339 
L 471.449198 124.802284 
L 473.438503 128.839128 
L 475.427807 134.136278 
L 477.417112 140.6221 
L 479.406417 148.208884 
L 481.395722 156.794032 
L 483.385027 166.261444 
L 485.374332 176.483091 
L 489.352941 198.627835 
L 493.331551 222.034434 
L 527.149733 222.034434 
L 529.139037 66.96 
L 596.775401 66.96 
L 598.764706 222.034434 
L 622.636364 222.034434 
L 622.636364 222.034434 
" clip-path="url(#p9344d5ca88)" style="fill: none; stroke: #c44e52; stroke-width: 3; stroke-linecap: round"/>
   </g>
   <g id="line2d_26">
    <path d="M 115.363636 222.034434 
L 167.085561 222.034434 
L 224.775401 173.476206 
L 226.764706 222.034434 
L 256.604278 222.034434 
L 258.593583 150.906249 
L 316.283422 222.034434 
L 348.112299 222.034434 
L 350.101604 146.15535 
L 352.090909 147.031961 
L 354.080214 149.641539 
L 356.069519 153.923789 
L 358.058824 159.779768 
L 360.048128 167.07417 
L 362.037433 175.638454 
L 364.026738 185.27474 
L 366.016043 195.760375 
L 369.994652 218.296567 
L 373.973262 241.176224 
L 375.962567 252.083754 
L 377.951872 262.296981 
L 379.941176 271.579922 
L 381.930481 279.718091 
L 383.919786 286.523453 
L 385.909091 291.838765 
L 387.898396 295.541216 
L 389.887701 297.545258 
L 391.877005 297.804587 
L 393.86631 296.313211 
L 395.855615 293.105589 
L 397.84492 288.255835 
L 399.834225 222.034434 
L 439.620321 222.034434 
L 441.609626 151.806658 
L 487.363636 151.806658 
L 489.352941 222.034434 
L 533.117647 222.034434 
L 558.97861 165.710418 
L 560.967914 165.710418 
L 586.828877 222.034434 
L 622.636364 222.034434 
L 622.636364 222.034434 
" clip-path="url(#p9344d5ca88)" style="fill: none; stroke: #8172b3; stroke-width: 3; stroke-linecap: round"/>
   </g>
   <g id="line2d_27">
    <path d="M 115.363636 222.034434 
L 147.192513 222.034434 
L 149.181818 197.359441 
L 198.914439 197.359441 
L 200.903743 222.034434 
L 244.668449 222.034434 
L 276.497326 188.598598 
L 278.486631 188.598598 
L 310.315508 222.034434 
L 338.165775 222.034434 
L 340.15508 145.781329 
L 419.727273 222.034434 
L 435.641711 222.034434 
L 511.235294 187.495466 
L 513.224599 222.034434 
L 531.128342 222.034434 
L 537.096257 195.996682 
L 541.074866 179.316829 
L 545.053476 163.638241 
L 549.032086 149.328409 
L 551.02139 142.793067 
L 553.010695 136.722745 
L 555 131.153066 
L 556.989305 126.116715 
L 558.97861 121.643248 
L 560.967914 117.758915 
L 562.957219 114.486513 
L 564.946524 111.845245 
L 566.935829 109.850611 
L 568.925134 108.514316 
L 570.914439 107.844202 
L 572.903743 107.844202 
L 574.893048 108.514316 
L 576.882353 109.850611 
L 578.871658 111.845245 
L 580.860963 114.486513 
L 582.850267 117.758915 
L 584.839572 121.643248 
L 586.828877 126.116715 
L 588.818182 131.153066 
L 590.807487 136.722745 
L 592.796791 142.793067 
L 594.786096 149.328409 
L 598.764706 163.638241 
L 602.743316 179.316829 
L 606.721925 195.996682 
L 612.68984 222.034434 
L 622.636364 222.034434 
L 622.636364 222.034434 
" clip-path="url(#p9344d5ca88)" style="fill: none; stroke: #937860; stroke-width: 3; stroke-linecap: round"/>
   </g>
   <g id="line2d_28">
    <path d="M 115.363636 222.034434 
L 135.256684 222.034434 
L 137.245989 72.031146 
L 184.989305 222.034434 
L 232.73262 222.034434 
L 234.721925 157.82223 
L 236.71123 157.897159 
L 238.700535 158.121771 
L 240.68984 158.495541 
L 242.679144 159.017597 
L 244.668449 159.686722 
L 246.657754 160.501352 
L 248.647059 161.459588 
L 250.636364 162.559193 
L 252.625668 163.7976 
L 256.604278 166.678945 
L 260.582888 170.076739 
L 264.561497 173.959284 
L 268.540107 178.290355 
L 272.518717 183.029546 
L 276.497326 188.132641 
L 280.475936 193.552029 
L 286.44385 202.162869 
L 292.411765 211.190443 
L 314.294118 244.76067 
L 316.283422 247.634568 
L 318.272727 222.034434 
L 332.197861 222.034434 
L 338.165775 190.359713 
L 342.144385 170.256683 
L 346.122995 151.643205 
L 348.112299 143.06449 
L 350.101604 135.054755 
L 352.090909 127.67171 
L 354.080214 120.968551 
L 356.069519 114.993574 
L 358.058824 109.789829 
L 360.048128 105.394809 
L 362.037433 101.84018 
L 364.026738 99.151554 
L 366.016043 97.348301 
L 368.005348 96.443415 
L 369.994652 96.443415 
L 371.983957 97.348301 
L 373.973262 99.151554 
L 375.962567 101.84018 
L 377.951872 105.394809 
L 379.941176 109.789829 
L 381.930481 114.993574 
L 383.919786 120.968551 
L 385.909091 127.67171 
L 387.898396 135.054755 
L 389.887701 143.06449 
L 391.877005 151.643205 
L 395.855615 170.256683 
L 399.834225 190.359713 
L 405.802139 222.034434 
L 429.673797 222.034434 
L 453.545455 200.168133 
L 455.534759 200.168133 
L 479.406417 222.034434 
L 525.160428 222.034434 
L 527.149733 170.01153 
L 598.764706 170.01153 
L 600.754011 222.034434 
L 622.636364 222.034434 
L 622.636364 222.034434 
" clip-path="url(#p9344d5ca88)" style="fill: none; stroke: #da8bc3; stroke-width: 3; stroke-linecap: round"/>
   </g>
   <g id="line2d_29">
    <path d="M 115.363636 222.034434 
L 161.117647 222.034434 
L 163.106952 107.483282 
L 210.850267 107.483282 
L 212.839572 222.034434 
L 252.625668 222.034434 
L 254.614973 74.702298 
L 256.604278 75.692532 
L 258.593583 78.649921 
L 260.582888 83.534712 
L 262.572193 90.281242 
L 264.561497 98.798825 
L 266.550802 108.972963 
L 268.540107 120.666896 
L 270.529412 133.72343 
L 272.518717 147.967058 
L 276.497326 179.236348 
L 282.465241 229.88067 
L 286.44385 263.499193 
L 290.42246 294.8957 
L 292.411765 309.22774 
L 294.40107 322.387712 
L 296.390374 334.198716 
L 298.379679 344.501986 
L 300.368984 353.159023 
L 302.358289 360.05346 
L 304.347594 365.092618 
L 306.336898 368.20876 
L 308.326203 369.36 
L 310.315508 222.034434 
L 346.122995 222.034434 
L 407.791444 149.017383 
L 409.780749 222.034434 
L 437.631016 222.034434 
L 443.59893 189.384425 
L 447.57754 169.439963 
L 449.566845 160.398834 
L 451.55615 152.132809 
L 453.545455 144.745837 
L 455.534759 138.330813 
L 457.524064 132.968412 
L 459.513369 128.726067 
L 461.502674 125.657129 
L 463.491979 123.800192 
L 465.481283 123.178607 
L 467.470588 123.800192 
L 469.459893 125.657129 
L 471.449198 128.726067 
L 473.438503 132.968412 
L 475.427807 138.330813 
L 477.417112 144.745837 
L 479.406417 152.132809 
L 481.395722 160.398834 
L 483.385027 169.439963 
L 487.363636 189.384425 
L 491.342246 210.966094 
L 493.331551 222.034434 
L 529.139037 222.034434 
L 551.02139 86.706607 
L 553.010695 86.706607 
L 574.893048 222.034434 
L 622.636364 222.034434 
L 622.636364 222.034434 
" clip-path="url(#p9344d5ca88)" style="fill: none; stroke: #8c8c8c; stroke-width: 3; stroke-linecap: round"/>
   </g>
   <g id="line2d_30">
    <path d="M 115.363636 222.034434 
L 117.352941 88.031748 
L 119.342246 88.572643 
L 121.331551 90.190961 
L 123.320856 92.873639 
L 125.31016 96.599018 
L 127.299465 101.337025 
L 129.28877 107.049409 
L 131.278075 113.690056 
L 133.26738 121.205357 
L 135.256684 129.53464 
L 137.245989 138.610664 
L 139.235294 148.360161 
L 143.213904 169.559939 
L 147.192513 192.450784 
L 161.117647 275.025333 
L 165.096257 296.177269 
L 167.085561 305.897065 
L 169.074866 314.939847 
L 171.064171 323.232612 
L 173.053476 330.708415 
L 175.042781 337.306904 
L 177.032086 342.97481 
L 179.02139 347.666377 
L 181.010695 351.34373 
L 183 353.977182 
L 184.989305 355.545473 
L 186.97861 356.035944 
L 188.967914 355.444634 
L 190.957219 353.776317 
L 192.946524 351.044461 
L 194.935829 347.271121 
L 196.925134 342.486757 
L 198.914439 336.729994 
L 200.903743 222.034434 
L 218.807487 222.034434 
L 282.465241 110.183648 
L 284.454545 222.034434 
L 318.272727 222.034434 
L 320.262032 86.952169 
L 411.770053 222.034434 
L 419.727273 222.034434 
L 421.716578 68.536416 
L 509.245989 68.536416 
L 511.235294 222.034434 
L 523.171123 222.034434 
L 562.957219 146.009224 
L 564.946524 146.009224 
L 604.73262 222.034434 
L 622.636364 222.034434 
L 622.636364 222.034434 
" clip-path="url(#p9344d5ca88)" style="fill: none; stroke: #ccb974; stroke-width: 3; stroke-linecap: round"/>
   </g>
   <g id="line2d_31">
    <path d="M 115.363636 222.034434 
L 127.299465 222.034434 
L 129.28877 167.012371 
L 220.796791 222.034434 
L 228.754011 222.034434 
L 236.71123 196.175495 
L 240.68984 183.823881 
L 244.668449 172.154135 
L 248.647059 161.374504 
L 252.625668 151.677351 
L 254.614973 147.289622 
L 256.604278 143.235722 
L 258.593583 139.533756 
L 260.582888 136.200258 
L 262.572193 133.250116 
L 264.561497 130.696507 
L 266.550802 128.550834 
L 268.540107 126.822683 
L 270.529412 125.51977 
L 272.518717 124.647915 
L 274.508021 124.211012 
L 276.497326 124.211012 
L 278.486631 124.647915 
L 280.475936 125.51977 
L 282.465241 126.822683 
L 284.454545 128.550834 
L 286.44385 130.696507 
L 288.433155 133.250116 
L 290.42246 136.200258 
L 292.411765 139.533756 
L 294.40107 143.235722 
L 296.390374 147.289622 
L 298.379679 151.677351 
L 300.368984 156.379312 
L 304.347594 166.640619 
L 308.326203 177.890429 
L 312.304813 189.927991 
L 318.272727 208.988563 
L 322.251337 222.034434 
L 326.229947 222.034434 
L 328.219251 171.320393 
L 383.919786 171.320393 
L 385.909091 222.034434 
L 425.695187 222.034434 
L 427.684492 180.031022 
L 431.663102 180.178306 
L 435.641711 180.619124 
L 439.620321 181.350387 
L 443.59893 182.366964 
L 447.57754 183.661727 
L 451.55615 185.225596 
L 455.534759 187.047604 
L 459.513369 189.114972 
L 463.491979 191.413203 
L 467.470588 193.926179 
L 471.449198 196.636276 
L 477.417112 201.029106 
L 483.385027 205.753138 
L 487.363636 209.049892 
L 489.352941 222.034434 
L 527.149733 222.034434 
L 564.946524 160.758105 
L 566.935829 160.758105 
L 604.73262 222.034434 
L 622.636364 222.034434 
L 622.636364 222.034434 
" clip-path="url(#p9344d5ca88)" style="fill: none; stroke: #64b5cd; stroke-width: 3; stroke-linecap: round"/>
   </g>
   <g id="patch_3">
    <path d="M 90 384.48 
L 90 51.84 
" style="fill: none; stroke: #ffffff; stroke-width: 1.25; stroke-linejoin: miter; stroke-linecap: square"/>
   </g>
   <g id="patch_4">
    <path d="M 648 384.48 
L 648 51.84 
" style="fill: none; stroke: #ffffff; stroke-width: 1.25; stroke-linejoin: miter; stroke-linecap: square"/>
   </g>
   <g id="patch_5">
    <path d="M 90 384.48 
L 648 384.48 
" style="fill: none; stroke: #ffffff; stroke-width: 1.25; stroke-linejoin: miter; stroke-linecap: square"/>
   </g>
   <g id="patch_6">
    <path d="M 90 51.84 
L 648 51.84 
" style="fill: none; stroke: #ffffff; stroke-width: 1.25; stroke-linejoin: miter; stroke-linecap: square"/>
   </g>
   <g id="text_14">
    <!-- Illustration of Stochasticity in Signal Generation -->
    <g style="fill: #262626" transform="translate(78.383939 45.84) scale(0.3 -0.3)">
     <defs>
      <path id="CMR17-49" d="M 1261 3898 
C 1261 4185 1338 4185 1798 4185 
L 1798 4352 
C 1594 4339 1267 4339 1050 4339 
C 832 4339 506 4339 301 4352 
L 301 4185 
C 762 4185 838 4185 838 3898 
L 838 453 
C 838 166 762 166 301 166 
L 301 0 
C 506 12 832 12 1050 12 
C 1267 12 1594 12 1798 0 
L 1798 166 
C 1338 166 1261 166 1261 453 
L 1261 3898 
z
" transform="scale(0.015625)"/>
      <path id="CMR17-73" d="M 1978 2688 
C 1978 2803 1971 2809 1933 2809 
C 1907 2809 1901 2803 1824 2707 
C 1805 2681 1747 2617 1728 2592 
C 1523 2809 1235 2816 1126 2816 
C 416 2816 160 2444 160 2073 
C 160 1497 813 1363 998 1324 
C 1402 1241 1542 1216 1677 1100 
C 1760 1024 1901 883 1901 652 
C 1901 384 1747 38 1158 38 
C 602 38 403 460 288 1024 
C 269 1113 269 1120 218 1120 
C 166 1120 160 1113 160 985 
L 160 64 
C 160 -52 166 -58 205 -58 
C 237 -58 243 -52 275 0 
C 314 57 410 211 448 275 
C 576 102 800 -64 1158 -64 
C 1792 -64 2131 281 2131 780 
C 2131 1107 1958 1280 1875 1356 
C 1683 1555 1459 1600 1190 1651 
C 838 1728 390 1817 390 2208 
C 390 2374 480 2726 1126 2726 
C 1811 2726 1850 2086 1862 1881 
C 1869 1849 1901 1843 1920 1843 
C 1978 1843 1978 1862 1978 1971 
L 1978 2688 
z
" transform="scale(0.015625)"/>
      <path id="CMR17-72" d="M 960 1517 
C 960 2134 1222 2713 1702 2713 
C 1747 2713 1792 2707 1837 2687 
C 1837 2687 1696 2642 1696 2475 
C 1696 2321 1818 2257 1914 2257 
C 1990 2257 2131 2302 2131 2482 
C 2131 2687 1926 2816 1709 2816 
C 1222 2816 1011 2340 947 2115 
L 941 2115 
L 941 2816 
L 198 2745 
L 198 2578 
C 576 2578 634 2540 634 2231 
L 634 443 
C 634 198 608 166 198 166 
L 198 0 
C 352 12 646 12 813 12 
C 998 12 1325 12 1498 0 
L 1498 166 
C 1037 166 960 166 960 455 
L 960 1517 
z
" transform="scale(0.015625)"/>
      <path id="CMR17-61" d="M 2304 1656 
C 2304 2048 2304 2275 2035 2534 
C 1798 2751 1523 2816 1306 2816 
C 800 2816 435 2408 435 1977 
C 435 1740 627 1728 666 1728 
C 749 1728 896 1779 896 1958 
C 896 2118 774 2188 666 2188 
C 640 2188 608 2182 589 2176 
C 723 2594 1069 2713 1293 2713 
C 1613 2713 1965 2421 1965 1875 
L 1965 1632 
C 1587 1619 1133 1568 774 1373 
C 371 1147 256 822 256 576 
C 256 77 832 -64 1171 -64 
C 1523 -64 1850 135 1990 505 
C 2003 219 2182 -39 2464 -39 
C 2598 -39 2938 51 2938 563 
L 2938 926 
L 2822 926 
L 2822 557 
C 2822 161 2650 109 2566 109 
C 2304 109 2304 446 2304 732 
L 2304 1656 
z
M 1965 887 
C 1965 323 1568 38 1216 38 
C 896 38 646 278 646 576 
C 646 771 730 1114 1101 1322 
C 1408 1497 1760 1523 1965 1536 
L 1965 887 
z
" transform="scale(0.015625)"/>
      <path id="CMR17-6f" d="M 2758 1356 
C 2758 2176 2163 2816 1466 2816 
C 768 2816 173 2176 173 1356 
C 173 550 768 -64 1466 -64 
C 2163 -64 2758 550 2758 1356 
z
M 1466 51 
C 1165 51 909 230 762 480 
C 602 768 582 1126 582 1408 
C 582 1676 595 2009 762 2297 
C 890 2508 1139 2713 1466 2713 
C 1754 2713 1997 2553 2150 2329 
C 2349 2028 2349 1606 2349 1408 
C 2349 1158 2336 774 2163 467 
C 1984 172 1709 51 1466 51 
z
" transform="scale(0.015625)"/>
      <path id="CMR17-6e" d="M 2656 1954 
C 2656 2282 2592 2816 1837 2816 
C 1331 2816 1069 2424 973 2166 
L 966 2166 
L 966 2816 
L 211 2745 
L 211 2578 
C 589 2578 646 2540 646 2231 
L 646 443 
C 646 198 621 166 211 166 
L 211 0 
C 365 12 646 12 813 12 
C 979 12 1267 12 1421 0 
L 1421 166 
C 1011 166 986 192 986 443 
L 986 1678 
C 986 2269 1344 2713 1792 2713 
C 2266 2713 2317 2289 2317 1980 
L 2317 443 
C 2317 198 2291 166 1882 166 
L 1882 0 
C 2035 12 2317 12 2483 12 
C 2650 12 2938 12 3091 0 
L 3091 166 
C 2682 166 2656 192 2656 443 
L 2656 1954 
z
" transform="scale(0.015625)"/>
      <path id="CMR17-66" d="M 979 2585 
L 1709 2585 
L 1709 2752 
L 966 2752 
L 966 3539 
C 966 4076 1235 4377 1510 4377 
C 1594 4377 1690 4363 1754 4339 
C 1702 4326 1568 4281 1568 4121 
C 1568 3955 1696 3904 1786 3904 
C 1875 3904 2003 3955 2003 4121 
C 2003 4353 1773 4480 1517 4480 
C 1152 4480 653 4211 653 3526 
L 653 2752 
L 141 2752 
L 141 2585 
L 653 2585 
L 653 441 
C 653 198 627 166 218 166 
L 218 0 
C 371 12 666 12 832 12 
C 1018 12 1344 12 1517 0 
L 1517 166 
C 1056 166 979 166 979 454 
L 979 2585 
z
" transform="scale(0.015625)"/>
      <path id="CMR17-53" d="M 2803 4351 
C 2803 4467 2797 4473 2758 4473 
C 2720 4473 2707 4447 2682 4390 
L 2490 3965 
C 2246 4320 1875 4480 1472 4480 
C 819 4480 294 3958 294 3301 
C 294 3101 339 2817 557 2546 
C 794 2250 1018 2198 1530 2063 
C 1722 2011 2042 1927 2106 1901 
C 2470 1747 2662 1360 2662 999 
C 2662 534 2336 38 1779 38 
C 1094 38 454 425 410 1328 
C 403 1431 397 1437 352 1437 
C 301 1437 294 1431 294 1302 
L 294 0 
C 294 -116 301 -122 339 -122 
C 384 -122 397 -90 486 109 
C 493 128 493 141 614 386 
C 934 -39 1472 -128 1779 -128 
C 2477 -128 2970 457 2970 1141 
C 2970 1476 2848 1734 2778 1850 
C 2509 2263 2221 2340 1914 2417 
C 1869 2437 1856 2437 1498 2527 
C 1152 2617 1005 2662 845 2836 
C 666 3036 602 3243 602 3449 
C 602 3868 934 4326 1478 4326 
C 2157 4326 2579 3842 2675 3036 
C 2694 2920 2701 2914 2746 2914 
C 2803 2914 2803 2933 2803 3043 
L 2803 4351 
z
" transform="scale(0.015625)"/>
      <path id="CMR17-63" d="M 2234 2240 
C 2112 2240 1933 2240 1933 2015 
C 1933 1836 2080 1785 2163 1785 
C 2208 1785 2394 1804 2394 2028 
C 2394 2476 1958 2816 1466 2816 
C 787 2816 211 2201 211 1379 
C 211 521 813 -64 1466 -64 
C 2259 -64 2458 676 2458 747 
C 2458 773 2451 792 2406 792 
C 2362 792 2355 786 2330 702 
C 2163 180 1798 51 1523 51 
C 1114 51 621 431 621 1385 
C 621 2358 1094 2700 1472 2700 
C 1722 2700 2093 2582 2234 2240 
z
" transform="scale(0.015625)"/>
      <path id="CMR17-68" d="M 2656 1954 
C 2656 2282 2592 2816 1837 2816 
C 1312 2816 1056 2392 979 2179 
L 973 2179 
L 973 4416 
L 211 4345 
L 211 4179 
C 589 4179 646 4141 646 3843 
L 646 443 
C 646 198 621 166 211 166 
L 211 0 
C 365 12 646 12 813 12 
C 979 12 1267 12 1421 0 
L 1421 166 
C 1011 166 986 192 986 443 
L 986 1678 
C 986 2269 1344 2713 1792 2713 
C 2266 2713 2317 2289 2317 1980 
L 2317 443 
C 2317 198 2291 166 1882 166 
L 1882 0 
C 2035 12 2317 12 2483 12 
C 2650 12 2938 12 3091 0 
L 3091 166 
C 2682 166 2656 192 2656 443 
L 2656 1954 
z
" transform="scale(0.015625)"/>
      <path id="CMR17-79" d="M 2496 2183 
C 2656 2579 2944 2585 3034 2585 
L 3034 2752 
C 2912 2745 2752 2739 2630 2739 
C 2496 2739 2285 2739 2157 2752 
L 2157 2585 
C 2400 2566 2406 2384 2406 2332 
C 2406 2268 2394 2235 2362 2158 
L 1664 409 
L 902 2300 
C 870 2378 870 2423 870 2430 
C 870 2572 1018 2585 1171 2585 
L 1171 2752 
C 1018 2739 742 2739 582 2739 
C 410 2739 205 2739 64 2752 
L 64 2585 
C 410 2585 448 2553 531 2345 
L 1485 -31 
C 1197 -795 1030 -1242 627 -1242 
C 557 -1242 397 -1223 282 -1106 
C 429 -1093 493 -1002 493 -892 
C 493 -782 416 -685 288 -685 
C 147 -685 77 -782 77 -899 
C 77 -1158 339 -1344 627 -1344 
C 998 -1344 1229 -983 1357 -659 
L 2496 2183 
z
" transform="scale(0.015625)"/>
      <path id="CMR17-67" d="M 710 1165 
C 832 1068 1043 960 1299 960 
C 1805 960 2240 1359 2240 1895 
C 2240 2063 2189 2321 1997 2521 
C 2176 2713 2438 2777 2586 2777 
C 2611 2777 2650 2777 2682 2758 
C 2656 2751 2598 2726 2598 2623 
C 2598 2540 2656 2483 2739 2483 
C 2835 2483 2886 2547 2886 2630 
C 2886 2751 2790 2880 2586 2880 
C 2330 2880 2106 2758 1926 2591 
C 1734 2764 1504 2828 1299 2828 
C 794 2828 358 2431 358 1895 
C 358 1527 570 1294 634 1230 
C 442 1004 442 742 442 710 
C 442 544 506 300 723 166 
C 390 82 128 -184 128 -517 
C 128 -996 736 -1344 1466 -1344 
C 2170 -1344 2803 -1009 2803 -510 
C 2803 384 1856 384 1363 384 
C 1216 384 954 384 922 390 
C 723 422 589 601 589 825 
C 589 883 589 1024 710 1165 
z
M 1299 1068 
C 736 1068 736 1766 736 1895 
C 736 2024 736 2719 1299 2719 
C 1862 2719 1862 2024 1862 1895 
C 1862 1766 1862 1068 1299 1068 
z
M 1466 -1236 
C 826 -1236 384 -883 384 -517 
C 384 -311 493 -118 634 -11 
C 794 102 858 102 1293 102 
C 1818 102 2547 102 2547 -517 
C 2547 -883 2106 -1236 1466 -1236 
z
" transform="scale(0.015625)"/>
      <path id="CMR17-47" d="M 3974 1258 
C 3974 1503 3994 1536 4390 1536 
L 4390 1702 
C 4237 1689 3891 1689 3718 1689 
C 3539 1689 3040 1696 2797 1702 
L 2797 1536 
L 2989 1536 
C 3539 1536 3552 1464 3552 1232 
L 3552 806 
C 3552 96 2720 38 2522 38 
C 1862 38 781 496 781 2179 
C 781 3862 1843 4313 2464 4313 
C 3187 4313 3712 3681 3834 2785 
C 3846 2708 3846 2695 3904 2695 
C 3974 2695 3974 2708 3974 2824 
L 3974 4351 
C 3974 4467 3968 4473 3930 4473 
C 3904 4473 3898 4467 3853 4390 
L 3571 3849 
C 3258 4249 2874 4480 2381 4480 
C 1286 4480 294 3507 294 2179 
C 294 858 1267 -128 2394 -128 
C 2912 -128 3418 57 3616 425 
C 3725 161 3904 -20 3936 -20 
C 3968 -20 3974 -13 3974 102 
L 3974 1258 
z
" transform="scale(0.015625)"/>
     </defs>
     <use xlink:href="#CMR17-49" transform="scale(0.996264)"/>
     <use xlink:href="#CMR17-6c" transform="translate(32.638409 0) scale(0.996264)"/>
     <use xlink:href="#CMR17-6c" transform="translate(57.509468 0) scale(0.996264)"/>
     <use xlink:href="#CMR17-75" transform="translate(82.380526 0) scale(0.996264)"/>
     <use xlink:href="#CMR17-73" transform="translate(133.275896 0) scale(0.996264)"/>
     <use xlink:href="#CMR17-74" transform="translate(169.077234 0) scale(0.996264)"/>
     <use xlink:href="#CMR17-72" transform="translate(204.358001 0) scale(0.996264)"/>
     <use xlink:href="#CMR17-61" transform="translate(239.638769 0) scale(0.996264)"/>
     <use xlink:href="#CMR17-74" transform="translate(285.329246 0) scale(0.996264)"/>
     <use xlink:href="#CMR17-69" transform="translate(320.610014 0) scale(0.996264)"/>
     <use xlink:href="#CMR17-6f" transform="translate(345.481073 0) scale(0.996264)"/>
     <use xlink:href="#CMR17-6e" transform="translate(391.17155 0) scale(0.996264)"/>
     <use xlink:href="#CMR17-6f" transform="translate(472.142886 0) scale(0.996264)"/>
     <use xlink:href="#CMR17-66" transform="translate(517.833363 0) scale(0.996264)"/>
     <use xlink:href="#CMR17-53" transform="translate(575.382842 0) scale(0.996264)"/>
     <use xlink:href="#CMR17-74" transform="translate(626.278211 0) scale(0.996264)"/>
     <use xlink:href="#CMR17-6f" transform="translate(661.558979 0) scale(0.996264)"/>
     <use xlink:href="#CMR17-63" transform="translate(709.851895 0) scale(0.996264)"/>
     <use xlink:href="#CMR17-68" transform="translate(747.735102 0) scale(0.996264)"/>
     <use xlink:href="#CMR17-61" transform="translate(798.630471 0) scale(0.996264)"/>
     <use xlink:href="#CMR17-73" transform="translate(844.320949 0) scale(0.996264)"/>
     <use xlink:href="#CMR17-74" transform="translate(880.122286 0) scale(0.996264)"/>
     <use xlink:href="#CMR17-69" transform="translate(915.403054 0) scale(0.996264)"/>
     <use xlink:href="#CMR17-63" transform="translate(940.274112 0) scale(0.996264)"/>
     <use xlink:href="#CMR17-69" transform="translate(980.759773 0) scale(0.996264)"/>
     <use xlink:href="#CMR17-74" transform="translate(1005.630831 0) scale(0.996264)"/>
     <use xlink:href="#CMR17-79" transform="translate(1038.309145 0) scale(0.996264)"/>
     <use xlink:href="#CMR17-69" transform="translate(1116.678027 0) scale(0.996264)"/>
     <use xlink:href="#CMR17-6e" transform="translate(1141.549086 0) scale(0.996264)"/>
     <use xlink:href="#CMR17-53" transform="translate(1222.520422 0) scale(0.996264)"/>
     <use xlink:href="#CMR17-69" transform="translate(1273.415792 0) scale(0.996264)"/>
     <use xlink:href="#CMR17-67" transform="translate(1298.28685 0) scale(0.996264)"/>
     <use xlink:href="#CMR17-6e" transform="translate(1343.977327 0) scale(0.996264)"/>
     <use xlink:href="#CMR17-61" transform="translate(1394.872697 0) scale(0.996264)"/>
     <use xlink:href="#CMR17-6c" transform="translate(1440.563174 0) scale(0.996264)"/>
     <use xlink:href="#CMR17-47" transform="translate(1495.510199 0) scale(0.996264)"/>
     <use xlink:href="#CMR17-65" transform="translate(1567.865545 0) scale(0.996264)"/>
     <use xlink:href="#CMR17-6e" transform="translate(1608.351206 0) scale(0.996264)"/>
     <use xlink:href="#CMR17-65" transform="translate(1659.246575 0) scale(0.996264)"/>
     <use xlink:href="#CMR17-72" transform="translate(1699.732236 0) scale(0.996264)"/>
     <use xlink:href="#CMR17-61" transform="translate(1735.013004 0) scale(0.996264)"/>
     <use xlink:href="#CMR17-74" transform="translate(1780.703481 0) scale(0.996264)"/>
     <use xlink:href="#CMR17-69" transform="translate(1815.984249 0) scale(0.996264)"/>
     <use xlink:href="#CMR17-6f" transform="translate(1840.855307 0) scale(0.996264)"/>
     <use xlink:href="#CMR17-6e" transform="translate(1886.545784 0) scale(0.996264)"/>
    </g>
   </g>
  </g>
 </g>
 <defs>
  <clipPath id="p9344d5ca88">
   <rect x="90" y="51.84" width="558" height="332.64"/>
  </clipPath>
 </defs>
</svg>
