<?xml version="1.0" encoding="utf-8" standalone="no"?>
<!DOCTYPE svg PUBLIC "-//W3C//DTD SVG 1.1//EN"
  "http://www.w3.org/Graphics/SVG/1.1/DTD/svg11.dtd">
<svg xmlns:xlink="http://www.w3.org/1999/xlink" width="720pt" height="432pt" viewBox="0 0 720 432" xmlns="http://www.w3.org/2000/svg" version="1.1">
 <metadata>
  <rdf:RDF xmlns:dc="http://purl.org/dc/elements/1.1/" xmlns:cc="http://creativecommons.org/ns#" xmlns:rdf="http://www.w3.org/1999/02/22-rdf-syntax-ns#">
   <cc:Work>
    <dc:type rdf:resource="http://purl.org/dc/dcmitype/StillImage"/>
    <dc:date>2025-05-11T18:07:38.089091</dc:date>
    <dc:format>image/svg+xml</dc:format>
    <dc:creator>
     <cc:Agent>
      <dc:title>Matplotlib v3.10.0, https://matplotlib.org/</dc:title>
     </cc:Agent>
    </dc:creator>
   </cc:Work>
  </rdf:RDF>
 </metadata>
 <defs>
  <style type="text/css">*{stroke-linejoin: round; stroke-linecap: butt}</style>
 </defs>
 <g id="figure_1">
  <g id="patch_1">
   <path d="M 0 432 
L 720 432 
L 720 0 
L 0 0 
z
" style="fill: #ffffff"/>
  </g>
  <g id="axes_1">
   <g id="patch_2">
    <path d="M 90 384.48 
L 648 384.48 
L 648 51.84 
L 90 51.84 
z
" style="fill: #ffffff"/>
   </g>
   <g id="matplotlib.axis_1">
    <g id="xtick_1">
     <g id="line2d_1">
      <path d="M 115.363636 384.48 
L 115.363636 51.84 
" clip-path="url(#p39f64bbe59)" style="fill: none; stroke: #cccccc; stroke-linecap: round"/>
     </g>
     <g id="text_1">
      <!-- $\mathdefault{0}$ -->
      <g style="fill: #262626" transform="translate(109.081196 413.005867) scale(0.275 -0.275)">
       <defs>
        <path id="CMR17-30" d="M 2688 2038 
C 2688 2430 2682 3099 2413 3613 
C 2176 4063 1798 4224 1466 4224 
C 1158 4224 768 4082 525 3620 
C 269 3137 243 2539 243 2038 
C 243 1671 250 1112 448 623 
C 723 -39 1216 -128 1466 -128 
C 1760 -128 2208 -7 2470 604 
C 2662 1048 2688 1568 2688 2038 
z
M 1466 -26 
C 1056 -26 813 328 723 816 
C 653 1196 653 1749 653 2109 
C 653 2604 653 3015 736 3407 
C 858 3954 1216 4121 1466 4121 
C 1728 4121 2067 3947 2189 3420 
C 2272 3054 2278 2623 2278 2109 
C 2278 1691 2278 1176 2202 797 
C 2067 96 1690 -26 1466 -26 
z
" transform="scale(0.015625)"/>
       </defs>
       <use xlink:href="#CMR17-30" transform="scale(0.996264)"/>
      </g>
     </g>
    </g>
    <g id="xtick_2">
     <g id="line2d_2">
      <path d="M 214.828877 384.48 
L 214.828877 51.84 
" clip-path="url(#p39f64bbe59)" style="fill: none; stroke: #cccccc; stroke-linecap: round"/>
     </g>
     <g id="text_2">
      <!-- $\mathdefault{50}$ -->
      <g style="fill: #262626" transform="translate(202.263996 413.005867) scale(0.275 -0.275)">
       <defs>
        <path id="CMR17-35" d="M 730 3750 
C 794 3724 1056 3641 1325 3641 
C 1920 3641 2246 3961 2432 4140 
C 2432 4191 2432 4224 2394 4224 
C 2387 4224 2374 4224 2323 4198 
C 2099 4102 1837 4032 1517 4032 
C 1325 4032 1037 4055 723 4191 
C 653 4224 640 4224 634 4224 
C 602 4224 595 4217 595 4090 
L 595 2231 
C 595 2113 595 2080 659 2080 
C 691 2080 704 2093 736 2139 
C 941 2435 1222 2560 1542 2560 
C 1766 2560 2246 2415 2246 1293 
C 2246 1087 2246 716 2054 422 
C 1894 159 1645 25 1370 25 
C 947 25 518 319 403 812 
C 429 806 480 793 506 793 
C 589 793 749 838 749 1036 
C 749 1209 627 1280 506 1280 
C 358 1280 262 1190 262 1011 
C 262 454 704 -128 1382 -128 
C 2042 -128 2669 441 2669 1267 
C 2669 2054 2170 2662 1549 2662 
C 1222 2662 947 2540 730 2304 
L 730 3750 
z
" transform="scale(0.015625)"/>
       </defs>
       <use xlink:href="#CMR17-35" transform="scale(0.996264)"/>
       <use xlink:href="#CMR17-30" transform="translate(45.690477 0) scale(0.996264)"/>
      </g>
     </g>
    </g>
    <g id="xtick_3">
     <g id="line2d_3">
      <path d="M 314.294118 384.48 
L 314.294118 51.84 
" clip-path="url(#p39f64bbe59)" style="fill: none; stroke: #cccccc; stroke-linecap: round"/>
     </g>
     <g id="text_3">
      <!-- $\mathdefault{100}$ -->
      <g style="fill: #262626" transform="translate(295.446796 413.005867) scale(0.275 -0.275)">
       <defs>
        <path id="CMR17-31" d="M 1702 4083 
C 1702 4217 1696 4224 1606 4224 
C 1357 3927 979 3833 621 3820 
C 602 3820 570 3820 563 3808 
C 557 3795 557 3782 557 3648 
C 755 3648 1088 3686 1344 3839 
L 1344 467 
C 1344 243 1331 166 781 166 
L 589 166 
L 589 0 
C 896 6 1216 12 1523 12 
C 1830 12 2150 6 2458 0 
L 2458 166 
L 2266 166 
C 1715 166 1702 236 1702 467 
L 1702 4083 
z
" transform="scale(0.015625)"/>
       </defs>
       <use xlink:href="#CMR17-31" transform="scale(0.996264)"/>
       <use xlink:href="#CMR17-30" transform="translate(45.690477 0) scale(0.996264)"/>
       <use xlink:href="#CMR17-30" transform="translate(91.380954 0) scale(0.996264)"/>
      </g>
     </g>
    </g>
    <g id="xtick_4">
     <g id="line2d_4">
      <path d="M 413.759358 384.48 
L 413.759358 51.84 
" clip-path="url(#p39f64bbe59)" style="fill: none; stroke: #cccccc; stroke-linecap: round"/>
     </g>
     <g id="text_4">
      <!-- $\mathdefault{150}$ -->
      <g style="fill: #262626" transform="translate(394.912036 413.005867) scale(0.275 -0.275)">
       <use xlink:href="#CMR17-31" transform="scale(0.996264)"/>
       <use xlink:href="#CMR17-35" transform="translate(45.690477 0) scale(0.996264)"/>
       <use xlink:href="#CMR17-30" transform="translate(91.380954 0) scale(0.996264)"/>
      </g>
     </g>
    </g>
    <g id="xtick_5">
     <g id="line2d_5">
      <path d="M 513.224599 384.48 
L 513.224599 51.84 
" clip-path="url(#p39f64bbe59)" style="fill: none; stroke: #cccccc; stroke-linecap: round"/>
     </g>
     <g id="text_5">
      <!-- $\mathdefault{200}$ -->
      <g style="fill: #262626" transform="translate(494.377277 413.005867) scale(0.275 -0.275)">
       <defs>
        <path id="CMR17-32" d="M 2669 990 
L 2554 990 
C 2490 537 2438 460 2413 422 
C 2381 371 1920 371 1830 371 
L 602 371 
C 832 620 1280 1073 1824 1596 
C 2214 1966 2669 2400 2669 3033 
C 2669 3788 2067 4224 1395 4224 
C 691 4224 262 3603 262 3027 
C 262 2777 448 2745 525 2745 
C 589 2745 781 2783 781 3007 
C 781 3206 614 3264 525 3264 
C 486 3264 448 3257 422 3244 
C 544 3788 915 4057 1306 4057 
C 1862 4057 2227 3616 2227 3033 
C 2227 2477 1901 1998 1536 1583 
L 262 147 
L 262 0 
L 2515 0 
L 2669 990 
z
" transform="scale(0.015625)"/>
       </defs>
       <use xlink:href="#CMR17-32" transform="scale(0.996264)"/>
       <use xlink:href="#CMR17-30" transform="translate(45.690477 0) scale(0.996264)"/>
       <use xlink:href="#CMR17-30" transform="translate(91.380954 0) scale(0.996264)"/>
      </g>
     </g>
    </g>
    <g id="xtick_6">
     <g id="line2d_6">
      <path d="M 612.68984 384.48 
L 612.68984 51.84 
" clip-path="url(#p39f64bbe59)" style="fill: none; stroke: #cccccc; stroke-linecap: round"/>
     </g>
     <g id="text_6">
      <!-- $\mathdefault{250}$ -->
      <g style="fill: #262626" transform="translate(593.842518 413.005867) scale(0.275 -0.275)">
       <use xlink:href="#CMR17-32" transform="scale(0.996264)"/>
       <use xlink:href="#CMR17-35" transform="translate(45.690477 0) scale(0.996264)"/>
       <use xlink:href="#CMR17-30" transform="translate(91.380954 0) scale(0.996264)"/>
      </g>
     </g>
    </g>
    <g id="text_7">
     <!-- Time -->
     <g style="fill: #262626" transform="translate(337.682086 443.090362) scale(0.3 -0.3)">
      <defs>
       <path id="CMR17-54" d="M 3981 4332 
L 288 4332 
L 179 2924 
L 294 2924 
C 378 3981 467 4166 1453 4166 
C 1568 4166 1754 4166 1805 4159 
C 1926 4140 1926 4064 1926 3917 
L 1926 465 
C 1926 236 1907 166 1376 166 
L 1197 166 
L 1197 0 
C 1504 6 1824 12 2138 12 
C 2451 12 2771 6 3078 0 
L 3078 166 
L 2899 166 
C 2368 166 2349 236 2349 465 
L 2349 3917 
C 2349 4057 2349 4134 2464 4159 
C 2515 4166 2701 4166 2816 4166 
C 3795 4166 3891 3981 3974 2924 
L 4090 2924 
L 3981 4332 
z
" transform="scale(0.015625)"/>
       <path id="CMR17-69" d="M 992 3961 
C 992 4102 877 4224 730 4224 
C 589 4224 467 4108 467 3961 
C 467 3820 582 3699 730 3699 
C 870 3699 992 3814 992 3961 
z
M 243 2745 
L 243 2579 
C 602 2579 653 2540 653 2231 
L 653 443 
C 653 198 627 166 218 166 
L 218 0 
C 371 12 646 12 806 12 
C 960 12 1222 12 1370 0 
L 1370 166 
C 992 166 979 205 979 436 
L 979 2816 
L 243 2745 
z
" transform="scale(0.015625)"/>
       <path id="CMR17-6d" d="M 4326 1954 
C 4326 2276 4269 2816 3507 2816 
C 3072 2816 2771 2520 2656 2173 
L 2650 2173 
C 2573 2700 2195 2816 1837 2816 
C 1331 2816 1069 2424 973 2166 
L 966 2166 
L 966 2816 
L 211 2745 
L 211 2578 
C 589 2578 646 2540 646 2231 
L 646 443 
C 646 198 621 166 211 166 
L 211 0 
C 365 12 646 12 813 12 
C 979 12 1267 12 1421 0 
L 1421 166 
C 1011 166 986 192 986 443 
L 986 1678 
C 986 2269 1344 2713 1792 2713 
C 2266 2713 2317 2289 2317 1980 
L 2317 443 
C 2317 198 2291 166 1882 166 
L 1882 0 
C 2035 12 2317 12 2483 12 
C 2650 12 2938 12 3091 0 
L 3091 166 
C 2682 166 2656 192 2656 443 
L 2656 1678 
C 2656 2269 3014 2713 3462 2713 
C 3936 2713 3987 2289 3987 1980 
L 3987 443 
C 3987 198 3962 166 3552 166 
L 3552 0 
C 3706 12 3987 12 4154 12 
C 4320 12 4608 12 4762 0 
L 4762 166 
C 4352 166 4326 192 4326 443 
L 4326 1954 
z
" transform="scale(0.015625)"/>
       <path id="CMR17-65" d="M 2438 1503 
C 2464 1529 2464 1542 2464 1606 
C 2464 2251 2118 2816 1389 2816 
C 710 2816 173 2175 173 1394 
C 173 554 781 -64 1459 -64 
C 2176 -64 2458 619 2458 755 
C 2458 800 2419 800 2406 800 
C 2362 800 2355 787 2330 709 
C 2189 270 1837 51 1504 51 
C 1229 51 954 206 781 490 
C 582 819 582 1200 582 1503 
L 2438 1503 
z
M 589 1600 
C 634 2511 1126 2713 1382 2713 
C 1818 2713 2112 2308 2118 1600 
L 589 1600 
z
" transform="scale(0.015625)"/>
      </defs>
      <use xlink:href="#CMR17-54" transform="scale(0.996264)"/>
      <use xlink:href="#CMR17-69" transform="translate(66.509881 0) scale(0.996264)"/>
      <use xlink:href="#CMR17-6d" transform="translate(91.380939 0) scale(0.996264)"/>
      <use xlink:href="#CMR17-65" transform="translate(168.300529 0) scale(0.996264)"/>
     </g>
    </g>
   </g>
   <g id="matplotlib.axis_2">
    <g id="ytick_1">
     <g id="line2d_7">
      <path d="M 90 376.26013 
L 648 376.26013 
" clip-path="url(#p39f64bbe59)" style="fill: none; stroke: #cccccc; stroke-linecap: round"/>
     </g>
     <g id="text_8">
      <!-- $\mathdefault{−4}$ -->
      <g style="fill: #262626" transform="translate(46.626066 385.773064) scale(0.275 -0.275)">
       <defs>
        <path id="CMSY10-0" d="M 4218 1472 
C 4326 1472 4442 1472 4442 1600 
C 4442 1728 4326 1728 4218 1728 
L 755 1728 
C 646 1728 531 1728 531 1600 
C 531 1472 646 1472 755 1472 
L 4218 1472 
z
" transform="scale(0.015625)"/>
        <path id="CMR17-34" d="M 2150 4147 
C 2150 4281 2144 4288 2029 4288 
L 128 1254 
L 128 1088 
L 1779 1088 
L 1779 460 
C 1779 230 1766 166 1318 166 
L 1197 166 
L 1197 0 
C 1402 12 1747 12 1965 12 
C 2182 12 2528 12 2733 0 
L 2733 166 
L 2611 166 
C 2163 166 2150 230 2150 460 
L 2150 1088 
L 2803 1088 
L 2803 1254 
L 2150 1254 
L 2150 4147 
z
M 1798 3723 
L 1798 1254 
L 256 1254 
L 1798 3723 
z
" transform="scale(0.015625)"/>
       </defs>
       <use xlink:href="#CMSY10-0" transform="scale(0.996264)"/>
       <use xlink:href="#CMR17-34" transform="translate(77.487468 0) scale(0.996264)"/>
      </g>
     </g>
    </g>
    <g id="ytick_2">
     <g id="line2d_8">
      <path d="M 90 302.332982 
L 648 302.332982 
" clip-path="url(#p39f64bbe59)" style="fill: none; stroke: #cccccc; stroke-linecap: round"/>
     </g>
     <g id="text_9">
      <!-- $\mathdefault{−2}$ -->
      <g style="fill: #262626" transform="translate(46.626066 311.845916) scale(0.275 -0.275)">
       <use xlink:href="#CMSY10-0" transform="scale(0.996264)"/>
       <use xlink:href="#CMR17-32" transform="translate(77.487468 0) scale(0.996264)"/>
      </g>
     </g>
    </g>
    <g id="ytick_3">
     <g id="line2d_9">
      <path d="M 90 228.405834 
L 648 228.405834 
" clip-path="url(#p39f64bbe59)" style="fill: none; stroke: #cccccc; stroke-linecap: round"/>
     </g>
     <g id="text_10">
      <!-- $\mathdefault{0}$ -->
      <g style="fill: #262626" transform="translate(67.935119 237.918767) scale(0.275 -0.275)">
       <use xlink:href="#CMR17-30" transform="scale(0.996264)"/>
      </g>
     </g>
    </g>
    <g id="ytick_4">
     <g id="line2d_10">
      <path d="M 90 154.478686 
L 648 154.478686 
" clip-path="url(#p39f64bbe59)" style="fill: none; stroke: #cccccc; stroke-linecap: round"/>
     </g>
     <g id="text_11">
      <!-- $\mathdefault{2}$ -->
      <g style="fill: #262626" transform="translate(67.935119 163.991619) scale(0.275 -0.275)">
       <use xlink:href="#CMR17-32" transform="scale(0.996264)"/>
      </g>
     </g>
    </g>
    <g id="ytick_5">
     <g id="line2d_11">
      <path d="M 90 80.551538 
L 648 80.551538 
" clip-path="url(#p39f64bbe59)" style="fill: none; stroke: #cccccc; stroke-linecap: round"/>
     </g>
     <g id="text_12">
      <!-- $\mathdefault{4}$ -->
      <g style="fill: #262626" transform="translate(67.935119 90.064471) scale(0.275 -0.275)">
       <use xlink:href="#CMR17-34" transform="scale(0.996264)"/>
      </g>
     </g>
    </g>
    <g id="text_13">
     <!-- Amplitude -->
     <g style="fill: #262626" transform="translate(36.812616 281.787972) rotate(-90) scale(0.3 -0.3)">
      <defs>
       <path id="CMR17-41" d="M 2323 4441 
C 2291 4524 2278 4544 2214 4544 
C 2150 4544 2138 4524 2106 4441 
L 749 580 
C 627 236 371 166 147 166 
L 147 0 
C 262 12 518 12 640 12 
C 800 12 1056 12 1210 0 
L 1210 166 
C 909 179 864 382 864 459 
C 864 516 877 548 890 586 
L 1229 1536 
L 2906 1536 
L 3290 453 
C 3322 376 3322 363 3322 338 
C 3322 166 3046 166 2925 166 
L 2925 0 
C 3110 12 3443 12 3642 12 
C 3808 12 4128 12 4282 0 
L 4282 166 
C 3942 166 3827 166 3744 402 
L 2323 4441 
z
M 2067 3924 
L 2848 1702 
L 1286 1702 
L 2067 3924 
z
" transform="scale(0.015625)"/>
       <path id="CMR17-70" d="M 1408 -1114 
C 998 -1114 973 -1088 973 -834 
L 973 380 
C 1158 109 1427 -64 1766 -64 
C 2406 -64 3053 503 3053 1382 
C 3053 2196 2496 2816 1837 2816 
C 1453 2816 1139 2603 960 2345 
L 960 2816 
L 198 2745 
L 198 2577 
C 576 2577 634 2539 634 2228 
L 634 -834 
C 634 -1081 608 -1114 198 -1114 
L 198 -1280 
C 352 -1268 634 -1268 800 -1268 
C 966 -1268 1254 -1268 1408 -1280 
L 1408 -1114 
z
M 973 2015 
C 973 2106 973 2241 1222 2481 
C 1254 2506 1472 2700 1792 2700 
C 2259 2700 2643 2112 2643 1376 
C 2643 639 2234 38 1728 38 
C 1498 38 1248 148 1056 451 
C 973 594 973 632 973 736 
L 973 2015 
z
" transform="scale(0.015625)"/>
       <path id="CMR17-6c" d="M 979 4416 
L 218 4345 
L 218 4179 
C 595 4179 653 4141 653 3835 
L 653 439 
C 653 198 627 166 218 166 
L 218 0 
C 371 12 653 12 813 12 
C 979 12 1261 12 1414 0 
L 1414 166 
C 1005 166 979 191 979 439 
L 979 4416 
z
" transform="scale(0.015625)"/>
       <path id="CMR17-74" d="M 966 2585 
L 1862 2585 
L 1862 2752 
L 966 2752 
L 966 3968 
L 851 3968 
C 838 3292 614 2700 70 2687 
L 70 2585 
L 627 2585 
L 627 778 
C 627 655 627 -64 1370 -64 
C 1747 -64 1965 308 1965 784 
L 1965 1151 
L 1850 1151 
L 1850 790 
C 1850 347 1677 51 1408 51 
C 1222 51 966 179 966 765 
L 966 2585 
z
" transform="scale(0.015625)"/>
       <path id="CMR17-75" d="M 1882 2745 
L 1882 2579 
C 2259 2579 2317 2540 2317 2229 
L 2317 1053 
C 2317 510 2029 38 1555 38 
C 1030 38 986 355 986 691 
L 986 2816 
L 211 2745 
L 211 2579 
C 467 2579 640 2579 646 2320 
L 646 1079 
C 646 646 646 368 813 187 
C 896 103 1056 -64 1517 -64 
C 2061 -64 2272 400 2323 536 
L 2330 536 
L 2330 -64 
L 3091 -13 
L 3091 154 
C 2714 154 2656 193 2656 503 
L 2656 2816 
L 1882 2745 
z
" transform="scale(0.015625)"/>
       <path id="CMR17-64" d="M 1869 4345 
L 1869 4179 
C 2246 4179 2304 4141 2304 3843 
L 2304 2371 
C 2278 2403 2016 2816 1498 2816 
C 845 2816 211 2228 211 1376 
C 211 529 806 -64 1434 -64 
C 1978 -64 2259 361 2291 406 
L 2291 -64 
L 3066 -13 
L 3066 154 
C 2688 154 2630 193 2630 503 
L 2630 4416 
L 1869 4345 
z
M 2291 762 
C 2291 568 2176 393 2029 264 
C 1811 70 1594 38 1472 38 
C 1286 38 621 135 621 1369 
C 621 2636 1363 2713 1530 2713 
C 1824 2713 2061 2545 2208 2313 
C 2291 2177 2291 2157 2291 2041 
L 2291 762 
z
" transform="scale(0.015625)"/>
      </defs>
      <use xlink:href="#CMR17-41" transform="scale(0.996264)"/>
      <use xlink:href="#CMR17-6d" transform="translate(69.07243 0) scale(0.996264)"/>
      <use xlink:href="#CMR17-70" transform="translate(145.99202 0) scale(0.996264)"/>
      <use xlink:href="#CMR17-6c" transform="translate(196.887389 0) scale(0.996264)"/>
      <use xlink:href="#CMR17-69" transform="translate(221.758448 0) scale(0.996264)"/>
      <use xlink:href="#CMR17-74" transform="translate(246.629506 0) scale(0.996264)"/>
      <use xlink:href="#CMR17-75" transform="translate(281.910274 0) scale(0.996264)"/>
      <use xlink:href="#CMR17-64" transform="translate(332.805644 0) scale(0.996264)"/>
      <use xlink:href="#CMR17-65" transform="translate(383.701014 0) scale(0.996264)"/>
     </g>
    </g>
   </g>
   <g id="line2d_12">
    <path d="M 115.363636 228.405834 
L 125.31016 228.405834 
L 127.299465 180.791267 
L 131.278075 180.969673 
L 135.256684 181.503553 
L 139.235294 182.388907 
L 143.213904 183.6191 
L 147.192513 185.184914 
L 151.171123 187.074614 
L 155.149733 189.274039 
L 159.128342 191.766709 
L 163.106952 194.533942 
L 167.085561 197.555003 
L 171.064171 200.807252 
L 177.032086 206.065362 
L 179.02139 228.405834 
L 224.775401 228.405834 
L 226.764706 215.733585 
L 306.336898 228.405834 
L 326.229947 228.405834 
L 334.187166 215.415665 
L 338.165775 209.198892 
L 342.144385 203.310755 
L 346.122995 197.852002 
L 350.101604 192.916033 
L 354.080214 188.587304 
L 356.069519 186.674243 
L 358.058824 184.939882 
L 360.048128 183.391649 
L 362.037433 182.036174 
L 364.026738 180.879261 
L 366.016043 179.925864 
L 368.005348 179.180066 
L 369.994652 178.64506 
L 371.983957 178.323137 
L 373.973262 178.215676 
L 375.962567 178.323137 
L 377.951872 178.64506 
L 379.941176 179.180066 
L 381.930481 179.925864 
L 383.919786 180.879261 
L 385.909091 182.036174 
L 387.898396 183.391649 
L 389.887701 184.939882 
L 391.877005 186.674243 
L 393.86631 188.587304 
L 395.855615 190.670875 
L 399.834225 195.313163 
L 403.812834 200.521676 
L 407.791444 206.207295 
L 411.770053 212.272736 
L 417.737968 221.854704 
L 421.716578 228.405834 
L 425.695187 228.405834 
L 467.470588 122.487248 
L 469.459893 122.487248 
L 511.235294 228.405834 
L 525.160428 228.405834 
L 602.743316 80.075624 
L 604.73262 228.405834 
L 622.636364 228.405834 
L 622.636364 228.405834 
" clip-path="url(#p39f64bbe59)" style="fill: none; stroke: #4c72b0; stroke-width: 3; stroke-linecap: round"/>
   </g>
   <g id="line2d_13">
    <path d="M 115.363636 228.405834 
L 151.171123 228.405834 
L 157.139037 211.784167 
L 159.128342 206.622508 
L 161.117647 201.7785 
L 163.106952 197.322777 
L 165.096257 193.320316 
L 167.085561 189.82948 
L 169.074866 186.901175 
L 171.064171 184.578101 
L 173.053476 182.894134 
L 175.042781 181.87383 
L 177.032086 181.532067 
L 179.02139 181.87383 
L 181.010695 182.894134 
L 183 184.578101 
L 184.989305 186.901175 
L 186.97861 189.82948 
L 188.967914 193.320316 
L 190.957219 197.322777 
L 192.946524 201.7785 
L 194.935829 206.622508 
L 198.914439 217.188207 
L 202.893048 228.405834 
L 244.668449 228.405834 
L 302.358289 137.30783 
L 304.347594 228.405834 
L 336.176471 228.405834 
L 338.165775 87.450384 
L 340.15508 88.889002 
L 342.144385 93.175489 
L 344.13369 100.222349 
L 346.122995 109.885737 
L 348.112299 121.968402 
L 350.101604 136.223708 
L 352.090909 152.360669 
L 354.080214 170.049893 
L 358.058824 208.616496 
L 364.026738 268.458545 
L 366.016043 287.308875 
L 368.005348 304.956855 
L 369.994652 321.042246 
L 371.983957 335.236709 
L 373.973262 347.250499 
L 375.962567 356.838389 
L 377.951872 363.804665 
L 379.941176 368.007129 
L 381.930481 369.36 
L 383.919786 367.835662 
L 385.909091 363.46523 
L 387.898396 356.337916 
L 389.887701 346.599204 
L 391.877005 334.447885 
L 393.86631 320.131996 
L 395.855615 303.943758 
L 397.84492 286.213612 
L 401.823529 247.59934 
L 403.812834 227.503422 
L 405.802139 228.405834 
L 429.673797 228.405834 
L 431.663102 193.493056 
L 485.374332 193.493056 
L 487.363636 228.405834 
L 523.171123 228.405834 
L 525.160428 167.446569 
L 582.850267 228.405834 
L 622.636364 228.405834 
L 622.636364 228.405834 
" clip-path="url(#p39f64bbe59)" style="fill: none; stroke: #dd8452; stroke-width: 3; stroke-linecap: round"/>
   </g>
   <g id="line2d_14">
    <path d="M 115.363636 228.405834 
L 127.299465 228.405834 
L 129.28877 145.536729 
L 131.278075 146.062061 
L 133.26738 147.631397 
L 135.256684 150.22484 
L 137.245989 153.809508 
L 139.235294 158.339953 
L 141.224599 163.758735 
L 143.213904 169.997153 
L 145.203209 176.97611 
L 147.192513 184.607124 
L 151.171123 201.431281 
L 155.149733 219.6191 
L 163.106952 256.385425 
L 167.085561 273.105259 
L 169.074866 280.666614 
L 171.064171 287.565375 
L 173.053476 293.714075 
L 175.042781 299.034759 
L 177.032086 303.459967 
L 179.02139 306.933593 
L 181.010695 309.411598 
L 183 310.862563 
L 184.989305 311.268092 
L 186.97861 310.623043 
L 188.967914 308.935596 
L 190.957219 306.227143 
L 192.946524 302.532026 
L 194.935829 297.897092 
L 196.925134 292.381106 
L 198.914439 286.054004 
L 200.903743 278.996003 
L 202.893048 271.29659 
L 206.871658 254.370892 
L 210.850267 236.132565 
L 216.818182 208.337508 
L 220.796791 190.881577 
L 222.786096 182.81308 
L 224.775401 175.322635 
L 226.764706 228.405834 
L 228.754011 162.816497 
L 302.358289 162.816497 
L 304.347594 228.405834 
L 328.219251 228.405834 
L 334.187166 204.186507 
L 338.165775 188.858784 
L 342.144385 174.732677 
L 344.13369 168.256152 
L 346.122995 162.237403 
L 348.112299 156.722235 
L 350.101604 151.752622 
L 352.090909 147.366387 
L 354.080214 143.596911 
L 356.069519 140.472882 
L 358.058824 138.018076 
L 360.048128 136.251175 
L 362.037433 135.185627 
L 364.026738 134.829541 
L 366.016043 135.185627 
L 368.005348 136.251175 
L 369.994652 138.018076 
L 371.983957 140.472882 
L 373.973262 143.596911 
L 375.962567 147.366387 
L 377.951872 151.752622 
L 379.941176 156.722235 
L 381.930481 162.237403 
L 383.919786 168.256152 
L 385.909091 174.732677 
L 389.887701 188.858784 
L 393.86631 204.186507 
L 399.834225 228.405834 
L 425.695187 228.405834 
L 427.684492 143.316637 
L 485.374332 228.405834 
L 527.149733 228.405834 
L 560.967914 137.387782 
L 562.957219 137.387782 
L 596.775401 228.405834 
L 622.636364 228.405834 
L 622.636364 228.405834 
" clip-path="url(#p39f64bbe59)" style="fill: none; stroke: #55a868; stroke-width: 3; stroke-linecap: round"/>
   </g>
   <g id="line2d_15">
    <path d="M 115.363636 228.405834 
L 119.342246 228.405834 
L 121.331551 75.926222 
L 184.989305 75.926222 
L 186.97861 228.405834 
L 218.807487 228.405834 
L 220.796791 118.84958 
L 222.786096 119.38983 
L 224.775401 121.005252 
L 226.764706 123.679914 
L 228.754011 127.387437 
L 230.743316 132.091256 
L 232.73262 137.744978 
L 234.721925 144.292845 
L 236.71123 151.670277 
L 238.700535 159.804515 
L 240.68984 168.615334 
L 244.668449 187.913315 
L 248.647059 208.804789 
L 258.593583 262.543281 
L 262.572193 282.420998 
L 264.561497 291.608703 
L 266.550802 300.173068 
L 268.540107 308.029628 
L 270.529412 315.100897 
L 272.518717 321.317135 
L 274.508021 326.617033 
L 276.497326 330.948322 
L 278.486631 334.268285 
L 280.475936 336.544177 
L 282.465241 337.753553 
L 284.454545 337.884485 
L 286.44385 336.935683 
L 288.433155 334.916503 
L 290.42246 331.84686 
L 292.411765 327.757029 
L 294.40107 322.687345 
L 296.390374 316.687808 
L 298.379679 309.817588 
L 300.368984 302.144444 
L 302.358289 293.744052 
L 304.347594 284.69926 
L 308.326203 265.038773 
L 312.304813 243.936678 
L 316.283422 222.2234 
L 318.272727 228.405834 
L 320.262032 74.657976 
L 407.791444 228.405834 
L 419.727273 228.405834 
L 445.588235 136.537997 
L 447.57754 136.537997 
L 473.438503 228.405834 
L 519.192513 228.405834 
L 525.160428 198.22862 
L 529.139037 179.25362 
L 533.117647 161.952439 
L 535.106952 154.116439 
L 537.096257 146.91425 
L 539.085561 140.407318 
L 541.074866 134.651158 
L 543.064171 129.694881 
L 545.053476 125.58077 
L 547.042781 122.343927 
L 549.032086 120.011966 
L 551.02139 118.604784 
L 553.010695 118.134385 
L 555 118.604784 
L 556.989305 120.011966 
L 558.97861 122.343927 
L 560.967914 125.58077 
L 562.957219 129.694881 
L 564.946524 134.651158 
L 566.935829 140.407318 
L 568.925134 146.91425 
L 570.914439 154.116439 
L 572.903743 161.952439 
L 574.893048 170.355397 
L 578.871658 188.571192 
L 582.850267 208.143508 
L 586.828877 228.405834 
L 622.636364 228.405834 
L 622.636364 228.405834 
" clip-path="url(#p39f64bbe59)" style="fill: none; stroke: #c44e52; stroke-width: 3; stroke-linecap: round"/>
   </g>
   <g id="line2d_16">
    <path d="M 115.363636 228.405834 
L 143.213904 228.405834 
L 145.203209 183.614918 
L 147.192513 183.781288 
L 149.181818 184.279163 
L 151.171123 185.104844 
L 153.160428 186.252198 
L 155.149733 187.7127 
L 157.139037 189.475502 
L 159.128342 191.527508 
L 161.117647 193.853473 
L 163.106952 196.43612 
L 165.096257 199.256261 
L 169.074866 205.523621 
L 173.053476 212.469663 
L 177.032086 219.888369 
L 188.967914 242.74938 
L 192.946524 249.817203 
L 196.925134 256.249968 
L 198.914439 259.167686 
L 200.903743 261.856882 
L 202.893048 264.297578 
L 204.882353 266.471643 
L 206.871658 268.362926 
L 208.860963 269.957379 
L 210.850267 271.243155 
L 212.839572 272.210703 
L 214.828877 272.852835 
L 216.818182 273.164782 
L 218.807487 273.144226 
L 220.796791 228.405834 
L 240.68984 228.405834 
L 248.647059 205.086909 
L 252.625668 194.08005 
L 256.604278 183.839973 
L 260.582888 174.595423 
L 262.572193 170.412003 
L 264.561497 166.552909 
L 266.550802 163.039721 
L 268.540107 159.892087 
L 270.529412 157.127609 
L 272.518717 154.761749 
L 274.508021 152.807736 
L 276.497326 151.276498 
L 278.486631 150.176598 
L 280.475936 149.514189 
L 282.465241 149.292973 
L 284.454545 149.514189 
L 286.44385 150.176598 
L 288.433155 151.276498 
L 290.42246 152.807736 
L 292.411765 154.761749 
L 294.40107 157.127609 
L 296.390374 159.892087 
L 298.379679 163.039721 
L 300.368984 166.552909 
L 302.358289 170.412003 
L 304.347594 174.595423 
L 306.336898 179.079772 
L 310.315508 188.849404 
L 314.294118 199.50266 
L 318.272727 210.801566 
L 324.240642 228.405834 
L 334.187166 228.405834 
L 336.176471 163.84115 
L 393.86631 163.84115 
L 395.855615 228.405834 
L 431.663102 228.405834 
L 457.524064 231.798027 
L 459.513369 231.798027 
L 485.374332 228.405834 
L 525.160428 228.405834 
L 527.149733 139.713777 
L 602.743316 228.405834 
L 622.636364 228.405834 
L 622.636364 228.405834 
" clip-path="url(#p39f64bbe59)" style="fill: none; stroke: #8172b3; stroke-width: 3; stroke-linecap: round"/>
   </g>
   <g id="line2d_17">
    <path d="M 115.363636 228.405834 
L 137.245989 228.405834 
L 139.235294 147.015834 
L 194.935829 228.405834 
L 236.71123 228.405834 
L 242.679144 194.995236 
L 246.657754 173.98713 
L 250.636364 154.832189 
L 252.625668 146.156588 
L 254.614973 138.182709 
L 256.604278 130.978582 
L 258.593583 124.60567 
L 260.582888 119.118344 
L 262.572193 114.563421 
L 264.561497 110.979761 
L 266.550802 108.397939 
L 268.540107 106.839982 
L 270.529412 106.319182 
L 272.518717 106.839982 
L 274.508021 108.397939 
L 276.497326 110.979761 
L 278.486631 114.563421 
L 280.475936 119.118344 
L 282.465241 124.60567 
L 284.454545 130.978582 
L 286.44385 138.182709 
L 288.433155 146.156588 
L 290.42246 154.832189 
L 292.411765 164.135494 
L 296.390374 184.303048 
L 300.368984 205.972471 
L 304.347594 228.405834 
L 334.187166 228.405834 
L 373.973262 134.425771 
L 375.962567 134.425771 
L 415.748663 228.405834 
L 431.663102 228.405834 
L 511.235294 122.695079 
L 513.224599 228.405834 
L 527.149733 228.405834 
L 529.139037 168.814129 
L 614.679144 168.814129 
L 616.668449 228.405834 
L 622.636364 228.405834 
L 622.636364 228.405834 
" clip-path="url(#p39f64bbe59)" style="fill: none; stroke: #937860; stroke-width: 3; stroke-linecap: round"/>
   </g>
   <g id="line2d_18">
    <path d="M 115.363636 228.405834 
L 167.085561 228.405834 
L 169.074866 158.818751 
L 171.064171 159.693738 
L 173.053476 162.296697 
L 175.042781 166.562167 
L 177.032086 172.382881 
L 179.02139 179.61246 
L 181.010695 188.069093 
L 183 197.540115 
L 186.97861 218.553093 
L 192.946524 251.229852 
L 194.935829 261.33478 
L 196.925134 270.611611 
L 198.914439 278.827052 
L 200.903743 285.7745 
L 202.893048 291.279242 
L 204.882353 295.202845 
L 206.871658 297.446637 
L 208.860963 297.954191 
L 210.850267 296.712745 
L 212.839572 293.753517 
L 214.828877 289.150926 
L 216.818182 228.405834 
L 260.582888 228.405834 
L 346.122995 158.029671 
L 348.112299 228.405834 
L 350.101604 228.405834 
L 352.090909 217.801384 
L 407.791444 217.801384 
L 409.780749 228.405834 
L 441.609626 228.405834 
L 443.59893 201.779126 
L 519.192513 228.405834 
L 535.106952 228.405834 
L 576.882353 198.452527 
L 578.871658 198.452527 
L 620.647059 228.405834 
L 622.636364 228.405834 
L 622.636364 228.405834 
" clip-path="url(#p39f64bbe59)" style="fill: none; stroke: #da8bc3; stroke-width: 3; stroke-linecap: round"/>
   </g>
   <g id="line2d_19">
    <path d="M 115.363636 228.405834 
L 159.128342 228.405834 
L 183 139.363979 
L 184.989305 139.363979 
L 208.860963 228.405834 
L 250.636364 228.405834 
L 252.625668 212.450272 
L 340.15508 212.450272 
L 342.144385 228.405834 
L 344.13369 228.405834 
L 346.122995 183.433082 
L 391.877005 228.405834 
L 439.620321 228.405834 
L 445.588235 195.30214 
L 449.566845 174.740948 
L 451.55615 165.234766 
L 453.545455 156.376803 
L 455.534759 148.257957 
L 457.524064 140.961536 
L 459.513369 134.562411 
L 461.502674 129.126248 
L 463.491979 124.708827 
L 465.481283 121.355478 
L 467.470588 119.10061 
L 469.459893 117.967362 
L 471.449198 117.967362 
L 473.438503 119.10061 
L 475.427807 121.355478 
L 477.417112 124.708827 
L 479.406417 129.126248 
L 481.395722 134.562411 
L 483.385027 140.961536 
L 485.374332 148.257957 
L 487.363636 156.376803 
L 489.352941 165.234766 
L 491.342246 174.740948 
L 495.320856 195.30214 
L 501.28877 228.405834 
L 531.128342 228.405834 
L 533.117647 142.451767 
L 537.096257 142.632389 
L 541.074866 143.173495 
L 545.053476 144.072811 
L 549.032086 145.326557 
L 553.010695 146.929464 
L 556.989305 148.874796 
L 560.967914 151.154377 
L 564.946524 153.758627 
L 568.925134 156.6766 
L 572.903743 159.896032 
L 576.882353 163.403395 
L 580.860963 167.183946 
L 584.839572 171.221797 
L 588.818182 175.499978 
L 594.786096 182.32828 
L 600.754011 189.592108 
L 606.721925 197.222806 
L 610.700535 202.478258 
L 612.68984 228.405834 
L 622.636364 228.405834 
L 622.636364 228.405834 
" clip-path="url(#p39f64bbe59)" style="fill: none; stroke: #8c8c8c; stroke-width: 3; stroke-linecap: round"/>
   </g>
   <g id="line2d_20">
    <path d="M 115.363636 228.405834 
L 163.106952 228.405834 
L 169.074866 205.230274 
L 173.053476 190.835593 
L 175.042781 184.180411 
L 177.032086 177.979042 
L 179.02139 172.29512 
L 181.010695 167.18697 
L 183 162.707008 
L 184.989305 158.901205 
L 186.97861 155.808613 
L 188.967914 153.460968 
L 190.957219 151.882358 
L 192.946524 151.088982 
L 194.935829 151.088982 
L 196.925134 151.882358 
L 198.914439 153.460968 
L 200.903743 155.808613 
L 202.893048 158.901205 
L 204.882353 162.707008 
L 206.871658 167.18697 
L 208.860963 172.29512 
L 210.850267 177.979042 
L 212.839572 184.180411 
L 216.818182 197.876296 
L 220.796791 212.822065 
L 224.775401 228.405834 
L 254.614973 228.405834 
L 340.15508 187.11785 
L 342.144385 228.405834 
L 346.122995 228.405834 
L 387.898396 152.315404 
L 389.887701 152.315404 
L 431.663102 228.405834 
L 435.641711 228.405834 
L 437.631016 247.336844 
L 523.171123 247.336844 
L 525.160428 228.405834 
L 527.149733 228.405834 
L 529.139037 140.549862 
L 600.754011 228.405834 
L 622.636364 228.405834 
L 622.636364 228.405834 
" clip-path="url(#p39f64bbe59)" style="fill: none; stroke: #ccb974; stroke-width: 3; stroke-linecap: round"/>
   </g>
   <g id="line2d_21">
    <path d="M 115.363636 228.405834 
L 157.139037 228.405834 
L 232.73262 172.51933 
L 234.721925 228.405834 
L 248.647059 228.405834 
L 250.636364 140.328723 
L 334.187166 228.405834 
L 342.144385 228.405834 
L 344.13369 122.952948 
L 346.122995 124.093746 
L 348.112299 127.491457 
L 350.101604 133.072568 
L 352.090909 140.716325 
L 354.080214 150.257346 
L 356.069519 161.489201 
L 358.058824 174.168874 
L 360.048128 188.022028 
L 364.026738 218.030953 
L 369.994652 263.884249 
L 371.983957 278.06797 
L 373.973262 291.177193 
L 375.962567 302.928285 
L 377.951872 313.066997 
L 379.941176 321.373967 
L 381.930481 327.669462 
L 383.919786 331.817274 
L 385.909091 333.72766 
L 387.898396 333.359285 
L 389.887701 330.72012 
L 391.877005 325.867267 
L 393.86631 318.905723 
L 395.855615 309.986108 
L 397.84492 299.301409 
L 399.834225 287.082802 
L 401.823529 273.594651 
L 405.802139 243.998197 
L 411.770053 197.920998 
L 413.759358 228.405834 
L 435.641711 228.405834 
L 437.631016 143.992727 
L 521.181818 143.992727 
L 523.171123 228.405834 
L 531.128342 228.405834 
L 537.096257 207.219361 
L 541.074866 193.675171 
L 545.053476 180.986166 
L 549.032086 169.46479 
L 551.02139 164.231937 
L 553.010695 159.394738 
L 555 154.983015 
L 556.989305 151.023968 
L 558.97861 147.542006 
L 560.967914 144.558597 
L 562.957219 142.092134 
L 564.946524 140.157823 
L 566.935829 138.767591 
L 568.925134 137.930008 
L 570.914439 137.650239 
L 572.903743 137.930008 
L 574.893048 138.767591 
L 576.882353 140.157823 
L 578.871658 142.092134 
L 580.860963 144.558597 
L 582.850267 147.542006 
L 584.839572 151.023968 
L 586.828877 154.983015 
L 588.818182 159.394738 
L 590.807487 164.231937 
L 592.796791 169.46479 
L 596.775401 180.986166 
L 600.754011 193.675171 
L 604.73262 207.219361 
L 610.700535 228.405834 
L 622.636364 228.405834 
L 622.636364 228.405834 
" clip-path="url(#p39f64bbe59)" style="fill: none; stroke: #64b5cd; stroke-width: 3; stroke-linecap: round"/>
   </g>
   <g id="line2d_22">
    <path d="M 115.363636 228.405834 
L 123.320856 228.405834 
L 181.010695 111.763037 
L 183 228.405834 
L 222.786096 228.405834 
L 228.754011 201.178367 
L 232.73262 183.946877 
L 236.71123 168.066251 
L 238.700535 160.785314 
L 240.68984 154.019011 
L 242.679144 147.818837 
L 244.668449 142.231978 
L 246.657754 137.300954 
L 248.647059 133.063294 
L 250.636364 129.551248 
L 252.625668 126.791545 
L 254.614973 124.805188 
L 256.604278 123.607294 
L 258.593583 123.206981 
L 260.582888 123.607294 
L 262.572193 124.805188 
L 264.561497 126.791545 
L 266.550802 129.551248 
L 268.540107 133.063294 
L 270.529412 137.300954 
L 272.518717 142.231978 
L 274.508021 147.818837 
L 276.497326 154.019011 
L 278.486631 160.785314 
L 280.475936 168.066251 
L 284.454545 183.946877 
L 288.433155 201.178367 
L 294.40107 228.405834 
L 320.262032 228.405834 
L 322.251337 157.250796 
L 413.759358 228.405834 
L 419.727273 228.405834 
L 421.716578 189.825282 
L 491.342246 189.825282 
L 493.331551 228.405834 
L 521.181818 228.405834 
L 564.946524 150.391021 
L 566.935829 150.391021 
L 610.700535 228.405834 
L 622.636364 228.405834 
L 622.636364 228.405834 
" clip-path="url(#p39f64bbe59)" style="fill: none; stroke: #4c72b0; stroke-width: 3; stroke-linecap: round"/>
   </g>
   <g id="line2d_23">
    <path d="M 115.363636 228.405834 
L 165.096257 228.405834 
L 200.903743 190.546371 
L 202.893048 190.546371 
L 238.700535 228.405834 
L 254.614973 228.405834 
L 256.604278 138.846844 
L 338.165775 138.846844 
L 340.15508 228.405834 
L 348.112299 228.405834 
L 354.080214 212.853971 
L 358.058824 202.911901 
L 362.037433 193.597577 
L 366.016043 185.140347 
L 368.005348 181.299188 
L 369.994652 177.748458 
L 371.983957 174.510046 
L 373.973262 171.603921 
L 375.962567 169.047998 
L 377.951872 166.858035 
L 379.941176 165.047536 
L 381.930481 163.627661 
L 383.919786 162.607166 
L 385.909091 161.992341 
L 387.898396 161.786977 
L 389.887701 161.992341 
L 391.877005 162.607166 
L 393.86631 163.627661 
L 395.855615 165.047536 
L 397.84492 166.858035 
L 399.834225 169.047998 
L 401.823529 171.603921 
L 403.812834 174.510046 
L 405.802139 177.748458 
L 407.791444 181.299188 
L 409.780749 185.140347 
L 413.759358 193.597577 
L 417.737968 202.911901 
L 421.716578 212.853971 
L 427.684492 228.405834 
L 439.620321 228.405834 
L 527.149733 170.558684 
L 529.139037 228.405834 
L 531.128342 177.987638 
L 584.839572 228.405834 
L 622.636364 228.405834 
L 622.636364 228.405834 
" clip-path="url(#p39f64bbe59)" style="fill: none; stroke: #dd8452; stroke-width: 3; stroke-linecap: round"/>
   </g>
   <g id="line2d_24">
    <path d="M 115.363636 228.405834 
L 123.320856 228.405834 
L 125.31016 147.019877 
L 220.796791 147.019877 
L 222.786096 228.405834 
L 224.775401 119.290289 
L 276.497326 228.405834 
L 324.240642 228.405834 
L 332.197861 214.605404 
L 336.176471 208.027139 
L 340.15508 201.82849 
L 344.13369 196.124926 
L 348.112299 191.022695 
L 350.101604 188.727268 
L 352.090909 186.616841 
L 354.080214 184.701253 
L 356.069519 182.989436 
L 358.058824 181.489372 
L 360.048128 180.208054 
L 362.037433 179.151456 
L 364.026738 178.324504 
L 366.016043 177.731055 
L 368.005348 177.373876 
L 369.994652 177.25463 
L 371.983957 177.373876 
L 373.973262 177.731055 
L 375.962567 178.324504 
L 377.951872 179.151456 
L 379.941176 180.208054 
L 381.930481 181.489372 
L 383.919786 182.989436 
L 385.909091 184.701253 
L 387.898396 186.616841 
L 389.887701 188.727268 
L 391.877005 191.022695 
L 395.855615 196.124926 
L 399.834225 201.82849 
L 403.812834 208.027139 
L 407.791444 214.605404 
L 413.759358 224.915152 
L 415.748663 228.405834 
L 423.705882 228.405834 
L 491.342246 172.528005 
L 493.331551 228.405834 
L 523.171123 228.405834 
L 555 131.497195 
L 556.989305 131.497195 
L 588.818182 228.405834 
L 622.636364 228.405834 
L 622.636364 228.405834 
" clip-path="url(#p39f64bbe59)" style="fill: none; stroke: #55a868; stroke-width: 3; stroke-linecap: round"/>
   </g>
   <g id="line2d_25">
    <path d="M 115.363636 228.405834 
L 135.256684 228.405834 
L 190.957219 166.292812 
L 192.946524 228.405834 
L 230.743316 228.405834 
L 232.73262 153.312497 
L 234.721925 153.544637 
L 236.71123 154.239621 
L 238.700535 155.393152 
L 240.68984 156.998098 
L 242.679144 159.044537 
L 244.668449 161.519815 
L 246.657754 164.40863 
L 248.647059 167.69312 
L 250.636364 171.352978 
L 252.625668 175.365577 
L 254.614973 179.706107 
L 258.593583 189.261757 
L 262.572193 199.783975 
L 266.550802 211.01294 
L 274.508021 234.471418 
L 280.475936 251.80041 
L 284.454545 262.689725 
L 288.433155 272.732483 
L 290.42246 277.35792 
L 292.411765 281.680702 
L 294.40107 285.674102 
L 296.390374 289.313429 
L 298.379679 292.576183 
L 300.368984 228.405834 
L 328.219251 228.405834 
L 330.208556 191.194216 
L 409.780749 191.194216 
L 411.770053 228.405834 
L 425.695187 228.405834 
L 427.684492 163.3062 
L 493.331551 228.405834 
L 525.160428 228.405834 
L 533.117647 215.602763 
L 537.096257 209.616805 
L 541.074866 204.117474 
L 545.053476 199.247199 
L 547.042781 197.088104 
L 549.032086 195.132117 
L 551.02139 193.391922 
L 553.010695 191.878807 
L 555 190.602583 
L 556.989305 189.571527 
L 558.97861 188.792327 
L 560.967914 188.270036 
L 562.957219 188.008041 
L 564.946524 188.008041 
L 566.935829 188.270036 
L 568.925134 188.792327 
L 570.914439 189.571527 
L 572.903743 190.602583 
L 574.893048 191.878807 
L 576.882353 193.391922 
L 578.871658 195.132117 
L 580.860963 197.088104 
L 582.850267 199.247199 
L 584.839572 201.595399 
L 588.818182 206.797069 
L 592.796791 212.558396 
L 596.775401 218.730162 
L 602.743316 228.405834 
L 622.636364 228.405834 
L 622.636364 228.405834 
" clip-path="url(#p39f64bbe59)" style="fill: none; stroke: #c44e52; stroke-width: 3; stroke-linecap: round"/>
   </g>
   <g id="line2d_26">
    <path d="M 115.363636 228.405834 
L 153.160428 228.405834 
L 194.935829 112.845732 
L 196.925134 112.845732 
L 238.700535 228.405834 
L 246.657754 228.405834 
L 254.614973 218.266621 
L 258.593583 213.433552 
L 262.572193 208.879388 
L 266.550802 204.688964 
L 270.529412 200.940341 
L 274.508021 197.703348 
L 276.497326 196.295961 
L 278.486631 195.038284 
L 280.475936 193.936183 
L 282.465241 192.994795 
L 284.454545 192.21851 
L 286.44385 191.610946 
L 288.433155 191.174938 
L 290.42246 190.912517 
L 292.411765 190.824907 
L 294.40107 190.912517 
L 296.390374 191.174938 
L 298.379679 191.610946 
L 300.368984 192.21851 
L 302.358289 192.994795 
L 304.347594 193.936183 
L 306.336898 195.038284 
L 308.326203 196.295961 
L 310.315508 197.703348 
L 314.294118 200.940341 
L 318.272727 204.688964 
L 322.251337 208.879388 
L 326.229947 213.433552 
L 332.197861 220.759768 
L 338.165775 228.405834 
L 340.15508 151.480133 
L 425.695187 228.405834 
L 431.663102 228.405834 
L 433.652406 194.29896 
L 487.363636 194.29896 
L 489.352941 228.405834 
L 527.149733 228.405834 
L 574.893048 108.68594 
L 576.882353 228.405834 
L 622.636364 228.405834 
L 622.636364 228.405834 
" clip-path="url(#p39f64bbe59)" style="fill: none; stroke: #8172b3; stroke-width: 3; stroke-linecap: round"/>
   </g>
   <g id="line2d_27">
    <path d="M 115.363636 228.405834 
L 127.299465 228.405834 
L 129.28877 143.806472 
L 131.278075 143.915978 
L 133.26738 144.244213 
L 135.256684 144.790328 
L 137.245989 145.552908 
L 139.235294 146.52998 
L 141.224599 147.719013 
L 143.213904 149.11693 
L 145.203209 150.720112 
L 147.192513 152.524409 
L 149.181818 154.525148 
L 151.171123 156.717152 
L 153.160428 159.094744 
L 157.139037 164.381612 
L 161.117647 170.331039 
L 165.096257 176.881458 
L 169.074866 183.965081 
L 173.053476 191.508603 
L 177.032086 199.433959 
L 183 211.857648 
L 194.935829 237.561802 
L 202.893048 254.373359 
L 208.860963 266.314998 
L 212.839572 273.802606 
L 216.818182 280.820423 
L 218.807487 228.405834 
L 228.754011 228.405834 
L 256.604278 151.45827 
L 258.593583 151.45827 
L 286.44385 228.405834 
L 326.229947 228.405834 
L 328.219251 193.746015 
L 407.791444 228.405834 
L 425.695187 228.405834 
L 427.684492 143.294864 
L 483.385027 143.294864 
L 485.374332 228.405834 
L 527.149733 228.405834 
L 535.106952 201.673982 
L 539.085561 188.88078 
L 543.064171 176.763862 
L 547.042781 165.530552 
L 551.02139 155.373056 
L 553.010695 150.752853 
L 555 146.465171 
L 556.989305 142.528372 
L 558.97861 138.959314 
L 560.967914 135.773279 
L 562.957219 132.983911 
L 564.946524 130.603155 
L 566.935829 128.641204 
L 568.925134 127.106461 
L 570.914439 126.005498 
L 572.903743 125.343028 
L 574.893048 125.121889 
L 576.882353 125.343028 
L 578.871658 126.005498 
L 580.860963 127.106461 
L 582.850267 128.641204 
L 584.839572 130.603155 
L 586.828877 132.983911 
L 588.818182 135.773279 
L 590.807487 138.959314 
L 592.796791 142.528372 
L 594.786096 146.465171 
L 596.775401 150.752853 
L 598.764706 155.373056 
L 602.743316 165.530552 
L 606.721925 176.763862 
L 610.700535 188.88078 
L 614.679144 201.673982 
L 620.647059 221.650741 
L 622.636364 228.405834 
L 622.636364 228.405834 
" clip-path="url(#p39f64bbe59)" style="fill: none; stroke: #937860; stroke-width: 3; stroke-linecap: round"/>
   </g>
   <g id="line2d_28">
    <path d="M 115.363636 228.405834 
L 177.032086 228.405834 
L 181.010695 195.228352 
L 184.989305 164.135534 
L 186.97861 149.989961 
L 188.967914 137.081054 
L 190.957219 125.612394 
L 192.946524 115.764847 
L 194.935829 107.693716 
L 196.925134 101.526287 
L 198.914439 97.359824 
L 200.903743 95.260036 
L 202.893048 95.260036 
L 204.882353 97.359824 
L 206.871658 101.526287 
L 208.860963 107.693716 
L 210.850267 115.764847 
L 212.839572 125.612394 
L 214.828877 137.081054 
L 216.818182 149.989961 
L 218.807487 164.135534 
L 222.786096 195.228352 
L 226.764706 228.405834 
L 264.561497 228.405834 
L 266.550802 146.875186 
L 312.304813 146.875186 
L 314.294118 228.405834 
L 354.080214 228.405834 
L 356.069519 162.368875 
L 358.058824 163.467928 
L 360.048128 166.728505 
L 362.037433 172.042073 
L 364.026738 179.231766 
L 366.016043 188.058267 
L 368.005348 198.227777 
L 371.983957 221.20838 
L 375.962567 245.139306 
L 377.951872 256.467082 
L 379.941176 266.860811 
L 381.930481 275.974527 
L 383.919786 283.504872 
L 385.909091 289.20119 
L 387.898396 292.873873 
L 389.887701 294.400674 
L 391.877005 293.730769 
L 393.86631 290.886459 
L 395.855615 285.962418 
L 397.84492 279.122549 
L 399.834225 270.594522 
L 401.823529 260.662203 
L 403.812834 249.656199 
L 411.770053 202.497191 
L 413.759358 191.892502 
L 415.748663 228.405834 
L 443.59893 228.405834 
L 445.588235 168.652084 
L 495.320856 228.405834 
L 535.106952 228.405834 
L 560.967914 122.082598 
L 562.957219 122.082598 
L 588.818182 228.405834 
L 622.636364 228.405834 
L 622.636364 228.405834 
" clip-path="url(#p39f64bbe59)" style="fill: none; stroke: #da8bc3; stroke-width: 3; stroke-linecap: round"/>
   </g>
   <g id="line2d_29">
    <path d="M 115.363636 228.405834 
L 117.352941 206.887119 
L 212.839572 206.887119 
L 214.828877 228.405834 
L 218.807487 228.405834 
L 226.764706 205.933251 
L 230.743316 195.199142 
L 234.721925 185.057607 
L 238.700535 175.689622 
L 242.679144 167.26236 
L 244.668449 163.449226 
L 246.657754 159.926204 
L 248.647059 156.709028 
L 250.636364 153.812068 
L 252.625668 151.248262 
L 254.614973 149.02906 
L 256.604278 147.164375 
L 258.593583 145.662533 
L 260.582888 144.530243 
L 262.572193 143.772562 
L 264.561497 143.392873 
L 266.550802 143.392873 
L 268.540107 143.772562 
L 270.529412 144.530243 
L 272.518717 145.662533 
L 274.508021 147.164375 
L 276.497326 149.02906 
L 278.486631 151.248262 
L 280.475936 153.812068 
L 282.465241 156.709028 
L 284.454545 159.926204 
L 286.44385 163.449226 
L 288.433155 167.26236 
L 290.42246 171.348575 
L 294.40107 180.266113 
L 298.379679 190.042705 
L 302.358289 200.503888 
L 308.326203 217.068384 
L 312.304813 228.405834 
L 318.272727 228.405834 
L 320.262032 175.220785 
L 322.251337 175.312694 
L 324.240642 175.588102 
L 326.229947 176.046059 
L 328.219251 176.684981 
L 330.208556 177.502659 
L 332.197861 178.496269 
L 334.187166 179.662375 
L 336.176471 180.996948 
L 338.165775 182.495374 
L 340.15508 184.152476 
L 344.13369 187.919268 
L 348.112299 192.245292 
L 352.090909 197.070795 
L 356.069519 202.329122 
L 360.048128 207.947642 
L 366.016043 216.879919 
L 375.962567 232.419741 
L 379.941176 238.614147 
L 381.930481 228.405834 
L 421.716578 228.405834 
L 463.491979 154.813282 
L 465.481283 154.813282 
L 507.256684 228.405834 
L 523.171123 228.405834 
L 598.764706 174.328353 
L 600.754011 228.405834 
L 622.636364 228.405834 
L 622.636364 228.405834 
" clip-path="url(#p39f64bbe59)" style="fill: none; stroke: #8c8c8c; stroke-width: 3; stroke-linecap: round"/>
   </g>
   <g id="line2d_30">
    <path d="M 115.363636 228.405834 
L 147.192513 228.405834 
L 149.181818 96.032355 
L 200.903743 228.405834 
L 242.679144 228.405834 
L 244.668449 110.146754 
L 260.582888 110.249317 
L 276.497326 110.556831 
L 292.411765 111.068761 
L 302.358289 111.492142 
L 304.347594 228.405834 
L 340.15508 228.405834 
L 348.112299 198.313408 
L 352.090909 183.969219 
L 356.069519 170.4528 
L 360.048128 158.015936 
L 362.037433 152.275643 
L 364.026738 146.890303 
L 366.016043 141.885027 
L 368.005348 137.28315 
L 369.994652 133.10613 
L 371.983957 129.37344 
L 373.973262 126.102486 
L 375.962567 123.308517 
L 377.951872 121.00456 
L 379.941176 119.201357 
L 381.930481 117.907316 
L 383.919786 117.12847 
L 385.909091 116.868451 
L 387.898396 117.12847 
L 389.887701 117.907316 
L 391.877005 119.201357 
L 393.86631 121.00456 
L 395.855615 123.308517 
L 397.84492 126.102486 
L 399.834225 129.37344 
L 401.823529 133.10613 
L 403.812834 137.28315 
L 405.802139 141.885027 
L 407.791444 146.890303 
L 409.780749 152.275643 
L 413.759358 164.08442 
L 417.737968 177.091384 
L 421.716578 191.054239 
L 427.684492 213.218162 
L 431.663102 228.405834 
L 435.641711 228.405834 
L 507.256684 183.083609 
L 509.245989 228.405834 
L 531.128342 228.405834 
L 560.967914 121.615095 
L 562.957219 121.615095 
L 592.796791 228.405834 
L 622.636364 228.405834 
L 622.636364 228.405834 
" clip-path="url(#p39f64bbe59)" style="fill: none; stroke: #ccb974; stroke-width: 3; stroke-linecap: round"/>
   </g>
   <g id="line2d_31">
    <path d="M 115.363636 228.405834 
L 155.149733 228.405834 
L 157.139037 146.872114 
L 159.128342 148.189192 
L 161.117647 152.097873 
L 163.106952 158.471878 
L 165.096257 167.105279 
L 167.085561 177.71915 
L 169.074866 189.970584 
L 171.064171 203.463768 
L 179.02139 260.834754 
L 181.010695 273.702561 
L 183 285.106941 
L 184.989305 294.679446 
L 186.97861 302.110813 
L 188.967914 307.160953 
L 190.957219 309.666706 
L 192.946524 309.54712 
L 194.935829 306.806057 
L 196.925134 301.532074 
L 198.914439 293.895562 
L 200.903743 284.143236 
L 202.893048 272.590171 
L 204.882353 259.609618 
L 208.860963 231.076097 
L 212.839572 202.200286 
L 214.828877 228.405834 
L 248.647059 228.405834 
L 250.636364 66.96 
L 340.15508 66.96 
L 342.144385 228.405834 
L 344.13369 228.405834 
L 421.716578 165.637791 
L 423.705882 228.405834 
L 437.631016 228.405834 
L 443.59893 206.838839 
L 447.57754 193.443261 
L 449.566845 187.250001 
L 451.55615 181.479055 
L 453.545455 176.189642 
L 455.534759 171.436037 
L 457.524064 167.267019 
L 459.513369 163.725369 
L 461.502674 160.847427 
L 463.491979 158.662727 
L 465.481283 157.193685 
L 467.470588 156.455376 
L 469.459893 156.455376 
L 471.449198 157.193685 
L 473.438503 158.662727 
L 475.427807 160.847427 
L 477.417112 163.725369 
L 479.406417 167.267019 
L 481.395722 171.436037 
L 483.385027 176.189642 
L 485.374332 181.479055 
L 487.363636 187.250001 
L 491.342246 199.995285 
L 495.320856 213.9037 
L 499.299465 228.405834 
L 529.139037 228.405834 
L 531.128342 135.153902 
L 608.71123 228.405834 
L 622.636364 228.405834 
L 622.636364 228.405834 
" clip-path="url(#p39f64bbe59)" style="fill: none; stroke: #64b5cd; stroke-width: 3; stroke-linecap: round"/>
   </g>
   <g id="patch_3">
    <path d="M 90 384.48 
L 90 51.84 
" style="fill: none; stroke: #ffffff; stroke-width: 1.25; stroke-linejoin: miter; stroke-linecap: square"/>
   </g>
   <g id="patch_4">
    <path d="M 648 384.48 
L 648 51.84 
" style="fill: none; stroke: #ffffff; stroke-width: 1.25; stroke-linejoin: miter; stroke-linecap: square"/>
   </g>
   <g id="patch_5">
    <path d="M 90 384.48 
L 648 384.48 
" style="fill: none; stroke: #ffffff; stroke-width: 1.25; stroke-linejoin: miter; stroke-linecap: square"/>
   </g>
   <g id="patch_6">
    <path d="M 90 51.84 
L 648 51.84 
" style="fill: none; stroke: #ffffff; stroke-width: 1.25; stroke-linejoin: miter; stroke-linecap: square"/>
   </g>
   <g id="text_14">
    <!-- Illustration of Stochasticity in Signal Generation -->
    <g style="fill: #262626" transform="translate(78.383939 45.84) scale(0.3 -0.3)">
     <defs>
      <path id="CMR17-49" d="M 1261 3898 
C 1261 4185 1338 4185 1798 4185 
L 1798 4352 
C 1594 4339 1267 4339 1050 4339 
C 832 4339 506 4339 301 4352 
L 301 4185 
C 762 4185 838 4185 838 3898 
L 838 453 
C 838 166 762 166 301 166 
L 301 0 
C 506 12 832 12 1050 12 
C 1267 12 1594 12 1798 0 
L 1798 166 
C 1338 166 1261 166 1261 453 
L 1261 3898 
z
" transform="scale(0.015625)"/>
      <path id="CMR17-73" d="M 1978 2688 
C 1978 2803 1971 2809 1933 2809 
C 1907 2809 1901 2803 1824 2707 
C 1805 2681 1747 2617 1728 2592 
C 1523 2809 1235 2816 1126 2816 
C 416 2816 160 2444 160 2073 
C 160 1497 813 1363 998 1324 
C 1402 1241 1542 1216 1677 1100 
C 1760 1024 1901 883 1901 652 
C 1901 384 1747 38 1158 38 
C 602 38 403 460 288 1024 
C 269 1113 269 1120 218 1120 
C 166 1120 160 1113 160 985 
L 160 64 
C 160 -52 166 -58 205 -58 
C 237 -58 243 -52 275 0 
C 314 57 410 211 448 275 
C 576 102 800 -64 1158 -64 
C 1792 -64 2131 281 2131 780 
C 2131 1107 1958 1280 1875 1356 
C 1683 1555 1459 1600 1190 1651 
C 838 1728 390 1817 390 2208 
C 390 2374 480 2726 1126 2726 
C 1811 2726 1850 2086 1862 1881 
C 1869 1849 1901 1843 1920 1843 
C 1978 1843 1978 1862 1978 1971 
L 1978 2688 
z
" transform="scale(0.015625)"/>
      <path id="CMR17-72" d="M 960 1517 
C 960 2134 1222 2713 1702 2713 
C 1747 2713 1792 2707 1837 2687 
C 1837 2687 1696 2642 1696 2475 
C 1696 2321 1818 2257 1914 2257 
C 1990 2257 2131 2302 2131 2482 
C 2131 2687 1926 2816 1709 2816 
C 1222 2816 1011 2340 947 2115 
L 941 2115 
L 941 2816 
L 198 2745 
L 198 2578 
C 576 2578 634 2540 634 2231 
L 634 443 
C 634 198 608 166 198 166 
L 198 0 
C 352 12 646 12 813 12 
C 998 12 1325 12 1498 0 
L 1498 166 
C 1037 166 960 166 960 455 
L 960 1517 
z
" transform="scale(0.015625)"/>
      <path id="CMR17-61" d="M 2304 1656 
C 2304 2048 2304 2275 2035 2534 
C 1798 2751 1523 2816 1306 2816 
C 800 2816 435 2408 435 1977 
C 435 1740 627 1728 666 1728 
C 749 1728 896 1779 896 1958 
C 896 2118 774 2188 666 2188 
C 640 2188 608 2182 589 2176 
C 723 2594 1069 2713 1293 2713 
C 1613 2713 1965 2421 1965 1875 
L 1965 1632 
C 1587 1619 1133 1568 774 1373 
C 371 1147 256 822 256 576 
C 256 77 832 -64 1171 -64 
C 1523 -64 1850 135 1990 505 
C 2003 219 2182 -39 2464 -39 
C 2598 -39 2938 51 2938 563 
L 2938 926 
L 2822 926 
L 2822 557 
C 2822 161 2650 109 2566 109 
C 2304 109 2304 446 2304 732 
L 2304 1656 
z
M 1965 887 
C 1965 323 1568 38 1216 38 
C 896 38 646 278 646 576 
C 646 771 730 1114 1101 1322 
C 1408 1497 1760 1523 1965 1536 
L 1965 887 
z
" transform="scale(0.015625)"/>
      <path id="CMR17-6f" d="M 2758 1356 
C 2758 2176 2163 2816 1466 2816 
C 768 2816 173 2176 173 1356 
C 173 550 768 -64 1466 -64 
C 2163 -64 2758 550 2758 1356 
z
M 1466 51 
C 1165 51 909 230 762 480 
C 602 768 582 1126 582 1408 
C 582 1676 595 2009 762 2297 
C 890 2508 1139 2713 1466 2713 
C 1754 2713 1997 2553 2150 2329 
C 2349 2028 2349 1606 2349 1408 
C 2349 1158 2336 774 2163 467 
C 1984 172 1709 51 1466 51 
z
" transform="scale(0.015625)"/>
      <path id="CMR17-6e" d="M 2656 1954 
C 2656 2282 2592 2816 1837 2816 
C 1331 2816 1069 2424 973 2166 
L 966 2166 
L 966 2816 
L 211 2745 
L 211 2578 
C 589 2578 646 2540 646 2231 
L 646 443 
C 646 198 621 166 211 166 
L 211 0 
C 365 12 646 12 813 12 
C 979 12 1267 12 1421 0 
L 1421 166 
C 1011 166 986 192 986 443 
L 986 1678 
C 986 2269 1344 2713 1792 2713 
C 2266 2713 2317 2289 2317 1980 
L 2317 443 
C 2317 198 2291 166 1882 166 
L 1882 0 
C 2035 12 2317 12 2483 12 
C 2650 12 2938 12 3091 0 
L 3091 166 
C 2682 166 2656 192 2656 443 
L 2656 1954 
z
" transform="scale(0.015625)"/>
      <path id="CMR17-66" d="M 979 2585 
L 1709 2585 
L 1709 2752 
L 966 2752 
L 966 3539 
C 966 4076 1235 4377 1510 4377 
C 1594 4377 1690 4363 1754 4339 
C 1702 4326 1568 4281 1568 4121 
C 1568 3955 1696 3904 1786 3904 
C 1875 3904 2003 3955 2003 4121 
C 2003 4353 1773 4480 1517 4480 
C 1152 4480 653 4211 653 3526 
L 653 2752 
L 141 2752 
L 141 2585 
L 653 2585 
L 653 441 
C 653 198 627 166 218 166 
L 218 0 
C 371 12 666 12 832 12 
C 1018 12 1344 12 1517 0 
L 1517 166 
C 1056 166 979 166 979 454 
L 979 2585 
z
" transform="scale(0.015625)"/>
      <path id="CMR17-53" d="M 2803 4351 
C 2803 4467 2797 4473 2758 4473 
C 2720 4473 2707 4447 2682 4390 
L 2490 3965 
C 2246 4320 1875 4480 1472 4480 
C 819 4480 294 3958 294 3301 
C 294 3101 339 2817 557 2546 
C 794 2250 1018 2198 1530 2063 
C 1722 2011 2042 1927 2106 1901 
C 2470 1747 2662 1360 2662 999 
C 2662 534 2336 38 1779 38 
C 1094 38 454 425 410 1328 
C 403 1431 397 1437 352 1437 
C 301 1437 294 1431 294 1302 
L 294 0 
C 294 -116 301 -122 339 -122 
C 384 -122 397 -90 486 109 
C 493 128 493 141 614 386 
C 934 -39 1472 -128 1779 -128 
C 2477 -128 2970 457 2970 1141 
C 2970 1476 2848 1734 2778 1850 
C 2509 2263 2221 2340 1914 2417 
C 1869 2437 1856 2437 1498 2527 
C 1152 2617 1005 2662 845 2836 
C 666 3036 602 3243 602 3449 
C 602 3868 934 4326 1478 4326 
C 2157 4326 2579 3842 2675 3036 
C 2694 2920 2701 2914 2746 2914 
C 2803 2914 2803 2933 2803 3043 
L 2803 4351 
z
" transform="scale(0.015625)"/>
      <path id="CMR17-63" d="M 2234 2240 
C 2112 2240 1933 2240 1933 2015 
C 1933 1836 2080 1785 2163 1785 
C 2208 1785 2394 1804 2394 2028 
C 2394 2476 1958 2816 1466 2816 
C 787 2816 211 2201 211 1379 
C 211 521 813 -64 1466 -64 
C 2259 -64 2458 676 2458 747 
C 2458 773 2451 792 2406 792 
C 2362 792 2355 786 2330 702 
C 2163 180 1798 51 1523 51 
C 1114 51 621 431 621 1385 
C 621 2358 1094 2700 1472 2700 
C 1722 2700 2093 2582 2234 2240 
z
" transform="scale(0.015625)"/>
      <path id="CMR17-68" d="M 2656 1954 
C 2656 2282 2592 2816 1837 2816 
C 1312 2816 1056 2392 979 2179 
L 973 2179 
L 973 4416 
L 211 4345 
L 211 4179 
C 589 4179 646 4141 646 3843 
L 646 443 
C 646 198 621 166 211 166 
L 211 0 
C 365 12 646 12 813 12 
C 979 12 1267 12 1421 0 
L 1421 166 
C 1011 166 986 192 986 443 
L 986 1678 
C 986 2269 1344 2713 1792 2713 
C 2266 2713 2317 2289 2317 1980 
L 2317 443 
C 2317 198 2291 166 1882 166 
L 1882 0 
C 2035 12 2317 12 2483 12 
C 2650 12 2938 12 3091 0 
L 3091 166 
C 2682 166 2656 192 2656 443 
L 2656 1954 
z
" transform="scale(0.015625)"/>
      <path id="CMR17-79" d="M 2496 2183 
C 2656 2579 2944 2585 3034 2585 
L 3034 2752 
C 2912 2745 2752 2739 2630 2739 
C 2496 2739 2285 2739 2157 2752 
L 2157 2585 
C 2400 2566 2406 2384 2406 2332 
C 2406 2268 2394 2235 2362 2158 
L 1664 409 
L 902 2300 
C 870 2378 870 2423 870 2430 
C 870 2572 1018 2585 1171 2585 
L 1171 2752 
C 1018 2739 742 2739 582 2739 
C 410 2739 205 2739 64 2752 
L 64 2585 
C 410 2585 448 2553 531 2345 
L 1485 -31 
C 1197 -795 1030 -1242 627 -1242 
C 557 -1242 397 -1223 282 -1106 
C 429 -1093 493 -1002 493 -892 
C 493 -782 416 -685 288 -685 
C 147 -685 77 -782 77 -899 
C 77 -1158 339 -1344 627 -1344 
C 998 -1344 1229 -983 1357 -659 
L 2496 2183 
z
" transform="scale(0.015625)"/>
      <path id="CMR17-67" d="M 710 1165 
C 832 1068 1043 960 1299 960 
C 1805 960 2240 1359 2240 1895 
C 2240 2063 2189 2321 1997 2521 
C 2176 2713 2438 2777 2586 2777 
C 2611 2777 2650 2777 2682 2758 
C 2656 2751 2598 2726 2598 2623 
C 2598 2540 2656 2483 2739 2483 
C 2835 2483 2886 2547 2886 2630 
C 2886 2751 2790 2880 2586 2880 
C 2330 2880 2106 2758 1926 2591 
C 1734 2764 1504 2828 1299 2828 
C 794 2828 358 2431 358 1895 
C 358 1527 570 1294 634 1230 
C 442 1004 442 742 442 710 
C 442 544 506 300 723 166 
C 390 82 128 -184 128 -517 
C 128 -996 736 -1344 1466 -1344 
C 2170 -1344 2803 -1009 2803 -510 
C 2803 384 1856 384 1363 384 
C 1216 384 954 384 922 390 
C 723 422 589 601 589 825 
C 589 883 589 1024 710 1165 
z
M 1299 1068 
C 736 1068 736 1766 736 1895 
C 736 2024 736 2719 1299 2719 
C 1862 2719 1862 2024 1862 1895 
C 1862 1766 1862 1068 1299 1068 
z
M 1466 -1236 
C 826 -1236 384 -883 384 -517 
C 384 -311 493 -118 634 -11 
C 794 102 858 102 1293 102 
C 1818 102 2547 102 2547 -517 
C 2547 -883 2106 -1236 1466 -1236 
z
" transform="scale(0.015625)"/>
      <path id="CMR17-47" d="M 3974 1258 
C 3974 1503 3994 1536 4390 1536 
L 4390 1702 
C 4237 1689 3891 1689 3718 1689 
C 3539 1689 3040 1696 2797 1702 
L 2797 1536 
L 2989 1536 
C 3539 1536 3552 1464 3552 1232 
L 3552 806 
C 3552 96 2720 38 2522 38 
C 1862 38 781 496 781 2179 
C 781 3862 1843 4313 2464 4313 
C 3187 4313 3712 3681 3834 2785 
C 3846 2708 3846 2695 3904 2695 
C 3974 2695 3974 2708 3974 2824 
L 3974 4351 
C 3974 4467 3968 4473 3930 4473 
C 3904 4473 3898 4467 3853 4390 
L 3571 3849 
C 3258 4249 2874 4480 2381 4480 
C 1286 4480 294 3507 294 2179 
C 294 858 1267 -128 2394 -128 
C 2912 -128 3418 57 3616 425 
C 3725 161 3904 -20 3936 -20 
C 3968 -20 3974 -13 3974 102 
L 3974 1258 
z
" transform="scale(0.015625)"/>
     </defs>
     <use xlink:href="#CMR17-49" transform="scale(0.996264)"/>
     <use xlink:href="#CMR17-6c" transform="translate(32.638409 0) scale(0.996264)"/>
     <use xlink:href="#CMR17-6c" transform="translate(57.509468 0) scale(0.996264)"/>
     <use xlink:href="#CMR17-75" transform="translate(82.380526 0) scale(0.996264)"/>
     <use xlink:href="#CMR17-73" transform="translate(133.275896 0) scale(0.996264)"/>
     <use xlink:href="#CMR17-74" transform="translate(169.077234 0) scale(0.996264)"/>
     <use xlink:href="#CMR17-72" transform="translate(204.358001 0) scale(0.996264)"/>
     <use xlink:href="#CMR17-61" transform="translate(239.638769 0) scale(0.996264)"/>
     <use xlink:href="#CMR17-74" transform="translate(285.329246 0) scale(0.996264)"/>
     <use xlink:href="#CMR17-69" transform="translate(320.610014 0) scale(0.996264)"/>
     <use xlink:href="#CMR17-6f" transform="translate(345.481073 0) scale(0.996264)"/>
     <use xlink:href="#CMR17-6e" transform="translate(391.17155 0) scale(0.996264)"/>
     <use xlink:href="#CMR17-6f" transform="translate(472.142886 0) scale(0.996264)"/>
     <use xlink:href="#CMR17-66" transform="translate(517.833363 0) scale(0.996264)"/>
     <use xlink:href="#CMR17-53" transform="translate(575.382842 0) scale(0.996264)"/>
     <use xlink:href="#CMR17-74" transform="translate(626.278211 0) scale(0.996264)"/>
     <use xlink:href="#CMR17-6f" transform="translate(661.558979 0) scale(0.996264)"/>
     <use xlink:href="#CMR17-63" transform="translate(709.851895 0) scale(0.996264)"/>
     <use xlink:href="#CMR17-68" transform="translate(747.735102 0) scale(0.996264)"/>
     <use xlink:href="#CMR17-61" transform="translate(798.630471 0) scale(0.996264)"/>
     <use xlink:href="#CMR17-73" transform="translate(844.320949 0) scale(0.996264)"/>
     <use xlink:href="#CMR17-74" transform="translate(880.122286 0) scale(0.996264)"/>
     <use xlink:href="#CMR17-69" transform="translate(915.403054 0) scale(0.996264)"/>
     <use xlink:href="#CMR17-63" transform="translate(940.274112 0) scale(0.996264)"/>
     <use xlink:href="#CMR17-69" transform="translate(980.759773 0) scale(0.996264)"/>
     <use xlink:href="#CMR17-74" transform="translate(1005.630831 0) scale(0.996264)"/>
     <use xlink:href="#CMR17-79" transform="translate(1038.309145 0) scale(0.996264)"/>
     <use xlink:href="#CMR17-69" transform="translate(1116.678027 0) scale(0.996264)"/>
     <use xlink:href="#CMR17-6e" transform="translate(1141.549086 0) scale(0.996264)"/>
     <use xlink:href="#CMR17-53" transform="translate(1222.520422 0) scale(0.996264)"/>
     <use xlink:href="#CMR17-69" transform="translate(1273.415792 0) scale(0.996264)"/>
     <use xlink:href="#CMR17-67" transform="translate(1298.28685 0) scale(0.996264)"/>
     <use xlink:href="#CMR17-6e" transform="translate(1343.977327 0) scale(0.996264)"/>
     <use xlink:href="#CMR17-61" transform="translate(1394.872697 0) scale(0.996264)"/>
     <use xlink:href="#CMR17-6c" transform="translate(1440.563174 0) scale(0.996264)"/>
     <use xlink:href="#CMR17-47" transform="translate(1495.510199 0) scale(0.996264)"/>
     <use xlink:href="#CMR17-65" transform="translate(1567.865545 0) scale(0.996264)"/>
     <use xlink:href="#CMR17-6e" transform="translate(1608.351206 0) scale(0.996264)"/>
     <use xlink:href="#CMR17-65" transform="translate(1659.246575 0) scale(0.996264)"/>
     <use xlink:href="#CMR17-72" transform="translate(1699.732236 0) scale(0.996264)"/>
     <use xlink:href="#CMR17-61" transform="translate(1735.013004 0) scale(0.996264)"/>
     <use xlink:href="#CMR17-74" transform="translate(1780.703481 0) scale(0.996264)"/>
     <use xlink:href="#CMR17-69" transform="translate(1815.984249 0) scale(0.996264)"/>
     <use xlink:href="#CMR17-6f" transform="translate(1840.855307 0) scale(0.996264)"/>
     <use xlink:href="#CMR17-6e" transform="translate(1886.545784 0) scale(0.996264)"/>
    </g>
   </g>
  </g>
 </g>
 <defs>
  <clipPath id="p39f64bbe59">
   <rect x="90" y="51.84" width="558" height="332.64"/>
  </clipPath>
 </defs>
</svg>
